<?xml version="1.0" encoding="UTF-8" standalone="no"?>
<!-- Created with Inkscape (http://www.inkscape.org/) -->

<svg
   xml:space="preserve"
   sodipodi:docname="text.svg"
   inkscape:version="1.2.2 (732a01da63, 2022-12-09)"
   id="svg5"
   version="1.1"
   viewBox="0 0 240 141"
   height="141mm"
   width="240mm"
   xmlns:inkscape="http://www.inkscape.org/namespaces/inkscape"
   xmlns:sodipodi="http://sodipodi.sourceforge.net/DTD/sodipodi-0.dtd"
   xmlns="http://www.w3.org/2000/svg"
   xmlns:svg="http://www.w3.org/2000/svg"><sodipodi:namedview
     id="namedview7"
     pagecolor="#ffffff"
     bordercolor="#000000"
     borderopacity="0.25"
     inkscape:showpageshadow="2"
     inkscape:pageopacity="0.0"
     inkscape:pagecheckerboard="0"
     inkscape:deskcolor="#d1d1d1"
     inkscape:document-units="mm"
     showgrid="false"
     inkscape:zoom="1.0759173"
     inkscape:cx="432.65407"
     inkscape:cy="112.46218"
     inkscape:window-width="1920"
     inkscape:window-height="1129"
     inkscape:window-x="1912"
     inkscape:window-y="-8"
     inkscape:window-maximized="1"
     inkscape:current-layer="layer1" /><defs
     id="defs2" /><g
     inkscape:label="Layer 1"
     inkscape:groupmode="layer"
     id="layer1"><text
       xml:space="preserve"
       style="font-size:2.5px;font-family:'Segoe Print';-inkscape-font-specification:'Segoe Print, Normal';text-align:center;direction:rtl;text-orientation:sideways;text-anchor:middle;opacity:1;fill:none;stroke:#000000;stroke-width:0;stroke-linecap:round;stroke-dasharray:none;stroke-opacity:1"
       x="71.315117"
       y="79.184364"
       id="text50419"><tspan
         sodipodi:role="line"
         id="tspan50417"
         style="stroke-width:0"
         x="71.315117"
         y="79.184364" /></text><g
       inkscape:label="Hershey Text"
       style="fill:none;stroke:#000000;stroke-linecap:round;stroke-linejoin:round"
       id="g1408"
       transform="translate(-18.345141,-0.43471898)"><g
         transform="translate(80.0677,28.632)"
         id="g1390"><path
           d="M 378,662 126,0 M 378,662 630,0 M 220,220 h 316"
           style="stroke-width:0.5246in"
           transform="matrix(0.0035,0,0,-0.0035,1.323,0)"
           id="path1358" /><path
           d="M 220,441 V 0 m 0,315 95,95 63,31 h 94 l 64,-31 31,-95 V 0"
           style="stroke-width:0.5246in"
           transform="matrix(0.0035,0,0,-0.0035,3.3075,0)"
           id="path1360" /><path
           d="M 567,662 V 0 m 0,346 -63,64 -63,31 H 346 L 284,410 220,346 189,252 V 189 L 220,94.5 284,31.5 346,0 h 95 l 63,31.5 63,63"
           style="stroke-width:0.5246in"
           transform="matrix(0.0035,0,0,-0.0035,5.4005,0)"
           id="path1362" /><path
           d="m 189,252 h 378 v 63 l -31,63 -32,32 -63,31 H 346 L 284,410 220,346 189,252 V 189 L 220,94.5 284,31.5 346,0 h 95 l 63,31.5 63,63"
           style="stroke-width:0.5246in"
           transform="matrix(0.0035,0,0,-0.0035,7.4935,0)"
           id="path1364" /><path
           d="m 536,346 -32,64 -94,31 h -95 l -95,-31 -31,-64 31,-62 64,-32 157,-32 63,-31 32,-63 V 94.5 L 504,31.5 410,0 h -95 l -95,31.5 -31,63"
           style="stroke-width:0.5246in"
           transform="matrix(0.0035,0,0,-0.0035,9.478,0)"
           id="path1366" /><path
           d="m 189,662 31,-32 32,32 -32,31 -31,-31 M 220,441 V 0"
           style="stroke-width:0.5246in"
           transform="matrix(0.0035,0,0,-0.0035,11.354,0)"
           id="path1368" /><path
           d="M 252,662 V 126 L 284,31.5 346,0 h 64 M 158,441 h 220"
           style="stroke-width:0.5246in"
           transform="matrix(0.0035,0,0,-0.0035,12.236,0)"
           id="path1370" /><path
           d="m 189,252 h 378 v 63 l -31,63 -32,32 -63,31 H 346 L 284,410 220,346 189,252 V 189 L 220,94.5 284,31.5 346,0 h 95 l 63,31.5 63,63"
           style="stroke-width:0.5246in"
           transform="matrix(0.0035,0,0,-0.0035,13.559,0)"
           id="path1372" /><path
           d="M 220,662 V 0 M 220,662 472,0 M 724,662 472,0 M 724,662 V 0"
           style="stroke-width:0.5246in"
           transform="matrix(0.0035,0,0,-0.0035,16.8665,0)"
           id="path1374" /><path
           d="M 346,441 284,410 220,346 189,252 V 189 L 220,94.5 284,31.5 346,0 h 95 l 63,31.5 63,63 31,94.5 v 63 l -31,94 -63,64 -63,31 h -95"
           style="stroke-width:0.5246in"
           transform="matrix(0.0035,0,0,-0.0035,19.5125,0)"
           id="path1376" /><path
           d="M 220,441 V 126 L 252,31.5 315,0 h 95 l 62,31.5 95,94.5 m 0,315 V 0"
           style="stroke-width:0.5246in"
           transform="matrix(0.0035,0,0,-0.0035,21.6055,0)"
           id="path1378" /><path
           d="M 220,441 V 0 m 0,315 95,95 63,31 h 94 l 64,-31 31,-95 V 0"
           style="stroke-width:0.5246in"
           transform="matrix(0.0035,0,0,-0.0035,23.6985,0)"
           id="path1380" /><path
           d="M 252,662 V 126 L 284,31.5 346,0 h 64 M 158,441 h 220"
           style="stroke-width:0.5246in"
           transform="matrix(0.0035,0,0,-0.0035,25.7915,0)"
           id="path1382" /><path
           d="M 567,441 V 0 m 0,346 -63,64 -63,31 H 346 L 284,410 220,346 189,252 V 189 L 220,94.5 284,31.5 346,0 h 95 l 63,31.5 63,63"
           style="stroke-width:0.5246in"
           transform="matrix(0.0035,0,0,-0.0035,27.1145,0)"
           id="path1384" /><path
           d="m 189,662 31,-32 32,32 -32,31 -31,-31 M 220,441 V 0"
           style="stroke-width:0.5246in"
           transform="matrix(0.0035,0,0,-0.0035,29.2075,0)"
           id="path1386" /><path
           d="M 220,441 V 0 m 0,315 95,95 63,31 h 94 l 64,-31 31,-95 V 0"
           style="stroke-width:0.5246in"
           transform="matrix(0.0035,0,0,-0.0035,30.0895,0)"
           id="path1388" /></g><g
         transform="translate(89.718461,32.485337)"
         id="g1406"><path
           d="m 346,662 -94,-32 -32,-63 v -63 l 32,-63 63,-31 126,-32 95,-32 62,-62 32,-64 V 126 L 598,63 567,31.5 472,0 H 346 L 252,31.5 220,63 189,126 v 94 l 31,64 64,62 94,32 126,32 63,31 31,63 v 63 l -31,63 -95,32 H 346"
           style="stroke-width:0.5246in"
           transform="scale(0.0035,-0.0035)"
           id="path1392" /><path
           d="m 252,126 -32,-31.5 -31,31.5 31,32 32,-32 V 63 L 189,0"
           style="stroke-width:0.5246in"
           transform="matrix(0.0035,0,0,-0.0035,2.205,0)"
           id="path1394" /><path
           d="m 346,662 -94,-32 -32,-63 v -63 l 32,-63 63,-31 126,-32 95,-32 62,-62 32,-64 V 126 L 598,63 567,31.5 472,0 H 346 L 252,31.5 220,63 189,126 v 94 l 31,64 64,62 94,32 126,32 63,31 31,63 v 63 l -31,63 -95,32 H 346"
           style="stroke-width:0.5246in"
           transform="matrix(0.0035,0,0,-0.0035,3.087,0)"
           id="path1396" /><path
           d="M 378,662 284,630 220,536 189,378 V 284 L 220,126 284,31.5 378,0 h 63 l 95,31.5 62,94.5 32,158 v 94 l -32,158 -62,94 -95,32 h -63"
           style="stroke-width:0.5246in"
           transform="matrix(0.0035,0,0,-0.0035,5.292,0)"
           id="path1398" /><path
           d="M 378,662 284,630 220,536 189,378 V 284 L 220,126 284,31.5 378,0 h 63 l 95,31.5 62,94.5 32,158 v 94 l -32,158 -62,94 -95,32 h -63"
           style="stroke-width:0.5246in"
           transform="matrix(0.0035,0,0,-0.0035,7.497,0)"
           id="path1400" /><path
           d="M 410,662 H 346 L 284,630 252,536 V 0 m -94,441 h 220"
           style="stroke-width:0.5246in"
           transform="matrix(0.0035,0,0,-0.0035,9.702,0)"
           id="path1402" /><path
           d="M 252,662 V 126 L 284,31.5 346,0 h 64 M 158,441 h 220"
           style="stroke-width:0.5246in"
           transform="matrix(0.0035,0,0,-0.0035,11.025,0)"
           id="path1404" /></g></g><g
       inkscape:label="Hershey Text"
       style="fill:none;stroke:#000000;stroke-linecap:round;stroke-linejoin:round"
       transform="rotate(14.7189,4.0036072,-32.698864)"
       id="g1442"><g
         transform="translate(51.0595,20.6365)"
         id="g1440"><path
           d="m 630,567 -63,63 -95,32 H 346 l -94,-32 -63,-63 v -63 l 31,-63 32,-31 63,-32 189,-63 63,-31 31,-32 32,-63 V 94.5 L 567,31.5 472,0 H 346 l -94,31.5 -63,63"
           style="stroke-width:0.7344in"
           transform="scale(0.0025,-0.0025)"
           id="path1410" /><path
           d="M 346,441 284,410 220,346 189,252 V 189 L 220,94.5 284,31.5 346,0 h 95 l 63,31.5 63,63 31,94.5 v 63 l -31,94 -63,64 -63,31 h -95"
           style="stroke-width:0.7344in"
           transform="matrix(0.0025,0,0,-0.0025,1.575,0)"
           id="path1412" /><path
           d="M 220,441 V 126 L 252,31.5 315,0 h 95 l 62,31.5 95,94.5 m 0,315 V 0"
           style="stroke-width:0.7344in"
           transform="matrix(0.0025,0,0,-0.0025,3.07,0)"
           id="path1414" /><path
           d="M 252,662 V 126 L 284,31.5 346,0 h 64 M 158,441 h 220"
           style="stroke-width:0.7344in"
           transform="matrix(0.0025,0,0,-0.0025,4.565,0)"
           id="path1416" /><path
           d="M 220,662 V 0 m 0,315 95,95 63,31 h 94 l 64,-31 31,-95 V 0"
           style="stroke-width:0.7344in"
           transform="matrix(0.0025,0,0,-0.0025,5.51,0)"
           id="path1418" /><path
           d="m 189,252 h 378 v 63 l -31,63 -32,32 -63,31 H 346 L 284,410 220,346 189,252 V 189 L 220,94.5 284,31.5 346,0 h 95 l 63,31.5 63,63"
           style="stroke-width:0.7344in"
           transform="matrix(0.0025,0,0,-0.0025,7.005,0)"
           id="path1420" /><path
           d="M 220,441 V 0 m 0,252 32,94 63,64 63,31 h 94"
           style="stroke-width:0.7344in"
           transform="matrix(0.0025,0,0,-0.0025,8.4225,0)"
           id="path1422" /><path
           d="M 220,441 V 0 m 0,315 95,95 63,31 h 94 l 64,-31 31,-95 V 0"
           style="stroke-width:0.7344in"
           transform="matrix(0.0025,0,0,-0.0025,9.4475,0)"
           id="path1424" /><path
           d="m 662,504 -32,63 -63,63 -63,32 H 378 L 315,630 252,567 220,504 189,410 V 252 l 31,-94 32,-63.5 63,-63 L 378,0 h 126 l 63,31.5 63,63 32,63.5"
           style="stroke-width:0.7344in"
           transform="matrix(0.0025,0,0,-0.0025,11.8875,0)"
           id="path1426" /><path
           d="M 346,441 284,410 220,346 189,252 V 189 L 220,94.5 284,31.5 346,0 h 95 l 63,31.5 63,63 31,94.5 v 63 l -31,94 -63,64 -63,31 h -95"
           style="stroke-width:0.7344in"
           transform="matrix(0.0025,0,0,-0.0025,13.5425,0)"
           id="path1428" /><path
           d="M 220,441 V 0 m 0,315 95,95 63,31 h 94 l 64,-31 31,-95 V 0 m 0,315 95,95 62,31 h 95 l 63,-31 32,-95 V 0"
           style="stroke-width:0.7344in"
           transform="matrix(0.0025,0,0,-0.0025,15.0375,0)"
           id="path1430" /><path
           d="M 410,662 H 346 L 284,630 252,536 V 0 m -94,441 h 220"
           style="stroke-width:0.7344in"
           transform="matrix(0.0025,0,0,-0.0025,17.4,0)"
           id="path1432" /><path
           d="M 346,441 284,410 220,346 189,252 V 189 L 220,94.5 284,31.5 346,0 h 95 l 63,31.5 63,63 31,94.5 v 63 l -31,94 -63,64 -63,31 h -95"
           style="stroke-width:0.7344in"
           transform="matrix(0.0025,0,0,-0.0025,18.345,0)"
           id="path1434" /><path
           d="M 220,441 V 0 m 0,252 32,94 63,64 63,31 h 94"
           style="stroke-width:0.7344in"
           transform="matrix(0.0025,0,0,-0.0025,19.84,0)"
           id="path1436" /><path
           d="M 252,662 V 126 L 284,31.5 346,0 h 64 M 158,441 h 220"
           style="stroke-width:0.7344in"
           transform="matrix(0.0025,0,0,-0.0025,20.865,0)"
           id="path1438" /></g></g><g
       inkscape:label="Hershey Text"
       style="fill:none;stroke:#000000;stroke-linecap:round;stroke-linejoin:round"
       transform="rotate(-13.7554,2.866905,29.821073)"
       id="g1468"><g
         transform="translate(12.2503,66.5395)"
         id="g1466"><path
           d="M 346,662 V 0 M 126,662 h 441"
           style="stroke-width:0.7344in"
           transform="scale(0.0025,-0.0025)"
           id="path1444" /><path
           d="M 220,662 V 0 m 0,315 95,95 63,31 h 94 l 64,-31 31,-95 V 0"
           style="stroke-width:0.7344in"
           transform="matrix(0.0025,0,0,-0.0025,1.26,0)"
           id="path1446" /><path
           d="M 220,441 V 126 L 252,31.5 315,0 h 95 l 62,31.5 95,94.5 m 0,315 V 0"
           style="stroke-width:0.7344in"
           transform="matrix(0.0025,0,0,-0.0025,2.755,0)"
           id="path1448" /><path
           d="M 220,441 V 0 m 0,315 95,95 63,31 h 94 l 64,-31 31,-95 V 0"
           style="stroke-width:0.7344in"
           transform="matrix(0.0025,0,0,-0.0025,4.25,0)"
           id="path1450" /><path
           d="M 567,662 V 0 m 0,346 -63,64 -63,31 H 346 L 284,410 220,346 189,252 V 189 L 220,94.5 284,31.5 346,0 h 95 l 63,31.5 63,63"
           style="stroke-width:0.7344in"
           transform="matrix(0.0025,0,0,-0.0025,5.745,0)"
           id="path1452" /><path
           d="m 189,252 h 378 v 63 l -31,63 -32,32 -63,31 H 346 L 284,410 220,346 189,252 V 189 L 220,94.5 284,31.5 346,0 h 95 l 63,31.5 63,63"
           style="stroke-width:0.7344in"
           transform="matrix(0.0025,0,0,-0.0025,7.24,0)"
           id="path1454" /><path
           d="M 220,441 V 0 m 0,252 32,94 63,64 63,31 h 94"
           style="stroke-width:0.7344in"
           transform="matrix(0.0025,0,0,-0.0025,8.6575,0)"
           id="path1456" /><path
           d="M 158,662 315,0 M 472,662 315,0 M 472,662 630,0 M 788,662 630,0"
           style="stroke-width:0.7344in"
           transform="matrix(0.0025,0,0,-0.0025,10.6275,0)"
           id="path1458" /><path
           d="M 346,441 284,410 220,346 189,252 V 189 L 220,94.5 284,31.5 346,0 h 95 l 63,31.5 63,63 31,94.5 v 63 l -31,94 -63,64 -63,31 h -95"
           style="stroke-width:0.7344in"
           transform="matrix(0.0025,0,0,-0.0025,12.5175,0)"
           id="path1460" /><path
           d="M 220,662 V 0"
           style="stroke-width:0.7344in"
           transform="matrix(0.0025,0,0,-0.0025,14.0125,0)"
           id="path1462" /><path
           d="M 410,662 H 346 L 284,630 252,536 V 0 m -94,441 h 220"
           style="stroke-width:0.7344in"
           transform="matrix(0.0025,0,0,-0.0025,14.6425,0)"
           id="path1464" /></g></g><g
       inkscape:label="Hershey Text"
       style="fill:none;stroke:#000000;stroke-linecap:round;stroke-linejoin:round"
       transform="rotate(58.2332,3.8332151,-7.2690667)"
       id="g1492"><g
         transform="translate(77.9538,-26.5391)"
         id="g1490"><path
           d="M 220,662 V 0 m 0,662 h 284 l 94,-32 32,-32 32,-62 V 472 L 630,410 598,378 504,346 H 220 M 441,346 662,0"
           style="stroke-width:0.7344in"
           transform="scale(0.0025,-0.0025)"
           id="path1470" /><path
           d="M 567,441 V 0 m 0,346 -63,64 -63,31 H 346 L 284,410 220,346 189,252 V 189 L 220,94.5 284,31.5 346,0 h 95 l 63,31.5 63,63"
           style="stroke-width:0.7344in"
           transform="matrix(0.0025,0,0,-0.0025,1.655,0)"
           id="path1472" /><path
           d="M 220,441 V 0 m 0,315 95,95 63,31 h 94 l 64,-31 31,-95 V 0 m 0,315 95,95 62,31 h 95 l 63,-31 32,-95 V 0"
           style="stroke-width:0.7344in"
           transform="matrix(0.0025,0,0,-0.0025,3.15,0)"
           id="path1474" /><path
           d="m 567,346 -63,64 -63,31 H 346 L 284,410 220,346 189,252 V 189 L 220,94.5 284,31.5 346,0 h 95 l 63,31.5 63,63"
           style="stroke-width:0.7344in"
           transform="matrix(0.0025,0,0,-0.0025,5.5125,0)"
           id="path1476" /><path
           d="M 220,662 V 0 m 0,315 95,95 63,31 h 94 l 64,-31 31,-95 V 0"
           style="stroke-width:0.7344in"
           transform="matrix(0.0025,0,0,-0.0025,6.93,0)"
           id="path1478" /><path
           d="M 567,441 V 0 m 0,346 -63,64 -63,31 H 346 L 284,410 220,346 189,252 V 189 L 220,94.5 284,31.5 346,0 h 95 l 63,31.5 63,63"
           style="stroke-width:0.7344in"
           transform="matrix(0.0025,0,0,-0.0025,8.425,0)"
           id="path1480" /><path
           d="M 220,441 V 0 m 0,252 32,94 63,64 63,31 h 94"
           style="stroke-width:0.7344in"
           transform="matrix(0.0025,0,0,-0.0025,9.92,0)"
           id="path1482" /><path
           d="M 567,441 V -63 l -31,-95 -32,-31 -63,-31 h -95 l -62,31 m 283,535 -63,64 -63,31 H 346 L 284,410 220,346 189,252 V 189 L 220,94.5 284,31.5 346,0 h 95 l 63,31.5 63,63"
           style="stroke-width:0.7344in"
           transform="matrix(0.0025,0,0,-0.0025,10.945,0)"
           id="path1484" /><path
           d="m 189,252 h 378 v 63 l -31,63 -32,32 -63,31 H 346 L 284,410 220,346 189,252 V 189 L 220,94.5 284,31.5 346,0 h 95 l 63,31.5 63,63"
           style="stroke-width:0.7344in"
           transform="matrix(0.0025,0,0,-0.0025,12.44,0)"
           id="path1486" /><path
           d="M 220,441 V 0 m 0,252 32,94 63,64 63,31 h 94"
           style="stroke-width:0.7344in"
           transform="matrix(0.0025,0,0,-0.0025,13.8575,0)"
           id="path1488" /></g></g><g
       inkscape:label="Hershey Text"
       style="fill:none;stroke:#000000;stroke-linecap:round;stroke-linejoin:round"
       id="g1512"
       transform="translate(-4.3649769,-0.06147855)"><g
         transform="translate(77.4532,79.4753)"
         id="g1510"><path
           d="M 220,662 V 0 m 0,662 H 630 M 220,346 H 472 M 220,0 h 410"
           style="stroke-width:0.7344in"
           transform="scale(0.0025,-0.0025)"
           id="path1494" /><path
           d="M 189,441 536,0 M 536,441 189,0"
           style="stroke-width:0.7344in"
           transform="matrix(0.0025,0,0,-0.0025,1.495,0)"
           id="path1496" /><path
           d="m 220,441 v -661 m 0,566 64,64 62,31 h 95 l 63,-31 63,-64 31,-94 V 189 L 567,94.5 504,31.5 441,0 h -95 l -62,31.5 -64,63"
           style="stroke-width:0.7344in"
           transform="matrix(0.0025,0,0,-0.0025,2.835,0)"
           id="path1498" /><path
           d="M 220,662 V 0"
           style="stroke-width:0.7344in"
           transform="matrix(0.0025,0,0,-0.0025,4.33,0)"
           id="path1500" /><path
           d="M 346,441 284,410 220,346 189,252 V 189 L 220,94.5 284,31.5 346,0 h 95 l 63,31.5 63,63 31,94.5 v 63 l -31,94 -63,64 -63,31 h -95"
           style="stroke-width:0.7344in"
           transform="matrix(0.0025,0,0,-0.0025,4.96,0)"
           id="path1502" /><path
           d="M 220,441 V 0 m 0,252 32,94 63,64 63,31 h 94"
           style="stroke-width:0.7344in"
           transform="matrix(0.0025,0,0,-0.0025,6.455,0)"
           id="path1504" /><path
           d="m 189,252 h 378 v 63 l -31,63 -32,32 -63,31 H 346 L 284,410 220,346 189,252 V 189 L 220,94.5 284,31.5 346,0 h 95 l 63,31.5 63,63"
           style="stroke-width:0.7344in"
           transform="matrix(0.0025,0,0,-0.0025,7.48,0)"
           id="path1506" /><path
           d="M 220,441 V 0 m 0,252 32,94 63,64 63,31 h 94"
           style="stroke-width:0.7344in"
           transform="matrix(0.0025,0,0,-0.0025,8.8975,0)"
           id="path1508" /></g></g><g
       inkscape:label="Hershey Text"
       style="fill:none;stroke:#000000;stroke-linecap:round;stroke-linejoin:round"
       transform="rotate(-13.2698,3.3972704,30.660811)"
       id="g1540"><g
         transform="translate(81.8499,85.0009)"
         id="g1538"><path
           d="m 630,567 -63,63 -95,32 H 346 l -94,-32 -63,-63 v -63 l 31,-63 32,-31 63,-32 189,-63 63,-31 31,-32 32,-63 V 94.5 L 567,31.5 472,0 H 346 l -94,31.5 -63,63"
           style="stroke-width:0.7344in"
           transform="scale(0.0025,-0.0025)"
           id="path1514" /><path
           d="M 189,441 315,0 M 441,441 315,0 M 441,441 567,0 M 693,441 567,0"
           style="stroke-width:0.7344in"
           transform="matrix(0.0025,0,0,-0.0025,1.575,0)"
           id="path1516" /><path
           d="m 189,662 31,-32 32,32 -32,31 -31,-31 M 220,441 V 0"
           style="stroke-width:0.7344in"
           transform="matrix(0.0025,0,0,-0.0025,3.3075,0)"
           id="path1518" /><path
           d="M 410,662 H 346 L 284,630 252,536 V 0 m -94,441 h 220"
           style="stroke-width:0.7344in"
           transform="matrix(0.0025,0,0,-0.0025,3.9375,0)"
           id="path1520" /><path
           d="M 252,662 V 126 L 284,31.5 346,0 h 64 M 158,441 h 220"
           style="stroke-width:0.7344in"
           transform="matrix(0.0025,0,0,-0.0025,4.8825,0)"
           id="path1522" /><path
           d="m 662,504 -32,63 -63,63 -63,32 H 378 L 315,630 252,567 220,504 189,410 V 252 l 31,-94 32,-63.5 63,-63 L 378,0 h 126 l 63,31.5 63,63 32,63.5"
           style="stroke-width:0.7344in"
           transform="matrix(0.0025,0,0,-0.0025,6.7725,0)"
           id="path1524" /><path
           d="M 220,441 V 126 L 252,31.5 315,0 h 95 l 62,31.5 95,94.5 m 0,315 V 0"
           style="stroke-width:0.7344in"
           transform="matrix(0.0025,0,0,-0.0025,8.4275,0)"
           id="path1526" /><path
           d="M 220,441 V 0 m 0,252 32,94 63,64 63,31 h 94"
           style="stroke-width:0.7344in"
           transform="matrix(0.0025,0,0,-0.0025,9.9225,0)"
           id="path1528" /><path
           d="M 220,441 V 0 m 0,252 32,94 63,64 63,31 h 94"
           style="stroke-width:0.7344in"
           transform="matrix(0.0025,0,0,-0.0025,10.9475,0)"
           id="path1530" /><path
           d="m 189,252 h 378 v 63 l -31,63 -32,32 -63,31 H 346 L 284,410 220,346 189,252 V 189 L 220,94.5 284,31.5 346,0 h 95 l 63,31.5 63,63"
           style="stroke-width:0.7344in"
           transform="matrix(0.0025,0,0,-0.0025,11.9725,0)"
           id="path1532" /><path
           d="M 220,441 V 0 m 0,315 95,95 63,31 h 94 l 64,-31 31,-95 V 0"
           style="stroke-width:0.7344in"
           transform="matrix(0.0025,0,0,-0.0025,13.39,0)"
           id="path1534" /><path
           d="M 252,662 V 126 L 284,31.5 346,0 h 64 M 158,441 h 220"
           style="stroke-width:0.7344in"
           transform="matrix(0.0025,0,0,-0.0025,14.885,0)"
           id="path1536" /></g></g><g
       inkscape:label="Hershey Text"
       style="fill:none;stroke:#000000;stroke-linecap:round;stroke-linejoin:round"
       transform="rotate(-10.9747,1.7565126,32.139114)"
       id="g1564"><g
         transform="translate(113.915,100.667)"
         id="g1562"><path
           d="m 662,504 -32,63 -63,63 -63,32 H 378 L 315,630 252,567 220,504 189,410 V 252 l 31,-94 32,-63.5 63,-63 L 378,0 h 126 l 63,31.5 63,63 32,63.5"
           style="stroke-width:0.7344in"
           transform="scale(0.0025,-0.0025)"
           id="path1542" /><path
           d="M 220,662 V 0 m 0,315 95,95 63,31 h 94 l 64,-31 31,-95 V 0"
           style="stroke-width:0.7344in"
           transform="matrix(0.0025,0,0,-0.0025,1.655,0)"
           id="path1544" /><path
           d="M 567,441 V 0 m 0,346 -63,64 -63,31 H 346 L 284,410 220,346 189,252 V 189 L 220,94.5 284,31.5 346,0 h 95 l 63,31.5 63,63"
           style="stroke-width:0.7344in"
           transform="matrix(0.0025,0,0,-0.0025,3.15,0)"
           id="path1546" /><path
           d="M 220,662 V 0"
           style="stroke-width:0.7344in"
           transform="matrix(0.0025,0,0,-0.0025,4.645,0)"
           id="path1548" /><path
           d="M 220,662 V 0"
           style="stroke-width:0.7344in"
           transform="matrix(0.0025,0,0,-0.0025,5.275,0)"
           id="path1550" /><path
           d="m 189,252 h 378 v 63 l -31,63 -32,32 -63,31 H 346 L 284,410 220,346 189,252 V 189 L 220,94.5 284,31.5 346,0 h 95 l 63,31.5 63,63"
           style="stroke-width:0.7344in"
           transform="matrix(0.0025,0,0,-0.0025,5.905,0)"
           id="path1552" /><path
           d="M 220,441 V 0 m 0,315 95,95 63,31 h 94 l 64,-31 31,-95 V 0"
           style="stroke-width:0.7344in"
           transform="matrix(0.0025,0,0,-0.0025,7.3225,0)"
           id="path1554" /><path
           d="M 567,441 V -63 l -31,-95 -32,-31 -63,-31 h -95 l -62,31 m 283,535 -63,64 -63,31 H 346 L 284,410 220,346 189,252 V 189 L 220,94.5 284,31.5 346,0 h 95 l 63,31.5 63,63"
           style="stroke-width:0.7344in"
           transform="matrix(0.0025,0,0,-0.0025,8.8175,0)"
           id="path1556" /><path
           d="m 189,252 h 378 v 63 l -31,63 -32,32 -63,31 H 346 L 284,410 220,346 189,252 V 189 L 220,94.5 284,31.5 346,0 h 95 l 63,31.5 63,63"
           style="stroke-width:0.7344in"
           transform="matrix(0.0025,0,0,-0.0025,10.3125,0)"
           id="path1558" /><path
           d="M 220,441 V 0 m 0,252 32,94 63,64 63,31 h 94"
           style="stroke-width:0.7344in"
           transform="matrix(0.0025,0,0,-0.0025,11.73,0)"
           id="path1560" /></g></g><g
       inkscape:label="Hershey Text"
       style="fill:none;stroke:#000000;stroke-linecap:round;stroke-linejoin:round"
       transform="rotate(8.06682,4.4041017,-49.378465)"
       id="g1590"><g
         transform="translate(124.944,80.1511)"
         id="g1588"><path
           d="M 220,662 V 0 m 0,662 h 284 l 94,-32 32,-32 32,-62 V 441 L 630,378 598,346 504,315 H 220"
           style="stroke-width:0.7344in"
           transform="scale(0.0025,-0.0025)"
           id="path1566" /><path
           d="M 346,441 284,410 220,346 189,252 V 189 L 220,94.5 284,31.5 346,0 h 95 l 63,31.5 63,63 31,94.5 v 63 l -31,94 -63,64 -63,31 h -95"
           style="stroke-width:0.7344in"
           transform="matrix(0.0025,0,0,-0.0025,1.655,0)"
           id="path1568" /><path
           d="M 220,441 V 0 m 0,315 95,95 63,31 h 94 l 64,-31 31,-95 V 0"
           style="stroke-width:0.7344in"
           transform="matrix(0.0025,0,0,-0.0025,3.15,0)"
           id="path1570" /><path
           d="M 158,441 346,0 M 536,441 346,0 l -62,-126 -64,-63 -62,-31 h -32"
           style="stroke-width:0.7344in"
           transform="matrix(0.0025,0,0,-0.0025,4.645,0)"
           id="path1572" /><path
           d="M 220,662 V 0 m 0,662 H 630 M 220,346 H 472 M 220,0 h 410"
           style="stroke-width:0.7344in"
           transform="matrix(0.0025,0,0,-0.0025,6.85,0)"
           id="path1574" /><path
           d="M 189,441 536,0 M 536,441 189,0"
           style="stroke-width:0.7344in"
           transform="matrix(0.0025,0,0,-0.0025,8.345,0)"
           id="path1576" /><path
           d="m 220,441 v -661 m 0,566 64,64 62,31 h 95 l 63,-31 63,-64 31,-94 V 189 L 567,94.5 504,31.5 441,0 h -95 l -62,31.5 -64,63"
           style="stroke-width:0.7344in"
           transform="matrix(0.0025,0,0,-0.0025,9.685,0)"
           id="path1578" /><path
           d="M 220,441 V 0 m 0,252 32,94 63,64 63,31 h 94"
           style="stroke-width:0.7344in"
           transform="matrix(0.0025,0,0,-0.0025,11.18,0)"
           id="path1580" /><path
           d="m 189,252 h 378 v 63 l -31,63 -32,32 -63,31 H 346 L 284,410 220,346 189,252 V 189 L 220,94.5 284,31.5 346,0 h 95 l 63,31.5 63,63"
           style="stroke-width:0.7344in"
           transform="matrix(0.0025,0,0,-0.0025,12.205,0)"
           id="path1582" /><path
           d="m 536,346 -32,64 -94,31 h -95 l -95,-31 -31,-64 31,-62 64,-32 157,-32 63,-31 32,-63 V 94.5 L 504,31.5 410,0 h -95 l -95,31.5 -31,63"
           style="stroke-width:0.7344in"
           transform="matrix(0.0025,0,0,-0.0025,13.6225,0)"
           id="path1584" /><path
           d="m 536,346 -32,64 -94,31 h -95 l -95,-31 -31,-64 31,-62 64,-32 157,-32 63,-31 32,-63 V 94.5 L 504,31.5 410,0 h -95 l -95,31.5 -31,63"
           style="stroke-width:0.7344in"
           transform="matrix(0.0025,0,0,-0.0025,14.9625,0)"
           id="path1586" /></g></g><g
       inkscape:label="Hershey Text"
       style="fill:none;stroke:#000000;stroke-linecap:round;stroke-linejoin:round"
       transform="rotate(-21.5651,3.2286953,18.177409)"
       id="g1612"><g
         transform="translate(87.9485,131.773)"
         id="g1610"><path
           d="M 220,662 V 0"
           style="stroke-width:0.7344in"
           transform="scale(0.0025,-0.0025)"
           id="path1592" /><path
           d="M 220,441 V 0 m 0,252 32,94 63,64 63,31 h 94"
           style="stroke-width:0.7344in"
           transform="matrix(0.0025,0,0,-0.0025,0.63,0)"
           id="path1594" /><path
           d="M 346,441 284,410 220,346 189,252 V 189 L 220,94.5 284,31.5 346,0 h 95 l 63,31.5 63,63 31,94.5 v 63 l -31,94 -63,64 -63,31 h -95"
           style="stroke-width:0.7344in"
           transform="matrix(0.0025,0,0,-0.0025,1.655,0)"
           id="path1596" /><path
           d="M 220,441 V 0 m 0,315 95,95 63,31 h 94 l 64,-31 31,-95 V 0"
           style="stroke-width:0.7344in"
           transform="matrix(0.0025,0,0,-0.0025,3.15,0)"
           id="path1598" /><path
           d="M 220,662 V 0 M 662,662 V 0 M 220,346 h 442"
           style="stroke-width:0.7344in"
           transform="matrix(0.0025,0,0,-0.0025,5.59,0)"
           id="path1600" /><path
           d="M 346,441 284,410 220,346 189,252 V 189 L 220,94.5 284,31.5 346,0 h 95 l 63,31.5 63,63 31,94.5 v 63 l -31,94 -63,64 -63,31 h -95"
           style="stroke-width:0.7344in"
           transform="matrix(0.0025,0,0,-0.0025,7.3225,0)"
           id="path1602" /><path
           d="M 220,441 V 0 m 0,252 32,94 63,64 63,31 h 94"
           style="stroke-width:0.7344in"
           transform="matrix(0.0025,0,0,-0.0025,8.8175,0)"
           id="path1604" /><path
           d="m 536,346 -32,64 -94,31 h -95 l -95,-31 -31,-64 31,-62 64,-32 157,-32 63,-31 32,-63 V 94.5 L 504,31.5 410,0 h -95 l -95,31.5 -31,63"
           style="stroke-width:0.7344in"
           transform="matrix(0.0025,0,0,-0.0025,9.8425,0)"
           id="path1606" /><path
           d="m 189,252 h 378 v 63 l -31,63 -32,32 -63,31 H 346 L 284,410 220,346 189,252 V 189 L 220,94.5 284,31.5 346,0 h 95 l 63,31.5 63,63"
           style="stroke-width:0.7344in"
           transform="matrix(0.0025,0,0,-0.0025,11.1825,0)"
           id="path1608" /></g></g><g
       inkscape:label="Hershey Text"
       style="fill:none;stroke:#000000;stroke-linecap:round;stroke-linejoin:round"
       transform="rotate(82.9277,3.3778086,-4.0997334)"
       id="g1636"><g
         transform="translate(122.212,-135.708)"
         id="g1634"><path
           d="m 630,567 -63,63 -95,32 H 346 l -94,-32 -63,-63 v -63 l 31,-63 32,-31 63,-32 189,-63 63,-31 31,-32 32,-63 V 94.5 L 567,31.5 472,0 H 346 l -94,31.5 -63,63"
           style="stroke-width:0.7344in"
           transform="scale(0.0025,-0.0025)"
           id="path1614" /><path
           d="m 189,662 31,-32 32,32 -32,31 -31,-31 M 220,441 V 0"
           style="stroke-width:0.7344in"
           transform="matrix(0.0025,0,0,-0.0025,1.575,0)"
           id="path1616" /><path
           d="M 189,441 536,0 M 536,441 189,0"
           style="stroke-width:0.7344in"
           transform="matrix(0.0025,0,0,-0.0025,2.205,0)"
           id="path1618" /><path
           d="m 630,567 -63,63 -95,32 H 346 l -94,-32 -63,-63 v -63 l 31,-63 32,-31 63,-32 189,-63 63,-31 31,-32 32,-63 V 94.5 L 567,31.5 472,0 H 346 l -94,31.5 -63,63"
           style="stroke-width:0.7344in"
           transform="matrix(0.0025,0,0,-0.0025,4.49,0)"
           id="path1620" /><path
           d="M 220,662 V 0 m 0,315 95,95 63,31 h 94 l 64,-31 31,-95 V 0"
           style="stroke-width:0.7344in"
           transform="matrix(0.0025,0,0,-0.0025,6.065,0)"
           id="path1622" /><path
           d="M 346,441 284,410 220,346 189,252 V 189 L 220,94.5 284,31.5 346,0 h 95 l 63,31.5 63,63 31,94.5 v 63 l -31,94 -63,64 -63,31 h -95"
           style="stroke-width:0.7344in"
           transform="matrix(0.0025,0,0,-0.0025,7.56,0)"
           id="path1624" /><path
           d="M 346,441 284,410 220,346 189,252 V 189 L 220,94.5 284,31.5 346,0 h 95 l 63,31.5 63,63 31,94.5 v 63 l -31,94 -63,64 -63,31 h -95"
           style="stroke-width:0.7344in"
           transform="matrix(0.0025,0,0,-0.0025,9.055,0)"
           id="path1626" /><path
           d="M 252,662 V 126 L 284,31.5 346,0 h 64 M 158,441 h 220"
           style="stroke-width:0.7344in"
           transform="matrix(0.0025,0,0,-0.0025,10.55,0)"
           id="path1628" /><path
           d="m 189,252 h 378 v 63 l -31,63 -32,32 -63,31 H 346 L 284,410 220,346 189,252 V 189 L 220,94.5 284,31.5 346,0 h 95 l 63,31.5 63,63"
           style="stroke-width:0.7344in"
           transform="matrix(0.0025,0,0,-0.0025,11.495,0)"
           id="path1630" /><path
           d="M 220,441 V 0 m 0,252 32,94 63,64 63,31 h 94"
           style="stroke-width:0.7344in"
           transform="matrix(0.0025,0,0,-0.0025,12.9125,0)"
           id="path1632" /></g></g><g
       inkscape:label="Hershey Text"
       style="fill:none;stroke:#000000;stroke-linecap:round;stroke-linejoin:round"
       transform="rotate(52.638,1.0303742,-1.6699071)"
       id="g1658"><g
         transform="translate(176.641,-29.8369)"
         id="g1656"><path
           d="M 220,662 V 0 m 0,662 h 221 l 95,-32 62,-63 32,-63 32,-94 V 252 L 630,158 598,94.5 536,31.5 441,0 H 220"
           style="stroke-width:0.7344in"
           transform="scale(0.0025,-0.0025)"
           id="path1638" /><path
           d="m 189,252 h 378 v 63 l -31,63 -32,32 -63,31 H 346 L 284,410 220,346 189,252 V 189 L 220,94.5 284,31.5 346,0 h 95 l 63,31.5 63,63"
           style="stroke-width:0.7344in"
           transform="matrix(0.0025,0,0,-0.0025,1.655,0)"
           id="path1640" /><path
           d="M 220,441 V 0 m 0,252 32,94 63,64 63,31 h 94"
           style="stroke-width:0.7344in"
           transform="matrix(0.0025,0,0,-0.0025,3.0725,0)"
           id="path1642" /><path
           d="M 220,441 V 0 m 0,252 32,94 63,64 63,31 h 94"
           style="stroke-width:0.7344in"
           transform="matrix(0.0025,0,0,-0.0025,4.0975,0)"
           id="path1644" /><path
           d="m 189,662 31,-32 32,32 -32,31 -31,-31 M 220,441 V 0"
           style="stroke-width:0.7344in"
           transform="matrix(0.0025,0,0,-0.0025,5.1225,0)"
           id="path1646" /><path
           d="M 220,441 V 0 m 0,315 95,95 63,31 h 94 l 64,-31 31,-95 V 0"
           style="stroke-width:0.7344in"
           transform="matrix(0.0025,0,0,-0.0025,5.7525,0)"
           id="path1648" /><path
           d="M 567,441 V -63 l -31,-95 -32,-31 -63,-31 h -95 l -62,31 m 283,535 -63,64 -63,31 H 346 L 284,410 220,346 189,252 V 189 L 220,94.5 284,31.5 346,0 h 95 l 63,31.5 63,63"
           style="stroke-width:0.7344in"
           transform="matrix(0.0025,0,0,-0.0025,7.2475,0)"
           id="path1650" /><path
           d="m 189,252 h 378 v 63 l -31,63 -32,32 -63,31 H 346 L 284,410 220,346 189,252 V 189 L 220,94.5 284,31.5 346,0 h 95 l 63,31.5 63,63"
           style="stroke-width:0.7344in"
           transform="matrix(0.0025,0,0,-0.0025,8.7425,0)"
           id="path1652" /><path
           d="M 220,441 V 0 m 0,252 32,94 63,64 63,31 h 94"
           style="stroke-width:0.7344in"
           transform="matrix(0.0025,0,0,-0.0025,10.16,0)"
           id="path1654" /></g></g><g
       inkscape:label="Hershey Text"
       style="fill:none;stroke:#000000;stroke-linecap:round;stroke-linejoin:round"
       transform="rotate(-18.4747,2.9743683,19.884581)"
       id="g1678"><g
         transform="translate(130.876,130.442)"
         id="g1676"><path
           d="M 220,662 V 0 m 0,0 h 378"
           style="stroke-width:0.7344in"
           transform="scale(0.0025,-0.0025)"
           id="path1660" /><path
           d="M 346,441 284,410 220,346 189,252 V 189 L 220,94.5 284,31.5 346,0 h 95 l 63,31.5 63,63 31,94.5 v 63 l -31,94 -63,64 -63,31 h -95"
           style="stroke-width:0.7344in"
           transform="matrix(0.0025,0,0,-0.0025,1.34,0)"
           id="path1662" /><path
           d="M 220,441 V 0 m 0,315 95,95 63,31 h 94 l 64,-31 31,-95 V 0"
           style="stroke-width:0.7344in"
           transform="matrix(0.0025,0,0,-0.0025,2.835,0)"
           id="path1664" /><path
           d="m 189,252 h 378 v 63 l -31,63 -32,32 -63,31 H 346 L 284,410 220,346 189,252 V 189 L 220,94.5 284,31.5 346,0 h 95 l 63,31.5 63,63"
           style="stroke-width:0.7344in"
           transform="matrix(0.0025,0,0,-0.0025,4.33,0)"
           id="path1666" /><path
           d="M 346,662 V 0 M 126,662 h 441"
           style="stroke-width:0.7344in"
           transform="matrix(0.0025,0,0,-0.0025,6.6925,0)"
           id="path1668" /><path
           d="M 220,441 V 0 m 0,252 32,94 63,64 63,31 h 94"
           style="stroke-width:0.7344in"
           transform="matrix(0.0025,0,0,-0.0025,7.9525,0)"
           id="path1670" /><path
           d="m 189,252 h 378 v 63 l -31,63 -32,32 -63,31 H 346 L 284,410 220,346 189,252 V 189 L 220,94.5 284,31.5 346,0 h 95 l 63,31.5 63,63"
           style="stroke-width:0.7344in"
           transform="matrix(0.0025,0,0,-0.0025,8.9775,0)"
           id="path1672" /><path
           d="m 189,252 h 378 v 63 l -31,63 -32,32 -63,31 H 346 L 284,410 220,346 189,252 V 189 L 220,94.5 284,31.5 346,0 h 95 l 63,31.5 63,63"
           style="stroke-width:0.7344in"
           transform="matrix(0.0025,0,0,-0.0025,10.395,0)"
           id="path1674" /></g></g><g
       inkscape:label="Hershey Text"
       style="fill:none;stroke:#000000;stroke-linecap:round;stroke-linejoin:round"
       transform="rotate(19.5329,3.7635579,-26.206557)"
       id="g1706"><g
         transform="translate(164.357,1.97599)"
         id="g1704"><path
           d="M 220,662 V 0 m 0,662 h 284 l 94,-32 32,-32 32,-62 V 441 L 630,378 598,346 504,315 H 220"
           style="stroke-width:0.7344in"
           transform="scale(0.0025,-0.0025)"
           id="path1680" /><path
           d="M 346,441 284,410 220,346 189,252 V 189 L 220,94.5 284,31.5 346,0 h 95 l 63,31.5 63,63 31,94.5 v 63 l -31,94 -63,64 -63,31 h -95"
           style="stroke-width:0.7344in"
           transform="matrix(0.0025,0,0,-0.0025,1.655,0)"
           id="path1682" /><path
           d="M 189,441 315,0 M 441,441 315,0 M 441,441 567,0 M 693,441 567,0"
           style="stroke-width:0.7344in"
           transform="matrix(0.0025,0,0,-0.0025,3.15,0)"
           id="path1684" /><path
           d="M 567,662 V 0 m 0,346 -63,64 -63,31 H 346 L 284,410 220,346 189,252 V 189 L 220,94.5 284,31.5 346,0 h 95 l 63,31.5 63,63"
           style="stroke-width:0.7344in"
           transform="matrix(0.0025,0,0,-0.0025,4.8825,0)"
           id="path1686" /><path
           d="m 189,252 h 378 v 63 l -31,63 -32,32 -63,31 H 346 L 284,410 220,346 189,252 V 189 L 220,94.5 284,31.5 346,0 h 95 l 63,31.5 63,63"
           style="stroke-width:0.7344in"
           transform="matrix(0.0025,0,0,-0.0025,6.3775,0)"
           id="path1688" /><path
           d="M 220,441 V 0 m 0,252 32,94 63,64 63,31 h 94"
           style="stroke-width:0.7344in"
           transform="matrix(0.0025,0,0,-0.0025,7.795,0)"
           id="path1690" /><path
           d="m 630,567 -63,63 -95,32 H 346 l -94,-32 -63,-63 v -63 l 31,-63 32,-31 63,-32 189,-63 63,-31 31,-32 32,-63 V 94.5 L 567,31.5 472,0 H 346 l -94,31.5 -63,63"
           style="stroke-width:0.7344in"
           transform="matrix(0.0025,0,0,-0.0025,9.765,0)"
           id="path1692" /><path
           d="m 189,252 h 378 v 63 l -31,63 -32,32 -63,31 H 346 L 284,410 220,346 189,252 V 189 L 220,94.5 284,31.5 346,0 h 95 l 63,31.5 63,63"
           style="stroke-width:0.7344in"
           transform="matrix(0.0025,0,0,-0.0025,11.34,0)"
           id="path1694" /><path
           d="m 189,252 h 378 v 63 l -31,63 -32,32 -63,31 H 346 L 284,410 220,346 189,252 V 189 L 220,94.5 284,31.5 346,0 h 95 l 63,31.5 63,63"
           style="stroke-width:0.7344in"
           transform="matrix(0.0025,0,0,-0.0025,12.7575,0)"
           id="path1696" /><path
           d="M 220,662 V 0 M 536,441 220,126 M 346,252 567,0"
           style="stroke-width:0.7344in"
           transform="matrix(0.0025,0,0,-0.0025,14.175,0)"
           id="path1698" /><path
           d="m 189,252 h 378 v 63 l -31,63 -32,32 -63,31 H 346 L 284,410 220,346 189,252 V 189 L 220,94.5 284,31.5 346,0 h 95 l 63,31.5 63,63"
           style="stroke-width:0.7344in"
           transform="matrix(0.0025,0,0,-0.0025,15.515,0)"
           id="path1700" /><path
           d="M 220,441 V 0 m 0,252 32,94 63,64 63,31 h 94"
           style="stroke-width:0.7344in"
           transform="matrix(0.0025,0,0,-0.0025,16.9325,0)"
           id="path1702" /></g></g><g
       inkscape:label="Hershey Text"
       style="fill:none;stroke:#000000;stroke-linecap:round;stroke-linejoin:round"
       transform="rotate(-22.6163,4.0281629,22.227827)"
       id="g1734"><g
         transform="translate(133.129,125.004)"
         id="g1732"><path
           d="M 220,662 V 0 m 0,0 h 378"
           style="stroke-width:0.7344in"
           transform="scale(0.0025,-0.0025)"
           id="path1708" /><path
           d="M 346,441 284,410 220,346 189,252 V 189 L 220,94.5 284,31.5 346,0 h 95 l 63,31.5 63,63 31,94.5 v 63 l -31,94 -63,64 -63,31 h -95"
           style="stroke-width:0.7344in"
           transform="matrix(0.0025,0,0,-0.0025,1.34,0)"
           id="path1710" /><path
           d="M 220,441 V 0 m 0,315 95,95 63,31 h 94 l 64,-31 31,-95 V 0"
           style="stroke-width:0.7344in"
           transform="matrix(0.0025,0,0,-0.0025,2.835,0)"
           id="path1712" /><path
           d="m 189,252 h 378 v 63 l -31,63 -32,32 -63,31 H 346 L 284,410 220,346 189,252 V 189 L 220,94.5 284,31.5 346,0 h 95 l 63,31.5 63,63"
           style="stroke-width:0.7344in"
           transform="matrix(0.0025,0,0,-0.0025,4.33,0)"
           id="path1714" /><path
           d="M 220,662 V 0 m 0,662 h 284 l 94,-32 32,-32 32,-62 V 441 L 630,378 598,346 504,315 H 220"
           style="stroke-width:0.7344in"
           transform="matrix(0.0025,0,0,-0.0025,6.6925,0)"
           id="path1716" /><path
           d="m 189,252 h 378 v 63 l -31,63 -32,32 -63,31 H 346 L 284,410 220,346 189,252 V 189 L 220,94.5 284,31.5 346,0 h 95 l 63,31.5 63,63"
           style="stroke-width:0.7344in"
           transform="matrix(0.0025,0,0,-0.0025,8.3475,0)"
           id="path1718" /><path
           d="M 567,441 V 0 m 0,346 -63,64 -63,31 H 346 L 284,410 220,346 189,252 V 189 L 220,94.5 284,31.5 346,0 h 95 l 63,31.5 63,63"
           style="stroke-width:0.7344in"
           transform="matrix(0.0025,0,0,-0.0025,9.765,0)"
           id="path1720" /><path
           d="M 220,662 V 0 M 536,441 220,126 M 346,252 567,0"
           style="stroke-width:0.7344in"
           transform="matrix(0.0025,0,0,-0.0025,11.26,0)"
           id="path1722" /><path
           d="M 346,662 V 0 M 126,662 h 441"
           style="stroke-width:0.7344in"
           transform="matrix(0.0025,0,0,-0.0025,13.545,0)"
           id="path1724" /><path
           d="M 220,441 V 0 m 0,252 32,94 63,64 63,31 h 94"
           style="stroke-width:0.7344in"
           transform="matrix(0.0025,0,0,-0.0025,14.805,0)"
           id="path1726" /><path
           d="M 567,441 V 0 m 0,346 -63,64 -63,31 H 346 L 284,410 220,346 189,252 V 189 L 220,94.5 284,31.5 346,0 h 95 l 63,31.5 63,63"
           style="stroke-width:0.7344in"
           transform="matrix(0.0025,0,0,-0.0025,15.83,0)"
           id="path1728" /><path
           d="M 220,441 V 0 m 0,315 95,95 63,31 h 94 l 64,-31 31,-95 V 0 m 0,315 95,95 62,31 h 95 l 63,-31 32,-95 V 0"
           style="stroke-width:0.7344in"
           transform="matrix(0.0025,0,0,-0.0025,17.325,0)"
           id="path1730" /></g></g><g
       inkscape:label="Hershey Text"
       style="fill:none;stroke:#000000;stroke-linecap:round;stroke-linejoin:round"
       id="g1780"
       transform="translate(-14.519614,-0.0869438)"><g
         transform="translate(198.152,57.9892)"
         id="g1760"><path
           d="M 220,662 V 0 m 0,0 h 378"
           style="stroke-width:0.5246in"
           transform="matrix(0.0035,0,0,-0.0035,1.323,0)"
           id="path1736" /><path
           d="M 346,441 284,410 220,346 189,252 V 189 L 220,94.5 284,31.5 346,0 h 95 l 63,31.5 63,63 31,94.5 v 63 l -31,94 -63,64 -63,31 h -95"
           style="stroke-width:0.5246in"
           transform="matrix(0.0035,0,0,-0.0035,3.199,0)"
           id="path1738" /><path
           d="M 220,441 V 0 m 0,315 95,95 63,31 h 94 l 64,-31 31,-95 V 0"
           style="stroke-width:0.5246in"
           transform="matrix(0.0035,0,0,-0.0035,5.292,0)"
           id="path1740" /><path
           d="m 189,252 h 378 v 63 l -31,63 -32,32 -63,31 H 346 L 284,410 220,346 189,252 V 189 L 220,94.5 284,31.5 346,0 h 95 l 63,31.5 63,63"
           style="stroke-width:0.5246in"
           transform="matrix(0.0035,0,0,-0.0035,7.385,0)"
           id="path1742" /><path
           d="M 220,662 V 0 M 220,662 472,0 M 724,662 472,0 M 724,662 V 0"
           style="stroke-width:0.5246in"
           transform="matrix(0.0035,0,0,-0.0035,10.6925,0)"
           id="path1744" /><path
           d="M 346,441 284,410 220,346 189,252 V 189 L 220,94.5 284,31.5 346,0 h 95 l 63,31.5 63,63 31,94.5 v 63 l -31,94 -63,64 -63,31 h -95"
           style="stroke-width:0.5246in"
           transform="matrix(0.0035,0,0,-0.0035,13.3385,0)"
           id="path1746" /><path
           d="M 220,441 V 126 L 252,31.5 315,0 h 95 l 62,31.5 95,94.5 m 0,315 V 0"
           style="stroke-width:0.5246in"
           transform="matrix(0.0035,0,0,-0.0035,15.4315,0)"
           id="path1748" /><path
           d="M 220,441 V 0 m 0,315 95,95 63,31 h 94 l 64,-31 31,-95 V 0"
           style="stroke-width:0.5246in"
           transform="matrix(0.0035,0,0,-0.0035,17.5245,0)"
           id="path1750" /><path
           d="M 252,662 V 126 L 284,31.5 346,0 h 64 M 158,441 h 220"
           style="stroke-width:0.5246in"
           transform="matrix(0.0035,0,0,-0.0035,19.6175,0)"
           id="path1752" /><path
           d="M 567,441 V 0 m 0,346 -63,64 -63,31 H 346 L 284,410 220,346 189,252 V 189 L 220,94.5 284,31.5 346,0 h 95 l 63,31.5 63,63"
           style="stroke-width:0.5246in"
           transform="matrix(0.0035,0,0,-0.0035,20.9405,0)"
           id="path1754" /><path
           d="m 189,662 31,-32 32,32 -32,31 -31,-31 M 220,441 V 0"
           style="stroke-width:0.5246in"
           transform="matrix(0.0035,0,0,-0.0035,23.0335,0)"
           id="path1756" /><path
           d="M 220,441 V 0 m 0,315 95,95 63,31 h 94 l 64,-31 31,-95 V 0"
           style="stroke-width:0.5246in"
           transform="matrix(0.0035,0,0,-0.0035,23.9155,0)"
           id="path1758" /></g><g
         transform="translate(198.152,62.3642)"
         id="g1778"><path
           d="m 284,536 62,31 95,95 V 0"
           style="stroke-width:0.5246in"
           transform="scale(0.0035,-0.0035)"
           id="path1762" /><path
           d="m 284,536 62,31 95,95 V 0"
           style="stroke-width:0.5246in"
           transform="matrix(0.0035,0,0,-0.0035,2.205,0)"
           id="path1764" /><path
           d="m 252,126 -32,-31.5 -31,31.5 31,32 32,-32 V 63 L 189,0"
           style="stroke-width:0.5246in"
           transform="matrix(0.0035,0,0,-0.0035,4.41,0)"
           id="path1766" /><path
           d="m 284,536 62,31 95,95 V 0"
           style="stroke-width:0.5246in"
           transform="matrix(0.0035,0,0,-0.0035,5.292,0)"
           id="path1768" /><path
           d="m 598,567 -31,63 -95,32 H 410 L 315,630 252,536 220,378 V 220 L 252,94.5 315,31.5 410,0 h 31 l 95,31.5 62,63 32,94.5 v 31 l -32,95 -62,63 -95,32 h -31 l -95,-32 -63,-63 -32,-95"
           style="stroke-width:0.5246in"
           transform="matrix(0.0035,0,0,-0.0035,7.497,0)"
           id="path1770" /><path
           d="m 598,567 -31,63 -95,32 H 410 L 315,630 252,536 220,378 V 220 L 252,94.5 315,31.5 410,0 h 31 l 95,31.5 62,63 32,94.5 v 31 l -32,95 -62,63 -95,32 h -31 l -95,-32 -63,-63 -32,-95"
           style="stroke-width:0.5246in"
           transform="matrix(0.0035,0,0,-0.0035,9.702,0)"
           id="path1772" /><path
           d="M 410,662 H 346 L 284,630 252,536 V 0 m -94,441 h 220"
           style="stroke-width:0.5246in"
           transform="matrix(0.0035,0,0,-0.0035,11.907,0)"
           id="path1774" /><path
           d="M 252,662 V 126 L 284,31.5 346,0 h 64 M 158,441 h 220"
           style="stroke-width:0.5246in"
           transform="matrix(0.0035,0,0,-0.0035,13.23,0)"
           id="path1776" /></g></g><g
       inkscape:label="Hershey Text"
       style="fill:none;stroke:#000000;stroke-linecap:round;stroke-linejoin:round"
       id="g1807"
       transform="translate(-7.8692541,0.18443564)"><g
         transform="translate(125.808,133.372)"
         id="g1805"><path
           d="M 220,662 V 0 M 220,662 472,0 M 724,662 472,0 M 724,662 V 0"
           style="stroke-width:0.5246in"
           transform="scale(0.00349999,-0.00349999)"
           id="path1782" /><path
           d="M 567,441 V 0 m 0,346 -63,64 -63,31 H 346 L 284,410 220,346 189,252 V 189 L 220,94.5 284,31.5 346,0 h 95 l 63,31.5 63,63"
           style="stroke-width:0.5246in"
           transform="matrix(0.00349999,0,0,-0.00349999,2.64599,0)"
           id="path1785" /><path
           d="M 567,662 V 0 m 0,346 -63,64 -63,31 H 346 L 284,410 220,346 189,252 V 189 L 220,94.5 284,31.5 346,0 h 95 l 63,31.5 63,63"
           style="stroke-width:0.5246in"
           transform="matrix(0.00349999,0,0,-0.00349999,4.73899,0)"
           id="path1787" /><path
           d="m 189,662 31,-32 32,32 -32,31 -31,-31 M 220,441 V 0"
           style="stroke-width:0.5246in"
           transform="matrix(0.00349999,0,0,-0.00349999,6.83198,0)"
           id="path1789" /><path
           d="m 536,346 -32,64 -94,31 h -95 l -95,-31 -31,-64 31,-62 64,-32 157,-32 63,-31 32,-63 V 94.5 L 504,31.5 410,0 h -95 l -95,31.5 -31,63"
           style="stroke-width:0.5246in"
           transform="matrix(0.00349999,0,0,-0.00349999,7.71398,0)"
           id="path1791" /><path
           d="M 346,441 284,410 220,346 189,252 V 189 L 220,94.5 284,31.5 346,0 h 95 l 63,31.5 63,63 31,94.5 v 63 l -31,94 -63,64 -63,31 h -95"
           style="stroke-width:0.5246in"
           transform="matrix(0.00349999,0,0,-0.00349999,9.58997,0)"
           id="path1793" /><path
           d="M 220,441 V 0 m 0,315 95,95 63,31 h 94 l 64,-31 31,-95 V 0"
           style="stroke-width:0.5246in"
           transform="matrix(0.00349999,0,0,-0.00349999,11.683,0)"
           id="path1795" /><path
           d="M 220,662 V 0 m 0,662 h 284 l 94,-32 32,-32 32,-62 v -64 l -32,-62 -32,-32 -94,-32 m -284,0 h 284 l 94,-31 32,-31 32,-64 V 126 L 630,63 598,31.5 504,0 H 220"
           style="stroke-width:0.5246in"
           transform="matrix(0.00349999,0,0,-0.00349999,15.099,0)"
           id="path1797" /><path
           d="M 567,441 V 0 m 0,346 -63,64 -63,31 H 346 L 284,410 220,346 189,252 V 189 L 220,94.5 284,31.5 346,0 h 95 l 63,31.5 63,63"
           style="stroke-width:0.5246in"
           transform="matrix(0.00349999,0,0,-0.00349999,17.416,0)"
           id="path1799" /><path
           d="m 536,346 -32,64 -94,31 h -95 l -95,-31 -31,-64 31,-62 64,-32 157,-32 63,-31 32,-63 V 94.5 L 504,31.5 410,0 h -95 l -95,31.5 -31,63"
           style="stroke-width:0.5246in"
           transform="matrix(0.00349999,0,0,-0.00349999,19.5089,0)"
           id="path1801" /><path
           d="m 189,252 h 378 v 63 l -31,63 -32,32 -63,31 H 346 L 284,410 220,346 189,252 V 189 L 220,94.5 284,31.5 346,0 h 95 l 63,31.5 63,63"
           style="stroke-width:0.5246in"
           transform="matrix(0.00349999,0,0,-0.00349999,21.3849,0)"
           id="path1803" /></g></g><g
       inkscape:label="Hershey Text"
       style="fill:none;stroke:#000000;stroke-linecap:round;stroke-linejoin:round"
       id="g1857"
       transform="translate(-14.606558,-0.69555037)"><g
         transform="translate(74.6868,87.5833)"
         id="g1839"><path
           d="M 220,662 V 0 M 220,662 472,0 M 724,662 472,0 M 724,662 V 0"
           style="stroke-width:0.5246in"
           transform="scale(0.00349999,-0.00349999)"
           id="path1809" /><path
           d="M 346,441 284,410 220,346 189,252 V 189 L 220,94.5 284,31.5 346,0 h 95 l 63,31.5 63,63 31,94.5 v 63 l -31,94 -63,64 -63,31 h -95"
           style="stroke-width:0.5246in"
           transform="matrix(0.00349999,0,0,-0.00349999,2.64599,0)"
           id="path1811" /><path
           d="M 220,441 V 126 L 252,31.5 315,0 h 95 l 62,31.5 95,94.5 m 0,315 V 0"
           style="stroke-width:0.5246in"
           transform="matrix(0.00349999,0,0,-0.00349999,4.73899,0)"
           id="path1813" /><path
           d="M 220,441 V 0 m 0,315 95,95 63,31 h 94 l 64,-31 31,-95 V 0"
           style="stroke-width:0.5246in"
           transform="matrix(0.00349999,0,0,-0.00349999,6.83198,0)"
           id="path1815" /><path
           d="M 252,662 V 126 L 284,31.5 346,0 h 64 M 158,441 h 220"
           style="stroke-width:0.5246in"
           transform="matrix(0.00349999,0,0,-0.00349999,8.92497,0)"
           id="path1817" /><path
           d="M 567,441 V 0 m 0,346 -63,64 -63,31 H 346 L 284,410 220,346 189,252 V 189 L 220,94.5 284,31.5 346,0 h 95 l 63,31.5 63,63"
           style="stroke-width:0.5246in"
           transform="matrix(0.00349999,0,0,-0.00349999,10.248,0)"
           id="path1819" /><path
           d="m 189,662 31,-32 32,32 -32,31 -31,-31 M 220,441 V 0"
           style="stroke-width:0.5246in"
           transform="matrix(0.00349999,0,0,-0.00349999,12.341,0)"
           id="path1821" /><path
           d="M 220,441 V 0 m 0,315 95,95 63,31 h 94 l 64,-31 31,-95 V 0"
           style="stroke-width:0.5246in"
           transform="matrix(0.00349999,0,0,-0.00349999,13.223,0)"
           id="path1823" /><path
           d="M 126,662 378,0 M 630,662 378,0"
           style="stroke-width:0.5246in"
           transform="matrix(0.00349999,0,0,-0.00349999,16.639,0)"
           id="path1825" /><path
           d="m 189,662 31,-32 32,32 -32,31 -31,-31 M 220,441 V 0"
           style="stroke-width:0.5246in"
           transform="matrix(0.00349999,0,0,-0.00349999,18.6234,0)"
           id="path1827" /><path
           d="M 220,662 V 0"
           style="stroke-width:0.5246in"
           transform="matrix(0.00349999,0,0,-0.00349999,19.5054,0)"
           id="path1829" /><path
           d="M 220,662 V 0"
           style="stroke-width:0.5246in"
           transform="matrix(0.00349999,0,0,-0.00349999,20.3874,0)"
           id="path1831" /><path
           d="M 567,441 V 0 m 0,346 -63,64 -63,31 H 346 L 284,410 220,346 189,252 V 189 L 220,94.5 284,31.5 346,0 h 95 l 63,31.5 63,63"
           style="stroke-width:0.5246in"
           transform="matrix(0.00349999,0,0,-0.00349999,21.2694,0)"
           id="path1833" /><path
           d="M 567,441 V -63 l -31,-95 -32,-31 -63,-31 h -95 l -62,31 m 283,535 -63,64 -63,31 H 346 L 284,410 220,346 189,252 V 189 L 220,94.5 284,31.5 346,0 h 95 l 63,31.5 63,63"
           style="stroke-width:0.5246in"
           transform="matrix(0.00349999,0,0,-0.00349999,23.3624,0)"
           id="path1835" /><path
           d="m 189,252 h 378 v 63 l -31,63 -32,32 -63,31 H 346 L 284,410 220,346 189,252 V 189 L 220,94.5 284,31.5 346,0 h 95 l 63,31.5 63,63"
           style="stroke-width:0.5246in"
           transform="matrix(0.00349999,0,0,-0.00349999,25.4554,0)"
           id="path1837" /></g><g
         transform="translate(74.6868,91.9583)"
         id="g1855"><path
           d="M 630,662 315,0 M 189,662 h 441"
           style="stroke-width:0.5246in"
           transform="scale(0.00349999,-0.00349999)"
           id="path1841" /><path
           d="m 252,126 -32,-31.5 -31,31.5 31,32 32,-32 V 63 L 189,0"
           style="stroke-width:0.5246in"
           transform="matrix(0.00349999,0,0,-0.00349999,2.20499,0)"
           id="path1843" /><path
           d="M 567,662 H 252 l -32,-284 32,32 94,31 h 95 l 95,-31 62,-64 32,-94 V 189 L 598,94.5 536,31.5 441,0 H 346 L 252,31.5 220,63 189,126"
           style="stroke-width:0.5246in"
           transform="matrix(0.00349999,0,0,-0.00349999,3.08699,0)"
           id="path1845" /><path
           d="M 378,662 284,630 220,536 189,378 V 284 L 220,126 284,31.5 378,0 h 63 l 95,31.5 62,94.5 32,158 v 94 l -32,158 -62,94 -95,32 h -63"
           style="stroke-width:0.5246in"
           transform="matrix(0.00349999,0,0,-0.00349999,5.29198,0)"
           id="path1847" /><path
           d="M 378,662 284,630 220,536 189,378 V 284 L 220,126 284,31.5 378,0 h 63 l 95,31.5 62,94.5 32,158 v 94 l -32,158 -62,94 -95,32 h -63"
           style="stroke-width:0.5246in"
           transform="matrix(0.00349999,0,0,-0.00349999,7.49698,0)"
           id="path1849" /><path
           d="M 410,662 H 346 L 284,630 252,536 V 0 m -94,441 h 220"
           style="stroke-width:0.5246in"
           transform="matrix(0.00349999,0,0,-0.00349999,9.70197,0)"
           id="path1851" /><path
           d="M 252,662 V 126 L 284,31.5 346,0 h 64 M 158,441 h 220"
           style="stroke-width:0.5246in"
           transform="matrix(0.00349999,0,0,-0.00349999,11.025,0)"
           id="path1853" /></g></g><g
       inkscape:label="Hershey Text"
       style="fill:none;stroke:#000000;stroke-linecap:round;stroke-linejoin:round"
       id="g1877"><g
         transform="translate(53.2965, 42.8738)"
         id="g1875"><path
           d="M 220 662 L 220 0 M 220 662 L 630 662 M 220 346 L 472 346 M 220 0 L 630 0"
           style="stroke-width:0.6120in"
           transform="scale(0.003, -0.003)"
           id="path1859" /><path
           d="M 158 441 L 346 0 M 536 441 L 346 0"
           style="stroke-width:0.6120in"
           transform="matrix(0.003 0 0 -0.003 1.794 0)"
           id="path1861" /><path
           d="M 189 252 L 567 252 L 567 315 L 536 378 L 504 410 L 441 441 L 346 441 L 284 410 L 220 346 L 189 252 L 189 189 L 220 94.5 L 284 31.5 L 346 0 L 441 0 L 504 31.5 L 567 94.5"
           style="stroke-width:0.6120in"
           transform="matrix(0.003 0 0 -0.003 3.306 0)"
           id="path1863" /><path
           d="M 220 441 L 220 0 M 220 252 L 252 346 L 315 410 L 378 441 L 472 441"
           style="stroke-width:0.6120in"
           transform="matrix(0.003 0 0 -0.003 5.007 0)"
           id="path1865" /><path
           d="M 189 252 L 567 252 L 567 315 L 536 378 L 504 410 L 441 441 L 346 441 L 284 410 L 220 346 L 189 252 L 189 189 L 220 94.5 L 284 31.5 L 346 0 L 441 0 L 504 31.5 L 567 94.5"
           style="stroke-width:0.6120in"
           transform="matrix(0.003 0 0 -0.003 6.237 0)"
           id="path1867" /><path
           d="M 252 662 L 252 126 L 284 31.5 L 346 0 L 410 0 M 158 441 L 378 441"
           style="stroke-width:0.6120in"
           transform="matrix(0.003 0 0 -0.003 7.938 0)"
           id="path1869" /><path
           d="M 252 662 L 252 126 L 284 31.5 L 346 0 L 410 0 M 158 441 L 378 441"
           style="stroke-width:0.6120in"
           transform="matrix(0.003 0 0 -0.003 9.072 0)"
           id="path1871" /><path
           d="M 536 346 L 504 410 L 410 441 L 315 441 L 220 410 L 189 346 L 220 284 L 284 252 L 441 220 L 504 189 L 536 126 L 536 94.5 L 504 31.5 L 410 0 L 315 0 L 220 31.5 L 189 94.5"
           style="stroke-width:0.6120in"
           transform="matrix(0.003 0 0 -0.003 10.206 0)"
           id="path1873" /></g></g><g
       inkscape:label="Hershey Text"
       style="fill:none;stroke:#000000;stroke-linecap:round;stroke-linejoin:round"
       transform="rotate(33.4507,3.9159434,-11.113716)"
       id="g1909"><g
         transform="translate(168.259,-64.4159)"
         id="g1895"><path
           d="m 630,567 -63,63 -95,32 H 346 l -94,-32 -63,-63 v -63 l 31,-63 32,-31 63,-32 189,-63 63,-31 31,-32 32,-63 V 94.5 L 567,31.5 472,0 H 346 l -94,31.5 -63,63"
           style="stroke-width:0.612in"
           transform="scale(0.003,-0.003)"
           id="path1879" /><path
           d="M 220,662 V 0 m 0,315 95,95 63,31 h 94 l 64,-31 31,-95 V 0"
           style="stroke-width:0.612in"
           transform="matrix(0.003,0,0,-0.003,1.89,0)"
           id="path1881" /><path
           d="m 189,252 h 378 v 63 l -31,63 -32,32 -63,31 H 346 L 284,410 220,346 189,252 V 189 L 220,94.5 284,31.5 346,0 h 95 l 63,31.5 63,63"
           style="stroke-width:0.612in"
           transform="matrix(0.003,0,0,-0.003,3.684,0)"
           id="path1883" /><path
           d="M 567,662 V 0 m 0,346 -63,64 -63,31 H 346 L 284,410 220,346 189,252 V 189 L 220,94.5 284,31.5 346,0 h 95 l 63,31.5 63,63"
           style="stroke-width:0.612in"
           transform="matrix(0.003,0,0,-0.003,5.385,0)"
           id="path1885" /><path
           d="M 220,662 V 0 m 0,315 95,95 63,31 h 94 l 64,-31 31,-95 V 0"
           style="stroke-width:0.612in"
           transform="matrix(0.003,0,0,-0.003,7.179,0)"
           id="path1887" /><path
           d="M 346,441 284,410 220,346 189,252 V 189 L 220,94.5 284,31.5 346,0 h 95 l 63,31.5 63,63 31,94.5 v 63 l -31,94 -63,64 -63,31 h -95"
           style="stroke-width:0.612in"
           transform="matrix(0.003,0,0,-0.003,8.973,0)"
           id="path1889" /><path
           d="M 220,441 V 0 m 0,252 32,94 63,64 63,31 h 94"
           style="stroke-width:0.612in"
           transform="matrix(0.003,0,0,-0.003,10.767,0)"
           id="path1891" /><path
           d="M 220,441 V 0 m 0,315 95,95 63,31 h 94 l 64,-31 31,-95 V 0"
           style="stroke-width:0.612in"
           transform="matrix(0.003,0,0,-0.003,11.997,0)"
           id="path1893" /></g><g
         transform="translate(171.29924,-61.111366)"
         id="g1907"><path
           d="m 662,504 -32,63 -63,63 -63,32 H 378 L 315,630 252,567 220,504 189,410 V 252 l 31,-94 32,-63.5 63,-63 L 378,0 h 126 l 63,31.5 63,63 32,63.5 v 94 m -158,0 h 158"
           style="stroke-width:0.612in"
           transform="scale(0.003,-0.003)"
           id="path1897" /><path
           d="M 220,441 V 0 m 0,252 32,94 63,64 63,31 h 94"
           style="stroke-width:0.612in"
           transform="matrix(0.003,0,0,-0.003,1.986,0)"
           id="path1899" /><path
           d="m 189,662 31,-32 32,32 -32,31 -31,-31 M 220,441 V 0"
           style="stroke-width:0.612in"
           transform="matrix(0.003,0,0,-0.003,3.216,0)"
           id="path1901" /><path
           d="M 220,662 V 0"
           style="stroke-width:0.612in"
           transform="matrix(0.003,0,0,-0.003,3.972,0)"
           id="path1903" /><path
           d="M 220,662 V 0"
           style="stroke-width:0.612in"
           transform="matrix(0.003,0,0,-0.003,4.728,0)"
           id="path1905" /></g></g><g
       inkscape:label="Hershey Text"
       style="fill:none;stroke:#000000;stroke-linecap:round;stroke-linejoin:round"
       id="g1925"
       transform="translate(-2.1735949,-0.60860657)"><g
         transform="translate(183.206,19.6731)"
         id="g1923"><path
           d="M 220,662 V 0 m 0,662 h 221 l 95,-32 62,-63 32,-63 32,-94 V 252 L 630,158 598,94.5 536,31.5 441,0 H 220"
           style="stroke-width:0.7344in"
           transform="scale(0.0025,-0.0025)"
           id="path1911" /><path
           d="M 567,441 V 0 m 0,346 -63,64 -63,31 H 346 L 284,410 220,346 189,252 V 189 L 220,94.5 284,31.5 346,0 h 95 l 63,31.5 63,63"
           style="stroke-width:0.7344in"
           transform="matrix(0.0025,0,0,-0.0025,1.655,0)"
           id="path1913" /><path
           d="M 220,662 V 0 M 536,441 220,126 M 346,252 567,0"
           style="stroke-width:0.7344in"
           transform="matrix(0.0025,0,0,-0.0025,3.15,0)"
           id="path1915" /><path
           d="M 346,441 284,410 220,346 189,252 V 189 L 220,94.5 284,31.5 346,0 h 95 l 63,31.5 63,63 31,94.5 v 63 l -31,94 -63,64 -63,31 h -95"
           style="stroke-width:0.7344in"
           transform="matrix(0.0025,0,0,-0.0025,4.49,0)"
           id="path1917" /><path
           d="M 252,662 V 126 L 284,31.5 346,0 h 64 M 158,441 h 220"
           style="stroke-width:0.7344in"
           transform="matrix(0.0025,0,0,-0.0025,5.985,0)"
           id="path1919" /><path
           d="M 567,441 V 0 m 0,346 -63,64 -63,31 H 346 L 284,410 220,346 189,252 V 189 L 220,94.5 284,31.5 346,0 h 95 l 63,31.5 63,63"
           style="stroke-width:0.7344in"
           transform="matrix(0.0025,0,0,-0.0025,6.93,0)"
           id="path1921" /></g></g><g
       inkscape:label="Hershey Text"
       style="fill:none;stroke:#000000;stroke-linecap:round;stroke-linejoin:round"
       id="g1945"
       transform="translate(-3.3038643,0.60860657)"><g
         transform="translate(150.377,17.337)"
         id="g1943"><path
           d="m 630,567 -63,63 -95,32 H 346 l -94,-32 -63,-63 v -63 l 31,-63 32,-31 63,-32 189,-63 63,-31 31,-32 32,-63 V 94.5 L 567,31.5 472,0 H 346 l -94,31.5 -63,63"
           style="stroke-width:0.7344in"
           transform="scale(0.0025,-0.0025)"
           id="path1927" /><path
           d="M 220,662 V 0 m 0,315 95,95 63,31 h 94 l 64,-31 31,-95 V 0"
           style="stroke-width:0.7344in"
           transform="matrix(0.0025,0,0,-0.0025,1.575,0)"
           id="path1929" /><path
           d="m 189,252 h 378 v 63 l -31,63 -32,32 -63,31 H 346 L 284,410 220,346 189,252 V 189 L 220,94.5 284,31.5 346,0 h 95 l 63,31.5 63,63"
           style="stroke-width:0.7344in"
           transform="matrix(0.0025,0,0,-0.0025,3.07,0)"
           id="path1931" /><path
           d="M 567,662 V 0 m 0,346 -63,64 -63,31 H 346 L 284,410 220,346 189,252 V 189 L 220,94.5 284,31.5 346,0 h 95 l 63,31.5 63,63"
           style="stroke-width:0.7344in"
           transform="matrix(0.0025,0,0,-0.0025,4.4875,0)"
           id="path1933" /><path
           d="M 220,662 V 0 m 0,315 95,95 63,31 h 94 l 64,-31 31,-95 V 0"
           style="stroke-width:0.7344in"
           transform="matrix(0.0025,0,0,-0.0025,5.9825,0)"
           id="path1935" /><path
           d="M 346,441 284,410 220,346 189,252 V 189 L 220,94.5 284,31.5 346,0 h 95 l 63,31.5 63,63 31,94.5 v 63 l -31,94 -63,64 -63,31 h -95"
           style="stroke-width:0.7344in"
           transform="matrix(0.0025,0,0,-0.0025,7.4775,0)"
           id="path1937" /><path
           d="M 220,441 V 0 m 0,252 32,94 63,64 63,31 h 94"
           style="stroke-width:0.7344in"
           transform="matrix(0.0025,0,0,-0.0025,8.9725,0)"
           id="path1939" /><path
           d="M 220,441 V 0 m 0,315 95,95 63,31 h 94 l 64,-31 31,-95 V 0"
           style="stroke-width:0.7344in"
           transform="matrix(0.0025,0,0,-0.0025,9.9975,0)"
           id="path1941" /></g></g><g
       inkscape:label="Hershey Text"
       style="fill:none;stroke:#000000;stroke-linecap:round;stroke-linejoin:round"
       transform="rotate(74.3708,3.2331129,-3.9849033)"
       id="g1969"><g
         transform="translate(109.754,-124.169)"
         id="g1967"><path
           d="M 220,662 V 0 M 662,662 V 0 M 220,346 h 442"
           style="stroke-width:0.7344in"
           transform="scale(0.0025,-0.0025)"
           id="path1947" /><path
           d="m 189,252 h 378 v 63 l -31,63 -32,32 -63,31 H 346 L 284,410 220,346 189,252 V 189 L 220,94.5 284,31.5 346,0 h 95 l 63,31.5 63,63"
           style="stroke-width:0.7344in"
           transform="matrix(0.0025,0,0,-0.0025,1.7325,0)"
           id="path1949" /><path
           d="M 567,441 V 0 m 0,346 -63,64 -63,31 H 346 L 284,410 220,346 189,252 V 189 L 220,94.5 284,31.5 346,0 h 95 l 63,31.5 63,63"
           style="stroke-width:0.7344in"
           transform="matrix(0.0025,0,0,-0.0025,3.15,0)"
           id="path1951" /><path
           d="M 567,662 V 0 m 0,346 -63,64 -63,31 H 346 L 284,410 220,346 189,252 V 189 L 220,94.5 284,31.5 346,0 h 95 l 63,31.5 63,63"
           style="stroke-width:0.7344in"
           transform="matrix(0.0025,0,0,-0.0025,4.645,0)"
           id="path1953" /><path
           d="M 189,441 315,0 M 441,441 315,0 M 441,441 567,0 M 693,441 567,0"
           style="stroke-width:0.7344in"
           transform="matrix(0.0025,0,0,-0.0025,6.14,0)"
           id="path1955" /><path
           d="M 567,441 V 0 m 0,346 -63,64 -63,31 H 346 L 284,410 220,346 189,252 V 189 L 220,94.5 284,31.5 346,0 h 95 l 63,31.5 63,63"
           style="stroke-width:0.7344in"
           transform="matrix(0.0025,0,0,-0.0025,7.8725,0)"
           id="path1957" /><path
           d="M 252,662 V 126 L 284,31.5 346,0 h 64 M 158,441 h 220"
           style="stroke-width:0.7344in"
           transform="matrix(0.0025,0,0,-0.0025,9.3675,0)"
           id="path1959" /><path
           d="m 189,252 h 378 v 63 l -31,63 -32,32 -63,31 H 346 L 284,410 220,346 189,252 V 189 L 220,94.5 284,31.5 346,0 h 95 l 63,31.5 63,63"
           style="stroke-width:0.7344in"
           transform="matrix(0.0025,0,0,-0.0025,10.3125,0)"
           id="path1961" /><path
           d="M 220,441 V 0 m 0,252 32,94 63,64 63,31 h 94"
           style="stroke-width:0.7344in"
           transform="matrix(0.0025,0,0,-0.0025,11.73,0)"
           id="path1963" /><path
           d="m 536,346 -32,64 -94,31 h -95 l -95,-31 -31,-64 31,-62 64,-32 157,-32 63,-31 32,-63 V 94.5 L 504,31.5 410,0 h -95 l -95,31.5 -31,63"
           style="stroke-width:0.7344in"
           transform="matrix(0.0025,0,0,-0.0025,12.755,0)"
           id="path1965" /></g></g></g></svg>
