<?xml version="1.0" encoding="UTF-8" standalone="no"?>
<!-- Created with Inkscape (http://www.inkscape.org/) -->

<svg
   inkscape:export-ydpi="800"
   inkscape:export-xdpi="800"
   inkscape:export-filename="contours.png"
   sodipodi:docname="green.svg"
   inkscape:version="1.2.2 (732a01da63, 2022-12-09)"
   xml:space="preserve"
   id="svg5"
   version="1.1"
   viewBox="0 0 216.683 130"
   height="130mm"
   width="216.683mm"
   xmlns:inkscape="http://www.inkscape.org/namespaces/inkscape"
   xmlns:sodipodi="http://sodipodi.sourceforge.net/DTD/sodipodi-0.dtd"
   xmlns="http://www.w3.org/2000/svg"
   xmlns:svg="http://www.w3.org/2000/svg"><sodipodi:namedview
     id="namedview7"
     pagecolor="#ffffff"
     bordercolor="#000000"
     borderopacity="0.25"
     inkscape:showpageshadow="2"
     inkscape:pageopacity="0.0"
     inkscape:pagecheckerboard="0"
     inkscape:deskcolor="#d1d1d1"
     inkscape:document-units="mm"
     showgrid="false"
     inkscape:zoom="1.5205622"
     inkscape:cx="302.84851"
     inkscape:cy="253.85348"
     inkscape:window-width="1920"
     inkscape:window-height="1009"
     inkscape:window-x="-8"
     inkscape:window-y="-8"
     inkscape:window-maximized="1"
     inkscape:current-layer="layer1" /><defs
     id="defs2"><rect
       x="172.52606"
       y="256.46393"
       width="37.086128"
       height="17.438618"
       id="rect7304" /><rect
       x="671.0144"
       y="592.40521"
       width="523.52087"
       height="143.44148"
       id="rect1220" /><rect
       x="652.37512"
       y="599.69885"
       width="497.58798"
       height="153.97673"
       id="rect1210" /><rect
       x="408.00595"
       y="373.62341"
       width="129.50751"
       height="58.450291"
       id="rect727" /><rect
       x="521.08966"
       y="372.78577"
       width="130.47502"
       height="71.315536"
       id="rect721" /><rect
       x="435.57776"
       y="323.85489"
       width="311.12698"
       height="139.30003"
       id="rect17003" /></defs><g
     inkscape:label="Layer 1"
     inkscape:groupmode="layer"
     id="layer1"
     transform="translate(67.4194,-70.9677)"><g
       id="g1323"
       style="stroke-width:0.550324;stroke-dasharray:none"
       transform="matrix(1.7849245,0,0,1.7849245,45.784553,-59.477181)"><path
         style="fill:none;stroke:#00ff00;stroke-width:0.275162;stroke-linecap:round;stroke-dashoffset:0"
         d="m -17.7213,120.30452 -0.3925,-0.131 m -1.0439,-0.347 -0.3917,-0.13 m -0.7017,-0.233 m -0.3547,0.068 -0.405,0.077 m -1.0809,0.207 -0.4056,0.077 m -1.081,0.206 -0.093,0.018 -0.2799,0.154 m -0.9647,0.529 -0.3611,0.198 m -0.7336,0.403 m -0.2256,0.138 -0.3516,0.216 m -0.9382,0.575 -0.3521,0.215 m -0.3779,0.232 m -0.5198,0.404 -0.326,0.254 m -0.8684,0.675 -0.326,0.254 m -0.5672,0.441 m -0.3076,0.224 -0.3338,0.242 m -0.8912,0.649 -0.3331,0.242 m -0.5245,0.381 m -0.3961,0.219 -0.3612,0.199 m -0.9637,0.533 -0.3618,0.199 m -0.9636,0.533 -0.3616,0.199 m -0.9635,0.532 -0.3598,0.199 m -0.1216,0.067 m -0.876,0.401 -0.3758,0.171 m -1.0004,0.458 -0.2828,0.129 -0.0913,0.044 m -0.9926,0.475 -0.372,0.179 m -0.9934,0.476 -0.3718,0.178 m -0.6556,0.314 m -0.3517,0.128 -0.3871,0.141 m -0.8547,0.31 m -0.1578,0.108 -0.3398,0.233 m -0.8786,0.601 m -0.0292,0.024 -0.3187,0.262 m -0.8501,0.699 -0.0847,0.069 -0.1531,0.263 m -0.5546,0.95 -0.1435,0.246 -0.0801,0.099 m -0.6918,0.855 -0.1051,0.13"
         id="path2013"
         sodipodi:nodetypes="ccccccccccccccc" /><path
         style="fill:none;stroke:#00ff00;stroke-width:0.275162;stroke-linecap:round;stroke-dashoffset:0"
         d="m -14.3958,119.30952 0.1915,0.367 m 0.5098,0.975 0.0813,0.156 0.013,0.237 m 0.0603,1.097 0.0034,0.062 -0.2361,0.259 m -0.7415,0.814 -0.2698,0.297 c 0,0 -0.0038,0.001 -0.011,0.005 m -0.9942,0.475 c -0.1228,0.058 -0.2491,0.117 -0.3742,0.175 m -1.0038,0.449 c -0.0691,0.028 -0.1213,0.047 -0.1519,0.055 -0.0438,0.011 -0.1275,0.036 -0.2395,0.073 m -1.0387,0.363 c -0.1295,0.047 -0.2603,0.095 -0.3882,0.143 m -1.022,0.404 c -0.024,0.011 -0.0454,0.021 -0.0639,0.031 -0.0717,0.035 -0.177,0.089 -0.3054,0.155 m -0.9741,0.511 c -0.1214,0.065 -0.2438,0.131 -0.3638,0.196 m -0.9598,0.539 c -0.0273,0.017 -0.053,0.032 -0.0768,0.047 -0.0691,0.043 -0.1669,0.094 -0.2862,0.15 m -1.0116,0.434 c -0.1249,0.052 -0.2524,0.105 -0.38,0.159 m -1.0033,0.452 c -0.1335,0.066 -0.2566,0.131 -0.3648,0.195 m -0.4308,0.349 m -0.378,0.382 c -0.1017,0.077 -0.2168,0.155 -0.34,0.234 m -0.9517,0.553 c -0.1253,0.07 -0.2466,0.138 -0.3594,0.203 m -0.3611,0.221 m -0.5886,0.334 c -0.1172,0.06 -0.2415,0.122 -0.3693,0.183 m -0.9983,0.463 c -0.1341,0.06 -0.2611,0.117 -0.3765,0.169 m -0.4921,0.227 m -0.5046,0.24 c -0.1149,0.053 -0.2415,0.112 -0.3745,0.173 m -0.9999,0.46 c -0.1338,0.061 -0.261,0.119 -0.3762,0.171 m -0.5696,0.26 m -0.4247,0.212 -0.3686,0.185 m -0.9846,0.492 -0.3697,0.185 m -0.4599,0.23 m -0.5266,0.255 c -0.1164,0.056 -0.2424,0.116 -0.3732,0.178 m -0.995,0.469 c -0.1349,0.063 -0.2615,0.123 -0.3739,0.175 m -0.4836,0.226 m -0.4481,0.347 -0.3262,0.252 m -0.8192,0.633 m -0.056,0.034 -0.3525,0.215 m -0.8952,0.547 m -0.0341,0.04 -0.2688,0.314 m -0.1317,0.153 m -0.2055,0.874 -0.0842,0.358 0.0083,0.044 m 0.2062,1.082 0.0752,0.395 0.0088,0.006 m 0.9082,0.621 0.3415,0.234 m 0.1177,0.08 m 0.2173,0.797 m -0.1051,0.079 c -0.0813,0.06 -0.2024,0.148 -0.3371,0.24 m -0.7892,0.405 m -0.2056,0.004 c -0.1107,0.003 -0.2533,0.006 -0.4131,0.011 m -1.0999,0.034 c -0.1532,0.005 -0.2942,0.009 -0.4113,0.013 m -0.3327,0.011 m -0.6841,-0.351 -0.3665,-0.188 m -0.979,-0.502 -0.2817,-0.145 -0.0291,-0.091 m -0.3331,-1.049 -0.125,-0.393 m -0.2307,-0.727 m -0.1994,-0.275 -0.2421,-0.334 m -0.58,-0.8"
         id="path2081"
         sodipodi:nodetypes="ccccsssssscsccccccccscccc" /><path
         style="fill:none;stroke:#00ff00;stroke-width:0.275162;stroke-linecap:round;stroke-miterlimit:3.8;stroke-dashoffset:0"
         d="m -31.0513,124.65152 -0.4109,-0.039 m -1.0964,-0.107 -0.2216,-0.021 -0.1885,0.019 m -1.0945,0.114 -0.4107,0.042 m -0.3097,0.033 m -0.7893,0.011 -0.4135,0.005 m -0.9372,0.013 m -0.1532,0.056 c -0.1017,0.037 -0.2428,0.087 -0.3889,0.136 m -0.5576,0.165 m -0.5131,0.074 c -0.127,0.017 -0.2668,0.035 -0.4092,0.052 m -1.0935,0.131 c -0.06,0.007 -0.0944,0.01 -0.0944,0.01 l -0.3033,0.097 m -1.0044,0.32 m -0.042,0.017 -0.3809,0.159 m -0.6471,0.269 m -0.2176,0.335 c -0.0453,0.085 -0.0796,0.17 -0.0796,0.23 0,0.043 0.0051,0.101 0.0146,0.167 m 0.1934,0.576 m 0.4333,0.216 c 0.1397,0.052 0.285,0.098 0.3929,0.122 m 0.1249,0.019 m 0.9728,-0.055 c 0.0137,-0.001 0.0264,-0.003 0.0377,-0.005 0.0571,-0.008 0.197,-0.032 0.37,-0.062 m 1.0832,-0.194 c 0.0399,-0.007 0.0626,-0.011 0.0626,-0.011 l 0.3399,0.083 m 0.763,0.187 m 0.1109,0.294 0.1465,0.387 m 0.1059,0.28"
         id="path2783"
         sodipodi:nodetypes="ccccscccssssccc" /><text
         xml:space="preserve"
         transform="matrix(0.14560647,0,0,0.14560647,-67.419355,70.967743)"
         id="text17001"
         style="font-size:11.3386px;font-family:Arial;-inkscape-font-specification:Arial;text-align:center;direction:rtl;text-orientation:sideways;white-space:pre;shape-inside:url(#rect17003);display:inline;fill:none;stroke:#ff00f4;stroke-width:0.755906;stroke-linecap:round;stroke-miterlimit:3.8;stroke-dasharray:none;stroke-opacity:1" /></g><text
       xml:space="preserve"
       transform="matrix(0.25989689,0,0,0.25989689,-74.554114,70.369983)"
       id="text719"
       style="font-size:11.3386px;font-family:Arial;-inkscape-font-specification:Arial;text-align:center;direction:rtl;text-orientation:sideways;white-space:pre;shape-inside:url(#rect721);display:inline;fill:none;stroke:#ff00f4;stroke-width:0.755906;stroke-linecap:round;stroke-miterlimit:3.8;stroke-dasharray:3.77952, 3.77952" /><text
       xml:space="preserve"
       transform="matrix(0.25989689,0,0,0.25989689,-74.554114,70.369983)"
       id="text725"
       style="font-size:11.3386px;font-family:Arial;-inkscape-font-specification:Arial;text-align:center;direction:rtl;text-orientation:sideways;white-space:pre;shape-inside:url(#rect727);display:inline;fill:none;stroke:#ff00f4;stroke-width:0.755906;stroke-linecap:round;stroke-miterlimit:3.8;stroke-dasharray:3.77952, 3.77952" /></g></svg>
