<?xml version="1.0" encoding="UTF-8" standalone="no"?>
<!-- Created with Inkscape (http://www.inkscape.org/) -->

<svg
   inkscape:export-ydpi="800"
   inkscape:export-xdpi="800"
   inkscape:export-filename="contours.png"
   sodipodi:docname="purple.svg"
   inkscape:version="1.2.2 (732a01da63, 2022-12-09)"
   xml:space="preserve"
   id="svg5"
   version="1.1"
   viewBox="0 0 216.683 130"
   height="130mm"
   width="216.683mm"
   xmlns:inkscape="http://www.inkscape.org/namespaces/inkscape"
   xmlns:sodipodi="http://sodipodi.sourceforge.net/DTD/sodipodi-0.dtd"
   xmlns="http://www.w3.org/2000/svg"
   xmlns:svg="http://www.w3.org/2000/svg"><sodipodi:namedview
     id="namedview7"
     pagecolor="#ffffff"
     bordercolor="#000000"
     borderopacity="0.25"
     inkscape:showpageshadow="2"
     inkscape:pageopacity="0.0"
     inkscape:pagecheckerboard="0"
     inkscape:deskcolor="#d1d1d1"
     inkscape:document-units="mm"
     showgrid="false"
     inkscape:zoom="1.5205622"
     inkscape:cx="271.93889"
     inkscape:cy="243.33105"
     inkscape:window-width="1920"
     inkscape:window-height="1009"
     inkscape:window-x="-8"
     inkscape:window-y="-8"
     inkscape:window-maximized="1"
     inkscape:current-layer="layer1" /><defs
     id="defs2"><rect
       x="172.52606"
       y="256.46393"
       width="37.086128"
       height="17.438618"
       id="rect7304" /><rect
       x="671.0144"
       y="592.40521"
       width="523.52087"
       height="143.44148"
       id="rect1220" /><rect
       x="652.37512"
       y="599.69885"
       width="497.58798"
       height="153.97673"
       id="rect1210" /><rect
       x="408.00595"
       y="373.62341"
       width="129.50751"
       height="58.450291"
       id="rect727" /><rect
       x="521.08966"
       y="372.78577"
       width="130.47502"
       height="71.315536"
       id="rect721" /><rect
       x="435.57776"
       y="323.85489"
       width="311.12698"
       height="139.30003"
       id="rect17003" /></defs><g
     inkscape:label="Layer 1"
     inkscape:groupmode="layer"
     id="layer1"
     transform="translate(67.4194,-70.9677)"><g
       id="g1323"
       style="stroke-width:0.550324;stroke-dasharray:none"
       transform="matrix(1.7849245,0,0,1.7849245,45.784553,-59.477181)"><path
         style="fill:none;stroke:#ff00ff;stroke-width:0.275162;stroke-linecap:round;stroke-miterlimit:3.8;stroke-dasharray:none;stroke-opacity:1"
         d="m 15.146735,83.764558 -0.221996,1.586822 c 0,0 0.229134,0.649215 0.305512,0.801968 0.07639,0.152752 0.381889,0.763776 0.381889,0.763776 l 0.42165,0.856066 0.177645,2.10191"
         id="path980"
         sodipodi:nodetypes="ccsccc" /><path
         style="fill:none;stroke:#ff00ff;stroke-width:0.275162;stroke-linecap:round;stroke-miterlimit:3.8;stroke-dasharray:none;stroke-opacity:1"
         d="m -41.036636,119.2949 1.291946,-0.59983 c 0,0 0,-0.0923 0.46141,-0.0923 0.461409,0 0.507549,-0.0923 0.692113,0 0.184564,0.0923 0.138424,-0.0462 0.369128,0.18457 0.230704,0.23071 0.276846,0.18457 0.553691,0.64597 0.276845,0.46142 0.04613,0.13843 0.692113,1.01511 0.645974,0.87667 0.645974,0.55369 0.830538,1.06124 0.184563,0.50754 0.09228,0.0462 0.461409,1.0151 0.369127,0.96895 0.461409,1.15352 0.50755,1.38423 0.04613,0.2307 0.09761,0.67266 0.09761,0.67266"
         id="path10602"
         sodipodi:nodetypes="ccsscssscsc" /><path
         style="fill:none;stroke:#ff00ff;stroke-width:0.275162;stroke-linecap:round;stroke-miterlimit:3.8;stroke-dasharray:none;stroke-opacity:1"
         d="m 36.987662,101.94593 c 0,0 -1.153523,1.19966 -1.291945,1.43037 -0.138422,0.2307 -0.692114,0.4614 -1.107382,1.15351 -0.415269,0.69211 -0.968959,1.52265 -1.291947,2.12248 -0.322985,0.59983 -0.230704,0.46142 -0.784395,1.33809 -0.553691,0.87668 -0.968959,1.47651 -1.338087,1.75335 -0.369127,0.27685 -1.937919,1.47651 -1.937919,1.47651 0,0 -0.415267,0.59983 -0.692113,0.59983 -0.276846,0 -0.876678,-0.0923 -1.153524,-0.0923 -0.276844,0 -0.369127,0.0462 -0.876676,-0.13842 -0.507551,-0.18457 -0.738255,-0.32298 -1.661075,-0.59983 -0.922817,-0.27684 -1.384227,-0.46141 -1.753354,-0.50755 -0.369127,-0.0462 -1.384227,-0.23071 -1.384227,-0.23071"
         id="path11330"
         sodipodi:nodetypes="cssssscsssssc" /><path
         style="fill:none;stroke:#ff00ff;stroke-width:0.275162;stroke-linecap:round;stroke-miterlimit:3.8;stroke-dasharray:none;stroke-opacity:1"
         d="m 32.973403,107.11369 c 0,0 -1.194313,-0.5187 -1.384228,-0.50753 -0.392198,0.0231 -1.222735,-0.29992 -1.43037,-0.50756 -0.340625,-0.34063 -1.891777,-0.64596 -1.891777,-0.64596"
         id="path11332"
         sodipodi:nodetypes="cssc" /><path
         style="fill:none;stroke:#ff00ff;stroke-width:0.275162;stroke-linecap:round;stroke-miterlimit:3.8;stroke-dasharray:none;stroke-opacity:1"
         d="m 30.666356,110.25129 c 0,0 -0.859225,-0.13541 -1.291946,-0.50756 -1.347082,-1.15849 -1.83728,-0.6089 -2.168622,-0.55369 -0.553688,0.0923 -1.753357,-0.50755 -1.753357,-0.50755 l -0.461409,-0.2307"
         id="path11334"
         sodipodi:nodetypes="csscc" /><path
         style="fill:none;stroke:#ff00ff;stroke-width:0.275162;stroke-linecap:round;stroke-miterlimit:3.8;stroke-dasharray:none;stroke-opacity:1"
         d="m -5.0467175,80.997925 c 0,0 -0.3691272,0.461414 -0.5536912,0.922828 -0.184564,0.461401 -0.276845,0.738247 -0.276845,0.738247 0,0 -0.09228,0.369137 -0.645973,0.73826 -0.553691,0.369123 -1.199664,0.64597 -1.199664,0.64597 0,0 -0.276845,0.276845 -0.738255,0.553692 -0.461409,0.276845 -1.0151,0.461414 -1.0151,0.461414 0,0 -0.276846,0.276845 -0.7382553,0.369123 -0.461409,0.09228 -1.107382,0.09228 -1.568791,0.184568 -0.461409,0.09228 -1.199664,0 -1.568792,0.09228 -0.369127,0.09228 -0.553691,0.276845 -0.922818,0.369124 -0.369128,0.09228 -1.199664,0.553692 -1.199664,0.553692 l -0.803988,0.67397"
         id="path11338"
         sodipodi:nodetypes="cscscscsssscc" /><path
         style="fill:none;stroke:#ff00ff;stroke-width:0.275162;stroke-linecap:round;stroke-miterlimit:3.8;stroke-dasharray:none;stroke-opacity:1"
         d="m 5.1734972,93.24834 c 0,0 0.046145,0.438345 0.046145,0.622913 0,0.184555 0.046145,0.346054 -0.023068,0.645969 -0.069212,0.299916 0.1153524,0.346054 -0.1845637,0.645971 -0.299916,0.299915 -0.3921979,0.484483 -0.4844797,0.669038 -0.09228,0.184569 -0.2076342,0.299915 -0.2537751,0.576761 -0.046145,0.276842 -0.1614933,0.622913 -0.1614933,0.622913"
         id="path12846" /><path
         style="fill:none;stroke:#ff00ff;stroke-width:0.275162;stroke-linecap:round;stroke-miterlimit:3.8;stroke-dasharray:none"
         d="m -25.373967,80.411176 1.696583,-0.261013 1.827086,-0.261012 c 0,0 0.913543,-0.130506 1.566074,0 0.652533,0.130507 1.044052,0.130507 1.827089,0.130507 0.783037,0 4.045693,0 4.82873,-0.261013 0.783038,-0.261012 1.305061,-0.261012 2.479617,-0.261012 1.1745583,0 1.9575953,0.261012 2.7406333,0.391518 0.783037,0.130507 2.088098,0.783036 2.088098,0.783036 l 1.4355691,0.391521 c 0,0 0,-0.130508 0.9135444,0.391517 0.9135426,0.522026 1.4355675,0.783038 2.4796184,0.913545 1.04404912,0.130506 4.4372119,1.305062 5.742273,1.305062 1.3050629,0 2.0880999,0.261012 3.3931628,0.391519 1.3050631,0.130506 4.045694,0.391519 4.045694,0.391519 l 0.783037,-0.130506"
         id="path15106" /><text
         xml:space="preserve"
         transform="matrix(0.14560647,0,0,0.14560647,-67.419355,70.967743)"
         id="text17001"
         style="font-size:11.3386px;font-family:Arial;-inkscape-font-specification:Arial;text-align:center;direction:rtl;text-orientation:sideways;white-space:pre;shape-inside:url(#rect17003);display:inline;fill:none;stroke:#ff00f4;stroke-width:0.755906;stroke-linecap:round;stroke-miterlimit:3.8;stroke-dasharray:none;stroke-opacity:1" /><path
         style="fill:none;stroke:#ff00ff;stroke-width:0.280124;stroke-linecap:round;stroke-miterlimit:3.8;stroke-dasharray:none;stroke-opacity:1"
         d="m 4.3200205,105.73045 c 0,0 1.5714498,0 1.8262803,-0.0425 0.2548305,-0.0425 1.4440369,-0.12742 1.7413374,-0.21236 0.297302,-0.0849 1.2741494,-0.0849 1.5714514,-0.16989 0.2973019,-0.0849 1.2316784,-0.38224 1.5714514,-0.38224 0.339774,0 0.934376,-0.12742 1.52898,-0.21236 0.594603,-0.0849 0.722017,-0.0425 1.528979,-0.21236 0.806961,-0.16988 1.698865,-0.33977 2.123582,-0.46718 0.424718,-0.12741 0.891906,-0.25483 1.316622,-0.46719 0.424717,-0.21236 0.722017,-0.46718 1.019319,-0.72201 0.297302,-0.25483 0.594604,-0.50966 0.976849,-0.76449 0.382244,-0.25483 1.359092,-1.01932 1.741337,-1.31662 0.382245,-0.2973 0.424717,-0.50966 0.934376,-0.72202 0.50966,-0.212364 0.76449,-0.424728 1.316621,-0.552138 0.552133,-0.127414 1.401566,-0.382248 2.123583,-0.509668 0.722018,-0.12741 1.528979,-0.212364 2.038639,-0.297304 0.509661,-0.0849 0.976849,-0.212364 1.274149,-0.212364 0.297302,0 0.849433,-0.0425 0.849433,-0.0425 l 0.339774,-0.0425"
         id="path1983" /><path
         style="fill:none;stroke:#ff00ff;stroke-width:0.280124;stroke-linecap:round;stroke-miterlimit:3.8;stroke-dasharray:none;stroke-opacity:1"
         d="m 0.11532609,92.35187 c 0,0 -0.12741449,0.679546 -0.21235749,0.891905 -0.08494448,0.212357 -0.12741598,0.552131 -0.16988748,0.722018 -0.0424715,0.169886 -0.0424715,0.339772 -0.084943,0.722017 -0.0424715,0.382245 -0.0424715,0.679547 -0.0424715,0.679547"
         id="path1987" /><path
         style="fill:none;stroke:#ff00ff;stroke-width:0.280124;stroke-linecap:round;stroke-miterlimit:3.8;stroke-dasharray:none;stroke-opacity:1"
         d="m 3.7678883,97.23611 c 0,0 -0.467188,0.679546 -0.552131,1.146736 -0.084943,0.467198 -0.1274159,0.806972 -0.2973019,1.189216 -0.169886,0.382254 -0.297302,0.806978 -0.4247165,1.019328 -0.1274145,0.21236 -0.084943,0.25483 -0.297302,0.55214 -0.2123575,0.29729 -0.2123575,0.63707 -0.2123575,0.63707"
         id="path1989" /><path
         style="fill:none;stroke:#ff00ff;stroke-width:0.280124;stroke-linecap:round;stroke-miterlimit:3.8;stroke-dasharray:none;stroke-opacity:1"
         d="m -25.473844,80.417336 c -0.01061,0.04247 -0.191121,0.148651 -0.254829,0.20174 -0.06371,0.05309 -0.509661,0.424717 -0.583986,0.50966 -0.07433,0.08494 -0.25483,0.233594 -0.297302,0.392863 -0.04247,0.159268 -0.09556,0.286683 -0.106178,0.45657 -0.01061,0.169887 -0.02124,0.499042 0.03185,0.679547 0.05309,0.180504 0.07433,0.318537 0.138034,0.435334 0.06371,0.116797 0.09556,0.180504 0.191122,0.286684 0.09556,0.106179 0.25483,0.254829 0.414098,0.307919 0.159268,0.05309 0.265449,0.08494 0.562749,0.222976 0.297302,0.138033 0.467188,0.106179 0.679547,0.297302 0.212359,0.191122 0.637076,0.573367 0.658311,0.668928 0.02124,0.09556 0.02124,0.329156 0.02124,0.499042 0,0.169887 -0.02124,0.201741 -0.07433,0.530896 -0.05309,0.329155 -0.06371,0.594603 -0.05309,0.775107 0.01061,0.180505 0.08495,0.445953 0.10618,0.499042 0.02124,0.05309 0.212358,0.286684 0.265447,0.361009 0.05309,0.07433 0.339774,0.339774 0.403481,0.414099 0.06371,0.07433 0.552132,0.403481 0.668929,0.467188 0.116797,0.06371 0.509659,0.286684 0.753872,0.371627 0.244211,0.08494 0.222975,0.08494 0.615838,0.25483 0.392863,0.169887 0.891905,0.392863 0.891905,0.392863 l 0.116798,0.06371"
         id="path1991" /><path
         style="fill:none;stroke:#ff00ff;stroke-width:0.280124;stroke-linecap:round;stroke-miterlimit:3.8;stroke-dasharray:none;stroke-opacity:1"
         d="m 21.712162,82.286089 c 0,0 0.04247,0.212358 -0.08494,0.382244 -0.127414,0.169887 -0.254829,0.276066 -0.361008,0.467188 -0.10618,0.191123 -0.127416,0.318538 -0.191123,0.594604 -0.06371,0.276065 -0.106179,0.382245 -0.06371,0.615839 0.04247,0.233594 0.169886,0.318537 0.233595,0.467188 0.06371,0.148651 0.212357,0.25483 0.339772,0.467188 0.127416,0.212358 0.212359,0.233594 0.233594,0.467188 0.02124,0.233594 0.08494,0.445953 0.08494,0.658311 0,0.212358 0.06371,0.191122 -0.06371,0.445952 -0.127414,0.25483 -0.06371,0.148651 -0.191122,0.445952 -0.127416,0.297302 -0.40348,0.743254 -0.445953,0.870669 -0.04247,0.127415 -0.06371,0.169887 -0.06371,0.169887"
         id="path1993" /><path
         style="fill:none;stroke:#ff00ff;stroke-width:0.280124;stroke-linecap:round;stroke-miterlimit:3.8;stroke-dasharray:none;stroke-opacity:1"
         d="m 11.688851,90.67424 c 0,0 0.10618,-0.679547 0.148652,-0.806962 0.04247,-0.127415 0.06371,-0.276065 0.127414,-0.50966 0.06371,-0.233594 0.06371,-0.318537 0.06371,-0.509659 0,-0.191123 0,-0.10618 0,-0.50966 0,-0.403481 0,-0.445952 0,-0.700782 0,-0.25483 -0.02124,-0.424717 -0.02124,-0.700783 0,-0.276065 -0.02124,-0.361009 0,-0.615839 0.02124,-0.25483 0.127414,-0.700782 0.191123,-0.828197 0.06371,-0.127415 0.14865,-0.297301 0.212357,-0.467188 0.06371,-0.169887 0.212359,-0.488424 0.212359,-0.488424 l 0.04247,-0.212358 0.509659,-0.169887 c 0,0 0.318538,-0.02124 0.424717,-0.08494 0.106179,-0.06371 0.382245,-0.148651 0.530895,-0.191123 0.148652,-0.04247 0.361009,-0.08494 0.61584,-0.14865 0.254829,-0.06371 0.06371,0.02124 0.40348,-0.08494 0.339774,-0.106179 0.127415,-0.04247 0.743255,-0.212358 0.615838,-0.169887 0.573366,-0.212358 1.104262,-0.339773 0.530896,-0.127415 0.743254,-0.297302 1.274149,-0.361009 0.530897,-0.06371 0.637075,-0.106179 0.998085,-0.127415 0.361009,-0.02124 0.509659,-0.02124 0.934376,-0.06371 0.424716,-0.04247 0.382245,-0.02124 0.658311,-0.08494 0.276064,-0.06371 0.2973,-0.04247 0.573366,-0.127415 0.276067,-0.08494 0.212359,-0.02124 0.573367,-0.169886 0.361009,-0.148651 0.679547,-0.339774 1.125499,-0.530896 0.445953,-0.191123 0.976848,-0.445952 1.337857,-0.615839 0.361009,-0.169887 0.233595,-0.233594 1.231678,-0.594603 0.998085,-0.361009 1.274149,-0.467188 1.953696,-0.637075 0.679547,-0.169886 2.654479,-0.50966 2.824365,-0.594603 0.169886,-0.08494 0.658311,-0.276066 1.040555,-0.276066 0.382245,0 1.231678,0 1.316622,0 0.08494,0 0.382245,0 0.722017,0 0.339774,0 0.254831,0.08494 0.722019,0 0.467188,-0.08494 1.252913,-0.276066 1.422801,-0.276066 0.169886,0 0.530895,-0.02123 0.530895,-0.02123 l 0.50966,0.14865 0.318537,0.06371 0.254831,0.127415"
         id="path1995" /><path
         style="fill:none;stroke:#ff00ff;stroke-width:0.280123;stroke-linecap:round;stroke-miterlimit:3.8;stroke-dasharray:none;stroke-opacity:1"
         d="m -46.539783,117.04915 c 0,0 0.339774,0.2973 0.424717,0.40348 0.08494,0.10618 0.424716,0.38225 0.488424,0.57337 0.06371,0.19112 0.127416,0.46719 0.148651,0.57336 0.02124,0.10618 0.06371,0.14866 0.191122,0.48843 0.127415,0.33977 0.106179,0.44595 0.403481,0.84943 0.297302,0.40348 0.445952,0.5309 0.637075,0.78573 0.191122,0.25483 0.488424,0.76449 0.700781,1.01932 0.212359,0.25483 0.148652,0.25483 0.61584,0.50966 0.467188,0.25483 0.573367,0.12741 0.700781,0.36101 0.127416,0.23359 0.339774,0.25483 0.488426,0.80696 0.14865,0.55213 0.233593,0.55213 0.254829,0.93437 0.02123,0.38225 0.04247,0.57337 0.04247,0.84944 0,0.27606 0.02124,0.44595 0.02124,0.44595"
         id="path2051" /><path
         style="fill:none;stroke:#ff00ff;stroke-width:0.280123;stroke-linecap:round;stroke-miterlimit:3.8;stroke-dasharray:none;stroke-opacity:1"
         d="m -38.61882,125.01258 c 0,0 -0.02124,-0.50966 -0.02124,-0.78572 0,-0.27607 -0.04247,-0.40348 -0.06371,-0.63708 -0.02124,-0.23359 -0.339773,-0.78572 -0.509659,-0.99808 -0.169888,-0.21236 -0.403481,-0.2973 -0.50966,-0.70078 -0.10618,-0.40348 -0.212359,-0.65831 -0.276066,-0.84944 -0.06371,-0.19112 -0.191123,-0.53089 -0.276066,-0.61583 -0.08494,-0.085 -0.191122,-0.21236 -0.276065,-0.38225 -0.08494,-0.16989 -0.233595,-0.21236 -0.297302,-0.33977 -0.06371,-0.12742 -0.169887,-0.38225 -0.169887,-0.38225 l -0.573367,0.16989 c 0,0 -0.403481,0.23359 -0.488424,0.2973 -0.08494,0.0637 -0.127416,0.0637 -0.339773,0.23359 -0.212359,0.16989 -0.169886,0.16989 -0.403481,0.27607 -0.233595,0.10618 -0.530895,0.21236 -0.637076,0.25483 -0.106178,0.0425 -0.637073,0.23359 -0.637073,0.23359"
         id="path2056" /></g><text
       xml:space="preserve"
       transform="matrix(0.25989689,0,0,0.25989689,-74.554114,70.369983)"
       id="text719"
       style="font-size:11.3386px;font-family:Arial;-inkscape-font-specification:Arial;text-align:center;direction:rtl;text-orientation:sideways;white-space:pre;shape-inside:url(#rect721);display:inline;fill:none;stroke:#ff00f4;stroke-width:0.755906;stroke-linecap:round;stroke-miterlimit:3.8;stroke-dasharray:3.77952, 3.77952" /><text
       xml:space="preserve"
       transform="matrix(0.25989689,0,0,0.25989689,-74.554114,70.369983)"
       id="text725"
       style="font-size:11.3386px;font-family:Arial;-inkscape-font-specification:Arial;text-align:center;direction:rtl;text-orientation:sideways;white-space:pre;shape-inside:url(#rect727);display:inline;fill:none;stroke:#ff00f4;stroke-width:0.755906;stroke-linecap:round;stroke-miterlimit:3.8;stroke-dasharray:3.77952, 3.77952" /></g></svg>
