<?xml version="1.0" encoding="UTF-8" standalone="no"?>
<!-- Created with Inkscape (http://www.inkscape.org/) -->

<svg
   sodipodi:docname="imperial color code.svg"
   id="svg5"
   version="1.1"
   viewBox="0 0 140 160"
   height="160mm"
   width="140mm"
   inkscape:version="1.2.2 (732a01da63, 2022-12-09)"
   xmlns:inkscape="http://www.inkscape.org/namespaces/inkscape"
   xmlns:sodipodi="http://sodipodi.sourceforge.net/DTD/sodipodi-0.dtd"
   xmlns="http://www.w3.org/2000/svg"
   xmlns:svg="http://www.w3.org/2000/svg">
  <sodipodi:namedview
     id="namedview7"
     pagecolor="#ffffff"
     bordercolor="#000000"
     borderopacity="0.25"
     inkscape:showpageshadow="2"
     inkscape:pageopacity="0.0"
     inkscape:pagecheckerboard="0"
     inkscape:deskcolor="#d1d1d1"
     inkscape:document-units="mm"
     showgrid="false"
     showguides="true"
     inkscape:zoom="1.4770342"
     inkscape:cx="223.08217"
     inkscape:cy="722.39355"
     inkscape:window-width="1920"
     inkscape:window-height="1009"
     inkscape:window-x="-8"
     inkscape:window-y="-8"
     inkscape:window-maximized="1"
     inkscape:current-layer="layer1">
    <sodipodi:guide
       position="70,48"
       orientation="0,1"
       id="guide4582"
       inkscape:locked="false"
       inkscape:label=""
       inkscape:color="rgb(0,134,229)" />
    <sodipodi:guide
       position="70,48"
       orientation="-1,0"
       id="guide5310"
       inkscape:locked="false"
       inkscape:label=""
       inkscape:color="rgb(0,134,229)" />
    <sodipodi:guide
       position="0,150"
       orientation="0,1"
       id="guide9003"
       inkscape:locked="false"
       inkscape:label=""
       inkscape:color="rgb(0,134,229)" />
    <sodipodi:guide
       position="130,160"
       orientation="-1,0"
       id="guide9005"
       inkscape:locked="false"
       inkscape:label=""
       inkscape:color="rgb(0,134,229)" />
    <sodipodi:guide
       position="140,-54"
       orientation="0,1"
       id="guide9007"
       inkscape:locked="false"
       inkscape:label=""
       inkscape:color="rgb(0,134,229)" />
    <sodipodi:guide
       position="9.9999999,-64"
       orientation="-1,0"
       id="guide9009"
       inkscape:locked="false"
       inkscape:label=""
       inkscape:color="rgb(0,134,229)" />
    <sodipodi:guide
       position="15,138.59364"
       orientation="-1,0"
       id="guide13532"
       inkscape:locked="false"
       inkscape:label=""
       inkscape:color="rgb(0,134,229)" />
    <sodipodi:guide
       position="120,114.5006"
       orientation="-1,0"
       id="guide13534"
       inkscape:locked="false"
       inkscape:label=""
       inkscape:color="rgb(0,134,229)" />
    <sodipodi:guide
       position="-15.047045,130"
       orientation="0,1"
       id="guide13536"
       inkscape:locked="false"
       inkscape:label=""
       inkscape:color="rgb(0,134,229)" />
    <sodipodi:guide
       position="60,90.13872"
       orientation="-1,0"
       id="guide13538"
       inkscape:locked="false"
       inkscape:label=""
       inkscape:color="rgb(0,134,229)" />
    <sodipodi:guide
       position="75,114.14234"
       orientation="-1,0"
       id="guide13540"
       inkscape:locked="false"
       inkscape:label=""
       inkscape:color="rgb(0,134,229)" />
  </sodipodi:namedview>
  <defs
     id="defs2" />
  <g
     inkscape:label="Layer 1"
     inkscape:groupmode="layer"
     id="layer1">
    <text
       xml:space="preserve"
       style="font-style:normal;font-variant:normal;font-weight:normal;font-stretch:normal;font-size:13px;font-family:Arial;-inkscape-font-specification:'Arial, Normal';font-variant-ligatures:normal;font-variant-caps:normal;font-variant-numeric:normal;font-variant-east-asian:normal;text-align:center;writing-mode:tb-rl;direction:rtl;text-anchor:middle;fill:none;stroke:#00ff00;stroke-width:0.499999;stroke-linecap:round;stroke-miterlimit:3.8"
       x="60.54644"
       y="39.050663"
       id="text13474"><tspan
         sodipodi:role="line"
         id="tspan13472"
         style="stroke-width:0.5"
         x="60.54644"
         y="39.050663" /></text>
    <text
       xml:space="preserve"
       style="font-style:normal;font-variant:normal;font-weight:normal;font-stretch:normal;font-size:7.99999px;font-family:Arial;-inkscape-font-specification:'Arial, Normal';font-variant-ligatures:normal;font-variant-caps:normal;font-variant-numeric:normal;font-variant-east-asian:normal;text-align:center;writing-mode:lr-tb;direction:rtl;text-orientation:sideways;text-anchor:middle;fill:none;stroke:#00ff00;stroke-width:0.499999;stroke-linecap:round;stroke-miterlimit:3.8"
       x="161.21834"
       y="135.4234"
       id="text13630"><tspan
         sodipodi:role="line"
         id="tspan13628"
         style="stroke-width:0.5"
         x="161.21834"
         y="135.4234" /></text>
    <g
       inkscape:label="Hershey Text"
       style="fill:none;stroke:#000000;stroke-linecap:round;stroke-linejoin:round"
       id="g22927">
      <g
         transform="translate(14.43552,34.8848)"
         id="g22801">
        <path
           d="m 265,598 -104,-3 107,41 V 31.5 H 110 422"
           style="stroke-width:0.2604in"
           transform="scale(0.007,-0.007)"
           id="path22799" />
      </g>
      <g
         transform="translate(14.43552,43.6348)"
         id="g22813">
        <path
           d="m 265,598 -104,-3 107,41 V 31.5 H 110 422"
           style="stroke-width:0.2604in"
           transform="scale(0.007,-0.007)"
           id="path22803" />
        <path
           d="M 59.9,97.6 101,63 l 44,-25.2 50,-18.9 48,-3.1 72,18.8 50,41 41,59.4 16,70 -9,82 -35,63 -72,41 -73,6 -53,-13 -54,-28 -6,9 19,265 h 258"
           style="stroke-width:0.2604in"
           transform="matrix(0.007,0,0,-0.007,3.528,0)"
           id="path22805" />
        <path
           d="M 44.1,-142 343,709"
           style="stroke-width:0.2604in"
           transform="matrix(0.007,0,0,-0.007,7.035,0)"
           id="path22807" />
        <path
           d="m 265,598 -104,-3 107,41 V 31.5 H 110 422"
           style="stroke-width:0.2604in"
           transform="matrix(0.007,0,0,-0.007,9.702,0)"
           id="path22809" />
        <path
           d="m 85,265 47,50 57,44 57,19 h 63 l 47,-22 35,-32 25,-59 9,-70 -15,-72 -35,-60 -54,-37.8 -63,-9.4 -56,18.8 -51,37.8 -41,62.6 -18.6,89 -6.4,94 12.6,120 22.4,72 28,57 47,47 60,25 60,4 57,-19 41,-35"
           style="stroke-width:0.2604in"
           transform="matrix(0.007,0,0,-0.007,13.23,0)"
           id="path22811" />
      </g>
      <g
         transform="translate(14.43552,52.3848)"
         id="g22821">
        <path
           d="m 224,18.9 12,167.1 25,120 35,104 44,81 47,76 48,66 H 72.5"
           style="stroke-width:0.2604in"
           transform="scale(0.007,-0.007)"
           id="path22815" />
        <path
           d="M 44.1,-142 343,709"
           style="stroke-width:0.2604in"
           transform="matrix(0.007,0,0,-0.007,3.528,0)"
           id="path22817" />
        <path
           d="m 296,321 63,51 38,56 9,54 -3,57 -41,66 -63,34 -50,4 -76,-22 -50,-51 -13,-57 16,-78 50,-48 89,-47 81,-44 54,-41 25,-57 -6,-69 -19,-50.2 -60,-47.3 -75,-15.7 -60,9.4 -63,28.4 -47.5,50.4 -15.7,54 6.2,78 50,70 41,28 54,25"
           style="stroke-width:0.2604in"
           transform="matrix(0.007,0,0,-0.007,6.195,0)"
           id="path22819" />
      </g>
      <g
         transform="translate(14.43552,61.1348)"
         id="g22833">
        <path
           d="m 265,598 -104,-3 107,41 V 31.5 H 110 422"
           style="stroke-width:0.2604in"
           transform="scale(0.007,-0.007)"
           id="path22823" />
        <path
           d="m 88.2,576 50.8,38 66,29 h 53 l 57,-16 47,-38 22,-50 10,-60 -16,-54 -54,-41 -59,-31 -51,-10 h -38 48 l 50,-6 50,-19 54,-41 25,-38 10,-44 -3,-47 L 400,110 369,66.1 324,37.8 268,22.1 H 208 L 151,37.8 94.5,69.3 59.9,101"
           style="stroke-width:0.2604in"
           transform="matrix(0.007,0,0,-0.007,3.528,0)"
           id="path22825" />
        <path
           d="M 44.1,-142 343,709"
           style="stroke-width:0.2604in"
           transform="matrix(0.007,0,0,-0.007,7.014,0)"
           id="path22827" />
        <path
           d="m 265,598 -104,-3 107,41 V 31.5 H 110 422"
           style="stroke-width:0.2604in"
           transform="matrix(0.007,0,0,-0.007,9.681,0)"
           id="path22829" />
        <path
           d="m 85,265 47,50 57,44 57,19 h 63 l 47,-22 35,-32 25,-59 9,-70 -15,-72 -35,-60 -54,-37.8 -63,-9.4 -56,18.8 -51,37.8 -41,62.6 -18.6,89 -6.4,94 12.6,120 22.4,72 28,57 47,47 60,25 60,4 57,-19 41,-35"
           style="stroke-width:0.2604in"
           transform="matrix(0.007,0,0,-0.007,13.209,0)"
           id="path22831" />
      </g>
      <g
         transform="translate(14.43552,69.8848)"
         id="g22841">
        <path
           d="m 88.2,576 50.8,38 66,29 h 53 l 57,-16 47,-38 22,-50 10,-60 -16,-54 -54,-41 -59,-31 -51,-10 h -38 48 l 50,-6 50,-19 54,-41 25,-38 10,-44 -3,-47 L 400,110 369,66.1 324,37.8 268,22.1 H 208 L 151,37.8 94.5,69.3 59.9,101"
           style="stroke-width:0.2604in"
           transform="scale(0.007,-0.007)"
           id="path22835" />
        <path
           d="M 44.1,-142 343,709"
           style="stroke-width:0.2604in"
           transform="matrix(0.007,0,0,-0.007,3.486,0)"
           id="path22837" />
        <path
           d="M 340,15.8 V 630 L 47.2,220 H 444"
           style="stroke-width:0.2604in"
           transform="matrix(0.007,0,0,-0.007,6.153,0)"
           id="path22839" />
      </g>
      <g
         transform="translate(14.43552,78.6348)"
         id="g22853">
        <path
           d="m 265,598 -104,-3 107,41 V 31.5 H 110 422"
           style="stroke-width:0.2604in"
           transform="scale(0.007,-0.007)"
           id="path22843" />
        <path
           d="m 265,598 -104,-3 107,41 V 31.5 H 110 422"
           style="stroke-width:0.2604in"
           transform="matrix(0.007,0,0,-0.007,3.528,0)"
           id="path22845" />
        <path
           d="M 44.1,-142 343,709"
           style="stroke-width:0.2604in"
           transform="matrix(0.007,0,0,-0.007,7.056,0)"
           id="path22847" />
        <path
           d="m 265,598 -104,-3 107,41 V 31.5 H 110 422"
           style="stroke-width:0.2604in"
           transform="matrix(0.007,0,0,-0.007,9.723,0)"
           id="path22849" />
        <path
           d="m 85,265 47,50 57,44 57,19 h 63 l 47,-22 35,-32 25,-59 9,-70 -15,-72 -35,-60 -54,-37.8 -63,-9.4 -56,18.8 -51,37.8 -41,62.6 -18.6,89 -6.4,94 12.6,120 22.4,72 28,57 47,47 60,25 60,4 57,-19 41,-35"
           style="stroke-width:0.2604in"
           transform="matrix(0.007,0,0,-0.007,13.251,0)"
           id="path22851" />
      </g>
      <g
         transform="translate(14.43552,87.3848)"
         id="g22861">
        <path
           d="M 59.9,97.6 101,63 l 44,-25.2 50,-18.9 48,-3.1 72,18.8 50,41 41,59.4 16,70 -9,82 -35,63 -72,41 -73,6 -53,-13 -54,-28 -6,9 19,265 h 258"
           style="stroke-width:0.2604in"
           transform="scale(0.007,-0.007)"
           id="path22855" />
        <path
           d="M 44.1,-142 343,709"
           style="stroke-width:0.2604in"
           transform="matrix(0.007,0,0,-0.007,3.507,0)"
           id="path22857" />
        <path
           d="m 296,321 63,51 38,56 9,54 -3,57 -41,66 -63,34 -50,4 -76,-22 -50,-51 -13,-57 16,-78 50,-48 89,-47 81,-44 54,-41 25,-57 -6,-69 -19,-50.2 -60,-47.3 -75,-15.7 -60,9.4 -63,28.4 -47.5,50.4 -15.7,54 6.2,78 50,70 41,28 54,25"
           style="stroke-width:0.2604in"
           transform="matrix(0.007,0,0,-0.007,6.174,0)"
           id="path22859" />
      </g>
      <g
         transform="translate(14.43552,96.1348)"
         id="g22871">
        <path
           d="m 88.2,75.6 34.8,-34.7 57,-18.8 59,-6.3 63,31.4 60,59.8 35,91 16,111 v 104 l -22,97 -38,76 -60,44 -69,13 -73,-26 -44,-44 -25.1,-56 -6.3,-57 3.2,-63 34.2,-66 63,-41 76,-10 82,35 50,47 32,41"
           style="stroke-width:0.2604in"
           transform="scale(0.007,-0.007)"
           id="path22863" />
        <path
           d="M 44.1,-142 343,709"
           style="stroke-width:0.2604in"
           transform="matrix(0.007,0,0,-0.007,3.507,0)"
           id="path22865" />
        <path
           d="m 265,598 -104,-3 107,41 V 31.5 H 110 422"
           style="stroke-width:0.2604in"
           transform="matrix(0.007,0,0,-0.007,6.174,0)"
           id="path22867" />
        <path
           d="m 85,265 47,50 57,44 57,19 h 63 l 47,-22 35,-32 25,-59 9,-70 -15,-72 -35,-60 -54,-37.8 -63,-9.4 -56,18.8 -51,37.8 -41,62.6 -18.6,89 -6.4,94 12.6,120 22.4,72 28,57 47,47 60,25 60,4 57,-19 41,-35"
           style="stroke-width:0.2604in"
           transform="matrix(0.007,0,0,-0.007,9.702,0)"
           id="path22869" />
      </g>
      <g
         transform="translate(14.43552,104.8846)"
         id="g22879">
        <path
           d="m 265,598 -104,-3 107,41 V 31.5 H 110 422"
           style="stroke-width:0.2604in"
           transform="scale(0.007,-0.007)"
           id="path22873" />
        <path
           d="M 44.1,-142 343,709"
           style="stroke-width:0.2604in"
           transform="matrix(0.007,0,0,-0.007,3.528,0)"
           id="path22875" />
        <path
           d="m 75.6,558 41.4,40 50,32 63,16 54,-10 56,-28 35,-47 16,-70 -4,-59 L 356,359 299,277 230,192 167,126 110,63 81.9,31.5 H 438"
           style="stroke-width:0.2604in"
           transform="matrix(0.007,0,0,-0.007,6.195,0)"
           id="path22877" />
      </g>
      <g
         transform="translate(14.43552,113.6346)"
         id="g22889">
        <path
           d="m 224,18.9 12,167.1 25,120 35,104 44,81 47,76 48,66 H 72.5"
           style="stroke-width:0.2604in"
           transform="scale(0.007,-0.007)"
           id="path22881" />
        <path
           d="M 44.1,-142 343,709"
           style="stroke-width:0.2604in"
           transform="matrix(0.007,0,0,-0.007,3.528,0)"
           id="path22883" />
        <path
           d="m 265,598 -104,-3 107,41 V 31.5 H 110 422"
           style="stroke-width:0.2604in"
           transform="matrix(0.007,0,0,-0.007,6.195,0)"
           id="path22885" />
        <path
           d="m 85,265 47,50 57,44 57,19 h 63 l 47,-22 35,-32 25,-59 9,-70 -15,-72 -35,-60 -54,-37.8 -63,-9.4 -56,18.8 -51,37.8 -41,62.6 -18.6,89 -6.4,94 12.6,120 22.4,72 28,57 47,47 60,25 60,4 57,-19 41,-35"
           style="stroke-width:0.2604in"
           transform="matrix(0.007,0,0,-0.007,9.723,0)"
           id="path22887" />
      </g>
      <g
         transform="translate(14.43552,122.3846)"
         id="g22897">
        <path
           d="m 88.2,576 50.8,38 66,29 h 53 l 57,-16 47,-38 22,-50 10,-60 -16,-54 -54,-41 -59,-31 -51,-10 h -38 48 l 50,-6 50,-19 54,-41 25,-38 10,-44 -3,-47 L 400,110 369,66.1 324,37.8 268,22.1 H 208 L 151,37.8 94.5,69.3 59.9,101"
           style="stroke-width:0.2604in"
           transform="scale(0.007,-0.007)"
           id="path22891" />
        <path
           d="M 44.1,-142 343,709"
           style="stroke-width:0.2604in"
           transform="matrix(0.007,0,0,-0.007,3.486,0)"
           id="path22893" />
        <path
           d="m 296,321 63,51 38,56 9,54 -3,57 -41,66 -63,34 -50,4 -76,-22 -50,-51 -13,-57 16,-78 50,-48 89,-47 81,-44 54,-41 25,-57 -6,-69 -19,-50.2 -60,-47.3 -75,-15.7 -60,9.4 -63,28.4 -47.5,50.4 -15.7,54 6.2,78 50,70 41,28 54,25"
           style="stroke-width:0.2604in"
           transform="matrix(0.007,0,0,-0.007,6.153,0)"
           id="path22895" />
      </g>
      <g
         transform="translate(14.43552,131.1346)"
         id="g22907">
        <path
           d="M 59.9,97.6 101,63 l 44,-25.2 50,-18.9 48,-3.1 72,18.8 50,41 41,59.4 16,70 -9,82 -35,63 -72,41 -73,6 -53,-13 -54,-28 -6,9 19,265 h 258"
           style="stroke-width:0.2604in"
           transform="scale(0.007,-0.007)"
           id="path22899" />
        <path
           d="M 44.1,-142 343,709"
           style="stroke-width:0.2604in"
           transform="matrix(0.007,0,0,-0.007,3.507,0)"
           id="path22901" />
        <path
           d="m 265,598 -104,-3 107,41 V 31.5 H 110 422"
           style="stroke-width:0.2604in"
           transform="matrix(0.007,0,0,-0.007,6.174,0)"
           id="path22903" />
        <path
           d="m 85,265 47,50 57,44 57,19 h 63 l 47,-22 35,-32 25,-59 9,-70 -15,-72 -35,-60 -54,-37.8 -63,-9.4 -56,18.8 -51,37.8 -41,62.6 -18.6,89 -6.4,94 12.6,120 22.4,72 28,57 47,47 60,25 60,4 57,-19 41,-35"
           style="stroke-width:0.2604in"
           transform="matrix(0.007,0,0,-0.007,9.702,0)"
           id="path22905" />
      </g>
      <g
         transform="translate(14.43552,139.8846)"
         id="g22915">
        <path
           d="m 265,598 -104,-3 107,41 V 31.5 H 110 422"
           style="stroke-width:0.2604in"
           transform="scale(0.007,-0.007)"
           id="path22909" />
        <path
           d="M 44.1,-142 343,709"
           style="stroke-width:0.2604in"
           transform="matrix(0.007,0,0,-0.007,3.528,0)"
           id="path22911" />
        <path
           d="M 340,15.8 V 630 L 47.2,220 H 444"
           style="stroke-width:0.2604in"
           transform="matrix(0.007,0,0,-0.007,6.195,0)"
           id="path22913" />
      </g>
      <g
         transform="translate(14.43552,148.6346)"
         id="g22925">
        <path
           d="m 224,18.9 12,167.1 25,120 35,104 44,81 47,76 48,66 H 72.5"
           style="stroke-width:0.2604in"
           transform="scale(0.007,-0.007)"
           id="path22917" />
        <path
           d="M 44.1,-142 343,709"
           style="stroke-width:0.2604in"
           transform="matrix(0.007,0,0,-0.007,3.528,0)"
           id="path22919" />
        <path
           d="m 88.2,576 50.8,38 66,29 h 53 l 57,-16 47,-38 22,-50 10,-60 -16,-54 -54,-41 -59,-31 -51,-10 h -38 48 l 50,-6 50,-19 54,-41 25,-38 10,-44 -3,-47 L 400,110 369,66.1 324,37.8 268,22.1 H 208 L 151,37.8 94.5,69.3 59.9,101"
           style="stroke-width:0.2604in"
           transform="matrix(0.007,0,0,-0.007,6.195,0)"
           id="path22921" />
        <path
           d="m 75.6,558 41.4,40 50,32 63,16 54,-10 56,-28 35,-47 16,-70 -4,-59 L 356,359 299,277 230,192 167,126 110,63 81.9,31.5 H 438"
           style="stroke-width:0.2604in"
           transform="matrix(0.007,0,0,-0.007,9.681,0)"
           id="path22923" />
      </g>
    </g>
    <g
       inkscape:label="Hershey Text"
       style="fill:none;stroke:#000000;stroke-linecap:round;stroke-linejoin:round"
       id="g23361"
       transform="translate(-9.8860844,-0.17913148)">
      <g
         transform="translate(48.3665,35.2607)"
         id="g23217">
        <path
           d="M 129,18.9 V 649 h 211 l 51,-16 56,-28 41,-63 v -54 l -9,-60 -38,-53 -47,-29 -76,-18 H 132 312 L 495,18.9"
           style="stroke-width:0.2604in"
           transform="scale(0.007,-0.007)"
           id="path23211" />
        <path
           d="M 88.2,265 H 435 v 56 l -16,73 -47,56 -48,32 -66,3 -66,-19 -57,-47 -22,-47 -24.8,-60 -6.3,-63 15.7,-76 28.4,-69 57,-56.8 53,-25.1 66,-6.3 57,15.7 54,28.4"
           style="stroke-width:0.2604in"
           transform="matrix(0.007,0,0,-0.007,4.06,0)"
           id="path23213" />
        <path
           d="M 438,715 V 22.1 117 L 394,72.4 334,31.5 274,15.8 l -50,9.4 -51,22 -50,53.8 -31.6,72 -6.4,88 22,104 54,79 75,38 60,6 63,-22 41,-25 41,-38"
           style="stroke-width:0.2604in"
           transform="matrix(0.007,0,0,-0.007,7.588,0)"
           id="path23215" />
      </g>
      <g
         transform="translate(48.3665,44.0107)"
         id="g23229">
        <path
           d="M 129,28.4 V 646 h 183 l 53,-3 54,-22 44,-41 13,-48 V 476 L 454,425 406,391 365,372 309,362 H 135 312 l 53,-9 63,-16 51,-35 28,-31 10,-44 V 164 L 491,104 447,66.1 369,34.6 312,28.4 H 135"
           style="stroke-width:0.2604in"
           transform="scale(0.007,-0.007)"
           id="path23219" />
        <path
           d="M 129,18.9 V 482 340 l 29,57 44,57 47,22 44,6 28,-3"
           style="stroke-width:0.2604in"
           transform="matrix(0.007,0,0,-0.007,4.214,0)"
           id="path23221" />
        <path
           d="m 287,18.9 h 3 l 63,15.7 60,41 37,63.4 16,69 3,66 -9,60 -22,53 -32,41 -44,38 -47,16 -44,3 -51,-9 -47,-29 -41,-47 -22,-44 -18.6,-66 v -51 l 6.2,-59 15.4,-54 38,-50.4 44,-34.7 48,-18.8 44,-3.2"
           style="stroke-width:0.2604in"
           transform="matrix(0.007,0,0,-0.007,6.594,0)"
           id="path23223" />
        <path
           d="M 59.9,482 198,9.45 h 13 L 343,482 h 19 L 495,9.45 h 12 L 643,482"
           style="stroke-width:0.2604in"
           transform="matrix(0.007,0,0,-0.007,10.521,0)"
           id="path23225" />
        <path
           d="M 126,15.8 V 482 369 l 44,44 41,37 32,19 47,13 31,3 48,-13 28,-18 22,-32 19,-44 V 15.8"
           style="stroke-width:0.2604in"
           transform="matrix(0.007,0,0,-0.007,15.435,0)"
           id="path23227" />
      </g>
      <g
         transform="translate(48.3665,52.7607)"
         id="g23237">
        <path
           d="M 274,22.1 V 649 H 56.7 495"
           style="stroke-width:0.2604in"
           transform="scale(0.007,-0.007)"
           id="path23231" />
        <path
           d="m 117,428 66,38 56,16 57,6 44,-16 38,-34 25,-51 3,-69 V 107 22.1 L 403,107 362,78.8 318,47.2 268,25.2 211,15.8 164,31.5 126,56.7 97.6,97.6 V 158 l 22.4,47 50,41 50,19 60,19 57,9 35,3 h 28"
           style="stroke-width:0.2604in"
           transform="matrix(0.007,0,0,-0.007,3.836,0)"
           id="path23233" />
        <path
           d="M 126,15.8 V 482 369 l 44,44 41,37 32,19 47,13 31,3 48,-13 28,-18 22,-32 19,-44 V 15.8"
           style="stroke-width:0.2604in"
           transform="matrix(0.007,0,0,-0.007,7.476,0)"
           id="path23235" />
      </g>
      <g
         transform="translate(48.3665,61.5107)"
         id="g23247">
        <path
           d="M 129,28.4 V 646 h 183 l 53,-3 54,-22 44,-41 13,-48 V 476 L 454,425 406,391 365,372 309,362 H 135 312 l 53,-9 63,-16 51,-35 28,-31 10,-44 V 164 L 491,104 447,66.1 369,34.6 312,28.4 H 135"
           style="stroke-width:0.2604in"
           transform="scale(0.007,-0.007)"
           id="path23239" />
        <path
           d="M 129,715 V 63 l 6,-22.1 10,-12.5 16,-9.5 h 22"
           style="stroke-width:0.2604in"
           transform="matrix(0.007,0,0,-0.007,4.214,0)"
           id="path23241" />
        <path
           d="M 425,476 V 18.9 139 L 391,97.6 350,56.7 293,25.2 239,15.8 183,31.5 145,63 l -22,41 -3,79 v 293"
           style="stroke-width:0.2604in"
           transform="matrix(0.007,0,0,-0.007,6.069,0)"
           id="path23243" />
        <path
           d="M 88.2,265 H 435 v 56 l -16,73 -47,56 -48,32 -66,3 -66,-19 -57,-47 -22,-47 -24.8,-60 -6.3,-63 15.7,-76 28.4,-69 57,-56.8 53,-25.1 66,-6.3 57,15.7 54,28.4"
           style="stroke-width:0.2604in"
           transform="matrix(0.007,0,0,-0.007,9.947,0)"
           id="path23245" />
      </g>
      <g
         transform="translate(48.3665,70.2607)"
         id="g23259">
        <path
           d="M 346,315 H 520 V 81.9 L 479,53.6 391,22.1 328,18.9 265,31.5 208,63 l -66,76 -44.4,94 -9.4,110 12.8,107 41,95 66,72 66,32 76,13 82,-13 50,-28 35,-29"
           style="stroke-width:0.2604in"
           transform="scale(0.007,-0.007)"
           id="path23249" />
        <path
           d="M 129,18.9 V 482 340 l 29,57 44,57 47,22 44,6 28,-3"
           style="stroke-width:0.2604in"
           transform="matrix(0.007,0,0,-0.007,4.368,0)"
           id="path23251" />
        <path
           d="M 88.2,265 H 435 v 56 l -16,73 -47,56 -48,32 -66,3 -66,-19 -57,-47 -22,-47 -24.8,-60 -6.3,-63 15.7,-76 28.4,-69 57,-56.8 53,-25.1 66,-6.3 57,15.7 54,28.4"
           style="stroke-width:0.2604in"
           transform="matrix(0.007,0,0,-0.007,6.748,0)"
           id="path23253" />
        <path
           d="M 88.2,265 H 435 v 56 l -16,73 -47,56 -48,32 -66,3 -66,-19 -57,-47 -22,-47 -24.8,-60 -6.3,-63 15.7,-76 28.4,-69 57,-56.8 53,-25.1 66,-6.3 57,15.7 54,28.4"
           style="stroke-width:0.2604in"
           transform="matrix(0.007,0,0,-0.007,10.276,0)"
           id="path23255" />
        <path
           d="M 126,15.8 V 482 369 l 44,44 41,37 32,19 47,13 31,3 48,-13 28,-18 22,-32 19,-44 V 15.8"
           style="stroke-width:0.2604in"
           transform="matrix(0.007,0,0,-0.007,13.804,0)"
           id="path23257" />
      </g>
      <g
         transform="translate(48.3665,79.0107)"
         id="g23273">
        <path
           d="m 334,22.1 82,12.5 82,53.6 56,84.8 29,111 v 103 l -16,85 -31,70 -51,66 -69,41 -70,13 -59,-10 -67,-25 -62,-54 -48,-91 -15.5,-72 -3.1,-108 12.6,-82 31,-75 45,-59.9 50,-41 54,-18.9 50,-3.1"
           style="stroke-width:0.2604in"
           transform="scale(0.007,-0.007)"
           id="path23261" />
        <path
           d="M 129,18.9 V 482 340 l 29,57 44,57 47,22 44,6 28,-3"
           style="stroke-width:0.2604in"
           transform="matrix(0.007,0,0,-0.007,4.739,0)"
           id="path23263" />
        <path
           d="m 117,428 66,38 56,16 57,6 44,-16 38,-34 25,-51 3,-69 V 107 22.1 L 403,107 362,78.8 318,47.2 268,25.2 211,15.8 164,31.5 126,56.7 97.6,97.6 V 158 l 22.4,47 50,41 50,19 60,19 57,9 35,3 h 28"
           style="stroke-width:0.2604in"
           transform="matrix(0.007,0,0,-0.007,7.119,0)"
           id="path23265" />
        <path
           d="M 126,15.8 V 482 369 l 44,44 41,37 32,19 47,13 31,3 48,-13 28,-18 22,-32 19,-44 V 15.8"
           style="stroke-width:0.2604in"
           transform="matrix(0.007,0,0,-0.007,10.759,0)"
           id="path23267" />
        <path
           d="M 170,40.9 123,-3.15 91.4,-56.7 85,-113 l 44,-48 73,-31 85,-10 75,19 76,51 28,47 -3,53.5 -28,50.4 -70,18.9 H 173 l -41,28.3 -19,43.9 10,41 53,60 35,-22 54,-9 66,22 47,44 22,53 v 63 l -25,57 -19,25 -44,28 H 463 312 l -47,10 -73,-6 -50,-41 -29,-57 -3,-63 13,-50 25,-32 28,-25"
           style="stroke-width:0.2604in"
           transform="matrix(0.007,0,0,-0.007,14.665,0)"
           id="path23269" />
        <path
           d="M 88.2,265 H 435 v 56 l -16,73 -47,56 -48,32 -66,3 -66,-19 -57,-47 -22,-47 -24.8,-60 -6.3,-63 15.7,-76 28.4,-69 57,-56.8 53,-25.1 66,-6.3 57,15.7 54,28.4"
           style="stroke-width:0.2604in"
           transform="matrix(0.007,0,0,-0.007,18.235,0)"
           id="path23271" />
      </g>
      <g
         transform="translate(48.3665,87.7607)"
         id="g23285">
        <path
           d="M 129,28.4 V 646 h 183 l 53,-3 54,-22 44,-41 13,-48 V 476 L 454,425 406,391 365,372 309,362 H 135 312 l 53,-9 63,-16 51,-35 28,-31 10,-44 V 164 L 491,104 447,66.1 369,34.6 312,28.4 H 135"
           style="stroke-width:0.2604in"
           transform="scale(0.007,-0.007)"
           id="path23275" />
        <path
           d="M 129,18.9 V 482 340 l 29,57 44,57 47,22 44,6 28,-3"
           style="stroke-width:0.2604in"
           transform="matrix(0.007,0,0,-0.007,4.214,0)"
           id="path23277" />
        <path
           d="m 287,18.9 h 3 l 63,15.7 60,41 37,63.4 16,69 3,66 -9,60 -22,53 -32,41 -44,38 -47,16 -44,3 -51,-9 -47,-29 -41,-47 -22,-44 -18.6,-66 v -51 l 6.2,-59 15.4,-54 38,-50.4 44,-34.7 48,-18.8 44,-3.2"
           style="stroke-width:0.2604in"
           transform="matrix(0.007,0,0,-0.007,6.594,0)"
           id="path23279" />
        <path
           d="M 59.9,482 198,9.45 h 13 L 343,482 h 19 L 495,9.45 h 12 L 643,482"
           style="stroke-width:0.2604in"
           transform="matrix(0.007,0,0,-0.007,10.521,0)"
           id="path23281" />
        <path
           d="M 126,15.8 V 482 369 l 44,44 41,37 32,19 47,13 31,3 48,-13 28,-18 22,-32 19,-44 V 15.8"
           style="stroke-width:0.2604in"
           transform="matrix(0.007,0,0,-0.007,15.435,0)"
           id="path23283" />
      </g>
      <g
         transform="translate(48.3665,96.5107)"
         id="g23295">
        <path
           d="M 346,315 H 520 V 81.9 L 479,53.6 391,22.1 328,18.9 265,31.5 208,63 l -66,76 -44.4,94 -9.4,110 12.8,107 41,95 66,72 66,32 76,13 82,-13 50,-28 35,-29"
           style="stroke-width:0.2604in"
           transform="scale(0.007,-0.007)"
           id="path23287" />
        <path
           d="M 129,18.9 V 482 340 l 29,57 44,57 47,22 44,6 28,-3"
           style="stroke-width:0.2604in"
           transform="matrix(0.007,0,0,-0.007,4.368,0)"
           id="path23289" />
        <path
           d="M 88.2,265 H 435 v 56 l -16,73 -47,56 -48,32 -66,3 -66,-19 -57,-47 -22,-47 -24.8,-60 -6.3,-63 15.7,-76 28.4,-69 57,-56.8 53,-25.1 66,-6.3 57,15.7 54,28.4"
           style="stroke-width:0.2604in"
           transform="matrix(0.007,0,0,-0.007,6.748,0)"
           id="path23291" />
        <path
           d="M 53.5,479 243,3.15 M 406,476 211,-78.8 189,-126 158,-161 120,-183 H 53.5"
           style="stroke-width:0.2604in"
           transform="matrix(0.007,0,0,-0.007,10.276,0)"
           id="path23293" />
      </g>
      <g
         transform="translate(48.3665,105.261)"
         id="g23305">
        <path
           d="M 274,22.1 V 649 H 56.7 495"
           style="stroke-width:0.2604in"
           transform="scale(0.007,-0.007)"
           id="path23297" />
        <path
           d="M 88.2,265 H 435 v 56 l -16,73 -47,56 -48,32 -66,3 -66,-19 -57,-47 -22,-47 -24.8,-60 -6.3,-63 15.7,-76 28.4,-69 57,-56.8 53,-25.1 66,-6.3 57,15.7 54,28.4"
           style="stroke-width:0.2604in"
           transform="matrix(0.007,0,0,-0.007,3.836,0)"
           id="path23299" />
        <path
           d="m 117,428 66,38 56,16 57,6 44,-16 38,-34 25,-51 3,-69 V 107 22.1 L 403,107 362,78.8 318,47.2 268,25.2 211,15.8 164,31.5 126,56.7 97.6,97.6 V 158 l 22.4,47 50,41 50,19 60,19 57,9 35,3 h 28"
           style="stroke-width:0.2604in"
           transform="matrix(0.007,0,0,-0.007,7.364,0)"
           id="path23301" />
        <path
           d="M 129,715 V 63 l 6,-22.1 10,-12.5 16,-9.5 h 22"
           style="stroke-width:0.2604in"
           transform="matrix(0.007,0,0,-0.007,11.004,0)"
           id="path23303" />
      </g>
      <g
         transform="translate(48.3665,114.011)"
         id="g23319">
        <path
           d="M 44.1,655 236,274 V 22.1 277 l 189,375"
           style="stroke-width:0.2604in"
           transform="scale(0.007,-0.007)"
           id="path23307" />
        <path
           d="M 88.2,265 H 435 v 56 l -16,73 -47,56 -48,32 -66,3 -66,-19 -57,-47 -22,-47 -24.8,-60 -6.3,-63 15.7,-76 28.4,-69 57,-56.8 53,-25.1 66,-6.3 57,15.7 54,28.4"
           style="stroke-width:0.2604in"
           transform="matrix(0.007,0,0,-0.007,3.304,0)"
           id="path23309" />
        <path
           d="M 129,715 V 63 l 6,-22.1 10,-12.5 16,-9.5 h 22"
           style="stroke-width:0.2604in"
           transform="matrix(0.007,0,0,-0.007,6.832,0)"
           id="path23311" />
        <path
           d="M 129,715 V 63 l 6,-22.1 10,-12.5 16,-9.5 h 22"
           style="stroke-width:0.2604in"
           transform="matrix(0.007,0,0,-0.007,8.687,0)"
           id="path23313" />
        <path
           d="m 287,18.9 h 3 l 63,15.7 60,41 37,63.4 16,69 3,66 -9,60 -22,53 -32,41 -44,38 -47,16 -44,3 -51,-9 -47,-29 -41,-47 -22,-44 -18.6,-66 v -51 l 6.2,-59 15.4,-54 38,-50.4 44,-34.7 48,-18.8 44,-3.2"
           style="stroke-width:0.2604in"
           transform="matrix(0.007,0,0,-0.007,10.542,0)"
           id="path23315" />
        <path
           d="M 59.9,482 198,9.45 h 13 L 343,482 h 19 L 495,9.45 h 12 L 643,482"
           style="stroke-width:0.2604in"
           transform="matrix(0.007,0,0,-0.007,14.469,0)"
           id="path23317" />
      </g>
      <g
         transform="translate(48.3665,122.761)"
         id="g23327">
        <path
           d="M 129,18.9 V 649 h 211 l 51,-16 56,-28 41,-63 v -54 l -9,-60 -38,-53 -47,-29 -76,-18 H 132 312 L 495,18.9"
           style="stroke-width:0.2604in"
           transform="scale(0.007,-0.007)"
           id="path23321" />
        <path
           d="M 88.2,265 H 435 v 56 l -16,73 -47,56 -48,32 -66,3 -66,-19 -57,-47 -22,-47 -24.8,-60 -6.3,-63 15.7,-76 28.4,-69 57,-56.8 53,-25.1 66,-6.3 57,15.7 54,28.4"
           style="stroke-width:0.2604in"
           transform="matrix(0.007,0,0,-0.007,4.06,0)"
           id="path23323" />
        <path
           d="M 438,715 V 22.1 117 L 394,72.4 334,31.5 274,15.8 l -50,9.4 -51,22 -50,53.8 -31.6,72 -6.4,88 22,104 54,79 75,38 60,6 63,-22 41,-25 41,-38"
           style="stroke-width:0.2604in"
           transform="matrix(0.007,0,0,-0.007,7.588,0)"
           id="path23325" />
      </g>
      <g
         transform="translate(48.3665,131.511)"
         id="g23335">
        <path
           d="M 274,22.1 V 649 H 56.7 495"
           style="stroke-width:0.2604in"
           transform="scale(0.007,-0.007)"
           id="path23329" />
        <path
           d="m 117,428 66,38 56,16 57,6 44,-16 38,-34 25,-51 3,-69 V 107 22.1 L 403,107 362,78.8 318,47.2 268,25.2 211,15.8 164,31.5 126,56.7 97.6,97.6 V 158 l 22.4,47 50,41 50,19 60,19 57,9 35,3 h 28"
           style="stroke-width:0.2604in"
           transform="matrix(0.007,0,0,-0.007,3.836,0)"
           id="path23331" />
        <path
           d="M 126,15.8 V 482 369 l 44,44 41,37 32,19 47,13 31,3 48,-13 28,-18 22,-32 19,-44 V 15.8"
           style="stroke-width:0.2604in"
           transform="matrix(0.007,0,0,-0.007,7.476,0)"
           id="path23333" />
      </g>
      <g
         transform="translate(48.3665,140.261)"
         id="g23349">
        <path
           d="M 135,15.8 V 649 h 224 l 57,-16 41,-31 31,-41 13,-63 -3,-57 -26,-63 -47,-38 -66,-25 -75,-3 H 132"
           style="stroke-width:0.2604in"
           transform="scale(0.007,-0.007)"
           id="path23337" />
        <path
           d="M 425,476 V 18.9 139 L 391,97.6 350,56.7 293,25.2 239,15.8 183,31.5 145,63 l -22,41 -3,79 v 293"
           style="stroke-width:0.2604in"
           transform="matrix(0.007,0,0,-0.007,4.06,0)"
           id="path23339" />
        <path
           d="M 129,18.9 V 482 340 l 29,57 44,57 47,22 44,6 28,-3"
           style="stroke-width:0.2604in"
           transform="matrix(0.007,0,0,-0.007,7.938,0)"
           id="path23341" />
        <path
           d="M 123,-195 V 482 381 l 53,54 63,34 54,10 h 66 l 51,-29 44,-63 22,-72 V 233 L 466,164 432,91.4 381,44.1 343,25.2 284,22.1 236,31.5 183,59.9 132,94.5"
           style="stroke-width:0.2604in"
           transform="matrix(0.007,0,0,-0.007,10.318,0)"
           id="path23343" />
        <path
           d="M 129,715 V 63 l 6,-22.1 10,-12.5 16,-9.5 h 22"
           style="stroke-width:0.2604in"
           transform="matrix(0.007,0,0,-0.007,14.287,0)"
           id="path23345" />
        <path
           d="M 88.2,265 H 435 v 56 l -16,73 -47,56 -48,32 -66,3 -66,-19 -57,-47 -22,-47 -24.8,-60 -6.3,-63 15.7,-76 28.4,-69 57,-56.8 53,-25.1 66,-6.3 57,15.7 54,28.4"
           style="stroke-width:0.2604in"
           transform="matrix(0.007,0,0,-0.007,16.142,0)"
           id="path23347" />
      </g>
      <g
         transform="translate(48.3665,149.011)"
         id="g23359">
        <path
           d="M 274,22.1 V 649 H 56.7 495"
           style="stroke-width:0.2604in"
           transform="scale(0.007,-0.007)"
           id="path23351" />
        <path
           d="M 88.2,265 H 435 v 56 l -16,73 -47,56 -48,32 -66,3 -66,-19 -57,-47 -22,-47 -24.8,-60 -6.3,-63 15.7,-76 28.4,-69 57,-56.8 53,-25.1 66,-6.3 57,15.7 54,28.4"
           style="stroke-width:0.2604in"
           transform="matrix(0.007,0,0,-0.007,3.836,0)"
           id="path23353" />
        <path
           d="m 117,428 66,38 56,16 57,6 44,-16 38,-34 25,-51 3,-69 V 107 22.1 L 403,107 362,78.8 318,47.2 268,25.2 211,15.8 164,31.5 126,56.7 97.6,97.6 V 158 l 22.4,47 50,41 50,19 60,19 57,9 35,3 h 28"
           style="stroke-width:0.2604in"
           transform="matrix(0.007,0,0,-0.007,7.364,0)"
           id="path23355" />
        <path
           d="M 129,715 V 63 l 6,-22.1 10,-12.5 16,-9.5 h 22"
           style="stroke-width:0.2604in"
           transform="matrix(0.007,0,0,-0.007,11.004,0)"
           id="path23357" />
      </g>
    </g>
    <g
       inkscape:label="Hershey Text"
       style="fill:none;stroke:#000000;stroke-linecap:round;stroke-linejoin:round"
       transform="scale(0.971584,1.02925)"
       id="g23399">
      <g
         transform="translate(8.65211,20.7981)"
         id="g23397">
        <path
           d="M 132,18.9 V 652"
           style="stroke-width:0.1288in"
           transform="scale(0.0141422,-0.0141422)"
           id="path23363" />
        <path
           d="M 123,15.8 V 479 375 l 44,38 41,34 38,25 47,13 41,-6 28,-13 32,-31 22,-54 6,-66 V 15.8 365 l 13,26 66,59 50,26 41,12 44,-12 29,-16 34,-41 16,-82 V 18.9"
           style="stroke-width:0.1288in"
           transform="matrix(0.0141422,0,0,-0.0141422,3.79011,0)"
           id="path23365" />
        <path
           d="M 123,-195 V 482 381 l 53,54 63,34 54,10 h 66 l 51,-29 44,-63 22,-72 V 233 L 466,164 432,91.4 381,44.1 343,25.2 284,22.1 236,31.5 183,59.9 132,94.5"
           style="stroke-width:0.1288in"
           transform="matrix(0.0141422,0,0,-0.0141422,15.5988,0)"
           id="path23367" />
        <path
           d="M 88.2,265 H 435 v 56 l -16,73 -47,56 -48,32 -66,3 -66,-19 -57,-47 -22,-47 -24.8,-60 -6.3,-63 15.7,-76 28.4,-69 57,-56.8 53,-25.1 66,-6.3 57,15.7 54,28.4"
           style="stroke-width:0.1288in"
           transform="matrix(0.0141422,0,0,-0.0141422,23.6175,0)"
           id="path23369" />
        <path
           d="M 129,18.9 V 482 340 l 29,57 44,57 47,22 44,6 28,-3"
           style="stroke-width:0.1288in"
           transform="matrix(0.0141422,0,0,-0.0141422,30.7451,0)"
           id="path23371" />
        <path
           d="M 126,15.8 V 479 M 97.6,671 V 621 H 148 v 50 H 97.6"
           style="stroke-width:0.1288in"
           transform="matrix(0.0141422,0,0,-0.0141422,35.5535,0)"
           id="path23373" />
        <path
           d="m 117,428 66,38 56,16 57,6 44,-16 38,-34 25,-51 3,-69 V 107 22.1 L 403,107 362,78.8 318,47.2 268,25.2 211,15.8 164,31.5 126,56.7 97.6,97.6 V 158 l 22.4,47 50,41 50,19 60,19 57,9 35,3 h 28"
           style="stroke-width:0.1288in"
           transform="matrix(0.0141422,0,0,-0.0141422,39.1173,0)"
           id="path23375" />
        <path
           d="M 129,715 V 63 l 6,-22.1 10,-12.5 16,-9.5 h 22"
           style="stroke-width:0.1288in"
           transform="matrix(0.0141422,0,0,-0.0141422,46.4713,0)"
           id="path23377" />
        <path
           d="m 520,97.6 -66,-50.4 -89,-31.4 -88,12.6 -82,44 -63,75.6 -31,79 -9.6,119 9.6,111 41,91 63,69 72,35 82,6 73,-15 50,-32 16,-19"
           style="stroke-width:0.1288in"
           transform="matrix(0.0141422,0,0,-0.0141422,55.5647,0)"
           id="path23379" />
        <path
           d="m 287,18.9 h 3 l 63,15.7 60,41 37,63.4 16,69 3,66 -9,60 -22,53 -32,41 -44,38 -47,16 -44,3 -51,-9 -47,-29 -41,-47 -22,-44 -18.6,-66 v -51 l 6.2,-59 15.4,-54 38,-50.4 44,-34.7 48,-18.8 44,-3.2"
           style="stroke-width:0.1288in"
           transform="matrix(0.0141422,0,0,-0.0141422,63.8945,0)"
           id="path23381" />
        <path
           d="M 129,715 V 63 l 6,-22.1 10,-12.5 16,-9.5 h 22"
           style="stroke-width:0.1288in"
           transform="matrix(0.0141422,0,0,-0.0141422,71.8282,0)"
           id="path23383" />
        <path
           d="m 287,18.9 h 3 l 63,15.7 60,41 37,63.4 16,69 3,66 -9,60 -22,53 -32,41 -44,38 -47,16 -44,3 -51,-9 -47,-29 -41,-47 -22,-44 -18.6,-66 v -51 l 6.2,-59 15.4,-54 38,-50.4 44,-34.7 48,-18.8 44,-3.2"
           style="stroke-width:0.1288in"
           transform="matrix(0.0141422,0,0,-0.0141422,75.5759,0)"
           id="path23385" />
        <path
           d="M 129,18.9 V 482 340 l 29,57 44,57 47,22 44,6 28,-3"
           style="stroke-width:0.1288in"
           transform="matrix(0.0141422,0,0,-0.0141422,83.5097,0)"
           id="path23387" />
        <path
           d="m 520,97.6 -66,-50.4 -89,-31.4 -88,12.6 -82,44 -63,75.6 -31,79 -9.6,119 9.6,111 41,91 63,69 72,35 82,6 73,-15 50,-32 16,-19"
           style="stroke-width:0.1288in"
           transform="matrix(0.0141422,0,0,-0.0141422,93.6638,0)"
           id="path23389" />
        <path
           d="m 287,18.9 h 3 l 63,15.7 60,41 37,63.4 16,69 3,66 -9,60 -22,53 -32,41 -44,38 -47,16 -44,3 -51,-9 -47,-29 -41,-47 -22,-44 -18.6,-66 v -51 l 6.2,-59 15.4,-54 38,-50.4 44,-34.7 48,-18.8 44,-3.2"
           style="stroke-width:0.1288in"
           transform="matrix(0.0141422,0,0,-0.0141422,101.994,0)"
           id="path23391" />
        <path
           d="M 438,715 V 22.1 117 L 394,72.4 334,31.5 274,15.8 l -50,9.4 -51,22 -50,53.8 -31.6,72 -6.4,88 22,104 54,79 75,38 60,6 63,-22 41,-25 41,-38"
           style="stroke-width:0.1288in"
           transform="matrix(0.0141422,0,0,-0.0141422,109.927,0)"
           id="path23393" />
        <path
           d="M 88.2,265 H 435 v 56 l -16,73 -47,56 -48,32 -66,3 -66,-19 -57,-47 -22,-47 -24.8,-60 -6.3,-63 15.7,-76 28.4,-69 57,-56.8 53,-25.1 66,-6.3 57,15.7 54,28.4"
           style="stroke-width:0.1288in"
           transform="matrix(0.0141422,0,0,-0.0141422,117.946,0)"
           id="path23395" />
      </g>
    </g>
    <g
       inkscape:label="Hershey Text"
       style="fill:none;stroke:#000000;stroke-linecap:round;stroke-linejoin:round"
       id="g23489"
       transform="translate(-8.0947855,-0.3146948)">
      <g
         transform="translate(82.7031,36.0742)"
         id="g23409">
        <path
           d="m 88.2,576 50.8,38 66,29 h 53 l 57,-16 47,-38 22,-50 10,-60 -16,-54 -54,-41 -59,-31 -51,-10 h -38 48 l 50,-6 50,-19 54,-41 25,-38 10,-44 -3,-47 L 400,110 369,66.1 324,37.8 268,22.1 H 208 L 151,37.8 94.5,69.3 59.9,101"
           style="stroke-width:0.2279in"
           transform="scale(0.00799999,-0.00799999)"
           id="path23401" />
        <path
           d="M 44.1,-142 343,709"
           style="stroke-width:0.2279in"
           transform="matrix(0.00799999,0,0,-0.00799999,3.984,0)"
           id="path23403" />
        <path
           d="m 265,598 -104,-3 107,41 V 31.5 H 110 422"
           style="stroke-width:0.2279in"
           transform="matrix(0.00799999,0,0,-0.00799999,7.03199,0)"
           id="path23405" />
        <path
           d="m 85,265 47,50 57,44 57,19 h 63 l 47,-22 35,-32 25,-59 9,-70 -15,-72 -35,-60 -54,-37.8 -63,-9.4 -56,18.8 -51,37.8 -41,62.6 -18.6,89 -6.4,94 12.6,120 22.4,72 28,57 47,47 60,25 60,4 57,-19 41,-35"
           style="stroke-width:0.2279in"
           transform="matrix(0.00799999,0,0,-0.00799999,11.064,0)"
           id="path23407" />
      </g>
      <g
         transform="translate(82.7031,46.0742)"
         id="g23419">
        <path
           d="M 59.9,97.6 101,63 l 44,-25.2 50,-18.9 48,-3.1 72,18.8 50,41 41,59.4 16,70 -9,82 -35,63 -72,41 -73,6 -53,-13 -54,-28 -6,9 19,265 h 258"
           style="stroke-width:0.2279in"
           transform="scale(0.00799999,-0.00799999)"
           id="path23411" />
        <path
           d="M 44.1,-142 343,709"
           style="stroke-width:0.2279in"
           transform="matrix(0.00799999,0,0,-0.00799999,4.00799,0)"
           id="path23413" />
        <path
           d="m 88.2,576 50.8,38 66,29 h 53 l 57,-16 47,-38 22,-50 10,-60 -16,-54 -54,-41 -59,-31 -51,-10 h -38 48 l 50,-6 50,-19 54,-41 25,-38 10,-44 -3,-47 L 400,110 369,66.1 324,37.8 268,22.1 H 208 L 151,37.8 94.5,69.3 59.9,101"
           style="stroke-width:0.2279in"
           transform="matrix(0.00799999,0,0,-0.00799999,7.05599,0)"
           id="path23415" />
        <path
           d="m 75.6,558 41.4,40 50,32 63,16 54,-10 56,-28 35,-47 16,-70 -4,-59 L 356,359 299,277 230,192 167,126 110,63 81.9,31.5 H 438"
           style="stroke-width:0.2279in"
           transform="matrix(0.00799999,0,0,-0.00799999,11.04,0)"
           id="path23417" />
      </g>
      <g
         transform="translate(82.7031,56.0742)"
         id="g23429">
        <path
           d="m 88.2,75.6 34.8,-34.7 57,-18.8 59,-6.3 63,31.4 60,59.8 35,91 16,111 v 104 l -22,97 -38,76 -60,44 -69,13 -73,-26 -44,-44 -25.1,-56 -6.3,-57 3.2,-63 34.2,-66 63,-41 76,-10 82,35 50,47 32,41"
           style="stroke-width:0.2279in"
           transform="scale(0.00799999,-0.00799999)"
           id="path23421" />
        <path
           d="M 44.1,-142 343,709"
           style="stroke-width:0.2279in"
           transform="matrix(0.00799999,0,0,-0.00799999,4.00799,0)"
           id="path23423" />
        <path
           d="m 85,265 47,50 57,44 57,19 h 63 l 47,-22 35,-32 25,-59 9,-70 -15,-72 -35,-60 -54,-37.8 -63,-9.4 -56,18.8 -51,37.8 -41,62.6 -18.6,89 -6.4,94 12.6,120 22.4,72 28,57 47,47 60,25 60,4 57,-19 41,-35"
           style="stroke-width:0.2279in"
           transform="matrix(0.00799999,0,0,-0.00799999,7.05599,0)"
           id="path23425" />
        <path
           d="M 340,15.8 V 630 L 47.2,220 H 444"
           style="stroke-width:0.2279in"
           transform="matrix(0.00799999,0,0,-0.00799999,11.04,0)"
           id="path23427" />
      </g>
      <g
         transform="translate(82.7031,66.0742)"
         id="g23437">
        <path
           d="m 265,598 -104,-3 107,41 V 31.5 H 110 422"
           style="stroke-width:0.2279in"
           transform="scale(0.00799999,-0.00799999)"
           id="path23431" />
        <path
           d="M 44.1,-142 343,709"
           style="stroke-width:0.2279in"
           transform="matrix(0.00799999,0,0,-0.00799999,4.03199,0)"
           id="path23433" />
        <path
           d="m 296,321 63,51 38,56 9,54 -3,57 -41,66 -63,34 -50,4 -76,-22 -50,-51 -13,-57 16,-78 50,-48 89,-47 81,-44 54,-41 25,-57 -6,-69 -19,-50.2 -60,-47.3 -75,-15.7 -60,9.4 -63,28.4 -47.5,50.4 -15.7,54 6.2,78 50,70 41,28 54,25"
           style="stroke-width:0.2279in"
           transform="matrix(0.00799999,0,0,-0.00799999,7.07999,0)"
           id="path23435" />
      </g>
      <g
         transform="translate(82.7031,76.0742)"
         id="g23447">
        <path
           d="m 224,18.9 12,167.1 25,120 35,104 44,81 47,76 48,66 H 72.5"
           style="stroke-width:0.2279in"
           transform="scale(0.00799999,-0.00799999)"
           id="path23439" />
        <path
           d="M 44.1,-142 343,709"
           style="stroke-width:0.2279in"
           transform="matrix(0.00799999,0,0,-0.00799999,4.03199,0)"
           id="path23441" />
        <path
           d="m 85,265 47,50 57,44 57,19 h 63 l 47,-22 35,-32 25,-59 9,-70 -15,-72 -35,-60 -54,-37.8 -63,-9.4 -56,18.8 -51,37.8 -41,62.6 -18.6,89 -6.4,94 12.6,120 22.4,72 28,57 47,47 60,25 60,4 57,-19 41,-35"
           style="stroke-width:0.2279in"
           transform="matrix(0.00799999,0,0,-0.00799999,7.07999,0)"
           id="path23443" />
        <path
           d="M 340,15.8 V 630 L 47.2,220 H 444"
           style="stroke-width:0.2279in"
           transform="matrix(0.00799999,0,0,-0.00799999,11.064,0)"
           id="path23445" />
      </g>
      <g
         transform="translate(82.7031,86.0742)"
         id="g23457">
        <path
           d="m 88.2,576 50.8,38 66,29 h 53 l 57,-16 47,-38 22,-50 10,-60 -16,-54 -54,-41 -59,-31 -51,-10 h -38 48 l 50,-6 50,-19 54,-41 25,-38 10,-44 -3,-47 L 400,110 369,66.1 324,37.8 268,22.1 H 208 L 151,37.8 94.5,69.3 59.9,101"
           style="stroke-width:0.2279in"
           transform="scale(0.00799999,-0.00799999)"
           id="path23449" />
        <path
           d="M 44.1,-142 343,709"
           style="stroke-width:0.2279in"
           transform="matrix(0.00799999,0,0,-0.00799999,3.984,0)"
           id="path23451" />
        <path
           d="m 88.2,576 50.8,38 66,29 h 53 l 57,-16 47,-38 22,-50 10,-60 -16,-54 -54,-41 -59,-31 -51,-10 h -38 48 l 50,-6 50,-19 54,-41 25,-38 10,-44 -3,-47 L 400,110 369,66.1 324,37.8 268,22.1 H 208 L 151,37.8 94.5,69.3 59.9,101"
           style="stroke-width:0.2279in"
           transform="matrix(0.00799999,0,0,-0.00799999,7.03199,0)"
           id="path23453" />
        <path
           d="m 75.6,558 41.4,40 50,32 63,16 54,-10 56,-28 35,-47 16,-70 -4,-59 L 356,359 299,277 230,192 167,126 110,63 81.9,31.5 H 438"
           style="stroke-width:0.2279in"
           transform="matrix(0.00799999,0,0,-0.00799999,11.016,0)"
           id="path23455" />
      </g>
      <g
         transform="translate(82.7031,96.0741)"
         id="g23467">
        <path
           d="M 59.9,97.6 101,63 l 44,-25.2 50,-18.9 48,-3.1 72,18.8 50,41 41,59.4 16,70 -9,82 -35,63 -72,41 -73,6 -53,-13 -54,-28 -6,9 19,265 h 258"
           style="stroke-width:0.2279in"
           transform="scale(0.00799999,-0.00799999)"
           id="path23459" />
        <path
           d="M 44.1,-142 343,709"
           style="stroke-width:0.2279in"
           transform="matrix(0.00799999,0,0,-0.00799999,4.00799,0)"
           id="path23461" />
        <path
           d="m 85,265 47,50 57,44 57,19 h 63 l 47,-22 35,-32 25,-59 9,-70 -15,-72 -35,-60 -54,-37.8 -63,-9.4 -56,18.8 -51,37.8 -41,62.6 -18.6,89 -6.4,94 12.6,120 22.4,72 28,57 47,47 60,25 60,4 57,-19 41,-35"
           style="stroke-width:0.2279in"
           transform="matrix(0.00799999,0,0,-0.00799999,7.05599,0)"
           id="path23463" />
        <path
           d="M 340,15.8 V 630 L 47.2,220 H 444"
           style="stroke-width:0.2279in"
           transform="matrix(0.00799999,0,0,-0.00799999,11.04,0)"
           id="path23465" />
      </g>
      <g
         transform="translate(82.7031,106.074)"
         id="g23477">
        <path
           d="m 265,598 -104,-3 107,41 V 31.5 H 110 422"
           style="stroke-width:0.2279in"
           transform="scale(0.00799999,-0.00799999)"
           id="path23469" />
        <path
           d="M 44.1,-142 343,709"
           style="stroke-width:0.2279in"
           transform="matrix(0.00799999,0,0,-0.00799999,4.03199,0)"
           id="path23471" />
        <path
           d="m 265,598 -104,-3 107,41 V 31.5 H 110 422"
           style="stroke-width:0.2279in"
           transform="matrix(0.00799999,0,0,-0.00799999,7.07999,0)"
           id="path23473" />
        <path
           d="m 85,265 47,50 57,44 57,19 h 63 l 47,-22 35,-32 25,-59 9,-70 -15,-72 -35,-60 -54,-37.8 -63,-9.4 -56,18.8 -51,37.8 -41,62.6 -18.6,89 -6.4,94 12.6,120 22.4,72 28,57 47,47 60,25 60,4 57,-19 41,-35"
           style="stroke-width:0.2279in"
           transform="matrix(0.00799999,0,0,-0.00799999,11.112,0)"
           id="path23475" />
      </g>
      <g
         transform="translate(82.7031,116.074)"
         id="g23487">
        <path
           d="m 246,18.9 60,12.6 63,63 28,66.5 13,75 6,104 -6,98 -23,94 -31,60 -50,38 -45,16 -37,-3 L 164,608 123,551 94.5,460 85,365 81.9,271 94.5,183 126,94.5 164,53.6 202,22.1 246,18.9"
           style="stroke-width:0.2279in"
           transform="scale(0.00799999,-0.00799999)"
           id="path23479" />
        <path
           d="M 97.6,72.4 V 22.1 H 148 V 72.4 H 97.6"
           style="stroke-width:0.2279in"
           transform="matrix(0.00799999,0,0,-0.00799999,4.00799,0)"
           id="path23481" />
        <path
           d="m 246,18.9 60,12.6 63,63 28,66.5 13,75 6,104 -6,98 -23,94 -31,60 -50,38 -45,16 -37,-3 L 164,608 123,551 94.5,460 85,365 81.9,271 94.5,183 126,94.5 164,53.6 202,22.1 246,18.9"
           style="stroke-width:0.2279in"
           transform="matrix(0.00799999,0,0,-0.00799999,5.99999,0)"
           id="path23483" />
        <path
           d="M 59.9,97.6 101,63 l 44,-25.2 50,-18.9 48,-3.1 72,18.8 50,41 41,59.4 16,70 -9,82 -35,63 -72,41 -73,6 -53,-13 -54,-28 -6,9 19,265 h 258"
           style="stroke-width:0.2279in"
           transform="matrix(0.00799999,0,0,-0.00799999,10.008,0)"
           id="path23485" />
      </g>
    </g>
    <g
       inkscape:label="Hershey Text"
       style="fill:none;stroke:#000000;stroke-linecap:round;stroke-linejoin:round"
       id="g23591"
       transform="translate(-10.568758,-0.21669476)">
      <g
         transform="translate(108.397,35.9766)"
         id="g23503">
        <path
           d="M 44.1,655 236,274 V 22.1 277 l 189,375"
           style="stroke-width:0.2279in"
           transform="scale(0.00799999,-0.00799999)"
           id="path23491" />
        <path
           d="M 88.2,265 H 435 v 56 l -16,73 -47,56 -48,32 -66,3 -66,-19 -57,-47 -22,-47 -24.8,-60 -6.3,-63 15.7,-76 28.4,-69 57,-56.8 53,-25.1 66,-6.3 57,15.7 54,28.4"
           style="stroke-width:0.2279in"
           transform="matrix(0.00799999,0,0,-0.00799999,3.776,0)"
           id="path23493" />
        <path
           d="M 129,715 V 63 l 6,-22.1 10,-12.5 16,-9.5 h 22"
           style="stroke-width:0.2279in"
           transform="matrix(0.00799999,0,0,-0.00799999,7.80799,0)"
           id="path23495" />
        <path
           d="M 129,715 V 63 l 6,-22.1 10,-12.5 16,-9.5 h 22"
           style="stroke-width:0.2279in"
           transform="matrix(0.00799999,0,0,-0.00799999,9.92799,0)"
           id="path23497" />
        <path
           d="m 287,18.9 h 3 l 63,15.7 60,41 37,63.4 16,69 3,66 -9,60 -22,53 -32,41 -44,38 -47,16 -44,3 -51,-9 -47,-29 -41,-47 -22,-44 -18.6,-66 v -51 l 6.2,-59 15.4,-54 38,-50.4 44,-34.7 48,-18.8 44,-3.2"
           style="stroke-width:0.2279in"
           transform="matrix(0.00799999,0,0,-0.00799999,12.048,0)"
           id="path23499" />
        <path
           d="M 59.9,482 198,9.45 h 13 L 343,482 h 19 L 495,9.45 h 12 L 643,482"
           style="stroke-width:0.2279in"
           transform="matrix(0.00799999,0,0,-0.00799999,16.536,0)"
           id="path23501" />
      </g>
      <g
         transform="translate(108.397,45.9765)"
         id="g23511">
        <path
           d="M 129,18.9 V 649 h 211 l 51,-16 56,-28 41,-63 v -54 l -9,-60 -38,-53 -47,-29 -76,-18 H 132 312 L 495,18.9"
           style="stroke-width:0.2279in"
           transform="scale(0.00799999,-0.00799999)"
           id="path23505" />
        <path
           d="M 88.2,265 H 435 v 56 l -16,73 -47,56 -48,32 -66,3 -66,-19 -57,-47 -22,-47 -24.8,-60 -6.3,-63 15.7,-76 28.4,-69 57,-56.8 53,-25.1 66,-6.3 57,15.7 54,28.4"
           style="stroke-width:0.2279in"
           transform="matrix(0.00799999,0,0,-0.00799999,4.63999,0)"
           id="path23507" />
        <path
           d="M 438,715 V 22.1 117 L 394,72.4 334,31.5 274,15.8 l -50,9.4 -51,22 -50,53.8 -31.6,72 -6.4,88 22,104 54,79 75,38 60,6 63,-22 41,-25 41,-38"
           style="stroke-width:0.2279in"
           transform="matrix(0.00799999,0,0,-0.00799999,8.67199,0)"
           id="path23509" />
      </g>
      <g
         transform="translate(108.397,55.9765)"
         id="g23523">
        <path
           d="M 129,28.4 V 646 h 183 l 53,-3 54,-22 44,-41 13,-48 V 476 L 454,425 406,391 365,372 309,362 H 135 312 l 53,-9 63,-16 51,-35 28,-31 10,-44 V 164 L 491,104 447,66.1 369,34.6 312,28.4 H 135"
           style="stroke-width:0.2279in"
           transform="scale(0.00799999,-0.00799999)"
           id="path23513" />
        <path
           d="M 129,18.9 V 482 340 l 29,57 44,57 47,22 44,6 28,-3"
           style="stroke-width:0.2279in"
           transform="matrix(0.00799999,0,0,-0.00799999,4.81599,0)"
           id="path23515" />
        <path
           d="m 287,18.9 h 3 l 63,15.7 60,41 37,63.4 16,69 3,66 -9,60 -22,53 -32,41 -44,38 -47,16 -44,3 -51,-9 -47,-29 -41,-47 -22,-44 -18.6,-66 v -51 l 6.2,-59 15.4,-54 38,-50.4 44,-34.7 48,-18.8 44,-3.2"
           style="stroke-width:0.2279in"
           transform="matrix(0.00799999,0,0,-0.00799999,7.53599,0)"
           id="path23517" />
        <path
           d="M 59.9,482 198,9.45 h 13 L 343,482 h 19 L 495,9.45 h 12 L 643,482"
           style="stroke-width:0.2279in"
           transform="matrix(0.00799999,0,0,-0.00799999,12.024,0)"
           id="path23519" />
        <path
           d="M 126,15.8 V 482 369 l 44,44 41,37 32,19 47,13 31,3 48,-13 28,-18 22,-32 19,-44 V 15.8"
           style="stroke-width:0.2279in"
           transform="matrix(0.00799999,0,0,-0.00799999,17.64,0)"
           id="path23521" />
      </g>
      <g
         transform="translate(108.397,65.9765)"
         id="g23531">
        <path
           d="M 274,22.1 V 649 H 56.7 495"
           style="stroke-width:0.2279in"
           transform="scale(0.00799999,-0.00799999)"
           id="path23525" />
        <path
           d="m 117,428 66,38 56,16 57,6 44,-16 38,-34 25,-51 3,-69 V 107 22.1 L 403,107 362,78.8 318,47.2 268,25.2 211,15.8 164,31.5 126,56.7 97.6,97.6 V 158 l 22.4,47 50,41 50,19 60,19 57,9 35,3 h 28"
           style="stroke-width:0.2279in"
           transform="matrix(0.00799999,0,0,-0.00799999,4.38399,0)"
           id="path23527" />
        <path
           d="M 126,15.8 V 482 369 l 44,44 41,37 32,19 47,13 31,3 48,-13 28,-18 22,-32 19,-44 V 15.8"
           style="stroke-width:0.2279in"
           transform="matrix(0.00799999,0,0,-0.00799999,8.54399,0)"
           id="path23529" />
      </g>
      <g
         transform="translate(108.397,75.9765)"
         id="g23545">
        <path
           d="M 135,15.8 V 649 h 224 l 57,-16 41,-31 31,-41 13,-63 -3,-57 -26,-63 -47,-38 -66,-25 -75,-3 H 132"
           style="stroke-width:0.2279in"
           transform="scale(0.00799999,-0.00799999)"
           id="path23533" />
        <path
           d="M 425,476 V 18.9 139 L 391,97.6 350,56.7 293,25.2 239,15.8 183,31.5 145,63 l -22,41 -3,79 v 293"
           style="stroke-width:0.2279in"
           transform="matrix(0.00799999,0,0,-0.00799999,4.63999,0)"
           id="path23535" />
        <path
           d="M 129,18.9 V 482 340 l 29,57 44,57 47,22 44,6 28,-3"
           style="stroke-width:0.2279in"
           transform="matrix(0.00799999,0,0,-0.00799999,9.07199,0)"
           id="path23537" />
        <path
           d="M 123,-195 V 482 381 l 53,54 63,34 54,10 h 66 l 51,-29 44,-63 22,-72 V 233 L 466,164 432,91.4 381,44.1 343,25.2 284,22.1 236,31.5 183,59.9 132,94.5"
           style="stroke-width:0.2279in"
           transform="matrix(0.00799999,0,0,-0.00799999,11.792,0)"
           id="path23539" />
        <path
           d="M 129,715 V 63 l 6,-22.1 10,-12.5 16,-9.5 h 22"
           style="stroke-width:0.2279in"
           transform="matrix(0.00799999,0,0,-0.00799999,16.328,0)"
           id="path23541" />
        <path
           d="M 88.2,265 H 435 v 56 l -16,73 -47,56 -48,32 -66,3 -66,-19 -57,-47 -22,-47 -24.8,-60 -6.3,-63 15.7,-76 28.4,-69 57,-56.8 53,-25.1 66,-6.3 57,15.7 54,28.4"
           style="stroke-width:0.2279in"
           transform="matrix(0.00799999,0,0,-0.00799999,18.448,0)"
           id="path23543" />
      </g>
      <g
         transform="translate(108.397,85.9765)"
         id="g23555">
        <path
           d="M 274,22.1 V 649 H 56.7 495"
           style="stroke-width:0.2279in"
           transform="scale(0.00799999,-0.00799999)"
           id="path23547" />
        <path
           d="M 88.2,265 H 435 v 56 l -16,73 -47,56 -48,32 -66,3 -66,-19 -57,-47 -22,-47 -24.8,-60 -6.3,-63 15.7,-76 28.4,-69 57,-56.8 53,-25.1 66,-6.3 57,15.7 54,28.4"
           style="stroke-width:0.2279in"
           transform="matrix(0.00799999,0,0,-0.00799999,4.38399,0)"
           id="path23549" />
        <path
           d="m 117,428 66,38 56,16 57,6 44,-16 38,-34 25,-51 3,-69 V 107 22.1 L 403,107 362,78.8 318,47.2 268,25.2 211,15.8 164,31.5 126,56.7 97.6,97.6 V 158 l 22.4,47 50,41 50,19 60,19 57,9 35,3 h 28"
           style="stroke-width:0.2279in"
           transform="matrix(0.00799999,0,0,-0.00799999,8.41599,0)"
           id="path23551" />
        <path
           d="M 129,715 V 63 l 6,-22.1 10,-12.5 16,-9.5 h 22"
           style="stroke-width:0.2279in"
           transform="matrix(0.00799999,0,0,-0.00799999,12.576,0)"
           id="path23553" />
      </g>
      <g
         transform="translate(108.397,95.9765)"
         id="g23567">
        <path
           d="M 346,315 H 520 V 81.9 L 479,53.6 391,22.1 328,18.9 265,31.5 208,63 l -66,76 -44.4,94 -9.4,110 12.8,107 41,95 66,72 66,32 76,13 82,-13 50,-28 35,-29"
           style="stroke-width:0.2279in"
           transform="scale(0.00799999,-0.00799999)"
           id="path23557" />
        <path
           d="M 129,18.9 V 482 340 l 29,57 44,57 47,22 44,6 28,-3"
           style="stroke-width:0.2279in"
           transform="matrix(0.00799999,0,0,-0.00799999,4.99199,0)"
           id="path23559" />
        <path
           d="M 88.2,265 H 435 v 56 l -16,73 -47,56 -48,32 -66,3 -66,-19 -57,-47 -22,-47 -24.8,-60 -6.3,-63 15.7,-76 28.4,-69 57,-56.8 53,-25.1 66,-6.3 57,15.7 54,28.4"
           style="stroke-width:0.2279in"
           transform="matrix(0.00799999,0,0,-0.00799999,7.71199,0)"
           id="path23561" />
        <path
           d="M 88.2,265 H 435 v 56 l -16,73 -47,56 -48,32 -66,3 -66,-19 -57,-47 -22,-47 -24.8,-60 -6.3,-63 15.7,-76 28.4,-69 57,-56.8 53,-25.1 66,-6.3 57,15.7 54,28.4"
           style="stroke-width:0.2279in"
           transform="matrix(0.00799999,0,0,-0.00799999,11.744,0)"
           id="path23563" />
        <path
           d="M 126,15.8 V 482 369 l 44,44 41,37 32,19 47,13 31,3 48,-13 28,-18 22,-32 19,-44 V 15.8"
           style="stroke-width:0.2279in"
           transform="matrix(0.00799999,0,0,-0.00799999,15.776,0)"
           id="path23565" />
      </g>
      <g
         transform="translate(108.397,105.976)"
         id="g23581">
        <path
           d="M 44.1,655 236,274 V 22.1 277 l 189,375"
           style="stroke-width:0.2279in"
           transform="scale(0.00799999,-0.00799999)"
           id="path23569" />
        <path
           d="M 88.2,265 H 435 v 56 l -16,73 -47,56 -48,32 -66,3 -66,-19 -57,-47 -22,-47 -24.8,-60 -6.3,-63 15.7,-76 28.4,-69 57,-56.8 53,-25.1 66,-6.3 57,15.7 54,28.4"
           style="stroke-width:0.2279in"
           transform="matrix(0.00799999,0,0,-0.00799999,3.776,0)"
           id="path23571" />
        <path
           d="M 129,715 V 63 l 6,-22.1 10,-12.5 16,-9.5 h 22"
           style="stroke-width:0.2279in"
           transform="matrix(0.00799999,0,0,-0.00799999,7.80799,0)"
           id="path23573" />
        <path
           d="M 129,715 V 63 l 6,-22.1 10,-12.5 16,-9.5 h 22"
           style="stroke-width:0.2279in"
           transform="matrix(0.00799999,0,0,-0.00799999,9.92799,0)"
           id="path23575" />
        <path
           d="m 287,18.9 h 3 l 63,15.7 60,41 37,63.4 16,69 3,66 -9,60 -22,53 -32,41 -44,38 -47,16 -44,3 -51,-9 -47,-29 -41,-47 -22,-44 -18.6,-66 v -51 l 6.2,-59 15.4,-54 38,-50.4 44,-34.7 48,-18.8 44,-3.2"
           style="stroke-width:0.2279in"
           transform="matrix(0.00799999,0,0,-0.00799999,12.048,0)"
           id="path23577" />
        <path
           d="M 59.9,482 198,9.45 h 13 L 343,482 h 19 L 495,9.45 h 12 L 643,482"
           style="stroke-width:0.2279in"
           transform="matrix(0.00799999,0,0,-0.00799999,16.536,0)"
           id="path23579" />
      </g>
      <g
         transform="translate(108.397,115.976)"
         id="g23589">
        <path
           d="M 129,18.9 V 649 h 211 l 51,-16 56,-28 41,-63 v -54 l -9,-60 -38,-53 -47,-29 -76,-18 H 132 312 L 495,18.9"
           style="stroke-width:0.2279in"
           transform="scale(0.00799999,-0.00799999)"
           id="path23583" />
        <path
           d="M 88.2,265 H 435 v 56 l -16,73 -47,56 -48,32 -66,3 -66,-19 -57,-47 -22,-47 -24.8,-60 -6.3,-63 15.7,-76 28.4,-69 57,-56.8 53,-25.1 66,-6.3 57,15.7 54,28.4"
           style="stroke-width:0.2279in"
           transform="matrix(0.00799999,0,0,-0.00799999,4.63999,0)"
           id="path23585" />
        <path
           d="M 438,715 V 22.1 117 L 394,72.4 334,31.5 274,15.8 l -50,9.4 -51,22 -50,53.8 -31.6,72 -6.4,88 22,104 54,79 75,38 60,6 63,-22 41,-25 41,-38"
           style="stroke-width:0.2279in"
           transform="matrix(0.00799999,0,0,-0.00799999,8.67199,0)"
           id="path23587" />
      </g>
    </g>
  </g>
</svg>
