<?xml version="1.0" encoding="UTF-8" standalone="no"?>
<!-- Created with Inkscape (http://www.inkscape.org/) -->

<svg
   sodipodi:docname="metric color code.svg"
   id="svg5"
   version="1.1"
   viewBox="0 0 140 180"
   height="180mm"
   width="140mm"
   inkscape:version="1.2.2 (732a01da63, 2022-12-09)"
   xmlns:inkscape="http://www.inkscape.org/namespaces/inkscape"
   xmlns:sodipodi="http://sodipodi.sourceforge.net/DTD/sodipodi-0.dtd"
   xmlns="http://www.w3.org/2000/svg"
   xmlns:svg="http://www.w3.org/2000/svg">
  <sodipodi:namedview
     id="namedview7"
     pagecolor="#ffffff"
     bordercolor="#000000"
     borderopacity="0.25"
     inkscape:showpageshadow="2"
     inkscape:pageopacity="0.0"
     inkscape:pagecheckerboard="0"
     inkscape:deskcolor="#d1d1d1"
     inkscape:document-units="mm"
     showgrid="false"
     showguides="true"
     inkscape:zoom="1.4770342"
     inkscape:cx="224.09772"
     inkscape:cy="433.97776"
     inkscape:window-width="1920"
     inkscape:window-height="1009"
     inkscape:window-x="-8"
     inkscape:window-y="-8"
     inkscape:window-maximized="1"
     inkscape:current-layer="layer1">
    <sodipodi:guide
       position="70.000002,68.000002"
       orientation="0,1"
       id="guide4582"
       inkscape:locked="false"
       inkscape:label=""
       inkscape:color="rgb(0,134,229)" />
    <sodipodi:guide
       position="70.000002,68.000002"
       orientation="-1,0"
       id="guide5310"
       inkscape:locked="false"
       inkscape:label=""
       inkscape:color="rgb(0,134,229)" />
    <sodipodi:guide
       position="0,170.00001"
       orientation="0,1"
       id="guide9003"
       inkscape:locked="false"
       inkscape:label=""
       inkscape:color="rgb(0,134,229)" />
    <sodipodi:guide
       position="130.00001,180.00001"
       orientation="-1,0"
       id="guide9005"
       inkscape:locked="false"
       inkscape:label=""
       inkscape:color="rgb(0,134,229)" />
    <sodipodi:guide
       position="140.00001,-34.000002"
       orientation="0,1"
       id="guide9007"
       inkscape:locked="false"
       inkscape:label=""
       inkscape:color="rgb(0,134,229)" />
    <sodipodi:guide
       position="9.9999999,-44.000002"
       orientation="-1,0"
       id="guide9009"
       inkscape:locked="false"
       inkscape:label=""
       inkscape:color="rgb(0,134,229)" />
    <sodipodi:guide
       position="15.000001,158.59365"
       orientation="-1,0"
       id="guide13532"
       inkscape:locked="false"
       inkscape:label=""
       inkscape:color="rgb(0,134,229)" />
    <sodipodi:guide
       position="120.00001,134.50061"
       orientation="-1,0"
       id="guide13534"
       inkscape:locked="false"
       inkscape:label=""
       inkscape:color="rgb(0,134,229)" />
    <sodipodi:guide
       position="-11.106152,155"
       orientation="0,1"
       id="guide13536"
       inkscape:locked="false"
       inkscape:label=""
       inkscape:color="rgb(0,134,229)" />
    <sodipodi:guide
       position="60.000002,110.13872"
       orientation="-1,0"
       id="guide13538"
       inkscape:locked="false"
       inkscape:label=""
       inkscape:color="rgb(0,134,229)" />
    <sodipodi:guide
       position="75.000002,134.14235"
       orientation="-1,0"
       id="guide13540"
       inkscape:locked="false"
       inkscape:label=""
       inkscape:color="rgb(0,134,229)" />
  </sodipodi:namedview>
  <defs
     id="defs2" />
  <g
     inkscape:label="Layer 1"
     inkscape:groupmode="layer"
     id="layer1">
    <text
       xml:space="preserve"
       style="font-style:normal;font-variant:normal;font-weight:normal;font-stretch:normal;font-size:13px;font-family:Arial;-inkscape-font-specification:'Arial, Normal';font-variant-ligatures:normal;font-variant-caps:normal;font-variant-numeric:normal;font-variant-east-asian:normal;text-align:center;writing-mode:tb-rl;direction:rtl;text-anchor:middle;fill:none;stroke:#00ff00;stroke-width:0.499999;stroke-linecap:round;stroke-miterlimit:3.8"
       x="60.54644"
       y="39.050663"
       id="text13474"><tspan
         sodipodi:role="line"
         id="tspan13472"
         style="stroke-width:0.5"
         x="60.54644"
         y="39.050663" /></text>
    <text
       xml:space="preserve"
       style="font-style:normal;font-variant:normal;font-weight:normal;font-stretch:normal;font-size:7.99999px;font-family:Arial;-inkscape-font-specification:'Arial, Normal';font-variant-ligatures:normal;font-variant-caps:normal;font-variant-numeric:normal;font-variant-east-asian:normal;text-align:center;writing-mode:lr-tb;direction:rtl;text-orientation:sideways;text-anchor:middle;fill:none;stroke:#00ff00;stroke-width:0.499999;stroke-linecap:round;stroke-miterlimit:3.8"
       x="161.21834"
       y="135.4234"
       id="text13630"><tspan
         sodipodi:role="line"
         id="tspan13628"
         style="stroke-width:0.5"
         x="161.21834"
         y="135.4234" /></text>
    <g
       inkscape:label="Hershey Text"
       style="fill:none;stroke:#000000;stroke-linecap:round;stroke-linejoin:round"
       transform="scale(0.971584,1.02925)"
       id="g23399">
      <g
         transform="translate(8.65211,20.7981)"
         id="g23397" />
    </g>
    <g
       inkscape:label="Hershey Text"
       style="fill:none;stroke:#000000;stroke-linecap:round;stroke-linejoin:round"
       transform="matrix(1.0262723,0,0,1.0125716,-60.72298,-1.1493281)"
       id="g29830">
      <g
         transform="translate(71.917,20.4871)"
         id="g29828">
        <path
           d="M 129,15.8 V 655 h 32 L 365,97.6 570,652 h 22 V 18.9"
           style="stroke-width:0.1258in"
           transform="scale(0.0144886,-0.0144886)"
           id="path29798" />
        <path
           d="M 88.2,265 H 435 v 56 l -16,73 -47,56 -48,32 -66,3 -66,-19 -57,-47 -22,-47 -24.8,-60 -6.3,-63 15.7,-76 28.4,-69 57,-56.8 53,-25.1 66,-6.3 57,15.7 54,28.4"
           style="stroke-width:0.1258in"
           transform="matrix(0.0144886,0,0,-0.0144886,10.5912,0)"
           id="path29800" />
        <path
           d="M 299,37.8 265,22.1 h -45 l -40,12.5 -35,41 -6,69.4 V 469 H 47.2 290 139 v 142"
           style="stroke-width:0.1258in"
           transform="matrix(0.0144886,0,0,-0.0144886,17.8934,0)"
           id="path29802" />
        <path
           d="M 129,18.9 V 482 340 l 29,57 44,57 47,22 44,6 28,-3"
           style="stroke-width:0.1258in"
           transform="matrix(0.0144886,0,0,-0.0144886,22.7326,0)"
           id="path29804" />
        <path
           d="M 126,15.8 V 479 M 97.6,671 V 621 H 148 v 50 H 97.6"
           style="stroke-width:0.1258in"
           transform="matrix(0.0144886,0,0,-0.0144886,27.6587,0)"
           id="path29806" />
        <path
           d="M 413,72.4 362,34.6 287,18.9 217,28.4 145,75.6 104,142 88.2,220 v 82 l 24.8,76 51,60 60,34 66,10 56,-10 38,-18 16,-19"
           style="stroke-width:0.1258in"
           transform="matrix(0.0144886,0,0,-0.0144886,31.3099,0)"
           id="path29808" />
        <path
           d="m 520,97.6 -66,-50.4 -89,-31.4 -88,12.6 -82,44 -63,75.6 -31,79 -9.6,119 9.6,111 41,91 63,69 72,35 82,6 73,-15 50,-32 16,-19"
           style="stroke-width:0.1258in"
           transform="matrix(0.0144886,0,0,-0.0144886,43.6252,0)"
           id="path29810" />
        <path
           d="m 287,18.9 h 3 l 63,15.7 60,41 37,63.4 16,69 3,66 -9,60 -22,53 -32,41 -44,38 -47,16 -44,3 -51,-9 -47,-29 -41,-47 -22,-44 -18.6,-66 v -51 l 6.2,-59 15.4,-54 38,-50.4 44,-34.7 48,-18.8 44,-3.2"
           style="stroke-width:0.1258in"
           transform="matrix(0.0144886,0,0,-0.0144886,52.159,0)"
           id="path29812" />
        <path
           d="M 129,715 V 63 l 6,-22.1 10,-12.5 16,-9.5 h 22"
           style="stroke-width:0.1258in"
           transform="matrix(0.0144886,0,0,-0.0144886,60.2871,0)"
           id="path29814" />
        <path
           d="m 287,18.9 h 3 l 63,15.7 60,41 37,63.4 16,69 3,66 -9,60 -22,53 -32,41 -44,38 -47,16 -44,3 -51,-9 -47,-29 -41,-47 -22,-44 -18.6,-66 v -51 l 6.2,-59 15.4,-54 38,-50.4 44,-34.7 48,-18.8 44,-3.2"
           style="stroke-width:0.1258in"
           transform="matrix(0.0144886,0,0,-0.0144886,64.1265,0)"
           id="path29816" />
        <path
           d="M 129,18.9 V 482 340 l 29,57 44,57 47,22 44,6 28,-3"
           style="stroke-width:0.1258in"
           transform="matrix(0.0144886,0,0,-0.0144886,72.2546,0)"
           id="path29818" />
        <path
           d="m 520,97.6 -66,-50.4 -89,-31.4 -88,12.6 -82,44 -63,75.6 -31,79 -9.6,119 9.6,111 41,91 63,69 72,35 82,6 73,-15 50,-32 16,-19"
           style="stroke-width:0.1258in"
           transform="matrix(0.0144886,0,0,-0.0144886,82.6575,0)"
           id="path29820" />
        <path
           d="m 287,18.9 h 3 l 63,15.7 60,41 37,63.4 16,69 3,66 -9,60 -22,53 -32,41 -44,38 -47,16 -44,3 -51,-9 -47,-29 -41,-47 -22,-44 -18.6,-66 v -51 l 6.2,-59 15.4,-54 38,-50.4 44,-34.7 48,-18.8 44,-3.2"
           style="stroke-width:0.1258in"
           transform="matrix(0.0144886,0,0,-0.0144886,91.1912,0)"
           id="path29822" />
        <path
           d="M 438,715 V 22.1 117 L 394,72.4 334,31.5 274,15.8 l -50,9.4 -51,22 -50,53.8 -31.6,72 -6.4,88 22,104 54,79 75,38 60,6 63,-22 41,-25 41,-38"
           style="stroke-width:0.1258in"
           transform="matrix(0.0144886,0,0,-0.0144886,99.3194,0)"
           id="path29824" />
        <path
           d="M 88.2,265 H 435 v 56 l -16,73 -47,56 -48,32 -66,3 -66,-19 -57,-47 -22,-47 -24.8,-60 -6.3,-63 15.7,-76 28.4,-69 57,-56.8 53,-25.1 66,-6.3 57,15.7 54,28.4"
           style="stroke-width:0.1258in"
           transform="matrix(0.0144886,0,0,-0.0144886,107.534,0)"
           id="path29826" />
      </g>
    </g>
    <g
       inkscape:label="Hershey Text"
       style="fill:none;stroke:#000000;stroke-linecap:round;stroke-linejoin:round"
       id="g29954"
       transform="translate(-2.3785049,-5.6087022)">
      <g
         transform="translate(16.563,35.2812)"
         id="g29838">
        <path
           d="M 129,15.8 V 655 h 32 L 365,97.6 570,652 h 22 V 18.9"
           style="stroke-width:0.2604in"
           transform="scale(0.007,-0.007)"
           id="path29832" />
        <path
           d="m 75.6,558 41.4,40 50,32 63,16 54,-10 56,-28 35,-47 16,-70 -4,-59 L 356,359 299,277 230,192 167,126 110,63 81.9,31.5 H 438"
           style="stroke-width:0.2604in"
           transform="matrix(0.007,0,0,-0.007,5.117,0)"
           id="path29834" />
        <path
           d="m 75.6,558 41.4,40 50,32 63,16 54,-10 56,-28 35,-47 16,-70 -4,-59 L 356,359 299,277 230,192 167,126 110,63 81.9,31.5 H 438"
           style="stroke-width:0.2604in"
           transform="matrix(0.007,0,0,-0.007,8.645,0)"
           id="path29836" />
      </g>
      <g
         transform="translate(16.563,44.0312)"
         id="g29846">
        <path
           d="M 129,15.8 V 655 h 32 L 365,97.6 570,652 h 22 V 18.9"
           style="stroke-width:0.2604in"
           transform="scale(0.007,-0.007)"
           id="path29840" />
        <path
           d="m 75.6,558 41.4,40 50,32 63,16 54,-10 56,-28 35,-47 16,-70 -4,-59 L 356,359 299,277 230,192 167,126 110,63 81.9,31.5 H 438"
           style="stroke-width:0.2604in"
           transform="matrix(0.007,0,0,-0.007,5.117,0)"
           id="path29842" />
        <path
           d="m 265,598 -104,-3 107,41 V 31.5 H 110 422"
           style="stroke-width:0.2604in"
           transform="matrix(0.007,0,0,-0.007,8.645,0)"
           id="path29844" />
      </g>
      <g
         transform="translate(16.563,52.7812)"
         id="g29854">
        <path
           d="M 129,15.8 V 655 h 32 L 365,97.6 570,652 h 22 V 18.9"
           style="stroke-width:0.2604in"
           transform="scale(0.007,-0.007)"
           id="path29848" />
        <path
           d="m 75.6,558 41.4,40 50,32 63,16 54,-10 56,-28 35,-47 16,-70 -4,-59 L 356,359 299,277 230,192 167,126 110,63 81.9,31.5 H 438"
           style="stroke-width:0.2604in"
           transform="matrix(0.007,0,0,-0.007,5.117,0)"
           id="path29850" />
        <path
           d="m 246,18.9 60,12.6 63,63 28,66.5 13,75 6,104 -6,98 -23,94 -31,60 -50,38 -45,16 -37,-3 L 164,608 123,551 94.5,460 85,365 81.9,271 94.5,183 126,94.5 164,53.6 202,22.1 246,18.9"
           style="stroke-width:0.2604in"
           transform="matrix(0.007,0,0,-0.007,8.645,0)"
           id="path29852" />
      </g>
      <g
         transform="translate(16.563,61.5312)"
         id="g29862">
        <path
           d="M 129,15.8 V 655 h 32 L 365,97.6 570,652 h 22 V 18.9"
           style="stroke-width:0.2604in"
           transform="scale(0.007,-0.007)"
           id="path29856" />
        <path
           d="m 265,598 -104,-3 107,41 V 31.5 H 110 422"
           style="stroke-width:0.2604in"
           transform="matrix(0.007,0,0,-0.007,5.117,0)"
           id="path29858" />
        <path
           d="m 88.2,75.6 34.8,-34.7 57,-18.8 59,-6.3 63,31.4 60,59.8 35,91 16,111 v 104 l -22,97 -38,76 -60,44 -69,13 -73,-26 -44,-44 -25.1,-56 -6.3,-57 3.2,-63 34.2,-66 63,-41 76,-10 82,35 50,47 32,41"
           style="stroke-width:0.2604in"
           transform="matrix(0.007,0,0,-0.007,8.645,0)"
           id="path29860" />
      </g>
      <g
         transform="translate(16.563,70.2812)"
         id="g29870">
        <path
           d="M 129,15.8 V 655 h 32 L 365,97.6 570,652 h 22 V 18.9"
           style="stroke-width:0.2604in"
           transform="scale(0.007,-0.007)"
           id="path29864" />
        <path
           d="m 265,598 -104,-3 107,41 V 31.5 H 110 422"
           style="stroke-width:0.2604in"
           transform="matrix(0.007,0,0,-0.007,5.117,0)"
           id="path29866" />
        <path
           d="m 296,321 63,51 38,56 9,54 -3,57 -41,66 -63,34 -50,4 -76,-22 -50,-51 -13,-57 16,-78 50,-48 89,-47 81,-44 54,-41 25,-57 -6,-69 -19,-50.2 -60,-47.3 -75,-15.7 -60,9.4 -63,28.4 -47.5,50.4 -15.7,54 6.2,78 50,70 41,28 54,25"
           style="stroke-width:0.2604in"
           transform="matrix(0.007,0,0,-0.007,8.645,0)"
           id="path29868" />
      </g>
      <g
         transform="translate(16.563,79.0312)"
         id="g29878">
        <path
           d="M 129,15.8 V 655 h 32 L 365,97.6 570,652 h 22 V 18.9"
           style="stroke-width:0.2604in"
           transform="scale(0.007,-0.007)"
           id="path29872" />
        <path
           d="m 265,598 -104,-3 107,41 V 31.5 H 110 422"
           style="stroke-width:0.2604in"
           transform="matrix(0.007,0,0,-0.007,5.117,0)"
           id="path29874" />
        <path
           d="m 224,18.9 12,167.1 25,120 35,104 44,81 47,76 48,66 H 72.5"
           style="stroke-width:0.2604in"
           transform="matrix(0.007,0,0,-0.007,8.645,0)"
           id="path29876" />
      </g>
      <g
         transform="translate(16.563,87.7812)"
         id="g29886">
        <path
           d="M 129,15.8 V 655 h 32 L 365,97.6 570,652 h 22 V 18.9"
           style="stroke-width:0.2604in"
           transform="scale(0.007,-0.007)"
           id="path29880" />
        <path
           d="m 265,598 -104,-3 107,41 V 31.5 H 110 422"
           style="stroke-width:0.2604in"
           transform="matrix(0.007,0,0,-0.007,5.117,0)"
           id="path29882" />
        <path
           d="m 85,265 47,50 57,44 57,19 h 63 l 47,-22 35,-32 25,-59 9,-70 -15,-72 -35,-60 -54,-37.8 -63,-9.4 -56,18.8 -51,37.8 -41,62.6 -18.6,89 -6.4,94 12.6,120 22.4,72 28,57 47,47 60,25 60,4 57,-19 41,-35"
           style="stroke-width:0.2604in"
           transform="matrix(0.007,0,0,-0.007,8.645,0)"
           id="path29884" />
      </g>
      <g
         transform="translate(16.563,96.5312)"
         id="g29894">
        <path
           d="M 129,15.8 V 655 h 32 L 365,97.6 570,652 h 22 V 18.9"
           style="stroke-width:0.2604in"
           transform="scale(0.007,-0.007)"
           id="path29888" />
        <path
           d="m 265,598 -104,-3 107,41 V 31.5 H 110 422"
           style="stroke-width:0.2604in"
           transform="matrix(0.007,0,0,-0.007,5.117,0)"
           id="path29890" />
        <path
           d="M 59.9,97.6 101,63 l 44,-25.2 50,-18.9 48,-3.1 72,18.8 50,41 41,59.4 16,70 -9,82 -35,63 -72,41 -73,6 -53,-13 -54,-28 -6,9 19,265 h 258"
           style="stroke-width:0.2604in"
           transform="matrix(0.007,0,0,-0.007,8.645,0)"
           id="path29892" />
      </g>
      <g
         transform="translate(16.563,105.281)"
         id="g29902">
        <path
           d="M 129,15.8 V 655 h 32 L 365,97.6 570,652 h 22 V 18.9"
           style="stroke-width:0.2604in"
           transform="scale(0.007,-0.007)"
           id="path29896" />
        <path
           d="m 265,598 -104,-3 107,41 V 31.5 H 110 422"
           style="stroke-width:0.2604in"
           transform="matrix(0.007,0,0,-0.007,5.117,0)"
           id="path29898" />
        <path
           d="M 340,15.8 V 630 L 47.2,220 H 444"
           style="stroke-width:0.2604in"
           transform="matrix(0.007,0,0,-0.007,8.645,0)"
           id="path29900" />
      </g>
      <g
         transform="translate(16.563,114.031)"
         id="g29910">
        <path
           d="M 129,15.8 V 655 h 32 L 365,97.6 570,652 h 22 V 18.9"
           style="stroke-width:0.2604in"
           transform="scale(0.007,-0.007)"
           id="path29904" />
        <path
           d="m 265,598 -104,-3 107,41 V 31.5 H 110 422"
           style="stroke-width:0.2604in"
           transform="matrix(0.007,0,0,-0.007,5.117,0)"
           id="path29906" />
        <path
           d="m 88.2,576 50.8,38 66,29 h 53 l 57,-16 47,-38 22,-50 10,-60 -16,-54 -54,-41 -59,-31 -51,-10 h -38 48 l 50,-6 50,-19 54,-41 25,-38 10,-44 -3,-47 L 400,110 369,66.1 324,37.8 268,22.1 H 208 L 151,37.8 94.5,69.3 59.9,101"
           style="stroke-width:0.2604in"
           transform="matrix(0.007,0,0,-0.007,8.645,0)"
           id="path29908" />
      </g>
      <g
         transform="translate(16.563,122.781)"
         id="g29918">
        <path
           d="M 129,15.8 V 655 h 32 L 365,97.6 570,652 h 22 V 18.9"
           style="stroke-width:0.2604in"
           transform="scale(0.007,-0.007)"
           id="path29912" />
        <path
           d="m 265,598 -104,-3 107,41 V 31.5 H 110 422"
           style="stroke-width:0.2604in"
           transform="matrix(0.007,0,0,-0.007,5.117,0)"
           id="path29914" />
        <path
           d="m 75.6,558 41.4,40 50,32 63,16 54,-10 56,-28 35,-47 16,-70 -4,-59 L 356,359 299,277 230,192 167,126 110,63 81.9,31.5 H 438"
           style="stroke-width:0.2604in"
           transform="matrix(0.007,0,0,-0.007,8.645,0)"
           id="path29916" />
      </g>
      <g
         transform="translate(16.563,131.531)"
         id="g29926">
        <path
           d="M 129,15.8 V 655 h 32 L 365,97.6 570,652 h 22 V 18.9"
           style="stroke-width:0.2604in"
           transform="scale(0.007,-0.007)"
           id="path29920" />
        <path
           d="m 265,598 -104,-3 107,41 V 31.5 H 110 422"
           style="stroke-width:0.2604in"
           transform="matrix(0.007,0,0,-0.007,5.117,0)"
           id="path29922" />
        <path
           d="m 265,598 -104,-3 107,41 V 31.5 H 110 422"
           style="stroke-width:0.2604in"
           transform="matrix(0.007,0,0,-0.007,8.645,0)"
           id="path29924" />
      </g>
      <g
         transform="translate(16.563,140.281)"
         id="g29934">
        <path
           d="M 129,15.8 V 655 h 32 L 365,97.6 570,652 h 22 V 18.9"
           style="stroke-width:0.2604in"
           transform="scale(0.007,-0.007)"
           id="path29928" />
        <path
           d="m 265,598 -104,-3 107,41 V 31.5 H 110 422"
           style="stroke-width:0.2604in"
           transform="matrix(0.007,0,0,-0.007,5.117,0)"
           id="path29930" />
        <path
           d="m 246,18.9 60,12.6 63,63 28,66.5 13,75 6,104 -6,98 -23,94 -31,60 -50,38 -45,16 -37,-3 L 164,608 123,551 94.5,460 85,365 81.9,271 94.5,183 126,94.5 164,53.6 202,22.1 246,18.9"
           style="stroke-width:0.2604in"
           transform="matrix(0.007,0,0,-0.007,8.645,0)"
           id="path29932" />
      </g>
      <g
         transform="translate(16.563,149.031)"
         id="g29940">
        <path
           d="M 129,15.8 V 655 h 32 L 365,97.6 570,652 h 22 V 18.9"
           style="stroke-width:0.2604in"
           transform="scale(0.007,-0.007)"
           id="path29936" />
        <path
           d="m 88.2,75.6 34.8,-34.7 57,-18.8 59,-6.3 63,31.4 60,59.8 35,91 16,111 v 104 l -22,97 -38,76 -60,44 -69,13 -73,-26 -44,-44 -25.1,-56 -6.3,-57 3.2,-63 34.2,-66 63,-41 76,-10 82,35 50,47 32,41"
           style="stroke-width:0.2604in"
           transform="matrix(0.007,0,0,-0.007,5.117,0)"
           id="path29938" />
      </g>
      <g
         transform="translate(16.563,157.781)"
         id="g29946">
        <path
           d="M 129,15.8 V 655 h 32 L 365,97.6 570,652 h 22 V 18.9"
           style="stroke-width:0.2604in"
           transform="scale(0.007,-0.007)"
           id="path29942" />
        <path
           d="m 296,321 63,51 38,56 9,54 -3,57 -41,66 -63,34 -50,4 -76,-22 -50,-51 -13,-57 16,-78 50,-48 89,-47 81,-44 54,-41 25,-57 -6,-69 -19,-50.2 -60,-47.3 -75,-15.7 -60,9.4 -63,28.4 -47.5,50.4 -15.7,54 6.2,78 50,70 41,28 54,25"
           style="stroke-width:0.2604in"
           transform="matrix(0.007,0,0,-0.007,5.117,0)"
           id="path29944" />
      </g>
      <g
         transform="translate(16.563,166.531)"
         id="g29952">
        <path
           d="M 129,15.8 V 655 h 32 L 365,97.6 570,652 h 22 V 18.9"
           style="stroke-width:0.2604in"
           transform="scale(0.007,-0.007)"
           id="path29948" />
        <path
           d="m 224,18.9 12,167.1 25,120 35,104 44,81 47,76 48,66 H 72.5"
           style="stroke-width:0.2604in"
           transform="matrix(0.007,0,0,-0.007,5.117,0)"
           id="path29950" />
      </g>
    </g>
    <g
       inkscape:label="Hershey Text"
       style="fill:none;stroke:#000000;stroke-linecap:round;stroke-linejoin:round"
       id="g30048"
       transform="translate(-10.6089,-5.6961966)">
      <g
         transform="translate(84.4819,35.2812)"
         id="g29960">
        <path
           d="M 129,15.8 V 655 h 32 L 365,97.6 570,652 h 22 V 18.9"
           style="stroke-width:0.2604in"
           transform="scale(0.007,-0.007)"
           id="path29956" />
        <path
           d="m 85,265 47,50 57,44 57,19 h 63 l 47,-22 35,-32 25,-59 9,-70 -15,-72 -35,-60 -54,-37.8 -63,-9.4 -56,18.8 -51,37.8 -41,62.6 -18.6,89 -6.4,94 12.6,120 22.4,72 28,57 47,47 60,25 60,4 57,-19 41,-35"
           style="stroke-width:0.2604in"
           transform="matrix(0.007,0,0,-0.007,5.117,0)"
           id="path29958" />
      </g>
      <g
         transform="translate(84.4819,44.0312)"
         id="g29970">
        <path
           d="M 129,15.8 V 655 h 32 L 365,97.6 570,652 h 22 V 18.9"
           style="stroke-width:0.2604in"
           transform="scale(0.007,-0.007)"
           id="path29962" />
        <path
           d="M 59.9,97.6 101,63 l 44,-25.2 50,-18.9 48,-3.1 72,18.8 50,41 41,59.4 16,70 -9,82 -35,63 -72,41 -73,6 -53,-13 -54,-28 -6,9 19,265 h 258"
           style="stroke-width:0.2604in"
           transform="matrix(0.007,0,0,-0.007,5.117,0)"
           id="path29964" />
        <path
           d="M 97.6,72.4 V 22.1 H 148 V 72.4 H 97.6"
           style="stroke-width:0.2604in"
           transform="matrix(0.007,0,0,-0.007,8.624,0)"
           id="path29966" />
        <path
           d="M 59.9,97.6 101,63 l 44,-25.2 50,-18.9 48,-3.1 72,18.8 50,41 41,59.4 16,70 -9,82 -35,63 -72,41 -73,6 -53,-13 -54,-28 -6,9 19,265 h 258"
           style="stroke-width:0.2604in"
           transform="matrix(0.007,0,0,-0.007,10.367,0)"
           id="path29968" />
      </g>
      <g
         transform="translate(84.4819,52.7812)"
         id="g29976">
        <path
           d="M 129,15.8 V 655 h 32 L 365,97.6 570,652 h 22 V 18.9"
           style="stroke-width:0.2604in"
           transform="scale(0.007,-0.007)"
           id="path29972" />
        <path
           d="M 59.9,97.6 101,63 l 44,-25.2 50,-18.9 48,-3.1 72,18.8 50,41 41,59.4 16,70 -9,82 -35,63 -72,41 -73,6 -53,-13 -54,-28 -6,9 19,265 h 258"
           style="stroke-width:0.2604in"
           transform="matrix(0.007,0,0,-0.007,5.117,0)"
           id="path29974" />
      </g>
      <g
         transform="translate(84.4819,61.5312)"
         id="g29986">
        <path
           d="M 129,15.8 V 655 h 32 L 365,97.6 570,652 h 22 V 18.9"
           style="stroke-width:0.2604in"
           transform="scale(0.007,-0.007)"
           id="path29978" />
        <path
           d="M 340,15.8 V 630 L 47.2,220 H 444"
           style="stroke-width:0.2604in"
           transform="matrix(0.007,0,0,-0.007,5.117,0)"
           id="path29980" />
        <path
           d="M 97.6,72.4 V 22.1 H 148 V 72.4 H 97.6"
           style="stroke-width:0.2604in"
           transform="matrix(0.007,0,0,-0.007,8.645,0)"
           id="path29982" />
        <path
           d="M 59.9,97.6 101,63 l 44,-25.2 50,-18.9 48,-3.1 72,18.8 50,41 41,59.4 16,70 -9,82 -35,63 -72,41 -73,6 -53,-13 -54,-28 -6,9 19,265 h 258"
           style="stroke-width:0.2604in"
           transform="matrix(0.007,0,0,-0.007,10.388,0)"
           id="path29984" />
      </g>
      <g
         transform="translate(84.4819,70.2812)"
         id="g29992">
        <path
           d="M 129,15.8 V 655 h 32 L 365,97.6 570,652 h 22 V 18.9"
           style="stroke-width:0.2604in"
           transform="scale(0.007,-0.007)"
           id="path29988" />
        <path
           d="M 340,15.8 V 630 L 47.2,220 H 444"
           style="stroke-width:0.2604in"
           transform="matrix(0.007,0,0,-0.007,5.117,0)"
           id="path29990" />
      </g>
      <g
         transform="translate(84.4819,79.0312)"
         id="g30002">
        <path
           d="M 129,15.8 V 655 h 32 L 365,97.6 570,652 h 22 V 18.9"
           style="stroke-width:0.2604in"
           transform="scale(0.007,-0.007)"
           id="path29994" />
        <path
           d="m 88.2,576 50.8,38 66,29 h 53 l 57,-16 47,-38 22,-50 10,-60 -16,-54 -54,-41 -59,-31 -51,-10 h -38 48 l 50,-6 50,-19 54,-41 25,-38 10,-44 -3,-47 L 400,110 369,66.1 324,37.8 268,22.1 H 208 L 151,37.8 94.5,69.3 59.9,101"
           style="stroke-width:0.2604in"
           transform="matrix(0.007,0,0,-0.007,5.117,0)"
           id="path29996" />
        <path
           d="M 97.6,72.4 V 22.1 H 148 V 72.4 H 97.6"
           style="stroke-width:0.2604in"
           transform="matrix(0.007,0,0,-0.007,8.603,0)"
           id="path29998" />
        <path
           d="M 59.9,97.6 101,63 l 44,-25.2 50,-18.9 48,-3.1 72,18.8 50,41 41,59.4 16,70 -9,82 -35,63 -72,41 -73,6 -53,-13 -54,-28 -6,9 19,265 h 258"
           style="stroke-width:0.2604in"
           transform="matrix(0.007,0,0,-0.007,10.346,0)"
           id="path30000" />
      </g>
      <g
         transform="translate(84.4819,87.7812)"
         id="g30008">
        <path
           d="M 129,15.8 V 655 h 32 L 365,97.6 570,652 h 22 V 18.9"
           style="stroke-width:0.2604in"
           transform="scale(0.007,-0.007)"
           id="path30004" />
        <path
           d="m 88.2,576 50.8,38 66,29 h 53 l 57,-16 47,-38 22,-50 10,-60 -16,-54 -54,-41 -59,-31 -51,-10 h -38 48 l 50,-6 50,-19 54,-41 25,-38 10,-44 -3,-47 L 400,110 369,66.1 324,37.8 268,22.1 H 208 L 151,37.8 94.5,69.3 59.9,101"
           style="stroke-width:0.2604in"
           transform="matrix(0.007,0,0,-0.007,5.117,0)"
           id="path30006" />
      </g>
      <g
         transform="translate(84.4819,96.5312)"
         id="g30018">
        <path
           d="M 129,15.8 V 655 h 32 L 365,97.6 570,652 h 22 V 18.9"
           style="stroke-width:0.2604in"
           transform="scale(0.007,-0.007)"
           id="path30010" />
        <path
           d="m 75.6,558 41.4,40 50,32 63,16 54,-10 56,-28 35,-47 16,-70 -4,-59 L 356,359 299,277 230,192 167,126 110,63 81.9,31.5 H 438"
           style="stroke-width:0.2604in"
           transform="matrix(0.007,0,0,-0.007,5.117,0)"
           id="path30012" />
        <path
           d="M 97.6,72.4 V 22.1 H 148 V 72.4 H 97.6"
           style="stroke-width:0.2604in"
           transform="matrix(0.007,0,0,-0.007,8.645,0)"
           id="path30014" />
        <path
           d="M 59.9,97.6 101,63 l 44,-25.2 50,-18.9 48,-3.1 72,18.8 50,41 41,59.4 16,70 -9,82 -35,63 -72,41 -73,6 -53,-13 -54,-28 -6,9 19,265 h 258"
           style="stroke-width:0.2604in"
           transform="matrix(0.007,0,0,-0.007,10.388,0)"
           id="path30016" />
      </g>
      <g
         transform="translate(84.4819,105.281)"
         id="g30024">
        <path
           d="M 129,15.8 V 655 h 32 L 365,97.6 570,652 h 22 V 18.9"
           style="stroke-width:0.2604in"
           transform="scale(0.007,-0.007)"
           id="path30020" />
        <path
           d="m 75.6,558 41.4,40 50,32 63,16 54,-10 56,-28 35,-47 16,-70 -4,-59 L 356,359 299,277 230,192 167,126 110,63 81.9,31.5 H 438"
           style="stroke-width:0.2604in"
           transform="matrix(0.007,0,0,-0.007,5.117,0)"
           id="path30022" />
      </g>
      <g
         transform="translate(84.4819,114.031)"
         id="g30034">
        <path
           d="M 129,15.8 V 655 h 32 L 365,97.6 570,652 h 22 V 18.9"
           style="stroke-width:0.2604in"
           transform="scale(0.007,-0.007)"
           id="path30026" />
        <path
           d="m 265,598 -104,-3 107,41 V 31.5 H 110 422"
           style="stroke-width:0.2604in"
           transform="matrix(0.007,0,0,-0.007,5.117,0)"
           id="path30028" />
        <path
           d="M 97.6,72.4 V 22.1 H 148 V 72.4 H 97.6"
           style="stroke-width:0.2604in"
           transform="matrix(0.007,0,0,-0.007,8.645,0)"
           id="path30030" />
        <path
           d="M 59.9,97.6 101,63 l 44,-25.2 50,-18.9 48,-3.1 72,18.8 50,41 41,59.4 16,70 -9,82 -35,63 -72,41 -73,6 -53,-13 -54,-28 -6,9 19,265 h 258"
           style="stroke-width:0.2604in"
           transform="matrix(0.007,0,0,-0.007,10.388,0)"
           id="path30032" />
      </g>
      <g
         transform="translate(84.4819,122.781)"
         id="g30046">
        <path
           d="M 129,15.8 V 655 h 32 L 365,97.6 570,652 h 22 V 18.9"
           style="stroke-width:0.2604in"
           transform="scale(0.007,-0.007)"
           id="path30036" />
        <path
           d="m 265,598 -104,-3 107,41 V 31.5 H 110 422"
           style="stroke-width:0.2604in"
           transform="matrix(0.007,0,0,-0.007,5.117,0)"
           id="path30038" />
        <path
           d="M 97.6,72.4 V 22.1 H 148 V 72.4 H 97.6"
           style="stroke-width:0.2604in"
           transform="matrix(0.007,0,0,-0.007,8.645,0)"
           id="path30040" />
        <path
           d="m 75.6,558 41.4,40 50,32 63,16 54,-10 56,-28 35,-47 16,-70 -4,-59 L 356,359 299,277 230,192 167,126 110,63 81.9,31.5 H 438"
           style="stroke-width:0.2604in"
           transform="matrix(0.007,0,0,-0.007,10.388,0)"
           id="path30042" />
        <path
           d="m 224,18.9 12,167.1 25,120 35,104 44,81 47,76 48,66 H 72.5"
           style="stroke-width:0.2604in"
           transform="matrix(0.007,0,0,-0.007,13.916,0)"
           id="path30044" />
      </g>
    </g>
    <g
       inkscape:label="Hershey Text"
       style="fill:none;stroke:#000000;stroke-linecap:round;stroke-linejoin:round"
       id="g30232"
       transform="translate(-9.1434937,-5.6247023)">
      <g
         transform="translate(47.776,35.3462)"
         id="g30058">
        <path
           d="M 346,315 H 520 V 81.9 L 479,53.6 391,22.1 328,18.9 265,31.5 208,63 l -66,76 -44.4,94 -9.4,110 12.8,107 41,95 66,72 66,32 76,13 82,-13 50,-28 35,-29"
           style="stroke-width:0.2604in"
           transform="scale(0.007,-0.007)"
           id="path30050" />
        <path
           d="M 129,18.9 V 482 340 l 29,57 44,57 47,22 44,6 28,-3"
           style="stroke-width:0.2604in"
           transform="matrix(0.007,0,0,-0.007,4.368,0)"
           id="path30052" />
        <path
           d="M 88.2,265 H 435 v 56 l -16,73 -47,56 -48,32 -66,3 -66,-19 -57,-47 -22,-47 -24.8,-60 -6.3,-63 15.7,-76 28.4,-69 57,-56.8 53,-25.1 66,-6.3 57,15.7 54,28.4"
           style="stroke-width:0.2604in"
           transform="matrix(0.007,0,0,-0.007,6.748,0)"
           id="path30054" />
        <path
           d="M 53.5,479 243,3.15 M 406,476 211,-78.8 189,-126 158,-161 120,-183 H 53.5"
           style="stroke-width:0.2604in"
           transform="matrix(0.007,0,0,-0.007,10.276,0)"
           id="path30056" />
      </g>
      <g
         transform="translate(47.776,44.0962)"
         id="g30072">
        <path
           d="M 135,15.8 V 649 h 224 l 57,-16 41,-31 31,-41 13,-63 -3,-57 -26,-63 -47,-38 -66,-25 -75,-3 H 132"
           style="stroke-width:0.2604in"
           transform="scale(0.007,-0.007)"
           id="path30060" />
        <path
           d="M 425,476 V 18.9 139 L 391,97.6 350,56.7 293,25.2 239,15.8 183,31.5 145,63 l -22,41 -3,79 v 293"
           style="stroke-width:0.2604in"
           transform="matrix(0.007,0,0,-0.007,4.06,0)"
           id="path30062" />
        <path
           d="M 129,18.9 V 482 340 l 29,57 44,57 47,22 44,6 28,-3"
           style="stroke-width:0.2604in"
           transform="matrix(0.007,0,0,-0.007,7.938,0)"
           id="path30064" />
        <path
           d="M 123,-195 V 482 381 l 53,54 63,34 54,10 h 66 l 51,-29 44,-63 22,-72 V 233 L 466,164 432,91.4 381,44.1 343,25.2 284,22.1 236,31.5 183,59.9 132,94.5"
           style="stroke-width:0.2604in"
           transform="matrix(0.007,0,0,-0.007,10.318,0)"
           id="path30066" />
        <path
           d="M 129,715 V 63 l 6,-22.1 10,-12.5 16,-9.5 h 22"
           style="stroke-width:0.2604in"
           transform="matrix(0.007,0,0,-0.007,14.287,0)"
           id="path30068" />
        <path
           d="M 88.2,265 H 435 v 56 l -16,73 -47,56 -48,32 -66,3 -66,-19 -57,-47 -22,-47 -24.8,-60 -6.3,-63 15.7,-76 28.4,-69 57,-56.8 53,-25.1 66,-6.3 57,15.7 54,28.4"
           style="stroke-width:0.2604in"
           transform="matrix(0.007,0,0,-0.007,16.142,0)"
           id="path30070" />
      </g>
      <g
         transform="translate(47.776,52.8462)"
         id="g30082">
        <path
           d="M 274,22.1 V 649 H 56.7 495"
           style="stroke-width:0.2604in"
           transform="scale(0.007,-0.007)"
           id="path30074" />
        <path
           d="M 88.2,265 H 435 v 56 l -16,73 -47,56 -48,32 -66,3 -66,-19 -57,-47 -22,-47 -24.8,-60 -6.3,-63 15.7,-76 28.4,-69 57,-56.8 53,-25.1 66,-6.3 57,15.7 54,28.4"
           style="stroke-width:0.2604in"
           transform="matrix(0.007,0,0,-0.007,3.836,0)"
           id="path30076" />
        <path
           d="m 117,428 66,38 56,16 57,6 44,-16 38,-34 25,-51 3,-69 V 107 22.1 L 403,107 362,78.8 318,47.2 268,25.2 211,15.8 164,31.5 126,56.7 97.6,97.6 V 158 l 22.4,47 50,41 50,19 60,19 57,9 35,3 h 28"
           style="stroke-width:0.2604in"
           transform="matrix(0.007,0,0,-0.007,7.364,0)"
           id="path30078" />
        <path
           d="M 129,715 V 63 l 6,-22.1 10,-12.5 16,-9.5 h 22"
           style="stroke-width:0.2604in"
           transform="matrix(0.007,0,0,-0.007,11.004,0)"
           id="path30080" />
      </g>
      <g
         transform="translate(47.776,61.5962)"
         id="g30094">
        <path
           d="M 346,315 H 520 V 81.9 L 479,53.6 391,22.1 328,18.9 265,31.5 208,63 l -66,76 -44.4,94 -9.4,110 12.8,107 41,95 66,72 66,32 76,13 82,-13 50,-28 35,-29"
           style="stroke-width:0.2604in"
           transform="scale(0.007,-0.007)"
           id="path30084" />
        <path
           d="M 129,18.9 V 482 340 l 29,57 44,57 47,22 44,6 28,-3"
           style="stroke-width:0.2604in"
           transform="matrix(0.007,0,0,-0.007,4.368,0)"
           id="path30086" />
        <path
           d="M 88.2,265 H 435 v 56 l -16,73 -47,56 -48,32 -66,3 -66,-19 -57,-47 -22,-47 -24.8,-60 -6.3,-63 15.7,-76 28.4,-69 57,-56.8 53,-25.1 66,-6.3 57,15.7 54,28.4"
           style="stroke-width:0.2604in"
           transform="matrix(0.007,0,0,-0.007,6.748,0)"
           id="path30088" />
        <path
           d="M 88.2,265 H 435 v 56 l -16,73 -47,56 -48,32 -66,3 -66,-19 -57,-47 -22,-47 -24.8,-60 -6.3,-63 15.7,-76 28.4,-69 57,-56.8 53,-25.1 66,-6.3 57,15.7 54,28.4"
           style="stroke-width:0.2604in"
           transform="matrix(0.007,0,0,-0.007,10.276,0)"
           id="path30090" />
        <path
           d="M 126,15.8 V 482 369 l 44,44 41,37 32,19 47,13 31,3 48,-13 28,-18 22,-32 19,-44 V 15.8"
           style="stroke-width:0.2604in"
           transform="matrix(0.007,0,0,-0.007,13.804,0)"
           id="path30092" />
      </g>
      <g
         transform="translate(47.776,70.3462)"
         id="g30108">
        <path
           d="M 44.1,655 236,274 V 22.1 277 l 189,375"
           style="stroke-width:0.2604in"
           transform="scale(0.007,-0.007)"
           id="path30096" />
        <path
           d="M 88.2,265 H 435 v 56 l -16,73 -47,56 -48,32 -66,3 -66,-19 -57,-47 -22,-47 -24.8,-60 -6.3,-63 15.7,-76 28.4,-69 57,-56.8 53,-25.1 66,-6.3 57,15.7 54,28.4"
           style="stroke-width:0.2604in"
           transform="matrix(0.007,0,0,-0.007,3.304,0)"
           id="path30098" />
        <path
           d="M 129,715 V 63 l 6,-22.1 10,-12.5 16,-9.5 h 22"
           style="stroke-width:0.2604in"
           transform="matrix(0.007,0,0,-0.007,6.832,0)"
           id="path30100" />
        <path
           d="M 129,715 V 63 l 6,-22.1 10,-12.5 16,-9.5 h 22"
           style="stroke-width:0.2604in"
           transform="matrix(0.007,0,0,-0.007,8.687,0)"
           id="path30102" />
        <path
           d="m 287,18.9 h 3 l 63,15.7 60,41 37,63.4 16,69 3,66 -9,60 -22,53 -32,41 -44,38 -47,16 -44,3 -51,-9 -47,-29 -41,-47 -22,-44 -18.6,-66 v -51 l 6.2,-59 15.4,-54 38,-50.4 44,-34.7 48,-18.8 44,-3.2"
           style="stroke-width:0.2604in"
           transform="matrix(0.007,0,0,-0.007,10.542,0)"
           id="path30104" />
        <path
           d="M 59.9,482 198,9.45 h 13 L 343,482 h 19 L 495,9.45 h 12 L 643,482"
           style="stroke-width:0.2604in"
           transform="matrix(0.007,0,0,-0.007,14.469,0)"
           id="path30106" />
      </g>
      <g
         transform="translate(47.776,79.0962)"
         id="g30116">
        <path
           d="M 129,18.9 V 649 h 211 l 51,-16 56,-28 41,-63 v -54 l -9,-60 -38,-53 -47,-29 -76,-18 H 132 312 L 495,18.9"
           style="stroke-width:0.2604in"
           transform="scale(0.007,-0.007)"
           id="path30110" />
        <path
           d="M 88.2,265 H 435 v 56 l -16,73 -47,56 -48,32 -66,3 -66,-19 -57,-47 -22,-47 -24.8,-60 -6.3,-63 15.7,-76 28.4,-69 57,-56.8 53,-25.1 66,-6.3 57,15.7 54,28.4"
           style="stroke-width:0.2604in"
           transform="matrix(0.007,0,0,-0.007,4.06,0)"
           id="path30112" />
        <path
           d="M 438,715 V 22.1 117 L 394,72.4 334,31.5 274,15.8 l -50,9.4 -51,22 -50,53.8 -31.6,72 -6.4,88 22,104 54,79 75,38 60,6 63,-22 41,-25 41,-38"
           style="stroke-width:0.2604in"
           transform="matrix(0.007,0,0,-0.007,7.588,0)"
           id="path30114" />
      </g>
      <g
         transform="translate(47.776,87.8462)"
         id="g30128">
        <path
           d="M 129,28.4 V 646 h 183 l 53,-3 54,-22 44,-41 13,-48 V 476 L 454,425 406,391 365,372 309,362 H 135 312 l 53,-9 63,-16 51,-35 28,-31 10,-44 V 164 L 491,104 447,66.1 369,34.6 312,28.4 H 135"
           style="stroke-width:0.2604in"
           transform="scale(0.007,-0.007)"
           id="path30118" />
        <path
           d="M 129,18.9 V 482 340 l 29,57 44,57 47,22 44,6 28,-3"
           style="stroke-width:0.2604in"
           transform="matrix(0.007,0,0,-0.007,4.214,0)"
           id="path30120" />
        <path
           d="m 287,18.9 h 3 l 63,15.7 60,41 37,63.4 16,69 3,66 -9,60 -22,53 -32,41 -44,38 -47,16 -44,3 -51,-9 -47,-29 -41,-47 -22,-44 -18.6,-66 v -51 l 6.2,-59 15.4,-54 38,-50.4 44,-34.7 48,-18.8 44,-3.2"
           style="stroke-width:0.2604in"
           transform="matrix(0.007,0,0,-0.007,6.594,0)"
           id="path30122" />
        <path
           d="M 59.9,482 198,9.45 h 13 L 343,482 h 19 L 495,9.45 h 12 L 643,482"
           style="stroke-width:0.2604in"
           transform="matrix(0.007,0,0,-0.007,10.521,0)"
           id="path30124" />
        <path
           d="M 126,15.8 V 482 369 l 44,44 41,37 32,19 47,13 31,3 48,-13 28,-18 22,-32 19,-44 V 15.8"
           style="stroke-width:0.2604in"
           transform="matrix(0.007,0,0,-0.007,15.435,0)"
           id="path30126" />
      </g>
      <g
         transform="translate(47.776,96.5962)"
         id="g30136">
        <path
           d="M 274,22.1 V 649 H 56.7 495"
           style="stroke-width:0.2604in"
           transform="scale(0.007,-0.007)"
           id="path30130" />
        <path
           d="m 117,428 66,38 56,16 57,6 44,-16 38,-34 25,-51 3,-69 V 107 22.1 L 403,107 362,78.8 318,47.2 268,25.2 211,15.8 164,31.5 126,56.7 97.6,97.6 V 158 l 22.4,47 50,41 50,19 60,19 57,9 35,3 h 28"
           style="stroke-width:0.2604in"
           transform="matrix(0.007,0,0,-0.007,3.836,0)"
           id="path30132" />
        <path
           d="M 126,15.8 V 482 369 l 44,44 41,37 32,19 47,13 31,3 48,-13 28,-18 22,-32 19,-44 V 15.8"
           style="stroke-width:0.2604in"
           transform="matrix(0.007,0,0,-0.007,7.476,0)"
           id="path30134" />
      </g>
      <g
         transform="translate(47.776,105.346)"
         id="g30150">
        <path
           d="M 135,15.8 V 649 h 224 l 57,-16 41,-31 31,-41 13,-63 -3,-57 -26,-63 -47,-38 -66,-25 -75,-3 H 132"
           style="stroke-width:0.2604in"
           transform="scale(0.007,-0.007)"
           id="path30138" />
        <path
           d="M 425,476 V 18.9 139 L 391,97.6 350,56.7 293,25.2 239,15.8 183,31.5 145,63 l -22,41 -3,79 v 293"
           style="stroke-width:0.2604in"
           transform="matrix(0.007,0,0,-0.007,4.06,0)"
           id="path30140" />
        <path
           d="M 129,18.9 V 482 340 l 29,57 44,57 47,22 44,6 28,-3"
           style="stroke-width:0.2604in"
           transform="matrix(0.007,0,0,-0.007,7.938,0)"
           id="path30142" />
        <path
           d="M 123,-195 V 482 381 l 53,54 63,34 54,10 h 66 l 51,-29 44,-63 22,-72 V 233 L 466,164 432,91.4 381,44.1 343,25.2 284,22.1 236,31.5 183,59.9 132,94.5"
           style="stroke-width:0.2604in"
           transform="matrix(0.007,0,0,-0.007,10.318,0)"
           id="path30144" />
        <path
           d="M 129,715 V 63 l 6,-22.1 10,-12.5 16,-9.5 h 22"
           style="stroke-width:0.2604in"
           transform="matrix(0.007,0,0,-0.007,14.287,0)"
           id="path30146" />
        <path
           d="M 88.2,265 H 435 v 56 l -16,73 -47,56 -48,32 -66,3 -66,-19 -57,-47 -22,-47 -24.8,-60 -6.3,-63 15.7,-76 28.4,-69 57,-56.8 53,-25.1 66,-6.3 57,15.7 54,28.4"
           style="stroke-width:0.2604in"
           transform="matrix(0.007,0,0,-0.007,16.142,0)"
           id="path30148" />
      </g>
      <g
         transform="translate(47.776,114.096)"
         id="g30160">
        <path
           d="M 129,28.4 V 646 h 183 l 53,-3 54,-22 44,-41 13,-48 V 476 L 454,425 406,391 365,372 309,362 H 135 312 l 53,-9 63,-16 51,-35 28,-31 10,-44 V 164 L 491,104 447,66.1 369,34.6 312,28.4 H 135"
           style="stroke-width:0.2604in"
           transform="scale(0.007,-0.007)"
           id="path30152" />
        <path
           d="M 129,715 V 63 l 6,-22.1 10,-12.5 16,-9.5 h 22"
           style="stroke-width:0.2604in"
           transform="matrix(0.007,0,0,-0.007,4.214,0)"
           id="path30154" />
        <path
           d="M 425,476 V 18.9 139 L 391,97.6 350,56.7 293,25.2 239,15.8 183,31.5 145,63 l -22,41 -3,79 v 293"
           style="stroke-width:0.2604in"
           transform="matrix(0.007,0,0,-0.007,6.069,0)"
           id="path30156" />
        <path
           d="M 88.2,265 H 435 v 56 l -16,73 -47,56 -48,32 -66,3 -66,-19 -57,-47 -22,-47 -24.8,-60 -6.3,-63 15.7,-76 28.4,-69 57,-56.8 53,-25.1 66,-6.3 57,15.7 54,28.4"
           style="stroke-width:0.2604in"
           transform="matrix(0.007,0,0,-0.007,9.947,0)"
           id="path30158" />
      </g>
      <g
         transform="translate(47.776,122.846)"
         id="g30172">
        <path
           d="M 346,315 H 520 V 81.9 L 479,53.6 391,22.1 328,18.9 265,31.5 208,63 l -66,76 -44.4,94 -9.4,110 12.8,107 41,95 66,72 66,32 76,13 82,-13 50,-28 35,-29"
           style="stroke-width:0.2604in"
           transform="scale(0.007,-0.007)"
           id="path30162" />
        <path
           d="M 129,18.9 V 482 340 l 29,57 44,57 47,22 44,6 28,-3"
           style="stroke-width:0.2604in"
           transform="matrix(0.007,0,0,-0.007,4.368,0)"
           id="path30164" />
        <path
           d="M 88.2,265 H 435 v 56 l -16,73 -47,56 -48,32 -66,3 -66,-19 -57,-47 -22,-47 -24.8,-60 -6.3,-63 15.7,-76 28.4,-69 57,-56.8 53,-25.1 66,-6.3 57,15.7 54,28.4"
           style="stroke-width:0.2604in"
           transform="matrix(0.007,0,0,-0.007,6.748,0)"
           id="path30166" />
        <path
           d="M 88.2,265 H 435 v 56 l -16,73 -47,56 -48,32 -66,3 -66,-19 -57,-47 -22,-47 -24.8,-60 -6.3,-63 15.7,-76 28.4,-69 57,-56.8 53,-25.1 66,-6.3 57,15.7 54,28.4"
           style="stroke-width:0.2604in"
           transform="matrix(0.007,0,0,-0.007,10.276,0)"
           id="path30168" />
        <path
           d="M 126,15.8 V 482 369 l 44,44 41,37 32,19 47,13 31,3 48,-13 28,-18 22,-32 19,-44 V 15.8"
           style="stroke-width:0.2604in"
           transform="matrix(0.007,0,0,-0.007,13.804,0)"
           id="path30170" />
      </g>
      <g
         transform="translate(47.776,131.596)"
         id="g30186">
        <path
           d="M 44.1,655 236,274 V 22.1 277 l 189,375"
           style="stroke-width:0.2604in"
           transform="scale(0.007,-0.007)"
           id="path30174" />
        <path
           d="M 88.2,265 H 435 v 56 l -16,73 -47,56 -48,32 -66,3 -66,-19 -57,-47 -22,-47 -24.8,-60 -6.3,-63 15.7,-76 28.4,-69 57,-56.8 53,-25.1 66,-6.3 57,15.7 54,28.4"
           style="stroke-width:0.2604in"
           transform="matrix(0.007,0,0,-0.007,3.304,0)"
           id="path30176" />
        <path
           d="M 129,715 V 63 l 6,-22.1 10,-12.5 16,-9.5 h 22"
           style="stroke-width:0.2604in"
           transform="matrix(0.007,0,0,-0.007,6.832,0)"
           id="path30178" />
        <path
           d="M 129,715 V 63 l 6,-22.1 10,-12.5 16,-9.5 h 22"
           style="stroke-width:0.2604in"
           transform="matrix(0.007,0,0,-0.007,8.687,0)"
           id="path30180" />
        <path
           d="m 287,18.9 h 3 l 63,15.7 60,41 37,63.4 16,69 3,66 -9,60 -22,53 -32,41 -44,38 -47,16 -44,3 -51,-9 -47,-29 -41,-47 -22,-44 -18.6,-66 v -51 l 6.2,-59 15.4,-54 38,-50.4 44,-34.7 48,-18.8 44,-3.2"
           style="stroke-width:0.2604in"
           transform="matrix(0.007,0,0,-0.007,10.542,0)"
           id="path30182" />
        <path
           d="M 59.9,482 198,9.45 h 13 L 343,482 h 19 L 495,9.45 h 12 L 643,482"
           style="stroke-width:0.2604in"
           transform="matrix(0.007,0,0,-0.007,14.469,0)"
           id="path30184" />
      </g>
      <g
         transform="translate(47.776,140.346)"
         id="g30200">
        <path
           d="m 334,22.1 82,12.5 82,53.6 56,84.8 29,111 v 103 l -16,85 -31,70 -51,66 -69,41 -70,13 -59,-10 -67,-25 -62,-54 -48,-91 -15.5,-72 -3.1,-108 12.6,-82 31,-75 45,-59.9 50,-41 54,-18.9 50,-3.1"
           style="stroke-width:0.2604in"
           transform="scale(0.007,-0.007)"
           id="path30188" />
        <path
           d="M 129,18.9 V 482 340 l 29,57 44,57 47,22 44,6 28,-3"
           style="stroke-width:0.2604in"
           transform="matrix(0.007,0,0,-0.007,4.739,0)"
           id="path30190" />
        <path
           d="m 117,428 66,38 56,16 57,6 44,-16 38,-34 25,-51 3,-69 V 107 22.1 L 403,107 362,78.8 318,47.2 268,25.2 211,15.8 164,31.5 126,56.7 97.6,97.6 V 158 l 22.4,47 50,41 50,19 60,19 57,9 35,3 h 28"
           style="stroke-width:0.2604in"
           transform="matrix(0.007,0,0,-0.007,7.119,0)"
           id="path30192" />
        <path
           d="M 126,15.8 V 482 369 l 44,44 41,37 32,19 47,13 31,3 48,-13 28,-18 22,-32 19,-44 V 15.8"
           style="stroke-width:0.2604in"
           transform="matrix(0.007,0,0,-0.007,10.759,0)"
           id="path30194" />
        <path
           d="M 170,40.9 123,-3.15 91.4,-56.7 85,-113 l 44,-48 73,-31 85,-10 75,19 76,51 28,47 -3,53.5 -28,50.4 -70,18.9 H 173 l -41,28.3 -19,43.9 10,41 53,60 35,-22 54,-9 66,22 47,44 22,53 v 63 l -25,57 -19,25 -44,28 H 463 312 l -47,10 -73,-6 -50,-41 -29,-57 -3,-63 13,-50 25,-32 28,-25"
           style="stroke-width:0.2604in"
           transform="matrix(0.007,0,0,-0.007,14.665,0)"
           id="path30196" />
        <path
           d="M 88.2,265 H 435 v 56 l -16,73 -47,56 -48,32 -66,3 -66,-19 -57,-47 -22,-47 -24.8,-60 -6.3,-63 15.7,-76 28.4,-69 57,-56.8 53,-25.1 66,-6.3 57,15.7 54,28.4"
           style="stroke-width:0.2604in"
           transform="matrix(0.007,0,0,-0.007,18.235,0)"
           id="path30198" />
      </g>
      <g
         transform="translate(47.776,149.096)"
         id="g30212">
        <path
           d="M 129,28.4 V 646 h 183 l 53,-3 54,-22 44,-41 13,-48 V 476 L 454,425 406,391 365,372 309,362 H 135 312 l 53,-9 63,-16 51,-35 28,-31 10,-44 V 164 L 491,104 447,66.1 369,34.6 312,28.4 H 135"
           style="stroke-width:0.2604in"
           transform="scale(0.007,-0.007)"
           id="path30202" />
        <path
           d="M 129,18.9 V 482 340 l 29,57 44,57 47,22 44,6 28,-3"
           style="stroke-width:0.2604in"
           transform="matrix(0.007,0,0,-0.007,4.214,0)"
           id="path30204" />
        <path
           d="m 287,18.9 h 3 l 63,15.7 60,41 37,63.4 16,69 3,66 -9,60 -22,53 -32,41 -44,38 -47,16 -44,3 -51,-9 -47,-29 -41,-47 -22,-44 -18.6,-66 v -51 l 6.2,-59 15.4,-54 38,-50.4 44,-34.7 48,-18.8 44,-3.2"
           style="stroke-width:0.2604in"
           transform="matrix(0.007,0,0,-0.007,6.594,0)"
           id="path30206" />
        <path
           d="M 59.9,482 198,9.45 h 13 L 343,482 h 19 L 495,9.45 h 12 L 643,482"
           style="stroke-width:0.2604in"
           transform="matrix(0.007,0,0,-0.007,10.521,0)"
           id="path30208" />
        <path
           d="M 126,15.8 V 482 369 l 44,44 41,37 32,19 47,13 31,3 48,-13 28,-18 22,-32 19,-44 V 15.8"
           style="stroke-width:0.2604in"
           transform="matrix(0.007,0,0,-0.007,15.435,0)"
           id="path30210" />
      </g>
      <g
         transform="translate(47.776,157.846)"
         id="g30220">
        <path
           d="M 274,22.1 V 649 H 56.7 495"
           style="stroke-width:0.2604in"
           transform="scale(0.007,-0.007)"
           id="path30214" />
        <path
           d="m 117,428 66,38 56,16 57,6 44,-16 38,-34 25,-51 3,-69 V 107 22.1 L 403,107 362,78.8 318,47.2 268,25.2 211,15.8 164,31.5 126,56.7 97.6,97.6 V 158 l 22.4,47 50,41 50,19 60,19 57,9 35,3 h 28"
           style="stroke-width:0.2604in"
           transform="matrix(0.007,0,0,-0.007,3.836,0)"
           id="path30216" />
        <path
           d="M 126,15.8 V 482 369 l 44,44 41,37 32,19 47,13 31,3 48,-13 28,-18 22,-32 19,-44 V 15.8"
           style="stroke-width:0.2604in"
           transform="matrix(0.007,0,0,-0.007,7.476,0)"
           id="path30218" />
      </g>
      <g
         transform="translate(47.776,166.596)"
         id="g30230">
        <path
           d="M 346,315 H 520 V 81.9 L 479,53.6 391,22.1 328,18.9 265,31.5 208,63 l -66,76 -44.4,94 -9.4,110 12.8,107 41,95 66,72 66,32 76,13 82,-13 50,-28 35,-29"
           style="stroke-width:0.2604in"
           transform="scale(0.007,-0.007)"
           id="path30222" />
        <path
           d="M 129,18.9 V 482 340 l 29,57 44,57 47,22 44,6 28,-3"
           style="stroke-width:0.2604in"
           transform="matrix(0.007,0,0,-0.007,4.368,0)"
           id="path30224" />
        <path
           d="M 88.2,265 H 435 v 56 l -16,73 -47,56 -48,32 -66,3 -66,-19 -57,-47 -22,-47 -24.8,-60 -6.3,-63 15.7,-76 28.4,-69 57,-56.8 53,-25.1 66,-6.3 57,15.7 54,28.4"
           style="stroke-width:0.2604in"
           transform="matrix(0.007,0,0,-0.007,6.748,0)"
           id="path30226" />
        <path
           d="M 53.5,479 243,3.15 M 406,476 211,-78.8 189,-126 158,-161 120,-183 H 53.5"
           style="stroke-width:0.2604in"
           transform="matrix(0.007,0,0,-0.007,10.276,0)"
           id="path30228" />
      </g>
    </g>
    <g
       inkscape:label="Hershey Text"
       style="fill:none;stroke:#000000;stroke-linecap:round;stroke-linejoin:round"
       id="g30354"
       transform="translate(-1.2913626,-5.1716965)">
      <g
         transform="translate(109.987,35.2607)"
         id="g30242">
        <path
           d="M 129,28.4 V 646 h 183 l 53,-3 54,-22 44,-41 13,-48 V 476 L 454,425 406,391 365,372 309,362 H 135 312 l 53,-9 63,-16 51,-35 28,-31 10,-44 V 164 L 491,104 447,66.1 369,34.6 312,28.4 H 135"
           style="stroke-width:0.2604in"
           transform="scale(0.007,-0.007)"
           id="path30234" />
        <path
           d="M 129,715 V 63 l 6,-22.1 10,-12.5 16,-9.5 h 22"
           style="stroke-width:0.2604in"
           transform="matrix(0.007,0,0,-0.007,4.214,0)"
           id="path30236" />
        <path
           d="M 425,476 V 18.9 139 L 391,97.6 350,56.7 293,25.2 239,15.8 183,31.5 145,63 l -22,41 -3,79 v 293"
           style="stroke-width:0.2604in"
           transform="matrix(0.007,0,0,-0.007,6.069,0)"
           id="path30238" />
        <path
           d="M 88.2,265 H 435 v 56 l -16,73 -47,56 -48,32 -66,3 -66,-19 -57,-47 -22,-47 -24.8,-60 -6.3,-63 15.7,-76 28.4,-69 57,-56.8 53,-25.1 66,-6.3 57,15.7 54,28.4"
           style="stroke-width:0.2604in"
           transform="matrix(0.007,0,0,-0.007,9.947,0)"
           id="path30240" />
      </g>
      <g
         transform="translate(109.987,44.0107)"
         id="g30252">
        <path
           d="M 274,22.1 V 649 H 56.7 495"
           style="stroke-width:0.2604in"
           transform="scale(0.007,-0.007)"
           id="path30244" />
        <path
           d="M 88.2,265 H 435 v 56 l -16,73 -47,56 -48,32 -66,3 -66,-19 -57,-47 -22,-47 -24.8,-60 -6.3,-63 15.7,-76 28.4,-69 57,-56.8 53,-25.1 66,-6.3 57,15.7 54,28.4"
           style="stroke-width:0.2604in"
           transform="matrix(0.007,0,0,-0.007,3.836,0)"
           id="path30246" />
        <path
           d="m 117,428 66,38 56,16 57,6 44,-16 38,-34 25,-51 3,-69 V 107 22.1 L 403,107 362,78.8 318,47.2 268,25.2 211,15.8 164,31.5 126,56.7 97.6,97.6 V 158 l 22.4,47 50,41 50,19 60,19 57,9 35,3 h 28"
           style="stroke-width:0.2604in"
           transform="matrix(0.007,0,0,-0.007,7.364,0)"
           id="path30248" />
        <path
           d="M 129,715 V 63 l 6,-22.1 10,-12.5 16,-9.5 h 22"
           style="stroke-width:0.2604in"
           transform="matrix(0.007,0,0,-0.007,11.004,0)"
           id="path30250" />
      </g>
      <g
         transform="translate(109.987,52.7607)"
         id="g30264">
        <path
           d="M 346,315 H 520 V 81.9 L 479,53.6 391,22.1 328,18.9 265,31.5 208,63 l -66,76 -44.4,94 -9.4,110 12.8,107 41,95 66,72 66,32 76,13 82,-13 50,-28 35,-29"
           style="stroke-width:0.2604in"
           transform="scale(0.007,-0.007)"
           id="path30254" />
        <path
           d="M 129,18.9 V 482 340 l 29,57 44,57 47,22 44,6 28,-3"
           style="stroke-width:0.2604in"
           transform="matrix(0.007,0,0,-0.007,4.368,0)"
           id="path30256" />
        <path
           d="M 88.2,265 H 435 v 56 l -16,73 -47,56 -48,32 -66,3 -66,-19 -57,-47 -22,-47 -24.8,-60 -6.3,-63 15.7,-76 28.4,-69 57,-56.8 53,-25.1 66,-6.3 57,15.7 54,28.4"
           style="stroke-width:0.2604in"
           transform="matrix(0.007,0,0,-0.007,6.748,0)"
           id="path30258" />
        <path
           d="M 88.2,265 H 435 v 56 l -16,73 -47,56 -48,32 -66,3 -66,-19 -57,-47 -22,-47 -24.8,-60 -6.3,-63 15.7,-76 28.4,-69 57,-56.8 53,-25.1 66,-6.3 57,15.7 54,28.4"
           style="stroke-width:0.2604in"
           transform="matrix(0.007,0,0,-0.007,10.276,0)"
           id="path30260" />
        <path
           d="M 126,15.8 V 482 369 l 44,44 41,37 32,19 47,13 31,3 48,-13 28,-18 22,-32 19,-44 V 15.8"
           style="stroke-width:0.2604in"
           transform="matrix(0.007,0,0,-0.007,13.804,0)"
           id="path30262" />
      </g>
      <g
         transform="translate(109.987,61.5107)"
         id="g30278">
        <path
           d="m 334,22.1 82,12.5 82,53.6 56,84.8 29,111 v 103 l -16,85 -31,70 -51,66 -69,41 -70,13 -59,-10 -67,-25 -62,-54 -48,-91 -15.5,-72 -3.1,-108 12.6,-82 31,-75 45,-59.9 50,-41 54,-18.9 50,-3.1"
           style="stroke-width:0.2604in"
           transform="scale(0.007,-0.007)"
           id="path30266" />
        <path
           d="M 129,18.9 V 482 340 l 29,57 44,57 47,22 44,6 28,-3"
           style="stroke-width:0.2604in"
           transform="matrix(0.007,0,0,-0.007,4.739,0)"
           id="path30268" />
        <path
           d="m 117,428 66,38 56,16 57,6 44,-16 38,-34 25,-51 3,-69 V 107 22.1 L 403,107 362,78.8 318,47.2 268,25.2 211,15.8 164,31.5 126,56.7 97.6,97.6 V 158 l 22.4,47 50,41 50,19 60,19 57,9 35,3 h 28"
           style="stroke-width:0.2604in"
           transform="matrix(0.007,0,0,-0.007,7.119,0)"
           id="path30270" />
        <path
           d="M 126,15.8 V 482 369 l 44,44 41,37 32,19 47,13 31,3 48,-13 28,-18 22,-32 19,-44 V 15.8"
           style="stroke-width:0.2604in"
           transform="matrix(0.007,0,0,-0.007,10.759,0)"
           id="path30272" />
        <path
           d="M 170,40.9 123,-3.15 91.4,-56.7 85,-113 l 44,-48 73,-31 85,-10 75,19 76,51 28,47 -3,53.5 -28,50.4 -70,18.9 H 173 l -41,28.3 -19,43.9 10,41 53,60 35,-22 54,-9 66,22 47,44 22,53 v 63 l -25,57 -19,25 -44,28 H 463 312 l -47,10 -73,-6 -50,-41 -29,-57 -3,-63 13,-50 25,-32 28,-25"
           style="stroke-width:0.2604in"
           transform="matrix(0.007,0,0,-0.007,14.665,0)"
           id="path30274" />
        <path
           d="M 88.2,265 H 435 v 56 l -16,73 -47,56 -48,32 -66,3 -66,-19 -57,-47 -22,-47 -24.8,-60 -6.3,-63 15.7,-76 28.4,-69 57,-56.8 53,-25.1 66,-6.3 57,15.7 54,28.4"
           style="stroke-width:0.2604in"
           transform="matrix(0.007,0,0,-0.007,18.235,0)"
           id="path30276" />
      </g>
      <g
         transform="translate(109.987,70.2607)"
         id="g30286">
        <path
           d="M 129,18.9 V 649 h 211 l 51,-16 56,-28 41,-63 v -54 l -9,-60 -38,-53 -47,-29 -76,-18 H 132 312 L 495,18.9"
           style="stroke-width:0.2604in"
           transform="scale(0.007,-0.007)"
           id="path30280" />
        <path
           d="M 88.2,265 H 435 v 56 l -16,73 -47,56 -48,32 -66,3 -66,-19 -57,-47 -22,-47 -24.8,-60 -6.3,-63 15.7,-76 28.4,-69 57,-56.8 53,-25.1 66,-6.3 57,15.7 54,28.4"
           style="stroke-width:0.2604in"
           transform="matrix(0.007,0,0,-0.007,4.06,0)"
           id="path30282" />
        <path
           d="M 438,715 V 22.1 117 L 394,72.4 334,31.5 274,15.8 l -50,9.4 -51,22 -50,53.8 -31.6,72 -6.4,88 22,104 54,79 75,38 60,6 63,-22 41,-25 41,-38"
           style="stroke-width:0.2604in"
           transform="matrix(0.007,0,0,-0.007,7.588,0)"
           id="path30284" />
      </g>
      <g
         transform="translate(109.987,79.0107)"
         id="g30298">
        <path
           d="M 129,28.4 V 646 h 183 l 53,-3 54,-22 44,-41 13,-48 V 476 L 454,425 406,391 365,372 309,362 H 135 312 l 53,-9 63,-16 51,-35 28,-31 10,-44 V 164 L 491,104 447,66.1 369,34.6 312,28.4 H 135"
           style="stroke-width:0.2604in"
           transform="scale(0.007,-0.007)"
           id="path30288" />
        <path
           d="M 129,18.9 V 482 340 l 29,57 44,57 47,22 44,6 28,-3"
           style="stroke-width:0.2604in"
           transform="matrix(0.007,0,0,-0.007,4.214,0)"
           id="path30290" />
        <path
           d="m 287,18.9 h 3 l 63,15.7 60,41 37,63.4 16,69 3,66 -9,60 -22,53 -32,41 -44,38 -47,16 -44,3 -51,-9 -47,-29 -41,-47 -22,-44 -18.6,-66 v -51 l 6.2,-59 15.4,-54 38,-50.4 44,-34.7 48,-18.8 44,-3.2"
           style="stroke-width:0.2604in"
           transform="matrix(0.007,0,0,-0.007,6.594,0)"
           id="path30292" />
        <path
           d="M 59.9,482 198,9.45 h 13 L 343,482 h 19 L 495,9.45 h 12 L 643,482"
           style="stroke-width:0.2604in"
           transform="matrix(0.007,0,0,-0.007,10.521,0)"
           id="path30294" />
        <path
           d="M 126,15.8 V 482 369 l 44,44 41,37 32,19 47,13 31,3 48,-13 28,-18 22,-32 19,-44 V 15.8"
           style="stroke-width:0.2604in"
           transform="matrix(0.007,0,0,-0.007,15.435,0)"
           id="path30296" />
      </g>
      <g
         transform="translate(109.987,87.7607)"
         id="g30308">
        <path
           d="M 346,315 H 520 V 81.9 L 479,53.6 391,22.1 328,18.9 265,31.5 208,63 l -66,76 -44.4,94 -9.4,110 12.8,107 41,95 66,72 66,32 76,13 82,-13 50,-28 35,-29"
           style="stroke-width:0.2604in"
           transform="scale(0.007,-0.007)"
           id="path30300" />
        <path
           d="M 129,18.9 V 482 340 l 29,57 44,57 47,22 44,6 28,-3"
           style="stroke-width:0.2604in"
           transform="matrix(0.007,0,0,-0.007,4.368,0)"
           id="path30302" />
        <path
           d="M 88.2,265 H 435 v 56 l -16,73 -47,56 -48,32 -66,3 -66,-19 -57,-47 -22,-47 -24.8,-60 -6.3,-63 15.7,-76 28.4,-69 57,-56.8 53,-25.1 66,-6.3 57,15.7 54,28.4"
           style="stroke-width:0.2604in"
           transform="matrix(0.007,0,0,-0.007,6.748,0)"
           id="path30304" />
        <path
           d="M 53.5,479 243,3.15 M 406,476 211,-78.8 189,-126 158,-161 120,-183 H 53.5"
           style="stroke-width:0.2604in"
           transform="matrix(0.007,0,0,-0.007,10.276,0)"
           id="path30306" />
      </g>
      <g
         transform="translate(109.987,96.5107)"
         id="g30318">
        <path
           d="M 129,28.4 V 646 h 183 l 53,-3 54,-22 44,-41 13,-48 V 476 L 454,425 406,391 365,372 309,362 H 135 312 l 53,-9 63,-16 51,-35 28,-31 10,-44 V 164 L 491,104 447,66.1 369,34.6 312,28.4 H 135"
           style="stroke-width:0.2604in"
           transform="scale(0.007,-0.007)"
           id="path30310" />
        <path
           d="M 129,715 V 63 l 6,-22.1 10,-12.5 16,-9.5 h 22"
           style="stroke-width:0.2604in"
           transform="matrix(0.007,0,0,-0.007,4.214,0)"
           id="path30312" />
        <path
           d="M 425,476 V 18.9 139 L 391,97.6 350,56.7 293,25.2 239,15.8 183,31.5 145,63 l -22,41 -3,79 v 293"
           style="stroke-width:0.2604in"
           transform="matrix(0.007,0,0,-0.007,6.069,0)"
           id="path30314" />
        <path
           d="M 88.2,265 H 435 v 56 l -16,73 -47,56 -48,32 -66,3 -66,-19 -57,-47 -22,-47 -24.8,-60 -6.3,-63 15.7,-76 28.4,-69 57,-56.8 53,-25.1 66,-6.3 57,15.7 54,28.4"
           style="stroke-width:0.2604in"
           transform="matrix(0.007,0,0,-0.007,9.947,0)"
           id="path30316" />
      </g>
      <g
         transform="translate(109.987,105.261)"
         id="g30330">
        <path
           d="M 346,315 H 520 V 81.9 L 479,53.6 391,22.1 328,18.9 265,31.5 208,63 l -66,76 -44.4,94 -9.4,110 12.8,107 41,95 66,72 66,32 76,13 82,-13 50,-28 35,-29"
           style="stroke-width:0.2604in"
           transform="scale(0.007,-0.007)"
           id="path30320" />
        <path
           d="M 129,18.9 V 482 340 l 29,57 44,57 47,22 44,6 28,-3"
           style="stroke-width:0.2604in"
           transform="matrix(0.007,0,0,-0.007,4.368,0)"
           id="path30322" />
        <path
           d="M 88.2,265 H 435 v 56 l -16,73 -47,56 -48,32 -66,3 -66,-19 -57,-47 -22,-47 -24.8,-60 -6.3,-63 15.7,-76 28.4,-69 57,-56.8 53,-25.1 66,-6.3 57,15.7 54,28.4"
           style="stroke-width:0.2604in"
           transform="matrix(0.007,0,0,-0.007,6.748,0)"
           id="path30324" />
        <path
           d="M 88.2,265 H 435 v 56 l -16,73 -47,56 -48,32 -66,3 -66,-19 -57,-47 -22,-47 -24.8,-60 -6.3,-63 15.7,-76 28.4,-69 57,-56.8 53,-25.1 66,-6.3 57,15.7 54,28.4"
           style="stroke-width:0.2604in"
           transform="matrix(0.007,0,0,-0.007,10.276,0)"
           id="path30326" />
        <path
           d="M 126,15.8 V 482 369 l 44,44 41,37 32,19 47,13 31,3 48,-13 28,-18 22,-32 19,-44 V 15.8"
           style="stroke-width:0.2604in"
           transform="matrix(0.007,0,0,-0.007,13.804,0)"
           id="path30328" />
      </g>
      <g
         transform="translate(109.987,114.011)"
         id="g30344">
        <path
           d="m 334,22.1 82,12.5 82,53.6 56,84.8 29,111 v 103 l -16,85 -31,70 -51,66 -69,41 -70,13 -59,-10 -67,-25 -62,-54 -48,-91 -15.5,-72 -3.1,-108 12.6,-82 31,-75 45,-59.9 50,-41 54,-18.9 50,-3.1"
           style="stroke-width:0.2604in"
           transform="scale(0.007,-0.007)"
           id="path30332" />
        <path
           d="M 129,18.9 V 482 340 l 29,57 44,57 47,22 44,6 28,-3"
           style="stroke-width:0.2604in"
           transform="matrix(0.007,0,0,-0.007,4.739,0)"
           id="path30334" />
        <path
           d="m 117,428 66,38 56,16 57,6 44,-16 38,-34 25,-51 3,-69 V 107 22.1 L 403,107 362,78.8 318,47.2 268,25.2 211,15.8 164,31.5 126,56.7 97.6,97.6 V 158 l 22.4,47 50,41 50,19 60,19 57,9 35,3 h 28"
           style="stroke-width:0.2604in"
           transform="matrix(0.007,0,0,-0.007,7.119,0)"
           id="path30336" />
        <path
           d="M 126,15.8 V 482 369 l 44,44 41,37 32,19 47,13 31,3 48,-13 28,-18 22,-32 19,-44 V 15.8"
           style="stroke-width:0.2604in"
           transform="matrix(0.007,0,0,-0.007,10.759,0)"
           id="path30338" />
        <path
           d="M 170,40.9 123,-3.15 91.4,-56.7 85,-113 l 44,-48 73,-31 85,-10 75,19 76,51 28,47 -3,53.5 -28,50.4 -70,18.9 H 173 l -41,28.3 -19,43.9 10,41 53,60 35,-22 54,-9 66,22 47,44 22,53 v 63 l -25,57 -19,25 -44,28 H 463 312 l -47,10 -73,-6 -50,-41 -29,-57 -3,-63 13,-50 25,-32 28,-25"
           style="stroke-width:0.2604in"
           transform="matrix(0.007,0,0,-0.007,14.665,0)"
           id="path30340" />
        <path
           d="M 88.2,265 H 435 v 56 l -16,73 -47,56 -48,32 -66,3 -66,-19 -57,-47 -22,-47 -24.8,-60 -6.3,-63 15.7,-76 28.4,-69 57,-56.8 53,-25.1 66,-6.3 57,15.7 54,28.4"
           style="stroke-width:0.2604in"
           transform="matrix(0.007,0,0,-0.007,18.235,0)"
           id="path30342" />
      </g>
      <g
         transform="translate(109.987,122.761)"
         id="g30352">
        <path
           d="M 129,18.9 V 649 h 211 l 51,-16 56,-28 41,-63 v -54 l -9,-60 -38,-53 -47,-29 -76,-18 H 132 312 L 495,18.9"
           style="stroke-width:0.2604in"
           transform="scale(0.007,-0.007)"
           id="path30346" />
        <path
           d="M 88.2,265 H 435 v 56 l -16,73 -47,56 -48,32 -66,3 -66,-19 -57,-47 -22,-47 -24.8,-60 -6.3,-63 15.7,-76 28.4,-69 57,-56.8 53,-25.1 66,-6.3 57,15.7 54,28.4"
           style="stroke-width:0.2604in"
           transform="matrix(0.007,0,0,-0.007,4.06,0)"
           id="path30348" />
        <path
           d="M 438,715 V 22.1 117 L 394,72.4 334,31.5 274,15.8 l -50,9.4 -51,22 -50,53.8 -31.6,72 -6.4,88 22,104 54,79 75,38 60,6 63,-22 41,-25 41,-38"
           style="stroke-width:0.2604in"
           transform="matrix(0.007,0,0,-0.007,7.588,0)"
           id="path30350" />
      </g>
    </g>
    <g
       inkscape:label="Hershey Text"
       style="fill:none;stroke:#000000;stroke-linecap:round;stroke-linejoin:round"
       id="g30400"
       transform="translate(-27.253894,-6.3825966)">
      <g
         transform="translate(101.893,144.917)"
         id="g30384">
        <path
           d="M 66.1,655 214,18.9 227,22.1 391,652 h 12 L 570,18.9 h 13 L 724,655"
           style="stroke-width:0.2604in"
           transform="scale(0.007,-0.007)"
           id="path30356" />
        <path
           d="M 126,22.1 V 715 365 l 47,51 41,38 60,25 60,6 69,-38 25,-44 13,-72 V 18.9"
           style="stroke-width:0.2604in"
           transform="matrix(0.007,0,0,-0.007,5.537,0)"
           id="path30358" />
        <path
           d="M 126,15.8 V 479 M 97.6,671 V 621 H 148 v 50 H 97.6"
           style="stroke-width:0.2604in"
           transform="matrix(0.007,0,0,-0.007,9.415,0)"
           id="path30360" />
        <path
           d="M 299,37.8 265,22.1 h -45 l -40,12.5 -35,41 -6,69.4 V 469 H 47.2 290 139 v 142"
           style="stroke-width:0.2604in"
           transform="matrix(0.007,0,0,-0.007,11.179,0)"
           id="path30362" />
        <path
           d="M 88.2,265 H 435 v 56 l -16,73 -47,56 -48,32 -66,3 -66,-19 -57,-47 -22,-47 -24.8,-60 -6.3,-63 15.7,-76 28.4,-69 57,-56.8 53,-25.1 66,-6.3 57,15.7 54,28.4"
           style="stroke-width:0.2604in"
           transform="matrix(0.007,0,0,-0.007,13.517,0)"
           id="path30364" />
        <path
           d="M 126,15.8 V 479 M 97.6,671 V 621 H 148 v 50 H 97.6"
           style="stroke-width:0.2604in"
           transform="matrix(0.007,0,0,-0.007,19.691,0)"
           id="path30366" />
        <path
           d="M 126,15.8 V 482 369 l 44,44 41,37 32,19 47,13 31,3 48,-13 28,-18 22,-32 19,-44 V 15.8"
           style="stroke-width:0.2604in"
           transform="matrix(0.007,0,0,-0.007,21.455,0)"
           id="path30368" />
        <path
           d="M 438,715 V 22.1 117 L 394,72.4 334,31.5 274,15.8 l -50,9.4 -51,22 -50,53.8 -31.6,72 -6.4,88 22,104 54,79 75,38 60,6 63,-22 41,-25 41,-38"
           style="stroke-width:0.2604in"
           transform="matrix(0.007,0,0,-0.007,25.361,0)"
           id="path30370" />
        <path
           d="M 126,15.8 V 479 M 97.6,671 V 621 H 148 v 50 H 97.6"
           style="stroke-width:0.2604in"
           transform="matrix(0.007,0,0,-0.007,29.33,0)"
           id="path30372" />
        <path
           d="M 413,72.4 362,34.6 287,18.9 217,28.4 145,75.6 104,142 88.2,220 v 82 l 24.8,76 51,60 60,34 66,10 56,-10 38,-18 16,-19"
           style="stroke-width:0.2604in"
           transform="matrix(0.007,0,0,-0.007,31.094,0)"
           id="path30374" />
        <path
           d="m 117,428 66,38 56,16 57,6 44,-16 38,-34 25,-51 3,-69 V 107 22.1 L 403,107 362,78.8 318,47.2 268,25.2 211,15.8 164,31.5 126,56.7 97.6,97.6 V 158 l 22.4,47 50,41 50,19 60,19 57,9 35,3 h 28"
           style="stroke-width:0.2604in"
           transform="matrix(0.007,0,0,-0.007,34.398,0)"
           id="path30376" />
        <path
           d="M 299,37.8 265,22.1 h -45 l -40,12.5 -35,41 -6,69.4 V 469 H 47.2 290 139 v 142"
           style="stroke-width:0.2604in"
           transform="matrix(0.007,0,0,-0.007,38.038,0)"
           id="path30378" />
        <path
           d="M 88.2,265 H 435 v 56 l -16,73 -47,56 -48,32 -66,3 -66,-19 -57,-47 -22,-47 -24.8,-60 -6.3,-63 15.7,-76 28.4,-69 57,-56.8 53,-25.1 66,-6.3 57,15.7 54,28.4"
           style="stroke-width:0.2604in"
           transform="matrix(0.007,0,0,-0.007,40.376,0)"
           id="path30380" />
        <path
           d="m 66.1,78.8 56.9,-37.9 63,-18.8 50,-6.3 63,22 47,37.8 16,56.4 -12,57 -57,47 -79,32 -72,31 -41,41 -9.6,47 15.6,45 51,44 62,9 64,-13 53,-31"
           style="stroke-width:0.2604in"
           transform="matrix(0.007,0,0,-0.007,43.904,0)"
           id="path30382" />
      </g>
      <g
         transform="translate(101.893,153.667)"
         id="g30398">
        <path
           d="M 123,15.8 V 479 375 l 44,38 41,34 38,25 47,13 41,-6 28,-13 32,-31 22,-54 6,-66 V 15.8 365 l 13,26 66,59 50,26 41,12 44,-12 29,-16 34,-41 16,-82 V 18.9"
           style="stroke-width:0.2604in"
           transform="scale(0.007,-0.007)"
           id="path30386" />
        <path
           d="M 88.2,265 H 435 v 56 l -16,73 -47,56 -48,32 -66,3 -66,-19 -57,-47 -22,-47 -24.8,-60 -6.3,-63 15.7,-76 28.4,-69 57,-56.8 53,-25.1 66,-6.3 57,15.7 54,28.4"
           style="stroke-width:0.2604in"
           transform="matrix(0.007,0,0,-0.007,5.845,0)"
           id="path30388" />
        <path
           d="M 299,37.8 265,22.1 h -45 l -40,12.5 -35,41 -6,69.4 V 469 H 47.2 290 139 v 142"
           style="stroke-width:0.2604in"
           transform="matrix(0.007,0,0,-0.007,9.373,0)"
           id="path30390" />
        <path
           d="M 129,18.9 V 482 340 l 29,57 44,57 47,22 44,6 28,-3"
           style="stroke-width:0.2604in"
           transform="matrix(0.007,0,0,-0.007,11.711,0)"
           id="path30392" />
        <path
           d="M 126,15.8 V 479 M 97.6,671 V 621 H 148 v 50 H 97.6"
           style="stroke-width:0.2604in"
           transform="matrix(0.007,0,0,-0.007,14.091,0)"
           id="path30394" />
        <path
           d="M 413,72.4 362,34.6 287,18.9 217,28.4 145,75.6 104,142 88.2,220 v 82 l 24.8,76 51,60 60,34 66,10 56,-10 38,-18 16,-19"
           style="stroke-width:0.2604in"
           transform="matrix(0.007,0,0,-0.007,15.855,0)"
           id="path30396" />
      </g>
    </g>
  </g>
</svg>
