<?xml version="1.0" encoding="UTF-8" standalone="no"?>
<!-- Created with Inkscape (http://www.inkscape.org/) -->

<svg
   width="215mm"
   height="144.29857mm"
   viewBox="0 0 215 144.29857"
   version="1.1"
   id="svg991"
   inkscape:version="1.2.2 (732a01da63, 2022-12-09)"
   sodipodi:docname="master.svg"
   xml:space="preserve"
   xmlns:inkscape="http://www.inkscape.org/namespaces/inkscape"
   xmlns:sodipodi="http://sodipodi.sourceforge.net/DTD/sodipodi-0.dtd"
   xmlns:xlink="http://www.w3.org/1999/xlink"
   xmlns="http://www.w3.org/2000/svg"
   xmlns:svg="http://www.w3.org/2000/svg"><sodipodi:namedview
     id="namedview993"
     pagecolor="#ffffff"
     bordercolor="#000000"
     borderopacity="0.25"
     inkscape:showpageshadow="2"
     inkscape:pageopacity="0.0"
     inkscape:pagecheckerboard="0"
     inkscape:deskcolor="#d1d1d1"
     inkscape:document-units="mm"
     showgrid="false"
     inkscape:zoom="12.947805"
     inkscape:cx="756.61473"
     inkscape:cy="386.0886"
     inkscape:window-width="1920"
     inkscape:window-height="1129"
     inkscape:window-x="1912"
     inkscape:window-y="-8"
     inkscape:window-maximized="1"
     inkscape:current-layer="layer1" /><defs
     id="defs988" /><g
     inkscape:label="Layer 1"
     inkscape:groupmode="layer"
     id="layer1"><image
       width="215"
       height="144.29892"
       preserveAspectRatio="none"
       style="opacity:0.421053;image-rendering:optimizeQuality"
       xlink:href="satellite.png"
       id="image491"
       x="0"
       y="-7.1054274e-15" /><path
       style="fill:#000000;fill-opacity:1;stroke:#0000ff;stroke-width:0.631098;stroke-linecap:round;stroke-dasharray:none;stroke-opacity:1"
       d="m 184.44541,22.239812 -6.22444,55.040964"
       id="path1236" /><path
       style="fill:#000000;fill-opacity:1;stroke:#0000ff;stroke-width:0.631098;stroke-linecap:round;stroke-dasharray:none;stroke-opacity:1"
       d="M 129.33458,48.606365 181.71784,20.491358"
       id="path3304" /><path
       style="fill:#000000;fill-opacity:1;stroke:#0000ff;stroke-width:0.631098;stroke-linecap:round;stroke-dasharray:none;stroke-opacity:1"
       d="M 142.37331,48.513278 122.12216,95.469241"
       id="path3306" /><path
       style="fill:#000000;fill-opacity:1;stroke:#0000ff;stroke-width:0.631098;stroke-linecap:round;stroke-dasharray:none;stroke-opacity:1"
       d="M 138.02141,48.884182 44.307358,110.60196"
       id="path3308" /><path
       style="fill:none;fill-opacity:1;stroke:#f50000;stroke-width:0.252456;stroke-linecap:round;stroke-dasharray:2.52455, 2.52455;stroke-dashoffset:0;stroke-opacity:1"
       d="m 178.29902,77.462907 c 0,0 0.52673,-0.22575 0.60198,-0.41388 0.0752,-0.18811 0.22576,-0.677208 0.41386,-0.940557 0.18813,-0.263391 0.41387,-0.71487 0.63961,-0.865349 0.22573,-0.1505 0.63959,-0.601979 1.24156,-0.79012 0.60199,-0.188088 1.39208,-0.526708 1.95645,-0.752458 0.56432,-0.225739 1.69303,-0.714849 2.33263,-1.053458 0.6396,-0.33862 0.86535,-0.526718 1.61782,-0.865349 0.75246,-0.338598 0.86536,-0.338598 1.35446,-0.978197 0.48909,-0.639609 0.75246,-0.60199 0.86535,-0.940588 0.11272,-0.338611 0.5267,-1.16633 0.60196,-1.354442 0.0752,-0.188126 0.11279,-0.338631 0.15049,-0.790108 0.0375,-0.451488 0.0375,-0.978206 0.37624,-1.316817 0.33859,-0.338633 0.45149,0.225735 1.05343,-0.902957 0.602,-1.128724 0.63961,-1.0911 0.75251,-2.182178 0.11273,-1.09109 0.18808,-1.39207 0.0752,-1.881169 -0.11286,-0.489116 -0.79013,-1.655442 -0.79013,-1.655442 l 0.301,-2.069289 c 0,0 0.75247,-2.67129 0.86534,-2.859389 0.11269,-0.18814 0.97821,-1.730693 1.24159,-2.031686 0.26335,-0.300989 1.84354,-2.332655 1.84354,-2.332655 0,0 1.24157,-1.46732 1.35447,-1.730674 0.1127,-0.263372 1.2792,-2.069297 1.31683,-2.29504 0.0375,-0.22574 0.30098,-1.655441 0.52669,-1.881185 0.22576,-0.225739 1.31681,-0.940588 1.31681,-0.940588 l 0.56435,-1.542557 0.48914,-3.047487 c 0,0 0.26332,-2.257395 0.22573,-2.407895 -0.0375,-0.150521 -0.56432,-1.806 -0.56432,-1.806 l -1.54262,-1.542567 c 0,0 -0.60196,-1.128656 -0.67721,-1.392036 -0.0751,-0.263328 -0.15048,-1.542578 -0.0751,-1.843547 0.0751,-0.300989 0.22572,-1.128697 0.22572,-1.392057 0,-0.263327 -0.79011,-1.504937 -0.90295,-1.655447 -0.11291,-0.150458 -1.58021,-0.677261 -1.80596,-0.752511 -0.22574,-0.07488 -2.89701,-0.677176 -2.89701,-0.677176 l -1.69304,-0.978198 -1.80594,-0.865369 -2.29504,-1.354385 -0.30099,-0.301042"
       id="path9492" /><path
       style="fill:none;fill-opacity:1;stroke:#f50000;stroke-width:0.252456;stroke-linecap:round;stroke-dasharray:2.52455, 2.52455;stroke-dashoffset:0;stroke-opacity:1"
       d="m 178.33665,77.425277 -0.97822,-0.752479 -1.42969,0.263369 -2.06929,0.30099 c 0,0 -1.09108,0.18812 -1.46731,0.22575 -0.37624,0.03755 -2.3703,0.188109 -2.59604,0.22575 -0.22573,0.03755 -2.21979,-0.112891 -2.21979,-0.112891 0,0 -1.84355,-0.865349 -2.03167,-0.865349 -0.18811,0 -1.9188,-0.451468 -1.9188,-0.451468 0,0 -1.31682,-0.564359 -1.54256,-0.639609 -0.22573,-0.0752 -2.97227,-1.316818 -2.97227,-1.316818 l -1.54255,-0.526729 -0.56437,-0.639609 -1.31682,-0.26337 -1.35445,0.45149 c 0,0 -1.1287,0.677229 -1.46732,0.790099 -0.33861,0.112806 -1.88116,0.978208 -1.88116,0.978208 l -1.16632,0.978218 -1.69308,0.338609 -0.75247,-0.03755"
       id="path10278" /><path
       style="fill:none;fill-opacity:1;stroke:#f50000;stroke-width:0.252456;stroke-linecap:round;stroke-dasharray:2.52455, 2.52455;stroke-dashoffset:0;stroke-opacity:1"
       d="m 158.77241,74.189653 c 0,0 0,-1.015849 0.0751,-1.166339 0.0752,-0.150489 0.0752,-0.978208 0.18814,-1.392078 0.11276,-0.413838 0.4891,-2.069296 0.56432,-2.332654 0.0751,-0.263357 0.33865,-0.714828 0.52674,-1.241564 0.18813,-0.526738 0.37623,-1.166335 0.67722,-1.655434 0.301,-0.489112 0.56436,-0.94058 0.9406,-1.354456 0.37623,-0.413847 0.41386,-0.526724 1.20396,-0.827715 0.79008,-0.300994 1.88117,-0.714847 2.40791,-0.978201 0.52672,-0.263374 0.94057,-0.790117 1.65541,-1.128723 0.71486,-0.338608 1.7307,-0.90296 2.29506,-1.166325 0.56434,-0.263357 1.95641,-1.12871 2.4079,-1.46732 0.45149,-0.3386 1.80594,-0.601963 1.84356,-0.752475 0.0375,-0.150491 0.82771,-2.407901 0.82771,-2.407901 0,0 0.67724,-1.580192 0.90297,-1.956421 0.22573,-0.376236 1.35444,-0.902971 1.54255,-1.091089 0.18811,-0.188105 1.20396,-0.940583 1.35445,-1.166325 0.15049,-0.225748 1.99407,-0.67722 2.18218,-0.714846 0.18811,-0.03755 1.95641,-0.263362 1.95641,-0.263362 0,0 0.97821,-1.166328 1.31682,-1.429701 0.33861,-0.263349 1.01583,-0.865337 1.6178,-1.12869 0.60198,-0.263379 1.76834,-0.865365 2.40792,-1.015858 0.63961,-0.150482 1.09109,-0.188098 1.80594,-0.48909 0.71483,-0.300991 1.50496,-1.053458 1.58019,-1.467313 0.0752,-0.413882 0.33862,-1.241592 0.48909,-1.354448 0.15051,-0.112849 1.91881,-0.978218 1.91881,-0.978218 0,0 1.50493,-1.203967 1.54256,-1.354446 0.0376,-0.150507 0.7901,-1.655456 0.7901,-1.655456 0,0 0.22575,-0.564365 0.33861,-0.978157 0.11274,-0.413911 0.60196,-1.580208 0.60196,-1.806 0,-0.22575 0.22576,-1.730613 0.26339,-2.031666 0.0374,-0.30101 0.56436,-1.730624 0.75247,-1.918806 0.18811,-0.188099 0.79012,-1.015797 0.79012,-1.015797 l 0.33857,-0.52675"
       id="path10280" /><path
       style="fill:none;fill-opacity:1;stroke:#f50000;stroke-width:0.252456;stroke-linecap:round;stroke-dasharray:2.52455, 2.52455;stroke-dashoffset:0;stroke-opacity:1"
       d="m 196.09496,39.049288 -0.45149,-1.279208 c 0,0 -0.67722,-0.564338 -0.90296,-0.677282 -0.22573,-0.112785 -1.39208,-0.677176 -1.73069,-0.790077 -0.33862,-0.112786 -0.79008,-0.150458 -1.16632,-0.263339 -0.37626,-0.11289 -2.82177,-0.714796 -3.16039,-0.714796 -0.33859,0 -1.05346,-0.113017 -1.35445,-0.22575 -0.30097,-0.112859 -1.01584,0.03797 -1.73067,-0.112859 -0.71486,-0.150521 -2.59604,-0.677261 -3.27326,-0.82775 -0.67721,-0.1505 -0.97821,-0.07499 -1.76829,-0.33862 -0.79011,-0.263296 -3.12276,-1.166254 -3.12276,-1.166254 0,0 -1.01584,-1.053479 -1.16632,-1.35449 -0.15052,-0.301031 -0.75248,-1.392088 -0.75248,-1.392088 l 0.15049,-1.429656 0.4891,-1.015817"
       id="path10282" /><path
       style="fill:none;fill-opacity:1;stroke:#f50000;stroke-width:0.252456;stroke-linecap:round;stroke-dasharray:2.52455, 2.52455;stroke-dashoffset:0;stroke-opacity:1"
       d="m 185.29701,72.684694 -0.18813,-0.827708 -0.94058,-0.338598 c 0,0 -0.71485,0.188098 -0.97822,0.413838 -0.26336,0.225771 -0.7901,0.52675 -0.7901,0.52675 0,0 -0.82772,-0.112733 -0.97822,-0.26337 -0.15048,-0.1505 -0.60196,-0.677218 -0.8277,-1.128708 -0.22575,-0.451489 -0.41386,-1.504958 -0.41386,-1.655435 0,-0.150506 0.0374,-0.790091 0.30099,-1.09108 0.26336,-0.300985 0.75247,-1.05347 0.75247,-1.05347 0,0 0.71485,-1.316819 0.86534,-1.768286 0.1505,-0.451499 0.37624,-0.827737 0.75248,-1.617824 0.37623,-0.7901 0.71484,-1.241581 0.71484,-1.61781 0,-0.376235 0,-1.542563 0,-1.994054 0,-0.451485 -0.56437,-2.295024 -0.56437,-2.295024 0,0 -0.48909,-1.053476 -0.60197,-1.279206 -0.11284,-0.225747 -0.41385,-0.63961 -0.52673,-0.790103 -0.11278,-0.150499 -0.63959,-0.564352 -0.63959,-0.564352 l -1.09108,-0.601978 c 0,0 -0.4891,-0.97821 -0.52673,-1.128688 -0.0375,-0.150512 -0.37623,-1.80594 -0.37623,-1.80594"
       id="path10284" /><path
       style="fill:none;fill-opacity:1;stroke:#f50000;stroke-width:0.252456;stroke-linecap:round;stroke-dasharray:2.52455, 2.52455;stroke-dashoffset:0;stroke-opacity:1"
       d="m 175.66537,76.898537 -0.90296,-1.392067 -0.94058,-1.504937 c 0,0 -0.26337,-1.091089 -0.26337,-1.279198 0,-0.18813 -0.0751,-1.128718 -0.0751,-1.429687 0,-0.301 0.30098,-0.752489 0.30098,-0.752489 0,0 0.60198,-1.166316 0.71483,-1.392059 0.11296,-0.225739 0.63963,-1.241581 0.71488,-1.504946 0.0751,-0.263363 0.75246,-1.994052 0.75246,-1.994052 l 0.67723,-1.994032 c 0,0 0.86535,-0.752487 0.94059,-0.940597 0.0751,-0.188118 0.26337,-0.865337 0.30099,-1.279193 0.0374,-0.413874 0.11277,-1.693061 0.11277,-1.843563 0,-0.150499 0.37623,-1.354447 0.37623,-1.354447 0,0 0.30099,-1.166328 0.33863,-1.429704 0.0375,-0.263356 0.37624,-1.354445 0.37624,-1.354445 l 0.11284,-1.015838 0.0375,-0.827695"
       id="path10286" /><path
       style="fill:none;fill-opacity:1;stroke:#f50000;stroke-width:0.252456;stroke-linecap:round;stroke-dasharray:2.52455, 2.52455;stroke-dashoffset:0;stroke-opacity:1"
       d="m 158.84765,73.098564 c 0,0 0.90295,-0.376229 1.35446,-0.451479 0.45147,-0.07509 1.01582,-0.300979 1.84354,-0.451479 0.82772,-0.1505 3.16039,-0.639599 3.16039,-0.639599 0,0 0.67722,-0.300979 1.69306,-0.338609 1.01582,-0.03755 2.897,-0.564359 3.08511,-0.677239 0.18813,-0.11287 0.79011,-0.790078 1.50495,-0.940568 0.71485,-0.150496 2.85938,-0.790104 2.85938,-0.790104 l 0.56436,-0.188115"
       id="path10288" /><path
       style="fill:none;fill-opacity:1;stroke:#f50000;stroke-width:0.252756;stroke-linecap:round;stroke-dasharray:2.52756, 0.252756;stroke-dashoffset:0;stroke-opacity:1"
       d="m 171.52678,69.56194 c 0,0 -0.60197,1.015849 -0.6396,1.241599 -0.0374,0.225739 -0.37623,0.978197 -0.37623,1.166317 0,0.188141 -0.1505,0.677229 -0.26336,1.091099 -0.11283,0.413849 -0.22575,0.978208 -0.26338,1.279187 -0.0375,0.301 0.22574,1.504937 0.22574,1.504937 0,0 0.52675,0.752479 0.71486,0.865349 0.18812,0.112817 0.67722,0.790088 0.67722,0.790088"
       id="path10290" /><path
       style="fill:none;fill-opacity:1;stroke:#f50000;stroke-width:0.252456;stroke-linecap:round;stroke-dasharray:2.52455, 2.52455;stroke-dashoffset:0;stroke-opacity:1"
       d="m 43.828076,110.89983 c 0,0 -0.05359,-0.93114 0,-1.03755 0.05129,-0.10645 0.212766,-0.74491 0.372433,-0.95773 0.159739,-0.21284 0.558538,-1.06417 0.611827,-1.27699 0.05296,-0.21285 -0.02674,-1.72925 -0.02674,-1.72925 0,0 -0.45235,-0.7715 -0.585167,-0.82473 -0.133143,-0.0533 -1.888969,-0.77151 -1.888969,-0.77151 l -2.766893,-1.80906 -1.409876,-1.56963 -2.128447,-1.41 -3.325379,-2.873218 c 0,0 -1.25045,-1.729239 -1.356818,-1.888864 -0.108769,-0.159624 -1.96877,-1.888885 -1.96877,-1.888885 0,0 -1.250189,-1.356797 -1.383426,-1.489814 -0.132713,-0.133027 -1.862183,-1.809073 -2.048446,-1.995305 -0.186096,-0.1862 -1.809052,-1.702632 -1.888907,-1.888864 -0.07971,-0.186211 -1.090658,-1.543028 -1.19712,-1.888874 -0.108391,-0.345836 -0.425658,-2.420932 -0.425658,-2.607185 0,-0.186211 1.090669,-1.303592 1.250493,-1.330189 0.159656,-0.02653 1.755711,-0.877913 2.075096,-0.957746 0.319165,-0.07981 1.35665,-0.532068 2.074918,-0.665095 0.718372,-0.133006 2.394554,-0.744896 3.671382,-0.771493 1.276963,-0.02664 3.565067,-0.691713 4.017301,-0.744907 0.452213,-0.05328 1.968739,-0.21285 2.74018,-0.02664 0.771546,0.186221 2.15494,0.07981 3.086026,0.02664 0.931223,-0.05328 2.154992,0.106451 2.873313,0.106451 0.718226,0 3.192288,-0.665105 3.192288,-0.665105 l 1.809304,-0.877913 c 0,0 0.478716,-0.638498 0.558559,-0.798122 0.0774,-0.159625 0.372422,-0.61189 0.851254,-0.744897 0.478946,-0.133027 0.851284,-0.372463 1.622883,-0.399061 0.771461,-0.02653 1.569657,0.05328 2.075043,0.159614 0.505554,0.106525 2.766851,-0.106514 3.032853,-0.212829 0.266107,-0.106472 1.755868,-0.877934 1.755868,-0.877934 0,0 1.835733,-0.851305 1.888917,-0.984333 0.05223,-0.133027 1.968613,-1.942089 1.968613,-1.942089 0,0 1.702696,-2.048488 1.729303,-2.154916 0.02653,-0.106497 2.420953,-2.261325 2.420953,-2.261325 l 2.580671,-1.516403 c 0,0 3.245493,-1.968689 3.671088,-2.128319 0.425847,-0.159634 3.697999,-1.835679 3.804419,-1.915485 0.108171,-0.07979 4.043772,-2.101708 4.043772,-2.101708 l 4.549295,-1.649443 4.735527,-1.064141 c 0,0 3.937542,-0.824734 4.256633,-0.824734 0.319029,0 3.352133,-0.505458 3.59156,-0.532061 0.239468,-0.02664 3.431968,0.691687 3.431968,0.691687 l 2.95288,1.090744 2.23468,0.665087 3.67131,-0.186208 2.87321,0.292643 2.10172,0.05325 c 0,0 1.67604,-1.33017 1.70264,-1.436597 0.0265,-0.106484 1.27698,-1.250383 1.3834,-1.356802 0.10648,-0.106502 1.59624,-0.425646 1.70266,-0.452258 0.10647,-0.02656 1.99528,-0.07983 2.28792,-0.07983 0.29265,0 2.39435,0.212827 2.52737,0.212827 0.13303,0 2.79341,-0.0798 2.79341,-0.0798 l 2.47417,-0.07983 1.22377,-0.07979 2.74019,-1.463221 2.0485,-1.117355 0.61189,-0.638494"
       id="path11018" /><path
       style="fill:none;fill-opacity:1;stroke:#f50000;stroke-width:0.252456;stroke-linecap:round;stroke-dasharray:2.52455, 2.52455;stroke-dashoffset:0;stroke-opacity:1"
       d="m 47.605763,77.804631 c 0,0 2.234762,-0.159614 2.500701,-0.186232 0.266254,-0.02664 1.410138,-0.159624 2.101903,0.266044 0.69165,0.425648 1.463038,1.223791 1.675962,1.543029 0.212913,0.319259 0.691629,1.649428 0.984448,1.862267 0.292495,0.21284 1.250262,0.851327 1.569353,0.904521 0.319364,0.05328 2.793438,0.05328 3.325557,0.05328 0.532036,0 1.197131,-0.133027 1.675952,0 0.479062,0.133006 1.756046,0.744886 1.915692,0.877924 0.159519,0.133016 1.516274,0.90452 1.622683,0.984343 0.108213,0.07981 1.356923,0.665105 1.516621,0.718299 0.159435,0.05328 1.383236,0.372464 1.59616,0.478863 0.212808,0.106451 1.143863,0.425679 1.276984,0.505481 0.132839,0.07992 0.771546,0.957746 0.771546,1.064155 0,0.106493 0.05139,0.957726 0.05139,0.957726 l -0.399102,0.931138 c 0,0 -0.931118,0.478884 -1.03759,0.585304 -0.108266,0.106503 -0.638299,0.638476 -0.638299,0.744886 0,0.106493 0.31906,1.410012 0.31906,1.410012 l 1.835754,0.611879 c 0,0 0.904458,-0.159603 1.596244,-0.266034 0.691671,-0.106461 3.6447,-0.931117 3.884304,-1.090742 0.239353,-0.159635 0.74476,-0.452265 1.330158,-0.452265 0.585178,0 1.409802,0.05328 1.915336,0.133006 0.505596,0.07981 2.208112,0.319259 2.367863,0.319259 0.15953,0 1.46308,0 1.782276,0 0.319459,0 2.075233,0.292641 2.075233,0.292641 0,0 1.915408,0.61188 2.20828,0.61188 0.292463,0 1.941996,0.21284 1.941996,0.21284 0,0 1.117203,-0.505471 1.250293,-0.691713 0.133111,-0.186222 0.345793,-0.984344 0.531973,-1.409981 0.186421,-0.425668 0.372674,-1.410033 0.771514,-1.649448 0.399072,-0.239447 2.07518,-0.665095 2.633908,-0.824719 0.558591,-0.159625 1.755784,-0.50547 2.234678,-0.452276 0.478905,0.05328 1.86232,0.345856 2.181485,0.452276 0.319364,0.106493 2.075201,0.718289 2.075201,0.718289 l 2.04878,0.425647 c 0,0 3.24565,0.239458 3.56488,0.239458 0.31924,0 1.01094,0 1.62281,0.07981 0.61188,0.07992 2.10173,0.239426 2.68702,0.159624 0.58526,-0.07981 2.04848,-0.319249 2.36774,-0.319249 0.31924,0 3.21905,0.904511 3.32547,0.931118 0.1066,0.02653 1.86236,0.744918 2.26141,0.877924 0.3992,0.133017 2.5009,0.532088 2.71374,0.61189 0.21291,0.07981 1.59632,0.399092 1.59632,0.399092 l 1.46377,0.611869 1.9421,0.904511 1.30357,0.399071 c 0,0 1.03755,0.239416 1.38341,0.212819 0.34585,-0.02653 1.67603,-0.399051 1.99529,-0.691703 0.31925,-0.29262 0.7449,-0.798101 0.8247,-1.090752 0.0798,-0.292631 0.21284,-0.984333 0.21284,-0.984333 0,0 -0.53208,-0.159635 -0.74489,-0.133027 -0.21285,0.02664 -0.5055,0.372453 -0.71832,0.478852 -0.21282,0.106514 -0.69169,0.372474 -0.87792,0.452286 -0.18623,0.07981 -0.95776,0.292642 -1.09075,0.319249 -0.13303,0.02643 -0.47889,0.05328 -0.71831,-0.106525 -0.23945,-0.159613 -0.71831,-0.452255 -0.90454,-0.558685 -0.18623,-0.106472 -1.3834,-0.798101 -1.54302,-0.824708 -0.15963,-0.02653 -2.42096,-0.771515 -2.42096,-0.771515 l -1.11736,-0.611879 c 0,0 -0.79812,-0.957747 -0.93114,-1.064177 -0.13302,-0.106441 -3.03283,-1.01093 -3.03283,-1.01093 0,0 -2.12831,-0.505481 -2.42097,-0.638487 -0.29262,-0.133017 -1.99527,-0.771504 -2.79339,-0.904521 -0.79813,-0.133038 -3.45852,-0.478873 -3.91074,-0.638518 -0.45235,-0.159614 -1.88889,-0.452245 -1.88889,-0.452245 l -1.75585,-0.505481 c 0,0 -2.28792,-0.638476 -2.50081,-0.798122 -0.21275,-0.159613 -1.86213,-1.064155 -2.02185,-1.170575 -0.15969,-0.106483 -2.420942,-1.330189 -2.580546,-1.543018 -0.159614,-0.21284 -1.968792,-0.931129 -2.154887,-1.170555 -0.186316,-0.239468 -0.798164,-1.43663 -0.798164,-1.43663 l -0.532088,-2.075096 c 0,0 -0.05097,-1.489813 -0.07845,-1.702642 -0.02622,-0.212829 -2.02208,-1.569626 -2.02208,-1.569626 l -1.51618,-0.71831 c 0,0 -1.250493,-1.250388 -1.410075,-1.543018 -0.159698,-0.292652 -0.691556,-1.51642 -0.744792,-1.809052 -0.05317,-0.292667 -0.532004,-1.83568 -0.611953,-2.314553 -0.07792,-0.478874 -0.452255,-2.367745 -0.452255,-2.60718 0,-0.23943 -0.05233,-1.037542 0.159677,-1.117356 0.212609,-0.07979 1.117224,-0.505474 1.596034,-0.505474 0.478989,0 1.782717,-0.07986 2.1816,-0.07986 0.399197,0 1.59616,0.319255 1.675878,0.478875 0.07803,0.15963 0.771462,1.064147 0.904856,1.463206 0.132765,0.399066 0.425511,0.585287 0.37238,1.037563 -0.05412,0.452258 -0.108119,1.383383 0.02528,1.489809 0.133247,0.106474 0.133247,0.21283 0.133247,0.21283"
       id="path11020" /><path
       style="fill:none;fill-opacity:1;stroke:#f50000;stroke-width:0.252456;stroke-linecap:round;stroke-dasharray:2.52455, 2.52455;stroke-dashoffset:0;stroke-opacity:1"
       d="m 38.879668,101.6949 c 0,0 1.277005,-0.47888 1.543018,-0.6651 0.26595,-0.18622 1.27689,-0.61191 1.809104,-0.85131 0.532235,-0.239462 1.489845,-1.06416 1.702612,-1.276989 0.212912,-0.21284 0.718257,-0.744918 0.851421,-1.516421 0.133048,-0.771515 0.47881,-2.873229 0.558674,-3.112666 0.07814,-0.239447 0.505544,-1.010951 0.611838,-1.543018 0.10814,-0.532078 0.452255,-2.34113 0.585251,-2.633792 0.133132,-0.292631 0.61189,-1.117339 0.798122,-1.356797 0.186054,-0.239415 0.665252,-0.931138 0.957673,-1.01094 0.292872,-0.07981 0.824771,-0.05328 1.223738,-0.186243 0.399334,-0.132995 1.090794,-0.266012 1.383719,-0.345835 0.292452,-0.07981 0.744529,-0.186221 0.904321,-0.372443 0.15973,-0.186232 0.797975,-0.771514 0.797975,-0.771514 0,0 1.117529,-0.851327 1.330368,-1.11736 0.21284,-0.266045 0.611817,-0.957747 0.824656,-1.197183 0.212892,-0.239426 1.064261,-1.410012 1.064261,-1.410012 l 0.319238,-0.239416"
       id="path11022" /><path
       style="fill:none;fill-opacity:1;stroke:#f50000;stroke-width:0.252456;stroke-linecap:round;stroke-dasharray:2.52455, 2.52455;stroke-dashoffset:0;stroke-opacity:1"
       d="m 44.439966,105.2598 c 0,0 1.27688,-0.87792 1.383352,-0.90451 0.108276,-0.0266 0.931086,-1.06417 1.117371,-1.3036 0.186263,-0.23942 0.771588,-1.25037 0.957673,-1.67604 0.186316,-0.42567 0.665084,-1.35679 0.984521,-1.729263 0.319092,-0.372454 1.675973,-1.410002 1.994991,-1.596213 0.319416,-0.186232 0.984637,-0.452276 1.596411,-0.771525 0.611786,-0.319238 3.538376,-1.72925 3.538376,-1.72925 0,0 1.995179,-0.665095 2.181484,-0.718299 0.186086,-0.05328 3.697938,-1.010941 3.697938,-1.010941 0,0 3.272247,-0.718309 3.485076,-0.718309 0.212693,0 0.984281,0.02653 1.383394,0 0.399145,-0.02653 2.02185,-0.372454 2.02185,-0.372454 l 1.250366,-0.771525"
       id="path11024" /><path
       style="fill:none;fill-opacity:1;stroke:#f50000;stroke-width:0.252456;stroke-linecap:round;stroke-dasharray:2.52455, 2.52455;stroke-dashoffset:0;stroke-opacity:1"
       d="m 61.572781,82.300669 c 0,0 0.108245,-1.170554 0.108245,-1.383383 0,-0.21285 -0.07792,-0.93115 -0.212986,-1.303593 -0.132797,-0.372463 -0.505355,-1.436609 -0.532047,-1.702642 -0.02601,-0.266034 -0.186211,-1.090774 -0.186211,-1.436609 0,-0.345867 0.239584,-0.984354 0.399166,-1.436609 0.159562,-0.452266 0.186295,-0.71831 0.292683,-1.037548 0.108046,-0.31926 0.531984,-1.197183 0.531984,-1.197183 l 0.319144,-0.744907"
       id="path11026" /><path
       style="fill:none;fill-opacity:1;stroke:#f50000;stroke-width:0.252456;stroke-linecap:round;stroke-dasharray:2.52455, 2.52455;stroke-dashoffset:0;stroke-opacity:1"
       d="m 65.004894,68.785923 c 0,0 1.702454,-0.05328 2.207998,-0.07981 0.505502,-0.0266 2.234637,-0.05326 3.245713,-0.186232 1.010815,-0.133028 3.378731,-0.133028 4.096998,-0.18624 0.718299,-0.05326 1.968613,-0.02656 2.846652,-0.133016 0.877976,-0.106495 3.218875,-0.106495 4.070244,-0.21282 0.851368,-0.106499 2.686902,-0.45227 3.830828,-0.532073 1.143936,-0.07993 3.831205,-0.665099 4.283272,-0.69171 0.452276,-0.02661 3.618345,-0.292644 3.72466,-0.292644 0.108674,0 2.39425,-0.10651 2.39425,-0.10651 0,0 1.436861,0.10651 1.729261,0.10651 0.292767,0 1.888927,0 2.101578,-0.07977 0.212986,-0.0798 1.170792,-0.399064 1.330372,-0.478869 0.15956,-0.07975 1.0375,-0.319241 1.0375,-0.319241 0,0 0.39915,-0.372474 0.50541,-0.691719 0.10788,-0.31924 0.2661,-1.064147 0.31936,-1.303576 0.0522,-0.23944 0.42561,-1.25038 0.42561,-1.383405 0,-0.133009 0.34591,-0.771514 0.34591,-0.771514 0,0 0.0784,-0.532068 0.0784,-0.82472 0,-0.292625 0.13302,-1.197184 0.13302,-1.330191 0,-0.133014 0.26609,-0.665097 0.45226,-0.851319 0.18625,-0.186217 1.80919,-0.984353 1.80919,-0.984353 l 0.53202,-0.106474"
       id="path11028" /><path
       style="fill:none;fill-opacity:1;stroke:#f50000;stroke-width:0.252456;stroke-linecap:round;stroke-dasharray:2.52455, 2.52455;stroke-dashoffset:0;stroke-opacity:1"
       d="m 72.320726,63.704588 c 0,0 1.889011,0.133022 2.181537,0.106499 0.29264,-0.0266 1.596368,-0.0266 1.968727,-0.05329 0.372412,-0.02651 1.70279,-0.133017 2.075128,-0.133017 0.372212,0 2.95303,-0.159624 3.059492,-0.186229 0.108465,-0.02652 0.744854,-0.425668 1.330126,-0.744903 0.585387,-0.319247 1.702758,-0.82472 1.915398,-1.03755 0.213018,-0.212824 1.862309,-0.691701 1.862309,-0.691701 l 3.006151,-0.452283 c 0,0 0.745033,-0.239406 1.702685,-0.26602 0.957809,-0.02655 1.17067,0.02655 2.101809,0 0.930897,-0.02655 1.702558,0.133005 1.888769,0.133005 0.186106,0 2.554022,0.478881 2.740243,0.532095 0.186222,0.05329 2.20812,0.399047 2.20812,0.399047 l 2.84658,0.771572"
       id="path11030" /><path
       style="fill:none;fill-opacity:1;stroke:#f50000;stroke-width:0.252456;stroke-linecap:round;stroke-dasharray:0.504855, 2.52455;stroke-dashoffset:0;stroke-opacity:1"
       d="m 45.675923,104.28848 c 0,0 -0.376062,-1.80594 -0.338631,-2.18216 0.03765,-0.37624 0.376376,-1.69307 0.451542,-1.95642 0.07362,-0.263374 0.41387,-1.580191 0.714975,-2.144561 0.300937,-0.564349 0.489151,-1.580177 0.940578,-2.069276 0.451594,-0.489119 1.354353,-0.978208 2.106716,-1.392077 0.752616,-0.41386 2.182376,-0.827708 2.708959,-0.940589 0.526823,-0.112796 2.144735,-0.714848 2.821848,-0.940598 0.677145,-0.22574 2.031855,-0.865339 2.671171,-1.203948 0.639745,-0.338609 1.542735,-0.601979 1.918828,-0.902979 0.376292,-0.300969 1.956447,-1.128687 1.956447,-1.128687 0,0 1.279303,-0.865338 1.279303,-1.015838 0,-0.150511 1.015691,-1.693057 1.279155,-1.918807 0.263454,-0.22574 1.467412,-1.241567 1.467412,-1.241567 l 0.451416,-0.48911"
       id="path11032" /><path
       style="fill:none;fill-opacity:1;stroke:#f50000;stroke-width:0.252756;stroke-linecap:round;stroke-dasharray:2.52756, 0.252756;stroke-dashoffset:0;stroke-opacity:1"
       d="m 61.628356,80.585661 h 3.310843 c 0,0 1.241557,0.112786 1.843766,0.150469 0.601717,0.03755 1.580114,0.0752 2.37016,-0.112692 0.790099,-0.188119 1.617933,-0.526739 2.03175,-0.827729 0.413765,-0.300979 1.354333,-0.902947 1.768286,-1.053447 0.413954,-0.1505 1.768181,-0.413859 1.768181,-0.413859 0,0 1.730833,-0.940578 1.956468,-1.128719 0.225771,-0.188088 1.241525,-1.617807 1.580166,-1.918796 0.338609,-0.30099 1.542609,-1.166328 2.295015,-1.316807 0.752426,-0.1505 2.107073,-1.091099 2.107073,-1.091099 l 2.332677,-0.413849 c 0,0 2.069044,-0.790099 2.596057,-0.790099 0.526498,0 3.273107,-0.526729 3.273107,-0.526729"
       id="path11034" /><path
       style="fill:none;fill-opacity:1;stroke:#f50000;stroke-width:0.252756;stroke-linecap:round;stroke-dasharray:2.52756, 0.252756;stroke-dashoffset:0;stroke-opacity:1"
       d="m 95.113357,75.243121 -2.520744,1.091067 -2.332613,1.241578 -2.182345,0.902958 -1.655217,0.714859 -3.122911,1.203948 -2.746536,1.203969 -2.219755,1.617806 c 0,0 -0.90301,0.489089 -1.12855,0.601958 -0.225708,0.112734 -2.182187,0.526761 -2.445724,0.71487 -0.26317,0.188109 -1.843504,0.940589 -2.219754,1.015828 -0.376051,0.0752 -2.031645,0.564349 -2.031645,0.564349 l -0.526635,0.451479"
       id="path11036" /><path
       style="fill:none;fill-opacity:1;stroke:#f50000;stroke-width:0.252756;stroke-linecap:round;stroke-dasharray:2.52756, 0.252756;stroke-dashoffset:0;stroke-opacity:1"
       d="m 77.994805,90.367784 c 0,0 0.60178,-0.978208 0.60178,-1.166349 0,-0.18812 0.188361,-0.865338 0.188361,-1.015828 0,-0.1505 0,-0.752468 0,-1.015828 0,-0.26338 0.03765,-0.752479 0,-1.128708 -0.03776,-0.376239 -0.188361,-0.639609 -0.225876,-0.978229 -0.03765,-0.338599 -0.150384,-1.279208 -0.150384,-1.279208 l -0.114915,-0.564328"
       id="path11038" /><path
       style="fill:none;fill-opacity:1;stroke:#f50000;stroke-width:0.252456;stroke-linecap:round;stroke-dasharray:2.52455, 2.52455;stroke-dashoffset:0;stroke-opacity:1"
       d="m 44.058325,110.87262 c 0,0 0.376125,0.30097 0.601927,0.30097 0.22574,0 0.714723,0.11268 1.467265,0.0375 0.752437,-0.0752 0.902989,0 1.580114,-0.3762 0.677155,-0.37625 1.730823,-0.82774 2.069338,-0.97823 0.338808,-0.1505 1.166454,-0.48909 1.542787,-0.71484 0.376219,-0.22575 1.354259,-0.52673 1.843347,-0.90296 0.489047,-0.37623 1.429688,-1.69306 1.617912,-1.95644 0.187847,-0.26336 0.300895,-0.79009 0.564118,-1.20395 0.263538,-0.41386 0.865496,-3.08513 0.865496,-3.08513 l 0.489298,-1.05348 c 0,0 0.451206,-0.22572 0.752406,-0.30098 0.300748,-0.0752 0.789993,-0.11272 1.241514,-0.15049 0.45149,-0.0375 0.790131,-0.0751 1.467307,-0.11277 0.677103,-0.0375 2.483198,-0.22575 2.483198,-0.22575 l 1.316628,-0.188134 2.671307,-1.203937 c 0,0 0.978303,-0.564359 1.241526,-0.639619 0.263369,-0.07509 1.12877,-0.22574 1.693151,-0.376229 0.564286,-0.150479 2.031676,-0.67724 2.332666,-0.790089 0.301063,-0.112754 1.429739,-0.601968 1.58025,-0.639588 0.150531,-0.03744 0.714807,0 1.354425,-0.03744 0.639599,-0.03755 1.279156,0.03744 1.881156,0 0.60201,-0.03755 1.392046,-0.33861 1.843609,-0.48911 0.451406,-0.1505 0.902906,-0.18813 1.354416,-0.376239 0.451437,-0.18812 1.580282,-0.827708 1.580282,-0.827708 l 1.203842,-1.015839 c 0,0 0.902854,-1.316827 1.015807,-1.467306 0.114905,-0.150511 0.300958,-0.63962 0.752374,-0.827729 0.451626,-0.18812 1.279439,-0.300979 1.46736,-0.33861 0.188256,-0.03755 1.241808,-0.188109 1.467453,-0.489109 0.225771,-0.30099 0.451396,-0.677219 0.601969,-1.053458 0.150374,-0.37624 0.526656,-1.805948 0.526656,-1.805948 0,0 0.188182,-0.752447 0.225687,-0.902958 0.03776,-0.1505 0.489277,-1.655426 0.677302,-1.918796 0.188246,-0.263338 1.166275,-1.693046 1.166275,-1.693046 l 1.655385,-2.182166 c 0,0 0.63963,-0.601979 1.053511,-0.827729 0.413922,-0.22575 1.617848,-0.526729 1.918901,-0.827709 0.301,-0.301 1.542441,-1.128718 1.542441,-1.128718 0,0 1.279198,-0.752469 1.467485,-0.827719 0.188099,-0.07509 1.956424,-0.902958 1.956424,-0.902958 l 2.40773,-1.128697 c 0,0 1.65561,-0.45149 1.95661,-0.564359 0.30091,-0.112765 2.25726,-0.865339 2.25726,-0.865339 0,0 1.99416,-0.451489 2.25747,-0.639609 0.26337,-0.188109 1.73067,-0.940578 1.88119,-1.015828 0.15052,-0.07509 1.65541,-0.376229 2.25741,-0.601979 0.60197,-0.225739 3.34849,-1.617807 3.34849,-1.617807 l 3.12275,-1.843613 3.16038,-2.182157 3.72472,-2.520776 3.98809,-2.784138 1.50497,-1.354443 0.71483,-1.956426 0.41386,-1.467319 1.24159,-0.978216 1.35443,-1.617813 0.6396,-1.128716"
       id="path11040" /><path
       style="fill:none;fill-opacity:1;stroke:#f50000;stroke-width:0.252756;stroke-linecap:round;stroke-dasharray:2.52756, 0.252756;stroke-dashoffset:0;stroke-opacity:1"
       d="m 61.478087,79.532182 1.091004,-0.376229 c 0,0 0.752406,-0.601979 0.865307,-0.752468 0.114863,-0.1505 0.752416,-0.677219 1.128761,-0.790089 0.37604,-0.112785 1.542483,-0.300989 1.542483,-0.300989 l 1.166475,-0.45149 c 0,0 0.526362,-0.639598 0.902821,-0.827708 0.376187,-0.18813 0.413818,-0.263369 0.865297,-0.413859 0.451552,-0.1505 0.940693,-0.301 1.279166,-0.376229 0.338662,-0.0752 1.128855,-0.22575 1.505105,-0.26338 0.376187,-0.03755 1.128655,-0.07509 1.128655,-0.07509 0,0 1.16636,-0.0752 1.504906,-0.0752 0.338472,0 1.015837,0 1.354467,0.112806 0.338599,0.112881 1.241505,0.26337 1.241505,0.26337 l 1.015901,0.225729"
       id="path11042" /><path
       style="fill:none;fill-opacity:1;stroke:#f50000;stroke-width:0.252756;stroke-linecap:round;stroke-dasharray:2.52756, 0.252756;stroke-dashoffset:0;stroke-opacity:1"
       d="m 53.276005,75.130241 1.203968,-0.752479 c 0,0 0.902979,-0.489099 1.128698,-0.601969 0.225603,-0.112817 1.091256,-0.978218 1.24163,-1.166328 0.150364,-0.188109 0.564265,-0.827729 0.639704,-1.091077 0.0731,-0.26336 0.3008,-1.128719 0.413786,-1.467328 0.114747,-0.338609 0.37625,-1.354439 0.37625,-1.354439 0,0 0.488993,-1.504946 0.564097,-1.655443 0.07352,-0.150495 0.715058,-1.843554 0.940819,-2.295049 0.225603,-0.451464 0.526771,-1.241563 0.752447,-1.54255 0.225645,-0.300996 1.542463,-1.2792 1.693193,-1.429698 0.150354,-0.150494 1.0909,-1.316813 1.0909,-1.316813 0,0 0.225635,-1.805938 0.263359,-2.031683 0.03776,-0.225745 0.15049,-2.332641 0.114422,-2.558405 -0.03776,-0.225742 -0.526834,-2.859379 -0.526834,-2.859379 l -0.150405,-1.84356 -0.150375,-1.881178 c 0,0 -0.07362,-1.617802 -0.03765,-1.843552 0.03765,-0.225739 0.413828,-2.33265 0.413828,-2.33265 l 0.413912,-0.300997 0.488983,-0.112781 c 0,0 0.67724,0.0751 0.865307,0.150486 0.188204,0.07517 0.865191,0.376242 1.128593,0.489101 0.263485,0.112837 1.392224,0.526746 1.505042,0.714856 0.114558,0.188116 0.902884,0.790087 1.128834,0.940601 0.225613,0.150488 1.203842,0.526719 1.504716,0.790077 0.301147,0.263361 0.978208,0.865341 1.392005,1.354456 0.41389,0.489112 1.279449,1.241579 1.279449,1.241579 0,0 1.429519,0.827716 1.805664,0.902972 0.376386,0.0751 1.279438,0.376224 2.069547,0.564345 0.790141,0.188118 1.994047,0.451485 2.595994,0.67721 0.602063,0.225751 1.768276,0.601991 2.031687,0.714847 0.263181,0.112774 1.391963,0.677237 1.542578,0.714865 0.150437,0.03748 0.902874,0.526737 0.902874,0.526737 l 1.617765,0.8277 1.843777,0.86535 1.504801,0.564356"
       id="path11044" /><path
       style="fill:none;fill-opacity:1;stroke:#f50000;stroke-width:0.252756;stroke-linecap:round;stroke-dasharray:2.52756, 0.252756;stroke-dashoffset:0;stroke-opacity:1"
       d="m 63.622455,58.124393 c 0,0 1.429718,0.376226 1.805979,0.489121 0.376103,0.112698 2.069307,0.451475 2.671265,0.601975 0.601958,0.150483 1.693025,0.300987 2.558364,0.52673 0.86538,0.225734 2.219827,0.48911 2.370411,0.639587 0.150343,0.1505 2.746472,0.940587 2.746472,0.940587 l 1.015765,0.263387"
       id="path11046" /><path
       style="fill:none;fill-opacity:1;stroke:#f50000;stroke-width:0.252756;stroke-linecap:round;stroke-dasharray:2.52756, 0.252756;stroke-dashoffset:0;stroke-opacity:1"
       d="m 62.343121,61.661019 c 0,0 0.639798,0.300982 1.505063,0.413848 0.865296,0.112778 1.843588,0.30099 2.407927,0.30099 0.564411,0 2.671181,-0.150498 2.897014,-0.150498 0.225771,0 1.354438,0.188122 1.354438,0.188122 l 1.467285,0.564357 0.978313,0.45147"
       id="path11048" /><path
       style="fill:none;fill-opacity:1;stroke:#f50000;stroke-width:0.252756;stroke-linecap:round;stroke-dasharray:2.52756, 0.252756;stroke-dashoffset:0;stroke-opacity:1"
       d="m 60.687967,63.015467 c 0,0 1.3919,0.07514 1.730551,0.225745 0.33841,0.150487 1.881093,0.940594 1.881093,0.940594 0,0 0.639588,0.526707 0.903125,0.639584 0.263234,0.112739 1.31687,0.489104 1.580229,0.489104 0.263171,0 0.752469,-0.03749 1.166265,-0.03749 0.413849,0 1.881303,-0.0375 1.881303,-0.0375"
       id="path11050" /><path
       style="fill:none;fill-opacity:1;stroke:#f50000;stroke-width:0.252756;stroke-linecap:round;stroke-dasharray:2.52756, 0.252756;stroke-dashoffset:0;stroke-opacity:1"
       d="m 53.464051,108.01322 c 0,0 0.677156,-0.33862 1.015922,-0.33862 0.33861,0 2.144589,0.0751 2.407874,0.41387 0.263286,0.3386 0.413891,0.6772 0.978313,1.12872 0.56415,0.45146 1.316629,1.01582 2.031729,1.12869 0.714723,0.11276 1.994015,0.26337 2.520629,0.11276 0.526718,-0.15051 1.655563,-0.75249 2.106832,-0.90294 0.451657,-0.15053 1.730761,-0.48913 2.483156,-0.63964 0.752605,-0.15051 2.483281,-0.4515 2.708821,-0.56435 0.225897,-0.11283 2.332803,-1.88117 2.332803,-1.88117 0,0 1.392172,-1.69308 1.881113,-1.8812 0.489194,-0.18809 2.558447,-0.48909 3.085155,-0.60196 0.526802,-0.11285 1.956448,-0.41386 2.859448,-0.60199 0.903021,-0.18811 2.633592,-0.30096 3.047546,-0.37621 0.413943,-0.0751 2.633498,-0.52674 2.821838,-0.52674 0.187921,0 2.257343,-0.3386 2.370066,-0.56434 0.113992,-0.22573 0.752615,-1.31683 0.752615,-1.61782 0,-0.301 -0.22576,-1.881197 -0.26338,-2.106926 -0.03765,-0.22575 -0.413702,-1.655437 -0.451584,-1.918786 -0.03828,-0.26337 -0.114181,-1.279208 -0.114181,-1.467328 0,-0.188109 0.676967,-1.279208 0.789963,-1.429708 0.11439,-0.150469 0.75251,-0.978198 0.75251,-0.978198 l 0.52675,-0.752458"
       id="path11052" /><path
       style="fill:none;fill-opacity:1;stroke:#f50000;stroke-width:0.252756;stroke-linecap:round;stroke-dasharray:2.52756, 0.252756;stroke-dashoffset:0;stroke-opacity:1"
       d="m 82.334795,93.902489 c 0,0 -0.01332,0.641497 -0.05076,0.867226 -0.03765,0.22575 -0.3008,0.677229 -0.03765,1.053468 0.263244,0.37625 1.391889,1.994068 1.391889,1.994068 0,0 0.451469,1.429676 0.489172,1.768285 0.03776,0.33862 0.263307,1.655444 0.263307,1.881194 0,0.22573 -0.114558,1.16631 -0.114558,1.16631"
       id="path11054"
       sodipodi:nodetypes="cscccsc" /><path
       style="fill:none;fill-opacity:1;stroke:#f50000;stroke-width:0.252756;stroke-linecap:round;stroke-dasharray:2.52756, 0.252756;stroke-dashoffset:0;stroke-opacity:1"
       d="m 76.038431,96.274673 -1.768421,1.053458 c 0,0 -0.827708,0.526739 -0.978218,0.677208 -0.150752,0.15051 -0.489162,0.56437 -0.526866,0.902979 -0.03765,0.338609 -0.114548,1.203962 -0.114548,1.203962 l 0.601885,0.82769 c 0,0 0.564412,0.63961 0.639777,0.82775 0.07321,0.18809 0.300832,1.05344 0.300832,1.05344 l -0.263443,0.71485 -0.33862,0.60198 -0.150342,0.75247"
       id="path11056" /><path
       style="fill:none;fill-opacity:1;stroke:#f50000;stroke-width:0.252756;stroke-linecap:round;stroke-dasharray:2.52756, 0.252756;stroke-dashoffset:0;stroke-opacity:1"
       d="m 63.547132,99.961776 c 0,0 -0.114003,0.790094 -0.114003,0.940574 0,0.1505 -0.03765,1.31684 -0.07394,1.46733 -0.03838,0.15049 -0.300968,1.01584 -0.338504,1.20396 -0.03765,0.18812 -0.489183,1.39207 -0.489183,1.39207 0,0 -0.07289,1.09108 -0.07289,1.24156 0,0.15051 0.187983,0.63959 0.225509,0.79011 0.03765,0.15046 0.564548,1.84354 0.564548,1.84354 l 0.376113,1.16633"
       id="path11058" /><path
       style="fill:none;fill-opacity:1;stroke:#f50000;stroke-width:0.252456;stroke-linecap:round;stroke-dasharray:2.52455, 2.52455;stroke-dashoffset:0;stroke-opacity:1"
       d="m 122.08945,95.823183 c 0,0 1.5802,0.52674 1.88118,0.52674 0.301,0 1.99405,0.451468 2.52078,0.451468 0.52673,0 2.52078,0.37624 3.0099,0.37624 0.4891,0 3.00987,0.338609 3.64946,0.1505 0.63961,-0.18813 2.7089,-0.865349 3.23564,-1.279198 0.52672,-0.41388 1.24156,-1.429697 1.46731,-1.881197 0.22574,-0.451458 1.16633,-2.332645 1.31683,-2.821755 0.1505,-0.489109 1.09108,-2.219786 1.39207,-2.859374 0.30098,-0.639609 0.86536,-3.122765 0.86536,-3.348515 0,-0.225739 0.52669,-1.881176 0.82768,-2.370275 0.30099,-0.489109 1.42971,-1.730698 1.80594,-1.918807 0.37624,-0.18812 1.95643,-1.768296 2.10693,-1.918796 0.15048,-0.150479 1.39206,-3.047505 1.39206,-3.047505 0,0 0.9406,-1.768317 1.05346,-2.182166 0.11285,-0.413859 0.45147,-2.407895 0.4891,-2.746515 0.0374,-0.338619 -1.35445,-2.069309 -1.35445,-2.257407 0,-0.188112 -1.16633,-1.655443 -1.16633,-1.655443 l -1.80592,-2.295049 c 0,0 -1.20395,-1.805914 -1.20395,-2.14455 0,-0.338586 -0.18813,-2.558376 -0.1505,-2.934614 0.0376,-0.376223 0.22576,-2.106924 0.22576,-2.257413 0,-0.150503 0.60197,-3.310867 0.67721,-3.536605 0.0752,-0.225742 1.12871,-2.558398 1.27919,-2.859391 0.15051,-0.300993 1.54257,-2.784144 1.54257,-2.784144 0,0 1.09108,-1.128717 1.20396,-1.429704 0.1128,-0.300985 0.37623,-1.617817 0.37623,-1.805922 0,-0.188122 -0.18812,-0.752461 -0.18812,-0.752461"
       id="path11060" /><path
       style="fill:none;fill-opacity:1;stroke:#f50000;stroke-width:0.252456;stroke-linecap:round;stroke-dasharray:2.52455, 2.52455;stroke-dashoffset:0;stroke-opacity:1"
       d="m 130.51712,97.177631 1.65544,-1.429698 c 0,0 1.01584,-1.241578 1.2792,-1.542567 0.26337,-0.300979 0.82773,-1.354458 1.12871,-1.655427 0.301,-0.301 0.90297,-1.843546 1.05345,-2.332666 0.1505,-0.489099 0.37625,-1.467307 0.63961,-2.144536 0.26335,-0.677229 0.52672,-2.784155 0.52672,-2.972275 0,-0.188109 0.45149,-1.128687 0.56436,-1.316828 0.11284,-0.188099 0.56436,-0.940567 0.71485,-1.166317 0.15049,-0.225761 0.15049,-2.934624 0.15049,-2.934624 0,0 0.4891,-1.580187 0.67724,-1.881177 0.18811,-0.301 1.7683,-1.128718 2.06927,-1.279208 0.30098,-0.150489 1.50494,-0.865359 1.58019,-1.128708 0.0752,-0.263359 0.79012,-2.332645 0.79012,-2.332645 l -0.41387,-2.821786 c 0,0 -1.20396,-0.90296 -1.4297,-1.24156 -0.22576,-0.33862 -1.73067,-1.881174 -1.84356,-2.106926 -0.1127,-0.225748 -0.71484,-2.295024 -0.71484,-2.445535 0,-0.150483 -0.1505,-1.805926 -0.1505,-1.805926 l 0.1505,-1.467318 -0.48911,-1.956415 -1.1287,-2.144547 c 0,0 -0.52674,-1.730688 -0.56436,-1.881171 -0.0375,-0.150512 -0.18811,-1.542566 -0.18811,-1.542566"
       id="path11062" /><path
       style="fill:none;fill-opacity:1;stroke:#f50000;stroke-width:0.252456;stroke-linecap:round;stroke-dasharray:2.52455, 2.52455;stroke-dashoffset:0;stroke-opacity:1"
       d="m 127.99635,96.876641 v -1.053458 c 0,0 0.0375,-0.752468 0.11284,-0.978208 0.0752,-0.225739 0.26335,-0.790109 0.33861,-1.015828 0.0752,-0.22575 0.11279,-0.827729 0.11279,-1.091098 0,-0.26336 0.0376,-1.241578 0.0751,-1.504937 0.0375,-0.263349 0.33861,-1.354459 0.48911,-1.655438 0.15049,-0.300989 0.94057,-0.790077 1.20395,-1.015827 0.26337,-0.22575 1.46732,-1.542557 1.61781,-1.730687 0.15052,-0.18811 1.61782,-0.902969 1.80594,-1.918807 0.18812,-1.015828 0.60196,-2.144536 0.60196,-2.295036 0,-0.15049 -0.22573,-1.655437 -0.22573,-1.655437 l -0.82771,-1.956416 c 0,0 0.41386,-1.693057 0.4891,-1.918807 0.0751,-0.22574 0.63958,-1.730687 0.75246,-1.881177 0.11278,-0.1505 1.69306,-1.091088 1.88118,-1.203947 0.18812,-0.112839 1.20395,-0.940578 1.20395,-0.940578 l 1.09109,-1.768307 -0.52672,-1.279218 -1.12872,-1.166325 -0.56436,-0.752465 c 0,0 -0.71484,-1.88118 -0.71484,-2.031689 0,-0.150479 -0.60197,-2.370261 -0.60197,-2.370261 l -0.26337,-1.580201 v -0.0751"
       id="path11064" /><path
       style="fill:none;fill-opacity:1;stroke:#f50000;stroke-width:0.252456;stroke-linecap:round;stroke-dasharray:2.52455, 2.52455;stroke-dashoffset:0;stroke-opacity:1"
       d="m 134.91908,74.942132 c 0,0 0.33862,-1.203959 0.33862,-1.392078 0,-0.18811 -0.26337,-2.332656 -0.30098,-2.483156 -0.0375,-0.1505 -1.01584,-1.617803 -1.01584,-1.617803 l -0.86536,-1.730694 0.1505,-2.031666 1.35445,-3.16038 0.60199,-1.354451 c 0,0 0.37621,-1.429685 0.41383,-1.655428 0.0375,-0.225734 0.71486,-1.61781 0.71486,-1.61781 0,0 0.26337,-1.279208 0.301,-1.467319 0.0375,-0.188117 0.15048,-1.730681 0.15048,-1.730681"
       id="path11066" /><path
       style="fill:none;fill-opacity:1;stroke:#f50000;stroke-width:0.252456;stroke-linecap:round;stroke-dasharray:2.52455, 2.52455;stroke-dashoffset:0;stroke-opacity:1"
       d="m 129.01219,61.736257 -0.18811,2.445549 0.45147,1.655426 0.75246,2.257408 -0.0375,0.714847 c 0,0 -0.33861,0.601976 -0.45149,0.752453 -0.11277,0.150511 -0.71484,0.827729 -0.82772,1.166349 -0.11283,0.338609 -0.71485,1.843546 -0.75248,2.031676 -0.0376,0.18811 -0.9782,1.467307 -1.09107,1.617797 -0.11281,0.150489 -1.54256,1.730708 -1.54256,1.730708 0,0 -1.12871,0.714828 -1.35445,0.827697 -0.22575,0.112734 -1.01584,0.865349 -1.01584,1.128708 0,0.26336 0.26336,0.940589 0.97822,1.128708 0.71484,0.18811 2.14454,0.451469 2.93462,0.451469 0.79009,0 2.78416,0.18812 2.78416,0.18812 0,0 1.01583,0.639599 1.01583,0.827718 0,0.18812 0.15049,1.015839 0.15049,1.203969 0,0.188109 -1.09107,3.837603 -1.09107,3.837603 l -0.18814,1.279187 c 0,0 -0.60199,0.978208 -0.97822,1.128698 -0.37623,0.150489 -2.14455,0.301 -2.48315,0.188119 -0.33862,-0.112743 -2.59601,-0.601979 -2.59601,-0.601979 l -2.21982,0.188131"
       id="path11068" /><path
       style="fill:none;fill-opacity:1;stroke:#f50000;stroke-width:0.252456;stroke-linecap:round;stroke-dasharray:2.52455, 2.52455;stroke-dashoffset:0;stroke-opacity:1"
       d="m 126.11517,63.65507 -0.90297,2.55839 c 0,0 -0.30099,1.203957 -0.37623,1.65543 -0.0751,0.451493 -0.26335,2.257409 -0.26335,2.520779 0,0.26337 0.52673,1.881177 0.75247,2.106927 0.22574,0.225739 0.8277,0.413848 0.86533,0.601968 0.0375,0.18812 0.18812,1.617818 0.18812,1.617818"
       id="path11070" /><path
       style="fill:none;fill-opacity:1;stroke:#f50000;stroke-width:0.252756;stroke-linecap:round;stroke-dasharray:2.52756, 0.252756;stroke-dashoffset:0;stroke-opacity:1"
       d="m 115.69346,86.191561 0.71485,-2.219786 c 0,0 0.86533,-1.843557 0.90296,-1.994057 0.0375,-0.150479 0.33862,-1.392057 0.41386,-1.580187 0.0752,-0.188109 1.05344,-1.655427 1.46731,-1.843557 0.41386,-0.188109 1.27919,-1.166307 1.46733,-1.429708 0.18811,-0.263349 0.22574,-1.241557 0.18811,-1.429676 -0.0375,-0.18812 -1.20396,-0.790089 -1.20396,-0.790089 l -1.35445,-0.564359 c 0,0 -0.90296,-0.22575 -1.12869,-0.601969 -0.22574,-0.376229 -0.6396,-1.881187 -0.6396,-2.031687 0,-0.150479 0.30098,-1.241577 0.30098,-1.241577 l 0.11283,-0.865318"
       id="path11072" /><path
       style="fill:none;fill-opacity:1;stroke:#f50000;stroke-width:0.252756;stroke-linecap:round;stroke-dasharray:2.52756, 0.252756;stroke-dashoffset:0;stroke-opacity:1"
       d="m 99.214393,87.357889 c 0,-0.18811 -0.114443,-1.166328 -0.150647,-1.392068 -0.03671,-0.225739 0.263538,-1.015838 0.451563,-1.203958 0.188225,-0.188109 0.752321,-0.902968 0.865431,-1.241578 0.11382,-0.338598 0.26315,-1.354447 0.26315,-1.354447 l 0.1884,-0.338599"
       id="path11074" /><path
       style="fill:none;fill-opacity:1;stroke:#f50000;stroke-width:0.252756;stroke-linecap:round;stroke-dasharray:2.52756, 0.252756;stroke-dashoffset:0;stroke-opacity:1"
       d="m 107.07761,88.749966 c 0,0 0.11401,-1.203958 0.15051,-1.542567 0.0374,-0.338609 0.0738,-1.241578 0.0374,-1.504937 -0.0374,-0.263359 -0.26332,-1.015849 -0.26332,-1.015849 l -0.26351,-0.752468 -0.0738,-0.526719 -0.7901,-0.300979 c 0,0 -0.45144,-0.18813 -0.63966,-0.301 -0.1881,-0.112849 -1.27912,-0.526739 -1.27912,-0.526739 l -0.79017,-0.33861 c 0,0 -0.90303,-0.677218 -0.8655,-0.827718 0.0378,-0.1505 -0.60185,-1.504948 -0.60185,-1.504948 l 0.33862,-1.316817 c 0,0 1.46729,-1.128708 1.5803,-1.316817 0.11395,-0.18811 0.86527,-0.63961 0.94059,-0.827719 0.0739,-0.18812 0.63955,-0.564359 0.75241,-0.714859 0.11412,-0.150479 0.90303,-0.827719 0.90303,-0.827719 l 0.52672,-0.752468"
       id="path11076" /><path
       style="fill:none;fill-opacity:1;stroke:#f50000;stroke-width:0.252456;stroke-linecap:round;stroke-dasharray:2.52455, 2.52455;stroke-dashoffset:0;stroke-opacity:1"
       d="m 121.86372,95.747933 -0.67723,-0.37625 c 0,0 -0.94059,-0.865328 -0.97822,-1.015817 -0.0375,-0.1505 -1.54255,-1.128708 -1.54255,-1.128708 0,0 -1.95642,-0.601979 -2.21979,-0.639599 -0.26337,-0.03755 -1.16633,-0.300979 -1.76832,-0.564349 -0.60197,-0.26338 -2.97228,-1.166338 -3.4237,-1.279197 -0.45153,-0.11286 -2.0693,-0.601979 -2.48321,-0.752469 -0.41388,-0.1505 -2.03168,-0.752489 -2.03168,-0.752489 l -0.37622,-0.526719"
       id="path11078" /><path
       style="fill:none;fill-opacity:1;stroke:#f50000;stroke-width:0.252756;stroke-linecap:round;stroke-dasharray:2.52756, 0.252756;stroke-dashoffset:0;stroke-opacity:1"
       d="m 93.947166,102.59543 c 0,0 1.147355,0.0376 1.504779,0.1693 0.357519,0.13168 1.147733,0.4891 1.467349,0.58316 0.319836,0.0938 0.71487,0.3198 1.128635,0.54553 0.413796,0.22575 0.865485,0.41386 1.203926,0.67723 0.338715,0.26337 0.752575,0.82773 0.997015,0.9594 0.24461,0.1317 1.16633,0.62079 1.78719,0.7901 0.62082,0.1693 1.16638,0.33863 1.97529,0.52671 0.80887,0.18815 1.24157,0.39509 2.18217,0.39509 0.94056,0 1.69308,-0.0375 2.52078,0.0187 0.82768,0.0563 1.61784,0.18811 2.63365,0.28216 1.01581,0.094 1.9376,0.30098 2.29503,0.37624 0.35741,0.0751 3.83759,0.602 3.96928,0.602 0.13167,0 2.16335,0.30097 2.8782,0.30097 0.71485,0 1.52374,0.3198 2.97225,0.30097 1.4485,-0.0187 3.32968,-0.0376 4.27027,-0.0751 0.94058,-0.0374 3.3485,-0.0563 3.78118,-0.094 0.43266,-0.0375 1.7871,-0.18813 1.7871,-0.18813 0,0 3.08515,0.16934 3.27326,0.16934 0.18811,0 1.16632,0.13167 2.35147,0.13167 1.18515,0 2.52078,0.0564 3.32967,0 0.80893,-0.0563 2.57723,-0.31979 3.36731,-0.35742 0.79011,-0.0375 2.63367,-0.26338 3.0287,-0.35743 0.39505,-0.0938 2.52079,-0.69603 2.70889,-0.71484 0.18812,-0.0187 2.29504,-0.18815 2.63366,-0.301 0.3386,-0.11272 1.9376,-0.67719 2.33267,-0.75244 0.39505,-0.0751 1.20394,-0.50794 1.20394,-0.50794 l 0.73366,-0.2822"
       id="path11806" /><path
       style="fill:none;fill-opacity:1;stroke:#f50000;stroke-width:0.252756;stroke-linecap:round;stroke-dasharray:2.52756, 0.252756;stroke-dashoffset:0;stroke-opacity:1"
       d="m 113.05129,107.81378 c 0,0 1.17054,-1.27697 1.33017,-1.64943 0.15962,-0.37246 1.06415,-1.33021 1.3302,-1.70263 0.26604,-0.37247 0.90454,-0.85135 1.3834,-1.27702 0.47885,-0.42566 2.12831,-1.33017 2.66039,-1.59622 0.53206,-0.26604 3.13924,-1.17059 3.83094,-1.33019 0.69172,-0.15964 4.36304,-0.691695 4.57585,-0.691695 0.21285,0 2.12833,0.266024 3.08607,-0.159624 0.95774,-0.425668 3.72456,-2.128322 3.72456,-2.128322 l 0.85128,-0.90452"
       id="path11808" /><path
       style="fill:none;fill-opacity:1;stroke:#f50000;stroke-width:0.252756;stroke-linecap:round;stroke-dasharray:2.52756, 0.252756;stroke-dashoffset:0;stroke-opacity:1"
       d="m 109.8588,107.36153 c 0,0 0.0787,-0.87795 0.0787,-0.98434 0,-0.10654 0.0785,-0.45228 0.13306,-0.69173 0.053,-0.23941 0.23944,-0.53206 0.34589,-0.82472 0.10753,-0.2926 0.23939,-0.42565 0.26603,-0.7981 0.0265,-0.37246 0.0265,-0.45227 0.0524,-0.7449 0.0262,-0.29267 0.31922,-1.30358 0.31922,-1.30358"
       id="path11810" /><path
       style="fill:none;fill-opacity:1;stroke:#f50000;stroke-width:0.252756;stroke-linecap:round;stroke-dasharray:2.52756, 0.252756;stroke-dashoffset:0;stroke-opacity:1"
       d="m 106.8792,107.22849 c 0,0 0.0265,-0.50546 0.29263,-0.90453 0.26604,-0.39905 0.42569,-0.42565 0.61189,-0.82471 0.18615,-0.39906 0.18615,-0.47887 0.26602,-0.71832 0.0789,-0.2394 0.1076,-0.42564 0.1076,-0.93112 0,-0.50549 -0.0529,-0.6917 0,-1.09077 0.0526,-0.39905 0.0265,-0.69169 0.0793,-0.8513 0.0521,-0.15964 0.15958,-0.42568 0.31918,-0.6385 0.15972,-0.21284 0.2661,-0.31926 0.2661,-0.31926"
       id="path11812" /><path
       style="fill:none;fill-opacity:1;stroke:#f50000;stroke-width:0.252756;stroke-linecap:round;stroke-dasharray:2.52756, 0.252756;stroke-dashoffset:0;stroke-opacity:1"
       d="m 102.72899,106.48358 c 0,0 0.50543,-0.37245 0.77152,-0.69169 0.26595,-0.31926 0.3724,-0.31926 0.6119,-0.77151 0.23942,-0.45224 0.31923,-0.31925 0.53198,-0.93113 0.21291,-0.61189 0.23953,-0.74493 0.29266,-1.03756 0.0524,-0.29265 0.29271,-1.11736 0.39906,-1.43662 0.10734,-0.31923 0.18626,-0.58527 0.29267,-0.69169 0.10734,-0.10649 0.53205,-0.53208 0.53205,-0.53208 l 0.23949,-0.15961 0.55872,-0.345856"
       id="path11814" /><path
       style="fill:none;fill-opacity:1;stroke:#f50000;stroke-width:0.252756;stroke-linecap:round;stroke-dasharray:2.52756, 0.252756;stroke-dashoffset:0;stroke-opacity:1"
       d="m 136.22322,108.95774 c 0,0 -0.0798,-0.71829 -0.0798,-0.95774 0,-0.23942 -0.13302,-0.61187 0,-0.95774 0.13302,-0.34583 0.47889,-0.69169 0.6385,-1.03755 0.15962,-0.34585 0.26604,-0.42565 0.37247,-0.7715 0.10651,-0.34587 0.0798,-0.26603 0.18623,-0.85133 0.10649,-0.58528 0.133,-1.03756 0.133,-1.38339 0,-0.34585 -0.1065,-1.01096 -0.133,-1.17059 -0.0266,-0.15962 -0.0799,-0.29263 -0.0799,-0.29263 l 0.10654,-0.0265"
       id="path11816" /><path
       style="fill:none;fill-opacity:1;stroke:#f50000;stroke-width:0.252756;stroke-linecap:round;stroke-dasharray:2.52756, 0.252756;stroke-dashoffset:0;stroke-opacity:1"
       d="m 141.57061,109.06417 c 0.0265,-0.10647 0.15961,-1.30359 0.21282,-1.72925 0.0533,-0.42569 0.0798,-0.87794 0.0798,-1.54303 0,-0.66508 -0.0533,-1.19717 -0.15962,-1.48982 -0.10648,-0.29264 -0.45226,-0.85133 -0.53209,-1.17059 -0.0798,-0.31921 -0.13302,-0.42564 -0.0533,-0.79809 0.0798,-0.37244 0.13304,-1.17057 0.13304,-1.17057"
       id="path11818" /><path
       style="fill:none;fill-opacity:1;stroke:#f50000;stroke-width:0.252756;stroke-linecap:round;stroke-dasharray:2.52756, 0.252756;stroke-dashoffset:0;stroke-opacity:1"
       d="m 147.26384,108.61189 c 0,0 0.29262,-0.98433 0.37244,-1.4632 0.0798,-0.47887 0.21283,-0.74493 0.21283,-1.48983 0,-0.7449 -0.0266,-1.27698 -0.13302,-1.64943 -0.10649,-0.37248 0.0798,-0.26605 -0.31925,-0.85132 -0.39904,-0.58529 -0.45226,-0.50547 -0.61188,-1.06416 -0.15963,-0.55868 -0.13301,-0.50547 -0.34585,-1.03755 -0.21284,-0.53208 -0.55868,-1.303594 -0.55868,-1.303594"
       id="path11820" /><path
       style="fill:none;fill-opacity:1;stroke:#f50000;stroke-width:0.252756;stroke-linecap:round;stroke-dasharray:2.52756, 0.252756;stroke-dashoffset:0;stroke-opacity:1"
       d="m 158.35765,105.79189 c 0,0 -0.0533,-1.17056 -0.0799,-1.4366 -0.0265,-0.26604 -0.18624,-1.03755 -0.5055,-1.51643 -0.31923,-0.47887 -1.06412,-1.3568 -1.59621,-1.51642 -0.5321,-0.15962 0.13302,0.18621 -0.95774,-0.18623 -1.09075,-0.37243 -0.82472,-0.0799 -1.67604,-0.55868 -0.85134,-0.47888 -0.87793,-0.718314 -1.86227,-0.931143 -0.98434,-0.212829 -1.64946,-0.319249 -2.26134,-0.319249 -0.61189,0 -1.3302,-0.02653 -1.3302,-0.02653"
       id="path11822" /><path
       style="fill:none;fill-opacity:1;stroke:#f50000;stroke-width:0.252456;stroke-linecap:round;stroke-dasharray:1.2621, 3.78674;stroke-dashoffset:0;stroke-opacity:1"
       d="m 183.56632,20.613772 c 0,0 -0.45147,1.204021 -0.67722,1.542609 -0.22574,0.338484 -0.90297,1.467276 -1.20397,1.730572 -0.30098,0.263412 -2.06928,1.241567 -2.63364,1.580187 -0.56434,0.33863 -1.58019,0.903042 -2.21978,1.316901 -0.6396,0.413849 -1.39209,1.166286 -1.39209,1.166286 0,0 -1.20395,0.526729 -1.76828,0.67724 -0.56438,0.150458 -2.18218,1.128687 -2.48316,1.241609 -0.301,0.112733 -2.25742,1.316807 -2.67128,1.580114 -0.41385,0.263411 -5.22966,4.025817 -5.22966,4.025817 0,0 -2.37029,0.790057 -3.23564,1.316786 -0.86533,0.526687 -3.08511,1.693078 -3.49897,1.956416 -0.41387,0.263338 -3.83763,2.897 -4.13858,3.085089 -0.30099,0.188131 -3.83763,2.445541 -3.83763,2.445541 0,0 -1.95643,1.805933 -2.1069,1.918801 -0.15051,0.112853 -2.82176,1.241571 -3.0099,1.279187 -0.18811,0.0376 -2.63363,0.188134 -2.93462,0.263377 -0.30097,0.0751 -2.97227,0.564351 -2.97227,0.564351 0,0 -1.31682,0.300997 -1.69306,0.639597 -0.37623,0.338611 -1.35443,0.978219 -1.54257,1.091088 -0.18811,0.112848 -1.39207,0.451479 -1.76829,0.489093 -0.37625,0.03752 -1.73069,0 -1.91881,-0.112697 -0.18811,-0.112823 -1.84354,-1.203955 -1.84354,-1.203955"
       id="path11824" /><path
       style="fill:none;fill-opacity:1;stroke:#f50000;stroke-width:0.252456;stroke-linecap:round;stroke-dasharray:1.2621, 3.78674;stroke-dashoffset:0;stroke-opacity:1"
       d="m 154.06945,40.516588 c 0,0 2.48318,-0.376253 3.12277,-0.413889 0.63959,-0.03783 2.67126,-0.376193 3.38612,-0.451443 0.71485,-0.07498 2.78415,-0.489109 3.34848,-0.639609 0.56436,-0.15051 3.31089,-0.827697 3.61188,-0.978197 0.30097,-0.150521 1.61779,-0.790152 2.40789,-0.865402 0.79011,-0.07499 1.58019,-0.564369 1.76831,-0.790077 0.18812,-0.225708 0.301,-0.564276 0.301,-0.564276 l -0.26338,-0.940651 c 0,0 -0.79008,-0.03797 -1.09107,0 -0.301,0.03807 -1.05347,0.301011 -1.50496,0.413817 -0.45146,0.11287 -1.73067,0.33862 -2.21978,0.489131 -0.48912,0.150489 -1.73067,0.26339 -1.73067,0.26339 l -0.75248,-0.564275 -0.0752,-0.97824"
       id="path11826" /><path
       style="fill:none;fill-opacity:1;stroke:#f50000;stroke-width:0.252456;stroke-linecap:round;stroke-dasharray:1.2621, 3.78674;stroke-dashoffset:0;stroke-opacity:1"
       d="m 128.85396,48.487184 v -1.11738 c 0,0 0.37245,-1.276978 0.69171,-1.330184 0.31924,-0.05327 0.37243,-0.266036 1.48978,-0.212829 1.11739,0.05325 1.96871,0.212829 2.39438,0.212829 0.42566,0 1.54304,0.425669 2.07509,0.425669 0.53207,0 1.54303,-0.212827 1.70267,-0.425669 0.15961,-0.212829 1.70264,-0.691711 2.39433,-1.064144 0.6917,-0.37246 1.59624,-0.904545 2.02188,-1.064162 0.42568,-0.159622 1.80908,-0.95775 1.9155,-1.27698 0.1065,-0.319271 0.42564,-1.117365 0.53205,-1.489823 0.10653,-0.372462 0.58531,-1.489823 0.85134,-1.968688 0.26604,-0.478883 0.74491,-1.064155 0.95774,-1.383404 0.21281,-0.319238 0.7449,-0.744907 1.22379,-0.90451 0.47886,-0.159562 1.96867,-0.319281 1.96867,-0.319281 0,0 1.3302,-0.691691 1.64945,-0.957714 0.31925,-0.266024 1.54301,-0.798143 1.70264,-1.117424 0.15963,-0.319164 1.17058,-1.170544 1.38341,-1.383352 0.21281,-0.212829 2.18151,-1.170533 2.18151,-1.170533 0,0 0.47887,-0.532078 0.90453,-0.691786 0.42565,-0.159593 2.66037,-0.798038 3.13926,-1.010836 0.47886,-0.212902 1.86226,-0.585335 2.23472,-0.745001 0.37246,-0.159572 2.34114,-1.330147 2.34114,-1.330147 l 2.0219,-1.223738 c 0,0 2.02188,-1.01093 2.23471,-1.170607 0.21285,-0.159624 1.59622,-0.744928 1.96869,-1.170617 0.37245,-0.425627 1.86228,-1.54304 2.0219,-1.915399 0.15962,-0.372474 1.11735,-2.447591 1.11735,-2.447591 0,0 0.15963,-2.234731 0.15963,-2.447413 0,-0.213018 0,-1.436704 0,-1.436704 0,0 -0.53207,-0.478915 -0.85133,-0.638571 -0.31924,-0.159456 -1.48982,-0.638518 -1.48982,-1.117329 0,-0.478831 -0.47886,-1.330157 0.0533,-1.489729 0.53209,-0.159667 1.27699,-0.479031 1.80907,-0.265961 0.53206,0.212578 1.64943,0.531921 2.07509,0.531921 0.42568,0 1.43661,0.05223 1.86228,0.05223 0.42567,0 1.06415,0.425627 1.3302,0.478894 0.26603,0.05401 0.90453,0.372317 0.95774,0.744813 0.0533,0.372464 0.37244,2.128196 0.37244,2.128196 l 0.5853,1.756004 1.59624,0.957768"
       id="path11828" /><path
       style="fill:none;fill-opacity:1;stroke:#f50000;stroke-width:0.252756;stroke-linecap:round;stroke-dasharray:2.52756, 0.252756;stroke-dashoffset:0;stroke-opacity:1"
       d="m 180.09299,51.307186 c 0,0 -0.53207,-1.064162 -0.7981,-1.276992 -0.26606,-0.212827 -2.39436,-0.957726 -2.39436,-0.957726 0,0 -2.18151,-0.106515 -2.50075,-0.106515 -0.31925,0 -4.0438,0.478848 -4.25662,0.532064 -0.21284,0.05326 -2.34116,0.319254 -2.76682,0.319254 -0.42565,0 -1.64943,-0.10651 -1.70264,-0.425658 -0.0533,-0.319247 -0.42566,-1.596237 -0.74491,-2.234724 -0.31924,-0.638495 -0.58528,-1.170574 -1.06415,-1.543038 -0.47888,-0.372448 -1.59623,-1.596223 -1.86228,-2.128303 -0.26604,-0.532089 -0.58528,-2.394355 -0.58528,-2.394355 l -0.1065,-1.276994"
       id="path12556" /><path
       style="fill:none;fill-opacity:1;stroke:#f50000;stroke-width:0.252756;stroke-linecap:round;stroke-dasharray:2.52756, 0.252756;stroke-dashoffset:0;stroke-opacity:1"
       d="m 175.78316,48.966056 c 0,0 -0.85132,-0.851339 -1.22377,-1.436626 -0.37246,-0.585267 -1.06414,-1.596226 -1.17057,-2.181521 -0.10646,-0.585286 -0.15964,-1.915478 -0.15964,-2.287926 0,-0.37244 0.15964,-0.851311 0.31925,-1.117352 0.15963,-0.266051 0.69172,-1.276991 0.79812,-1.809046 0.10651,-0.53209 0.15963,-2.394434 0.15963,-2.394434 l -0.95775,-1.436525 -1.59622,-0.79809"
       id="path12558" /><path
       style="fill:none;fill-opacity:1;stroke:#f50000;stroke-width:0.252756;stroke-linecap:round;stroke-dasharray:2.52756, 0.252756;stroke-dashoffset:0;stroke-opacity:1"
       d="m 170.14316,49.391708 c 0,0 -0.0533,-2.394346 -0.0533,-2.713597 0,-0.319234 -0.74494,-1.117365 -1.01097,-1.383406 -0.26603,-0.266025 -1.01096,-0.851309 -1.17058,-1.436585 -0.15961,-0.585298 -0.37244,-1.702664 -0.37244,-1.96869 0,-0.266053 -0.15964,-2.128341 -0.15964,-2.447607 0,-0.319204 -0.10649,-1.276972 -0.10649,-1.276972"
       id="path12560" /><path
       style="fill:none;fill-opacity:1;stroke:#f50000;stroke-width:0.252456;stroke-linecap:round;stroke-dasharray:2.52455, 2.52455;stroke-dashoffset:0;stroke-opacity:1"
       d="m 106.9272,57.447179 0.63955,0.865341 c 0,0 0,0.526747 0.11388,0.902969 0.11409,0.376228 0.48913,1.354444 0.71489,1.580169 0.22571,0.225748 0.0374,0.564375 1.84355,1.128721 1.80593,0.564347 2.14451,0.714843 2.48312,0.790094 0.3386,0.07514 1.80592,0.677226 1.80592,0.677226 0,0 1.9188,1.128705 2.2574,1.241582 0.33862,0.112726 2.82178,0.714826 3.27327,0.752459 0.45145,0.0375 2.03163,0.22574 2.03163,0.22574 l 1.12871,-0.0751"
       id="path12562" /><image
       width="28.79924"
       height="14.494982"
       preserveAspectRatio="none"
       style="image-rendering:optimizeQuality"
       xlink:href="fisher.png"
       id="image13836"
       x="-198.56781"
       y="-114.47336"
       transform="scale(-1)" /><image
       width="99.605789"
       height="31.47543"
       preserveAspectRatio="none"
       style="image-rendering:optimizeQuality"
       xlink:href="missionlogo.png"
       id="image14574"
       x="-136.87613"
       y="-40.570656"
       transform="scale(-1)" /><text
       xml:space="preserve"
       style="font-size:3.37119px;font-family:'Segoe Print';-inkscape-font-specification:'Segoe Print, Normal';text-align:center;direction:rtl;text-orientation:sideways;text-anchor:middle;opacity:0.5;fill:none;fill-opacity:1;stroke:#000000;stroke-width:0.561859;stroke-linecap:round;stroke-dasharray:none;stroke-dashoffset:0;stroke-opacity:1"
       x="-161.76591"
       y="-22.2157"
       id="text19110"
       transform="scale(-1)"><tspan
         sodipodi:role="line"
         id="tspan19108"
         style="stroke-width:0.56186"
         x="-161.76591"
         y="-22.2157" /></text><path
       style="opacity:0.5;fill:none;fill-opacity:1;stroke:#ff0000;stroke-width:0.224745;stroke-linecap:round;stroke-dasharray:0.449486, 2.24745;stroke-dashoffset:0;stroke-opacity:1"
       d="m 126.87107,45.552462 c 0,0 1.11495,-1.70959 1.48659,-1.932576 0.37165,-0.22299 1.7096,-1.189275 2.15558,-1.560926 0.44598,-0.371654 2.2299,-1.560907 2.7502,-2.006948 0.52031,-0.445912 1.63526,-1.040596 3.04754,-1.486568 1.41226,-0.445952 2.30423,-0.594565 2.30423,-0.594565"
       id="path22220" /><g
       inkscape:label="Hershey Text"
       style="fill:none;stroke:#000000;stroke-linecap:round;stroke-linejoin:round"
       id="g23970"
       transform="matrix(-1.1237283,0,0,-1.1237283,223.10251,129.8044)"><g
         transform="translate(20.281632,102.24996)"
         id="g23956"><path
           d="M 220,662 V 0 M 662,662 V 0 M 220,346 h 442"
           style="stroke-width:0.3962in"
           transform="scale(0.0035,-0.0035)"
           id="path23942" /><path
           d="M 567,441 V 0 m 0,346 -63,64 -63,31 H 346 L 284,410 220,346 189,252 V 189 L 220,94.5 284,31.5 346,0 h 95 l 63,31.5 63,63"
           style="stroke-width:0.3962in"
           transform="matrix(0.0035,0,0,-0.0035,2.4255,0)"
           id="path23944" /><path
           d="M 220,441 V 0 m 0,315 95,95 63,31 h 94 l 64,-31 31,-95 V 0 m 0,315 95,95 62,31 h 95 l 63,-31 32,-95 V 0"
           style="stroke-width:0.3962in"
           transform="matrix(0.0035,0,0,-0.0035,4.5185,0)"
           id="path23946" /><path
           d="m 220,441 v -661 m 0,566 64,64 62,31 h 95 l 63,-31 63,-64 31,-94 V 189 L 567,94.5 504,31.5 441,0 h -95 l -62,31.5 -64,63"
           style="stroke-width:0.3962in"
           transform="matrix(0.0035,0,0,-0.0035,7.826,0)"
           id="path23948" /><path
           d="M 252,662 V 126 L 284,31.5 346,0 h 64 M 158,441 h 220"
           style="stroke-width:0.3962in"
           transform="matrix(0.0035,0,0,-0.0035,9.919,0)"
           id="path23950" /><path
           d="M 346,441 284,410 220,346 189,252 V 189 L 220,94.5 284,31.5 346,0 h 95 l 63,31.5 63,63 31,94.5 v 63 l -31,94 -63,64 -63,31 h -95"
           style="stroke-width:0.3962in"
           transform="matrix(0.0035,0,0,-0.0035,11.242,0)"
           id="path23952" /><path
           d="M 220,441 V 0 m 0,315 95,95 63,31 h 94 l 64,-31 31,-95 V 0"
           style="stroke-width:0.3962in"
           transform="matrix(0.0035,0,0,-0.0035,13.335,0)"
           id="path23954" /></g><g
         transform="translate(20.281632,106.62526)"
         id="g23968"><path
           d="M 220,662 V 0 m 0,0 h 378"
           style="stroke-width:0.3962in"
           transform="scale(0.0035,-0.0035)"
           id="path23958" /><path
           d="M 346,441 284,410 220,346 189,252 V 189 L 220,94.5 284,31.5 346,0 h 95 l 63,31.5 63,63 31,94.5 v 63 l -31,94 -63,64 -63,31 h -95"
           style="stroke-width:0.3962in"
           transform="matrix(0.0035,0,0,-0.0035,1.876,0)"
           id="path23960" /><path
           d="M 567,662 V 0 m 0,346 -63,64 -63,31 H 346 L 284,410 220,346 189,252 V 189 L 220,94.5 284,31.5 346,0 h 95 l 63,31.5 63,63"
           style="stroke-width:0.3962in"
           transform="matrix(0.0035,0,0,-0.0035,3.969,0)"
           id="path23962" /><path
           d="M 567,441 V -63 l -31,-95 -32,-31 -63,-31 h -95 l -62,31 m 283,535 -63,64 -63,31 H 346 L 284,410 220,346 189,252 V 189 L 220,94.5 284,31.5 346,0 h 95 l 63,31.5 63,63"
           style="stroke-width:0.3962in"
           id="path23964"
           transform="matrix(0.0035,0,0,-0.0035,6.062,0)" /><path
           d="m 189,252 h 378 v 63 l -31,63 -32,32 -63,31 H 346 L 284,410 220,346 189,252 V 189 L 220,94.5 284,31.5 346,0 h 95 l 63,31.5 63,63"
           style="stroke-width:0.3962in"
           transform="matrix(0.0035,0,0,-0.0035,8.155,0)"
           id="path23966" /></g></g><g
       inkscape:label="Hershey Text"
       style="fill:none;stroke:#000000;stroke-linecap:round;stroke-linejoin:round"
       transform="matrix(-1.0238826,0.46306681,-0.46306681,-1.0238826,224.15369,124.96895)"
       id="g23986"><g
         transform="translate(20.4185,104.078)"
         id="g23984"><path
           d="m 662,504 -32,63 -63,63 -63,32 H 378 L 315,630 252,567 220,504 189,410 V 252 l 31,-94 32,-63.5 63,-63 L 378,0 h 126 l 63,31.5 63,63 32,63.5"
           style="stroke-width:0.4622in"
           transform="scale(0.003,-0.003)"
           id="path23972" /><path
           d="M 220,662 V 0 m 0,315 95,95 63,31 h 94 l 64,-31 31,-95 V 0"
           style="stroke-width:0.4622in"
           transform="matrix(0.003,0,0,-0.003,1.986,0)"
           id="path23974" /><path
           d="M 567,441 V 0 m 0,346 -63,64 -63,31 H 346 L 284,410 220,346 189,252 V 189 L 220,94.5 284,31.5 346,0 h 95 l 63,31.5 63,63"
           style="stroke-width:0.4622in"
           transform="matrix(0.003,0,0,-0.003,3.78,0)"
           id="path23976" /><path
           d="m 189,662 31,-32 32,32 -32,31 -31,-31 M 220,441 V 0"
           style="stroke-width:0.4622in"
           transform="matrix(0.003,0,0,-0.003,5.574,0)"
           id="path23978" /><path
           d="M 220,441 V 0 m 0,252 32,94 63,64 63,31 h 94"
           style="stroke-width:0.4622in"
           transform="matrix(0.003,0,0,-0.003,6.33,0)"
           id="path23980" /><path
           d="m 284,536 62,31 95,95 V 0"
           style="stroke-width:0.4622in"
           transform="matrix(0.003,0,0,-0.003,8.694,0)"
           id="path23982" /></g></g><g
       inkscape:label="Hershey Text"
       style="fill:none;stroke:#000000;stroke-linecap:round;stroke-linejoin:round"
       id="g24014"
       transform="matrix(-1.1237283,0,0,-1.1237283,221.21037,130.01464)"><g
         transform="translate(85.8794,72.4558)"
         id="g24000"><path
           d="M 220,662 V 0 M 220,662 472,0 M 724,662 472,0 M 724,662 V 0"
           style="stroke-width:0.3962in"
           transform="scale(0.0035,-0.0035)"
           id="path23988" /><path
           d="m 189,662 31,-32 32,32 -32,31 -31,-31 M 220,441 V 0"
           style="stroke-width:0.3962in"
           transform="matrix(0.0035,0,0,-0.0035,2.646,0)"
           id="path23990" /><path
           d="M 567,662 V 0 m 0,346 -63,64 -63,31 H 346 L 284,410 220,346 189,252 V 189 L 220,94.5 284,31.5 346,0 h 95 l 63,31.5 63,63"
           style="stroke-width:0.3962in"
           transform="matrix(0.0035,0,0,-0.0035,3.528,0)"
           id="path23992" /><path
           d="M 189,441 315,0 M 441,441 315,0 M 441,441 567,0 M 693,441 567,0"
           style="stroke-width:0.3962in"
           transform="matrix(0.0035,0,0,-0.0035,5.621,0)"
           id="path23994" /><path
           d="M 567,441 V 0 m 0,346 -63,64 -63,31 H 346 L 284,410 220,346 189,252 V 189 L 220,94.5 284,31.5 346,0 h 95 l 63,31.5 63,63"
           style="stroke-width:0.3962in"
           transform="matrix(0.0035,0,0,-0.0035,8.0465,0)"
           id="path23996" /><path
           d="M 158,441 346,0 M 536,441 346,0 l -62,-126 -64,-63 -62,-31 h -32"
           style="stroke-width:0.3962in"
           transform="matrix(0.0035,0,0,-0.0035,10.1395,0)"
           id="path23998" /></g><g
         transform="translate(85.8794,76.8308)"
         id="g24012"><path
           d="M 220,662 V 0 m 0,0 h 378"
           style="stroke-width:0.3962in"
           transform="scale(0.0035,-0.0035)"
           id="path24002" /><path
           d="M 346,441 284,410 220,346 189,252 V 189 L 220,94.5 284,31.5 346,0 h 95 l 63,31.5 63,63 31,94.5 v 63 l -31,94 -63,64 -63,31 h -95"
           style="stroke-width:0.3962in"
           transform="matrix(0.0035,0,0,-0.0035,1.876,0)"
           id="path24004" /><path
           d="M 567,662 V 0 m 0,346 -63,64 -63,31 H 346 L 284,410 220,346 189,252 V 189 L 220,94.5 284,31.5 346,0 h 95 l 63,31.5 63,63"
           style="stroke-width:0.3962in"
           transform="matrix(0.0035,0,0,-0.0035,3.969,0)"
           id="path24006" /><path
           d="M 567,441 V -63 l -31,-95 -32,-31 -63,-31 h -95 l -62,31 m 283,535 -63,64 -63,31 H 346 L 284,410 220,346 189,252 V 189 L 220,94.5 284,31.5 346,0 h 95 l 63,31.5 63,63"
           style="stroke-width:0.3962in"
           transform="matrix(0.0035,0,0,-0.0035,6.062,0)"
           id="path24008" /><path
           d="m 189,252 h 378 v 63 l -31,63 -32,32 -63,31 H 346 L 284,410 220,346 189,252 V 189 L 220,94.5 284,31.5 346,0 h 95 l 63,31.5 63,63"
           style="stroke-width:0.3962in"
           transform="matrix(0.0035,0,0,-0.0035,8.155,0)"
           id="path24010" /></g></g><g
       inkscape:label="Hershey Text"
       style="fill:none;stroke:#000000;stroke-linecap:round;stroke-linejoin:round"
       transform="matrix(-0.91989236,0.64541806,-0.64541806,-0.91989236,221.21037,125.8099)"
       id="g24030"><g
         transform="translate(49.5947,102.934)"
         id="g24028"><path
           d="m 662,504 -32,63 -63,63 -63,32 H 378 L 315,630 252,567 220,504 189,410 V 252 l 31,-94 32,-63.5 63,-63 L 378,0 h 126 l 63,31.5 63,63 32,63.5"
           style="stroke-width:0.4622in"
           transform="scale(0.003,-0.003)"
           id="path24016" /><path
           d="M 220,662 V 0 m 0,315 95,95 63,31 h 94 l 64,-31 31,-95 V 0"
           style="stroke-width:0.4622in"
           transform="matrix(0.003,0,0,-0.003,1.986,0)"
           id="path24018" /><path
           d="M 567,441 V 0 m 0,346 -63,64 -63,31 H 346 L 284,410 220,346 189,252 V 189 L 220,94.5 284,31.5 346,0 h 95 l 63,31.5 63,63"
           style="stroke-width:0.4622in"
           transform="matrix(0.003,0,0,-0.003,3.78,0)"
           id="path24020" /><path
           d="m 189,662 31,-32 32,32 -32,31 -31,-31 M 220,441 V 0"
           style="stroke-width:0.4622in"
           transform="matrix(0.003,0,0,-0.003,5.574,0)"
           id="path24022" /><path
           d="M 220,441 V 0 m 0,252 32,94 63,64 63,31 h 94"
           style="stroke-width:0.4622in"
           transform="matrix(0.003,0,0,-0.003,6.33,0)"
           id="path24024" /><path
           d="m 220,504 v 32 l 32,62 32,32 62,32 h 126 l 64,-32 31,-32 31,-62 V 472 L 567,410 504,315 189,0 h 441"
           style="stroke-width:0.4622in"
           transform="matrix(0.003,0,0,-0.003,8.694,0)"
           id="path24026" /></g></g><g
       inkscape:label="Hershey Text"
       style="fill:none;stroke:#000000;stroke-linecap:round;stroke-linejoin:round"
       transform="matrix(-1.0564345,-0.38303094,0.38303094,-1.0564345,221.00015,130.64535)"
       id="g24046"><g
         transform="translate(93.0498,-1.83506)"
         id="g24044"><path
           d="m 662,504 -32,63 -63,63 -63,32 H 378 L 315,630 252,567 220,504 189,410 V 252 l 31,-94 32,-63.5 63,-63 L 378,0 h 126 l 63,31.5 63,63 32,63.5"
           style="stroke-width:0.4622in"
           transform="scale(0.003,-0.003)"
           id="path24032" /><path
           d="M 220,662 V 0 m 0,315 95,95 63,31 h 94 l 64,-31 31,-95 V 0"
           style="stroke-width:0.4622in"
           transform="matrix(0.003,0,0,-0.003,1.986,0)"
           id="path24034" /><path
           d="M 567,441 V 0 m 0,346 -63,64 -63,31 H 346 L 284,410 220,346 189,252 V 189 L 220,94.5 284,31.5 346,0 h 95 l 63,31.5 63,63"
           style="stroke-width:0.4622in"
           transform="matrix(0.003,0,0,-0.003,3.78,0)"
           id="path24036" /><path
           d="m 189,662 31,-32 32,32 -32,31 -31,-31 M 220,441 V 0"
           style="stroke-width:0.4622in"
           transform="matrix(0.003,0,0,-0.003,5.574,0)"
           id="path24038" /><path
           d="M 220,441 V 0 m 0,252 32,94 63,64 63,31 h 94"
           style="stroke-width:0.4622in"
           transform="matrix(0.003,0,0,-0.003,6.33,0)"
           id="path24040" /><path
           d="M 252,662 H 598 L 410,410 h 94 l 63,-32 31,-32 32,-94 V 189 L 598,94.5 536,31.5 441,0 H 346 L 252,31.5 220,63 189,126"
           style="stroke-width:0.4622in"
           transform="matrix(0.003,0,0,-0.003,8.694,0)"
           id="path24042" /></g></g><g
       inkscape:label="Hershey Text"
       style="fill:none;stroke:#000000;stroke-linecap:round;stroke-linejoin:round"
       transform="matrix(-1.0321924,0.44423552,-0.44423552,-1.0321924,217.42611,128.33274)"
       id="g24062"><g
         transform="translate(7.85483,53.4209)"
         id="g24060"><path
           d="m 662,504 -32,63 -63,63 -63,32 H 378 L 315,630 252,567 220,504 189,410 V 252 l 31,-94 32,-63.5 63,-63 L 378,0 h 126 l 63,31.5 63,63 32,63.5"
           style="stroke-width:0.4622in"
           transform="scale(0.003,-0.003)"
           id="path24048" /><path
           d="M 220,662 V 0 m 0,315 95,95 63,31 h 94 l 64,-31 31,-95 V 0"
           style="stroke-width:0.4622in"
           transform="matrix(0.003,0,0,-0.003,1.986,0)"
           id="path24050" /><path
           d="M 567,441 V 0 m 0,346 -63,64 -63,31 H 346 L 284,410 220,346 189,252 V 189 L 220,94.5 284,31.5 346,0 h 95 l 63,31.5 63,63"
           style="stroke-width:0.4622in"
           transform="matrix(0.003,0,0,-0.003,3.78,0)"
           id="path24052" /><path
           d="m 189,662 31,-32 32,32 -32,31 -31,-31 M 220,441 V 0"
           style="stroke-width:0.4622in"
           transform="matrix(0.003,0,0,-0.003,5.574,0)"
           id="path24054" /><path
           d="M 220,441 V 0 m 0,252 32,94 63,64 63,31 h 94"
           style="stroke-width:0.4622in"
           transform="matrix(0.003,0,0,-0.003,6.33,0)"
           id="path24056" /><path
           d="M 504,662 189,220 H 662 M 504,662 V 0"
           style="stroke-width:0.4622in"
           transform="matrix(0.003,0,0,-0.003,8.694,0)"
           id="path24058" /></g></g><g
       inkscape:label="Hershey Text"
       style="fill:none;stroke:#000000;stroke-linecap:round;stroke-linejoin:round"
       transform="matrix(-1.1135275,0.15107188,-0.15107188,-1.1135275,220.2355,130.40423)"
       id="g24084"><g
         transform="translate(54.5923,26.0736)"
         id="g24082"><path
           d="M 220,662 V 0 M 220,662 472,0 M 724,662 472,0 M 724,662 V 0"
           style="stroke-width:0.3962in"
           transform="scale(0.0035,-0.0035)"
           id="path24064" /><path
           d="m 189,662 31,-32 32,32 -32,31 -31,-31 M 220,441 V 0"
           style="stroke-width:0.3962in"
           transform="matrix(0.0035,0,0,-0.0035,2.646,0)"
           id="path24066" /><path
           d="m 567,346 -63,64 -63,31 H 346 L 284,410 220,346 189,252 V 189 L 220,94.5 284,31.5 346,0 h 95 l 63,31.5 63,63"
           style="stroke-width:0.3962in"
           transform="matrix(0.0035,0,0,-0.0035,3.528,0)"
           id="path24068" /><path
           d="M 220,441 V 0 m 0,252 32,94 63,64 63,31 h 94"
           style="stroke-width:0.3962in"
           transform="matrix(0.0035,0,0,-0.0035,5.5125,0)"
           id="path24070" /><path
           d="M 346,441 284,410 220,346 189,252 V 189 L 220,94.5 284,31.5 346,0 h 95 l 63,31.5 63,63 31,94.5 v 63 l -31,94 -63,64 -63,31 h -95"
           style="stroke-width:0.3962in"
           transform="matrix(0.0035,0,0,-0.0035,6.9475,0)"
           id="path24072" /><path
           d="M 189,441 315,0 M 441,441 315,0 M 441,441 567,0 M 693,441 567,0"
           style="stroke-width:0.3962in"
           transform="matrix(0.0035,0,0,-0.0035,9.0405,0)"
           id="path24074" /><path
           d="M 567,441 V 0 m 0,346 -63,64 -63,31 H 346 L 284,410 220,346 189,252 V 189 L 220,94.5 284,31.5 346,0 h 95 l 63,31.5 63,63"
           style="stroke-width:0.3962in"
           transform="matrix(0.0035,0,0,-0.0035,11.466,0)"
           id="path24076" /><path
           d="M 158,441 346,0 M 536,441 346,0"
           style="stroke-width:0.3962in"
           transform="matrix(0.0035,0,0,-0.0035,13.559,0)"
           id="path24078" /><path
           d="m 189,252 h 378 v 63 l -31,63 -32,32 -63,31 H 346 L 284,410 220,346 189,252 V 189 L 220,94.5 284,31.5 346,0 h 95 l 63,31.5 63,63"
           style="stroke-width:0.3962in"
           transform="matrix(0.0035,0,0,-0.0035,15.323,0)"
           id="path24080" /></g></g><g
       inkscape:label="Hershey Text"
       style="fill:none;stroke:#000000;stroke-linecap:round;stroke-linejoin:round"
       transform="matrix(-1.1011525,-0.22412204,0.22412204,-1.1011525,226.4663,129.17369)"
       id="g24108"><g
         transform="translate(98.7898,-4.40853)"
         id="g24106"><path
           d="M 158,662 315,0 M 472,662 315,0 M 472,662 630,0 M 788,662 630,0"
           style="stroke-width:0.3962in"
           transform="scale(0.0035,-0.0035)"
           id="path24086" /><path
           d="m 189,662 31,-32 32,32 -32,31 -31,-31 M 220,441 V 0"
           style="stroke-width:0.3962in"
           transform="matrix(0.0035,0,0,-0.0035,2.646,0)"
           id="path24088" /><path
           d="M 220,441 V 0 m 0,315 95,95 63,31 h 94 l 64,-31 31,-95 V 0"
           style="stroke-width:0.3962in"
           transform="matrix(0.0035,0,0,-0.0035,3.528,0)"
           id="path24090" /><path
           d="M 567,662 V 0 m 0,346 -63,64 -63,31 H 346 L 284,410 220,346 189,252 V 189 L 220,94.5 284,31.5 346,0 h 95 l 63,31.5 63,63"
           style="stroke-width:0.3962in"
           transform="matrix(0.0035,0,0,-0.0035,5.621,0)"
           id="path24092" /><path
           d="M 158,441 346,0 M 536,441 346,0 l -62,-126 -64,-63 -62,-31 h -32"
           style="stroke-width:0.3962in"
           transform="matrix(0.0035,0,0,-0.0035,7.714,0)"
           id="path24094" /><path
           d="M 220,662 V 0 m 0,662 h 284 l 94,-32 32,-32 32,-62 V 472 L 630,410 598,378 504,346 H 220 M 441,346 662,0"
           style="stroke-width:0.3962in"
           transform="matrix(0.0035,0,0,-0.0035,10.801,0)"
           id="path24096" /><path
           d="m 189,662 31,-32 32,32 -32,31 -31,-31 M 220,441 V 0"
           style="stroke-width:0.3962in"
           transform="matrix(0.0035,0,0,-0.0035,13.118,0)"
           id="path24098" /><path
           d="M 567,662 V 0 m 0,346 -63,64 -63,31 H 346 L 284,410 220,346 189,252 V 189 L 220,94.5 284,31.5 346,0 h 95 l 63,31.5 63,63"
           style="stroke-width:0.3962in"
           transform="matrix(0.0035,0,0,-0.0035,14,0)"
           id="path24100" /><path
           d="M 567,441 V -63 l -31,-95 -32,-31 -63,-31 h -95 l -62,31 m 283,535 -63,64 -63,31 H 346 L 284,410 220,346 189,252 V 189 L 220,94.5 284,31.5 346,0 h 95 l 63,31.5 63,63"
           style="stroke-width:0.3962in"
           transform="matrix(0.0035,0,0,-0.0035,16.093,0)"
           id="path24102" /><path
           d="m 189,252 h 378 v 63 l -31,63 -32,32 -63,31 H 346 L 284,410 220,346 189,252 V 189 L 220,94.5 284,31.5 346,0 h 95 l 63,31.5 63,63"
           style="stroke-width:0.3962in"
           transform="matrix(0.0035,0,0,-0.0035,18.186,0)"
           id="path24104" /></g></g><g
       inkscape:label="Hershey Text"
       style="fill:none;stroke:#000000;stroke-linecap:round;stroke-linejoin:round"
       id="g24138"
       transform="matrix(-1.1657854,0,0,-1.1657854,238.16668,128.53798)"><g
         transform="translate(157.639,12.3708)"
         id="g24136"><path
           d="m 630,567 -63,63 -95,32 H 346 l -94,-32 -63,-63 v -63 l 31,-63 32,-31 63,-32 189,-63 63,-31 31,-32 32,-63 V 94.5 L 567,31.5 472,0 H 346 l -94,31.5 -63,63"
           style="stroke-width:0.3962in"
           transform="scale(0.0035,-0.0035)"
           id="path24110" /><path
           d="M 220,441 V 126 L 252,31.5 315,0 h 95 l 62,31.5 95,94.5 m 0,315 V 0"
           style="stroke-width:0.3962in"
           transform="matrix(0.0035,0,0,-0.0035,2.205,0)"
           id="path24112" /><path
           d="M 220,441 V 0 m 0,315 95,95 63,31 h 94 l 64,-31 31,-95 V 0 m 0,315 95,95 62,31 h 95 l 63,-31 32,-95 V 0"
           style="stroke-width:0.3962in"
           transform="matrix(0.0035,0,0,-0.0035,4.298,0)"
           id="path24114" /><path
           d="M 220,441 V 0 m 0,315 95,95 63,31 h 94 l 64,-31 31,-95 V 0 m 0,315 95,95 62,31 h 95 l 63,-31 32,-95 V 0"
           style="stroke-width:0.3962in"
           transform="matrix(0.0035,0,0,-0.0035,7.6055,0)"
           id="path24116" /><path
           d="m 189,662 31,-32 32,32 -32,31 -31,-31 M 220,441 V 0"
           style="stroke-width:0.3962in"
           transform="matrix(0.0035,0,0,-0.0035,10.913,0)"
           id="path24118" /><path
           d="M 252,662 V 126 L 284,31.5 346,0 h 64 M 158,441 h 220"
           style="stroke-width:0.3962in"
           transform="matrix(0.0035,0,0,-0.0035,11.795,0)"
           id="path24120" /><path
           d="m 598,567 -31,63 -95,32 H 410 L 315,630 252,536 220,378 V 220 L 252,94.5 315,31.5 410,0 h 31 l 95,31.5 62,63 32,94.5 v 31 l -32,95 -62,63 -95,32 h -31 l -95,-32 -63,-63 -32,-95"
           style="stroke-width:0.3962in"
           transform="matrix(0.0035,0,0,-0.0035,14.441,0)"
           id="path24122" /><path
           d="m 252,126 -32,-31.5 -31,31.5 31,32 32,-32 V 63 L 189,0"
           style="stroke-width:0.3962in"
           transform="matrix(0.0035,0,0,-0.0035,16.646,0)"
           id="path24124" /><path
           d="m 346,662 -94,-32 -32,-63 v -63 l 32,-63 63,-31 126,-32 95,-32 62,-62 32,-64 V 126 L 598,63 567,31.5 472,0 H 346 L 252,31.5 220,63 189,126 v 94 l 31,64 64,62 94,32 126,32 63,31 31,63 v 63 l -31,63 -95,32 H 346"
           style="stroke-width:0.3962in"
           transform="matrix(0.0035,0,0,-0.0035,17.528,0)"
           id="path24126" /><path
           d="m 220,504 v 32 l 32,62 32,32 62,32 h 126 l 64,-32 31,-32 31,-62 V 472 L 567,410 504,315 189,0 h 441"
           style="stroke-width:0.3962in"
           transform="matrix(0.0035,0,0,-0.0035,19.733,0)"
           id="path24128" /><path
           d="M 378,662 284,630 220,536 189,378 V 284 L 220,126 284,31.5 378,0 h 63 l 95,31.5 62,94.5 32,158 v 94 l -32,158 -62,94 -95,32 h -63"
           style="stroke-width:0.3962in"
           transform="matrix(0.0035,0,0,-0.0035,21.938,0)"
           id="path24130" /><path
           d="M 410,662 H 346 L 284,630 252,536 V 0 m -94,441 h 220"
           style="stroke-width:0.3962in"
           transform="matrix(0.0035,0,0,-0.0035,24.143,0)"
           id="path24132" /><path
           d="M 252,662 V 126 L 284,31.5 346,0 h 64 M 158,441 h 220"
           style="stroke-width:0.3962in"
           transform="matrix(0.0035,0,0,-0.0035,25.466,0)"
           id="path24134" /></g></g><g
       inkscape:label="Hershey Text"
       style="fill:none;stroke:#000000;stroke-linecap:round;stroke-linejoin:round"
       id="g24168"
       transform="matrix(-1.1237283,0,0,-1.1237283,226.67655,126.65086)"><g
         transform="translate(146.695,63.4928)"
         id="g24152"><path
           d="M 220,662 V 0 m 0,662 h 284 l 94,-32 32,-32 32,-62 v -64 l -32,-62 -32,-32 -94,-32 m -284,0 h 284 l 94,-31 32,-31 32,-64 V 126 L 630,63 598,31.5 504,0 H 220"
           style="stroke-width:0.3962in"
           transform="scale(0.0035,-0.0035)"
           id="path24140" /><path
           d="M 346,441 284,410 220,346 189,252 V 189 L 220,94.5 284,31.5 346,0 h 95 l 63,31.5 63,63 31,94.5 v 63 l -31,94 -63,64 -63,31 h -95"
           style="stroke-width:0.3962in"
           transform="matrix(0.0035,0,0,-0.0035,2.317,0)"
           id="path24142" /><path
           d="M 220,441 V 0 m 0,315 95,95 63,31 h 94 l 64,-31 31,-95 V 0 m 0,315 95,95 62,31 h 95 l 63,-31 32,-95 V 0"
           style="stroke-width:0.3962in"
           transform="matrix(0.0035,0,0,-0.0035,4.41,0)"
           id="path24144" /><path
           d="M 220,662 V 0 m 0,346 64,64 62,31 h 95 l 63,-31 63,-64 31,-94 V 189 L 567,94.5 504,31.5 441,0 h -95 l -62,31.5 -64,63"
           style="stroke-width:0.3962in"
           transform="matrix(0.0035,0,0,-0.0035,7.7175,0)"
           id="path24146" /><path
           d="m 189,252 h 378 v 63 l -31,63 -32,32 -63,31 H 346 L 284,410 220,346 189,252 V 189 L 220,94.5 284,31.5 346,0 h 95 l 63,31.5 63,63"
           style="stroke-width:0.3962in"
           transform="matrix(0.0035,0,0,-0.0035,9.8105,0)"
           id="path24148" /><path
           d="M 220,441 V 0 m 0,252 32,94 63,64 63,31 h 94"
           style="stroke-width:0.3962in"
           transform="matrix(0.0035,0,0,-0.0035,11.795,0)"
           id="path24150" /></g><g
         transform="translate(146.695,67.8678)"
         id="g24166"><path
           d="m 662,504 -32,63 -63,63 -63,32 H 378 L 315,630 252,567 220,504 189,410 V 252 l 31,-94 32,-63.5 63,-63 L 378,0 h 126 l 63,31.5 63,63 32,63.5"
           style="stroke-width:0.3962in"
           transform="scale(0.0035,-0.0035)"
           id="path24154" /><path
           d="M 220,662 V 0"
           style="stroke-width:0.3962in"
           transform="matrix(0.0035,0,0,-0.0035,2.317,0)"
           id="path24156" /><path
           d="m 189,662 31,-32 32,32 -32,31 -31,-31 M 220,441 V 0"
           style="stroke-width:0.3962in"
           transform="matrix(0.0035,0,0,-0.0035,3.199,0)"
           id="path24158" /><path
           d="M 410,662 H 346 L 284,630 252,536 V 0 m -94,441 h 220"
           style="stroke-width:0.3962in"
           transform="matrix(0.0035,0,0,-0.0035,4.081,0)"
           id="path24160" /><path
           d="M 410,662 H 346 L 284,630 252,536 V 0 m -94,441 h 220"
           style="stroke-width:0.3962in"
           transform="matrix(0.0035,0,0,-0.0035,5.404,0)"
           id="path24162" /><path
           d="m 536,346 -32,64 -94,31 h -95 l -95,-31 -31,-64 31,-62 64,-32 157,-32 63,-31 32,-63 V 94.5 L 504,31.5 410,0 h -95 l -95,31.5 -31,63"
           style="stroke-width:0.3962in"
           transform="matrix(0.0035,0,0,-0.0035,6.727,0)"
           id="path24164" /></g></g></g></svg>
