<?xml version="1.0" encoding="UTF-8" standalone="no"?>
<!-- Created with Inkscape (http://www.inkscape.org/) -->

<svg
   width="205mm"
   height="137.58701mm"
   viewBox="0 0 205 137.58701"
   version="1.1"
   id="svg991"
   inkscape:version="1.2.2 (732a01da63, 2022-12-09)"
   sodipodi:docname="runs.svg"
   xml:space="preserve"
   xmlns:inkscape="http://www.inkscape.org/namespaces/inkscape"
   xmlns:sodipodi="http://sodipodi.sourceforge.net/DTD/sodipodi-0.dtd"
   xmlns="http://www.w3.org/2000/svg"
   xmlns:svg="http://www.w3.org/2000/svg"><sodipodi:namedview
     id="namedview993"
     pagecolor="#ffffff"
     bordercolor="#000000"
     borderopacity="0.25"
     inkscape:showpageshadow="2"
     inkscape:pageopacity="0.0"
     inkscape:pagecheckerboard="0"
     inkscape:deskcolor="#d1d1d1"
     inkscape:document-units="mm"
     showgrid="false"
     inkscape:zoom="0.8092378"
     inkscape:cx="590.67928"
     inkscape:cy="185.35961"
     inkscape:window-width="1920"
     inkscape:window-height="1129"
     inkscape:window-x="1912"
     inkscape:window-y="-8"
     inkscape:window-maximized="1"
     inkscape:current-layer="layer1" /><defs
     id="defs988" /><g
     inkscape:label="Layer 1"
     inkscape:groupmode="layer"
     id="layer1"><path
       style="fill:#000000;fill-opacity:1;stroke:#0000ff;stroke-width:0.601745;stroke-linecap:round;stroke-dasharray:none;stroke-opacity:1"
       d="m 175.86655,21.205402 -5.93493,52.480919"
       id="path1236" /><path
       style="fill:#000000;fill-opacity:1;stroke:#0000ff;stroke-width:0.601745;stroke-linecap:round;stroke-dasharray:none;stroke-opacity:1"
       d="M 123.31902,46.345604 173.26585,19.538272"
       id="path3304" /><path
       style="fill:#000000;fill-opacity:1;stroke:#0000ff;stroke-width:0.601745;stroke-linecap:round;stroke-dasharray:none;stroke-opacity:1"
       d="M 135.7513,46.256846 116.44206,91.028811"
       id="path3306" /><path
       style="fill:#000000;fill-opacity:1;stroke:#0000ff;stroke-width:0.601745;stroke-linecap:round;stroke-dasharray:none;stroke-opacity:1"
       d="M 131.60181,46.610499 42.246551,105.45768"
       id="path3308" /><path
       style="fill:none;fill-opacity:1;stroke:#f50000;stroke-width:0.240714;stroke-linecap:round;stroke-dasharray:2.40713, 2.40713;stroke-dashoffset:0;stroke-opacity:1"
       d="m 170.00604,73.859981 c 0,0 0.50223,-0.21525 0.57398,-0.39463 0.0717,-0.17936 0.21526,-0.64571 0.39461,-0.89681 0.17938,-0.25114 0.39462,-0.68162 0.60986,-0.8251 0.21524,-0.1435 0.60985,-0.57398 1.18382,-0.75337 0.57399,-0.17934 1.32733,-0.50221 1.86545,-0.71746 0.53807,-0.21524 1.61428,-0.6816 2.22414,-1.00446 0.60985,-0.32287 0.8251,-0.50222 1.54257,-0.8251 0.71746,-0.32285 0.82511,-0.32285 1.29146,-0.9327 0.46634,-0.60986 0.71746,-0.57399 0.8251,-0.89684 0.10748,-0.322861 0.5022,-1.112082 0.57396,-1.291444 0.0717,-0.179376 0.10755,-0.322881 0.14349,-0.753359 0.0358,-0.430489 0.0358,-0.932708 0.35874,-1.25557 0.32285,-0.322882 0.43049,0.215236 1.00444,-0.860959 0.574,-1.076225 0.60986,-1.040351 0.71751,-2.080681 0.10748,-1.040342 0.17933,-1.327323 0.0717,-1.793673 -0.10761,-0.466366 -0.75338,-1.578445 -0.75338,-1.578445 l 0.287,-1.973043 c 0,0 0.71747,-2.547044 0.82509,-2.726394 0.10745,-0.179389 0.93271,-1.650195 1.18384,-1.937189 0.2511,-0.286989 1.7578,-2.224159 1.7578,-2.224159 0,0 1.18382,-1.399073 1.29147,-1.650178 0.10746,-0.251122 1.2197,-1.97305 1.25558,-2.188294 0.0358,-0.21524 0.28698,-1.578443 0.50219,-1.793688 0.21526,-0.215239 1.25557,-0.896839 1.25557,-0.896839 l 0.5381,-1.470811 0.46639,-2.905743 c 0,0 0.25107,-2.1524 0.21523,-2.2959 -0.0358,-0.14352 -0.53808,-1.722 -0.53808,-1.722 l -1.47087,-1.47082 c 0,0 -0.57396,-1.07616 -0.64571,-1.32729 -0.0716,-0.25108 -0.14348,-1.47083 -0.0716,-1.7578 0.0716,-0.28699 0.21522,-1.0762 0.21522,-1.32731 0,-0.25108 -0.75336,-1.43494 -0.86096,-1.57845 -0.10765,-0.14346 -1.50671,-0.64576 -1.72196,-0.71751 -0.21524,-0.0714 -2.76226,-0.64568 -2.76226,-0.64568 l -1.6143,-0.9327 -1.72194,-0.82512 -2.18829,-1.29139 -0.28699,-0.28704"
       id="path9492" /><path
       style="fill:none;fill-opacity:1;stroke:#f50000;stroke-width:0.240714;stroke-linecap:round;stroke-dasharray:2.40713, 2.40713;stroke-dashoffset:0;stroke-opacity:1"
       d="m 170.04192,73.824101 -0.93272,-0.71748 -1.36319,0.25112 -1.97305,0.28699 c 0,0 -1.04033,0.17937 -1.39906,0.21525 -0.35874,0.0358 -2.26005,0.17936 -2.47529,0.21525 -0.21523,0.0358 -2.11655,-0.10764 -2.11655,-0.10764 0,0 -1.7578,-0.8251 -1.93717,-0.8251 -0.17936,0 -1.82955,-0.43047 -1.82955,-0.43047 0,0 -1.25558,-0.53811 -1.47082,-0.60986 -0.21523,-0.0717 -2.83402,-1.25557 -2.83402,-1.25557 l -1.47081,-0.50223 -0.53812,-0.60986 -1.25557,-0.25112 -1.29145,0.43049 c 0,0 -1.0762,0.64573 -1.39907,0.75335 -0.32286,0.10756 -1.79367,0.93271 -1.79367,0.93271 l -1.11207,0.93272 -1.61433,0.32286 -0.71747,-0.0358"
       id="path10278" /><path
       style="fill:none;fill-opacity:1;stroke:#f50000;stroke-width:0.240714;stroke-linecap:round;stroke-dasharray:2.40713, 2.40713;stroke-dashoffset:0;stroke-opacity:1"
       d="m 151.38765,70.738971 c 0,0 0,-0.9686 0.0716,-1.11209 0.0717,-0.14349 0.0717,-0.93271 0.17939,-1.32733 0.10752,-0.39459 0.46635,-1.97305 0.53808,-2.224159 0.0716,-0.251108 0.32289,-0.68158 0.50224,-1.183817 0.17938,-0.502238 0.35873,-1.112087 0.64572,-1.578437 0.287,-0.466362 0.53811,-0.896832 0.89685,-1.291458 0.35873,-0.394598 0.39461,-0.502225 1.14796,-0.789216 0.75333,-0.286995 1.79367,-0.681599 2.29591,-0.932704 0.50223,-0.251124 0.89683,-0.753367 1.57842,-1.076224 0.68161,-0.322859 1.6502,-0.860962 2.18831,-1.112077 0.53809,-0.251108 1.86542,-1.076212 2.29591,-1.399073 0.43049,-0.322851 1.72194,-0.573965 1.75781,-0.717476 0.0358,-0.143491 0.78921,-2.295906 0.78921,-2.295906 0,0 0.64574,-1.506694 0.86097,-1.865424 0.21523,-0.358737 1.29145,-0.860973 1.47081,-1.040341 0.17936,-0.179356 1.14796,-0.896835 1.29145,-1.112077 0.14349,-0.215248 1.90132,-0.645722 2.08068,-0.681598 0.17936,-0.0358 1.86542,-0.251112 1.86542,-0.251112 0,0 0.93271,-1.11208 1.25557,-1.363204 0.32286,-0.2511 0.96858,-0.825088 1.54255,-1.076192 0.57398,-0.251129 1.68609,-0.825116 2.29593,-0.968609 0.60986,-0.143483 1.04034,-0.179349 1.72194,-0.466342 0.68158,-0.286991 1.43496,-1.00446 1.50669,-1.399066 0.0717,-0.394631 0.32287,-1.183843 0.46634,-1.29145 0.14351,-0.1076 1.82957,-0.93272 1.82957,-0.93272 0,0 1.43493,-1.147968 1.47081,-1.291448 0.0358,-0.143507 0.75335,-1.578458 0.75335,-1.578458 0,0 0.21525,-0.538116 0.32286,-0.932661 0.1075,-0.39466 0.57396,-1.50671 0.57396,-1.722 0,-0.21525 0.21526,-1.65012 0.25114,-1.93717 0.0357,-0.28701 0.53811,-1.65013 0.71747,-1.82956 0.17936,-0.17935 0.75337,-0.96855 0.75337,-0.96855 l 0.32283,-0.50225"
       id="path10280" /><path
       style="fill:none;fill-opacity:1;stroke:#f50000;stroke-width:0.240714;stroke-linecap:round;stroke-dasharray:2.40713, 2.40713;stroke-dashoffset:0;stroke-opacity:1"
       d="m 186.97426,37.233042 -0.43049,-1.21971 c 0,0 -0.64572,-0.53809 -0.86096,-0.64578 -0.21523,-0.10754 -1.32733,-0.64568 -1.65019,-0.75333 -0.32287,-0.10754 -0.75333,-0.14346 -1.11207,-0.25109 -0.35876,-0.10764 -2.69053,-0.68155 -3.0134,-0.68155 -0.32284,0 -1.00446,-0.10776 -1.29145,-0.21525 -0.28697,-0.10761 -0.96859,0.0362 -1.65017,-0.10761 -0.68162,-0.14352 -2.4753,-0.64576 -3.12102,-0.78925 -0.64571,-0.1435 -0.93271,-0.0715 -1.68604,-0.32287 -0.75336,-0.25105 -2.97752,-1.11201 -2.97752,-1.11201 0,0 -0.96859,-1.00448 -1.11207,-1.29149 -0.14352,-0.28703 -0.71748,-1.32734 -0.71748,-1.32734 l 0.14349,-1.36316 0.46635,-0.96857"
       id="path10282" /><path
       style="fill:none;fill-opacity:1;stroke:#f50000;stroke-width:0.240714;stroke-linecap:round;stroke-dasharray:2.40713, 2.40713;stroke-dashoffset:0;stroke-opacity:1"
       d="m 176.67854,69.304011 -0.17938,-0.78921 -0.89683,-0.32285 c 0,0 -0.6816,0.17935 -0.93272,0.39459 -0.25111,0.21527 -0.75335,0.50225 -0.75335,0.50225 0,0 -0.78922,-0.10749 -0.93272,-0.25112 -0.14348,-0.1435 -0.57396,-0.64572 -0.7892,-1.07621 -0.21525,-0.43049 -0.39461,-1.43496 -0.39461,-1.578438 0,-0.143506 0.0357,-0.753343 0.28699,-1.040332 0.25111,-0.286986 0.71747,-1.004472 0.71747,-1.004472 0,0 0.6816,-1.255571 0.82509,-1.68604 0.1435,-0.430499 0.35874,-0.789237 0.71748,-1.542576 0.35873,-0.753351 0.68159,-1.183833 0.68159,-1.542563 0,-0.358736 0,-1.470816 0,-1.901307 0,-0.430486 -0.53812,-2.188279 -0.53812,-2.188279 0,0 -0.46634,-1.004477 -0.57397,-1.219708 -0.10759,-0.215247 -0.3946,-0.609861 -0.50223,-0.753354 -0.10754,-0.143499 -0.60984,-0.538103 -0.60984,-0.538103 l -1.04033,-0.573979 c 0,0 -0.46636,-0.932712 -0.50224,-1.076191 -0.0358,-0.143512 -0.35873,-1.721943 -0.35873,-1.721943"
       id="path10284" /><path
       style="fill:none;fill-opacity:1;stroke:#f50000;stroke-width:0.240714;stroke-linecap:round;stroke-dasharray:2.40713, 2.40713;stroke-dashoffset:0;stroke-opacity:1"
       d="m 167.49489,73.321861 -0.86096,-1.32732 -0.89684,-1.43494 c 0,0 -0.25112,-1.04034 -0.25112,-1.2197 0,-0.17938 -0.0716,-1.07622 -0.0716,-1.36319 0,-0.287 0.28698,-0.71749 0.28698,-0.71749 0,0 0.57398,-1.112068 0.68158,-1.327312 0.10771,-0.215239 0.60988,-1.183833 0.68163,-1.434948 0.0716,-0.251114 0.71746,-1.901306 0.71746,-1.901306 l 0.64573,-1.901286 c 0,0 0.8251,-0.717488 0.89684,-0.896848 0.0716,-0.179369 0.25112,-0.825089 0.28699,-1.219696 0.0357,-0.394624 0.10753,-1.614314 0.10753,-1.757816 0,-0.143499 0.35873,-1.291449 0.35873,-1.291449 0,0 0.28699,-1.11208 0.32288,-1.363206 0.0358,-0.251107 0.35874,-1.291448 0.35874,-1.291448 l 0.10759,-0.96859 0.0358,-0.789197"
       id="path10286" /><path
       style="fill:none;fill-opacity:1;stroke:#f50000;stroke-width:0.240714;stroke-linecap:round;stroke-dasharray:2.40713, 2.40713;stroke-dashoffset:0;stroke-opacity:1"
       d="m 151.45939,69.698631 c 0,0 0.86095,-0.35873 1.29146,-0.43048 0.43047,-0.0716 0.96857,-0.28698 1.75779,-0.43048 0.78922,-0.1435 3.0134,-0.60985 3.0134,-0.60985 0,0 0.64572,-0.28698 1.61431,-0.32286 0.96857,-0.0358 2.76226,-0.53811 2.94162,-0.64574 0.17938,-0.10762 0.75336,-0.75333 1.43495,-0.89682 0.6816,-0.143496 2.72639,-0.753355 2.72639,-0.753355 l 0.53811,-0.179366"
       id="path10288" /><path
       style="fill:none;fill-opacity:1;stroke:#f50000;stroke-width:0.241;stroke-linecap:round;stroke-dasharray:2.41, 0.241;stroke-dashoffset:0;stroke-opacity:1"
       d="m 163.54879,66.326501 c 0,0 -0.57397,0.9686 -0.60985,1.18385 -0.0357,0.21524 -0.35873,0.9327 -0.35873,1.11207 0,0.17939 -0.1435,0.64573 -0.25111,1.04035 -0.10758,0.3946 -0.21525,0.93271 -0.25113,1.21969 -0.0358,0.287 0.21524,1.43494 0.21524,1.43494 0,0 0.50225,0.71748 0.68161,0.8251 0.17937,0.10757 0.64572,0.75334 0.64572,0.75334"
       id="path10290" /><path
       style="fill:none;fill-opacity:1;stroke:#f50000;stroke-width:0.240714;stroke-linecap:round;stroke-dasharray:2.40713, 2.40713;stroke-dashoffset:0;stroke-opacity:1"
       d="m 41.789561,105.7417 c 0,0 -0.0511,-0.88783 0,-0.98929 0.0489,-0.1015 0.20287,-0.71027 0.35511,-0.91319 0.15231,-0.20294 0.53256,-1.01467 0.58337,-1.21759 0.0505,-0.20295 -0.0255,-1.64882 -0.0255,-1.64882 0,0 -0.43131,-0.73562 -0.55795,-0.78637 -0.12695,-0.0508 -1.80111,-0.735629 -1.80111,-0.735629 l -2.6382,-1.72492 -1.3443,-1.49662 -2.02945,-1.34442 -3.17071,-2.73958 c 0,0 -1.19229,-1.64881 -1.29371,-1.80101 -0.10371,-0.1522 -1.8772,-1.80103 -1.8772,-1.80103 0,0 -1.19204,-1.29369 -1.31908,-1.42052 -0.12654,-0.12684 -1.77557,-1.72493 -1.95317,-1.9025 -0.17744,-0.17754 -1.72491,-1.62344 -1.80105,-1.80101 -0.076,-0.17755 -1.03993,-1.47126 -1.14144,-1.80102 -0.10335,-0.32975 -0.40586,-2.30833 -0.40586,-2.48592 0,-0.17755 1.03994,-1.24296 1.19233,-1.26832 0.15223,-0.0253 1.67405,-0.83708 1.97858,-0.9132 0.30432,-0.0761 1.29355,-0.50732 1.97841,-0.63416 0.68496,-0.12682 2.28318,-0.71025 3.50062,-0.73561 1.21757,-0.0254 3.39925,-0.65954 3.83045,-0.71026 0.43118,-0.0508 1.87717,-0.20295 2.61273,-0.0254 0.73566,0.17756 2.05471,0.0761 2.94249,0.0254 0.88791,-0.0508 2.05476,0.1015 2.73967,0.1015 0.68482,0 3.04381,-0.63417 3.04381,-0.63417 l 1.72515,-0.83708 c 0,0 0.45645,-0.6088 0.53258,-0.761 0.0738,-0.1522 0.3551,-0.58343 0.81166,-0.71025 0.45667,-0.12684 0.81169,-0.35514 1.5474,-0.3805 0.73558,-0.0253 1.49665,0.0508 1.97853,0.15219 0.48204,0.10157 2.63816,-0.10156 2.89179,-0.20293 0.25373,-0.10152 1.6742,-0.8371 1.6742,-0.8371 0,0 1.75035,-0.81171 1.80106,-0.93855 0.0498,-0.12684 1.87705,-1.85176 1.87705,-1.85176 0,0 1.6235,-1.953209 1.64887,-2.054687 0.0253,-0.101544 2.30835,-2.156147 2.30835,-2.156147 l 2.46064,-1.445873 c 0,0 3.09454,-1.877122 3.50034,-2.029327 0.40604,-0.152209 3.525999,-1.750299 3.627469,-1.826393 0.10314,-0.07608 3.85569,-2.003954 3.85569,-2.003954 l 4.3377,-1.572725 4.51527,-1.014646 c 0,0 3.7544,-0.786374 4.05865,-0.786374 0.30419,0 3.19622,-0.481948 3.42451,-0.507314 0.22833,-0.0254 3.27235,0.659516 3.27235,0.659516 l 2.81553,1.040011 2.13074,0.634153 3.50056,-0.177547 2.73957,0.279032 2.00396,0.05077 c 0,0 1.59809,-1.268302 1.62345,-1.369779 0.0253,-0.101531 1.21759,-1.192225 1.31906,-1.293694 0.10152,-0.101549 1.52199,-0.405849 1.62346,-0.431223 0.10152,-0.02533 1.90248,-0.07612 2.18151,-0.07612 0.27904,0 2.28298,0.202928 2.40982,0.202928 0.12684,0 2.66348,-0.07609 2.66348,-0.07609 l 2.35909,-0.07612 1.16685,-0.07608 2.61274,-1.395164 1.95322,-1.065385 0.58343,-0.608797"
       id="path11018" /><path
       style="fill:none;fill-opacity:1;stroke:#f50000;stroke-width:0.240714;stroke-linecap:round;stroke-dasharray:2.40713, 2.40713;stroke-dashoffset:0;stroke-opacity:1"
       d="m 45.391541,74.185811 c 0,0 2.13082,-0.15219 2.38439,-0.17757 0.25387,-0.0254 1.34455,-0.1522 2.00414,0.25367 0.65948,0.40585 1.39499,1.16687 1.59801,1.47126 0.20301,0.30441 0.65946,1.57271 0.93866,1.77565 0.27889,0.20294 1.19211,0.81173 1.49636,0.86245 0.30451,0.0508 2.66351,0.0508 3.17088,0.0508 0.50729,0 1.14145,-0.12684 1.598,0 0.45678,0.12682 1.67437,0.71024 1.82659,0.83709 0.1521,0.12683 1.44575,0.86245 1.54721,0.93856 0.10318,0.0761 1.29381,0.63417 1.44608,0.68489 0.15202,0.0508 1.3189,0.35514 1.52192,0.45659 0.20291,0.1015 1.09066,0.40588 1.21759,0.48197 0.12666,0.0762 0.73566,0.9132 0.73566,1.01466 0,0.10154 0.049,0.91318 0.049,0.91318 l -0.38054,0.88783 c 0,0 -0.88781,0.45661 -0.98933,0.55808 -0.10323,0.10155 -0.60861,0.60878 -0.60861,0.71024 0,0.10154 0.30422,1.34443 0.30422,1.34443 l 1.75037,0.58342 c 0,0 0.86239,-0.15218 1.522,-0.25366 0.6595,-0.10151 3.475179,-0.88781 3.703639,-1.04001 0.22822,-0.15221 0.71012,-0.43123 1.26829,-0.43123 0.55796,0 1.34423,0.0508 1.82625,0.12682 0.48208,0.0761 2.10541,0.30441 2.25773,0.30441 0.15211,0 1.39503,0 1.69938,0 0.3046,0 1.97871,0.27903 1.97871,0.27903 0,0 1.82632,0.58342 2.10557,0.58342 0.27886,0 1.85167,0.20294 1.85167,0.20294 0,0 1.06524,-0.48196 1.19214,-0.65954 0.12692,-0.17756 0.32971,-0.93856 0.50723,-1.3444 0.17775,-0.40587 0.35534,-1.34445 0.73563,-1.57273 0.38051,-0.22831 1.97866,-0.63416 2.5114,-0.78636 0.53261,-0.1522 1.67412,-0.48196 2.13074,-0.43124 0.45663,0.0508 1.7757,0.32977 2.08002,0.43124 0.30451,0.10154 1.97868,0.68488 1.97868,0.68488 l 1.95349,0.40585 c 0,0 3.09469,0.22832 3.39907,0.22832 0.30439,0 0.96392,0 1.54733,0.0761 0.58342,0.0762 2.00398,0.22829 2.56204,0.1522 0.55804,-0.0761 1.9532,-0.3044 2.25762,-0.3044 0.30439,0 3.06932,0.86244 3.17079,0.88781 0.10164,0.0253 1.77574,0.71027 2.15623,0.83709 0.38063,0.12683 2.38458,0.50734 2.58752,0.58343 0.20301,0.0761 1.52207,0.38053 1.52207,0.38053 l 1.39569,0.58341 1.85177,0.86244 1.24294,0.38051 c 0,0 0.98929,0.22828 1.31906,0.20292 0.32977,-0.0253 1.59808,-0.38049 1.90249,-0.65953 0.3044,-0.27901 0.71025,-0.76098 0.78634,-1.04002 0.0761,-0.27902 0.20294,-0.93855 0.20294,-0.93855 0,0 -0.50733,-0.15221 -0.71024,-0.12684 -0.20295,0.0254 -0.48199,0.35513 -0.68491,0.45658 -0.20292,0.10156 -0.65952,0.35515 -0.83709,0.43125 -0.17757,0.0761 -0.91321,0.27903 -1.04002,0.3044 -0.12684,0.0252 -0.45661,0.0508 -0.6849,-0.10157 -0.22831,-0.15219 -0.6849,-0.43122 -0.86246,-0.5327 -0.17757,-0.10152 -1.31906,-0.76098 -1.47126,-0.78635 -0.1522,-0.0253 -2.30835,-0.73563 -2.30835,-0.73563 l -1.06539,-0.58342 c 0,0 -0.761,-0.9132 -0.88783,-1.01468 -0.12684,-0.10149 -2.89177,-0.96391 -2.89177,-0.96391 0,0 -2.02932,-0.48197 -2.30837,-0.60879 -0.27901,-0.12683 -1.90247,-0.73562 -2.66346,-0.86245 -0.76101,-0.12685 -3.29766,-0.4566 -3.72885,-0.60882 -0.43131,-0.15219 -1.80103,-0.43121 -1.80103,-0.43121 l -1.67419,-0.48197 c 0,0 -2.1815,-0.60878 -2.38449,-0.761 -0.20285,-0.15219 -1.77552,-1.01466 -1.92781,-1.11613 -0.15226,-0.10153 -2.30834,-1.26832 -2.46052,-1.47125 -0.15219,-0.20294 -1.87722,-0.88782 -2.05466,-1.11611 -0.17765,-0.22833 -0.76104,-1.36981 -0.76104,-1.36981 l -0.50734,-1.97858 c 0,0 -0.0486,-1.42052 -0.0748,-1.62345 -0.025,-0.20293 -1.92803,-1.49662 -1.92803,-1.49662 l -1.44566,-0.6849 c 0,0 -1.19233,-1.19223 -1.34449,-1.47125 -0.15227,-0.27904 -0.65939,-1.445889 -0.71015,-1.72491 -0.0507,-0.279054 -0.50726,-1.750299 -0.58349,-2.206899 -0.0743,-0.456601 -0.43122,-2.257617 -0.43122,-2.485916 0,-0.228294 -0.0499,-0.989284 0.15225,-1.065386 0.20272,-0.07608 1.06526,-0.481963 1.5218,-0.481963 0.45671,0 1.6998,-0.07615 2.08013,-0.07615 0.38063,0 1.52192,0.304406 1.59793,0.456602 0.0744,0.152205 0.73558,1.014652 0.86277,1.39515 0.12659,0.380505 0.40572,0.558064 0.35506,0.989304 -0.0516,0.431223 -0.10309,1.31904 0.0241,1.420516 0.12705,0.101521 0.12705,0.202931 0.12705,0.202931"
       id="path11020" /><path
       style="fill:none;fill-opacity:1;stroke:#f50000;stroke-width:0.240714;stroke-linecap:round;stroke-dasharray:2.40713, 2.40713;stroke-dashoffset:0;stroke-opacity:1"
       d="m 37.071311,96.964901 c 0,0 1.21761,-0.4566 1.47125,-0.63416 0.25358,-0.17756 1.2175,-0.58345 1.72496,-0.81172 0.50748,-0.22832 1.42055,-1.01466 1.62342,-1.21759 0.20301,-0.20294 0.68485,-0.71027 0.81182,-1.44589 0.12686,-0.73563 0.45654,-2.73959 0.53269,-2.96789 0.0745,-0.22831 0.48203,-0.96393 0.58338,-1.47125 0.10311,-0.50733 0.43122,-2.23224 0.55803,-2.51129 0.12694,-0.27902 0.58343,-1.06537 0.761,-1.29369 0.1774,-0.22828 0.63431,-0.88783 0.91313,-0.96392 0.27925,-0.0761 0.78641,-0.0508 1.16682,-0.17758 0.38076,-0.12681 1.04006,-0.25364 1.31936,-0.32975 0.27885,-0.0761 0.7099,-0.17756 0.86226,-0.35512 0.1523,-0.17757 0.76086,-0.73563 0.76086,-0.73563 0,0 1.06555,-0.81173 1.26849,-1.06539 0.20294,-0.25367 0.58336,-0.9132 0.7863,-1.1415 0.20299,-0.22829 1.01476,-1.34443 1.01476,-1.34443 l 0.30439,-0.22828"
       id="path11022" /><path
       style="fill:none;fill-opacity:1;stroke:#f50000;stroke-width:0.240714;stroke-linecap:round;stroke-dasharray:2.40713, 2.40713;stroke-dashoffset:0;stroke-opacity:1"
       d="m 42.372991,100.364 c 0,0 1.21749,-0.837089 1.31901,-0.862449 0.10324,-0.0254 0.88778,-1.01467 1.0654,-1.24296 0.1776,-0.22829 0.7357,-1.19222 0.91313,-1.59809 0.17765,-0.40587 0.63415,-1.29368 0.93873,-1.64883 0.30425,-0.35513 1.59802,-1.34442 1.9022,-1.52197 0.30456,-0.17757 0.93884,-0.43124 1.52216,-0.73564 0.58333,-0.30439 3.3738,-1.64882 3.3738,-1.64882 0,0 1.90238,-0.63416 2.08002,-0.68489 0.17743,-0.0508 3.52594,-0.96392 3.52594,-0.96392 0,0 3.12005,-0.6849 3.32298,-0.6849 0.2028,0 0.9385,0.0253 1.31905,0 0.38058,-0.0253 1.92781,-0.35513 1.92781,-0.35513 l 1.19221,-0.73564"
       id="path11024" /><path
       style="fill:none;fill-opacity:1;stroke:#f50000;stroke-width:0.240714;stroke-linecap:round;stroke-dasharray:2.40713, 2.40713;stroke-dashoffset:0;stroke-opacity:1"
       d="m 58.708931,78.472731 c 0,0 0.10321,-1.11611 0.10321,-1.31904 0,-0.20295 -0.0743,-0.88784 -0.20308,-1.24296 -0.12662,-0.35514 -0.48185,-1.36979 -0.5073,-1.62345 -0.0248,-0.25366 -0.17755,-1.04004 -0.17755,-1.36979 0,-0.32978 0.22844,-0.93857 0.3806,-1.36979 0.15214,-0.43123 0.17763,-0.6849 0.27907,-0.98929 0.10302,-0.30441 0.50724,-1.1415 0.50724,-1.1415 l 0.3043,-0.71026"
       id="path11026" /><path
       style="fill:none;fill-opacity:1;stroke:#f50000;stroke-width:0.240714;stroke-linecap:round;stroke-dasharray:2.40713, 2.40713;stroke-dashoffset:0;stroke-opacity:1"
       d="m 61.981411,65.586578 c 0,0 1.62327,-0.0508 2.1053,-0.0761 0.48199,-0.02536 2.1307,-0.05078 3.09475,-0.17757 0.9638,-0.126841 3.22158,-0.126841 3.90644,-0.177578 0.684889,-0.05078 1.877049,-0.02532 2.714249,-0.126829 0.83714,-0.101542 3.06916,-0.101542 3.88093,-0.202921 0.81177,-0.101546 2.56193,-0.431235 3.65265,-0.507326 1.09073,-0.07621 3.65301,-0.634164 4.08405,-0.659537 0.43124,-0.02537 3.45005,-0.279033 3.55142,-0.279033 0.10362,0 2.28289,-0.101556 2.28289,-0.101556 0,0 1.37003,0.101556 1.64883,0.101556 0.27915,0 1.80107,0 2.00383,-0.07606 0.20308,-0.07609 1.11634,-0.380503 1.26849,-0.456596 0.15214,-0.07604 0.98925,-0.304392 0.98925,-0.304392 0,0 0.38058,-0.35515 0.4819,-0.659546 0.10286,-0.304392 0.25372,-1.014652 0.30451,-1.242945 0.0498,-0.228303 0.40581,-1.192223 0.40581,-1.31906 0,-0.126823 0.32982,-0.73563 0.32982,-0.73563 0,0 0.0748,-0.507321 0.0748,-0.786361 0,-0.279015 0.12684,-1.141501 0.12684,-1.268322 0,-0.126827 0.25371,-0.634162 0.43122,-0.811722 0.17759,-0.177556 1.72504,-0.93857 1.72504,-0.93857 l 0.50728,-0.101521"
       id="path11028" /><path
       style="fill:none;fill-opacity:1;stroke:#f50000;stroke-width:0.240714;stroke-linecap:round;stroke-dasharray:2.40713, 2.40713;stroke-dashoffset:0;stroke-opacity:1"
       d="m 68.956971,60.741584 c 0,0 1.80115,0.126835 2.08007,0.101545 0.279029,-0.02536 1.522119,-0.02536 1.877159,-0.05081 0.35509,-0.02528 1.62359,-0.12683 1.97861,-0.12683 0.3549,0 2.81568,-0.1522 2.91719,-0.177567 0.10342,-0.02529 0.71021,-0.40587 1.26826,-0.710257 0.55816,-0.304398 1.62356,-0.786361 1.82631,-0.989292 0.20311,-0.202925 1.77569,-0.659528 1.77569,-0.659528 l 2.86633,-0.431247 c 0,0 0.71038,-0.228271 1.62349,-0.253647 0.91326,-0.02532 1.11622,0.02531 2.00405,0 0.8876,-0.02532 1.62337,0.126819 1.80092,0.126819 0.17745,0 2.43523,0.456607 2.61279,0.507346 0.17756,0.05081 2.10542,0.380487 2.10542,0.380487 l 2.71418,0.735685"
       id="path11030" /><path
       style="fill:none;fill-opacity:1;stroke:#f50000;stroke-width:0.240714;stroke-linecap:round;stroke-dasharray:0.481373, 2.40713;stroke-dashoffset:0;stroke-opacity:1"
       d="m 43.551461,99.437851 c 0,0 -0.35857,-1.72194 -0.32288,-2.08066 0.0359,-0.35874 0.35887,-1.61432 0.43054,-1.86543 0.0702,-0.25112 0.39462,-1.50669 0.68172,-2.04481 0.28694,-0.5381 0.4664,-1.50668 0.89683,-1.97303 0.43059,-0.46637 1.29136,-0.93271 2.00873,-1.32733 0.71761,-0.39461 2.08087,-0.78921 2.58296,-0.89684 0.50232,-0.10755 2.04498,-0.6816 2.6906,-0.89685 0.64565,-0.21524 1.93735,-0.82509 2.54693,-1.14795 0.60999,-0.32286 1.47098,-0.57398 1.82958,-0.86098 0.35879,-0.28697 1.86545,-1.07619 1.86545,-1.07619 0,0 1.2198,-0.82509 1.2198,-0.96859 0,-0.14351 0.96845,-1.61431 1.21966,-1.82956 0.2512,-0.21524 1.39916,-1.18382 1.39916,-1.18382 l 0.43042,-0.46636"
       id="path11032" /><path
       style="fill:none;fill-opacity:1;stroke:#f50000;stroke-width:0.241;stroke-linecap:round;stroke-dasharray:2.41, 0.241;stroke-dashoffset:0;stroke-opacity:1"
       d="m 58.761921,76.837491 h 3.15685 c 0,0 1.18381,0.10754 1.75801,0.14347 0.57373,0.0358 1.50662,0.0717 2.25992,-0.10745 0.75335,-0.17937 1.54268,-0.50224 1.93725,-0.78923 0.39452,-0.28698 1.29134,-0.86095 1.68604,-1.00445 0.3947,-0.1435 1.68594,-0.39461 1.68594,-0.39461 0,0 1.650329,-0.89683 1.865469,-1.07622 0.21527,-0.17934 1.18378,-1.54256 1.50667,-1.82955 0.32286,-0.28699 1.47086,-1.11208 2.18827,-1.25556 0.71743,-0.1435 2.00907,-1.04035 2.00907,-1.04035 l 2.22418,-0.3946 c 0,0 1.97281,-0.75335 2.47531,-0.75335 0.50201,0 3.12087,-0.50223 3.12087,-0.50223"
       id="path11034" /><path
       style="fill:none;fill-opacity:1;stroke:#f50000;stroke-width:0.241;stroke-linecap:round;stroke-dasharray:2.41, 0.241;stroke-dashoffset:0;stroke-opacity:1"
       d="m 90.68948,71.743441 -2.4035,1.04032 -2.22412,1.18383 -2.08084,0.86096 -1.57823,0.68161 -2.97766,1.14795 -2.61879,1.14797 -2.11651,1.54256 c 0,0 -0.86101,0.46634 -1.07606,0.57396 -0.21521,0.10749 -2.08069,0.50226 -2.331969,0.68162 -0.25093,0.17936 -1.75776,0.89684 -2.11651,0.96858 -0.35856,0.0717 -1.93715,0.5381 -1.93715,0.5381 l -0.50214,0.43048"
       id="path11036" /><path
       style="fill:none;fill-opacity:1;stroke:#f50000;stroke-width:0.241;stroke-linecap:round;stroke-dasharray:2.41, 0.241;stroke-dashoffset:0;stroke-opacity:1"
       d="m 74.36714,86.164631 c 0,0 0.57379,-0.93271 0.57379,-1.1121 0,-0.17937 0.1796,-0.82509 0.1796,-0.96858 0,-0.1435 0,-0.71747 0,-0.96858 0,-0.25113 0.0359,-0.71748 0,-1.07621 -0.036,-0.35874 -0.1796,-0.60986 -0.21537,-0.93273 -0.0359,-0.32285 -0.14339,-1.21971 -0.14339,-1.21971 l -0.10957,-0.53808"
       id="path11038" /><path
       style="fill:none;fill-opacity:1;stroke:#f50000;stroke-width:0.240714;stroke-linecap:round;stroke-dasharray:2.40713, 2.40713;stroke-dashoffset:0;stroke-opacity:1"
       d="m 42.009101,105.71575 c 0,0 0.35863,0.28698 0.57393,0.28698 0.21524,0 0.68148,0.10743 1.39902,0.0358 0.71744,-0.0717 0.86099,0 1.50662,-0.3587 0.64566,-0.35875 1.65032,-0.78924 1.97309,-0.93273 0.32305,-0.1435 1.1122,-0.46635 1.47103,-0.6816 0.35872,-0.21525 1.29127,-0.50223 1.75761,-0.86096 0.4663,-0.35873 1.36319,-1.61431 1.54266,-1.86544 0.17911,-0.25111 0.2869,-0.75334 0.53788,-1.14795 0.25128,-0.394609 0.82524,-2.941639 0.82524,-2.941639 l 0.46654,-1.00448 c 0,0 0.43022,-0.21522 0.71741,-0.28698 0.28676,-0.0717 0.75325,-0.10748 1.18377,-0.14349 0.43049,-0.0358 0.75338,-0.0716 1.39906,-0.10753 0.64561,-0.0358 2.3677,-0.21525 2.3677,-0.21525 l 1.25539,-0.17938 2.54706,-1.14794 c 0,0 0.9328,-0.53811 1.18378,-0.60987 0.25112,-0.0716 1.07627,-0.21524 1.6144,-0.35873 0.53804,-0.14348 1.93718,-0.64574 2.22417,-0.75334 0.28706,-0.10751 1.36324,-0.57397 1.50675,-0.60984 0.14353,-0.0357 0.68156,0 1.291429,-0.0357 0.60985,-0.0358 1.21966,0.0357 1.79366,0 0.57401,-0.0358 1.3273,-0.32286 1.75786,-0.46636 0.43041,-0.1435 0.86091,-0.17938 1.29142,-0.35874 0.43044,-0.17937 1.50678,-0.78921 1.50678,-0.78921 l 1.14785,-0.96859 c 0,0 0.86086,-1.25558 0.96856,-1.39906 0.10956,-0.14351 0.28696,-0.60987 0.71738,-0.78923 0.43062,-0.17937 1.21993,-0.28698 1.39911,-0.32286 0.1795,-0.0358 1.18405,-0.17936 1.3992,-0.46636 0.21527,-0.28699 0.4304,-0.64572 0.57397,-1.00446 0.14338,-0.35874 0.50216,-1.72195 0.50216,-1.72195 0,0 0.17943,-0.71745 0.21519,-0.86096 0.036,-0.1435 0.46652,-1.57843 0.6458,-1.82955 0.17949,-0.25109 1.11203,-1.6143 1.11203,-1.6143 l 1.57839,-2.08067 c 0,0 0.60988,-0.57398 1.00451,-0.78923 0.39467,-0.21525 1.5426,-0.50223 1.82965,-0.78921 0.287,-0.287 1.4707,-1.07622 1.4707,-1.07622 0,0 1.2197,-0.71747 1.39923,-0.78922 0.17935,-0.0716 1.86543,-0.86096 1.86543,-0.86096 l 2.29574,-1.0762 c 0,0 1.5786,-0.43049 1.8656,-0.53811 0.28692,-0.10752 2.15228,-0.82509 2.15228,-0.82509 0,0 1.9014,-0.43049 2.15247,-0.60986 0.25112,-0.17936 1.65017,-0.89683 1.79369,-0.96858 0.14352,-0.0716 1.57841,-0.35873 2.15241,-0.57398 0.57398,-0.21524 3.19275,-1.54256 3.19275,-1.54256 l 2.97751,-1.757864 3.01338,-2.080661 3.55148,-2.403531 3.8026,-2.654643 1.43497,-1.291446 0.68158,-1.865429 0.39461,-1.399072 1.18384,-0.932717 1.29144,-1.542566 0.60985,-1.076218"
       id="path11040" /><path
       style="fill:none;fill-opacity:1;stroke:#f50000;stroke-width:0.241;stroke-linecap:round;stroke-dasharray:2.41, 0.241;stroke-dashoffset:0;stroke-opacity:1"
       d="m 58.618641,75.833011 1.04026,-0.35873 c 0,0 0.71741,-0.57398 0.82506,-0.71747 0.10952,-0.1435 0.71742,-0.64572 1.07626,-0.75334 0.35855,-0.10754 1.47074,-0.28699 1.47074,-0.28699 l 1.11222,-0.43049 c 0,0 0.50188,-0.60985 0.86083,-0.78921 0.35869,-0.17938 0.39457,-0.25112 0.82505,-0.39461 0.43055,-0.1435 0.89694,-0.287 1.21967,-0.35873 0.32291,-0.0717 1.07635,-0.21525 1.4351,-0.25113 0.35869,-0.0358 1.07616,-0.0716 1.07616,-0.0716 0,0 1.11211,-0.0717 1.43491,-0.0717 0.322729,0 0.968589,0 1.291469,0.10756 0.32285,0.10763 1.18376,0.25112 1.18376,0.25112 l 0.96865,0.21523"
       id="path11042" /><path
       style="fill:none;fill-opacity:1;stroke:#f50000;stroke-width:0.241;stroke-linecap:round;stroke-dasharray:2.41, 0.241;stroke-dashoffset:0;stroke-opacity:1"
       d="m 50.798051,71.635811 1.14797,-0.71748 c 0,0 0.86098,-0.46635 1.0762,-0.57397 0.21511,-0.10757 1.0405,-0.93272 1.18388,-1.11208 0.14337,-0.17936 0.53802,-0.78923 0.60995,-1.04033 0.0697,-0.25111 0.28681,-1.07622 0.39454,-1.39908 0.10941,-0.32286 0.35875,-1.291442 0.35875,-1.291442 0,0 0.46625,-1.434948 0.53786,-1.578445 0.0701,-0.143496 0.6818,-1.757808 0.89706,-2.188303 0.21511,-0.430466 0.50227,-1.183816 0.71745,-1.470803 0.21515,-0.286997 1.47072,-1.219703 1.61444,-1.363201 0.14336,-0.143494 1.04016,-1.255566 1.04016,-1.255566 0,0 0.21514,-1.721941 0.25111,-1.937186 0.036,-0.215245 0.14349,-2.224146 0.1091,-2.439409 -0.036,-0.215243 -0.50233,-2.726385 -0.50233,-2.726385 l -0.14341,-1.757813 -0.14338,-1.793681 c 0,0 -0.0702,-1.542556 -0.0359,-1.757806 0.0359,-0.215239 0.39458,-2.224154 0.39458,-2.224154 l 0.39466,-0.286997 0.46624,-0.107536 c 0,0 0.64574,0.07161 0.82506,0.143487 0.17945,0.07167 0.82495,0.358742 1.0761,0.466352 0.25123,0.107589 1.32747,0.502246 1.43504,0.681607 0.10923,0.179366 0.86089,0.753339 1.07633,0.896852 0.21512,0.143489 1.14785,0.50222 1.43473,0.753329 0.28714,0.251112 0.93271,0.825093 1.32726,1.291458 0.39464,0.466363 1.21994,1.183831 1.21994,1.183831 0,0 1.36303,0.789218 1.72168,0.860974 0.358879,0.07161 1.219929,0.358725 1.973289,0.538096 0.75339,0.179368 1.9013,0.430486 2.47525,0.645712 0.57406,0.215251 1.68603,0.573991 1.93719,0.681598 0.25094,0.107529 1.32722,0.645738 1.47083,0.681616 0.14344,0.03574 0.86088,0.502237 0.86088,0.502237 l 1.54252,0.789203 1.75802,0.825101 1.43481,0.538107"
       id="path11044" /><path
       style="fill:none;fill-opacity:1;stroke:#f50000;stroke-width:0.241;stroke-linecap:round;stroke-dasharray:2.41, 0.241;stroke-dashoffset:0;stroke-opacity:1"
       d="m 60.663271,55.420933 c 0,0 1.36322,0.358727 1.72198,0.466371 0.35861,0.107456 1.97306,0.430476 2.54702,0.573976 0.57396,0.143484 1.61428,0.286988 2.43937,0.502231 0.82513,0.215235 2.11658,0.466361 2.26016,0.609839 0.14335,0.1435 2.618729,0.896839 2.618729,0.896839 l 0.96852,0.251136"
       id="path11046" /><path
       style="fill:none;fill-opacity:1;stroke:#f50000;stroke-width:0.241;stroke-linecap:round;stroke-dasharray:2.41, 0.241;stroke-dashoffset:0;stroke-opacity:1"
       d="m 59.443441,58.793065 c 0,0 0.61004,0.286982 1.43506,0.394599 0.82505,0.107532 1.75784,0.28699 2.29593,0.28699 0.53816,0 2.54694,-0.143498 2.76227,-0.143498 0.21527,0 1.29144,0.179372 1.29144,0.179372 l 1.39904,0.538108 0.93281,0.430472"
       id="path11048" /><path
       style="fill:none;fill-opacity:1;stroke:#f50000;stroke-width:0.241;stroke-linecap:round;stroke-dasharray:2.41, 0.241;stroke-dashoffset:0;stroke-opacity:1"
       d="m 57.865271,60.084515 c 0,0 1.32716,0.07165 1.65006,0.215245 0.32267,0.143488 1.7936,0.896846 1.7936,0.896846 0,0 0.60984,0.502209 0.86112,0.609836 0.25099,0.107495 1.25562,0.466355 1.50673,0.466355 0.25093,0 0.71747,-0.03575 1.11202,-0.03575 0.3946,0 1.7938,-0.03576 1.7938,-0.03576"
       id="path11050" /><path
       style="fill:none;fill-opacity:1;stroke:#f50000;stroke-width:0.241;stroke-linecap:round;stroke-dasharray:2.41, 0.241;stroke-dashoffset:0;stroke-opacity:1"
       d="m 50.977351,102.98935 c 0,0 0.64566,-0.32287 0.96867,-0.32287 0.32286,0 2.04484,0.0716 2.29588,0.39462 0.25104,0.32285 0.39464,0.6457 0.93281,1.07622 0.53791,0.43046 1.25539,0.96857 1.93723,1.07619 0.68148,0.10752 1.90127,0.25112 2.40339,0.10752 0.50222,-0.14351 1.57856,-0.71749 2.00884,-0.86094 0.43065,-0.14353 1.65026,-0.46638 2.36766,-0.60989 0.7176,-0.14351 2.36778,-0.4305 2.58283,-0.5381 0.21539,-0.10759 2.2243,-1.79368 2.2243,-1.79368 0,0 1.32742,-1.614329 1.79362,-1.793699 0.46644,-0.17934 2.439449,-0.46634 2.941659,-0.57396 0.5023,-0.1076 1.86545,-0.39461 2.72645,-0.57399 0.86102,-0.17936 2.5111,-0.28697 2.9058,-0.35872 0.39469,-0.0716 2.51101,-0.50224 2.69059,-0.50224 0.17918,0 2.15235,-0.32285 2.25983,-0.53809 0.10869,-0.21523 0.71761,-1.25558 0.71761,-1.54257 0,-0.287 -0.21526,-1.7937 -0.25113,-2.00893 -0.0359,-0.21525 -0.39446,-1.57844 -0.43058,-1.82954 -0.0365,-0.25112 -0.10887,-1.21971 -0.10887,-1.39908 0,-0.17936 0.64548,-1.21971 0.75322,-1.36321 0.10907,-0.14347 0.71751,-0.9327 0.71751,-0.9327 l 0.50225,-0.71746"
       id="path11052" /><path
       style="fill:none;fill-opacity:1;stroke:#f50000;stroke-width:0.241;stroke-linecap:round;stroke-dasharray:2.41, 0.241;stroke-dashoffset:0;stroke-opacity:1"
       d="m 78.50527,89.534931 c 0,0 -0.0127,0.61166 -0.0484,0.82689 -0.0359,0.21525 -0.28681,0.64573 -0.0359,1.00447 0.251,0.35875 1.32715,1.90132 1.32715,1.90132 0,0 0.43047,1.36318 0.46642,1.68604 0.036,0.32287 0.25106,1.57845 0.25106,1.7937 0,0.21523 -0.10923,1.11206 -0.10923,1.11206"
       id="path11054"
       sodipodi:nodetypes="cscccsc" /><path
       style="fill:none;fill-opacity:1;stroke:#f50000;stroke-width:0.241;stroke-linecap:round;stroke-dasharray:2.41, 0.241;stroke-dashoffset:0;stroke-opacity:1"
       d="m 72.50176,91.796781 -1.686169,1.00446 c 0,0 -0.78921,0.50224 -0.93272,0.64571 -0.14374,0.14351 -0.46641,0.53812 -0.50236,0.86098 -0.0359,0.32286 -0.10922,1.14796 -0.10922,1.14796 l 0.57389,0.7892 c 0,0 0.53816,0.60986 0.61002,0.78925 0.0698,0.17934 0.28684,1.00444 0.28684,1.00444 l -0.25119,0.6816 -0.32287,0.57398 -0.14335,0.717469"
       id="path11056" /><path
       style="fill:none;fill-opacity:1;stroke:#f50000;stroke-width:0.241;stroke-linecap:round;stroke-dasharray:2.41, 0.241;stroke-dashoffset:0;stroke-opacity:1"
       d="m 60.591451,95.312391 c 0,0 -0.1087,0.75335 -0.1087,0.89683 0,0.1435 -0.0359,1.25559 -0.0705,1.39908 -0.0366,0.14349 -0.28697,0.96859 -0.32276,1.14796 -0.0359,0.17937 -0.46643,1.327319 -0.46643,1.327319 0,0 -0.0695,1.04034 -0.0695,1.18382 0,0.14351 0.17924,0.60984 0.21502,0.75336 0.0359,0.14346 0.53829,1.75779 0.53829,1.75779 l 0.35862,1.11208"
       id="path11058" /><path
       style="fill:none;fill-opacity:1;stroke:#f50000;stroke-width:0.240714;stroke-linecap:round;stroke-dasharray:2.40713, 2.40713;stroke-dashoffset:0;stroke-opacity:1"
       d="m 116.41087,91.366291 c 0,0 1.5067,0.50224 1.79368,0.50224 0.287,0 1.90131,0.43047 2.40354,0.43047 0.50223,0 2.40353,0.35874 2.8699,0.35874 0.46635,0 2.86988,0.32286 3.47972,0.1435 0.60986,-0.17938 2.58291,-0.8251 3.08515,-1.2197 0.50222,-0.39463 1.18381,-1.3632 1.39906,-1.7937 0.21524,-0.43046 1.11208,-2.22415 1.25558,-2.69051 0.1435,-0.46636 1.04033,-2.11654 1.32732,-2.72638 0.28698,-0.60986 0.82511,-2.97752 0.82511,-3.19277 0,-0.21524 0.5022,-1.79368 0.78919,-2.26003 0.28699,-0.46636 1.36321,-1.6502 1.72194,-1.82956 0.35874,-0.17937 1.86543,-1.68605 2.00893,-1.82955 0.14348,-0.14348 1.32732,-2.90576 1.32732,-2.90576 0,0 0.89685,-1.68607 1.00446,-2.08067 0.1076,-0.39461 0.43047,-2.2959 0.46635,-2.61877 0.0357,-0.32287 -1.29145,-1.973062 -1.29145,-2.152412 0,-0.179362 -1.11208,-1.578445 -1.11208,-1.578445 l -1.72193,-2.188303 c 0,0 -1.14795,-1.721918 -1.14795,-2.044803 0,-0.322838 -0.17938,-2.439382 -0.1435,-2.798121 0.0358,-0.358724 0.21526,-2.008927 0.21526,-2.152417 0,-0.143503 0.57397,-3.156873 0.64571,-3.372111 0.0717,-0.215243 1.07621,-2.439403 1.21969,-2.726397 0.14351,-0.286993 1.47083,-2.654648 1.47083,-2.654648 0,0 1.04033,-1.076219 1.14796,-1.363207 0.10755,-0.286985 0.35873,-1.542569 0.35873,-1.721925 0,-0.179372 -0.17937,-0.717463 -0.17937,-0.717463"
       id="path11060" /><path
       style="fill:none;fill-opacity:1;stroke:#f50000;stroke-width:0.240714;stroke-linecap:round;stroke-dasharray:2.40713, 2.40713;stroke-dashoffset:0;stroke-opacity:1"
       d="m 124.44656,92.657741 1.57844,-1.3632 c 0,0 0.96859,-1.18383 1.2197,-1.47082 0.25112,-0.28698 0.78923,-1.29146 1.07621,-1.57843 0.287,-0.287 0.86097,-1.7578 1.00446,-2.22417 0.1435,-0.46635 0.35875,-1.39906 0.60986,-2.04479 0.2511,-0.64573 0.50222,-2.65466 0.50222,-2.83403 0,-0.17936 0.43049,-1.07619 0.53811,-1.25558 0.10759,-0.17935 0.53811,-0.89682 0.6816,-1.11207 0.14349,-0.21526 0.14349,-2.79813 0.14349,-2.79813 0,0 0.46635,-1.50669 0.64574,-1.79368 0.17936,-0.287 1.68605,-1.07622 1.97303,-1.21971 0.28698,-0.14349 1.43494,-0.82511 1.50669,-1.07621 0.0717,-0.25111 0.75337,-2.22415 0.75337,-2.22415 l -0.39462,-2.69054 c 0,0 -1.14796,-0.860962 -1.3632,-1.183813 -0.21526,-0.32287 -1.65018,-1.793678 -1.75782,-2.00893 -0.10746,-0.215248 -0.68159,-2.188278 -0.68159,-2.331789 0,-0.143484 -0.1435,-1.721929 -0.1435,-1.721929 l 0.1435,-1.399071 -0.46636,-1.865419 -1.0762,-2.0448 c 0,0 -0.50224,-1.650191 -0.53811,-1.793675 -0.0358,-0.143512 -0.17936,-1.470819 -0.17936,-1.470819"
       id="path11062" /><path
       style="fill:none;fill-opacity:1;stroke:#f50000;stroke-width:0.240714;stroke-linecap:round;stroke-dasharray:2.40713, 2.40713;stroke-dashoffset:0;stroke-opacity:1"
       d="m 122.04303,92.370751 v -1.00446 c 0,0 0.0358,-0.71747 0.10759,-0.93271 0.0717,-0.21524 0.2511,-0.75336 0.32286,-0.96858 0.0717,-0.21525 0.10755,-0.78923 0.10755,-1.04035 0,-0.25111 0.0358,-1.18383 0.0716,-1.43494 0.0358,-0.2511 0.32287,-1.29146 0.46637,-1.57844 0.14349,-0.28699 0.89682,-0.75333 1.14795,-0.96858 0.25112,-0.21525 1.39907,-1.47081 1.54256,-1.65019 0.14352,-0.17936 1.54257,-0.86097 1.72194,-1.82956 0.17937,-0.96858 0.57397,-2.04479 0.57397,-2.18829 0,-0.14349 -0.21524,-1.57844 -0.21524,-1.57844 l -0.78921,-1.86542 c 0,0 0.39461,-1.61431 0.46635,-1.82956 0.0716,-0.21524 0.60984,-1.65019 0.71747,-1.79368 0.10753,-0.1435 1.61431,-1.04034 1.79368,-1.14795 0.17937,-0.10759 1.14795,-0.89683 1.14795,-0.89683 l 1.04034,-1.68606 -0.50222,-1.21972 -1.07622,-1.112077 -0.53811,-0.717467 c 0,0 -0.68159,-1.793683 -0.68159,-1.937191 0,-0.14348 -0.57397,-2.260017 -0.57397,-2.260017 l -0.25112,-1.506703 v -0.07161"
       id="path11064" /><path
       style="fill:none;fill-opacity:1;stroke:#f50000;stroke-width:0.240714;stroke-linecap:round;stroke-dasharray:2.40713, 2.40713;stroke-dashoffset:0;stroke-opacity:1"
       d="m 128.64377,71.456451 c 0,0 0.32287,-1.14796 0.32287,-1.32733 0,-0.17936 -0.25112,-2.22416 -0.28698,-2.36766 -0.0358,-0.1435 -0.96859,-1.542556 -0.96859,-1.542556 l -0.82511,-1.650197 0.1435,-1.93717 1.29145,-3.013386 0.57399,-1.291453 c 0,0 0.35872,-1.363188 0.39459,-1.578431 0.0358,-0.215235 0.68161,-1.542563 0.68161,-1.542563 0,0 0.25112,-1.21971 0.287,-1.399072 0.0358,-0.179367 0.14348,-1.650184 0.14348,-1.650184"
       id="path11066" /><path
       style="fill:none;fill-opacity:1;stroke:#f50000;stroke-width:0.240714;stroke-linecap:round;stroke-dasharray:2.40713, 2.40713;stroke-dashoffset:0;stroke-opacity:1"
       d="m 123.01162,58.864803 -0.17936,2.331803 0.43047,1.578429 0.71747,2.152412 -0.0358,0.681599 c 0,0 -0.32286,0.573977 -0.43049,0.717455 -0.10752,0.14351 -0.68159,0.78923 -0.78922,1.1121 -0.10758,0.32286 -0.6816,1.7578 -0.71748,1.93718 -0.0358,0.17936 -0.9327,1.39906 -1.04032,1.54255 -0.10757,0.14349 -1.47082,1.65021 -1.47082,1.65021 0,0 -1.07621,0.68158 -1.29145,0.7892 -0.21525,0.10749 -0.96859,0.8251 -0.96859,1.07621 0,0.25111 0.25111,0.89684 0.93272,1.07621 0.68159,0.17936 2.04479,0.43047 2.79813,0.43047 0.75334,0 2.65466,0.17937 2.65466,0.17937 0,0 0.96858,0.60985 0.96858,0.78922 0,0.17937 0.14349,0.96859 0.14349,1.14797 0,0.17936 -1.04032,3.65911 -1.04032,3.65911 l -0.17939,1.21969 c 0,0 -0.57399,0.93271 -0.93272,1.0762 -0.35873,0.14349 -2.0448,0.287 -2.36765,0.17937 -0.32287,-0.1075 -2.47527,-0.57398 -2.47527,-0.57398 l -2.11657,0.17938"
       id="path11068" /><path
       style="fill:none;fill-opacity:1;stroke:#f50000;stroke-width:0.240714;stroke-linecap:round;stroke-dasharray:2.40713, 2.40713;stroke-dashoffset:0;stroke-opacity:1"
       d="m 120.24935,60.694369 -0.86097,2.439395 c 0,0 -0.28699,1.147959 -0.35873,1.578433 -0.0716,0.430494 -0.25111,2.152414 -0.25111,2.403534 0,0.25112 0.50224,1.79368 0.71748,2.00893 0.21524,0.21524 0.7892,0.3946 0.82508,0.57397 0.0358,0.17937 0.17937,1.54257 0.17937,1.54257"
       id="path11070" /><path
       style="fill:none;fill-opacity:1;stroke:#f50000;stroke-width:0.241;stroke-linecap:round;stroke-dasharray:2.41, 0.241;stroke-dashoffset:0;stroke-opacity:1"
       d="m 110.31237,82.182651 0.6816,-2.11654 c 0,0 0.82508,-1.75781 0.86096,-1.90131 0.0358,-0.14348 0.32287,-1.32731 0.39461,-1.50669 0.0717,-0.17936 1.00445,-1.57843 1.39907,-1.75781 0.39461,-0.17936 1.21969,-1.11206 1.39908,-1.36321 0.17936,-0.2511 0.21524,-1.18381 0.17936,-1.36318 -0.0358,-0.17937 -1.14796,-0.75334 -1.14796,-0.75334 l -1.29146,-0.53811 c 0,0 -0.86096,-0.21525 -1.07619,-0.57397 -0.21524,-0.35873 -0.60985,-1.79369 -0.60985,-1.93719 0,-0.14348 0.28698,-1.18383 0.28698,-1.18383 l 0.10758,-0.82507"
       id="path11072" /><path
       style="fill:none;fill-opacity:1;stroke:#f50000;stroke-width:0.241;stroke-linecap:round;stroke-dasharray:2.41, 0.241;stroke-dashoffset:0;stroke-opacity:1"
       d="m 94.59977,83.294731 c 0,-0.17936 -0.10912,-1.11208 -0.14364,-1.32732 -0.035,-0.21524 0.25128,-0.96859 0.43056,-1.14796 0.17947,-0.17936 0.71733,-0.86097 0.82518,-1.18383 0.10852,-0.32285 0.25091,-1.29145 0.25091,-1.29145 l 0.17964,-0.32285"
       id="path11074" /><path
       style="fill:none;fill-opacity:1;stroke:#f50000;stroke-width:0.241;stroke-linecap:round;stroke-dasharray:2.41, 0.241;stroke-dashoffset:0;stroke-opacity:1"
       d="m 102.09726,84.622061 c 0,0 0.1087,-1.14796 0.14351,-1.47082 0.0357,-0.32286 0.0704,-1.18383 0.0357,-1.43494 -0.0357,-0.25111 -0.25107,-0.9686 -0.25107,-0.9686 l -0.25125,-0.71747 -0.0704,-0.50222 -0.75335,-0.28698 c 0,0 -0.43044,-0.17938 -0.60991,-0.287 -0.17935,-0.1076 -1.21962,-0.50224 -1.21962,-0.50224 l -0.75342,-0.32286 c 0,0 -0.86103,-0.64572 -0.82525,-0.78922 0.036,-0.1435 -0.57385,-1.43495 -0.57385,-1.43495 l 0.32287,-1.25557 c 0,0 1.39904,-1.07621 1.50679,-1.25557 0.10865,-0.17936 0.82503,-0.60986 0.89685,-0.78922 0.0705,-0.17937 0.6098,-0.53811 0.71741,-0.68161 0.10881,-0.14348 0.86103,-0.78922 0.86103,-0.78922 l 0.50222,-0.71747"
       id="path11076" /><path
       style="fill:none;fill-opacity:1;stroke:#f50000;stroke-width:0.240714;stroke-linecap:round;stroke-dasharray:2.40713, 2.40713;stroke-dashoffset:0;stroke-opacity:1"
       d="m 116.19564,91.294541 -0.64573,-0.35875 c 0,0 -0.89684,-0.82508 -0.93272,-0.96857 -0.0358,-0.1435 -1.47081,-1.07621 -1.47081,-1.07621 0,0 -1.86542,-0.57398 -2.11654,-0.60985 -0.25112,-0.0358 -1.11208,-0.28698 -1.68607,-0.5381 -0.57397,-0.25113 -2.83404,-1.11209 -3.26446,-1.2197 -0.43053,-0.10761 -1.97305,-0.57398 -2.36771,-0.71747 -0.39463,-0.1435 -1.93719,-0.71749 -1.93719,-0.71749 l -0.35872,-0.50222"
       id="path11078" /><path
       style="fill:none;fill-opacity:1;stroke:#f50000;stroke-width:0.241;stroke-linecap:round;stroke-dasharray:2.41, 0.241;stroke-dashoffset:0;stroke-opacity:1"
       d="m 89.57753,97.823551 c 0,0 1.09399,0.0358 1.43479,0.16142 0.34089,0.12556 1.09435,0.46636 1.3991,0.55604 0.30496,0.0894 0.68162,0.30493 1.07614,0.52016 0.39455,0.21525 0.82523,0.39461 1.14793,0.64573 0.32296,0.25112 0.71757,0.789229 0.95064,0.914779 0.23323,0.12557 1.11208,0.59191 1.70407,0.75335 0.59194,0.16142 1.11213,0.32288 1.88341,0.50221 0.77125,0.1794 1.18383,0.37671 2.08068,0.37671 0.89681,0 1.61433,-0.0358 2.40353,0.0178 0.78918,0.0537 1.54259,0.17936 2.51116,0.26904 0.96856,0.0896 1.84747,0.28698 2.18828,0.35874 0.34079,0.0716 3.6591,0.574 3.78466,0.574 0.12555,0 2.06273,0.28697 2.74433,0.28697 0.6816,0 1.45287,0.30493 2.83401,0.28697 1.38113,-0.0178 3.17481,-0.0358 4.07165,-0.0716 0.89683,-0.0357 3.19276,-0.0537 3.60531,-0.0896 0.41254,-0.0358 1.70398,-0.17938 1.70398,-0.17938 0,0 2.94166,0.16146 3.12102,0.16146 0.17936,0 1.11207,0.12555 2.2421,0.12555 1.13002,0 2.40353,0.0538 3.1748,0 0.7713,-0.0537 2.45736,-0.30492 3.21069,-0.3408 0.75336,-0.0358 2.51117,-0.25113 2.88783,-0.3408 0.37667,-0.0894 2.40354,-0.66366 2.58289,-0.6816 0.17937,-0.0178 2.1883,-0.17939 2.51117,-0.287 0.32285,-0.10747 1.84748,-0.64569 2.22417,-0.71744 0.37668,-0.0716 1.14794,-0.48431 1.14794,-0.48431 l 0.69954,-0.26908"
       id="path11806" /><path
       style="fill:none;fill-opacity:1;stroke:#f50000;stroke-width:0.241;stroke-linecap:round;stroke-dasharray:2.41, 0.241;stroke-dashoffset:0;stroke-opacity:1"
       d="m 107.79309,102.79919 c 0,0 1.1161,-1.21758 1.2683,-1.57272 0.1522,-0.35513 1.01466,-1.268339 1.26833,-1.623439 0.25367,-0.35514 0.86247,-0.81175 1.31906,-1.21762 0.45658,-0.40586 2.02932,-1.2683 2.53665,-1.52198 0.50731,-0.25366 2.99323,-1.11614 3.65276,-1.26832 0.65954,-0.15221 4.1601,-0.65952 4.36302,-0.65952 0.20295,0 2.02933,0.25365 2.94253,-0.1522 0.91319,-0.40587 3.55132,-2.02933 3.55132,-2.02933 l 0.81169,-0.86245"
       id="path11808" /><path
       style="fill:none;fill-opacity:1;stroke:#f50000;stroke-width:0.241;stroke-linecap:round;stroke-dasharray:2.41, 0.241;stroke-dashoffset:0;stroke-opacity:1"
       d="m 104.74909,102.36797 c 0,0 0.075,-0.83711 0.075,-0.93856 0,-0.10158 0.0749,-0.43124 0.12687,-0.65955 0.0505,-0.22828 0.2283,-0.50732 0.3298,-0.786359 0.10253,-0.279 0.22826,-0.40586 0.25366,-0.76098 0.0253,-0.35514 0.0253,-0.43124 0.05,-0.71026 0.025,-0.27905 0.30437,-1.24295 0.30437,-1.24295"
       id="path11810" /><path
       style="fill:none;fill-opacity:1;stroke:#f50000;stroke-width:0.241;stroke-linecap:round;stroke-dasharray:2.41, 0.241;stroke-dashoffset:0;stroke-opacity:1"
       d="m 101.90807,102.24112 c 0,0 0.0253,-0.48195 0.27902,-0.86246 0.25367,-0.38049 0.40589,-0.40585 0.58343,-0.78635 0.1775,-0.3805 0.1775,-0.4566 0.25365,-0.684909 0.0752,-0.22827 0.1026,-0.40585 0.1026,-0.88781 0,-0.48198 -0.0504,-0.65953 0,-1.04004 0.0502,-0.38049 0.0253,-0.65952 0.0756,-0.81171 0.0497,-0.15221 0.15216,-0.40588 0.30433,-0.6088 0.15229,-0.20294 0.25373,-0.30441 0.25373,-0.30441"
       id="path11812" /><path
       style="fill:none;fill-opacity:1;stroke:#f50000;stroke-width:0.241;stroke-linecap:round;stroke-dasharray:2.41, 0.241;stroke-dashoffset:0;stroke-opacity:1"
       d="m 97.9509,101.53086 c 0,0 0.48192,-0.35513 0.73563,-0.65952 0.25358,-0.30441 0.35508,-0.30441 0.58344,-0.73563 0.22829,-0.431209 0.30438,-0.304399 0.50724,-0.887819 0.20301,-0.58343 0.22839,-0.71028 0.27905,-0.9893 0.05,-0.27904 0.27909,-1.06539 0.3805,-1.3698 0.10234,-0.30439 0.17759,-0.55805 0.27905,-0.65952 0.10235,-0.10154 0.50731,-0.50733 0.50731,-0.50733 l 0.22835,-0.15219 0.53273,-0.32977"
       id="path11814" /><path
       style="fill:none;fill-opacity:1;stroke:#f50000;stroke-width:0.241;stroke-linecap:round;stroke-dasharray:2.41, 0.241;stroke-dashoffset:0;stroke-opacity:1"
       d="m 129.88726,103.88994 c 0,0 -0.0761,-0.68488 -0.0761,-0.9132 0,-0.22828 -0.12683,-0.58341 0,-0.91319 0.12683,-0.32974 0.45661,-0.65952 0.6088,-0.98929 0.1522,-0.32977 0.25367,-0.40585 0.35515,-0.73562 0.10155,-0.32978 0.0761,-0.25365 0.17756,-0.811729 0.10154,-0.55806 0.12682,-0.9893 0.12682,-1.31905 0,-0.32976 -0.10155,-0.96394 -0.12682,-1.11614 -0.0254,-0.1522 -0.0762,-0.27902 -0.0762,-0.27902 l 0.10159,-0.0253"
       id="path11816" /><path
       style="fill:none;fill-opacity:1;stroke:#f50000;stroke-width:0.241;stroke-linecap:round;stroke-dasharray:2.41, 0.241;stroke-dashoffset:0;stroke-opacity:1"
       d="m 134.98593,103.99142 c 0.0253,-0.10152 0.15219,-1.24296 0.20292,-1.64882 0.0508,-0.40589 0.0761,-0.83711 0.0761,-1.47126 0,-0.63415 -0.0508,-1.141489 -0.1522,-1.420529 -0.10152,-0.27903 -0.43122,-0.81173 -0.50734,-1.11614 -0.0761,-0.30437 -0.12683,-0.40585 -0.0508,-0.76097 0.0761,-0.35512 0.12685,-1.11613 0.12685,-1.11613"
       id="path11818" /><path
       style="fill:none;fill-opacity:1;stroke:#f50000;stroke-width:0.241;stroke-linecap:round;stroke-dasharray:2.41, 0.241;stroke-dashoffset:0;stroke-opacity:1"
       d="m 140.41436,103.56017 c 0,0 0.27901,-0.93854 0.35512,-1.39514 0.0761,-0.4566 0.20293,-0.71028 0.20293,-1.42054 0,-0.71025 -0.0254,-1.217579 -0.12684,-1.572709 -0.10153,-0.35515 0.0761,-0.25367 -0.3044,-0.81172 -0.38048,-0.55807 -0.43122,-0.48196 -0.58342,-1.01467 -0.1522,-0.53269 -0.12682,-0.48196 -0.32976,-0.98929 -0.20294,-0.50733 -0.5327,-1.24296 -0.5327,-1.24296"
       id="path11820" /><path
       style="fill:none;fill-opacity:1;stroke:#f50000;stroke-width:0.241;stroke-linecap:round;stroke-dasharray:2.41, 0.241;stroke-dashoffset:0;stroke-opacity:1"
       d="m 150.99218,100.87134 c 0,0 -0.0508,-1.116119 -0.0762,-1.369789 -0.0253,-0.25366 -0.17757,-0.98929 -0.48198,-1.44589 -0.30439,-0.4566 -1.01463,-1.2937 -1.52197,-1.44589 -0.50735,-0.1522 0.12683,0.17755 -0.9132,-0.17757 -1.04001,-0.35511 -0.78636,-0.0762 -1.59808,-0.5327 -0.81174,-0.4566 -0.8371,-0.6849 -1.77565,-0.88783 -0.93856,-0.20293 -1.57274,-0.3044 -2.15616,-0.3044 -0.58343,0 -1.26833,-0.0253 -1.26833,-0.0253"
       id="path11822" /><path
       style="fill:none;fill-opacity:1;stroke:#f50000;stroke-width:0.240714;stroke-linecap:round;stroke-dasharray:1.2034, 3.61061;stroke-dashoffset:0;stroke-opacity:1"
       d="m 175.02835,19.654992 c 0,0 -0.43047,1.14802 -0.64572,1.47086 -0.21524,0.32274 -0.86097,1.39903 -1.14797,1.65008 -0.28698,0.25116 -1.97304,1.18382 -2.51115,1.50669 -0.53809,0.32288 -1.50669,0.86104 -2.11653,1.25565 -0.60985,0.3946 -1.32734,1.11204 -1.32734,1.11204 0,0 -1.14795,0.50223 -1.68604,0.64574 -0.53813,0.14346 -2.08068,1.07619 -2.36766,1.18386 -0.287,0.10749 -2.15242,1.25556 -2.54704,1.50662 -0.3946,0.25116 -4.98642,3.83857 -4.98642,3.83857 0,0 -2.26004,0.75331 -3.08514,1.25554 -0.82508,0.50219 -2.94162,1.61433 -3.33623,1.86542 -0.39462,0.25109 -3.65913,2.762256 -3.94609,2.941597 -0.28699,0.17938 -3.65913,2.331794 -3.65913,2.331794 0,0 -1.86543,1.721937 -2.00891,1.829555 -0.14351,0.107604 -2.69051,1.183823 -2.8699,1.21969 -0.17936,0.03585 -2.51114,0.179383 -2.79813,0.251127 -0.28697,0.07161 -2.83402,0.538102 -2.83402,0.538102 0,0 -1.25557,0.286997 -1.61431,0.609848 -0.35874,0.322862 -1.29144,0.932721 -1.47083,1.04034 -0.17936,0.107599 -1.32732,0.43048 -1.68604,0.466344 -0.35875,0.03578 -1.65019,0 -1.82956,-0.107455 -0.17936,-0.107575 -1.7578,-1.147957 -1.7578,-1.147957"
       id="path11824" /><path
       style="fill:none;fill-opacity:1;stroke:#f50000;stroke-width:0.240714;stroke-linecap:round;stroke-dasharray:1.2034, 3.61061;stroke-dashoffset:0;stroke-opacity:1"
       d="m 146.90343,38.632096 c 0,0 2.36768,-0.358753 2.97752,-0.394639 0.60985,-0.03607 2.54702,-0.358695 3.22863,-0.430445 0.6816,-0.07149 2.65465,-0.46636 3.19274,-0.60986 0.53811,-0.14351 3.15689,-0.7892 3.44388,-0.9327 0.28697,-0.14352 1.54255,-0.7534 2.2959,-0.82515 0.75336,-0.0715 1.50669,-0.53812 1.68606,-0.75333 0.17937,-0.21521 0.287,-0.53803 0.287,-0.53803 l -0.25113,-0.8969 c 0,0 -0.75333,-0.0362 -1.04032,0 -0.287,0.0363 -1.00447,0.28701 -1.43496,0.39457 -0.43047,0.10762 -1.65018,0.32287 -2.11654,0.46638 -0.46637,0.14349 -1.65017,0.25114 -1.65017,0.25114 l -0.71748,-0.53803 -0.0717,-0.93274"
       id="path11826" /><path
       style="fill:none;fill-opacity:1;stroke:#f50000;stroke-width:0.240714;stroke-linecap:round;stroke-dasharray:1.2034, 3.61061;stroke-dashoffset:0;stroke-opacity:1"
       d="m 122.86075,46.231966 v -1.065409 c 0,0 0.35513,-1.217583 0.65954,-1.268315 0.30439,-0.05079 0.35511,-0.253662 1.42049,-0.20293 1.06542,0.05077 1.87714,0.20293 2.28301,0.20293 0.40586,0 1.47127,0.405871 1.97858,0.405871 0.50732,0 1.47126,-0.202928 1.62347,-0.405871 0.15219,-0.20293 1.62345,-0.659538 2.28297,-1.014649 0.65953,-0.355136 1.52199,-0.862473 1.92784,-1.014666 0.40588,-0.152197 1.72493,-0.913203 1.8264,-1.217585 0.10155,-0.304421 0.40585,-1.065395 0.50731,-1.420529 0.10157,-0.355138 0.55808,-1.420529 0.81174,-1.877121 0.25367,-0.45661 0.71026,-1.01466 0.91319,-1.31906 0.20292,-0.30439 0.71026,-0.71026 1.16687,-0.86244 0.45659,-0.15214 1.87711,-0.30443 1.87711,-0.30443 0,0 1.26833,-0.65952 1.57273,-0.91317 0.3044,-0.25365 1.47124,-0.76102 1.62345,-1.06545 0.1522,-0.30432 1.11613,-1.1161 1.31906,-1.31901 0.20291,-0.20293 2.08005,-1.11609 2.08005,-1.11609 0,0 0.45659,-0.50733 0.86245,-0.65961 0.40586,-0.15217 2.53664,-0.76092 2.99325,-0.96382 0.45659,-0.203 1.77565,-0.55811 2.13078,-0.71035 0.35514,-0.15215 2.23225,-1.26828 2.23225,-1.26828 l 1.92786,-1.16682 c 0,0 1.92784,-0.96391 2.13077,-1.11616 0.20295,-0.1522 1.52198,-0.71028 1.87712,-1.11617 0.35513,-0.40583 1.77567,-1.47127 1.92786,-1.82631 0.1522,-0.35515 1.06538,-2.33375 1.06538,-2.33375 0,0 0.15221,-2.13079 0.15221,-2.33358 0,-0.20311 0,-1.36988 0,-1.36988 0,0 -0.50733,-0.45664 -0.81174,-0.60887 -0.30439,-0.15204 -1.42052,-0.60882 -1.42052,-1.06536 0,-0.45656 -0.45659,-1.26829 0.0508,-1.42044 0.50734,-0.15224 1.21759,-0.45675 1.72493,-0.25359 0.50731,0.20269 1.57271,0.50718 1.97857,0.50718 0.40588,0 1.36979,0.0498 1.77566,0.0498 0.40587,0 1.01466,0.40583 1.26833,0.45662 0.25366,0.0515 0.86246,0.355 0.9132,0.71017 0.0508,0.35514 0.35511,2.02921 0.35511,2.02921 l 0.55808,1.67433 1.522,0.91322"
       id="path11828" /><path
       style="fill:none;fill-opacity:1;stroke:#f50000;stroke-width:0.241;stroke-linecap:round;stroke-dasharray:2.41, 0.241;stroke-dashoffset:0;stroke-opacity:1"
       d="m 171.71657,48.920805 c 0,0 -0.50732,-1.014666 -0.76098,-1.217597 -0.25368,-0.202928 -2.28299,-0.91318 -2.28299,-0.91318 0,0 -2.08005,-0.101561 -2.38444,-0.101561 -0.3044,0 -3.85571,0.456576 -4.05864,0.507317 -0.20294,0.05078 -2.23226,0.304405 -2.63813,0.304405 -0.40585,0 -1.57271,-0.101556 -1.62344,-0.40586 -0.0508,-0.304399 -0.40587,-1.521994 -0.71027,-2.130784 -0.30439,-0.608797 -0.55805,-1.116128 -1.01465,-1.471268 -0.45661,-0.355125 -1.52199,-1.521981 -1.77566,-2.029313 -0.25367,-0.50734 -0.55806,-2.282989 -0.55806,-2.282989 l -0.10155,-1.217599"
       id="path12556" /><path
       style="fill:none;fill-opacity:1;stroke:#f50000;stroke-width:0.241;stroke-linecap:round;stroke-dasharray:2.41, 0.241;stroke-dashoffset:0;stroke-opacity:1"
       d="m 167.6072,46.688565 c 0,0 -0.81172,-0.811742 -1.16685,-1.369806 -0.35514,-0.558045 -1.01465,-1.521983 -1.11613,-2.080055 -0.1015,-0.558063 -0.15221,-1.826386 -0.15221,-2.181511 0,-0.355117 0.15221,-0.811715 0.3044,-1.065382 0.15221,-0.253677 0.65955,-1.217596 0.761,-1.724904 0.10155,-0.507342 0.1522,-2.283065 0.1522,-2.283065 l -0.9132,-1.36971 -1.52198,-0.76097"
       id="path12558" /><path
       style="fill:none;fill-opacity:1;stroke:#f50000;stroke-width:0.241;stroke-linecap:round;stroke-dasharray:2.41, 0.241;stroke-dashoffset:0;stroke-opacity:1"
       d="m 162.22952,47.094419 c 0,0 -0.0508,-2.282981 -0.0508,-2.587383 0,-0.304386 -0.71029,-1.065394 -0.96395,-1.319061 -0.25365,-0.253652 -0.96393,-0.811714 -1.11613,-1.369768 -0.15219,-0.558074 -0.35512,-1.62347 -0.35512,-1.877123 0,-0.253678 -0.15221,-2.029348 -0.15221,-2.333764 0,-0.304358 -0.10154,-1.217578 -0.10154,-1.217578"
       id="path12560" /><path
       style="fill:none;fill-opacity:1;stroke:#f50000;stroke-width:0.240714;stroke-linecap:round;stroke-dasharray:2.40713, 2.40713;stroke-dashoffset:0;stroke-opacity:1"
       d="m 101.95384,54.775217 0.60981,0.825093 c 0,0 0,0.502247 0.10858,0.86097 0.10878,0.358729 0.46638,1.291447 0.68164,1.506673 0.21521,0.215248 0.0357,0.538125 1.7578,1.076222 1.72193,0.538099 2.04477,0.681595 2.36763,0.753346 0.32285,0.07164 1.72192,0.645727 1.72192,0.645727 0,0 1.82955,1.076207 2.15241,1.183834 0.32287,0.107483 2.69053,0.681578 3.12102,0.717461 0.43045,0.03576 1.93714,0.21524 1.93714,0.21524 l 1.07621,-0.07161"
       id="path12562" /><text
       xml:space="preserve"
       style="font-size:3.21439px;font-family:'Segoe Print';-inkscape-font-specification:'Segoe Print, Normal';text-align:center;direction:rtl;text-orientation:sideways;text-anchor:middle;opacity:0.5;fill:none;fill-opacity:1;stroke:#000000;stroke-width:0.535726;stroke-linecap:round;stroke-dasharray:none;stroke-dashoffset:0;stroke-opacity:1"
       x="-154.24191"
       y="-21.182411"
       id="text19110"
       transform="scale(-1)"><tspan
         sodipodi:role="line"
         id="tspan19108"
         style="stroke-width:0.535727"
         x="-154.24191"
         y="-21.182411" /></text><path
       style="opacity:0.5;fill:none;fill-opacity:1;stroke:#ff0000;stroke-width:0.214292;stroke-linecap:round;stroke-dasharray:0.42858, 2.14292;stroke-dashoffset:0;stroke-opacity:1"
       d="m 120.97009,43.433743 c 0,0 1.06309,-1.630074 1.41745,-1.842689 0.35436,-0.212618 1.63008,-1.13396 2.05532,-1.488325 0.42523,-0.354367 2.12618,-1.488306 2.62228,-1.913601 0.49611,-0.425172 1.5592,-0.992196 2.90579,-1.417426 1.34658,-0.42521 2.19706,-0.56691 2.19706,-0.56691"
       id="path22220" /></g></svg>
