<?xml version="1.0" encoding="UTF-8" standalone="no"?>
<!-- Created with Inkscape (http://www.inkscape.org/) -->

<svg
   width="215mm"
   height="144.29857mm"
   viewBox="0 0 215 144.29857"
   version="1.1"
   id="svg991"
   inkscape:version="1.2.2 (732a01da63, 2022-12-09)"
   sodipodi:docname="text.svg"
   xml:space="preserve"
   xmlns:inkscape="http://www.inkscape.org/namespaces/inkscape"
   xmlns:sodipodi="http://sodipodi.sourceforge.net/DTD/sodipodi-0.dtd"
   xmlns="http://www.w3.org/2000/svg"
   xmlns:svg="http://www.w3.org/2000/svg"><sodipodi:namedview
     id="namedview993"
     pagecolor="#ffffff"
     bordercolor="#000000"
     borderopacity="0.25"
     inkscape:showpageshadow="2"
     inkscape:pageopacity="0.0"
     inkscape:pagecheckerboard="0"
     inkscape:deskcolor="#d1d1d1"
     inkscape:document-units="mm"
     showgrid="false"
     inkscape:zoom="1.1444351"
     inkscape:cx="387.52744"
     inkscape:cy="195.72975"
     inkscape:window-width="1920"
     inkscape:window-height="1129"
     inkscape:window-x="1912"
     inkscape:window-y="-8"
     inkscape:window-maximized="1"
     inkscape:current-layer="layer1" /><defs
     id="defs988" /><g
     inkscape:label="Layer 1"
     inkscape:groupmode="layer"
     id="layer1"><text
       xml:space="preserve"
       style="font-size:3.37119px;font-family:'Segoe Print';-inkscape-font-specification:'Segoe Print, Normal';text-align:center;direction:rtl;text-orientation:sideways;text-anchor:middle;opacity:0.5;fill:none;fill-opacity:1;stroke:#000000;stroke-width:0.561859;stroke-linecap:round;stroke-dasharray:none;stroke-dashoffset:0;stroke-opacity:1"
       x="-161.76591"
       y="-22.2157"
       id="text19110"
       transform="scale(-1)"><tspan
         sodipodi:role="line"
         id="tspan19108"
         style="stroke-width:0.56186"
         x="-161.76591"
         y="-22.2157" /></text><g
       inkscape:label="Hershey Text"
       style="fill:none;stroke:#000000;stroke-linecap:round;stroke-linejoin:round"
       id="g23970"
       transform="matrix(-1.1237283,0,0,-1.1237283,217.06983,125.4717)"><g
         transform="translate(14.9325,98.4357)"
         id="g23956"><path
           d="M 220,662 V 0 M 662,662 V 0 M 220,346 h 442"
           style="stroke-width:0.3962in"
           transform="scale(0.0035,-0.0035)"
           id="path23942" /><path
           d="M 567,441 V 0 m 0,346 -63,64 -63,31 H 346 L 284,410 220,346 189,252 V 189 L 220,94.5 284,31.5 346,0 h 95 l 63,31.5 63,63"
           style="stroke-width:0.3962in"
           transform="matrix(0.0035,0,0,-0.0035,2.4255,0)"
           id="path23944" /><path
           d="M 220,441 V 0 m 0,315 95,95 63,31 h 94 l 64,-31 31,-95 V 0 m 0,315 95,95 62,31 h 95 l 63,-31 32,-95 V 0"
           style="stroke-width:0.3962in"
           transform="matrix(0.0035,0,0,-0.0035,4.5185,0)"
           id="path23946" /><path
           d="m 220,441 v -661 m 0,566 64,64 62,31 h 95 l 63,-31 63,-64 31,-94 V 189 L 567,94.5 504,31.5 441,0 h -95 l -62,31.5 -64,63"
           style="stroke-width:0.3962in"
           transform="matrix(0.0035,0,0,-0.0035,7.826,0)"
           id="path23948" /><path
           d="M 252,662 V 126 L 284,31.5 346,0 h 64 M 158,441 h 220"
           style="stroke-width:0.3962in"
           transform="matrix(0.0035,0,0,-0.0035,9.919,0)"
           id="path23950" /><path
           d="M 346,441 284,410 220,346 189,252 V 189 L 220,94.5 284,31.5 346,0 h 95 l 63,31.5 63,63 31,94.5 v 63 l -31,94 -63,64 -63,31 h -95"
           style="stroke-width:0.3962in"
           transform="matrix(0.0035,0,0,-0.0035,11.242,0)"
           id="path23952" /><path
           d="M 220,441 V 0 m 0,315 95,95 63,31 h 94 l 64,-31 31,-95 V 0"
           style="stroke-width:0.3962in"
           transform="matrix(0.0035,0,0,-0.0035,13.335,0)"
           id="path23954" /></g><g
         transform="translate(14.9325,102.811)"
         id="g23968"><path
           d="M 220,662 V 0 m 0,0 h 378"
           style="stroke-width:0.3962in"
           transform="scale(0.0035,-0.0035)"
           id="path23958" /><path
           d="M 346,441 284,410 220,346 189,252 V 189 L 220,94.5 284,31.5 346,0 h 95 l 63,31.5 63,63 31,94.5 v 63 l -31,94 -63,64 -63,31 h -95"
           style="stroke-width:0.3962in"
           transform="matrix(0.0035,0,0,-0.0035,1.876,0)"
           id="path23960" /><path
           d="M 567,662 V 0 m 0,346 -63,64 -63,31 H 346 L 284,410 220,346 189,252 V 189 L 220,94.5 284,31.5 346,0 h 95 l 63,31.5 63,63"
           style="stroke-width:0.3962in"
           transform="matrix(0.0035,0,0,-0.0035,3.969,0)"
           id="path23962" /><path
           d="M 567,441 V -63 l -31,-95 -32,-31 -63,-31 h -95 l -62,31 m 283,535 -63,64 -63,31 H 346 L 284,410 220,346 189,252 V 189 L 220,94.5 284,31.5 346,0 h 95 l 63,31.5 63,63"
           style="stroke-width:0.3962in"
           transform="matrix(0.0035,0,0,-0.0035,6.062,0)"
           id="path23964" /><path
           d="m 189,252 h 378 v 63 l -31,63 -32,32 -63,31 H 346 L 284,410 220,346 189,252 V 189 L 220,94.5 284,31.5 346,0 h 95 l 63,31.5 63,63"
           style="stroke-width:0.3962in"
           transform="matrix(0.0035,0,0,-0.0035,8.155,0)"
           id="path23966" /></g></g><g
       inkscape:label="Hershey Text"
       style="fill:none;stroke:#000000;stroke-linecap:round;stroke-linejoin:round"
       transform="matrix(-1.0238826,0.46306681,-0.46306681,-1.0238826,224.15369,124.96895)"
       id="g23986"><g
         transform="translate(20.4185,104.078)"
         id="g23984"><path
           d="m 662,504 -32,63 -63,63 -63,32 H 378 L 315,630 252,567 220,504 189,410 V 252 l 31,-94 32,-63.5 63,-63 L 378,0 h 126 l 63,31.5 63,63 32,63.5"
           style="stroke-width:0.4622in"
           transform="scale(0.003,-0.003)"
           id="path23972" /><path
           d="M 220,662 V 0 m 0,315 95,95 63,31 h 94 l 64,-31 31,-95 V 0"
           style="stroke-width:0.4622in"
           transform="matrix(0.003,0,0,-0.003,1.986,0)"
           id="path23974" /><path
           d="M 567,441 V 0 m 0,346 -63,64 -63,31 H 346 L 284,410 220,346 189,252 V 189 L 220,94.5 284,31.5 346,0 h 95 l 63,31.5 63,63"
           style="stroke-width:0.4622in"
           transform="matrix(0.003,0,0,-0.003,3.78,0)"
           id="path23976" /><path
           d="m 189,662 31,-32 32,32 -32,31 -31,-31 M 220,441 V 0"
           style="stroke-width:0.4622in"
           transform="matrix(0.003,0,0,-0.003,5.574,0)"
           id="path23978" /><path
           d="M 220,441 V 0 m 0,252 32,94 63,64 63,31 h 94"
           style="stroke-width:0.4622in"
           transform="matrix(0.003,0,0,-0.003,6.33,0)"
           id="path23980" /><path
           d="m 284,536 62,31 95,95 V 0"
           style="stroke-width:0.4622in"
           transform="matrix(0.003,0,0,-0.003,8.694,0)"
           id="path23982" /></g></g><g
       inkscape:label="Hershey Text"
       style="fill:none;stroke:#000000;stroke-linecap:round;stroke-linejoin:round"
       id="g24014"
       transform="matrix(-1.1237283,0,0,-1.1237283,221.21037,130.01464)"><g
         transform="translate(85.8794,72.4558)"
         id="g24000"><path
           d="M 220,662 V 0 M 220,662 472,0 M 724,662 472,0 M 724,662 V 0"
           style="stroke-width:0.3962in"
           transform="scale(0.0035,-0.0035)"
           id="path23988" /><path
           d="m 189,662 31,-32 32,32 -32,31 -31,-31 M 220,441 V 0"
           style="stroke-width:0.3962in"
           transform="matrix(0.0035,0,0,-0.0035,2.646,0)"
           id="path23990" /><path
           d="M 567,662 V 0 m 0,346 -63,64 -63,31 H 346 L 284,410 220,346 189,252 V 189 L 220,94.5 284,31.5 346,0 h 95 l 63,31.5 63,63"
           style="stroke-width:0.3962in"
           transform="matrix(0.0035,0,0,-0.0035,3.528,0)"
           id="path23992" /><path
           d="M 189,441 315,0 M 441,441 315,0 M 441,441 567,0 M 693,441 567,0"
           style="stroke-width:0.3962in"
           transform="matrix(0.0035,0,0,-0.0035,5.621,0)"
           id="path23994" /><path
           d="M 567,441 V 0 m 0,346 -63,64 -63,31 H 346 L 284,410 220,346 189,252 V 189 L 220,94.5 284,31.5 346,0 h 95 l 63,31.5 63,63"
           style="stroke-width:0.3962in"
           transform="matrix(0.0035,0,0,-0.0035,8.0465,0)"
           id="path23996" /><path
           d="M 158,441 346,0 M 536,441 346,0 l -62,-126 -64,-63 -62,-31 h -32"
           style="stroke-width:0.3962in"
           transform="matrix(0.0035,0,0,-0.0035,10.1395,0)"
           id="path23998" /></g><g
         transform="translate(85.8794,76.8308)"
         id="g24012"><path
           d="M 220,662 V 0 m 0,0 h 378"
           style="stroke-width:0.3962in"
           transform="scale(0.0035,-0.0035)"
           id="path24002" /><path
           d="M 346,441 284,410 220,346 189,252 V 189 L 220,94.5 284,31.5 346,0 h 95 l 63,31.5 63,63 31,94.5 v 63 l -31,94 -63,64 -63,31 h -95"
           style="stroke-width:0.3962in"
           transform="matrix(0.0035,0,0,-0.0035,1.876,0)"
           id="path24004" /><path
           d="M 567,662 V 0 m 0,346 -63,64 -63,31 H 346 L 284,410 220,346 189,252 V 189 L 220,94.5 284,31.5 346,0 h 95 l 63,31.5 63,63"
           style="stroke-width:0.3962in"
           transform="matrix(0.0035,0,0,-0.0035,3.969,0)"
           id="path24006" /><path
           d="M 567,441 V -63 l -31,-95 -32,-31 -63,-31 h -95 l -62,31 m 283,535 -63,64 -63,31 H 346 L 284,410 220,346 189,252 V 189 L 220,94.5 284,31.5 346,0 h 95 l 63,31.5 63,63"
           style="stroke-width:0.3962in"
           transform="matrix(0.0035,0,0,-0.0035,6.062,0)"
           id="path24008" /><path
           d="m 189,252 h 378 v 63 l -31,63 -32,32 -63,31 H 346 L 284,410 220,346 189,252 V 189 L 220,94.5 284,31.5 346,0 h 95 l 63,31.5 63,63"
           style="stroke-width:0.3962in"
           transform="matrix(0.0035,0,0,-0.0035,8.155,0)"
           id="path24010" /></g></g><g
       inkscape:label="Hershey Text"
       style="fill:none;stroke:#000000;stroke-linecap:round;stroke-linejoin:round"
       transform="matrix(-0.91989236,0.64541806,-0.64541806,-0.91989236,221.21037,125.8099)"
       id="g24030"><g
         transform="translate(49.5947,102.934)"
         id="g24028"><path
           d="m 662,504 -32,63 -63,63 -63,32 H 378 L 315,630 252,567 220,504 189,410 V 252 l 31,-94 32,-63.5 63,-63 L 378,0 h 126 l 63,31.5 63,63 32,63.5"
           style="stroke-width:0.4622in"
           transform="scale(0.003,-0.003)"
           id="path24016" /><path
           d="M 220,662 V 0 m 0,315 95,95 63,31 h 94 l 64,-31 31,-95 V 0"
           style="stroke-width:0.4622in"
           transform="matrix(0.003,0,0,-0.003,1.986,0)"
           id="path24018" /><path
           d="M 567,441 V 0 m 0,346 -63,64 -63,31 H 346 L 284,410 220,346 189,252 V 189 L 220,94.5 284,31.5 346,0 h 95 l 63,31.5 63,63"
           style="stroke-width:0.4622in"
           transform="matrix(0.003,0,0,-0.003,3.78,0)"
           id="path24020" /><path
           d="m 189,662 31,-32 32,32 -32,31 -31,-31 M 220,441 V 0"
           style="stroke-width:0.4622in"
           transform="matrix(0.003,0,0,-0.003,5.574,0)"
           id="path24022" /><path
           d="M 220,441 V 0 m 0,252 32,94 63,64 63,31 h 94"
           style="stroke-width:0.4622in"
           transform="matrix(0.003,0,0,-0.003,6.33,0)"
           id="path24024" /><path
           d="m 220,504 v 32 l 32,62 32,32 62,32 h 126 l 64,-32 31,-32 31,-62 V 472 L 567,410 504,315 189,0 h 441"
           style="stroke-width:0.4622in"
           transform="matrix(0.003,0,0,-0.003,8.694,0)"
           id="path24026" /></g></g><g
       inkscape:label="Hershey Text"
       style="fill:none;stroke:#000000;stroke-linecap:round;stroke-linejoin:round"
       transform="matrix(-1.0564345,-0.38303094,0.38303094,-1.0564345,221.00015,130.64535)"
       id="g24046"><g
         transform="translate(93.0498,-1.83506)"
         id="g24044"><path
           d="m 662,504 -32,63 -63,63 -63,32 H 378 L 315,630 252,567 220,504 189,410 V 252 l 31,-94 32,-63.5 63,-63 L 378,0 h 126 l 63,31.5 63,63 32,63.5"
           style="stroke-width:0.4622in"
           transform="scale(0.003,-0.003)"
           id="path24032" /><path
           d="M 220,662 V 0 m 0,315 95,95 63,31 h 94 l 64,-31 31,-95 V 0"
           style="stroke-width:0.4622in"
           transform="matrix(0.003,0,0,-0.003,1.986,0)"
           id="path24034" /><path
           d="M 567,441 V 0 m 0,346 -63,64 -63,31 H 346 L 284,410 220,346 189,252 V 189 L 220,94.5 284,31.5 346,0 h 95 l 63,31.5 63,63"
           style="stroke-width:0.4622in"
           transform="matrix(0.003,0,0,-0.003,3.78,0)"
           id="path24036" /><path
           d="m 189,662 31,-32 32,32 -32,31 -31,-31 M 220,441 V 0"
           style="stroke-width:0.4622in"
           transform="matrix(0.003,0,0,-0.003,5.574,0)"
           id="path24038" /><path
           d="M 220,441 V 0 m 0,252 32,94 63,64 63,31 h 94"
           style="stroke-width:0.4622in"
           transform="matrix(0.003,0,0,-0.003,6.33,0)"
           id="path24040" /><path
           d="M 252,662 H 598 L 410,410 h 94 l 63,-32 31,-32 32,-94 V 189 L 598,94.5 536,31.5 441,0 H 346 L 252,31.5 220,63 189,126"
           style="stroke-width:0.4622in"
           transform="matrix(0.003,0,0,-0.003,8.694,0)"
           id="path24042" /></g></g><g
       inkscape:label="Hershey Text"
       style="fill:none;stroke:#000000;stroke-linecap:round;stroke-linejoin:round"
       transform="matrix(-1.0321924,0.44423552,-0.44423552,-1.0321924,217.42611,128.33274)"
       id="g24062"><g
         transform="translate(7.85483,53.4209)"
         id="g24060"><path
           d="m 662,504 -32,63 -63,63 -63,32 H 378 L 315,630 252,567 220,504 189,410 V 252 l 31,-94 32,-63.5 63,-63 L 378,0 h 126 l 63,31.5 63,63 32,63.5"
           style="stroke-width:0.4622in"
           transform="scale(0.003,-0.003)"
           id="path24048" /><path
           d="M 220,662 V 0 m 0,315 95,95 63,31 h 94 l 64,-31 31,-95 V 0"
           style="stroke-width:0.4622in"
           transform="matrix(0.003,0,0,-0.003,1.986,0)"
           id="path24050" /><path
           d="M 567,441 V 0 m 0,346 -63,64 -63,31 H 346 L 284,410 220,346 189,252 V 189 L 220,94.5 284,31.5 346,0 h 95 l 63,31.5 63,63"
           style="stroke-width:0.4622in"
           transform="matrix(0.003,0,0,-0.003,3.78,0)"
           id="path24052" /><path
           d="m 189,662 31,-32 32,32 -32,31 -31,-31 M 220,441 V 0"
           style="stroke-width:0.4622in"
           transform="matrix(0.003,0,0,-0.003,5.574,0)"
           id="path24054" /><path
           d="M 220,441 V 0 m 0,252 32,94 63,64 63,31 h 94"
           style="stroke-width:0.4622in"
           transform="matrix(0.003,0,0,-0.003,6.33,0)"
           id="path24056" /><path
           d="M 504,662 189,220 H 662 M 504,662 V 0"
           style="stroke-width:0.4622in"
           transform="matrix(0.003,0,0,-0.003,8.694,0)"
           id="path24058" /></g></g><g
       inkscape:label="Hershey Text"
       style="fill:none;stroke:#000000;stroke-linecap:round;stroke-linejoin:round"
       transform="matrix(-1.1135275,0.15107188,-0.15107188,-1.1135275,220.2355,130.40423)"
       id="g24084"><g
         transform="translate(54.5923,26.0736)"
         id="g24082"><path
           d="M 220,662 V 0 M 220,662 472,0 M 724,662 472,0 M 724,662 V 0"
           style="stroke-width:0.3962in"
           transform="scale(0.0035,-0.0035)"
           id="path24064" /><path
           d="m 189,662 31,-32 32,32 -32,31 -31,-31 M 220,441 V 0"
           style="stroke-width:0.3962in"
           transform="matrix(0.0035,0,0,-0.0035,2.646,0)"
           id="path24066" /><path
           d="m 567,346 -63,64 -63,31 H 346 L 284,410 220,346 189,252 V 189 L 220,94.5 284,31.5 346,0 h 95 l 63,31.5 63,63"
           style="stroke-width:0.3962in"
           transform="matrix(0.0035,0,0,-0.0035,3.528,0)"
           id="path24068" /><path
           d="M 220,441 V 0 m 0,252 32,94 63,64 63,31 h 94"
           style="stroke-width:0.3962in"
           transform="matrix(0.0035,0,0,-0.0035,5.5125,0)"
           id="path24070" /><path
           d="M 346,441 284,410 220,346 189,252 V 189 L 220,94.5 284,31.5 346,0 h 95 l 63,31.5 63,63 31,94.5 v 63 l -31,94 -63,64 -63,31 h -95"
           style="stroke-width:0.3962in"
           transform="matrix(0.0035,0,0,-0.0035,6.9475,0)"
           id="path24072" /><path
           d="M 189,441 315,0 M 441,441 315,0 M 441,441 567,0 M 693,441 567,0"
           style="stroke-width:0.3962in"
           transform="matrix(0.0035,0,0,-0.0035,9.0405,0)"
           id="path24074" /><path
           d="M 567,441 V 0 m 0,346 -63,64 -63,31 H 346 L 284,410 220,346 189,252 V 189 L 220,94.5 284,31.5 346,0 h 95 l 63,31.5 63,63"
           style="stroke-width:0.3962in"
           transform="matrix(0.0035,0,0,-0.0035,11.466,0)"
           id="path24076" /><path
           d="M 158,441 346,0 M 536,441 346,0"
           style="stroke-width:0.3962in"
           transform="matrix(0.0035,0,0,-0.0035,13.559,0)"
           id="path24078" /><path
           d="m 189,252 h 378 v 63 l -31,63 -32,32 -63,31 H 346 L 284,410 220,346 189,252 V 189 L 220,94.5 284,31.5 346,0 h 95 l 63,31.5 63,63"
           style="stroke-width:0.3962in"
           transform="matrix(0.0035,0,0,-0.0035,15.323,0)"
           id="path24080" /></g></g><g
       inkscape:label="Hershey Text"
       style="fill:none;stroke:#000000;stroke-linecap:round;stroke-linejoin:round"
       transform="matrix(-1.1011525,-0.22412204,0.22412204,-1.1011525,226.4663,129.17369)"
       id="g24108"><g
         transform="translate(98.7898,-4.40853)"
         id="g24106"><path
           d="M 158,662 315,0 M 472,662 315,0 M 472,662 630,0 M 788,662 630,0"
           style="stroke-width:0.3962in"
           transform="scale(0.0035,-0.0035)"
           id="path24086" /><path
           d="m 189,662 31,-32 32,32 -32,31 -31,-31 M 220,441 V 0"
           style="stroke-width:0.3962in"
           transform="matrix(0.0035,0,0,-0.0035,2.646,0)"
           id="path24088" /><path
           d="M 220,441 V 0 m 0,315 95,95 63,31 h 94 l 64,-31 31,-95 V 0"
           style="stroke-width:0.3962in"
           transform="matrix(0.0035,0,0,-0.0035,3.528,0)"
           id="path24090" /><path
           d="M 567,662 V 0 m 0,346 -63,64 -63,31 H 346 L 284,410 220,346 189,252 V 189 L 220,94.5 284,31.5 346,0 h 95 l 63,31.5 63,63"
           style="stroke-width:0.3962in"
           transform="matrix(0.0035,0,0,-0.0035,5.621,0)"
           id="path24092" /><path
           d="M 158,441 346,0 M 536,441 346,0 l -62,-126 -64,-63 -62,-31 h -32"
           style="stroke-width:0.3962in"
           transform="matrix(0.0035,0,0,-0.0035,7.714,0)"
           id="path24094" /><path
           d="M 220,662 V 0 m 0,662 h 284 l 94,-32 32,-32 32,-62 V 472 L 630,410 598,378 504,346 H 220 M 441,346 662,0"
           style="stroke-width:0.3962in"
           transform="matrix(0.0035,0,0,-0.0035,10.801,0)"
           id="path24096" /><path
           d="m 189,662 31,-32 32,32 -32,31 -31,-31 M 220,441 V 0"
           style="stroke-width:0.3962in"
           transform="matrix(0.0035,0,0,-0.0035,13.118,0)"
           id="path24098" /><path
           d="M 567,662 V 0 m 0,346 -63,64 -63,31 H 346 L 284,410 220,346 189,252 V 189 L 220,94.5 284,31.5 346,0 h 95 l 63,31.5 63,63"
           style="stroke-width:0.3962in"
           transform="matrix(0.0035,0,0,-0.0035,14,0)"
           id="path24100" /><path
           d="M 567,441 V -63 l -31,-95 -32,-31 -63,-31 h -95 l -62,31 m 283,535 -63,64 -63,31 H 346 L 284,410 220,346 189,252 V 189 L 220,94.5 284,31.5 346,0 h 95 l 63,31.5 63,63"
           style="stroke-width:0.3962in"
           transform="matrix(0.0035,0,0,-0.0035,16.093,0)"
           id="path24102" /><path
           d="m 189,252 h 378 v 63 l -31,63 -32,32 -63,31 H 346 L 284,410 220,346 189,252 V 189 L 220,94.5 284,31.5 346,0 h 95 l 63,31.5 63,63"
           style="stroke-width:0.3962in"
           transform="matrix(0.0035,0,0,-0.0035,18.186,0)"
           id="path24104" /></g></g><g
       inkscape:label="Hershey Text"
       style="fill:none;stroke:#000000;stroke-linecap:round;stroke-linejoin:round"
       id="g24138"
       transform="matrix(-1.1657854,0,0,-1.1657854,238.16668,128.53798)"><g
         transform="translate(157.639,12.3708)"
         id="g24136"><path
           d="m 630,567 -63,63 -95,32 H 346 l -94,-32 -63,-63 v -63 l 31,-63 32,-31 63,-32 189,-63 63,-31 31,-32 32,-63 V 94.5 L 567,31.5 472,0 H 346 l -94,31.5 -63,63"
           style="stroke-width:0.3962in"
           transform="scale(0.0035,-0.0035)"
           id="path24110" /><path
           d="M 220,441 V 126 L 252,31.5 315,0 h 95 l 62,31.5 95,94.5 m 0,315 V 0"
           style="stroke-width:0.3962in"
           transform="matrix(0.0035,0,0,-0.0035,2.205,0)"
           id="path24112" /><path
           d="M 220,441 V 0 m 0,315 95,95 63,31 h 94 l 64,-31 31,-95 V 0 m 0,315 95,95 62,31 h 95 l 63,-31 32,-95 V 0"
           style="stroke-width:0.3962in"
           transform="matrix(0.0035,0,0,-0.0035,4.298,0)"
           id="path24114" /><path
           d="M 220,441 V 0 m 0,315 95,95 63,31 h 94 l 64,-31 31,-95 V 0 m 0,315 95,95 62,31 h 95 l 63,-31 32,-95 V 0"
           style="stroke-width:0.3962in"
           transform="matrix(0.0035,0,0,-0.0035,7.6055,0)"
           id="path24116" /><path
           d="m 189,662 31,-32 32,32 -32,31 -31,-31 M 220,441 V 0"
           style="stroke-width:0.3962in"
           transform="matrix(0.0035,0,0,-0.0035,10.913,0)"
           id="path24118" /><path
           d="M 252,662 V 126 L 284,31.5 346,0 h 64 M 158,441 h 220"
           style="stroke-width:0.3962in"
           transform="matrix(0.0035,0,0,-0.0035,11.795,0)"
           id="path24120" /><path
           d="m 598,567 -31,63 -95,32 H 410 L 315,630 252,536 220,378 V 220 L 252,94.5 315,31.5 410,0 h 31 l 95,31.5 62,63 32,94.5 v 31 l -32,95 -62,63 -95,32 h -31 l -95,-32 -63,-63 -32,-95"
           style="stroke-width:0.3962in"
           transform="matrix(0.0035,0,0,-0.0035,14.441,0)"
           id="path24122" /><path
           d="m 252,126 -32,-31.5 -31,31.5 31,32 32,-32 V 63 L 189,0"
           style="stroke-width:0.3962in"
           transform="matrix(0.0035,0,0,-0.0035,16.646,0)"
           id="path24124" /><path
           d="m 346,662 -94,-32 -32,-63 v -63 l 32,-63 63,-31 126,-32 95,-32 62,-62 32,-64 V 126 L 598,63 567,31.5 472,0 H 346 L 252,31.5 220,63 189,126 v 94 l 31,64 64,62 94,32 126,32 63,31 31,63 v 63 l -31,63 -95,32 H 346"
           style="stroke-width:0.3962in"
           transform="matrix(0.0035,0,0,-0.0035,17.528,0)"
           id="path24126" /><path
           d="m 220,504 v 32 l 32,62 32,32 62,32 h 126 l 64,-32 31,-32 31,-62 V 472 L 567,410 504,315 189,0 h 441"
           style="stroke-width:0.3962in"
           transform="matrix(0.0035,0,0,-0.0035,19.733,0)"
           id="path24128" /><path
           d="M 378,662 284,630 220,536 189,378 V 284 L 220,126 284,31.5 378,0 h 63 l 95,31.5 62,94.5 32,158 v 94 l -32,158 -62,94 -95,32 h -63"
           style="stroke-width:0.3962in"
           transform="matrix(0.0035,0,0,-0.0035,21.938,0)"
           id="path24130" /><path
           d="M 410,662 H 346 L 284,630 252,536 V 0 m -94,441 h 220"
           style="stroke-width:0.3962in"
           transform="matrix(0.0035,0,0,-0.0035,24.143,0)"
           id="path24132" /><path
           d="M 252,662 V 126 L 284,31.5 346,0 h 64 M 158,441 h 220"
           style="stroke-width:0.3962in"
           transform="matrix(0.0035,0,0,-0.0035,25.466,0)"
           id="path24134" /></g></g><g
       inkscape:label="Hershey Text"
       style="fill:none;stroke:#000000;stroke-linecap:round;stroke-linejoin:round"
       id="g24168"
       transform="matrix(-1.1237283,0,0,-1.1237283,226.67655,126.65086)"><g
         transform="translate(146.695,63.4928)"
         id="g24152"><path
           d="M 220,662 V 0 m 0,662 h 284 l 94,-32 32,-32 32,-62 v -64 l -32,-62 -32,-32 -94,-32 m -284,0 h 284 l 94,-31 32,-31 32,-64 V 126 L 630,63 598,31.5 504,0 H 220"
           style="stroke-width:0.3962in"
           transform="scale(0.0035,-0.0035)"
           id="path24140" /><path
           d="M 346,441 284,410 220,346 189,252 V 189 L 220,94.5 284,31.5 346,0 h 95 l 63,31.5 63,63 31,94.5 v 63 l -31,94 -63,64 -63,31 h -95"
           style="stroke-width:0.3962in"
           transform="matrix(0.0035,0,0,-0.0035,2.317,0)"
           id="path24142" /><path
           d="M 220,441 V 0 m 0,315 95,95 63,31 h 94 l 64,-31 31,-95 V 0 m 0,315 95,95 62,31 h 95 l 63,-31 32,-95 V 0"
           style="stroke-width:0.3962in"
           transform="matrix(0.0035,0,0,-0.0035,4.41,0)"
           id="path24144" /><path
           d="M 220,662 V 0 m 0,346 64,64 62,31 h 95 l 63,-31 63,-64 31,-94 V 189 L 567,94.5 504,31.5 441,0 h -95 l -62,31.5 -64,63"
           style="stroke-width:0.3962in"
           transform="matrix(0.0035,0,0,-0.0035,7.7175,0)"
           id="path24146" /><path
           d="m 189,252 h 378 v 63 l -31,63 -32,32 -63,31 H 346 L 284,410 220,346 189,252 V 189 L 220,94.5 284,31.5 346,0 h 95 l 63,31.5 63,63"
           style="stroke-width:0.3962in"
           transform="matrix(0.0035,0,0,-0.0035,9.8105,0)"
           id="path24148" /><path
           d="M 220,441 V 0 m 0,252 32,94 63,64 63,31 h 94"
           style="stroke-width:0.3962in"
           transform="matrix(0.0035,0,0,-0.0035,11.795,0)"
           id="path24150" /></g><g
         transform="translate(146.695,67.8678)"
         id="g24166"><path
           d="m 662,504 -32,63 -63,63 -63,32 H 378 L 315,630 252,567 220,504 189,410 V 252 l 31,-94 32,-63.5 63,-63 L 378,0 h 126 l 63,31.5 63,63 32,63.5"
           style="stroke-width:0.3962in"
           transform="scale(0.0035,-0.0035)"
           id="path24154" /><path
           d="M 220,662 V 0"
           style="stroke-width:0.3962in"
           transform="matrix(0.0035,0,0,-0.0035,2.317,0)"
           id="path24156" /><path
           d="m 189,662 31,-32 32,32 -32,31 -31,-31 M 220,441 V 0"
           style="stroke-width:0.3962in"
           transform="matrix(0.0035,0,0,-0.0035,3.199,0)"
           id="path24158" /><path
           d="M 410,662 H 346 L 284,630 252,536 V 0 m -94,441 h 220"
           style="stroke-width:0.3962in"
           transform="matrix(0.0035,0,0,-0.0035,4.081,0)"
           id="path24160" /><path
           d="M 410,662 H 346 L 284,630 252,536 V 0 m -94,441 h 220"
           style="stroke-width:0.3962in"
           transform="matrix(0.0035,0,0,-0.0035,5.404,0)"
           id="path24162" /><path
           d="m 536,346 -32,64 -94,31 h -95 l -95,-31 -31,-64 31,-62 64,-32 157,-32 63,-31 32,-63 V 94.5 L 504,31.5 410,0 h -95 l -95,31.5 -31,63"
           style="stroke-width:0.3962in"
           transform="matrix(0.0035,0,0,-0.0035,6.727,0)"
           id="path24164" /></g></g></g></svg>
