<?xml version='1.0' encoding='UTF-8'?>
<!-- Created with Inkscape (http://www.inkscape.org/) --><svg xmlns:inkscape="http://www.inkscape.org/namespaces/inkscape" xmlns:sodipodi="http://sodipodi.sourceforge.net/DTD/sodipodi-0.dtd" xmlns="http://www.w3.org/2000/svg" xmlns:svg="http://www.w3.org/2000/svg" width="227.74001mm" height="140.35001mm" viewBox="0 0 227.74001 140.35001" version="1.1" id="svg5" xml:space="preserve" inkscape:version="1.2.2 (732a01da63, 2022-12-09)" sodipodi:docname="extensions_applied.svg" inkscape:export-filename="contours.png" inkscape:export-xdpi="800" inkscape:export-ydpi="800"><sodipodi:namedview id="namedview7" pagecolor="#ffffff" bordercolor="#000000" borderopacity="0.25" inkscape:showpageshadow="2" inkscape:pageopacity="0.0" inkscape:pagecheckerboard="0" inkscape:deskcolor="#d1d1d1" inkscape:document-units="mm" showgrid="false" inkscape:zoom="1.5519182" inkscape:cx="290.93028" inkscape:cy="271.27718" inkscape:window-width="1920" inkscape:window-height="1009" inkscape:window-x="-8" inkscape:window-y="-8" inkscape:window-maximized="1" inkscape:current-layer="layer1"/><defs id="defs2"><inkscape:path-effect effect="bspline" id="path-effect54" is_visible="true" lpeversion="1.3" weight="33.333333" steps="2" helper_size="0" apply_no_weight="true" apply_with_weight="true" only_selected="false" uniform="false"/><inkscape:path-effect effect="bspline" id="path-effect53" is_visible="true" lpeversion="1.3" weight="33.333333" steps="2" helper_size="0" apply_no_weight="true" apply_with_weight="true" only_selected="false" uniform="false"/><inkscape:path-effect effect="bspline" id="path-effect52" is_visible="true" lpeversion="1.3" weight="33.333333" steps="2" helper_size="0" apply_no_weight="true" apply_with_weight="true" only_selected="false" uniform="false"/><inkscape:path-effect effect="bspline" id="path-effect51" is_visible="true" lpeversion="1.3" weight="33.333333" steps="2" helper_size="0" apply_no_weight="true" apply_with_weight="true" only_selected="false" uniform="false"/><inkscape:path-effect effect="bspline" id="path-effect50" is_visible="true" lpeversion="1.3" weight="33.333333" steps="2" helper_size="0" apply_no_weight="true" apply_with_weight="true" only_selected="false" uniform="false"/><inkscape:path-effect effect="bspline" id="path-effect49" is_visible="true" lpeversion="1.3" weight="33.333333" steps="2" helper_size="0" apply_no_weight="true" apply_with_weight="true" only_selected="false" uniform="false"/><inkscape:path-effect effect="bspline" id="path-effect48" is_visible="true" lpeversion="1.3" weight="33.333333" steps="2" helper_size="0" apply_no_weight="true" apply_with_weight="true" only_selected="false" uniform="false"/><inkscape:path-effect effect="bspline" id="path-effect47" is_visible="true" lpeversion="1.3" weight="33.333333" steps="2" helper_size="0" apply_no_weight="true" apply_with_weight="true" only_selected="false" uniform="false"/><inkscape:path-effect effect="bspline" id="path-effect46" is_visible="true" lpeversion="1.3" weight="33.333333" steps="2" helper_size="0" apply_no_weight="true" apply_with_weight="true" only_selected="false" uniform="false"/><inkscape:path-effect effect="bspline" id="path-effect45" is_visible="true" lpeversion="1.3" weight="33.333333" steps="2" helper_size="0" apply_no_weight="true" apply_with_weight="true" only_selected="false" uniform="false"/><inkscape:path-effect effect="bspline" id="path-effect44" is_visible="true" lpeversion="1.3" weight="33.333333" steps="2" helper_size="0" apply_no_weight="true" apply_with_weight="true" only_selected="false" uniform="false"/><inkscape:path-effect effect="bspline" id="path-effect43" is_visible="true" lpeversion="1.3" weight="33.333333" steps="2" helper_size="0" apply_no_weight="true" apply_with_weight="true" only_selected="false" uniform="false"/><inkscape:path-effect effect="bspline" id="path-effect42" is_visible="true" lpeversion="1.3" weight="33.333333" steps="2" helper_size="0" apply_no_weight="true" apply_with_weight="true" only_selected="false" uniform="false"/><inkscape:path-effect effect="bspline" id="path-effect41" is_visible="true" lpeversion="1.3" weight="33.333333" steps="2" helper_size="0" apply_no_weight="true" apply_with_weight="true" only_selected="false" uniform="false"/><inkscape:path-effect effect="bspline" id="path-effect40" is_visible="true" lpeversion="1.3" weight="33.333333" steps="2" helper_size="0" apply_no_weight="true" apply_with_weight="true" only_selected="false" uniform="false"/><inkscape:path-effect effect="bspline" id="path-effect39" is_visible="true" lpeversion="1.3" weight="33.333333" steps="2" helper_size="0" apply_no_weight="true" apply_with_weight="true" only_selected="false" uniform="false"/><inkscape:path-effect effect="bspline" id="path-effect38" is_visible="true" lpeversion="1.3" weight="33.333333" steps="2" helper_size="0" apply_no_weight="true" apply_with_weight="true" only_selected="false" uniform="false"/><inkscape:path-effect effect="bspline" id="path-effect37" is_visible="true" lpeversion="1.3" weight="33.333333" steps="2" helper_size="0" apply_no_weight="true" apply_with_weight="true" only_selected="false" uniform="false"/><inkscape:path-effect effect="bspline" id="path-effect36" is_visible="true" lpeversion="1.3" weight="33.333333" steps="2" helper_size="0" apply_no_weight="true" apply_with_weight="true" only_selected="false" uniform="false"/><inkscape:path-effect effect="bspline" id="path-effect35" is_visible="true" lpeversion="1.3" weight="33.333333" steps="2" helper_size="0" apply_no_weight="true" apply_with_weight="true" only_selected="false" uniform="false"/><inkscape:path-effect effect="bspline" id="path-effect34" is_visible="true" lpeversion="1.3" weight="33.333333" steps="2" helper_size="0" apply_no_weight="true" apply_with_weight="true" only_selected="false" uniform="false"/><inkscape:path-effect effect="bspline" id="path-effect33" is_visible="true" lpeversion="1.3" weight="33.333333" steps="2" helper_size="0" apply_no_weight="true" apply_with_weight="true" only_selected="false" uniform="false"/><inkscape:path-effect effect="bspline" id="path-effect32" is_visible="true" lpeversion="1.3" weight="33.333333" steps="2" helper_size="0" apply_no_weight="true" apply_with_weight="true" only_selected="false" uniform="false"/><inkscape:path-effect effect="bspline" id="path-effect31" is_visible="true" lpeversion="1.3" weight="33.333333" steps="2" helper_size="0" apply_no_weight="true" apply_with_weight="true" only_selected="false" uniform="false"/><inkscape:path-effect effect="bspline" id="path-effect30" is_visible="true" lpeversion="1.3" weight="33.333333" steps="2" helper_size="0" apply_no_weight="true" apply_with_weight="true" only_selected="false" uniform="false"/><inkscape:path-effect effect="bspline" id="path-effect29" is_visible="true" lpeversion="1.3" weight="33.333333" steps="2" helper_size="0" apply_no_weight="true" apply_with_weight="true" only_selected="false" uniform="false"/><inkscape:path-effect effect="bspline" id="path-effect28" is_visible="true" lpeversion="1.3" weight="33.333333" steps="2" helper_size="0" apply_no_weight="true" apply_with_weight="true" only_selected="false" uniform="false"/><inkscape:path-effect effect="bspline" id="path-effect27" is_visible="true" lpeversion="1.3" weight="33.333333" steps="2" helper_size="0" apply_no_weight="true" apply_with_weight="true" only_selected="false" uniform="false"/><inkscape:path-effect effect="bspline" id="path-effect26" is_visible="true" lpeversion="1.3" weight="33.333333" steps="2" helper_size="0" apply_no_weight="true" apply_with_weight="true" only_selected="false" uniform="false"/><inkscape:path-effect effect="bspline" id="path-effect25" is_visible="true" lpeversion="1.3" weight="33.333333" steps="2" helper_size="0" apply_no_weight="true" apply_with_weight="true" only_selected="false" uniform="false"/><inkscape:path-effect effect="bspline" id="path-effect24" is_visible="true" lpeversion="1.3" weight="33.333333" steps="2" helper_size="0" apply_no_weight="true" apply_with_weight="true" only_selected="false" uniform="false"/><inkscape:path-effect effect="bspline" id="path-effect23" is_visible="true" lpeversion="1.3" weight="33.333333" steps="2" helper_size="0" apply_no_weight="true" apply_with_weight="true" only_selected="false" uniform="false"/><inkscape:path-effect effect="bspline" id="path-effect22" is_visible="true" lpeversion="1.3" weight="33.333333" steps="2" helper_size="0" apply_no_weight="true" apply_with_weight="true" only_selected="false" uniform="false"/><inkscape:path-effect effect="bspline" id="path-effect21" is_visible="true" lpeversion="1.3" weight="33.333333" steps="2" helper_size="0" apply_no_weight="true" apply_with_weight="true" only_selected="false" uniform="false"/><inkscape:path-effect effect="bspline" id="path-effect20" is_visible="true" lpeversion="1.3" weight="33.333333" steps="2" helper_size="0" apply_no_weight="true" apply_with_weight="true" only_selected="false" uniform="false"/><inkscape:path-effect effect="bspline" id="path-effect19" is_visible="true" lpeversion="1.3" weight="33.333333" steps="2" helper_size="0" apply_no_weight="true" apply_with_weight="true" only_selected="false" uniform="false"/><inkscape:path-effect effect="bspline" id="path-effect18" is_visible="true" lpeversion="1.3" weight="33.333333" steps="2" helper_size="0" apply_no_weight="true" apply_with_weight="true" only_selected="false" uniform="false"/><inkscape:path-effect effect="bspline" id="path-effect17" is_visible="true" lpeversion="1.3" weight="33.333333" steps="2" helper_size="0" apply_no_weight="true" apply_with_weight="true" only_selected="false" uniform="false"/><inkscape:path-effect effect="bspline" id="path-effect16" is_visible="true" lpeversion="1.3" weight="33.333333" steps="2" helper_size="0" apply_no_weight="true" apply_with_weight="true" only_selected="false" uniform="false"/><inkscape:path-effect effect="bspline" id="path-effect15" is_visible="true" lpeversion="1.3" weight="33.333333" steps="2" helper_size="0" apply_no_weight="true" apply_with_weight="true" only_selected="false" uniform="false"/><inkscape:path-effect effect="bspline" id="path-effect14" is_visible="true" lpeversion="1.3" weight="33.333333" steps="2" helper_size="0" apply_no_weight="true" apply_with_weight="true" only_selected="false" uniform="false"/><inkscape:path-effect effect="bspline" id="path-effect13" is_visible="true" lpeversion="1.3" weight="33.333333" steps="2" helper_size="0" apply_no_weight="true" apply_with_weight="true" only_selected="false" uniform="false"/><inkscape:path-effect effect="bspline" id="path-effect12" is_visible="true" lpeversion="1.3" weight="33.333333" steps="2" helper_size="0" apply_no_weight="true" apply_with_weight="true" only_selected="false" uniform="false"/><inkscape:path-effect effect="bspline" id="path-effect11" is_visible="true" lpeversion="1.3" weight="33.333333" steps="2" helper_size="0" apply_no_weight="true" apply_with_weight="true" only_selected="false" uniform="false"/><inkscape:path-effect effect="bspline" id="path-effect10" is_visible="true" lpeversion="1.3" weight="33.333333" steps="2" helper_size="0" apply_no_weight="true" apply_with_weight="true" only_selected="false" uniform="false"/><inkscape:path-effect effect="bspline" id="path-effect9" is_visible="true" lpeversion="1.3" weight="33.333333" steps="2" helper_size="0" apply_no_weight="true" apply_with_weight="true" only_selected="false" uniform="false"/><inkscape:path-effect effect="bspline" id="path-effect8" is_visible="true" lpeversion="1.3" weight="33.333333" steps="2" helper_size="0" apply_no_weight="true" apply_with_weight="true" only_selected="false" uniform="false"/><inkscape:path-effect effect="bspline" id="path-effect7" is_visible="true" lpeversion="1.3" weight="33.333333" steps="2" helper_size="0" apply_no_weight="true" apply_with_weight="true" only_selected="false" uniform="false"/><inkscape:path-effect effect="bspline" id="path-effect6" is_visible="true" lpeversion="1.3" weight="33.333333" steps="2" helper_size="0" apply_no_weight="true" apply_with_weight="true" only_selected="false" uniform="false"/><inkscape:path-effect effect="bspline" id="path-effect5" is_visible="true" lpeversion="1.3" weight="33.333333" steps="2" helper_size="0" apply_no_weight="true" apply_with_weight="true" only_selected="false" uniform="false"/></defs><g inkscape:label="Layer 1" inkscape:groupmode="layer" id="layer1" transform="translate(67.4194, -70.9677)"><path style="fill:#0000ff;fill-opacity:0;stroke:#0000ff;stroke-width:0.606;stroke-opacity:1;stroke-dashoffset:0" d="M 126.818 84.3966 C 126.92 84.5124 127.022 84.6283 126.987 84.8889 C 126.964 85.0615 126.881 85.2976 126.773 85.5203 M 126.592 85.8406 M 126.141 86.5518 C 126.089 86.6686 126.036 86.8081 125.983 86.9803 C 125.919 87.186 125.855 87.4385 125.798 87.7113 M 125.617 88.9105 C 125.596 89.1701 125.589 89.4147 125.604 89.6225 C 125.617 89.8145 125.649 89.975 125.693 90.1115 M 126.24 90.8721 M 126.435 91.0487 C 126.622 91.2141 126.827 91.3713 127.201 91.5542 C 127.282 91.5937 127.37 91.6344 127.464 91.6758 M 128.586 92.1352 C 128.748 92.2009 128.901 92.2642 129.034 92.3232 C 129.324 92.4518 129.52 92.5603 129.679 92.657 M 130.011 92.8665 M 130.709 93.296 C 130.781 93.3442 130.859 93.3978 130.943 93.4582 C 131.16 93.6127 131.421 93.8116 131.684 94.0152 M 132.448 94.6114 M 132.64 94.7591 C 132.981 95.0204 133.212 95.1911 133.408 95.3503 C 133.473 95.4037 133.535 95.4558 133.595 95.5071 M 134.057 95.884 M 134.559 96.2376 C 134.664 96.3156 134.77 96.4007 134.873 96.497 C 135.065 96.6764 135.247 96.8946 135.415 97.0916 M 135.63 97.3376 M 136.247 97.9233 M 136.271 97.9476 C 136.47 98.1488 136.684 98.4058 136.946 98.6427 C 137.005 98.6961 137.067 98.7486 137.129 98.8003 M 137.785 99.3479 M 138.028 99.6112 C 138.154 99.7608 138.268 99.9106 138.404 100.055 C 138.543 100.203 138.705 100.345 138.863 100.487 M 139.117 100.725 M 139.691 101.37 C 139.732 101.417 139.775 101.467 139.821 101.52 C 140.013 101.739 140.253 102.002 140.502 102.271 M 140.891 102.691 M 141.326 103.16 C 141.531 103.383 141.719 103.593 141.881 103.783 C 141.968 103.885 142.047 103.982 142.122 104.074 M 142.567 104.6 M 142.943 104.963 C 143.045 105.056 143.145 105.146 143.238 105.238 C 143.429 105.424 143.593 105.615 143.81 105.808 M 143.875 105.864 M 144.742 106.535 M 144.764 106.553 C 145.045 106.792 145.291 107.055 145.522 107.259 C 145.567 107.299 145.612 107.337 145.656 107.374 M 146.203 107.879 M 146.481 108.253 C 146.629 108.47 146.798 108.734 147.019 109.049 C 147.066 109.115 147.114 109.184 147.165 109.255 M 147.884 110.229 C 148.071 110.48 148.269 110.746 148.476 111.026 C 148.519 111.084 148.562 111.143 148.606 111.203 M 149.227 112.241 C 149.377 112.594 149.469 112.983 149.45 113.422 M 149.366 113.989 M 149.164 114.593 C 149.019 114.942 148.825 115.305 148.601 115.664 M 147.902 116.654 C 147.641 116.985 147.367 117.293 147.1 117.561 M 146.735 117.905 M 146.173 118.34 C 145.783 118.601 145.425 118.755 145.082 118.858 M 144.092 119.071 M 143.897 119.106 C 143.499 119.179 143.1 119.259 142.709 119.344 M 141.709 119.575 M 141.528 119.621 C 141.142 119.718 140.769 119.818 140.354 119.918 M 139.309 120.148 M 139.17 120.174 C 138.802 120.244 138.397 120.313 137.975 120.382 M 136.779 120.574 C 136.494 120.62 136.21 120.665 135.934 120.712 C 135.816 120.731 135.699 120.751 135.583 120.771 M 134.388 120.971 C 133.977 121.035 133.579 121.09 133.186 121.126 M 132.819 121.154 M 131.976 121.177 C 131.598 121.175 131.203 121.162 130.764 121.146 M 129.553 121.103 C 129.502 121.101 129.451 121.1 129.4 121.099 C 129.068 121.089 128.711 121.082 128.341 121.078 M 127.128 121.082 C 126.72 121.089 126.312 121.103 125.916 121.126 M 124.71 121.235 C 124.654 121.242 124.598 121.25 124.543 121.258 C 124.166 121.313 123.826 121.382 123.52 121.462 M 122.376 121.859 C 122.094 121.985 121.86 122.114 121.666 122.234 C 121.537 122.313 121.426 122.389 121.327 122.46 M 120.606 123.037 M 120.359 123.185 C 120.156 123.287 119.918 123.372 119.596 123.497 C 119.485 123.539 119.365 123.587 119.235 123.636 M 118.084 124.01 C 117.991 124.033 117.896 124.054 117.8 124.074 C 117.515 124.13 117.218 124.168 116.888 124.2 M 115.679 124.306 C 115.512 124.321 115.336 124.337 115.149 124.357 C 114.936 124.379 114.708 124.404 114.474 124.433 M 113.272 124.594 C 112.859 124.656 112.452 124.723 112.078 124.795 M 111.363 124.946 M 110.899 125.069 C 110.413 125.211 110.072 125.36 109.773 125.515 M 109.358 125.742 M 108.716 126.107 C 108.423 126.277 108.137 126.45 107.879 126.626 C 107.815 126.669 107.753 126.713 107.693 126.757 M 106.753 127.52 C 106.729 127.54 106.706 127.561 106.683 127.581 C 106.393 127.835 106.088 128.103 105.832 128.308 M 105.591 128.49 M 104.849 129.016 C 104.818 129.045 104.785 129.075 104.75 129.108 C 104.545 129.305 104.279 129.593 104.014 129.892 M 103.364 130.647 M 103.225 130.814 C 102.92 131.183 102.744 131.402 102.485 131.625 C 102.457 131.649 102.428 131.673 102.399 131.697 M 101.437 132.421 M 101.431 132.426 C 101.121 132.679 100.856 132.951 100.517 133.222 M 100.402 133.311 M 99.5182 133.907 C 99.3166 134.037 99.0985 134.178 98.863 134.338 C 98.7492 134.415 98.6314 134.496 98.5111 134.58 M 97.5159 135.271 C 97.287 135.426 97.0642 135.572 96.8579 135.697 C 96.7279 135.775 96.6045 135.845 96.4849 135.91 M 95.4029 136.454 C 95.324 136.495 95.243 136.538 95.1593 136.583 C 94.907 136.72 94.6295 136.883 94.348 137.052 M 93.3106 137.678 C 93.26 137.708 93.2103 137.737 93.1616 137.766 C 92.8158 137.967 92.5207 138.126 92.256 138.274 M 91.6926 138.608 M 91.2341 138.923 C 90.9667 139.108 90.6582 139.31 90.2103 139.527 C 90.2033 139.53 90.1963 139.534 90.1892 139.537 M 89.0771 140.019 C 88.6999 140.173 88.3113 140.329 87.9573 140.481 M 87.6318 140.626 M 86.8683 141.009 C 86.4975 141.211 86.1732 141.408 85.8135 141.609 M 85.7137 141.664 M 84.7403 142.171 C 84.3917 142.349 84.0482 142.527 83.75 142.7 C 83.7238 142.715 83.698 142.73 83.6725 142.745 M 82.6281 143.357 C 82.3908 143.48 82.1145 143.607 81.7664 143.742 C 81.6864 143.773 81.6026 143.804 81.5157 143.836 M 80.3668 144.225 C 79.9816 144.348 79.5855 144.47 79.2104 144.587 M 78.1961 144.908 M 78.0561 144.955 C 77.5979 145.109 77.2606 145.238 76.9146 145.36 M 75.7601 145.723 M 75.7572 145.724 C 75.4224 145.815 75.0237 145.912 74.5809 146.014 M 73.3966 146.273 C 73.0139 146.354 72.6151 146.435 72.2089 146.515 M 71.5402 146.645 M 71.0195 146.744 C 70.6206 146.818 70.2211 146.89 69.8255 146.957 M 68.6288 147.144 C 68.2165 147.201 67.8138 147.25 67.4263 147.287 M 66.8356 147.334 M 66.2167 147.36 C 65.7945 147.37 65.3936 147.363 65.0043 147.344 M 63.7953 147.251 C 63.5576 147.227 63.3205 147.201 63.0814 147.174 C 62.9195 147.155 62.7566 147.137 62.5919 147.117 M 61.3909 146.951 C 61.0154 146.891 60.6212 146.82 60.1993 146.73 M 59.0206 146.447 C 58.9937 146.44 58.9666 146.433 58.9394 146.426 C 58.5952 146.333 58.2324 146.229 57.8541 146.118 M 56.6906 145.777 C 56.3113 145.668 55.9211 145.558 55.5223 145.454 M 54.3447 145.168 C 53.9533 145.082 53.5565 145.004 53.1562 144.939 M 52.8494 144.892 M 51.9545 144.785 C 51.5475 144.746 51.1423 144.719 50.745 144.703 M 49.5338 144.686 C 49.1077 144.69 48.7005 144.706 48.3217 144.729 M 47.1151 144.841 C 47.0478 144.849 46.9826 144.858 46.9194 144.867 C 46.5104 144.925 46.1892 144.991 45.9257 145.063 M 44.8126 145.534 C 44.7568 145.566 44.7009 145.597 44.6433 145.628 C 44.37 145.778 44.0598 145.93 43.739 146.095 M 42.8395 146.6 M 42.6881 146.698 C 42.3442 146.926 42.0168 147.177 41.7022 147.405 M 41.1401 147.787 M 40.672 148.039 C 40.3296 148.2 39.9721 148.322 39.5361 148.461 M 39.4267 148.495 M 38.3766 148.809 C 37.9943 148.914 37.593 149.012 37.1967 149.084 M 36.9932 149.119 M 35.9945 149.227 C 35.5631 149.256 35.1546 149.266 34.7831 149.282 M 34.6624 149.287 M 33.5726 149.352 C 33.2546 149.367 32.8981 149.375 32.4493 149.365 C 32.4201 149.365 32.3905 149.364 32.3606 149.363 M 31.1489 149.315 C 30.7288 149.297 30.3077 149.279 29.938 149.275 M 29.2452 149.289 M 28.7357 149.378 C 28.4539 149.474 28.4121 149.628 28.3703 149.781" id="path5"/><path style="fill:#0000ff;fill-opacity:0;stroke:#0000ff;stroke-width:0.606;stroke-opacity:1;stroke-dashoffset:0" d="M 125.736 90.1745 C 125.447 90.4362 125.158 90.6979 124.803 90.9462 M 124.685 91.0263 M 123.777 91.5912 C 123.643 91.6807 123.515 91.7744 123.4 91.8747 C 123.208 92.041 123.051 92.2257 122.902 92.4208 M 122.475 92.9933 M 122.162 93.3801 C 121.932 93.6572 121.692 93.9354 121.492 94.2071 C 121.463 94.2472 121.434 94.2871 121.406 94.3273 M 120.727 95.331 C 120.635 95.4602 120.531 95.6022 120.411 95.7606 C 120.288 95.9239 120.147 96.1045 119.994 96.2952 M 119.215 97.2232 C 118.945 97.5293 118.664 97.8327 118.387 98.109 M 118.014 98.465 M 117.482 98.9149 C 117.129 99.1908 116.795 99.4081 116.48 99.5954 M 115.76 100 M 115.422 100.186 C 115.076 100.375 114.737 100.554 114.34 100.731 M 113.659 101.009 M 113.211 101.169 C 112.849 101.291 112.456 101.414 112.056 101.538 M 110.899 101.897 C 110.799 101.929 110.701 101.96 110.604 101.992 C 110.308 102.089 110.027 102.187 109.75 102.283 M 108.602 102.674 C 108.309 102.769 108.003 102.863 107.672 102.953 C 107.596 102.974 107.519 102.995 107.44 103.015 M 106.263 103.302 C 105.885 103.39 105.489 103.479 105.082 103.572 M 103.901 103.851 C 103.849 103.863 103.796 103.876 103.743 103.89 C 103.406 103.973 103.066 104.061 102.727 104.151 M 101.556 104.466 C 101.154 104.575 100.761 104.682 100.386 104.783 M 99.5578 104.999 M 99.2133 105.084 C 98.7888 105.187 98.3996 105.275 98.0314 105.352 M 96.8421 105.588 C 96.7223 105.61 96.6031 105.633 96.4838 105.655" id="path6"/><path style="fill:#0000ff;fill-opacity:0;stroke:#0000ff;stroke-width:0.606;stroke-opacity:1;stroke-dashoffset:0" d="M 132.382 94.3902 C 132.025 94.5839 131.667 94.7776 131.316 94.9684 M 130.253 95.5473 C 129.881 95.7505 129.524 95.9464 129.19 96.1312 M 128.133 96.7234 C 127.979 96.8108 127.837 96.893 127.706 96.9695 C 127.462 97.112 127.261 97.2342 127.091 97.3429 M 126.174 98.1255 C 126.15 98.1576 126.126 98.1905 126.102 98.2247 C 125.926 98.4735 125.744 98.7859 125.569 99.1713 M 125.247 100.001 M 125.151 100.309 C 125.038 100.686 124.935 101.092 124.84 101.48 M 124.597 102.488 M 124.554 102.658 C 124.45 103.063 124.356 103.377 124.214 103.821 M 123.982 104.542 M 123.841 104.974 C 123.726 105.321 123.589 105.711 123.423 106.111 M 122.893 107.199 C 122.695 107.541 122.47 107.867 122.212 108.157 C 122.205 108.166 122.197 108.175 122.189 108.184 M 121.28 108.984 C 120.949 109.222 120.6 109.431 120.251 109.624 M 119.179 110.189 C 119.044 110.26 118.912 110.33 118.785 110.401 C 118.551 110.531 118.333 110.662 118.129 110.793 M 117.15 111.505 C 116.874 111.733 116.633 111.958 116.42 112.176 C 116.368 112.229 116.317 112.282 116.268 112.335 M 115.501 113.272 C 115.385 113.433 115.278 113.59 115.176 113.743 C 115.052 113.929 114.936 114.109 114.823 114.277 M 114.299 114.961 M 114.04 115.195 C 113.828 115.361 113.604 115.486 113.357 115.638 C 113.25 115.705 113.138 115.776 113.02 115.849 M 112.086 116.317 M 111.929 116.37 C 111.58 116.481 111.18 116.564 110.75 116.641 M 110.185 116.74 M 109.555 116.848 C 109.166 116.916 108.766 116.987 108.362 117.058 M 107.933 117.134" id="path7"/><path style="fill:#0000ff;fill-opacity:0;stroke:#0000ff;stroke-width:0.606;stroke-opacity:1;stroke-dashoffset:0" d="M 126.049 83.7914 C 125.656 83.7847 125.264 83.7781 124.837 83.7897 M 123.628 83.8729 C 123.306 83.9088 122.959 83.9582 122.578 84.0258 C 122.529 84.0344 122.48 84.0433 122.43 84.0525 M 121.244 84.3011 C 120.855 84.3905 120.457 84.4887 120.067 84.5903 M 118.899 84.9104 C 118.491 85.0279 118.114 85.1429 117.792 85.2479 C 117.774 85.2536 117.757 85.2592 117.74 85.2649 M 116.605 85.6899 C 116.203 85.8712 115.97 86.0298 115.767 86.204 C 115.709 86.2535 115.654 86.3043 115.6 86.3559 M 114.896 87.1585 M 114.803 87.2675 C 114.574 87.5341 114.341 87.7939 114.055 88.2157 L 114.053 88.2186 M 113.418 89.2517 C 113.286 89.4803 113.16 89.7059 113.05 89.9076 C 112.97 90.0539 112.898 90.1875 112.83 90.3111 M 112.317 91.1157 M 112.147 91.3058 C 111.915 91.5489 111.647 91.7732 111.405 92.0122 C 111.361 92.0561 111.317 92.1005 111.274 92.1454 M 110.368 92.9481 C 110.357 92.9559 110.345 92.9638 110.333 92.9716 C 110.046 93.1622 109.68 93.357 109.313 93.5418 M 108.505 93.9427 M 108.229 94.0832 C 107.881 94.2616 107.573 94.4235 107.14 94.6166 M 106.796 94.7654 M 106.02 95.0785 C 105.657 95.2216 105.268 95.373 104.893 95.524 M 104.076 95.8666 M 103.779 96.0016 C 103.375 96.1901 103.036 96.3679 102.695 96.5421 M 101.985 96.8899 M 101.599 97.0621 C 101.25 97.213 100.872 97.3671 100.48 97.5301 M 99.5012 97.952 M 99.3688 98.0123 C 99.0118 98.176 98.6522 98.3494 98.2704 98.5225 M 97.1523 98.9894 C 96.9572 99.0625 96.7542 99.1338 96.5415 99.2023 C 96.367 99.2586 96.186 99.313 96.0004 99.3658 M 94.8272 99.6681 C 94.4324 99.7617 94.0334 99.8501 93.645 99.9346 M 92.6473 100.151 M 92.4601 100.192 C 92.0481 100.284 91.6638 100.372 91.278 100.461 M 90.0966 100.729 C 89.7819 100.799 89.4498 100.871 89.0878 100.946 C 89.0294 100.959 88.9702 100.971 88.9103 100.983 M 87.7239 101.227 C 87.3277 101.309 86.9264 101.395 86.5401 101.482 M 85.3637 101.776 C 85.1544 101.835 84.9598 101.895 84.785 101.956 C 84.5696 102.03 84.3842 102.106 84.223 102.182 M 83.2451 102.886 C 83.1814 102.954 83.1226 103.021 83.0641 103.087 C 82.8435 103.333 82.6264 103.556 82.4336 103.785 M 82.1958 104.092 M 81.7801 104.802 C 81.7174 104.921 81.6559 105.037 81.5926 105.147 C 81.4536 105.389 81.3053 105.604 81.1063 105.804 M 80.8659 106.016 M 80.1134 106.492 C 79.9565 106.578 79.7939 106.664 79.6314 106.749" id="path8"/><path style="fill:#0000ff;fill-opacity:0;stroke:#0000ff;stroke-width:0.606;stroke-opacity:1;stroke-dashoffset:0" d="M 122.18 121.877 C 121.777 121.827 121.374 121.776 120.979 121.727 M 119.775 121.579 C 119.346 121.527 118.94 121.48 118.571 121.438 M 117.967 121.373 M 117.365 121.315 C 116.896 121.271 116.527 121.235 116.162 121.17 M 115.588 121.04 M 114.994 120.852 C 114.619 120.72 114.229 120.565 113.865 120.415 M 113.276 120.17 M 112.747 119.947 C 112.423 119.806 112.1 119.653 111.659 119.41 M 111.112 119.096 M 110.614 118.796 C 110.295 118.601 109.944 118.385 109.582 118.161 M 108.548 117.531 C 108.186 117.313 107.831 117.105 107.501 116.921 M 107.28 116.799 M 106.424 116.364 C 105.987 116.157 105.622 116.008 105.311 115.882 M 104.768 115.656 M 104.215 115.372 C 103.954 115.217 103.747 115.058 103.552 114.887 C 103.458 114.805 103.367 114.72 103.257 114.631 M 102.209 114.031 C 102.11 113.989 102.002 113.946 101.886 113.902 C 101.647 113.811 101.37 113.716 101.07 113.618 M 99.9149 113.253 C 99.5219 113.131 99.1269 113.009 98.7595 112.889 M 97.8778 112.583 M 97.6182 112.48 C 97.1127 112.271 96.7919 112.077 96.592 111.853 M 96.3143 111.251 M 96.2973 110.714 C 96.327 110.352 96.4326 109.948 96.6167 109.55 M 96.8487 109.122 M 97.2773 108.539 C 97.5524 108.208 97.8511 107.905 98.0943 107.643 M 98.4007 107.291 M 98.658 106.614 C 98.6412 106.529 98.601 106.455 98.5481 106.386 C 98.3907 106.179 98.1206 106.017 97.8058 105.809 L 97.7965 105.803 M 96.709 105.289 C 96.6647 105.28 96.6191 105.272 96.572 105.265 C 96.2689 105.22 95.9071 105.225 95.5013 105.264 M 94.3871 105.425 M 94.303 105.441 C 93.9249 105.51 93.527 105.592 93.1148 105.683 M 91.9349 105.959 C 91.8013 105.992 91.6669 106.025 91.5319 106.059 C 91.2778 106.123 91.0213 106.189 90.7595 106.253 M 89.5768 106.517 C 89.1963 106.59 88.7994 106.652 88.3792 106.697 M 88.1977 106.715 M 87.1698 106.773 C 86.7771 106.784 86.3713 106.784 85.9573 106.776 M 84.7462 106.733 C 84.4887 106.721 84.23 106.707 83.9712 106.692 C 83.8257 106.684 83.6802 106.675 83.5351 106.667 M 82.3244 106.598 C 81.9014 106.578 81.4939 106.565 81.1144 106.566 M 79.9858 106.634 M 79.9063 106.646 C 79.4431 106.719 79.0798 106.851 78.7719 107.046 M 77.923 107.899 C 77.9179 107.907 77.9128 107.914 77.9078 107.921 C 77.6977 108.222 77.4931 108.578 77.3063 108.942 M 76.7967 110.042 C 76.7406 110.176 76.6897 110.303 76.645 110.419 C 76.5198 110.745 76.4425 110.987 76.3835 111.181 M 76.2108 111.699 M 75.8707 112.27 C 75.8126 112.356 75.7509 112.447 75.6864 112.549 C 75.5471 112.768 75.395 113.032 75.2249 113.296 M 74.915 113.738 M 74.4764 114.246 C 74.2937 114.446 74.1052 114.652 73.9223 114.894 C 73.8522 114.987 73.7829 115.085 73.715 115.186 M 73.0996 116.229 C 73.0777 116.27 73.0564 116.311 73.0358 116.35 C 72.8338 116.735 72.6927 117.031 72.5097 117.288 M 72.4177 117.409 M 71.652 118.141 C 71.6228 118.167 71.5935 118.193 71.5643 118.22 C 71.3269 118.438 71.0882 118.682 70.7604 118.961 M 70.42 119.236 M 69.7905 119.688 C 69.4569 119.918 69.1033 120.152 68.7881 120.368 M 68.6295 120.478 M 67.8102 121.084 C 67.6302 121.225 67.4633 121.36 67.2963 121.495" id="path12"/><path style="fill:#0000ff;fill-opacity:0;stroke:#0000ff;stroke-width:0.606;stroke-opacity:1;stroke-dashoffset:0" d="M 107.614 117.677 C 107.227 117.87 106.839 118.064 106.619 118.349 M 106.475 118.615 M 106.5 119.513 C 106.56 119.785 106.651 120.08 106.741 120.388 C 106.769 120.483 106.797 120.58 106.824 120.68 M 107.002 121.876 C 107.007 122.222 106.972 122.615 106.877 123.079 M 106.862 123.147 M 106.559 124.249 C 106.44 124.625 106.303 125.013 106.164 125.394 M 105.732 126.526 C 105.608 126.844 105.492 127.137 105.395 127.387 C 105.358 127.483 105.324 127.572 105.293 127.656 M 104.909 128.805 C 104.885 128.901 104.868 128.981 104.85 129.061" id="path14"/><path style="fill:#0000ff;fill-opacity:0;stroke:#0000ff;stroke-width:0.606;stroke-opacity:1;stroke-dashoffset:0" d="M 106.55 118.676 C 106.154 118.771 105.757 118.865 105.36 118.892 M 105.071 118.898 M 104.158 118.766 C 103.937 118.719 103.703 118.665 103.447 118.614 C 103.295 118.583 103.136 118.554 102.97 118.527 M 101.767 118.385 C 101.593 118.373 101.416 118.365 101.237 118.362 C 101.013 118.357 100.786 118.36 100.556 118.369 M 99.3464 118.457 C 99.1326 118.478 98.9165 118.502 98.6981 118.528 C 98.5151 118.55 98.3304 118.573 98.1441 118.597 M 96.9471 118.788 C 96.6108 118.852 96.2687 118.928 95.9199 119.02 C 95.8686 119.033 95.8172 119.047 95.7657 119.061 M 94.6092 119.42 C 94.2033 119.558 93.8148 119.701 93.4689 119.832 M 93.1749 119.943 M 92.3412 120.275 C 92.0348 120.406 91.792 120.526 91.5807 120.661 C 91.4771 120.727 91.381 120.797 91.2883 120.869 M 90.5574 121.467 M 90.3421 121.623 C 90.0304 121.841 89.6775 122.066 89.3567 122.33 M 89.2972 122.38 M 88.499 123.184 C 88.41 123.283 88.3256 123.377 88.2457 123.462 C 88.0367 123.686 87.8587 123.853 87.6531 124.052 M 87.3981 124.304 M 86.8027 124.915 C 86.6299 125.089 86.4567 125.256 86.2994 125.389 C 86.155 125.511 86.0239 125.604 85.878 125.693 M 85.0989 126.11 M 84.8072 126.26 C 84.4967 126.421 84.1267 126.608 83.7173 126.79 M 82.6165 127.221 M 82.5885 127.231 C 82.2153 127.353 81.8274 127.457 81.4198 127.55 M 80.2328 127.793 C 79.9009 127.856 79.5557 127.918 79.1953 127.985 C 79.1442 127.994 79.0927 128.003 79.0409 128.013 M 77.8494 128.237 C 77.4548 128.312 77.0548 128.39 76.6587 128.468 M 75.4698 128.704 C 75.3344 128.732 75.2007 128.759 75.0691 128.786 C 74.7976 128.841 74.5351 128.896 74.283 128.948 M 73.0982 129.202 C 72.6498 129.3 72.2594 129.389 71.9412 129.463 C 71.9328 129.465 71.9243 129.467 71.9159 129.469 M 70.7352 129.739 C 70.5943 129.766 70.4485 129.789 70.2841 129.81 C 70.0654 129.838 69.8138 129.862 69.5314 129.883 M 68.3215 129.945 C 68.1764 129.95 68.0265 129.954 67.8722 129.958 C 67.6266 129.964 67.3697 129.969 67.1104 129.973 M 65.8984 129.98 C 65.5241 129.98 65.1788 129.976 64.8959 129.968 C 64.8219 129.966 64.7521 129.964 64.6864 129.962 M 63.697 129.862 M 63.6622 129.733" id="path15"/><path style="fill:#0000ff;fill-opacity:0;stroke:#0000ff;stroke-width:0.606;stroke-opacity:1;stroke-dashoffset:0" d="M 101.972 132.118 C 101.631 132.152 101.291 132.186 100.764 132.209 M 99.6642 132.237 M 99.5512 132.238 C 99.1956 132.241 98.7869 132.242 98.3391 132.242 M 97.1272 132.242 C 96.7375 132.243 96.3314 132.245 95.9153 132.249 M 94.7043 132.267 C 94.6199 132.268 94.5355 132.27 94.4509 132.272 C 94.1332 132.28 93.8141 132.289 93.4933 132.301 M 92.2825 132.354 C 91.8822 132.375 91.4791 132.399 91.0732 132.427 M 89.8648 132.522 C 89.4657 132.557 89.0635 132.596 88.6583 132.64 M 88.1994 132.691 M 87.4536 132.78 C 87.0513 132.831 86.6493 132.884 86.2529 132.94 M 85.0527 133.114 C 84.6377 133.176 84.2361 133.239 83.8552 133.299 M 82.6581 133.489 C 82.5309 133.509 82.408 133.529 82.29 133.547 C 81.9831 133.596 81.7086 133.639 81.4601 133.678 M 80.2633 133.867 C 79.9328 133.922 79.6518 133.974 79.3743 134.034 C 79.2742 134.055 79.1746 134.078 79.0749 134.101 M 77.9099 134.433 C 77.6682 134.512 77.4157 134.6 77.1463 134.7 C 77.0239 134.745 76.898 134.793 76.7691 134.841 M 75.6288 135.251 C 75.2452 135.374 74.8503 135.482 74.4542 135.549 M 74.2737 135.577 M 73.246 135.631 C 72.8247 135.62 72.4177 135.573 72.0424 135.508 M 71.4673 135.392 M 70.8627 135.235 C 70.4019 135.102 70.0303 134.967 69.7073 134.867 M 69.6569 134.851 M 68.5207 134.635 C 68.3573 134.618 68.1718 134.602 67.955 134.586 C 67.7621 134.572 67.5443 134.558 67.3107 134.546 M 66.1004 134.517 C 65.6897 134.52 65.2749 134.539 64.8902 134.582 M 64.6308 134.616 M 63.7054 134.827 C 63.2945 134.954 62.9297 135.112 62.5813 135.276 M 62.0747 135.519 M 61.4869 135.8 C 61.1054 135.982 60.7374 136.159 60.4046 136.342 M 60.0281 136.561 M 59.3918 137.006 C 59.1196 137.217 58.8851 137.418 58.6635 137.584 C 58.5862 137.642 58.5104 137.696 58.4334 137.748 M 57.4102 138.397 C 57.3804 138.416 57.3499 138.436 57.3187 138.456 C 57.0513 138.631 56.7316 138.846 56.401 139.067 M 55.3823 139.725 C 55.2863 139.784 55.1934 139.84 55.1048 139.891 C 54.8066 140.063 54.5575 140.186 54.3143 140.296 M 53.3507 140.72 M 53.2067 140.788 C 52.8732 140.946 52.4924 141.138 52.1195 141.323 M 51.1418 141.791 M 51.0236 141.842 C 50.5966 142.026 50.2779 142.13 49.9024 142.3 M 49.4788 142.508 M 48.838 142.877 C 48.4951 143.085 48.1349 143.315 47.8118 143.521 M 47.3958 143.784 M 46.7816 144.161 C 46.5609 144.297 46.4063 144.4 46.283 144.516 C 46.128 144.661 46.0226 144.827 45.9311 144.998 M 45.8298 145.198" id="path16"/><path style="fill:#0000ff;fill-opacity:0;stroke:#0000ff;stroke-width:0.606;stroke-opacity:1;stroke-dashoffset:0" d="M 92.8841 137.885 C 92.4814 137.89 92.0787 137.895 91.7887 137.864 C 91.7485 137.86 91.7104 137.855 91.6738 137.849 M 90.9982 137.697 M 90.4867 137.611 C 90.1975 137.576 89.8148 137.551 89.2768 137.549 M 89.2624 137.549 M 88.065 137.573 C 87.6639 137.588 87.2475 137.608 86.8538 137.632 M 85.9399 137.697 M 85.6451 137.724 C 85.1897 137.768 84.8325 137.817 84.4442 137.882 M 83.5246 138.045 M 83.2513 138.094 C 82.8915 138.16 82.4844 138.235 82.0595 138.32 M 80.8755 138.574 C 80.5782 138.644 80.2854 138.717 80.0065 138.795 C 79.9038 138.824 79.8031 138.853 79.704 138.883 M 78.5529 139.263 C 78.164 139.401 77.7899 139.54 77.4123 139.67 M 76.9309 139.831 M 76.2556 140.032 C 75.8742 140.138 75.4826 140.236 75.0807 140.329 M 73.8959 140.584 C 73.8391 140.595 73.7822 140.607 73.7251 140.618 C 73.3932 140.685 73.055 140.751 72.7038 140.81 M 71.5034 140.973 C 71.1221 141.011 70.7211 141.037 70.294 141.045 M 69.8002 141.046 M 69.0827 141.023 C 68.6926 141.003 68.2875 140.972 67.874 140.933 M 66.6691 140.805 C 66.2679 140.757 65.8651 140.706 65.4662 140.654 M 64.5703 140.536 M 64.2648 140.496 C 63.8519 140.441 63.4497 140.388 63.0629 140.336 M 61.8617 140.173 C 61.4269 140.112 61.0242 140.054 60.6628 139.998 M 60.1723 139.92 M 59.4694 139.792 C 58.9671 139.692 58.6064 139.598 58.2915 139.503 M 58.047 139.427 M 57.1308 139.162 C 56.9315 139.124 56.7188 139.103 56.4794 139.108 C 56.3089 139.111 56.1249 139.129 55.9234 139.155 M 54.7255 139.34 C 54.4617 139.381 54.1753 139.422 53.8628 139.46 C 53.7531 139.473 53.6402 139.486 53.5247 139.498 M 52.316 139.596 C 51.9078 139.619 51.4964 139.633 51.1052 139.634 M 50.0389 139.597 M 49.8955 139.584 C 49.4116 139.535 49.026 139.45 48.7079 139.351 M 47.888 139.013 M 47.6005 138.863 C 47.3449 138.727 47.0618 138.571 46.5243 138.305 M 45.9347 138.02 M 45.4313 137.783 C 45.0995 137.629 44.7261 137.459 44.3264 137.285 M 43.2096 136.814 C 42.8385 136.664 42.4581 136.517 42.0777 136.379 M 40.9291 135.995 C 40.8599 135.974 40.7911 135.953 40.7227 135.933 C 40.3918 135.838 40.0703 135.755 39.7565 135.685 M 38.5648 135.461 C 38.1549 135.399 37.7556 135.352 37.3625 135.314 M 36.1552 135.219 C 36.0222 135.21 35.8893 135.201 35.7565 135.192" id="path17" sodipodi:nodetypes="cccccccccccccccccccc"/><path style="fill:#0000ff;fill-opacity:0;stroke:#0000ff;stroke-width:0.606;stroke-opacity:1;stroke-dashoffset:0" d="M 79.2497 106.707 C 78.8458 106.659 78.4418 106.611 78.046 106.565 M 76.8408 106.429 C 76.4126 106.382 76.0068 106.34 75.636 106.306 M 74.4276 106.22 C 74.419 106.22 74.4104 106.22 74.4019 106.219 C 73.7943 106.198 73.4681 106.238 73.2411 106.377 M 72.8303 106.858 M 72.5537 107.359 C 72.3805 107.683 72.1826 108.055 71.9569 108.415 M 71.5574 108.988 M 71.2207 109.375 C 70.9241 109.683 70.6048 109.941 70.2917 110.148 M 69.7363 110.47 M 69.2129 110.693 C 68.8318 110.827 68.4675 110.896 68.057 110.963 C 68.0489 110.964 68.0408 110.966 68.0327 110.967 M 66.8299 111.113 C 66.5442 111.132 66.2365 111.142 65.9016 111.135 C 65.8094 111.133 65.7152 111.13 65.6194 111.126 M 64.4129 111.024 C 64.0079 110.976 63.6006 110.913 63.214 110.841 M 63.0511 110.81 M 62.0304 110.582 C 61.6387 110.486 61.2554 110.385 60.8549 110.287 M 60.4543 110.192 M 59.6714 110.027 C 59.2922 109.953 58.8939 109.887 58.4755 109.831 M 57.3826 109.714 M 57.2705 109.705 C 56.8798 109.676 56.4744 109.657 56.0607 109.643 M 54.8485 109.615 C 54.4602 109.608 54.0703 109.604 53.6837 109.597 C 53.6678 109.597 53.6519 109.596 53.636 109.596 M 52.4238 109.571 C 52.0163 109.561 51.6125 109.55 51.2124 109.54 M 50.0252 109.51 M 50.0009 109.51 C 49.5909 109.5 49.1848 109.492 48.7899 109.478 M 47.5795 109.406 C 47.2846 109.378 47.0021 109.341 46.7358 109.291 C 46.6153 109.269 46.4982 109.244 46.384 109.217 M 45.2272 108.86 C 44.909 108.744 44.6049 108.625 44.3008 108.518 C 44.2296 108.493 44.1585 108.469 44.0874 108.446 M 42.9268 108.098 C 42.6445 108.019 42.3633 107.942 42.084 107.86 C 41.9766 107.828 41.8695 107.796 41.7616 107.764 M 40.5956 107.432 C 40.2889 107.355 39.9551 107.28 39.578 107.213 C 39.5227 107.203 39.4666 107.193 39.4096 107.184 M 38.2108 107.014 C 37.8 106.963 37.3876 106.918 37.0067 106.879 M 36.208 106.797 M 35.8003 106.754 C 35.2426 106.693 34.9006 106.641 34.6093 106.545 M 34.4741 106.496 M 33.5605 105.948 C 33.4957 105.9 33.43 105.851 33.3629 105.8 C 33.113 105.611 32.8435 105.404 32.5991 105.209 M 32.2296 104.903 M 31.6478 104.461 C 31.5339 104.403 31.403 104.357 31.2388 104.324 C 31.0183 104.28 30.7379 104.259 30.4639 104.284 M 29.631 104.597 M 29.4569 104.847 C 29.3035 105.173 29.2943 105.618 29.26 106.036 M 29.2421 106.223 M 28.9694 107.205 C 28.8621 107.428 28.7173 107.657 28.5212 107.91 C 28.4486 108.003 28.3689 108.1 28.284 108.199 M 27.4579 109.085 C 27.1819 109.365 26.9054 109.637 26.6657 109.878 C 26.6437 109.9 26.6219 109.921 26.6005 109.943 M 25.7668 110.821 C 25.5789 111.03 25.3859 111.253 25.1614 111.519 C 25.1017 111.59 25.0398 111.663 24.9763 111.74 M 24.2473 112.708 C 24.0327 113.032 23.8304 113.386 23.6662 113.769 M 23.4803 114.27 M 23.3177 114.928 C 23.2423 115.328 23.2026 115.738 23.186 116.131 M 23.1985 117.343 C 23.2053 117.46 23.2133 117.57 23.2218 117.673 C 23.2528 118.048 23.291 118.326 23.3337 118.547 M 23.5182 119.219 M 23.673 119.709 C 23.7213 119.902 23.7564 120.121 23.7629 120.403 C 23.7665 120.558 23.7615 120.732 23.7497 120.914 M 23.5889 122.114 C 23.58 122.156 23.5708 122.198 23.5615 122.238 C 23.4621 122.664 23.3434 122.921 23.2047 123.261 M 23.1094 123.502 M 22.8004 124.403 C 22.705 124.7 22.6066 125.017 22.5081 125.335" id="path18"/><path style="fill:#0000ff;fill-opacity:0;stroke:#0000ff;stroke-width:0.606;stroke-opacity:1;stroke-dashoffset:0" d="M 67.3974 121.006 C 67.276 121.228 67.1545 121.451 66.6507 121.843 C 66.63 121.859 66.6087 121.876 66.5868 121.892 M 65.5868 122.576 C 65.2539 122.788 64.9134 122.991 64.6245 123.151 C 64.5978 123.166 64.5715 123.181 64.5456 123.195 M 63.44 123.69 C 63.3407 123.723 63.2411 123.754 63.1376 123.784 C 62.8717 123.862 62.5799 123.938 62.2735 124.017 M 61.5666 124.202 M 61.1028 124.331 C 60.7331 124.435 60.349 124.546 59.9355 124.657 M 59.7629 124.703 M 58.7632 124.958 C 58.4175 125.044 58.0809 125.128 57.7836 125.208 C 57.7168 125.225 57.652 125.243 57.589 125.26 M 56.4342 125.628 C 56.4013 125.64 56.3685 125.652 56.3357 125.665 C 56.0192 125.785 55.7039 125.921 55.3049 126.067 M 54.8375 126.23 M 54.1514 126.443 C 53.7678 126.558 53.3626 126.676 52.9928 126.797 M 52.685 126.901 M 51.861 127.226 C 51.5681 127.352 51.2926 127.476 50.9913 127.596 C 50.9102 127.629 50.8273 127.661 50.7429 127.693 M 49.6005 128.1 C 49.4592 128.15 49.319 128.201 49.1816 128.252 C 48.945 128.34 48.7166 128.43 48.465 128.525 M 47.3185 128.918 C 47.2287 128.945 47.135 128.973 47.037 129.002 C 46.7683 129.081 46.4668 129.163 46.1529 129.247 M 44.9799 129.555 C 44.5496 129.669 44.1429 129.778 43.8125 129.875 M 43.7235 129.901 M 42.6777 130.297 C 42.5098 130.381 42.3695 130.466 42.206 130.562 C 42.0316 130.664 41.8308 130.778 41.6253 130.897 M 40.855 131.362 M 40.5955 131.535 C 40.3071 131.735 40.0721 131.915 39.8215 132.075 C 39.7458 132.123 39.6686 132.17 39.5913 132.215 M 38.8715 132.644 M 38.576 132.872 C 38.4218 133.001 38.2758 133.137 38.1091 133.274 C 37.9644 133.393 37.804 133.512 37.6374 133.638 M 37.206 133.976 M 36.7071 134.416 C 36.5686 134.542 36.4344 134.666 36.3066 134.779 C 36.1583 134.909 36.0187 135.024 35.7987 135.218 M 34.9845 135.959 M 34.9044 136.034 C 34.6493 136.273 34.3457 136.561 34.0234 136.866 M 33.1432 137.698 C 32.8324 137.991 32.5284 138.274 32.2555 138.523 M 31.9728 138.779 M 31.3424 139.323 C 30.9022 139.685 30.6353 139.862 30.3707 140.044 M 30.3597 140.052 M 29.3694 140.727 C 29.3472 140.74 29.3254 140.753 29.304 140.766 C 29.0003 140.943 28.7656 141.022 28.3151 141.323 M 28.3071 141.328 M 27.3794 142.092 C 27.1581 142.322 26.9507 142.586 26.7931 142.883 C 26.7584 142.948 26.7261 143.015 26.696 143.083 M 26.3563 144.244 C 26.2907 144.574 26.2417 144.893 26.1841 145.167 C 26.1644 145.261 26.1438 145.349 26.1218 145.433 M 25.605 146.522 C 25.5625 146.578 25.5171 146.635 25.4686 146.693 C 25.2737 146.925 25.0279 147.173 24.7782 147.404 M 24.0593 148.012 M 23.8416 148.172 C 23.5465 148.38 23.3462 148.487 23.1484 148.655 C 23.0606 148.73 22.9733 148.817 22.8856 148.91 M 22.4107 149.433 M 22.0628 149.801 C 21.9193 149.962 21.778 150.145 21.6477 150.387 C 21.5764 150.52 21.5083 150.67 21.4426 150.833 M 21.0479 151.979 C 21.0362 152.016 21.0245 152.054 21.0128 152.091" id="path19"/><path style="fill:#0000ff;fill-opacity:0;stroke:#0000ff;stroke-width:0.606;stroke-opacity:1;stroke-dashoffset:0" d="M 37.1994 101.6 C 37.6074 101.577 38.0154 101.553 38.4056 101.642 M 38.9623 101.866 M 39.4395 102.245 C 39.7164 102.505 39.9957 102.815 40.3093 103.089 M 40.659 103.365 M 41.3293 103.733 C 41.7216 103.904 42.1265 104.019 42.4818 104.105 M 42.7489 104.168 M 43.6586 104.388 C 43.8693 104.451 44.0885 104.531 44.3518 104.65 C 44.4841 104.709 44.6274 104.779 44.7766 104.854 M 45.8385 105.438 C 46.0468 105.56 46.2424 105.679 46.4105 105.785 C 46.5897 105.899 46.7375 105.997 46.864 106.083 M 47.4825 106.495 M 47.9151 106.671 C 48.1117 106.729 48.3768 106.788 48.783 106.871 C 48.8806 106.891 48.9865 106.912 49.0988 106.935 M 50.2869 107.171 C 50.6839 107.251 51.0925 107.335 51.4729 107.419 M 51.8745 107.51 M 52.6511 107.705 C 53.1605 107.844 53.5402 107.972 53.8033 108.08 M 53.8863 108.115 M 54.4449 108.558 M 54.6249 108.907 C 54.6594 108.982 54.6907 109.055 54.716 109.119 C 54.7821 109.287 54.8074 109.399 54.8435 109.425 C 54.8795 109.451 54.9265 109.391 54.9734 109.331" id="path20"/><path style="fill:#0000ff;fill-opacity:0;stroke:#0000ff;stroke-width:0.606;stroke-opacity:1;stroke-dashoffset:0" d="M 47.3183 106.557 C 47.2175 106.88 47.1167 107.203 46.7106 107.586 M 46.4772 107.785 M 45.7233 108.284 C 45.3914 108.478 45.0202 108.67 44.6477 108.841 M 43.8606 109.17 M 43.5218 109.29 C 43.1343 109.417 42.7634 109.51 42.3495 109.594 M 41.1574 109.812 C 41.0814 109.825 41.0035 109.838 40.9235 109.852 C 40.6267 109.903 40.301 109.96 39.9632 110.019 M 38.769 110.226 C 38.3497 110.297 37.9412 110.365 37.5741 110.424 M 36.8279 110.536 M 36.373 110.592 C 35.7426 110.661 35.5635 110.627 35.3753 110.608 C 35.3069 110.601 35.2373 110.596 35.1645 110.591 M 34.5768 110.541 M 33.9611 110.456 C 33.7255 110.428 33.4402 110.402 33.0785 110.39 C 32.9753 110.386 32.8659 110.384 32.7516 110.384 M 31.5546 110.542 C 31.1948 110.649 30.8306 110.823 30.4895 111.105 M 30.3711 111.208 M 29.6919 112.011 C 29.4658 112.338 29.2576 112.697 29.0698 113.051 M 28.5357 114.139 C 28.4745 114.27 28.4177 114.394 28.3654 114.506 C 28.2194 114.82 28.1093 115.047 28.0238 115.238 M 27.7311 116.24 M 27.7095 116.401 C 27.6673 116.748 27.6388 117.185 27.6654 117.611 M 27.912 118.677 M 27.9671 118.774 C 28.1748 119.108 28.502 119.312 28.9435 119.443 M 30.1204 119.639 M 30.1369 119.641 C 30.5105 119.674 30.925 119.697 31.346 119.714 M 32.5576 119.753 C 32.9685 119.765 33.3513 119.777 33.6689 119.794 C 33.7031 119.795 33.7365 119.797 33.7692 119.799 M 34.9577 120.003 C 35.0636 120.052 35.1473 120.111 35.2201 120.184 C 35.4296 120.393 35.5487 120.711 35.6049 120.976 M 35.629 121.111 M 35.3921 121.944 M 35.2909 122.098 C 35.0892 122.399 34.8095 122.775 34.5748 123.075 M 34.4247 123.265 M 33.7285 123.933 C 33.7171 123.94 33.7055 123.947 33.6936 123.955 C 33.4112 124.13 32.9952 124.337 32.6897 124.557 M 32.6679 124.573 M 32.0005 125.233 M 31.8367 125.413 C 31.7221 125.539 31.6129 125.669 31.5105 125.85 C 31.4204 126.009 31.3354 126.207 31.2275 126.451 M 30.9724 127.003 M 30.6957 127.541 C 30.498 127.914 30.2854 128.301 30.128 128.611 M 30.1168 128.633 M 29.6166 129.636 M 29.5807 129.691 C 29.4238 129.924 29.2204 130.136 29.0129 130.382 C 28.947 130.46 28.8806 130.542 28.8122 130.629 M 28.2644 131.367 M 28.0997 131.609 C 27.9268 131.882 27.7674 132.226 27.7345 132.751 M 27.7702 133.528 M 27.8435 133.954 C 27.9166 134.317 28.0208 134.718 28.1388 135.13 M 28.4896 136.288 C 28.6172 136.696 28.7426 137.09 28.8493 137.446 M 28.9684 137.856 M 29.1526 138.62 C 29.27 139.214 29.2635 139.561 29.2292 139.824 M 29.2131 139.932 M 28.9672 140.747" id="path21"/><path style="fill:#0000ff;fill-opacity:0;stroke:#0000ff;stroke-width:0.606;stroke-opacity:1;stroke-dashoffset:0" d="M 32.2777 124.925 C 32.288 125.295 32.2984 125.665 32.4135 126.127 M 32.603 126.717 M 32.8351 127.261 C 32.9862 127.598 33.1579 127.971 33.3122 128.375 M 33.6572 129.534 C 33.6676 129.586 33.6773 129.638 33.6864 129.69 C 33.7454 130.029 33.7748 130.384 33.7841 130.739 M 33.7499 131.95 C 33.7173 132.393 33.6686 132.806 33.6254 133.155 M 33.6197 133.201 M 33.4633 134.356 C 33.4223 134.619 33.3817 134.841 33.3329 135.075 C 33.3012 135.227 33.2661 135.384 33.2289 135.544 M 32.9487 136.705 M 32.9443 136.723 C 32.8496 137.116 32.7584 137.51 32.6683 137.904 M 32.5555 138.399" id="path22"/><path style="fill:#0000ff;fill-opacity:0;stroke:#0000ff;stroke-width:0.606;stroke-opacity:1;stroke-dashoffset:0" d="M 36.5437 101.742 C 36.142 101.626 35.7403 101.51 35.3804 101.404 M 34.5512 101.152 M 34.2231 101.043 C 33.9625 100.952 33.7996 100.886 33.5868 100.812 C 33.4413 100.762 33.2725 100.708 33.0765 100.653 M 32.409 100.488 M 31.8949 100.385 C 31.5162 100.315 31.1032 100.246 30.6988 100.181 M 30.6672 100.176 M 29.4995 100.011 C 29.3049 99.9916 29.114 99.9782 28.9278 99.9739 C 28.7116 99.9689 28.5016 99.9762 28.2899 99.9883 M 27.2804 100.049 M 27.0792 100.055 C 26.6927 100.063 26.2777 100.059 25.8678 100.072 M 25.375 100.099 M 24.6627 100.186 C 24.3046 100.243 23.9737 100.313 23.6856 100.373 C 23.6119 100.388 23.541 100.402 23.4721 100.417 M 22.3767 100.8 M 22.3356 100.823 C 22.0203 100.998 21.6569 101.249 21.3242 101.489 M 20.8567 101.831 M 20.3463 102.205 C 20.1777 102.33 20.0379 102.441 19.9037 102.561 C 19.7443 102.704 19.5927 102.863 19.4475 103.014 M 19.2087 103.259 M 18.6125 103.893 C 18.568 103.95 18.5212 104.012 18.4716 104.081 C 18.3107 104.304 18.1204 104.597 17.9312 104.895 M 17.4098 105.719 M 17.2813 105.917 C 17.0408 106.285 16.873 106.538 16.6925 106.972 L 16.6919 106.974 M 16.2919 108.117 C 16.2082 108.382 16.1253 108.654 16.0456 108.915 C 16.0083 109.037 15.9717 109.156 15.9355 109.276 M 15.6177 110.446 C 15.5567 110.703 15.494 110.989 15.4281 111.322 C 15.4084 111.422 15.3885 111.525 15.3683 111.631 M 15.1489 112.824 C 15.0754 113.225 14.9995 113.632 14.9217 114.013 M 14.6687 115.104 M 14.6437 115.193 C 14.4892 115.728 14.3308 116.061 14.1751 116.307 M 13.8414 116.751 M 13.4282 117.26 C 13.3138 117.397 13.2 117.527 13.0827 117.646 C 12.9145 117.816 12.7393 117.962 12.5663 118.109 M 12.2998 118.342 M 11.6855 118.94 C 11.6309 118.992 11.575 119.043 11.517 119.094 C 11.2898 119.295 11.0322 119.489 10.7552 119.718 M 10.5292 119.908 M 9.86421 120.538 C 9.72378 120.682 9.58931 120.827 9.46739 120.967 C 9.31951 121.138 9.19008 121.301 9.07204 121.454 M 8.71763 121.915 M 8.33365 122.415 C 8.25357 122.535 8.17195 122.675 8.08634 122.851 C 8.00008 123.03 7.90977 123.245 7.81437 123.507 M 7.44809 124.663 C 7.40569 124.813 7.36233 124.971 7.31795 125.139 C 7.26015 125.357 7.20062 125.591 7.14197 125.835 M 6.88615 127.019 C 6.81075 127.419 6.74664 127.824 6.70292 128.216 M 6.64456 129.004 M 6.64314 129.426 C 6.65393 129.873 6.70301 130.276 6.77072 130.631 M 7.08763 131.765 M 7.099 131.795 C 7.30996 132.348 7.47504 132.548 7.61916 132.767 C 7.63865 132.797 7.65775 132.826 7.67671 132.857 M 8.09835 133.469 M 8.42852 133.801 C 8.57507 133.937 8.73765 134.082 8.90642 134.248 C 9.03361 134.374 9.16433 134.511 9.29284 134.648 M 9.8185 135.2 M 10.1507 135.504 C 10.2767 135.613 10.3944 135.711 10.5166 135.824 C 10.6812 135.977 10.8542 136.16 11.0312 136.335 M 11.217 136.514 M 11.9054 137.173 C 11.91 137.179 11.9147 137.185 11.9193 137.19 C 12.1333 137.455 12.3149 137.798 12.4682 138.033 C 12.5041 138.088 12.5385 138.137 12.5723 138.184 M 12.9197 138.685 M 13.194 139.22 C 13.2861 139.431 13.3708 139.668 13.4284 139.914 C 13.4644 140.068 13.4898 140.226 13.5068 140.386 M 13.5233 141.436 M 13.5137 141.596 C 13.4883 141.967 13.4395 142.338 13.3301 142.792 M 13.2491 143.103 M 12.9882 143.955 C 12.8722 144.319 12.7468 144.71 12.6327 145.115 M 12.5192 145.538 M 12.3474 146.292 C 12.2608 146.705 12.1845 147.11 12.1052 147.479 M 11.9613 148.08 M 11.778 148.646 C 11.6378 149.022 11.4799 149.354 11.3111 149.764 M 11.2596 149.891 M 10.881 150.897 C 10.7312 151.302 10.5794 151.703 10.4313 152.022 M 10.4215 152.043 M 9.78703 153.044 C 9.7021 153.149 9.61229 153.256 9.51548 153.372 C 9.36475 153.553 9.19705 153.758 9.01717 153.979 M 8.2515 154.919 C 8.23356 154.941 8.21558 154.963 8.19755 154.985 C 7.96212 155.272 7.71955 155.566 7.4969 155.867 M 6.87302 156.88 M 6.86408 156.899 C 6.68651 157.288 6.58286 157.689 6.51635 158.057 M 6.41968 158.758 M 6.37046 159.259 C 6.34796 159.517 6.33422 159.728 6.32048 159.94" id="path23"/><path style="fill:#0000ff;fill-opacity:0;stroke:#0000ff;stroke-width:0.606;stroke-opacity:1;stroke-dashoffset:0" d="M 27.9652 100.036 C 27.6877 100.34 27.4101 100.645 27.1439 100.926 M 26.5685 101.511 M 26.2814 101.779 C 25.975 102.059 25.6986 102.297 25.4328 102.597 C 25.4257 102.605 25.4186 102.613 25.4115 102.621 M 24.6845 103.591 C 24.6185 103.687 24.5552 103.78 24.4954 103.868 C 24.3035 104.148 24.1465 104.37 24.0014 104.591 M 23.8443 104.838 M 23.37 105.626 C 23.33 105.686 23.289 105.745 23.2467 105.802 C 23.0595 106.053 22.8466 106.264 22.6264 106.583 M 22.5053 106.769 M 22.0512 107.647 C 21.9476 107.868 21.8491 108.087 21.7598 108.279 C 21.6816 108.447 21.6105 108.593 21.5427 108.747 M 21.1982 109.768 M 21.1659 109.897 C 21.0833 110.235 20.9954 110.647 20.8967 111.078 M 20.5995 112.254 C 20.5686 112.361 20.5367 112.465 20.5038 112.567 C 20.4071 112.867 20.3012 113.142 20.1936 113.394 M 19.6683 114.486 C 19.6329 114.554 19.5992 114.62 19.5676 114.682 C 19.3649 115.082 19.249 115.353 19.1557 115.584 M 19.0909 115.747 M 18.874 116.756 C 18.8638 116.882 18.855 117.025 18.848 117.189 C 18.8384 117.414 18.8321 117.678 18.8245 117.966 M 18.7782 119.177 C 18.7543 119.589 18.7185 120.002 18.6612 120.384 M 18.5732 120.863 M 18.3627 121.556 C 18.1947 121.983 17.9817 122.318 17.751 122.597 M 17.2811 123.084 M 16.8728 123.427 C 16.5111 123.71 16.1667 123.93 15.8843 124.129 M 15.852 124.151 M 14.9477 124.867 M 14.9332 124.879 C 14.6903 125.074 14.4626 125.24 14.228 125.73 C 14.2149 125.758 14.2018 125.786 14.1887 125.815 M 13.8148 126.966 C 13.7544 127.23 13.7101 127.497 13.6917 127.742 C 13.6805 127.892 13.6789 128.034 13.6854 128.167 M 13.9689 129.276 M 13.9969 129.329 C 14.1735 129.649 14.3844 129.846 14.6561 130.237 C 14.6723 130.26 14.6887 130.284 14.7053 130.309 M 15.3467 131.337 C 15.4274 131.468 15.5059 131.591 15.5796 131.701 C 15.7597 131.969 15.9118 132.155 16.0472 132.325 M 16.2668 132.619 M 16.6967 133.347 C 16.7259 133.396 16.7549 133.443 16.7839 133.488 C 16.9468 133.739 17.108 133.9 17.2739 134.143 C 17.3131 134.2 17.3526 134.262 17.393 134.338 M 17.7687 135.487 C 17.7904 135.582 17.8127 135.684 17.8355 135.794 C 17.8889 136.051 17.9455 136.352 18.0035 136.675 M 18.2109 137.869 C 18.2812 138.28 18.351 138.69 18.4177 139.064 M 18.5558 139.8 M 18.6525 140.252 C 18.7817 140.813 18.892 141.115 19.0139 141.407 M 19.1299 141.679 M 19.4885 142.522 C 19.6013 142.778 19.7184 143.028 19.834 143.235 C 19.9091 143.37 19.9835 143.486 20.0558 143.591 M 20.5002 144.209 M 20.7113 144.608 C 20.7887 144.779 20.8561 144.958 20.9234 145.136" id="path24"/><path style="fill:#0000ff;fill-opacity:0;stroke:#0000ff;stroke-width:0.606;stroke-opacity:1;stroke-dashoffset:0" d="M 17.6118 153.79 C 17.8503 153.443 18.0887 153.096 18.3024 152.794 M 18.4968 152.522 M 19.0011 151.804 C 19.0421 151.737 19.081 151.667 19.1179 151.594 C 19.2398 151.352 19.3405 151.071 19.4708 150.69 M 19.6145 150.27 M 19.8651 149.544 C 19.9943 149.165 20.1274 148.763 20.236 148.389 M 20.2994 148.163 M 20.5159 147.211 C 20.578 146.893 20.6362 146.567 20.7148 146.189 C 20.7261 146.134 20.7379 146.079 20.75 146.022 M 21.0297 144.842 C 21.1315 144.449 21.2424 144.057 21.3563 143.7 C 21.3588 143.693 21.3612 143.685 21.3637 143.677 M 21.7761 142.539 C 21.8799 142.278 21.9766 142.049 22.0586 141.847 C 22.124 141.687 22.18 141.544 22.2309 141.415 M 22.4891 140.798 M 22.7422 140.318 C 22.819 140.179 22.9064 140.019 23.0091 139.817 C 23.0959 139.647 23.1937 139.447 23.2949 139.239 M 23.8016 138.223 M 23.837 138.156 C 24.0469 137.766 24.2063 137.52 24.3733 137.07 M 24.4131 136.959 M 24.684 135.901 C 24.7452 135.545 24.7862 135.141 24.7879 134.694 M 24.7858 134.488 M 24.7085 133.486 C 24.6587 133.078 24.5897 132.668 24.5141 132.291 M 24.2886 131.325 M 24.2281 131.112 C 24.05 130.512 23.902 130.253 23.7699 129.993 M 23.7505 129.955 M 23.3218 129.042 M 23.2473 128.901 C 23.1233 128.671 22.9977 128.453 22.9142 128.181 C 22.8753 128.055 22.8456 127.917 22.8235 127.774 M 22.7705 127.088 M 22.7803 126.564 C 22.7842 126.404 22.7849 126.249 22.7711 126.091 C 22.7459 125.804 22.6726 125.511 22.6075 125.374 M 22.5841 125.33 M 22.2582 125.502 M 21.6513 125.928 C 21.5661 125.988 21.4817 126.05 21.4026 126.113 C 21.1411 126.32 20.9381 126.537 20.7362 126.721 M 20.6721 126.779 M 19.9789 127.434 M 19.8806 127.571 C 19.6986 127.843 19.5316 128.214 19.4971 128.706 M 19.4907 128.9 M 19.6214 129.908 C 19.7148 130.324 19.8443 130.729 19.9626 131.033 C 19.9669 131.044 19.9711 131.055 19.9753 131.065 M 20.49 132.163 C 20.5086 132.207 20.5272 132.254 20.5459 132.303 C 20.648 132.573 20.7526 132.925 20.8668 133.314 M 21.1778 134.343 M 21.2204 134.474 C 21.3471 134.859 21.4843 135.244 21.6103 135.621 M 21.9041 136.606 M 21.9458 136.784 C 22.0405 137.21 22.095 137.614 22.1393 137.981 M 22.2053 138.527 M 22.3068 139.181 C 22.3484 139.412 22.3897 139.609 22.4247 139.775 C 22.4767 140.021 22.515 140.201 22.5506 140.369 M 22.5757 140.486" id="path25"/><path style="fill:#0000ff;fill-opacity:0;stroke:#0000ff;stroke-width:0.606;stroke-opacity:1;stroke-dashoffset:0" d="M 38.5499 110.42 C 38.9251 110.6 39.3004 110.78 39.6352 110.96 M 39.8143 111.059 M 40.6841 111.564 C 40.7468 111.597 40.8107 111.629 40.8767 111.66 C 41.1492 111.788 41.4561 111.897 41.8187 111.983 M 42.2529 112.069 M 43.0168 112.168 C 43.3794 112.206 43.7553 112.239 44.1083 112.279 C 44.146 112.283 44.1835 112.288 44.2207 112.292 M 45.4134 112.502 C 45.626 112.552 45.8564 112.613 46.1153 112.688 C 46.2615 112.73 46.4168 112.777 46.5812 112.827 M 47.7434 113.171 C 48.1065 113.272 48.4984 113.373 48.9189 113.466 M 49.5821 113.598 M 50.1103 113.686 C 50.5006 113.747 50.9051 113.8 51.311 113.849 M 52.5145 113.993 C 52.9322 114.043 53.3378 114.094 53.7166 114.151 M 54.1184 114.215 M 54.908 114.374 C 55.3475 114.476 55.7305 114.59 56.0718 114.71 M 57.0236 115.103 M 57.187 115.182 C 57.5789 115.375 57.9178 115.567 58.2605 115.744 M 58.8802 116.036 M 59.3728 116.223 C 59.7585 116.359 60.1569 116.486 60.5133 116.634 M 60.8223 116.775 M 61.5532 117.248 C 61.7602 117.411 61.9358 117.569 62.0927 117.697 C 62.2444 117.82 62.3786 117.914 62.5042 117.998 M 62.8893 118.252 M 63.5038 118.682 C 63.6138 118.751 63.7398 118.824 63.888 118.903 C 64.0854 119.008 64.3224 119.121 64.5751 119.247 M 65.6351 119.836 C 65.6903 119.872 65.7447 119.909 65.7981 119.947 C 66.0871 120.151 66.3459 120.379 66.5668 120.606 M 67.1774 121.357 M 67.3006 121.567 C 67.4553 121.868 67.4801 122.127 67.457 122.615 C 67.4549 122.659 67.4525 122.704 67.4496 122.751 M 67.3294 123.958 C 67.2907 124.238 67.2452 124.504 67.1949 124.719 C 67.1553 124.887 67.1128 125.024 67.0682 125.139 M 66.7259 125.754 M 66.4618 126.186 C 66.3796 126.32 66.2945 126.452 66.2034 126.569 C 66.0484 126.767 65.8761 126.921 65.686 127.11 M 65.5498 127.249 M 64.8765 128.013 C 64.8557 128.036 64.8352 128.059 64.8152 128.081 C 64.5969 128.319 64.4321 128.458 64.1249 128.844 C 64.1069 128.867 64.0884 128.89 64.0695 128.915 M 63.347 129.889 C 63.2348 130.044 63.1254 130.195 63.0252 130.332 C 62.8753 130.537 62.7458 130.711 62.6322 130.866 M 62.2629 131.401 M 61.9805 131.887 C 61.9071 132.012 61.8297 132.136 61.7374 132.257 C 61.5894 132.453 61.403 132.643 61.2226 132.829 M 61.0044 133.058 M 60.4013 133.717 C 60.3763 133.741 60.3507 133.765 60.3245 133.788 C 60.0708 134.014 59.7521 134.217 59.4623 134.447 C 59.456 134.452 59.4498 134.457 59.4436 134.462 M 58.6434 135.112 M 58.4904 135.204 C 58.2642 135.329 58.0071 135.429 57.605 135.624 C 57.5393 135.656 57.4697 135.691 57.3963 135.727 M 56.3039 136.251 C 56.0468 136.365 55.7667 136.481 55.4634 136.594 C 55.3696 136.628 55.2736 136.663 55.176 136.697 M 54.022 137.066 C 53.6092 137.189 53.2081 137.304 52.8599 137.407 M 52.6045 137.484 M 51.7043 137.776 C 51.4219 137.87 51.1775 137.948 50.8964 138.017 C 50.7831 138.045 50.6638 138.071 50.5379 138.097 M 49.3481 138.334 C 49.183 138.369 49.0096 138.408 48.8269 138.452 C 48.6183 138.502 48.3978 138.558 48.1706 138.619 M 47.0046 138.947 C 46.6474 139.051 46.2955 139.157 45.9674 139.255 C 45.9251 139.267 45.8832 139.28 45.8417 139.292 M 44.6844 139.653 C 44.3575 139.764 44.0741 139.873 43.8378 139.989 C 43.743 140.035 43.6558 140.083 43.5747 140.131 M 42.7459 140.763 M 42.6155 140.87 C 42.3619 141.075 42.1101 141.267 41.8982 141.501 C 41.8409 141.564 41.7866 141.63 41.7344 141.697 M 41.2524 142.361 M 40.9919 142.653 C 40.871 142.779 40.7498 142.899 40.6326 143.041 C 40.4964 143.206 40.3658 143.4 40.2157 143.581 M 39.9814 143.83 M 39.261 144.316 C 39.1833 144.363 39.103 144.412 39.0206 144.464 C 38.7793 144.618 38.519 144.804 38.2489 144.984 M 37.7983 145.265 M 37.1938 145.576 C 36.9339 145.698 36.6489 145.825 36.3126 145.985 C 36.2426 146.019 36.1704 146.054 36.0965 146.09 M 35.0117 146.629 C 34.7606 146.755 34.5142 146.879 34.2877 146.989 C 34.1605 147.052 34.0395 147.11 33.9242 147.165 M 32.836 147.701 C 32.8219 147.709 32.8078 147.716 32.7939 147.724 C 32.4522 147.914 32.1785 148.107 31.7818 148.296 M 31.612 148.373 M 30.6473 148.719 C 30.3447 148.813 30.0155 148.908 29.6705 149.005 C 29.6087 149.023 29.5464 149.04 29.4833 149.057 M 28.3121 149.367 C 27.9567 149.455 27.5681 149.547 27.1309 149.645 M 26.8754 149.701 M 25.9472 149.898 C 25.5513 149.98 25.1464 150.064 24.7614 150.147 M 23.5791 150.418 C 23.4718 150.445 23.371 150.471 23.2782 150.497 C 22.8755 150.61 22.6209 150.711 22.4359 150.811 M 21.9572 151.162 M 21.4782 151.551 C 21.3081 151.684 21.127 151.823 20.9459 151.962" id="path27"/><path style="fill:#0000ff;fill-opacity:0;stroke:#0000ff;stroke-width:0.606;stroke-opacity:1;stroke-dashoffset:0" d="M 63.2288 110.88 C 63.1801 111.293 63.1314 111.706 63.0668 112.081 M 62.8572 112.933 M 62.7235 113.238 C 62.552 113.571 62.3335 113.838 62.0998 114.277 M 62.0576 114.358 M 61.6117 115.385 C 61.4734 115.741 61.3329 116.128 61.1918 116.522 M 61.0607 116.89" id="path28" inkscape:label="path28"/><path style="fill:#0000ff;fill-opacity:0;stroke:#0000ff;stroke-width:0.606;stroke-opacity:1;stroke-dashoffset:0;image-rendering:auto" d="M -26.4119 123.171 C -26.0112 123.113 -25.6105 123.055 -25.213 122.997 M -24.0139 122.824 C -23.6052 122.765 -23.2037 122.708 -22.8135 122.653 M -21.6127 122.484 C -21.1896 122.426 -20.7873 122.371 -20.412 122.321 M -19.2093 122.169 L -19.203 122.168 C -18.7255 122.111 -18.3329 122.07 -18.0036 122.041 M -16.7941 121.988 C -16.6326 121.991 -16.4933 122.001 -16.3603 122.014 C -16.0837 122.041 -15.8347 122.083 -15.5945 122.143 M -14.9534 122.352 M -14.461 122.567 C -14.1538 122.708 -13.8368 122.861 -13.5152 122.989 C -13.4609 123.011 -13.4065 123.032 -13.352 123.053 M -12.1998 123.433 C -12.1478 123.45 -12.0963 123.467 -12.0452 123.484 C -11.6894 123.604 -11.3577 123.734 -11.069 123.865 M -10.8139 123.987 M -9.98554 124.407 C -9.90703 124.442 -9.82232 124.477 -9.72923 124.512 C -9.47559 124.609 -9.15964 124.711 -8.84363 124.811 M -8.02169 125.079 M -7.69507 125.201 C -7.37401 125.329 -7.14093 125.444 -6.88471 125.555 C -6.78773 125.597 -6.68744 125.638 -6.5828 125.679 M -5.71652 125.966 M -5.42676 126.043 C -5.05677 126.137 -4.64905 126.223 -4.23956 126.287 M -4.17914 126.297 M -3.04496 126.482 C -2.88547 126.52 -2.72654 126.566 -2.56842 126.627 C -2.3517 126.71 -2.13649 126.819 -1.91951 126.925 M -0.954686 127.276 M -0.774513 127.294 C -0.357247 127.315 0.0674108 127.2 0.403862 127.059 M 0.606163 126.966 M 1.42487 126.413 C 1.46797 126.381 1.51303 126.349 1.56091 126.317 C 1.8118 126.145 2.14032 125.956 2.47028 125.805 M 2.87764 125.641 M 3.63129 125.477 C 3.84875 125.452 4.09208 125.437 4.39156 125.42 C 4.53109 125.412 4.68282 125.403 4.8411 125.395 M 6.05194 125.348 C 6.26344 125.343 6.46138 125.342 6.63177 125.346 C 6.90125 125.351 7.10186 125.369 7.26191 125.392 M 7.72907 125.494 M 8.36394 125.688 M 8.4259 125.716 C 8.60186 125.796 8.79189 125.907 9.18827 126.09 C 9.2878 126.136 9.40034 126.187 9.51981 126.24 M 10.6223 126.741 C 10.6687 126.764 10.7129 126.786 10.7545 126.807 C 11.1733 127.022 11.3174 127.159 11.6544 127.373 M 11.6624 127.379 M 12.7095 127.971 C 12.7945 128.015 12.8769 128.056 12.9544 128.095 C 13.3169 128.273 13.5722 128.374 13.8157 128.466 M 13.905 128.499" id="path31"/><path style="fill:#0000ff;fill-opacity:0;stroke:#0000ff;stroke-width:0.606;stroke-opacity:1;stroke-dashoffset:0" d="M -27.5986 123.68 C -27.9057 123.938 -28.2127 124.195 -28.541 124.442 M -28.7271 124.579 M -29.5542 125.106 C -29.7359 125.207 -29.9326 125.307 -30.1503 125.408 C -30.3076 125.481 -30.4759 125.555 -30.6479 125.627 M -31.7659 126.092 C -31.8474 126.128 -31.9254 126.162 -31.9991 126.196 C -32.3465 126.355 -32.5954 126.497 -32.8507 126.633 M -33.2491 126.834 M -33.9538 127.132 C -34.215 127.238 -34.4855 127.349 -34.7396 127.467 C -34.85 127.518 -34.9574 127.571 -35.0615 127.625 M -36.0232 128.146 M -36.1273 128.2 C -36.4271 128.352 -36.6664 128.454 -36.9203 128.627 C -37.0008 128.682 -37.0829 128.744 -37.169 128.812 M -37.9321 129.435 M -38.1119 129.574 C -38.3912 129.79 -38.7069 130.04 -39.009 130.387 M -39.3805 130.883 M -39.671 131.399 C -39.8502 131.754 -40.0129 132.141 -40.1601 132.507 M -40.4989 133.356 M -40.6158 133.629 C -40.814 134.076 -40.975 134.362 -41.148 134.718 M -41.2257 134.882 M -41.6295 135.829 C -41.7377 136.098 -41.8401 136.36 -41.9262 136.578 C -41.9811 136.717 -42.0293 136.838 -42.0727 136.957 M -42.3332 138.029 M -42.3489 138.136 C -42.3973 138.477 -42.4436 138.903 -42.4791 139.34 M -42.5437 140.55 C -42.5445 140.592 -42.5451 140.633 -42.5455 140.674 C -42.5491 141.086 -42.5295 141.423 -42.5136 141.763 M -42.5034 142.863 M -42.5087 142.973 C -42.5284 143.342 -42.5689 143.762 -42.6199 144.18 M -42.7945 145.379 C -42.8096 145.467 -42.8246 145.552 -42.8395 145.632 C -42.9056 145.991 -42.9684 146.266 -43.0746 146.557 M -43.609 147.643 C -43.6343 147.687 -43.6606 147.732 -43.6878 147.779 C -43.8426 148.043 -44.0297 148.35 -44.2339 148.681 M -44.8759 149.71 C -45.0919 150.055 -45.31 150.403 -45.5167 150.737 M -45.9888 151.511 M -46.1452 151.774 C -46.3835 152.179 -46.5784 152.527 -46.7435 152.829 M -47.3206 153.894 C -47.3228 153.898 -47.325 153.902 -47.3272 153.905 C -47.5572 154.313 -47.7432 154.581 -47.9536 154.927 M -48.1184 155.206 M -48.5405 155.989 C -48.7084 156.308 -48.8752 156.629 -49.0172 156.882 C -49.0519 156.943 -49.085 157.001 -49.1169 157.055 M -49.6251 157.834 M -49.7773 158.07 C -49.8897 158.245 -50.0081 158.424 -50.1614 158.603 C -50.2745 158.735 -50.4065 158.867 -50.5463 159.001 M -50.9659 159.405 M -51.4036 159.858 C -51.5343 159.995 -51.6633 160.128 -51.792 160.251 C -51.9496 160.401 -52.1067 160.535 -52.2627 160.713 M -52.5946 161.183 M -52.8703 161.753 C -53.016 162.096 -53.1594 162.489 -53.2986 162.888 M -53.3666 163.084 M -53.6609 164.044 C -53.7476 164.4 -53.81 164.787 -53.8258 165.242 M -53.829 165.577 M -53.772 166.452 C -53.7307 166.841 -53.6697 167.249 -53.5966 167.652 M -53.3448 168.836 C -53.3181 168.945 -53.2911 169.052 -53.2638 169.155 C -53.1826 169.464 -53.0997 169.743 -53.0114 170.001 M -52.5214 171.109 C -52.4189 171.287 -52.3074 171.457 -52.184 171.622 C -52.066 171.78 -51.9372 171.933 -51.804 172.081 M -50.9365 172.928 C -50.8168 173.035 -50.7063 173.13 -50.6111 173.213 C -50.2833 173.497 -50.1369 173.625 -50.0246 173.725 M -49.9504 173.791" id="path32"/><path style="fill:#0000ff;fill-opacity:0;stroke:#0000ff;stroke-width:0.606;stroke-opacity:1;stroke-dashoffset:0" d="M -19.3556 122.833 C -19.0032 123.068 -18.6509 123.304 -18.3547 123.515 M -18.0581 123.732 M -17.491 124.349 C -17.4458 124.436 -17.4045 124.534 -17.3655 124.648 C -17.2876 124.876 -17.2188 125.17 -17.1869 125.514 M -17.2365 126.721 C -17.2374 126.726 -17.2383 126.732 -17.2392 126.737 C -17.3035 127.107 -17.416 127.504 -17.5549 127.889 M -18.0426 128.999 C -18.1053 129.118 -18.1685 129.23 -18.2313 129.333 C -18.3989 129.61 -18.5632 129.826 -18.7181 130.002 M -19.3105 130.574 M -19.5977 130.833 C -19.7665 130.98 -19.9596 131.128 -20.2953 131.323 C -20.3895 131.377 -20.495 131.435 -20.6078 131.496 M -21.6637 132.091 C -21.8784 132.224 -22.0818 132.363 -22.2535 132.506 C -22.3883 132.619 -22.5036 132.734 -22.6035 132.849 M -23.2143 133.83 M -23.2389 133.878 C -23.4111 134.211 -23.547 134.421 -23.6665 134.653 C -23.7146 134.746 -23.76 134.843 -23.8078 134.948 M -24.0753 135.519 M -24.3464 136.033 C -24.4687 136.252 -24.6002 136.473 -24.7259 136.664 C -24.8209 136.808 -24.9125 136.934 -24.9982 137.053 M -25.3151 137.535 M -25.5668 138.117 C -25.6145 138.243 -25.6638 138.377 -25.7203 138.518 C -25.8122 138.748 -25.9231 139 -26.034 139.235 M -26.2446 139.662 M -26.5782 140.317 C -26.6254 140.422 -26.6743 140.541 -26.7268 140.683 C -26.8083 140.902 -26.8984 141.177 -26.9878 141.458 M -27.2823 142.382 M -27.3598 142.61 C -27.4789 142.954 -27.5649 143.177 -27.6467 143.542 C -27.6629 143.614 -27.6789 143.692 -27.695 143.774 M -27.9058 144.969 C -27.9268 145.086 -27.9488 145.205 -27.972 145.326 C -28.0234 145.595 -28.0809 145.872 -28.1404 146.157 M -28.38 147.344 C -28.3958 147.428 -28.4113 147.513 -28.4265 147.599 C -28.4816 147.908 -28.5322 148.226 -28.5931 148.539 M -28.919 149.703 C -28.9553 149.79 -28.9946 149.874 -29.0374 149.955 C -29.1878 150.241 -29.3817 150.488 -29.5934 150.702 M -30.4767 151.38 M -30.5577 151.427 C -30.9275 151.638 -31.2513 151.771 -31.6106 152.027 M -31.8885 152.247 M -32.4951 152.852 C -32.7787 153.163 -33.057 153.499 -33.2848 153.772 M -33.394 153.903 M -34.0785 154.687 C -34.1088 154.72 -34.1383 154.751 -34.1678 154.783" id="path33"/><path style="fill:#0000ff;fill-opacity:0;stroke:#0000ff;stroke-width:0.606;stroke-opacity:1;stroke-dashoffset:0" d="M -24.1896 123.1 C -24.1283 123.09 -24.0667 123.08 -23.9544 123.177 C -23.8421 123.274 -23.6785 123.477 -23.4753 123.678 C -23.4162 123.737 -23.3537 123.796 -23.2862 123.857 M -22.6804 124.408 M -22.4008 124.684 C -22.1531 124.944 -21.8956 125.267 -21.7175 125.677 M -21.6427 125.869 M -21.4604 126.854 C -21.4393 127.243 -21.4677 127.655 -21.5444 128.061 M -21.5886 128.271 M -21.89 129.222 C -22.0515 129.638 -22.2305 130.019 -22.3678 130.335 M -22.4201 130.458 M -22.7205 131.491 C -22.7321 131.577 -22.7409 131.664 -22.7484 131.756 C -22.7712 132.036 -22.782 132.361 -22.7888 132.7 M -22.797 133.218" id="path34"/><path style="fill:#0000ff;fill-opacity:0;stroke:#0000ff;stroke-width:0.606;stroke-opacity:1;stroke-dashoffset:0" d="M -19.0645 123.101 C -19.2473 122.869 -19.4301 122.637 -19.6128 122.405" id="path35"/><path style="fill:#0000ff;fill-opacity:0;stroke:#0000ff;stroke-width:0.606;stroke-opacity:1;stroke-dashoffset:0" d="M -34.609 127.711 C -34.7919 127.893 -34.9746 128.074 -34.9908 128.387 C -34.9972 128.511 -34.9775 128.655 -34.9287 128.793 M -34.4942 129.277 M -33.9596 129.304 C -33.6819 129.263 -33.3842 129.158 -33.1408 129.052 C -33.0245 129.002 -32.9207 128.951 -32.8219 128.9 M -32.0297 128.486 M -31.7373 128.361 C -31.4278 128.236 -31.0499 128.103 -30.5958 127.955 M -30.1394 127.81 M -29.4372 127.599 C -29.0604 127.49 -28.6616 127.385 -28.262 127.301 M -27.3015 127.144 M -27.0649 127.123 C -26.6494 127.094 -26.2507 127.104 -25.8554 127.153 M -24.6713 127.408 C -24.6428 127.417 -24.6143 127.426 -24.5857 127.435 C -24.2424 127.543 -23.891 127.676 -23.5348 127.826 M -22.431 128.326 C -22.2027 128.434 -21.9738 128.545 -21.7448 128.656" id="path36"/><path style="fill:#0000ff;fill-opacity:0;stroke:#0000ff;stroke-width:0.606;stroke-opacity:1;stroke-dashoffset:0" d="M -30.5362 128.047 C -30.3092 128.414 -30.0823 128.781 -29.8975 129.076 M -29.7546 129.303 M -29.3539 130.152 C -29.3494 130.17 -29.3448 130.189 -29.3403 130.208 C -29.2693 130.511 -29.2068 130.945 -29.1956 131.352 M -29.2075 131.795 M -29.3897 132.538 C -29.4477 132.684 -29.5109 132.817 -29.5676 132.945 C -29.6674 133.171 -29.7472 133.384 -29.882 133.645 M -30.0636 133.967 M -30.5333 134.667 C -30.7074 134.913 -30.8862 135.157 -31.034 135.364 C -31.1094 135.469 -31.1768 135.564 -31.2392 135.653 M -31.7333 136.335 M -31.9642 136.623 C -32.1392 136.84 -32.3186 137.062 -32.4488 137.264 C -32.5275 137.386 -32.5883 137.501 -32.6439 137.622 M -32.8822 138.2 M -33.1025 138.743 C -33.2085 139.015 -33.3081 139.301 -33.3572 139.553 C -33.3819 139.679 -33.3939 139.797 -33.3968 139.913 M -33.3115 140.775 M -33.2639 141.115 C -33.2123 141.488 -33.1524 141.908 -33.0629 142.311 M -33.0518 142.359 M -32.7005 143.465 C -32.6437 143.602 -32.5829 143.735 -32.5185 143.864 C -32.3972 144.106 -32.263 144.332 -32.1312 144.534 M -31.8036 145.002 M -31.4175 145.512 C -31.3669 145.584 -31.3184 145.658 -31.2703 145.741 C -31.1262 145.99 -30.9866 146.314 -30.8122 146.561 M -30.7695 146.619 M -30.0979 147.258 M -29.9535 147.414 C -29.7652 147.629 -29.5798 147.886 -29.4035 148.131 C -29.343 148.215 -29.2835 148.298 -29.2249 148.38 M -28.7685 149.016" id="path37"/><path style="fill:#0000ff;fill-opacity:0;stroke:#0000ff;stroke-width:0.606;stroke-opacity:1;stroke-dashoffset:0" d="M -4.83833 126.233 C -4.92189 126.631 -5.00544 127.028 -5.08809 127.419 M -5.08809 127.419 M -5.34033 128.605 C -5.42885 129.018 -5.51509 129.416 -5.59781 129.79 M -5.59781 129.79 M -5.74381 130.442 M -5.86658 130.973 C -5.97278 131.424 -6.07031 131.816 -6.15989 132.148 M -6.40639 132.973 M -6.53278 133.301 C -6.65444 133.581 -6.76636 133.735 -6.90841 133.948 C -6.98258 134.059 -7.06495 134.186 -7.16798 134.332 M -7.16798 134.332 M -7.84454 135.161 M -7.94195 135.264 C -8.19688 135.531 -8.50391 135.828 -8.80759 136.113 M -8.80759 136.113 M -9.62783 136.869 M -9.69858 136.934 C -10.1361 137.334 -10.3843 137.561 -10.6079 137.736 M -10.6079 137.736 M -10.6553 137.772 M -11.4039 138.302 M -11.5875 138.451 C -11.8053 138.632 -12.034 138.837 -12.2354 138.99 C -12.3381 139.068 -12.4338 139.133 -12.5401 139.199 M -12.5401 139.199 M -13.1619 139.558 M -13.5894 139.804 C -13.9227 139.995 -14.3033 140.212 -14.649 140.394 M -14.649 140.394 M -14.8562 140.502 M -15.7442 140.916 C -15.9247 140.997 -16.1042 141.08 -16.2968 141.178 C -16.4632 141.263 -16.6394 141.36 -16.8256 141.463 M -16.8256 141.463 M -17.8936 142.037 C -17.9356 142.058 -17.9779 142.079 -18.0206 142.1 C -18.3386 142.254 -18.6774 142.402 -18.9956 142.54 M -19.9054 142.942 M -20.1004 143.041 C -20.4293 143.215 -20.5877 143.35 -20.7706 143.494 C -20.8667 143.57 -20.9697 143.648 -21.0797 143.751 M -21.0797 143.751 M -21.5246 144.288 M -21.7848 144.73 C -21.9627 145.058 -22.1465 145.442 -22.3222 145.816 M -22.4319 146.051 M -22.8384 146.913 C -22.9824 147.211 -23.1258 147.496 -23.2772 147.77 C -23.3176 147.843 -23.3585 147.916 -23.3998 147.987 M -23.3998 147.987 M -24.0636 149 C -24.0923 149.037 -24.1204 149.073 -24.1478 149.106 C -24.4062 149.424 -24.6024 149.567 -24.7845 149.77 C -24.8182 149.807 -24.8513 149.848 -24.8846 149.889 M -24.8862 149.891 M -25.384 150.506 M -25.6828 150.802 C -25.8639 150.972 -26.0535 151.14 -26.2107 151.298 C -26.3353 151.423 -26.4395 151.542 -26.542 151.656 M -26.542 151.656 M -26.86 151.983 M -27.4617 152.439 C -27.5717 152.515 -27.6922 152.597 -27.825 152.689 C -28.0167 152.821 -28.2342 152.973 -28.4616 153.124 M -28.4616 153.124 M -29.3269 153.64 M -29.512 153.728 C -29.8975 153.902 -30.2613 154.008 -30.6519 154.137 M -30.818 154.193 M -31.7948 154.546 C -32.0057 154.62 -32.2127 154.687 -32.4077 154.738 C -32.6026 154.788 -32.7855 154.822 -32.9657 154.848 M -33.8158 154.954 M -34.1674 155.008 C -34.5638 155.074 -34.9744 155.155 -35.2997 155.205 C -35.3205 155.209 -35.341 155.212 -35.3611 155.215 M -35.3631 155.215 M -36.5575 155.419 C -36.5933 155.427 -36.6304 155.436 -36.6687 155.446 C -36.9624 155.518 -37.3312 155.619 -37.7272 155.737 M -37.7272 155.737 M -38.8824 156.106 C -39.0138 156.151 -39.1432 156.196 -39.2691 156.242 C -39.5334 156.337 -39.782 156.433 -40.0152 156.534 M -41.0766 157.114 C -41.1904 157.196 -41.2987 157.283 -41.4017 157.376 C -41.5974 157.553 -41.7737 157.751 -41.9416 157.958 M -41.9426 157.959 M -42.6952 158.91 C -42.7415 158.963 -42.7884 159.016 -42.8362 159.067 C -43.0681 159.315 -43.3206 159.528 -43.5753 159.741 M -44.4025 160.486 M -44.4694 160.559 C -44.7421 160.859 -44.9899 161.203 -45.201 161.524 M -45.201 161.524 M -45.5983 162.163 M -45.8262 162.562 C -45.964 162.825 -46.0716 163.092 -46.2272 163.597 C -46.2369 163.628 -46.2468 163.66 -46.2568 163.693 M -46.2568 163.693 M -46.5905 164.859 C -46.7005 165.256 -46.8116 165.665 -46.9114 166.028 M -46.9114 166.028 M -47.0215 166.426 M -47.2432 167.194 C -47.343 167.522 -47.4175 167.735 -47.4916 167.918 C -47.5492 168.059 -47.6065 168.184 -47.6662 168.328 M -47.6669 168.33 M -47.874 168.919 M -48.0312 169.484 C -48.1285 169.832 -48.2488 170.231 -48.418 170.631 M -48.419 170.633 M -48.5288 170.876 M -48.9836 171.704 C -49.1763 172.035 -49.3771 172.383 -49.5535 172.774 M -49.5535 172.774 M -49.7371 173.227 M -49.9448 173.92 C -50.0402 174.304 -50.112 174.709 -50.1614 175.112 M -50.1614 175.112 M -50.2434 176.322 C -50.2437 176.347 -50.2439 176.372 -50.2439 176.398 C -50.2451 176.814 -50.2188 177.193 -50.1655 177.53 M -49.7906 178.674 C -49.7881 178.678 -49.7857 178.682 -49.7832 178.686 C -49.5568 179.057 -49.2485 179.275 -48.899 179.472 M -48.8969 179.473 M -48.5104 179.679 M -47.8258 180.04 C -47.5158 180.199 -47.1929 180.354 -46.8606 180.481 C -46.8137 180.499 -46.7666 180.517 -46.7193 180.534 M -46.7193 180.534 M -45.5615 180.893 C -45.3699 180.95 -45.1728 181.012 -44.9691 181.083 C -44.7881 181.145 -44.6019 181.215 -44.4164 181.288 M -43.3003 181.763 C -43.1924 181.811 -43.0911 181.858 -42.9982 181.9 C -42.6399 182.065 -42.4081 182.177 -42.2165 182.304 M -42.2165 182.304 M -41.9869 182.481 M -41.3492 183.146 C -41.3155 183.181 -41.2816 183.215 -41.2474 183.247 C -40.9936 183.488 -40.7255 183.663 -40.482 183.923 C -40.4714 183.935 -40.4609 183.945 -40.4503 183.957 M -40.4493 183.958 M -39.7497 184.798 M -39.6634 184.879 C -39.4124 185.106 -39.1232 185.283 -38.8196 185.516 C -38.7792 185.547 -38.7385 185.579 -38.6978 185.612 M -38.6978 185.612 M -37.836 186.354 M -37.7796 186.402 C -37.5197 186.622 -37.3165 186.773 -37.1133 186.925" id="path38"/><path style="fill:#0000ff;fill-opacity:0;stroke:#0000ff;stroke-width:0.606;stroke-opacity:1;stroke-dashoffset:0" d="M -47.1239 166.551 C -46.8492 166.853 -46.5744 167.156 -46.3014 167.44 M -45.4258 168.279 C -45.2521 168.426 -45.0801 168.557 -44.9102 168.668 C -44.7444 168.776 -44.5807 168.865 -44.4158 168.939 M -43.2504 169.262 C -43.053 169.293 -42.8462 169.32 -42.626 169.346 C -42.4411 169.369 -42.2469 169.391 -42.048 169.414 M -40.8444 169.551 C -40.4766 169.595 -40.1255 169.639 -39.8213 169.684 C -39.7599 169.693 -39.7005 169.702 -39.6428 169.711 M -38.4517 169.932 C -38.3047 169.961 -38.1608 169.987 -38.0121 170.01 C -37.7799 170.046 -37.5357 170.075 -37.2517 170.108 M -36.0505 170.262 C -35.9863 170.271 -35.9203 170.281 -35.8525 170.291 C -35.5491 170.336 -35.209 170.391 -34.8535 170.453 M -33.6624 170.678 C -33.2475 170.763 -32.8427 170.853 -32.4797 170.945 M -32.3659 170.974 M -31.3182 171.29 C -30.8477 171.452 -30.4882 171.603 -30.1874 171.722 M -30.1821 171.724 M -29.0605 172.168 C -28.9953 172.198 -28.9278 172.23 -28.857 172.264 C -28.5951 172.391 -28.2884 172.556 -27.9831 172.723 M -27.1988 173.151 M -26.9155 173.299 C -26.5594 173.483 -26.2948 173.613 -26.0931 173.754 C -26.0154 173.808 -25.947 173.864 -25.8825 173.922 M -25.4498 174.353 M -25.0372 174.791 C -24.9118 174.959 -24.7934 175.173 -24.7054 175.467 C -24.6655 175.601 -24.6318 175.751 -24.6037 175.91 M -24.4859 177.115 C -24.4777 177.329 -24.4757 177.533 -24.4782 177.71 C -24.4816 177.958 -24.4939 178.157 -24.5116 178.325 M -24.6243 178.978" id="path39"/><path style="fill:#0000ff;fill-opacity:0;stroke:#0000ff;stroke-width:0.606;stroke-opacity:1;stroke-dashoffset:0" d="M 21.2277 151.726 C 21.1687 151.82 21.1099 151.914 21.0337 151.987 C 20.9576 152.061 20.8644 152.115 20.776 152.178 C 20.6877 152.241 20.6044 152.314 20.4107 152.427 C 20.3781 152.446 20.3425 152.466 20.3044 152.487 M 19.6342 152.837 M 19.2286 153.047 C 19.1096 153.108 19.0005 153.162 18.9049 153.207 C 18.7084 153.298 18.5692 153.344 18.3948 153.415 C 18.3093 153.45 18.2154 153.491 18.1202 153.534 M 17.8272 153.672 M 17.2627 153.934 M 17.0126 154.02 C 16.8425 154.075 16.6546 154.131 16.4688 154.193 C 16.2646 154.261 16.0627 154.335 15.8623 154.405 M 15.63 154.482 M 14.771 154.755 M 14.7091 154.779 C 14.4165 154.892 14.0877 155.046 13.6307 155.221 C 13.6164 155.226 13.6019 155.232 13.5873 155.237 M 12.444 155.64 C 12.3205 155.682 12.2058 155.72 12.106 155.753 C 11.7072 155.886 11.5462 155.94 11.3392 156.047 C 11.3295 156.052 11.3197 156.057 11.3098 156.063 M 10.7012 156.426 M 10.317 156.677 M 10.2835 156.705 C 10.1926 156.782 10.1003 156.876 9.98727 156.976 C 9.86034 157.088 9.70711 157.208 9.54916 157.44 C 9.51924 157.484 9.48915 157.532 9.45892 157.583 M 9.06594 158.361" id="path43"/><path style="fill:#0000ff;fill-opacity:0;stroke:#0000ff;stroke-width:0.606;stroke-opacity:1;stroke-dashoffset:0" d="M 62.782 130.61 C 62.3613 130.628 61.9405 130.646 61.5702 130.66 M 61.0534 130.677 M 60.3595 130.696 C 60.2304 130.701 60.1088 130.708 59.9824 130.72 C 59.7234 130.744 59.4439 130.788 59.1575 130.837 M 58.953 130.873 M 57.9709 131.086 C 57.9368 131.096 57.9027 131.106 57.8687 131.116 C 57.5144 131.226 57.1603 131.377 56.8347 131.504 M 56.8093 131.514 M 55.9165 131.867 M 55.7166 131.971 C 55.5444 132.067 55.3945 132.165 55.2648 132.24 C 55.0872 132.343 54.9477 132.401 54.744 132.525 C 54.7189 132.54 54.6929 132.556 54.6661 132.573 M 54.0697 132.971 M 53.6576 133.246 C 53.6393 133.259 53.6215 133.273 53.6039 133.287 C 53.4785 133.388 53.3657 133.507 53.2158 133.614 C 53.0708 133.717 52.8912 133.808 52.6688 133.938 M 52.6457 133.952 M 51.8987 134.403 M 51.6214 134.547 C 51.4979 134.608 51.3778 134.665 51.2449 134.736 C 51.0295 134.852 50.7805 135.005 50.5546 135.121 M 50.5142 135.141 M 49.8152 135.457 M 49.4619 135.646 C 49.3051 135.734 49.148 135.824 49.0106 135.897 C 48.7671 136.026 48.5854 136.102 48.4301 136.19 C 48.4174 136.198 48.4048 136.205 48.3924 136.212 M 47.9684 136.512 M 47.4451 136.966 C 47.406 137.009 47.3663 137.056 47.3262 137.106 C 47.146 137.334 46.9588 137.642 46.77 137.969 M 46.5866 138.29" id="path47"/><g inkscape:label="Hershey Text" style="fill:none;stroke:#000000;stroke-linecap:round;stroke-linejoin:round" id="g8672"><g transform="translate(41.5233, 86.2337)" id="g8670"/></g><g inkscape:label="Hershey Text" style="fill:none;stroke:#000000;stroke-linecap:round;stroke-linejoin:round" id="g8698"><g transform="translate(25.0393, 154.035)" id="g8696"/></g><g inkscape:label="Hershey Text" style="fill:none;stroke:#000000;stroke-linecap:round;stroke-linejoin:round" transform="rotate(-28.381)" id="g8724"><g transform="translate(-103.78, 149.322)" id="g8722"/></g><g inkscape:label="Hershey Text" style="fill:none;stroke:#000000;stroke-linecap:round;stroke-linejoin:round" id="g8752"><g transform="translate(-48.7443, 199.739)" id="g8750"/></g><g inkscape:label="Hershey Text" style="fill:none;stroke:#000000;stroke-linecap:round;stroke-linejoin:round" transform="rotate(-81.4809)" id="g8768"><g transform="translate(-188.699, -7.93831)" id="g8766"/></g><g inkscape:label="Hershey Text" style="fill:none;stroke:#000000;stroke-linecap:round;stroke-linejoin:round" transform="rotate(-64.5391)" id="g8784"><g transform="translate(-133.853, 78.1646)" id="g8782"/></g><g inkscape:label="Hershey Text" style="fill:none;stroke:#000000;stroke-linecap:round;stroke-linejoin:round" transform="rotate(-33.0744)" id="g8800"><g transform="translate(-56.9327, 138.846)" id="g8798"/></g><g inkscape:label="Hershey Text" style="fill:none;stroke:#000000;stroke-linecap:round;stroke-linejoin:round" transform="rotate(6.11656)" id="g8824"><g transform="translate(-6.21621, 153.011)" id="g8822"/></g><g inkscape:label="Hershey Text" style="fill:none;stroke:#000000;stroke-linecap:round;stroke-linejoin:round" id="g8852"><g transform="translate(114.802, 81.6861)" id="g8850"/></g><g inkscape:label="Hershey Text" style="fill:none;stroke:#000000;stroke-linecap:round;stroke-linejoin:round" id="g8880"><g transform="translate(92.0641, 147.524)" id="g8878"/></g></g></svg>