<?xml version='1.0' encoding='UTF-8'?>
<!-- Created with Inkscape (http://www.inkscape.org/) --><svg xmlns:inkscape="http://www.inkscape.org/namespaces/inkscape" xmlns:sodipodi="http://sodipodi.sourceforge.net/DTD/sodipodi-0.dtd" xmlns="http://www.w3.org/2000/svg" xmlns:svg="http://www.w3.org/2000/svg" width="227.74001mm" height="140.35001mm" viewBox="0 0 227.74001 140.35001" version="1.1" id="svg5" xml:space="preserve" inkscape:version="1.2.2 (732a01da63, 2022-12-09)" sodipodi:docname="extensions_applied.svg" inkscape:export-filename="contours.png" inkscape:export-xdpi="800" inkscape:export-ydpi="800"><sodipodi:namedview id="namedview7" pagecolor="#ffffff" bordercolor="#000000" borderopacity="0.25" inkscape:showpageshadow="2" inkscape:pageopacity="0.0" inkscape:pagecheckerboard="0" inkscape:deskcolor="#d1d1d1" inkscape:document-units="mm" showgrid="false" inkscape:zoom="1.5519182" inkscape:cx="290.93028" inkscape:cy="271.27718" inkscape:window-width="1920" inkscape:window-height="1009" inkscape:window-x="-8" inkscape:window-y="-8" inkscape:window-maximized="1" inkscape:current-layer="layer1"/><defs id="defs2"><inkscape:path-effect effect="bspline" id="path-effect54" is_visible="true" lpeversion="1.3" weight="33.333333" steps="2" helper_size="0" apply_no_weight="true" apply_with_weight="true" only_selected="false" uniform="false"/><inkscape:path-effect effect="bspline" id="path-effect53" is_visible="true" lpeversion="1.3" weight="33.333333" steps="2" helper_size="0" apply_no_weight="true" apply_with_weight="true" only_selected="false" uniform="false"/><inkscape:path-effect effect="bspline" id="path-effect52" is_visible="true" lpeversion="1.3" weight="33.333333" steps="2" helper_size="0" apply_no_weight="true" apply_with_weight="true" only_selected="false" uniform="false"/><inkscape:path-effect effect="bspline" id="path-effect51" is_visible="true" lpeversion="1.3" weight="33.333333" steps="2" helper_size="0" apply_no_weight="true" apply_with_weight="true" only_selected="false" uniform="false"/><inkscape:path-effect effect="bspline" id="path-effect50" is_visible="true" lpeversion="1.3" weight="33.333333" steps="2" helper_size="0" apply_no_weight="true" apply_with_weight="true" only_selected="false" uniform="false"/><inkscape:path-effect effect="bspline" id="path-effect49" is_visible="true" lpeversion="1.3" weight="33.333333" steps="2" helper_size="0" apply_no_weight="true" apply_with_weight="true" only_selected="false" uniform="false"/><inkscape:path-effect effect="bspline" id="path-effect48" is_visible="true" lpeversion="1.3" weight="33.333333" steps="2" helper_size="0" apply_no_weight="true" apply_with_weight="true" only_selected="false" uniform="false"/><inkscape:path-effect effect="bspline" id="path-effect47" is_visible="true" lpeversion="1.3" weight="33.333333" steps="2" helper_size="0" apply_no_weight="true" apply_with_weight="true" only_selected="false" uniform="false"/><inkscape:path-effect effect="bspline" id="path-effect46" is_visible="true" lpeversion="1.3" weight="33.333333" steps="2" helper_size="0" apply_no_weight="true" apply_with_weight="true" only_selected="false" uniform="false"/><inkscape:path-effect effect="bspline" id="path-effect45" is_visible="true" lpeversion="1.3" weight="33.333333" steps="2" helper_size="0" apply_no_weight="true" apply_with_weight="true" only_selected="false" uniform="false"/><inkscape:path-effect effect="bspline" id="path-effect44" is_visible="true" lpeversion="1.3" weight="33.333333" steps="2" helper_size="0" apply_no_weight="true" apply_with_weight="true" only_selected="false" uniform="false"/><inkscape:path-effect effect="bspline" id="path-effect43" is_visible="true" lpeversion="1.3" weight="33.333333" steps="2" helper_size="0" apply_no_weight="true" apply_with_weight="true" only_selected="false" uniform="false"/><inkscape:path-effect effect="bspline" id="path-effect42" is_visible="true" lpeversion="1.3" weight="33.333333" steps="2" helper_size="0" apply_no_weight="true" apply_with_weight="true" only_selected="false" uniform="false"/><inkscape:path-effect effect="bspline" id="path-effect41" is_visible="true" lpeversion="1.3" weight="33.333333" steps="2" helper_size="0" apply_no_weight="true" apply_with_weight="true" only_selected="false" uniform="false"/><inkscape:path-effect effect="bspline" id="path-effect40" is_visible="true" lpeversion="1.3" weight="33.333333" steps="2" helper_size="0" apply_no_weight="true" apply_with_weight="true" only_selected="false" uniform="false"/><inkscape:path-effect effect="bspline" id="path-effect39" is_visible="true" lpeversion="1.3" weight="33.333333" steps="2" helper_size="0" apply_no_weight="true" apply_with_weight="true" only_selected="false" uniform="false"/><inkscape:path-effect effect="bspline" id="path-effect38" is_visible="true" lpeversion="1.3" weight="33.333333" steps="2" helper_size="0" apply_no_weight="true" apply_with_weight="true" only_selected="false" uniform="false"/><inkscape:path-effect effect="bspline" id="path-effect37" is_visible="true" lpeversion="1.3" weight="33.333333" steps="2" helper_size="0" apply_no_weight="true" apply_with_weight="true" only_selected="false" uniform="false"/><inkscape:path-effect effect="bspline" id="path-effect36" is_visible="true" lpeversion="1.3" weight="33.333333" steps="2" helper_size="0" apply_no_weight="true" apply_with_weight="true" only_selected="false" uniform="false"/><inkscape:path-effect effect="bspline" id="path-effect35" is_visible="true" lpeversion="1.3" weight="33.333333" steps="2" helper_size="0" apply_no_weight="true" apply_with_weight="true" only_selected="false" uniform="false"/><inkscape:path-effect effect="bspline" id="path-effect34" is_visible="true" lpeversion="1.3" weight="33.333333" steps="2" helper_size="0" apply_no_weight="true" apply_with_weight="true" only_selected="false" uniform="false"/><inkscape:path-effect effect="bspline" id="path-effect33" is_visible="true" lpeversion="1.3" weight="33.333333" steps="2" helper_size="0" apply_no_weight="true" apply_with_weight="true" only_selected="false" uniform="false"/><inkscape:path-effect effect="bspline" id="path-effect32" is_visible="true" lpeversion="1.3" weight="33.333333" steps="2" helper_size="0" apply_no_weight="true" apply_with_weight="true" only_selected="false" uniform="false"/><inkscape:path-effect effect="bspline" id="path-effect31" is_visible="true" lpeversion="1.3" weight="33.333333" steps="2" helper_size="0" apply_no_weight="true" apply_with_weight="true" only_selected="false" uniform="false"/><inkscape:path-effect effect="bspline" id="path-effect30" is_visible="true" lpeversion="1.3" weight="33.333333" steps="2" helper_size="0" apply_no_weight="true" apply_with_weight="true" only_selected="false" uniform="false"/><inkscape:path-effect effect="bspline" id="path-effect29" is_visible="true" lpeversion="1.3" weight="33.333333" steps="2" helper_size="0" apply_no_weight="true" apply_with_weight="true" only_selected="false" uniform="false"/><inkscape:path-effect effect="bspline" id="path-effect28" is_visible="true" lpeversion="1.3" weight="33.333333" steps="2" helper_size="0" apply_no_weight="true" apply_with_weight="true" only_selected="false" uniform="false"/><inkscape:path-effect effect="bspline" id="path-effect27" is_visible="true" lpeversion="1.3" weight="33.333333" steps="2" helper_size="0" apply_no_weight="true" apply_with_weight="true" only_selected="false" uniform="false"/><inkscape:path-effect effect="bspline" id="path-effect26" is_visible="true" lpeversion="1.3" weight="33.333333" steps="2" helper_size="0" apply_no_weight="true" apply_with_weight="true" only_selected="false" uniform="false"/><inkscape:path-effect effect="bspline" id="path-effect25" is_visible="true" lpeversion="1.3" weight="33.333333" steps="2" helper_size="0" apply_no_weight="true" apply_with_weight="true" only_selected="false" uniform="false"/><inkscape:path-effect effect="bspline" id="path-effect24" is_visible="true" lpeversion="1.3" weight="33.333333" steps="2" helper_size="0" apply_no_weight="true" apply_with_weight="true" only_selected="false" uniform="false"/><inkscape:path-effect effect="bspline" id="path-effect23" is_visible="true" lpeversion="1.3" weight="33.333333" steps="2" helper_size="0" apply_no_weight="true" apply_with_weight="true" only_selected="false" uniform="false"/><inkscape:path-effect effect="bspline" id="path-effect22" is_visible="true" lpeversion="1.3" weight="33.333333" steps="2" helper_size="0" apply_no_weight="true" apply_with_weight="true" only_selected="false" uniform="false"/><inkscape:path-effect effect="bspline" id="path-effect21" is_visible="true" lpeversion="1.3" weight="33.333333" steps="2" helper_size="0" apply_no_weight="true" apply_with_weight="true" only_selected="false" uniform="false"/><inkscape:path-effect effect="bspline" id="path-effect20" is_visible="true" lpeversion="1.3" weight="33.333333" steps="2" helper_size="0" apply_no_weight="true" apply_with_weight="true" only_selected="false" uniform="false"/><inkscape:path-effect effect="bspline" id="path-effect19" is_visible="true" lpeversion="1.3" weight="33.333333" steps="2" helper_size="0" apply_no_weight="true" apply_with_weight="true" only_selected="false" uniform="false"/><inkscape:path-effect effect="bspline" id="path-effect18" is_visible="true" lpeversion="1.3" weight="33.333333" steps="2" helper_size="0" apply_no_weight="true" apply_with_weight="true" only_selected="false" uniform="false"/><inkscape:path-effect effect="bspline" id="path-effect17" is_visible="true" lpeversion="1.3" weight="33.333333" steps="2" helper_size="0" apply_no_weight="true" apply_with_weight="true" only_selected="false" uniform="false"/><inkscape:path-effect effect="bspline" id="path-effect16" is_visible="true" lpeversion="1.3" weight="33.333333" steps="2" helper_size="0" apply_no_weight="true" apply_with_weight="true" only_selected="false" uniform="false"/><inkscape:path-effect effect="bspline" id="path-effect15" is_visible="true" lpeversion="1.3" weight="33.333333" steps="2" helper_size="0" apply_no_weight="true" apply_with_weight="true" only_selected="false" uniform="false"/><inkscape:path-effect effect="bspline" id="path-effect14" is_visible="true" lpeversion="1.3" weight="33.333333" steps="2" helper_size="0" apply_no_weight="true" apply_with_weight="true" only_selected="false" uniform="false"/><inkscape:path-effect effect="bspline" id="path-effect13" is_visible="true" lpeversion="1.3" weight="33.333333" steps="2" helper_size="0" apply_no_weight="true" apply_with_weight="true" only_selected="false" uniform="false"/><inkscape:path-effect effect="bspline" id="path-effect12" is_visible="true" lpeversion="1.3" weight="33.333333" steps="2" helper_size="0" apply_no_weight="true" apply_with_weight="true" only_selected="false" uniform="false"/><inkscape:path-effect effect="bspline" id="path-effect11" is_visible="true" lpeversion="1.3" weight="33.333333" steps="2" helper_size="0" apply_no_weight="true" apply_with_weight="true" only_selected="false" uniform="false"/><inkscape:path-effect effect="bspline" id="path-effect10" is_visible="true" lpeversion="1.3" weight="33.333333" steps="2" helper_size="0" apply_no_weight="true" apply_with_weight="true" only_selected="false" uniform="false"/><inkscape:path-effect effect="bspline" id="path-effect9" is_visible="true" lpeversion="1.3" weight="33.333333" steps="2" helper_size="0" apply_no_weight="true" apply_with_weight="true" only_selected="false" uniform="false"/><inkscape:path-effect effect="bspline" id="path-effect8" is_visible="true" lpeversion="1.3" weight="33.333333" steps="2" helper_size="0" apply_no_weight="true" apply_with_weight="true" only_selected="false" uniform="false"/><inkscape:path-effect effect="bspline" id="path-effect7" is_visible="true" lpeversion="1.3" weight="33.333333" steps="2" helper_size="0" apply_no_weight="true" apply_with_weight="true" only_selected="false" uniform="false"/><inkscape:path-effect effect="bspline" id="path-effect6" is_visible="true" lpeversion="1.3" weight="33.333333" steps="2" helper_size="0" apply_no_weight="true" apply_with_weight="true" only_selected="false" uniform="false"/><inkscape:path-effect effect="bspline" id="path-effect5" is_visible="true" lpeversion="1.3" weight="33.333333" steps="2" helper_size="0" apply_no_weight="true" apply_with_weight="true" only_selected="false" uniform="false"/></defs><g inkscape:label="Layer 1" inkscape:groupmode="layer" id="layer1" transform="translate(67.4194, -70.9677)"><path style="fill:#0000ff;fill-opacity:0;stroke:#00ff00;stroke-width:0.606232;stroke-opacity:1;stroke-dashoffset:0" d="M 27.47 155.851 C 27.9023 156.013 28.3347 156.175 28.5634 156.363 M 28.625 156.42 M 28.5884 157.116 M 27.8302 157.811 M 27.405 158.142 C 27.2326 158.269 27.0428 158.398 26.8171 158.526 C 26.6774 158.605 26.5239 158.684 26.3643 158.763 M 25.3801 159.258 M 24.2479 159.94 C 24.1409 160.004 24.0268 160.07 23.9029 160.14 C 23.6886 160.261 23.4451 160.391 23.1857 160.525 M 21.5779 161.296 M 20.9894 161.55 C 20.5738 161.727 20.1958 161.883 19.8776 162.038 M 19.5715 162.197 M 18.5296 163.002 M 17.9429 163.485 C 17.8813 163.539 17.8223 163.595 17.7666 163.653 C 17.5484 163.882 17.3808 164.157 17.1538 164.401 M 17.1497 164.406 M 16.3591 165.143 M 15.5871 165.98 M 15.4331 166.107 C 15.2327 166.255 15.0092 166.363 14.6564 166.541 C 14.5682 166.586 14.4719 166.635 14.3704 166.687 M 13.0787 167.325 M 12.1698 167.701 C 12.047 167.751 11.9166 167.807 11.7698 167.872 C 11.567 167.964 11.333 168.075 11.0629 168.195 M 9.55304 168.759 M 8.76786 168.967 C 8.37471 169.062 7.96873 169.15 7.58444 169.232 M 6.46505 169.482 M 5.25515 169.885 C 5.1036 169.954 4.96249 170.027 4.81285 170.107 C 4.6123 170.213 4.39646 170.332 4.18458 170.455 M 3.44082 170.924 M 2.50468 171.676 M 2.22453 171.873 C 1.97805 172.041 1.67279 172.242 1.23826 172.581 M 1.17895 172.627 M -0.635148 174.121 C -0.791837 174.248 -0.942454 174.369 -1.08232 174.477 C -1.27257 174.624 -1.44294 174.749 -1.59702 174.857 M -2.52289 175.449 M -3.5823 176.025 M -3.69218 176.068 C -4.00882 176.188 -4.40821 176.314 -4.8395 176.46 M -5.49123 176.691 M -7.09743 177.34 C -7.29116 177.418 -7.48375 177.493 -7.67434 177.562 C -7.86423 177.631 -8.05212 177.694 -8.23771 177.754 M -9.71737 178.248 M -10.5092 178.593 C -10.8485 178.753 -11.1642 178.915 -11.4447 179.047 C -11.4983 179.072 -11.5505 179.096 -11.6016 179.119 M -12.6616 179.601 M -13.7295 180.269 M -13.7307 180.269 C -14.0429 180.465 -14.4155 180.681 -14.7642 180.902 M -15.0967 181.12 M -16.3394 181.995 M -16.7809 182.243 C -17.1501 182.438 -17.5431 182.625 -17.8591 182.796 M -17.8684 182.801 M -18.9067 183.438 M -19.7828 183.967 M -19.9193 184.072 C -20.1277 184.239 -20.3169 184.427 -20.5379 184.61 C -20.6366 184.692 -20.7417 184.773 -20.847 184.853 M -21.3592 185.256 M -21.9851 186.416 M -22.1023 186.833 C -22.1968 187.19 -22.2951 187.605 -22.3824 188.013 M -22.6146 189.281 M -22.5952 190.406 C -22.5627 190.5 -22.52 190.586 -22.4685 190.675 C -22.3371 190.903 -22.1484 191.154 -21.9101 191.397 M -21.5889 191.693 M -20.2992 192.632 M -20.0037 192.889 C -19.7339 193.153 -19.5296 193.454 -19.4605 193.839 C -19.4547 193.871 -19.4499 193.904 -19.4461 193.937 M -20.5349 195.314 M -21.0146 195.418 C -21.3744 195.474 -21.7899 195.503 -22.2232 195.511 M -24.6444 195.389 C -24.6526 195.388 -24.6609 195.387 -24.6691 195.386 C -25.144 195.331 -25.5229 195.267 -25.8407 195.199 M -27.0391 194.868 M -28.1227 194.415 C -28.2385 194.329 -28.3436 194.226 -28.4346 194.097 C -28.5651 193.912 -28.6669 193.675 -28.7565 193.406 M -29.1423 192.011 M -29.44 191.081 C -29.6043 190.624 -29.7781 190.223 -29.9293 189.972 M -29.9365 189.96 M -30.5594 189.562" id="path40"/><path style="fill:#0000ff;fill-opacity:0;stroke:#00ff00;stroke-width:0.606232;stroke-opacity:1;stroke-dashoffset:0" d="M 26.9144 155.259 C 26.7112 155.29 26.508 155.322 26.0456 155.512 C 25.9603 155.547 25.8661 155.588 25.7662 155.633 M 24.3706 156.305 M 23.5807 156.683 C 23.4491 156.731 23.3105 156.77 23.1465 156.8 C 22.9275 156.841 22.6632 156.866 22.3884 156.878 M 21.448 156.866 M 19.9834 156.636 C 19.9653 156.633 19.947 156.63 19.9286 156.627 C 19.6248 156.576 19.2737 156.525 18.7794 156.513 M 17.0703 156.596 M 16.3619 156.679 C 15.9822 156.727 15.5762 156.786 15.1621 156.85 M 12.7727 157.269 C 12.4089 157.34 12.0714 157.411 11.777 157.476 C 11.7117 157.491 11.6486 157.505 11.5875 157.52 M 9.65396 158.18 M 9.33831 158.381 C 9.19957 158.474 9.07715 158.557 8.92766 158.634 C 8.72346 158.74 8.46878 158.836 8.25946 158.927 M 8.12621 158.988 M 7.62238 159.299 M 7.05362 159.644 M 6.24192 160.22 M 6.2214 160.234 C 5.93638 160.415 5.64637 160.559 5.3569 160.787 C 5.30943 160.824 5.26197 160.864 5.21459 160.905 M 4.48447 161.578 M 3.68965 162.16 M 3.34603 162.444 C 3.19431 162.573 3.02153 162.718 2.79621 162.883 C 2.67042 162.975 2.52824 163.073 2.37871 163.174 M 1.36405 163.866 M 0.418957 164.6 C 0.39244 164.62 0.36639 164.639 0.340725 164.658 C 0.0725522 164.854 -0.153492 164.968 -0.3988 165.161 C -0.454378 165.205 -0.510943 165.253 -0.568327 165.304 M -1.178 165.84 M -2.00531 166.421 M -2.46413 166.808 C -2.64176 166.962 -2.85214 167.144 -3.12602 167.362 C -3.21201 167.431 -3.30426 167.503 -3.40071 167.578 M -4.98865 168.714 M -5.39299 168.96 C -5.67444 169.119 -5.87629 169.203 -6.12683 169.318 C -6.23787 169.369 -6.35848 169.427 -6.48318 169.487 M -7.30704 169.895 M -8.44582 170.408 M -8.68677 170.494 C -9.03863 170.617 -9.45102 170.752 -9.83021 170.896 M -10.1221 171.013 M -11.5765 171.734 M -12.0193 171.936 C -12.4043 172.105 -12.8061 172.272 -13.1292 172.426 M -13.1824 172.452 M -14.228 173.067 M -15.1869 173.686 M -15.1941 173.692 C -15.4895 173.915 -15.7511 174.173 -16.1332 174.46 M -16.161 174.48 M -17.4891 175.395 M -18.0931 175.884 C -18.2011 175.976 -18.3015 176.062 -18.4024 176.139 C -18.6169 176.304 -18.8339 176.432 -19.0721 176.596 M -19.2297 176.709 M -20.4171 177.532 M -21.1194 177.882 C -21.505 178.059 -21.9053 178.228 -22.2274 178.374 M -22.2485 178.383 M -23.7198 179.017 M -24.4785 179.268 C -24.859 179.39 -25.2657 179.519 -25.6293 179.65 M -25.9828 179.784 M -27.4589 180.548 M -27.7997 180.722 C -28.1077 180.873 -28.4224 181.015 -28.7281 181.191 C -28.7777 181.22 -28.8271 181.249 -28.8761 181.28 M -29.9005 181.993 M -30.7946 182.725 M -30.8061 182.738 C -31.0247 182.985 -31.206 183.29 -31.4728 183.749 M -31.5606 183.901 M -32.6948 185.843 C -32.7213 185.889 -32.7479 185.934 -32.7745 185.98" id="path41"/><path style="fill:#0000ff;fill-opacity:0;stroke:#00ff00;stroke-width:0.606232;stroke-opacity:1;stroke-dashoffset:0" d="M 0.598068 164.317 C 0.608896 164.203 0.619716 164.088 0.566205 164.055 C 0.512694 164.021 0.394842 164.068 0.033491 164.144 C -0.0737849 164.167 -0.20252 164.192 -0.353061 164.219 M -1.79426 164.427 M -2.75643 164.527 C -3.1563 164.564 -3.57035 164.598 -3.96472 164.624 M -4.65138 164.665 M -6.38796 164.712 C -6.54904 164.715 -6.71018 164.72 -6.87536 164.726 C -7.10612 164.735 -7.34474 164.749 -7.59927 164.768 M -9.46612 165.003 M -10.0001 165.097 C -10.379 165.166 -10.7817 165.244 -11.1912 165.327 M -13.1698 165.732 M -13.5661 165.813 C -13.9921 165.899 -14.3895 165.98 -14.7535 166.057 M -16.084 166.374 M -17.079 166.73 C -17.2969 166.824 -17.5049 166.921 -17.7374 167.025 C -17.8803 167.089 -18.0324 167.155 -18.1872 167.222 M -19.3926 167.787 M -20.2425 168.466 C -20.2556 168.48 -20.2687 168.494 -20.2819 168.508 C -20.5139 168.76 -20.7641 169.04 -20.6336 169.369 C -20.6145 169.417 -20.5872 169.466 -20.5514 169.515 M -18.9826 170.012 M -18.2741 169.917 C -17.9088 169.85 -17.5088 169.755 -17.0912 169.653 M -15.0571 169.192 M -14.7231 169.137 C -14.2996 169.073 -13.8907 169.035 -13.5164 169.028 M -11.8404 169.423 M -11.5813 170.019 C -11.5523 170.362 -11.6423 170.775 -11.7693 171.21 M -11.9559 171.806" id="path42"/><g inkscape:label="Hershey Text" style="fill:none;stroke:#000000;stroke-linecap:round;stroke-linejoin:round" id="g8672"><g transform="translate(41.5233, 86.2337)" id="g8670"/></g><g inkscape:label="Hershey Text" style="fill:none;stroke:#000000;stroke-linecap:round;stroke-linejoin:round" id="g8698"><g transform="translate(25.0393, 154.035)" id="g8696"/></g><g inkscape:label="Hershey Text" style="fill:none;stroke:#000000;stroke-linecap:round;stroke-linejoin:round" transform="rotate(-28.381)" id="g8724"><g transform="translate(-103.78, 149.322)" id="g8722"/></g><g inkscape:label="Hershey Text" style="fill:none;stroke:#000000;stroke-linecap:round;stroke-linejoin:round" id="g8752"><g transform="translate(-48.7443, 199.739)" id="g8750"/></g><g inkscape:label="Hershey Text" style="fill:none;stroke:#000000;stroke-linecap:round;stroke-linejoin:round" transform="rotate(-81.4809)" id="g8768"><g transform="translate(-188.699, -7.93831)" id="g8766"/></g><g inkscape:label="Hershey Text" style="fill:none;stroke:#000000;stroke-linecap:round;stroke-linejoin:round" transform="rotate(-64.5391)" id="g8784"><g transform="translate(-133.853, 78.1646)" id="g8782"/></g><g inkscape:label="Hershey Text" style="fill:none;stroke:#000000;stroke-linecap:round;stroke-linejoin:round" transform="rotate(-33.0744)" id="g8800"><g transform="translate(-56.9327, 138.846)" id="g8798"/></g><g inkscape:label="Hershey Text" style="fill:none;stroke:#000000;stroke-linecap:round;stroke-linejoin:round" transform="rotate(6.11656)" id="g8824"><g transform="translate(-6.21621, 153.011)" id="g8822"/></g><g inkscape:label="Hershey Text" style="fill:none;stroke:#000000;stroke-linecap:round;stroke-linejoin:round" id="g8852"><g transform="translate(114.802, 81.6861)" id="g8850"/></g><g inkscape:label="Hershey Text" style="fill:none;stroke:#000000;stroke-linecap:round;stroke-linejoin:round" id="g8880"><g transform="translate(92.0641, 147.524)" id="g8878"/></g></g></svg>