<?xml version="1.0" encoding="UTF-8" standalone="no"?>
<!-- Created with Inkscape (http://www.inkscape.org/) -->

<svg
   version="1.1"
   id="svg2"
   width="313"
   height="73"
   viewBox="0 0 313 73"
   sodipodi:docname="signature.svg"
   inkscape:version="1.2.2 (732a01da63, 2022-12-09)"
   xmlns:inkscape="http://www.inkscape.org/namespaces/inkscape"
   xmlns:sodipodi="http://sodipodi.sourceforge.net/DTD/sodipodi-0.dtd"
   xmlns="http://www.w3.org/2000/svg"
   xmlns:svg="http://www.w3.org/2000/svg">
  <defs
     id="defs6" />
  <sodipodi:namedview
     id="namedview4"
     pagecolor="#ffffff"
     bordercolor="#000000"
     borderopacity="0.25"
     inkscape:showpageshadow="2"
     inkscape:pageopacity="0.0"
     inkscape:pagecheckerboard="0"
     inkscape:deskcolor="#d1d1d1"
     showgrid="false"
     inkscape:zoom="3.8658147"
     inkscape:cx="145.24752"
     inkscape:cy="36.473554"
     inkscape:window-width="1920"
     inkscape:window-height="1009"
     inkscape:window-x="-8"
     inkscape:window-y="-8"
     inkscape:window-maximized="1"
     inkscape:current-layer="g8" />
  <g
     inkscape:groupmode="layer"
     inkscape:label="Image"
     id="g8">
    <path
       style="fill:#000000"
       d="M 108.0453,71.461907 C 90.788285,67.936087 78.646417,52.586017 86.452255,44.163379 c 3.52916,-3.808036 4.54775,-3.311009 4.54775,2.219118 0,8.45057 6.88454,13.95454 18.634535,14.89772 7.88316,0.63279 11.15503,-0.20692 12.52541,-3.21457 2.28693,-5.01926 -4.5584,-13.835888 -22.333445,-28.764986 -5.63036,-4.728886 -9.8265,-11.411238 -9.8265,-15.648689 0,-12.76684239 20.491575,-15.4891914 31.761215,-4.2195454 C 123.54255,11.213753 125,13.70513 125,14.968819 v 2.297616 l -3.8475,-1.903593 C 113.718,11.684548 102,12.064044 102,15.983108 c 0,0.83339 2.1375,3.429757 4.75,5.769705 11.71911,10.496495 19.09859,18.773933 22.11012,24.800522 5.49866,11.003792 3.84045,20.108802 -4.27802,23.490032 -4.48034,1.866 -11.4292,2.46208 -16.5368,1.41854 z m 40.48699,-1.25493 c -2.89204,-4.41381 -4.5104,-12.12964 -4.54929,-21.689621 -0.0366,-9.007037 -0.19616,-9.707564 -3.0742,-13.5 l -3.03555,-4 2.91876,-0.302573 2.91876,-0.302572 0.58778,-9.072479 c 0.48268,-7.450204 0.97819,-9.488047 2.77111,-11.3965264 2.26318,-2.409043 10.5949,-5.810301 11.29045,-4.6091 0.21759,0.375787 -0.18212,4.05825 -0.88826,8.1832504 -0.70614,4.125 -1.43868,9.975 -1.62787,13 l -0.34398,5.5 9.57872,0.284146 9.57872,0.284146 0.97963,-13.169745 c 0.89471,-12.0282304 1.18445,-13.3356054 3.34272,-15.0832674 2.94665,-2.386052 10.73734,-2.244545 10.16973,0.18472 -1.17538,5.030441 -3.14152,19.1217524 -3.13939,22.5000004 0.002,3.395293 0.45509,4.257528 2.99619,5.70349 3.87817,2.206788 3.77352,3.151425 -0.65213,5.886626 l -3.64581,2.253234 0.65395,13.699121 c 0.56507,11.83729 0.43759,13.87869 -0.93801,15.02034 -3.97236,3.29676 -8.30445,-5.59314 -9.16758,-18.81281 l -0.53865,-8.250001 h -10.51117 -10.51117 l 0.68337,13.616911 c 0.62047,12.36337 0.5194,13.7413 -1.09787,14.96819 -2.45451,1.86204 -3.01091,1.75712 -4.74896,-0.89548 z m 155.78487,-0.76267 c -2.99145,-1.48005 -6.16662,-4.8576 -12.08807,-12.85855 l -8.03094,-10.851254 -4.73195,-0.376347 -4.73194,-0.376347 0.67034,11.212538 c 0.62801,10.50439 0.54582,11.27917 -1.30138,12.26777 -3.21917,1.72284 -3.82943,1.31419 -6.65163,-4.45418 -2.69333,-5.50497 -2.69512,-5.52418 -2.21643,-23.750002 0.2635,-10.032318 0.82508,-19.050389 1.24797,-20.040156 0.4229,-0.989768 2.2982,-2.838769 4.16736,-4.108892 l 3.39846,-2.309315 -6.17757,-0.560163 c -5.92139,-0.536932 -10.7331,-2.807218 -11.62581,-5.4853474 -0.77515,-2.325453 10.70752,-4.641346 23.25443,-4.690089 10.4547,-0.04061 12.5151,0.231842 16,2.115754 10.92032,5.9034474 16.52873,18.5800304 12.05108,27.2388454 -1.71125,3.309198 -7.55611,8.648216 -10.48537,9.57793 C 295.92957,42.357098 295,42.983706 295,43.388963 c 0,1.261573 6.02523,10.343734 11.12558,16.770184 5.07689,6.3969 5.76664,8.37284 3.56156,10.20289 -0.97052,0.80547 -2.37078,0.56616 -5.36998,-0.91773 z M 288.43743,33.467479 C 295.93588,30.646042 299,27.681998 299,23.249902 c 0,-2.434388 -0.8346,-4.157964 -3.03352,-6.26466 -2.63296,-2.522537 -3.9534,-2.958275 -10,-3.299938 C 281.55589,13.436084 279,13.673404 279,14.33215 c 0,1.30447 -1.84521,15.696979 -2.50852,19.566244 -0.47403,2.765157 -0.36312,2.859361 2.75731,2.342099 1.78817,-0.296417 5.92305,-1.544273 9.18864,-2.773014 z M 17.252769,69.267357 c -2.587264,-3.25976 -3.626861,-9.69055 -3.392027,-20.982571 0.230988,-11.107101 0.102862,-11.973396 -2.403395,-16.25 -2.5844068,-4.409956 -2.5975478,-4.51743 -0.552369,-4.51743 1.781645,0 2.095023,-0.60547 2.095023,-4.047749 0,-3.092654 0.624348,-4.626375 2.646023,-6.5 l 2.646022,-2.452251 h -4.457964 c -4.7295348,0 -6.4287418,-1.434229 -10.0704048,-8.5000004 l -1.546185,-3 H 25.075663 c 22.285184,0 22.914007,0.0557 25.085698,2.222222 1.225141,1.222222 1.945088,2.504663 1.599882,2.849869 -2.224097,2.2240974 -14.530055,5.4279094 -20.848795,5.4279094 h -6.996576 l 0.292065,7.75 0.292064,7.75 10.125427,0.283608 c 8.506885,0.238273 10.404501,0.59198 11.871281,2.212755 4.01056,4.431618 -2.415187,8.003637 -14.397837,8.003637 h -8.098871 v 14.893011 c 0,12.65799 -0.237382,14.9841 -1.581787,15.5 -2.43176,0.93315 -4.077,0.72835 -5.165445,-0.64301 z m 50.836003,-1.14304 c -3.139692,-3.7831 -4.064976,-11.99121 -4.076902,-36.165831 -0.009,-18.27934 0.30302,-24.4895084 1.298943,-25.8515144 0.811954,-1.110412 3.131415,-1.997851 6.094664,-2.331852 l 4.783852,-0.539209 -0.742813,6.8907224 c -0.408547,3.789898 -0.788646,18.590723 -0.844664,32.890723 l -0.101851,26.000001 -2.585596,0.30056 c -1.422078,0.1653 -3.143612,-0.37181 -3.825633,-1.1936 z m 139.243248,-0.0168 C 204.97322,66.379027 201,60.456197 201,58.668457 c 0,-0.74409 1.49532,-0.90787 4.51275,-0.49429 l 4.51274,0.61854 -1.99078,-4.38767 c -1.43206,-3.15625 -2.00689,-6.632905 -2.04818,-12.387671 -0.0359,-5.004067 -0.5926,-8.936229 -1.48653,-10.5 -1.82214,-3.187502 -1.84018,-4 -0.0888,-4 2.2682,0 2.68082,-11.91773 0.50202,-14.5 -0.92812,-1.1 -2.58993,-3.8000004 -3.6929,-6.0000004 l -2.00541,-4 22.40979,0.146284 c 19.25708,0.125704 22.77533,0.385795 25.00809,1.848753 2.18559,1.432056 2.3814,1.913331 1.23276,3.030017 -2.75638,2.6796964 -13.62538,5.4749464 -21.28869,5.4749464 h -7.48623 l -0.50133,3.25 c -0.27573,1.7875 -0.77369,5.3875 -1.10659,8 l -0.60526,4.75 h 11.00457 c 10.17668,0 11.11954,0.164143 12.5328,2.18185 3.25203,4.642931 -3.02375,7.81815 -15.45249,7.81815 h -9.13698 l 0.33732,10.134916 0.33733,10.134915 11,-0.61786 c 6.05,-0.33982 12.82924,-0.89861 15.06498,-1.24176 3.60132,-0.55275 4.25588,-0.33256 5.73872,1.93054 0.92056,1.40495 1.39929,3.26968 1.06384,4.14384 -1.30517,3.40122 -5.71011,4.36858 -22.93704,5.03716 -14.59137,0.56629 -17.23003,0.43758 -19.09848,-0.9316 z"
       id="path293" />
  </g>
</svg>
