<?xml version="1.0" encoding="UTF-8" standalone="no"?>
<!-- Created with Inkscape (http://www.inkscape.org/) -->

<svg
   width="297mm"
   height="210mm"
   viewBox="0 0 296.99999 210"
   version="1.1"
   id="svg5"
   xml:space="preserve"
   inkscape:version="1.2.2 (732a01da63, 2022-12-09)"
   sodipodi:docname="logo.svg"
   xmlns:inkscape="http://www.inkscape.org/namespaces/inkscape"
   xmlns:sodipodi="http://sodipodi.sourceforge.net/DTD/sodipodi-0.dtd"
   xmlns="http://www.w3.org/2000/svg"
   xmlns:svg="http://www.w3.org/2000/svg"><sodipodi:namedview
     id="namedview7"
     pagecolor="#ffffff"
     bordercolor="#000000"
     borderopacity="0.25"
     inkscape:showpageshadow="2"
     inkscape:pageopacity="0.0"
     inkscape:pagecheckerboard="0"
     inkscape:deskcolor="#d1d1d1"
     inkscape:document-units="mm"
     showgrid="false"
     inkscape:zoom="0.70710678"
     inkscape:cx="465.27626"
     inkscape:cy="422.14275"
     inkscape:window-width="1920"
     inkscape:window-height="1018"
     inkscape:window-x="-8"
     inkscape:window-y="-8"
     inkscape:window-maximized="1"
     inkscape:current-layer="layer1" /><defs
     id="defs2" /><g
     inkscape:label="Layer 1"
     inkscape:groupmode="layer"
     id="layer1"><path
       style="fill:#000000;stroke-width:0.158411"
       d="m 26.315396,208.83518 c -0.435631,-0.16962 -0.8636,-0.39797 -0.951042,-0.50743 -0.08744,-0.10948 -0.265654,-0.2222 -0.396028,-0.25051 -0.841076,-0.1826 -1.738912,-1.95017 -2.267104,-4.46326 -0.210587,-1.00195 -0.860717,-3.46128 -1.444732,-5.46519 -0.584015,-2.0039 -1.586537,-5.6038 -2.227826,-7.99977 -1.767251,-6.60278 -3.068674,-10.71659 -4.009125,-12.67291 -0.314128,-0.65345 -0.561481,-1.22642 -0.549673,-1.27326 0.01181,-0.0469 -0.146404,-0.0991 -0.351583,-0.11607 -0.245884,-0.0204 -0.512063,0.13433 -0.780849,0.45377 -0.224288,0.26654 -0.408192,0.53263 -0.408674,0.59129 -4.75e-4,0.0587 -0.21398,1.46107 -0.47444,3.11647 -0.344606,2.1902 -0.518898,4.04511 -0.64004,6.81169 -0.09156,2.09103 -0.305775,4.83758 -0.476028,6.10346 -0.246414,1.83216 -0.309551,3.22798 -0.309551,6.8435 0,2.63327 -0.07136,4.87465 -0.169818,5.33372 -0.199289,0.92926 -1.0088082,2.1431 -1.3435743,2.01463 -0.1239328,-0.0476 -0.2083662,-0.0131 -0.1876298,0.0764 0.076819,0.33192 -1.5069572,0.7762 -2.7344961,0.76709 -1.6238578,-0.012 -2.166459,-0.23105 -2.8148444,-1.1361 -0.8557058,-1.19443 -1.1135391,-2.0868 -1.0239806,-3.54398 0.042297,-0.6882 0.1376428,-1.36843 0.2118803,-1.51162 0.074237,-0.14319 0.2091379,-0.92732 0.2997793,-1.74253 0.090641,-0.8152 0.2682655,-2.05245 0.3947206,-2.74946 0.1264548,-0.69701 0.3438383,-2.22964 0.4830743,-3.40585 0.1392359,-1.1762 0.3478954,-2.6019 0.4636876,-3.16822 0.1157922,-0.56632 0.2920276,-1.67124 0.3916345,-2.45538 0.099607,-0.78414 0.3582526,-2.70883 0.5747686,-4.27711 0.216516,-1.56827 0.4641909,-3.38604 0.5503889,-4.03949 0.3548788,-2.69025 0.9559545,-6.13929 1.1732907,-6.73248 0.1276891,-0.3485 0.2352909,-1.10056 0.2391151,-1.67124 0.00382,-0.57067 0.082069,-1.11271 0.1738769,-1.20451 0.281231,-0.28124 0.7690407,-2.97356 0.7476622,-4.12649 -0.01712,-0.92328 0.047778,-1.20962 0.4271243,-1.88446 0.4921261,-0.87547 1.0744982,-1.32512 2.3384119,-1.80551 1.179068,-0.44814 1.778285,-0.40064 3.136035,0.24859 1.330059,0.63599 1.751034,0.97477 2.347816,1.88941 0.635408,0.97383 0.762394,1.19524 1.271948,2.21776 0.260507,0.52276 0.690626,1.34253 0.955818,1.82173 0.673647,1.21726 2.174039,4.83042 2.401028,5.78201 0.103913,0.43563 0.469065,1.64748 0.811449,2.693 0.660777,2.01776 2.41151,8.19031 3.369793,11.88085 0.691462,2.66296 1.955911,6.73669 2.173592,7.00276 0.08598,0.10509 0.103533,0.27649 0.03901,0.3809 -0.07256,0.11742 -0.0502,0.14835 0.05861,0.0811 0.09756,-0.0603 0.292996,0.07 0.438724,0.29235 0.426876,0.6515 0.839485,0.53684 1.563726,-0.43454 0.169232,-0.22699 0.360341,-0.38015 0.424685,-0.34039 0.06434,0.0398 0.168573,-0.0111 0.231618,-0.11317 0.07159,-0.11583 0.04596,-0.14303 -0.06826,-0.0724 -0.283024,0.17492 -0.228933,0.0441 0.430691,-1.04167 0.337466,-0.55548 0.873001,-1.52512 1.190076,-2.15474 0.317075,-0.62962 0.658769,-1.14478 0.759321,-1.14478 0.100552,0 0.136511,-0.0463 0.07991,-0.1029 -0.0566,-0.0566 0.47665,-1.215 1.185005,-2.57418 3.058374,-5.86845 4.067153,-8.20928 6.389867,-14.82737 2.188874,-6.23674 2.347658,-6.49829 4.181257,-6.88741 0.864748,-0.18352 1.103919,-0.17615 1.96578,0.0605 1.337771,0.36737 2.523881,1.17853 3.059332,2.0922 1.036726,1.76904 2.337594,5.66998 3.137262,9.40779 0.557865,2.60757 0.966574,5.09863 1.767356,10.77198 0.796918,5.64597 1.092465,6.99538 2.007053,9.16387 0.530125,1.25692 0.646123,1.71628 0.652095,2.5823 0.0062,0.89906 -0.06134,1.16351 -0.460981,1.80498 -0.622273,0.99882 -1.289367,1.33951 -2.622806,1.33951 -1.140497,0 -2.467985,-0.4316 -3.127667,-1.0169 -0.408608,-0.36254 -0.896769,-1.19943 -0.701869,-1.20328 0.06758,-0.002 0.04372,-0.0548 -0.05303,-0.11881 -0.534887,-0.35389 -1.279137,-2.51331 -1.568825,-4.5519 -0.123808,-0.87126 -0.437203,-2.93853 -0.696432,-4.59393 -0.259229,-1.6554 -0.616629,-4.32859 -0.794219,-5.94043 -0.327888,-2.97594 -0.827695,-5.91146 -1.137601,-6.68149 -0.404263,-1.00448 -1.07231,-0.55168 -1.80579,1.22394 -1.438247,3.48175 -1.86098,4.46568 -2.923275,6.80405 -0.633288,1.39402 -1.20799,2.67715 -1.277116,2.85141 -0.06913,0.17425 -0.478294,1.06531 -0.909264,1.98014 -0.430967,0.91482 -0.983414,2.12667 -1.227659,2.69299 -0.68699,1.59291 -4.40343,8.06757 -4.571232,7.96386 -0.08209,-0.0507 -0.09822,-0.01 -0.03585,0.0913 0.196335,0.31768 -2.06429,3.59763 -2.892389,4.19659 -1.330006,0.96198 -2.603161,1.14161 -4.062964,0.57323 z M 150.03466,206.6238 c -0.26138,-0.0665 -0.74697,-0.12936 -1.07909,-0.13967 -0.91468,-0.0284 -2.27564,-0.73891 -2.72002,-1.42003 -0.75541,-1.15791 -0.84775,-2.02914 -0.87561,-8.2618 -0.0142,-3.18011 -0.034,-6.49487 -0.0439,-7.36613 -0.01,-0.87126 6.3e-4,-2.61775 0.0237,-3.88108 0.0378,-2.08178 0.004,-2.42201 -0.36422,-3.63177 -0.69574,-2.28749 -0.44051,-3.84921 0.81814,-5.00613 0.84421,-0.77599 1.42339,-0.92549 3.17952,-0.82071 2.03802,0.12158 2.79815,0.50168 3.3974,1.69885 0.60503,1.20874 0.97256,3.71227 0.84071,5.72677 -0.1299,1.9848 -0.039,2.36322 0.5568,2.31781 0.24804,-0.0189 0.42148,-0.0639 0.38541,-0.0999 -0.0361,-0.0361 0.10254,-0.28845 0.30802,-0.56085 0.20548,-0.27241 0.56707,-0.95864 0.80354,-1.52497 0.74722,-1.78958 1.4316,-3.01726 3.13493,-5.6236 2.12235,-3.24748 2.17191,-3.30641 3.20602,-3.81236 0.77628,-0.3798 1.00414,-0.41814 2.10621,-0.35433 1.53519,0.0889 2.49436,0.52184 3.59823,1.62427 0.64179,0.64096 0.94664,1.14614 1.53414,2.54242 0.86816,2.06328 1.82841,5.18263 2.50141,8.1256 0.73233,3.20256 1.33518,4.4681 2.12838,4.4681 0.36832,0 1.83865,-1.43908 2.42777,-2.37617 0.13691,-0.21781 0.41036,-0.57424 0.60763,-0.79205 0.19729,-0.21782 0.50191,-0.71992 0.67694,-1.11577 0.39832,-0.90079 2.74495,-3.60768 3.04959,-3.51777 0.0738,0.0218 0.12006,-0.0139 0.10281,-0.0792 -0.0644,-0.2437 0.21802,-0.83291 0.35779,-0.74653 0.0798,0.0494 0.1069,-0.0101 0.0601,-0.1321 -0.0468,-0.12201 0.22691,-0.60687 0.60828,-1.0775 0.38138,-0.47062 0.75911,-0.97516 0.83939,-1.12122 0.0803,-0.14604 0.512,-0.68067 0.95936,-1.18808 0.44735,-0.50739 1.03742,-1.1837 1.31128,-1.50288 0.27384,-0.31919 0.86424,-0.81542 1.31199,-1.10275 0.72127,-0.46283 0.94209,-0.52304 1.93617,-0.52795 0.84867,-0.004 1.32418,0.0857 1.95158,0.36889 0.46942,0.21187 0.78544,0.44574 0.72798,0.53871 -0.0559,0.0905 -0.0254,0.11727 0.0679,0.0596 0.26454,-0.1635 1.03819,0.58245 1.51759,1.46329 0.32207,0.59172 0.4941,1.24486 0.66063,2.50808 0.12384,0.93941 0.37057,2.41297 0.54827,3.27457 0.17771,0.86158 0.43098,2.92885 0.56282,4.59393 0.28792,3.63603 0.55242,5.16061 1.29305,7.45303 0.63548,1.96698 1.06899,2.54011 2.04536,2.7042 1.21091,0.20347 1.4014,0.31457 1.76637,1.03022 0.95264,1.86799 -0.0962,4.47829 -2.14301,5.33352 -0.82079,0.34295 -2.65825,0.28998 -3.71991,-0.10726 -1.77539,-0.66425 -2.54377,-1.55888 -4.15017,-4.83211 -0.92796,-1.89082 -1.4133,-3.63073 -2.07688,-7.44534 -0.75692,-4.35116 -0.81992,-4.55082 -1.55096,-4.91552 -0.27283,-0.1361 -0.41835,-0.16975 -0.32335,-0.0747 0.12467,0.12467 0,0.35801 -0.44629,0.83896 -1.19088,1.2818 -2.46857,2.94623 -4.35744,5.67634 -2.85245,4.12288 -3.35678,4.95211 -3.8729,6.36796 -0.7097,1.94694 -1.25551,2.68762 -1.75362,2.37978 -0.0948,-0.0586 -0.12259,-0.0298 -0.0634,0.0659 0.30195,0.48856 -3.03494,0.68159 -3.60494,0.20852 -0.11169,-0.0927 -0.24289,-0.12871 -0.29155,-0.08 -0.16101,0.16102 -1.72179,-0.72651 -1.60628,-0.9134 0.0643,-0.10403 0.0383,-0.1332 -0.063,-0.0706 -0.20492,0.12665 -0.87868,-0.71437 -1.21267,-1.5137 -0.13046,-0.31223 -0.38043,-1.37767 -0.55547,-2.36765 -0.17506,-0.98997 -0.56556,-2.5329 -0.86781,-3.42871 -0.30223,-0.89582 -0.7365,-2.49974 -0.96503,-3.56426 -0.803,-3.74063 -1.64355,-6.00582 -2.30664,-6.21627 -0.24064,-0.0764 -0.45654,0.0101 -0.76671,0.30732 -0.23746,0.22751 -0.4917,0.35918 -0.56498,0.29262 -0.0733,-0.0666 -0.0834,-0.0344 -0.0226,0.0716 0.0608,0.10592 -0.0249,0.46234 -0.1905,0.79206 -0.16561,0.32972 -0.42578,0.99154 -0.57816,1.47074 -0.45153,1.41993 -1.06115,2.6947 -1.23678,2.58616 -0.0942,-0.0582 -0.11456,-0.0227 -0.0484,0.0844 0.0635,0.10278 -0.19681,0.69739 -0.58596,1.33837 -0.38515,0.63439 -0.9262,1.86312 -1.20238,2.73055 -0.47259,1.48441 -0.91407,2.70234 -1.37557,3.79487 -0.11041,0.26138 -0.2866,0.76038 -0.39153,1.10888 -0.10493,0.34851 -0.2861,0.8475 -0.40261,1.10888 -0.35773,0.80255 -0.70889,1.84629 -1.0393,3.08902 -0.43925,1.65211 -0.86579,2.24059 -2.05453,2.83462 -0.97907,0.48923 -1.53076,0.5647 -2.43894,0.33361 z m 36.30261,-30.3288 c 0,-0.12686 -0.0606,-0.19322 -0.13461,-0.14747 -0.074,0.0457 -0.0936,0.14954 -0.0435,0.23065 0.12809,0.20726 0.17806,0.18393 0.17806,-0.0832 z M 65.363793,206.25201 c -0.56632,-0.19573 -1.014648,-0.43327 -0.996284,-0.52786 0.01837,-0.0946 -0.07824,-0.16251 -0.21468,-0.151 -0.136442,0.0116 -0.454397,-0.2309 -0.706569,-0.53875 -1.653859,-2.01902 -1.664613,-6.74872 -0.02988,-13.14042 0.390302,-1.52605 0.80901,-3.17438 0.930463,-3.66297 0.265649,-1.06868 1.604756,-4.48542 2.445679,-6.24017 1.329954,-2.77523 3.234394,-5.48256 4.488361,-6.38059 0.885736,-0.63433 3.793034,-1.95187 4.512589,-2.04503 0.722313,-0.0935 3.256526,0.67125 3.094272,0.93379 -0.06645,0.10751 -0.03501,0.12958 0.08179,0.0574 0.267748,-0.16548 1.162837,0.55949 1.479332,1.19818 0.14539,0.29339 0.441103,0.94067 0.657141,1.4384 0.508416,1.17133 1.112423,1.92434 2.007311,2.50252 1.311263,0.84719 1.903702,1.87041 2.292013,3.95865 0.121509,0.65345 0.401579,1.93658 0.622379,2.85141 0.220798,0.91482 0.618092,3.16031 0.882874,4.98996 0.367962,2.54264 0.669224,3.96129 1.27831,6.01963 1.266883,4.28127 1.22947,5.92251 -0.156107,6.84814 -1.044393,0.69769 -2.635024,0.29989 -3.899558,-0.97525 -1.335297,-1.34649 -2.610565,-3.31018 -2.765259,-4.25798 -0.422792,-2.5905 -1.29929,-5.49599 -1.657974,-5.49599 -0.421398,0 -1.011889,0.65555 -1.599201,1.77541 -0.922705,1.75938 -2.981325,5.08919 -4.239895,6.85801 -1.622739,2.28063 -2.976513,3.60262 -4.11714,4.02046 -1.252962,0.459 -2.999447,0.4447 -4.389973,-0.0359 z m 5.165946,-9.93374 c 0.811645,-0.74759 3.608731,-5.11027 4.881128,-7.61322 1.107846,-2.17926 1.357102,-3.14953 1.047137,-4.07617 -0.249118,-0.74474 -1.148978,-1.44996 -1.850156,-1.44996 -0.924186,0 -1.379435,0.6055 -2.59075,3.44583 -1.26618,2.96896 -1.969621,5.10594 -2.301089,6.99047 -0.236019,1.34184 -0.308975,2.9004 -0.143515,3.06586 0.166415,0.16643 0.533882,0.0271 0.957245,-0.36281 z m 65.045921,9.8231 c -0.53098,-0.26533 -1.31876,-0.81779 -1.75061,-1.22768 -0.78326,-0.74344 -1.86663,-2.59944 -1.68698,-2.89011 0.0517,-0.0837 0.0279,-0.15212 -0.0529,-0.15212 -0.32353,0 -1.11532,-4.13257 -1.53472,-8.01009 -0.12734,-1.17726 -0.25451,-1.3987 -0.81744,-1.42335 -0.54245,-0.0238 -1.15727,0.67054 -2.28583,2.58121 -1.56551,2.65046 -2.27193,4.22529 -2.98468,6.65372 -0.38241,1.30294 -0.98767,2.10301 -1.97009,2.60419 -0.79617,0.40618 -2.24028,0.33146 -3.62787,-0.1877 -2.38534,-0.89247 -2.94842,-2.21432 -3.01998,-7.08946 -0.0395,-2.69149 -0.49717,-8.28294 -0.90118,-11.01005 -0.16235,-1.09583 -0.9858,-2.93333 -1.38281,-3.08569 -0.32967,-0.12651 -0.81669,0.42154 -1.00549,1.1315 -0.0948,0.35645 -0.34683,0.87874 -0.56009,1.16064 -0.22011,0.29096 -0.65413,1.42105 -1.00386,2.61379 -0.33886,1.15568 -0.89739,2.88537 -1.24117,3.84376 -0.34378,0.95839 -0.82147,2.43602 -1.06154,3.28361 -0.26196,0.92492 -0.50134,1.50101 -0.59871,1.44083 -0.0914,-0.0565 -0.11433,-0.0228 -0.0526,0.0772 0.20652,0.33416 -1.93737,3.77993 -2.21193,3.55511 -0.0802,-0.0656 -0.096,-0.0577 -0.0351,0.0177 0.0609,0.0754 -0.11005,0.53874 -0.37981,1.02967 -0.92269,1.67919 -1.07734,1.98944 -1.07734,2.16125 0,0.21349 -1.06586,1.24512 -1.5341,1.48484 -0.7918,0.40536 -3.702542,-0.0215 -5.113962,-0.75 -0.881668,-0.45505 -1.532642,-1.45388 -2.061136,-3.16254 -1.184354,-3.82907 -1.579782,-8.51298 -1.634021,-19.3552 -0.01705,-3.40851 -0.0017,-3.60065 0.351149,-4.39708 0.682325,-1.54004 2.191851,-2.38355 3.927017,-2.19434 1.316879,0.1436 2.087573,0.63909 2.614653,1.68103 0.72292,1.42906 0.83182,2.84345 0.51409,6.67666 -0.22508,2.71537 -0.24087,3.61152 -0.0929,5.27292 0.0981,1.10085 0.28241,2.25079 0.40969,2.55542 0.19879,0.47577 0.27134,0.52868 0.5146,0.37534 0.15575,-0.0982 0.45579,-0.45353 0.66676,-0.78968 0.21097,-0.33617 0.45366,-0.56789 0.53931,-0.51495 0.0857,0.0529 0.11153,0.0247 0.0575,-0.0627 -0.11362,-0.18382 0.45608,-1.82496 1.03412,-2.979 0.2182,-0.43563 0.59557,-1.39798 0.83859,-2.13855 0.57404,-1.74931 3.42854,-8.51902 4.05043,-9.60597 0.5562,-0.97214 1.52215,-1.8445 1.92813,-1.74131 0.15259,0.0388 0.24198,0.0131 0.19864,-0.057 -0.15087,-0.24412 1.86535,-0.4683 2.95675,-0.32874 1.53776,0.19662 2.56064,0.58478 3.28811,1.24776 0.73385,0.6688 1.80007,2.37466 1.67993,2.68777 -0.0444,0.11559 -0.0156,0.16997 0.0639,0.12085 0.1307,-0.0808 0.80233,1.44785 0.80233,1.82608 0,0.0865 0.17473,0.57239 0.38829,1.0798 0.23718,0.5635 0.51261,1.77921 0.70773,3.12384 0.17569,1.21072 0.39302,2.58529 0.48297,3.0546 0.0899,0.46931 0.16397,1.32473 0.16451,1.90093 6.4e-4,0.61774 0.0977,1.23319 0.23678,1.49978 0.12969,0.24866 0.20044,0.50934 0.15721,0.57926 -0.0432,0.0699 0.0607,0.0907 0.23086,0.0462 0.58227,-0.15228 1.78407,-1.56746 3.8889,-4.5794 0.68054,-0.97382 0.98217,-1.44688 1.77304,-2.78063 0.69139,-1.16597 1.62702,-2.14535 2.18278,-2.28484 0.28603,-0.0718 0.83764,-0.0159 1.4474,0.14653 0.54188,0.14439 1.13813,0.26253 1.32501,0.26253 0.18687,0 0.30208,0.061 0.25601,0.13552 -0.0461,0.0746 0.0922,0.10191 0.30718,0.0608 0.45606,-0.0872 1.2447,0.3687 1.08495,0.62717 -0.0662,0.10713 -0.0365,0.13129 0.0759,0.0618 0.25213,-0.15581 1.03659,1.53441 1.33922,2.88552 0.46812,2.09003 0.93978,5.24894 0.96621,6.47121 0.008,0.36197 0.0577,0.63124 0.11092,0.59837 0.10659,-0.0659 0.2946,1.34193 0.39284,2.94141 0.12757,2.07715 0.39132,3.99349 0.62808,4.56355 0.13359,0.32165 0.62151,0.97689 1.08426,1.45608 1.18448,1.22658 1.36239,1.54217 1.36239,2.41668 0,0.82258 -0.51537,2.03737 -1.08127,2.54874 -0.4851,0.43834 -1.4263,0.72264 -2.41808,0.73044 -0.67935,0.005 -1.11038,-0.10539 -1.851,-0.47548 z M 243.2049,205.8901 c -1.44571,-0.31009 -2.59372,-0.75204 -3.48209,-1.34047 -0.87323,-0.5784 -2.03546,-2.06976 -2.66152,-3.41523 -0.53107,-1.14133 -1.16757,-3.68978 -1.39852,-5.59939 -0.18377,-1.51969 -0.24072,-7.50237 -0.0807,-8.48418 0.0895,-0.54945 0.0441,-0.7149 -0.3128,-1.13903 -0.22964,-0.27291 -0.93284,-0.74081 -1.56268,-1.03976 -1.22405,-0.58101 -2.42061,-1.6976 -2.26204,-2.11087 0.049,-0.12779 0.0238,-0.19197 -0.056,-0.14261 -0.0799,0.0493 -0.18064,-0.0361 -0.22396,-0.1898 -0.24578,-0.87194 -0.25004,-1.37341 -0.0203,-2.38349 0.22656,-0.99609 0.33132,-1.18447 0.93263,-1.67721 0.70333,-0.57631 3.46612,-2.05363 3.84061,-2.05363 0.11758,0 0.17925,-0.0345 0.13704,-0.0767 -0.0422,-0.0422 0.0469,-0.16701 0.19801,-0.27736 0.24188,-0.17661 0.28424,-0.61793 0.35397,-3.68748 0.0909,-4.0036 0.0826,-3.97792 1.59703,-4.90746 0.82079,-0.5038 0.91468,-0.52414 2.14531,-0.46508 1.02648,0.0493 1.47535,0.15591 2.21776,0.52685 1.633,0.81594 1.95589,1.99677 1.58964,5.81366 l -0.1332,1.38829 0.49188,0.4595 c 0.63982,0.59767 1.04783,0.65516 5.09924,0.71839 4.1031,0.064 4.89282,0.25723 4.89282,1.19688 0,0.51549 -0.86654,1.36324 -1.54741,1.51386 -0.99346,0.21975 -1.41589,0.42041 -2.00808,0.95384 -0.8386,0.75539 -1.2237,0.93452 -2.63082,1.22373 -0.67019,0.13775 -1.8463,0.56223 -2.67422,0.9652 -0.81284,0.39562 -1.55081,0.67423 -1.63994,0.61915 -0.0891,-0.0551 -0.11435,-0.023 -0.0561,0.0713 0.0584,0.0944 -0.0393,0.21758 -0.21735,0.2741 -0.60181,0.19102 -0.82986,0.80077 -0.96528,2.58101 -0.52948,6.96009 -0.53409,8.15648 -0.0404,10.50971 0.69628,3.31904 2.24137,4.4601 4.93248,3.6427 0.60341,-0.18328 1.2474,-0.35617 1.43109,-0.38421 0.18369,-0.028 0.67548,-0.2676 1.09286,-0.5324 1.12247,-0.71211 1.98491,-1.00558 2.64186,-0.89897 0.774,0.1256 0.91942,0.35747 1.00894,1.60862 0.09,1.25777 -0.0869,1.70495 -1.18897,3.00533 -0.95494,1.1268 -3.19329,2.97834 -4.03856,3.34067 -1.57492,0.67509 -3.44986,0.81134 -5.40217,0.39256 z m -5.31093,-4.77109 c 0.19703,-0.25126 0.19144,-0.25685 -0.0598,-0.0598 -0.26387,0.20695 -0.34779,0.33704 -0.2174,0.33704 0.0329,0 0.15763,-0.12475 0.27722,-0.27722 z m -28.98028,4.14846 c -1.79023,-0.48176 -3.40523,-1.90946 -4.37138,-3.86438 -0.60076,-1.21561 -0.71301,-1.71761 -0.7276,-3.2543 -0.0375,-3.95106 0.77542,-8.16501 3.37689,-17.50445 0.46685,-1.67609 0.70939,-2.14747 1.52404,-2.96212 0.92086,-0.92086 1.51199,-1.15658 2.90045,-1.15658 0.9664,0 1.30466,-0.0715 1.877,-0.39663 2.92709,-1.66289 4.47476,-1.81819 6.797,-0.68204 1.27689,0.6247 2.40611,1.73654 3.5571,3.5023 1.4132,2.16804 1.95418,3.455 2.14416,5.10091 0.0905,0.78414 0.23312,1.71085 0.3169,2.05935 0.0838,0.34851 0.15356,0.99007 0.15507,1.4257 0.004,1.08263 -0.57488,4.88996 -0.89078,5.86122 -0.69123,2.12528 -2.54824,4.93067 -4.58781,6.9308 -1.19902,1.17582 -3.19861,2.72605 -3.94207,3.05614 -0.26138,0.11605 -1.1405,0.50846 -1.95361,0.87202 -0.81312,0.36355 -1.64388,0.67092 -1.84614,0.68304 -0.20226,0.0122 -0.33924,0.0682 -0.30437,0.12468 0.0835,0.13527 -1.77058,0.45466 -2.56213,0.44137 -0.34138,-0.006 -0.99959,-0.1124 -1.46272,-0.23703 z m 4.1231,-6.97213 c 0.68801,-0.24273 2.16898,-1.2005 2.89095,-1.8696 0.24306,-0.22526 0.52207,-0.36383 0.62001,-0.30792 0.0979,0.0559 0.12909,0.0471 0.0692,-0.0195 -0.0599,-0.0666 0.26409,-0.56072 0.71995,-1.09809 1.12931,-1.33122 1.68952,-2.17109 2.4434,-3.66316 0.9424,-1.86517 1.1644,-2.74811 1.25471,-4.98996 0.0715,-1.77432 0.0434,-2.07638 -0.27034,-2.90593 -0.58972,-1.55939 -2.12797,-2.85576 -2.76311,-2.32865 -0.1238,0.10273 -0.33102,0.65123 -0.4605,1.21888 -0.32539,1.42657 -0.85899,1.94957 -2.24642,2.20181 -2.23485,0.40629 -3.24892,1.97372 -4.12975,6.38326 -1.01955,5.10394 -1.06294,6.49398 -0.22878,7.32814 0.47972,0.47972 0.85872,0.48886 2.10067,0.0507 z m 49.19614,5.89426 c -1.57293,-0.53099 -2.71268,-1.37339 -3.09409,-2.28685 -0.29746,-0.71244 -0.30825,-1.0839 -0.25334,-8.71976 0.0315,-4.38658 0.096,-8.03806 0.14312,-8.1144 0.0472,-0.0763 0.15428,-2.90296 0.238,-6.2814 0.13051,-5.26747 0.1155,-6.54301 -0.10547,-8.95284 -0.29178,-3.18225 -0.16936,-4.75421 0.45762,-5.87584 0.55924,-1.00044 0.95214,-1.20082 2.57895,-1.3152 1.26159,-0.0887 1.52693,-0.0595 2.21198,0.24354 1.41398,0.62547 1.97393,1.46871 1.9763,2.97614 0,0.5062 0.006,1.13421 0.0127,1.39559 0.006,0.26138 0.0241,5.25134 0.0398,11.08879 l 0.0285,10.61356 0.36143,0.0182 c 0.1988,0.01 0.33222,-0.0111 0.29648,-0.0468 -0.0357,-0.0357 0.362,-0.47163 0.88387,-0.96868 0.52186,-0.49705 1.43182,-1.54572 2.02214,-2.33036 2.27433,-3.02299 4.6331,-5.14133 6.31537,-5.6716 2.27051,-0.7157 5.92652,0.0395 7.62983,1.57597 1.13982,1.0282 2.54906,4.1551 3.3953,7.53367 1.84175,7.35315 2.84198,8.99819 5.47107,8.99819 1.01386,0 1.86044,0.34811 2.04832,0.84224 0.34413,0.90515 -0.48506,2.75647 -1.60273,3.57842 -2.33058,1.71393 -4.98273,1.46112 -7.90865,-0.75385 -2.22324,-1.68304 -2.38701,-2.04002 -4.33476,-9.44883 -0.48858,-1.85845 -1.43343,-4.61381 -1.74542,-5.08996 -0.29498,-0.4502 -0.72918,-0.47091 -1.58505,-0.0756 -0.83845,0.38725 -1.73156,1.11924 -2.59386,2.1259 -0.38723,0.45206 -0.76929,0.80233 -0.849,0.77838 -0.0797,-0.0239 -0.10202,0.0259 -0.0496,0.11083 0.0525,0.0849 -0.35214,0.76969 -0.8991,1.52179 -1.90903,2.62502 -4.62452,6.68791 -5.07873,7.59877 -0.13034,0.26138 -0.39533,1.00988 -0.58888,1.66332 -0.75998,2.56587 -1.58175,3.41578 -3.44047,3.55824 -0.67783,0.0519 -1.19284,-0.0233 -1.98168,-0.28963 z m -66.81342,-46.1352 c -0.91482,-0.12174 -1.9841,-0.29633 -2.37617,-0.38797 -0.39207,-0.0916 -0.81978,-0.17088 -0.95047,-0.17608 -0.50093,-0.0199 -4.72563,-0.9953 -9.8215,-2.26751 -6.68246,-1.66832 -6.78392,-1.68732 -18.69254,-3.50026 -12.27954,-1.86941 -35.9156,-5.52403 -45.93929,-7.10316 -4.1385,-0.65197 -8.98589,-1.33276 -10.77197,-1.51285 -15.740747,-1.58717 -23.927887,-3.55839 -30.960575,-7.45436 l -1.513755,-0.83859 v -0.68793 c 0,-0.46494 0.09768,-0.78562 0.301343,-0.98928 0.422486,-0.42248 2.119994,-1.20434 3.342118,-1.53935 1.348846,-0.36974 4.267193,-0.36738 7.128511,0.006 3.055191,0.39843 5.576471,0.36098 8.554213,-0.12706 4.392317,-0.71989 6.889705,-0.91223 13.003935,-1.00149 13.00888,-0.18992 22.55986,0.97967 50.20219,6.14766 16.62719,3.10861 24.53447,4.40892 32.19115,5.29366 2.14184,0.24749 2.35127,0.24866 2.5855,0.0144 0.14019,-0.14018 0.21271,-0.25488 0.16115,-0.25488 -0.0516,0 0.0421,-0.26732 0.20803,-0.59404 0.85154,-1.67629 1.70552,-5.43235 2.24206,-9.86111 0.29965,-2.47352 0.86658,-5.38789 3.3435,-17.18763 0.3475,-1.6554 0.83811,-4.00781 1.09029,-5.22758 2.79833,-13.536121 2.95248,-14.180827 5.16446,-21.599047 1.18601,-3.9775 2.19751,-7.300086 2.24778,-7.383528 0.0503,-0.08344 0.11013,-0.297295 0.13305,-0.475234 0.0229,-0.177937 0.86722,-3.025658 1.87622,-6.328269 1.00899,-3.30261 1.81286,-6.069802 1.78634,-6.149315 -0.096,-0.288096 -4.06019,2.569193 -6.77009,4.879753 -0.85158,0.726094 -1.60421,1.269792 -1.67249,1.208217 -0.0683,-0.06157 -0.0828,-0.03899 -0.0324,0.05018 0.0505,0.08917 -0.63396,0.837665 -1.52097,1.66332 -1.85083,1.722799 -5.39294,5.558728 -7.63661,8.270054 -0.8457,1.021963 -1.59484,1.822757 -1.66476,1.779544 -0.0699,-0.04321 -0.17871,0.0049 -0.24176,0.1069 -0.0716,0.115833 -0.046,0.143032 0.0683,0.07244 0.35597,-0.219998 0.16895,0.06895 -1.08819,1.681293 -3.06942,3.936695 -6.44404,8.841698 -9.35004,13.590272 -4.29892,7.02466 -6.84912,10.32036 -9.49712,12.27337 -1.10229,0.81299 -2.50941,1.54267 -2.72178,1.41143 -0.0713,-0.0441 -0.12963,-0.0112 -0.12963,0.073 0,0.0842 -0.68387,0.27625 -1.51971,0.42675 -2.26602,0.408 -4.05695,0.15615 -6.02342,-0.84707 -1.03557,-0.52831 -2.31387,-1.61084 -2.2129,-1.87399 0.0491,-0.128 0.0214,-0.19076 -0.0616,-0.13946 -0.083,0.0513 -0.34391,-0.21232 -0.57979,-0.58582 -3.34915,-5.30334 -2.51355,-18.515573 2.41736,-38.222575 1.24958,-4.994081 2.38064,-9.059683 5.52255,-19.850755 1.52588,-5.240747 2.77434,-9.605969 2.77434,-9.700497 0,-0.152475 -3.73547,3.620135 -5.76922,5.826587 -0.42031,0.456001 -0.83783,0.783591 -0.92781,0.727978 -0.09,-0.05562 -0.12044,-0.03127 -0.0677,0.0541 0.12724,0.205868 -2.00526,2.314645 -2.17994,2.155687 -0.0746,-0.06787 -0.087,-0.03866 -0.0276,0.06491 0.11562,0.201686 -5.22522,5.861504 -5.46531,5.791719 -0.0749,-0.02178 -0.11843,0.02025 -0.0966,0.0934 0.0597,0.200584 -3.52509,3.981519 -3.7369,3.941343 -0.10108,-0.01917 -0.17041,0.04089 -0.15407,0.133484 0.0163,0.09259 -0.86623,1.126224 -1.96127,2.296964 -4.11729,4.401911 -7.3872,7.98501 -8.28429,9.077749 -1.78253,2.171274 -4.76763,5.977866 -5.94951,7.58678 -0.65534,0.892127 -1.32626,1.78244 -1.49094,1.978474 -0.16468,0.196034 -0.26652,0.356426 -0.2263,0.356426 0.0402,0 -0.20473,0.409889 -0.54433,0.910865 -1.58755,2.341918 -3.74369,6.541492 -4.81889,9.385872 -0.39466,1.044034 -0.54241,1.171574 -1.8292,1.579048 -2.88466,0.913449 -7.43022,0.331609 -9.80657,-1.255258 -3.07221,-2.051541 -5.04644,-7.943146 -6.05372,-18.065863 -0.55865,-5.614263 -0.70134,-9.41927 -0.69663,-18.577919 0.002,-4.859593 -0.0112,-8.815917 -0.0305,-8.79183 -0.0193,0.02408 -0.55369,1.184353 -1.18759,2.578373 -2.05408,4.517169 -5.18418,11.13081 -8.58437,18.1381 -0.866676,1.786088 -1.722267,3.586037 -1.901313,3.999886 -0.179046,0.41385 -0.388044,0.752454 -0.464442,0.752454 -0.0764,0 -0.121083,0.05965 -0.0993,0.132559 0.07488,0.250645 -1.044251,2.387235 -1.2,2.290978 -0.08711,-0.05384 -0.10581,-0.01537 -0.0424,0.08724 0.06239,0.100954 -0.219774,0.878283 -0.627041,1.727397 -0.657815,1.371484 -2.444259,5.122074 -4.545723,9.543617 C 84.25956,98.146355 78.951088,110.964 75.634409,120.52045 c -0.60343,1.73869 -1.240147,3.39263 -1.414927,3.67542 -0.197878,0.32018 -0.65836,0.68112 -1.220445,0.95662 -0.814158,0.39906 -1.06576,0.4424 -2.565987,0.44195 -2.09776,-6.3e-4 -3.666053,-0.46378 -4.043784,-1.19424 -0.634976,-1.22791 -0.658023,-5.60798 -0.0608,-11.55572 0.458292,-4.56414 0.706924,-5.95118 1.646956,-9.18786 0.810942,-2.7922 1.065558,-3.39073 5.391118,-12.672909 4.083049,-8.761778 10.595548,-22.678891 13.507939,-28.866265 0.603811,-1.282799 1.154901,-2.28079 1.22464,-2.217758 0.06974,0.06303 0.08224,0.03637 0.02777,-0.05926 -0.05446,-0.09562 0.851035,-2.198534 2.01222,-4.673135 1.161184,-2.474599 2.201517,-4.784412 2.311852,-5.132917 0.110335,-0.348505 0.982448,-2.736557 1.93803,-5.306781 4.443228,-11.950943 5.692749,-16.031544 8.028539,-26.219045 1.20466,-5.254097 1.99449,-6.41454 5.06095,-7.435767 3.09614,-1.031107 6.27908,-1.1668535 9.15505,-0.390445 0.60469,0.163245 0.69593,0.261604 1.14163,1.230603 0.79739,1.733607 1.28882,3.155274 1.85936,5.378978 1.39613,5.441538 2.03573,11.276907 2.75538,25.138712 0.17641,3.397923 0.39564,7.033464 0.48718,8.078979 0.17143,1.95795 2.60981,18.751245 2.74185,18.883281 0.0406,0.04066 0.6028,-0.484625 1.24922,-1.167291 2.65481,-2.803673 9.09798,-9.658972 11.5143,-12.250799 1.42146,-1.524709 3.20879,-3.413764 3.97185,-4.197901 2.16251,-2.222262 4.05442,-4.234918 4.4314,-4.714247 0.18909,-0.240427 0.41115,-0.39552 0.49346,-0.344651 0.0823,0.05087 0.13006,-0.0019 0.10612,-0.117299 -0.0239,-0.115383 0.0456,-0.191967 0.15449,-0.170186 0.10891,0.02178 0.18019,-0.02535 0.15841,-0.104733 -0.0567,-0.206767 5.14522,-5.871465 5.30254,-5.774237 0.072,0.0445 0.11131,0.0068 0.0874,-0.08371 -0.11522,-0.435744 8.81585,-9.594832 13.02541,-13.357963 1.17621,-1.051466 2.74963,-2.46898 3.49649,-3.15003 2.18793,-1.995129 3.91193,-3.352521 5.77058,-4.543451 0.8902,-0.570408 3.06207,-1.507614 4.15294,-1.792085 1.84106,-0.480101 4.53722,-0.447167 6.59693,0.08058 2.17008,0.556033 2.70275,0.837254 2.76323,1.458838 0.081,0.832251 -0.67114,4.134982 -3.40459,14.950307 -1.44234,5.706769 -3.6402,14.403552 -4.88417,19.326185 -3.37709,13.363813 -5.35765,22.134336 -6.10576,27.038327 -0.43055,2.822203 -0.38877,3.071307 0.32698,1.950172 0.65002,-1.018185 2.67667,-3.657724 3.36986,-4.388973 0.26522,-0.27977 0.54137,-0.472101 0.61371,-0.427403 0.0723,0.0447 0.094,-0.01645 0.0482,-0.13589 -0.1876,-0.488921 10.94989,-10.852586 11.59262,-10.787167 0.11736,0.01194 0.17706,-0.03705 0.13267,-0.108879 -0.0733,-0.118571 5.6662,-4.902797 5.88174,-4.902797 0.0506,0 0.21037,-0.134743 0.35503,-0.299428 0.14466,-0.164686 1.11843,-0.994458 2.16395,-1.843939 1.11287,-0.904204 2.64577,-2.372629 3.69757,-3.542048 0.98814,-1.098645 2.06838,-2.282676 2.40052,-2.631181 0.33214,-0.348505 0.99359,-1.061356 1.4699,-1.584114 2.08325,-2.286428 7.23987,-7.829189 8.03552,-8.637247 1.09963,-1.11677 2.94126,-2.433412 3.18928,-2.280124 0.11474,0.07091 0.14411,0.04686 0.0764,-0.06263 -0.0685,-0.110889 0.29477,-0.380816 0.96559,-0.717426 3.82523,-1.919418 7.00847,-2.149732 9.87591,-0.714543 3.05298,1.52807 3.77232,4.204185 2.50603,9.322952 -0.18322,0.740573 -0.41138,1.489067 -0.50706,1.663319 -0.0957,0.174253 -0.16021,0.366048 -0.14344,0.426209 0.0168,0.06016 -0.68519,2.020504 -1.55994,4.356312 -1.48316,3.960405 -2.47592,7.073159 -4.6385,14.543664 -0.47921,1.655399 -1.0594,3.651382 -1.2893,4.435518 -1.5671,5.345164 -4.17498,15.456082 -5.20947,20.197448 -1.42914,6.55017 -1.63336,7.74452 -3.81931,22.336 -0.9202,6.1424 -2.23568,14.83919 -2.92329,19.32619 -0.68762,4.487 -1.33078,9.04925 -1.42924,10.13832 -0.48846,5.40295 -1.38947,8.35513 -3.05984,10.02549 -0.78809,0.78811 -2.54233,1.611 -4.10604,1.92613 -1.50806,0.30391 -4.78,0.30027 -7.09559,-0.008 z m -25.82105,-45.5892 c 0,-0.0342 -0.11063,-0.10471 -0.24584,-0.1566 -0.14098,-0.0541 -0.20457,-0.0275 -0.14906,0.0623 0.093,0.15052 0.3949,0.22264 0.3949,0.0943 z"
       id="path2383" /></g></svg>
