<?xml version="1.0" encoding="UTF-8" standalone="no"?>
<!-- Created with Inkscape (http://www.inkscape.org/) -->

<svg
   version="1.1"
   id="svg2"
   width="2510.6667"
   height="1705.3333"
   viewBox="0 0 2510.6667 1705.3333"
   sodipodi:docname="logo.svg"
   inkscape:version="1.2.2 (732a01da63, 2022-12-09)"
   xmlns:inkscape="http://www.inkscape.org/namespaces/inkscape"
   xmlns:sodipodi="http://sodipodi.sourceforge.net/DTD/sodipodi-0.dtd"
   xmlns="http://www.w3.org/2000/svg"
   xmlns:svg="http://www.w3.org/2000/svg">
  <defs
     id="defs6" />
  <sodipodi:namedview
     id="namedview4"
     pagecolor="#ffffff"
     bordercolor="#000000"
     borderopacity="0.25"
     inkscape:showpageshadow="2"
     inkscape:pageopacity="0.0"
     inkscape:pagecheckerboard="0"
     inkscape:deskcolor="#d1d1d1"
     showgrid="false"
     inkscape:zoom="0.48194369"
     inkscape:cx="1165.0739"
     inkscape:cy="686.80223"
     inkscape:window-width="1920"
     inkscape:window-height="1009"
     inkscape:window-x="-8"
     inkscape:window-y="-8"
     inkscape:window-maximized="1"
     inkscape:current-layer="g8" />
  <g
     inkscape:groupmode="layer"
     inkscape:label="Image"
     id="g8">
    <path
       style="fill:#000000;stroke-width:1.33333"
       d="m 223.03362,1693.7214 c -3.66667,-1.4276 -7.26884,-3.3496 -8.00483,-4.2709 -0.73599,-0.9215 -2.23599,-1.8703 -3.33333,-2.1085 -7.07926,-1.537 -14.63626,-16.4144 -19.082,-37.5668 -1.7725,-8.4334 -7.24458,-29.1334 -12.16018,-46 -4.9156,-16.8667 -13.35373,-47.1667 -18.7514,-67.3334 -14.87478,-55.5749 -25.82873,-90.2005 -33.74442,-106.6666 -2.64399,-5.5 -4.72594,-10.3227 -4.62655,-10.717 0.0994,-0.3944 -1.23227,-0.834 -2.95924,-0.9769 -2.06958,-0.1713 -4.30999,1.1307 -6.57233,3.8193 -1.88782,2.2435 -3.43571,4.4831 -3.43977,4.9768 -0.004,0.4938 -1.80105,12.2978 -3.99332,26.2311 -2.90052,18.4347 -4.36752,34.0473 -5.38716,57.3333 -0.77066,17.6 -2.573671,40.7175 -4.006683,51.3723 -2.07404,15.4211 -2.60546,27.1696 -2.60546,57.6011 0,22.164 -0.60065,41.0294 -1.42934,44.8934 -1.6774,7.8215 -8.49105,18.0383 -11.30874,16.957 -1.04313,-0.4003 -1.7538,-0.1107 -1.57926,0.6433 0.64658,2.7937 -12.68392,6.5332 -23.015998,6.4565 -13.667857,-0.1013 -18.23488,-1.9446 -23.692279,-9.5624 -7.202395,-10.0534 -9.372553,-17.5644 -8.618748,-29.8293 0.356008,-5.7925 1.158527,-11.518 1.783376,-12.7232 0.624848,-1.2052 1.760295,-7.8052 2.523215,-14.6667 0.762919,-6.8614 2.257965,-17.2753 3.322325,-23.142 1.064359,-5.8666 2.894055,-18.7666 4.065991,-28.6666 1.171936,-9.9 2.928203,-21.9 3.902815,-26.6667 0.974612,-4.7667 2.457969,-14.0667 3.29635,-20.6667 0.838382,-6.6 3.015379,-22.8 4.837774,-36 1.822394,-13.2 3.90705,-28.5 4.63257,-34 2.986982,-22.6436 8.046179,-51.6738 9.875479,-56.6666 1.07475,-2.9334 1.98042,-9.2634 2.01261,-14.0667 0.0322,-4.8033 0.69076,-9.3656 1.4635,-10.1383 2.3671,-2.3672 6.47295,-25.0281 6.293,-34.7322 -0.1441,-7.7712 0.40214,-10.1813 3.59507,-15.8613 4.14218,-7.3688 9.04395,-11.1535 19.68219,-15.1969 9.924113,-3.7719 14.967663,-3.3721 26.395713,2.0924 11.19499,5.3531 14.7383,8.2046 19.76135,15.903 5.34817,8.1966 6.417,10.0602 10.70587,18.6666 2.19266,4.4 5.81293,11.3 8.04502,15.3334 5.67003,10.2456 18.29868,40.6572 20.20923,48.6666 0.87463,3.6667 3.94808,13.8667 6.82989,22.6667 5.5617,16.9833 20.29746,68.9371 28.36323,100 5.81997,22.4139 16.46272,56.7021 18.29492,58.9416 0.72368,0.8845 0.87143,2.3272 0.32832,3.206 -0.61075,0.9883 -0.42255,1.2487 0.49331,0.6825 0.82112,-0.5074 2.46612,0.5888 3.69269,2.4607 3.59297,5.4836 7.06587,4.5185 13.16173,-3.6575 1.42442,-1.9105 3.03296,-3.1997 3.57454,-2.865 0.54158,0.3346 1.41886,-0.093 1.9495,-0.9526 0.60256,-0.9749 0.38686,-1.2038 -0.57453,-0.6097 -2.38219,1.4723 -1.92691,0.3712 3.62508,-8.7676 2.84043,-4.6755 7.34797,-12.8368 10.01676,-18.1363 2.66879,-5.2994 5.5448,-9.6354 6.39113,-9.6354 0.84634,0 1.149,-0.3898 0.6726,-0.8662 -0.47641,-0.4765 4.01192,-10.2265 9.97408,-21.6666 25.74204,-49.3942 34.23284,-69.0967 53.78291,-124.8006 18.42355,-52.494 19.76001,-54.6954 35.19324,-57.9706 7.27851,-1.5447 9.29159,-1.4827 16.54579,0.5096 11.25989,3.0921 21.24327,9.9196 25.75011,17.6098 8.72602,14.8899 19.6753,47.7238 26.40604,79.1846 4.69549,21.9476 8.13556,42.9146 14.87566,90.6666 6.70759,47.5216 9.19518,58.8795 16.89318,77.1315 4.46201,10.5793 5.43836,14.4457 5.48862,21.7349 0.0521,7.5674 -0.51629,9.7932 -3.88004,15.1924 -5.23761,8.407 -10.85248,11.2746 -22.0759,11.2746 -9.59946,0 -20.7728,-3.6328 -26.32528,-8.5592 -3.43922,-3.0515 -7.54802,-10.0955 -5.90756,-10.1279 0.56882,-0.013 0.36796,-0.4612 -0.44639,-1 -4.50209,-2.9787 -10.76637,-21.1543 -13.20465,-38.3129 -1.04208,-7.3334 -3.6799,-24.7334 -5.8618,-38.6667 -2.18191,-13.9333 -5.19011,-36.4333 -6.68487,-50 -2.7598,-25.0483 -6.96663,-49.7563 -9.57508,-56.2375 -3.40264,-8.4546 -9.02553,-4.6434 -15.19916,10.3018 -12.10559,29.3056 -15.6637,37.5872 -24.60494,57.269 -5.33032,11.7334 -10.16753,22.5334 -10.74936,24 -0.58182,1.4667 -4.02576,8.9667 -7.65318,16.6667 -3.62742,7.7 -8.27731,17.9 -10.3331,22.6667 -5.78233,13.4073 -37.06325,67.904 -38.47562,67.031 -0.69098,-0.427 -0.82675,-0.081 -0.30174,0.7682 1.65254,2.6738 -17.37493,30.2809 -24.34496,35.3222 -11.19453,8.097 -21.91056,9.6088 -34.19758,4.8248 z M 1264.367,1675.1085 c -2.2,-0.5599 -6.2872,-1.0888 -9.0826,-1.1756 -7.6988,-0.2389 -19.1539,-6.2193 -22.8941,-11.9523 -6.3583,-9.746 -7.1355,-17.079 -7.37,-69.5388 -0.1196,-26.7666 -0.2861,-54.6666 -0.3699,-62 -0.084,-7.3333 0.01,-22.0333 0.1993,-32.6666 0.3186,-17.5222 0.032,-20.3859 -3.0656,-30.5683 -5.856,-19.2536 -3.7078,-32.3984 6.8862,-42.1361 7.1057,-6.5315 11.9805,-7.7898 26.7617,-6.9079 17.1538,1.0233 23.5518,4.2227 28.5956,14.2991 5.0925,10.1738 8.1859,31.2458 7.0762,48.2017 -1.0934,16.7059 -0.3282,19.8909 4.6865,19.5088 2.0878,-0.1591 3.5476,-0.5376 3.244,-0.8412 -0.3036,-0.3036 0.8631,-2.4279 2.5926,-4.7207 1.7295,-2.2928 4.773,-8.0688 6.7632,-12.8354 6.2894,-15.0628 12.0497,-25.396 26.3865,-47.3334 17.8636,-27.3337 18.2808,-27.8297 26.9848,-32.0882 6.5339,-3.1968 8.4517,-3.5195 17.7277,-2.9824 12.9216,0.748 20.9948,4.3922 30.286,13.6713 5.4019,5.3949 7.9678,9.6469 12.9127,21.3993 7.3072,17.3664 15.3896,43.6218 21.0541,68.3924 6.164,26.9556 11.2382,37.6076 17.9144,37.6076 3.1002,0 15.4758,-12.1126 20.4343,-20 1.1524,-1.8333 3.454,-4.8333 5.1144,-6.6666 1.6605,-1.8334 4.2245,-6.0595 5.6977,-9.3914 3.3527,-7.5818 23.104,-30.3654 25.6682,-29.6086 0.6212,0.1833 1.0105,-0.1174 0.8653,-0.6667 -0.5419,-2.0512 1.8351,-7.0105 3.0115,-6.2835 0.6721,0.4155 0.8997,-0.085 0.5056,-1.1118 -0.394,-1.027 1.9098,-5.108 5.1198,-9.0692 3.21,-3.9612 6.3894,-8.2079 7.0651,-9.4372 0.6759,-1.2292 4.3095,-5.7292 8.0748,-10 3.7653,-4.2707 8.7319,-9.9631 11.0369,-12.6496 2.305,-2.6866 7.2743,-6.8634 11.043,-9.2818 6.0708,-3.8956 7.9294,-4.4024 16.2965,-4.4437 7.1432,-0.035 11.1455,0.7212 16.4263,3.1049 3.951,1.7834 6.6109,3.7518 6.1273,4.5343 -0.4709,0.762 -0.2141,0.9871 0.5717,0.5013 2.2267,-1.3761 8.7384,4.9024 12.7735,12.3164 2.7108,4.9804 4.1588,10.4779 5.5604,21.1103 1.0424,7.9069 3.1191,20.3097 4.6148,27.5617 1.4957,7.2519 3.6275,24.6519 4.7372,38.6667 2.4233,30.6041 4.6496,43.4364 10.8835,62.7315 5.3488,16.5558 8.9976,21.3798 17.2156,22.7609 10.1921,1.7127 11.7954,2.6477 14.8673,8.6713 8.0183,15.7227 -0.8095,37.6934 -18.0375,44.8918 -6.9085,2.8865 -22.3742,2.4406 -31.3101,-0.9028 -14.9433,-5.591 -21.4107,-13.121 -34.9316,-40.6715 -7.8105,-15.9148 -11.8956,-30.5595 -17.4809,-62.6667 -6.371,-36.6233 -6.9012,-38.3038 -13.0543,-41.3734 -2.2964,-1.1456 -3.5212,-1.4288 -2.7216,-0.6292 1.0493,1.0493 0,3.0133 -3.7564,7.0614 -10.0235,10.7888 -20.7777,24.7982 -36.6761,47.7772 -24.0088,34.7019 -28.2538,41.6815 -32.5979,53.5986 -5.9735,16.3872 -10.5675,22.6214 -14.76,20.0304 -0.7981,-0.4934 -1.0319,-0.2506 -0.534,0.5549 2.5415,4.1121 -25.5448,5.7368 -30.3424,1.7551 -0.9401,-0.7802 -2.0444,-1.0834 -2.454,-0.6738 -1.3552,1.3554 -14.4921,-6.1149 -13.5199,-7.688 0.5411,-0.8756 0.322,-1.121 -0.5304,-0.5942 -1.7248,1.066 -7.3957,-6.0128 -10.2069,-12.7407 -1.098,-2.628 -3.202,-11.5957 -4.6753,-19.9283 -1.4735,-8.3325 -4.7603,-21.3192 -7.3043,-28.8592 -2.5439,-7.54 -6.1991,-21.04 -8.1225,-30 -6.7588,-31.4845 -13.8336,-50.5504 -19.4148,-52.3217 -2.0255,-0.6429 -3.8427,0.085 -6.4534,2.5867 -1.9986,1.9149 -4.1385,3.0232 -4.7553,2.4629 -0.6167,-0.5603 -0.7024,-0.2892 -0.1904,0.6023 0.512,0.8914 -0.2096,3.8914 -1.6035,6.6666 -1.3938,2.7752 -3.5837,8.3458 -4.8662,12.3791 -3.8006,11.9515 -8.9316,22.6811 -10.4099,21.7675 -0.7929,-0.49 -0.9643,-0.1911 -0.4071,0.7104 0.5347,0.865 -1.6565,5.8698 -4.932,11.2649 -3.2417,5.3396 -7.7957,15.6817 -10.1202,22.9828 -3.9778,12.4941 -7.6937,22.7453 -11.5781,31.9411 -0.9293,2.2 -2.4123,6.4 -3.2955,9.3333 -0.8832,2.9333 -2.4081,7.1333 -3.3887,9.3333 -3.011,6.755 -5.9667,15.54 -8.7477,26 -3.6972,13.9056 -7.2873,18.8588 -17.2928,23.8587 -8.2407,4.1179 -12.8842,4.7531 -20.5283,2.808 z m 305.5556,-255.2747 c 0,-1.0677 -0.5099,-1.6262 -1.1329,-1.2412 -0.6231,0.3851 -0.7876,1.2587 -0.3658,1.9414 1.0782,1.7445 1.4987,1.5481 1.4987,-0.7002 z M 551.70029,1671.9792 c -4.76667,-1.6475 -8.5402,-3.6468 -8.38563,-4.443 0.15459,-0.796 -0.65855,-1.3678 -1.80695,-1.2709 -1.14841,0.097 -3.82461,-1.9435 -5.94712,-4.5347 -13.92037,-16.9938 -14.01089,-56.8033 -0.25148,-110.6016 3.28514,-12.8446 6.80936,-26.7185 7.83162,-30.8309 2.23594,-8.9949 13.50708,-37.7533 20.58505,-52.5229 11.19409,-23.3588 27.22359,-46.1462 37.77811,-53.7048 7.45516,-5.3391 31.92561,-16.4287 37.98204,-17.2128 6.07964,-0.7872 27.40987,5.6498 26.04419,7.8596 -0.5593,0.9049 -0.29467,1.0906 0.68845,0.483 2.25361,-1.3928 9.78749,4.7092 12.4514,10.085 1.22373,2.4694 3.71272,7.9176 5.53109,12.1069 4.2793,9.8589 9.36316,16.1969 16.89535,21.0635 11.03677,7.1306 16.02328,15.743 19.29165,33.3196 1.02274,5.5 3.38006,16.3 5.23851,24 1.85844,7.7 5.20243,26.6 7.43107,42 3.0971,21.4012 5.6328,33.3418 10.75941,50.6666 10.66324,36.0351 10.34833,49.8492 -1.31393,57.6402 -8.79056,5.8724 -22.17875,2.5241 -32.82222,-8.2086 -11.23906,-11.3333 -21.97288,-27.8614 -23.27492,-35.839 -3.5586,-21.804 -10.936,-46.2592 -13.95501,-46.2592 -3.54687,0 -8.51697,5.5177 -13.46032,14.9434 -7.76632,14.8086 -25.09353,42.8352 -35.6868,57.7232 -13.65844,19.1959 -25.05303,30.323 -34.65358,33.8399 -10.54606,3.8633 -25.24606,3.7429 -36.94998,-0.3025 z m 43.48128,-83.6114 c 6.83153,-6.2924 30.37435,-43.0126 41.08399,-64.0797 9.32464,-18.3427 11.4226,-26.5093 8.81365,-34.3088 -2.0968,-6.2684 -9.67084,-12.2041 -15.57259,-12.2041 -7.77878,0 -11.61057,5.0964 -21.80609,29.0032 -10.65732,24.9894 -16.57812,42.9762 -19.36806,58.8381 -1.98654,11.2941 -2.60061,24.4124 -1.20794,25.8051 1.40069,1.4008 4.49362,0.2285 8.05704,-3.0538 z m 547.48543,82.6802 c -4.4693,-2.2334 -11.0999,-6.8834 -14.7348,-10.3334 -6.5926,-6.2574 -15.7112,-21.8792 -14.1991,-24.3257 0.4352,-0.7043 0.2349,-1.2804 -0.4451,-1.2804 -2.7231,0 -9.3876,-34.7835 -12.9176,-67.4201 -1.0718,-9.909 -2.1422,-11.7728 -6.8804,-11.9803 -4.5656,-0.1999 -9.7406,5.6439 -19.2395,21.7259 -13.1768,22.3086 -19.1227,35.5638 -25.1218,56.0037 -3.2187,10.9667 -8.3131,17.7008 -16.5821,21.9192 -6.7012,3.4188 -18.8561,2.7899 -30.5354,-1.5799 -20.07719,-7.5118 -24.81659,-18.6377 -25.41889,-59.6713 -0.3325,-22.654 -4.1847,-69.7167 -7.5852,-92.6705 -1.3664,-9.2235 -8.2974,-24.6896 -11.63894,-25.972 -2.77484,-1.0648 -6.874,3.5481 -8.46308,9.5237 -0.79782,3.0003 -2.91926,7.3963 -4.71428,9.7691 -1.85261,2.4489 -5.50577,11.9608 -8.44941,22 -2.85215,9.7272 -7.55319,24.2858 -10.44676,32.3525 -2.89356,8.0667 -6.91425,20.5037 -8.93487,27.6379 -2.2049,7.7849 -4.2198,12.6338 -5.03933,12.1273 -0.76907,-0.4753 -0.96229,-0.1915 -0.4424,0.6497 1.73832,2.8127 -16.30665,31.8154 -18.61756,29.9231 -0.67477,-0.5525 -0.80771,-0.4855 -0.29541,0.1489 0.51229,0.6346 -0.92628,4.5346 -3.19684,8.6667 -7.76622,14.1336 -9.06794,16.7449 -9.06794,18.1911 0,1.7969 -8.97122,10.48 -12.91235,12.4977 -6.66452,3.4119 -31.16393,-0.1811 -43.04372,-6.3127 -7.42092,-3.8301 -12.9001,-12.2372 -17.34838,-26.6188 -9.9686,-32.2289 -13.29688,-71.6529 -13.7534,-162.9109 -0.14352,-28.6891 -0.0144,-30.3063 2.95558,-37.0097 5.74307,-12.9624 18.4486,-20.0622 33.05334,-18.4696 11.08404,1.2086 17.5709,5.3792 22.00729,14.149 6.08473,12.0283 7.00137,23.9331 4.32703,56.1968 -1.89448,22.8551 -2.02736,30.3979 -0.78188,44.3818 0.82526,9.2657 2.37698,18.9446 3.44828,21.5086 1.6732,4.0046 2.28381,4.4499 4.33133,3.1592 1.31095,-0.8262 3.83637,-3.8173 5.61207,-6.6466 1.77568,-2.8295 3.81839,-4.7799 4.53935,-4.3343 0.72094,0.4456 0.9387,0.2081 0.4839,-0.5279 -0.95626,-1.5472 3.83886,-15.3605 8.70415,-25.074 1.83657,-3.6666 5.01281,-11.7666 7.05831,-18 4.83165,-14.7237 28.85772,-71.7037 34.09208,-80.8525 4.68152,-8.1824 12.81182,-15.5249 16.22886,-14.6564 1.28435,0.3265 2.03675,0.1107 1.672,-0.4795 -1.26989,-2.0546 15.70046,-3.9416 24.88658,-2.7669 12.9433,1.6549 21.5527,4.922 27.6758,10.5023 6.17676,5.6292 15.15109,19.9873 14.13979,22.6226 -0.3733,0.973 -0.1315,1.4307 0.5376,1.0172 1.1,-0.6798 6.7531,12.1864 6.7531,15.37 0,0.728 1.4707,4.8178 3.2682,9.0886 1.9963,4.7429 4.3145,14.9754 5.9568,26.293 1.4788,10.1906 3.3081,21.7602 4.0652,25.7103 0.757,3.9501 1.3801,11.1501 1.3847,16 0.01,5.1995 0.8226,10.3796 1.9929,12.6235 1.0916,2.0929 1.687,4.287 1.3233,4.8756 -0.3638,0.5886 0.5106,0.7637 1.943,0.3892 4.901,-1.2818 15.0164,-13.1932 32.7325,-38.5444 5.7281,-8.1966 8.2669,-12.1783 14.9236,-23.4043 5.8193,-9.8139 13.6944,-18.0572 18.3722,-19.2313 2.4075,-0.6043 7.0503,-0.1342 12.1826,1.2333 4.561,1.2153 9.5796,2.2097 11.1525,2.2097 1.5729,0 2.5426,0.5134 2.1549,1.1407 -0.3878,0.6275 0.7757,0.8577 2.5855,0.5117 3.8386,-0.7337 10.4764,3.1034 9.1319,5.2788 -0.5573,0.9018 -0.3073,1.1051 0.6392,0.5202 2.1221,-1.3115 8.7248,12.9149 11.272,24.287 3.9402,17.5916 7.91,44.1799 8.1325,54.4676 0.066,3.0467 0.4861,5.3131 0.9337,5.0364 0.8971,-0.5545 2.4796,11.295 3.3064,24.7576 1.0738,17.4832 3.2937,33.6128 5.2865,38.411 1.1245,2.7073 5.2312,8.2224 9.1261,12.2557 9.9697,10.324 11.4671,12.9803 11.4671,20.3409 0,6.9236 -4.3378,17.1484 -9.1009,21.4526 -4.0831,3.6894 -12.005,6.0824 -20.3528,6.148 -5.718,0.045 -9.3459,-0.8871 -15.5796,-4.002 z m 905.9051,-2.115 c -12.1684,-2.61 -21.8311,-6.3298 -29.3084,-11.2826 -7.3499,-4.8683 -17.1323,-17.421 -22.4018,-28.7456 -4.47,-9.6066 -9.8273,-31.0566 -11.7712,-47.1296 -1.5468,-12.7911 -2.0261,-63.1467 -0.6797,-71.4106 0.7535,-4.6246 0.3711,-6.0172 -2.6328,-9.587 -1.9328,-2.2971 -7.8516,-6.2354 -13.1529,-8.7516 -10.3027,-4.8903 -20.374,-14.2886 -19.0394,-17.767 0.4128,-1.0756 0.2006,-1.6158 -0.4716,-1.2004 -0.6721,0.4154 -1.5204,-0.3034 -1.885,-1.5974 -2.0687,-7.3391 -2.1046,-11.5599 -0.171,-20.0616 1.907,-8.384 2.7887,-9.9696 7.8499,-14.117 5.9199,-4.8508 29.174,-17.2852 32.326,-17.2852 0.9897,0 1.5088,-0.2906 1.1535,-0.646 -0.3552,-0.3552 0.3948,-1.4057 1.6666,-2.3345 2.0359,-1.4865 2.3924,-5.2011 2.9794,-31.0372 0.7654,-33.6979 0.695,-33.4817 13.442,-41.3056 6.9085,-4.2404 7.6988,-4.4116 18.0569,-3.9145 8.6397,0.4146 12.4179,1.3122 18.6667,4.4344 13.7448,6.8677 16.4625,16.8066 13.3798,48.933 l -1.1212,11.6851 4.1402,3.8676 c 5.3853,5.0305 8.8194,5.5144 42.9198,6.0467 34.5354,0.539 41.1824,2.165 41.1824,10.074 0,4.3388 -7.2936,11.4742 -13.0244,12.742 -8.3618,1.8496 -11.9174,3.5385 -16.9018,8.0284 -7.0584,6.358 -10.2998,7.8657 -22.1434,10.3 -5.6409,1.1594 -15.5401,4.7322 -22.5086,8.124 -6.8416,3.3298 -13.0531,5.6749 -13.8032,5.2113 -0.7502,-0.4636 -0.9626,-0.1935 -0.4719,0.6004 0.4913,0.7949 -0.3305,1.8313 -1.8295,2.3071 -5.0653,1.6077 -6.9848,6.74 -8.1246,21.7241 -4.4566,58.5824 -4.4954,68.6523 -0.3402,88.4592 5.8606,27.936 18.8655,37.5403 41.5163,30.6603 5.0788,-1.5427 10.4992,-2.9979 12.0453,-3.2339 1.5462,-0.2359 5.6855,-2.2524 9.1986,-4.4812 9.4477,-5.9937 16.7068,-8.4639 22.2362,-7.5665 6.5147,1.0572 7.7387,3.0088 8.4922,13.5396 0.7574,10.5865 -0.7316,14.3504 -10.0075,25.2956 -8.0376,9.4841 -26.8776,25.0684 -33.9921,28.1181 -13.256,5.6821 -29.0372,6.8289 -45.4696,3.3041 z m -44.7016,-40.1578 c 1.6584,-2.1148 1.6113,-2.1619 -0.5035,-0.5035 -2.2209,1.7419 -2.9273,2.8368 -1.8299,2.8368 0.2768,0 1.3268,-1.05 2.3334,-2.3333 z m -243.9243,34.9172 c -15.0681,-4.055 -28.6615,-16.0718 -36.7935,-32.5262 -5.0565,-10.2316 -6.0013,-14.4569 -6.1241,-27.391 -0.3157,-33.2558 6.5267,-68.7242 28.4229,-147.3334 3.9295,-14.1074 5.971,-18.075 12.8278,-24.9318 7.7508,-7.7508 12.7262,-9.7348 24.4128,-9.7348 8.1341,0 10.9812,-0.6016 15.7985,-3.3384 24.6371,-13.9964 37.6636,-15.3036 57.2097,-5.7407 10.7475,5.258 20.252,14.6163 29.9398,29.4785 11.8948,18.2482 16.4481,29.0804 18.0472,42.9339 0.7618,6.6 1.9621,14.4 2.6673,17.3333 0.7052,2.9334 1.2925,8.3334 1.3052,12 0.032,9.1124 -4.8387,41.1583 -7.4976,49.3334 -5.818,17.8882 -21.4483,41.5009 -38.6152,58.3358 -10.092,9.8968 -26.9224,22.945 -33.18,25.7232 -2.2,0.9768 -9.5995,4.2798 -16.4433,7.3398 -6.844,3.06 -13.8364,5.647 -15.5388,5.749 -1.7024,0.1027 -2.8554,0.5743 -2.5619,1.0495 0.7028,1.1385 -14.9028,3.8268 -21.5652,3.7149 -2.8733,-0.048 -8.4135,-0.946 -12.3116,-1.995 z m 34.7037,-58.6838 c 5.791,-2.043 18.2562,-10.1045 24.333,-15.7362 2.0457,-1.896 4.3941,-3.0623 5.2185,-2.5918 0.8244,0.4704 1.0865,0.3968 0.5825,-0.1637 -0.5041,-0.5604 2.2228,-4.7196 6.0598,-9.2425 9.5053,-11.2048 14.2205,-18.2739 20.5658,-30.8326 7.9322,-15.6989 9.8007,-23.1305 10.5608,-42 0.6016,-14.9342 0.3651,-17.4766 -2.2754,-24.4589 -4.9636,-13.1252 -17.911,-24.0367 -23.2568,-19.6 -1.042,0.8647 -2.7862,5.4813 -3.876,10.2592 -2.7388,12.0073 -7.23,16.4093 -18.9079,18.5324 -18.8105,3.4197 -27.3459,16.6127 -34.7597,53.7273 -8.5815,42.9594 -8.9467,54.6592 -1.9256,61.6803 4.0377,4.0377 7.2277,4.1147 17.681,0.4265 z m 414.0794,49.6115 c -13.2392,-4.4693 -22.8324,-11.5597 -26.0427,-19.2483 -2.5037,-5.9965 -2.5945,-9.123 -2.1324,-73.3933 0.2655,-36.9215 0.8076,-67.6556 1.2047,-68.2981 0.397,-0.6426 1.2985,-24.434 2.0032,-52.87 1.0985,-44.3358 0.9721,-55.0719 -0.8878,-75.3552 -2.4558,-26.7847 -1.4254,-40.0157 3.8518,-49.4564 4.707,-8.4206 8.0141,-10.1071 21.7068,-11.0699 10.6186,-0.7466 12.852,-0.5007 18.618,2.0499 11.9013,5.2645 16.6144,12.362 16.6344,25.0498 0,4.2607 0.055,9.5466 0.1066,11.7466 0.052,2.2 0.203,44.2 0.3348,93.3333 l 0.2398,89.3333 3.0421,0.1534 c 1.6733,0.084 2.7963,-0.093 2.4955,-0.3935 -0.3008,-0.3008 3.0469,-3.9697 7.4394,-8.1533 4.3924,-4.1836 12.0515,-13.0102 17.0202,-19.6144 19.1428,-25.4443 38.9964,-43.2742 53.1558,-47.7374 19.1107,-6.024 49.883,0.3323 64.2196,13.2648 9.5938,8.6543 21.4552,34.9731 28.5779,63.4102 15.5019,61.8908 23.9207,75.7369 46.0495,75.7369 8.5336,0 15.6592,2.93 17.2405,7.0891 2.8965,7.6185 -4.0827,23.2009 -13.49,30.1192 -19.6163,14.426 -41.9392,12.2981 -66.5664,-6.3451 -18.7128,-14.166 -20.0912,-17.1707 -36.4852,-79.5299 -4.1124,-15.6424 -12.0651,-38.834 -14.6911,-42.8417 -2.4828,-3.7893 -6.1374,-3.9636 -13.3412,-0.6364 -7.0572,3.2595 -14.5744,9.4205 -21.8322,17.8935 -3.2594,3.8049 -6.4751,6.7532 -7.146,6.5516 -0.671,-0.2015 -0.8587,0.2182 -0.4171,0.9328 0.4416,0.7144 -2.9639,6.4784 -7.5676,12.8088 -16.0681,22.0945 -38.9241,56.2914 -42.7472,63.9581 -1.0971,2.2 -3.3275,8.5 -4.9565,14 -6.3967,21.5967 -13.3135,28.7503 -28.9582,29.9493 -5.7052,0.4372 -10.04,-0.1962 -16.6796,-2.4377 z M 1646.367,1266.3045 c -7.7,-1.0247 -16.7,-2.4942 -20,-3.2655 -3.3,-0.7714 -6.9,-1.4383 -8,-1.4821 -4.2163,-0.1678 -39.7752,-8.3773 -82.6667,-19.0854 -56.2456,-14.0421 -57.0996,-14.202 -157.3333,-29.4614 -103.3557,-15.7346 -302.2982,-46.4952 -386.66669,-59.7866 -34.83335,-5.4876 -75.63335,-11.2177 -90.66668,-12.7335 -132.48835,-13.3591 -201.39874,-29.9506 -260.59221,-62.7426 l -12.74113,-7.0584 v -5.7902 c 0,-3.9134 0.82217,-6.6125 2.53637,-8.3267 3.55603,-3.556 17.84379,-10.1368 28.1303,-12.9565 11.3531,-3.1121 35.91656,-3.0922 60,0.049 25.71525,3.3537 46.93662,3.0385 72,-1.0694 36.96972,-6.0592 57.99002,-7.6781 109.45288,-8.4294 109.49456,-1.5986 189.88416,8.2458 422.54716,51.7443 139.9495,26.1648 206.5043,37.1094 270.9499,44.5562 18.0276,2.0831 19.7904,2.0929 21.7618,0.1213 1.18,-1.1799 1.7904,-2.1453 1.3564,-2.1453 -0.434,0 0.354,-2.25 1.751,-5 7.1673,-14.1092 14.3552,-45.7236 18.8712,-83 2.5221,-20.8194 7.294,-45.3494 28.142,-144.6667 2.9248,-13.9333 7.0542,-33.7333 9.1768,-44 23.5533,-113.9323 24.8508,-119.3587 43.4688,-181.7971 9.9825,-33.4783 18.4962,-61.4442 18.9193,-62.1465 0.4231,-0.7023 0.9269,-2.5023 1.1199,-4 0.1929,-1.4977 7.2993,-25.4667 15.792,-53.2644 8.4925,-27.79779 15.2586,-51.08897 15.0354,-51.75823 -0.8082,-2.42488 -34.1742,21.62466 -56.9832,41.07242 -7.1677,6.11146 -13.5025,10.68771 -14.0772,10.16941 -0.5748,-0.5182 -0.6973,-0.3282 -0.2725,0.4224 0.4248,0.7505 -5.336,7.0505 -12.8019,14 -15.5782,14.5006 -45.3918,46.7873 -64.2766,69.6083 -7.1182,8.6017 -13.4236,15.3419 -14.0122,14.9782 -0.5885,-0.3637 -1.5041,0.041 -2.0348,0.8998 -0.6025,0.9749 -0.3868,1.2039 0.5746,0.6097 2.9961,-1.8517 1.422,0.5803 -9.1592,14.1513 -25.8351,33.1348 -54.239,74.4197 -78.6984,114.388 -36.1836,59.1259 -57.6484,86.8655 -79.9364,103.3038 -9.2779,6.8428 -21.1215,12.9845 -22.909,11.8798 -0.6001,-0.3708 -1.091,-0.094 -1.091,0.6145 0,0.7088 -5.7562,2.3252 -12.7914,3.5919 -19.0728,3.4342 -34.1469,1.3143 -50.6985,-7.1297 -8.7163,-4.4467 -19.4756,-13.5583 -18.6257,-15.7732 0.4134,-1.0774 0.1801,-1.6056 -0.5186,-1.1738 -0.6986,0.4318 -2.8946,-1.7871 -4.88,-4.9308 -28.1895,-44.6377 -21.1563,-155.8438 20.3467,-321.7158 10.5176,-42.03469 20.0376,-76.25448 46.4828,-167.0819 12.8432,-44.11087 23.3513,-80.85254 23.3513,-81.64816 0,-1.28338 -31.441,30.47033 -48.5589,49.04182 -3.5377,3.83812 -7.052,6.59542 -7.8093,6.12732 -0.7575,-0.4681 -1.0138,-0.26317 -0.5696,0.4554 1.0709,1.73278 -16.8782,19.48215 -18.3484,18.14422 -0.6278,-0.57128 -0.7324,-0.32543 -0.2327,0.5463 0.9732,1.69758 -43.9801,49.33572 -46.0009,48.74835 -0.6308,-0.18334 -0.9968,0.17045 -0.8135,0.78618 0.5027,1.6883 -29.6703,33.51207 -31.4531,33.17391 -0.8508,-0.16139 -1.4344,0.3442 -1.2968,1.12352 0.1375,0.77932 -7.291,9.47932 -16.5079,19.33333 -34.6548,37.05047 -62.1773,67.20907 -69.728,76.40651 -15.0034,18.2754 -40.1287,50.3152 -50.0765,63.8572 -5.5159,7.509 -11.163,15.0027 -12.5491,16.6527 -1.3861,1.65 -2.2432,3 -1.9047,3 0.3385,0 -1.7232,3.45 -4.5816,7.6666 -13.3622,19.7117 -31.5103,55.0592 -40.5602,79 -3.3218,8.7876 -4.5653,9.8611 -15.3961,13.2907 -24.2799,7.6884 -62.53959,2.7912 -82.54109,-10.5654 -25.85846,-17.2676 -42.47532,-66.8567 -50.95351,-152.0586 -4.70217,-47.25472 -5.90311,-79.28111 -5.86353,-156.36858 0.0209,-40.90274 -0.0945,-74.20274 -0.2568,-74 -0.16223,0.20272 -4.66034,9.96858 -9.99582,21.70192 -17.28901,38.02058 -43.63471,93.68697 -72.25381,152.66666 -7.29474,15.03333 -14.49616,30.1833 -16.00318,33.6667 -1.50701,3.4833 -3.26613,6.3333 -3.90916,6.3333 -0.64302,0 -1.01914,0.5021 -0.83581,1.1157 0.63027,2.1097 -8.78936,20.0932 -10.10028,19.283 -0.73319,-0.4532 -0.8906,-0.1294 -0.35691,0.7342 0.52516,0.8498 -1.84981,7.3925 -5.27774,14.5394 -5.53676,11.5436 -20.5731,43.112 -38.26092,80.3277 -41.96106,88.2873 -86.64196,196.1722 -114.55814,276.6079 -5.07901,14.6343 -10.4382,28.5554 -11.9093,30.9356 -1.66552,2.6949 -5.54136,5.7329 -10.27238,8.0518 -6.85269,3.3589 -8.9704,3.7236 -21.59767,3.7198 -17.65665,-0.01 -30.85682,-3.9036 -34.03614,-10.0517 -5.34454,-10.3352 -5.53852,-47.2019 -0.51178,-97.2634 3.8574,-38.416 5.95011,-50.0905 13.86227,-77.3333 6.82563,-23.5017 8.96871,-28.5395 45.37653,-106.6667 34.36665,-73.7471 89.18173,-190.88608 113.69505,-242.96461 5.08222,-10.7972 9.72069,-19.1972 10.30768,-18.66667 0.587,0.53055 0.6922,0.30609 0.23377,-0.49877 -0.45841,-0.80486 7.16308,-18.50486 16.93667,-39.33333 9.77357,-20.82847 18.52996,-40.26995 19.45864,-43.20328 0.92868,-2.93334 8.26917,-23.03334 16.31221,-44.66667 37.39823,-100.58996 47.91535,-134.93598 67.57549,-220.683211 10.13951,-44.22324 16.78739,-53.99058 42.59753,-62.58614 26.05988,-8.67874 52.85042,-9.8213 77.05714,-3.28634 5.0896,1.37401 5.8577,2.20189 9.6091,10.35787 6.71146,14.5916 10.84789,26.55764 15.64999,45.27434 11.7511,45.800911 17.1346,94.916661 23.1918,211.590151 1.4848,28.6 3.3301,59.2 4.1006,68 1.4429,16.47988 21.9665,157.82745 23.0778,158.93878 0.3422,0.3422 5.0738,-4.07904 10.5146,-9.82497 22.3453,-23.59826 76.5768,-81.29866 96.9148,-103.11381 11.9643,-12.83334 27.0081,-28.73334 33.4307,-35.33334 18.2016,-18.70457 34.1256,-35.6449 37.2987,-39.67937 1.5915,-2.02365 3.4606,-3.32905 4.1533,-2.90089 0.6928,0.42816 1.0948,-0.0161 0.8933,-0.9873 -0.2015,-0.97117 0.3836,-1.61577 1.3003,-1.43244 0.9166,0.18334 1.5166,-0.21336 1.3333,-0.88153 -0.4775,-1.74033 43.3068,-49.41956 44.631,-48.6012 0.606,0.37452 0.9369,0.0575 0.7354,-0.7046 -0.9698,-3.66761 74.2022,-80.75878 109.6336,-112.4327 9.9,-8.8501 23.1434,-20.78118 29.4296,-26.51351 18.4156,-16.79281 32.9264,-28.21785 48.5704,-38.241791 7.4928,-4.80107 25.7732,-12.68944 34.955,-15.08381 15.496,-4.04097 38.1893,-3.76376 55.5257,0.67827 18.2653,4.68007 22.7488,7.04708 23.2579,12.2789 0.6816,7.004971 -5.649,34.803751 -28.6562,125.835311 -12.14,48.03333 -30.6392,121.23333 -41.1096,162.66666 -28.4246,112.48195 -45.0948,186.3026 -51.3916,227.579 -3.6238,23.7542 -3.2722,25.8509 2.7522,16.4144 5.4712,-8.5699 22.5293,-30.7867 28.3638,-36.9415 2.2323,-2.3548 4.5567,-3.9737 5.1655,-3.5974 0.6087,0.3762 0.7912,-0.1385 0.4053,-1.1438 -1.579,-4.1152 92.1642,-91.34519 97.574,-90.79457 0.9878,0.10054 1.4903,-0.31185 1.1167,-0.91642 -0.6168,-0.998 47.6919,-41.26638 49.506,-41.26638 0.426,0 1.7707,-1.13412 2.9883,-2.52025 1.2176,-1.38615 9.4137,-8.37027 18.2137,-15.52027 9.3669,-7.6106 22.2692,-19.97018 31.1221,-29.81307 8.3171,-9.24719 17.4094,-19.21307 20.205,-22.1464 2.7956,-2.93334 8.3629,-8.93334 12.372,-13.33334 17.5345,-19.24465 60.9373,-65.89754 67.6342,-72.69889 9.2555,-9.39975 24.7563,-20.4818 26.8439,-19.19159 0.9657,0.59688 1.2129,0.39438 0.6433,-0.52717 -0.5768,-0.93335 2.4811,-3.20529 8.1274,-6.03851 32.1965,-16.15556 58.9896,-18.09409 83.1245,-6.01424 25.6967,12.86162 31.7513,35.38623 21.0931,78.4704 -1.5422,6.23334 -3.4626,12.53334 -4.2679,14 -0.8053,1.46667 -1.3485,3.08099 -1.2073,3.58736 0.1413,0.50639 -5.7672,17.00639 -13.1299,36.66667 -12.4836,33.33434 -20.8396,59.5341 -39.0419,122.41264 -4.0334,13.93333 -8.9168,30.73333 -10.8518,37.33333 -13.1902,44.9897 -35.1404,130.0924 -43.8476,170 -12.029,55.1321 -13.7479,65.1849 -32.1468,188 -7.7452,51.6999 -18.8175,124.9 -24.6051,162.6666 -5.7876,37.7667 -11.2011,76.1667 -12.0297,85.3334 -4.1114,45.4761 -11.6951,70.3243 -25.7544,84.3836 -6.6334,6.6334 -21.3986,13.5596 -34.5602,16.212 -12.6932,2.5579 -40.2328,2.5274 -59.7229,-0.066 z m -217.3333,-383.72 c 0,-0.2882 -0.9312,-0.8813 -2.0692,-1.3181 -1.1867,-0.4553 -1.7219,-0.2318 -1.2547,0.5241 0.7829,1.2669 3.3239,1.8739 3.3239,0.794 z"
       id="path293" />
  </g>
</svg>
