<?xml version="1.0" encoding="UTF-8" standalone="no"?>
<!-- Created with Inkscape (http://www.inkscape.org/) -->

<svg
   width="1.47mm"
   height="1mm"
   viewBox="0 0 1.47 1"
   version="1.1"
   id="svg5"
   xml:space="preserve"
   inkscape:version="1.2.2 (732a01da63, 2022-12-09)"
   sodipodi:docname="logo.svg"
   xmlns:inkscape="http://www.inkscape.org/namespaces/inkscape"
   xmlns:sodipodi="http://sodipodi.sourceforge.net/DTD/sodipodi-0.dtd"
   xmlns="http://www.w3.org/2000/svg"
   xmlns:svg="http://www.w3.org/2000/svg"><sodipodi:namedview
     id="namedview7"
     pagecolor="#ffffff"
     bordercolor="#000000"
     borderopacity="0.25"
     inkscape:showpageshadow="2"
     inkscape:pageopacity="0.0"
     inkscape:pagecheckerboard="0"
     inkscape:deskcolor="#d1d1d1"
     inkscape:document-units="mm"
     showgrid="false"
     inkscape:zoom="94.530191"
     inkscape:cx="1.676713"
     inkscape:cy="2.0469651"
     inkscape:window-width="1920"
     inkscape:window-height="1018"
     inkscape:window-x="-8"
     inkscape:window-y="-8"
     inkscape:window-maximized="1"
     inkscape:current-layer="layer1" /><defs
     id="defs2" /><g
     inkscape:label="Layer 1"
     inkscape:groupmode="layer"
     id="layer1"><path
       style="fill:#000000;stroke-width:0.000797301"
       d="M 0.11871318,0.9996274 C 0.11269018,0.9972624 0.10783128,0.9932944 0.10531988,0.9886742 0.10398488,0.9862212 0.10219088,0.9804812 0.10085488,0.9743861 0.09962588,0.9687821 0.09626538,0.9561273 0.09338658,0.9462604 0.09050778,0.9363934 0.08542678,0.9181804 0.08209556,0.9057858 0.06938232,0.8584866 0.0608359,0.8346385 0.05659838,0.8346385 c -0.001523,0 -0.0036008,0.002132 -0.0045903,0.004706 -0.0020052,0.005219 -0.005458,0.0322639 -0.0062196,0.048711 -9.7739e-4,0.0211071 -0.001388,0.0261544 -0.0029517,0.0362771 -9.2055e-4,0.005956 -0.0012047,0.0137398 -0.001125,0.0308113 1.1427e-4,0.0244886 -3.327e-4,0.0286388 -0.0036227,0.033642 C 0.03435348,0.9944699 0.02365275,0.9976589 0.0134667,0.9961289 0.00827502,0.99535088 0.00396399,0.9907339 0.0010956,0.9828894 -1.11106e-4,0.9795864 -2.38769e-4,0.9778714 3.143722e-4,0.9723667 6.780951e-4,0.9687507 0.00136493,0.9645347 0.00184079,0.9630047 c 4.7585e-4,-0.001531 8.7944e-4,-0.004225 8.9686e-4,-0.00598 1.75e-5,-0.001756 5.3682e-4,-0.005884 0.00115433,-0.009174 C 0.00450943,0.9445637 0.00575972,0.9358433 0.00667037,0.928476 0.00758103,0.921109 0.00882155,0.9126775 0.00942715,0.9097394 0.01003274,0.9068054 0.01094423,0.9009904 0.01145257,0.8968237 0.011961,0.8926547 0.01288007,0.8858408 0.01349507,0.8816754 c 0.0010651,-0.007215 0.0019267,-0.0134784 0.0035645,-0.0259123 0.0020207,-0.0153407 0.0042562,-0.0284159 0.0056376,-0.0329726 8.448e-4,-0.00279 0.001536,-0.007151 0.001536,-0.009703 0,-0.002549 5.0971e-4,-0.005652 0.0011325,-0.006894 0.00186,-0.003704 0.0036694,-0.0138497 0.003483,-0.0195246 -1.4889e-4,-0.004533 1.701e-4,-0.005966 0.0021865,-0.00982 0.0021542,-0.004117 0.0028814,-0.00477 0.0083067,-0.007449 0.0080601,-0.00398 0.01255872,-0.003974 0.02037112,2.917e-5 0.0055576,0.002848 0.0082942,0.005239 0.01120666,0.00979 0.002658,0.004153 0.0033948,0.005461 0.0058385,0.0103649 0.0013111,0.002631 0.0034761,0.006757 0.0048109,0.009169 0.0036195,0.00654 0.01091303,0.0243889 0.01238008,0.0302975 7.0781e-4,0.002854 0.0016314,0.005996 0.0020531,0.006991 0.0015119,0.003575 0.01135579,0.0376816 0.0171957,0.0595816 0.009328,0.0349816 0.0137549,0.0466419 0.0177069,0.0466419 0.003697,0 0.009489,-0.009138 0.0265266,-0.0418583 0.0156807,-0.0301139 0.0195221,-0.039091 0.0334344,-0.0781354 0.0081,-0.0227332 0.009267,-0.0254284 0.0121906,-0.0281563 0.002672,-0.002493 0.0102811,-0.004413 0.0148012,-0.003736 0.004886,7.3329e-4 0.0113956,0.003959 0.0149467,0.007407 0.007105,0.0069 0.0156995,0.0323569 0.0214562,0.0635523 0.001133,0.006141 0.003836,0.0237198 0.006007,0.0390677 0.004161,0.029414 0.006428,0.0401524 0.0102588,0.0486027 0.003737,0.008242 0.004498,0.0128652 0.002978,0.0180921 -0.001508,0.005187 -0.005571,0.009781 -0.009311,0.0105291 -0.004368,8.7382e-4 -0.0119323,6.0879e-4 -0.0119323,-4.1718e-4 0,-5.1155e-4 -2.1999e-4,-7.0996e-4 -4.8899e-4,-4.4156e-4 -7.2462e-4,7.2454e-4 -0.006801,-0.001804 -0.008961,-0.003736 -0.004265,-0.003808 -0.0105229,-0.0192841 -0.0116352,-0.0287807 -3.082e-4,-0.002629 -0.001771,-0.012498 -0.003252,-0.0219256 -0.00148,-0.009428 -0.00326,-0.0227033 -0.003955,-0.0294998 -0.001843,-0.0180239 -0.005084,-0.034863 -0.007179,-0.0372984 l -0.001689,-0.001964 -0.002117,0.001892 c -0.001165,0.001042 -0.002809,0.003688 -0.003655,0.005876 -0.004594,0.0119144 -0.0173991,0.0411432 -0.0275412,0.0628668 -0.001464,0.003135 -0.003801,0.008304 -0.005192,0.0114847 -0.003001,0.006854 -0.0216032,0.0396802 -0.0286769,0.0505997 -0.002734,0.004217 -0.006206,0.008615 -0.007715,0.009766 -0.006925,0.005283 -0.0140832,0.006469 -0.0214914,0.003559 z M 0.74180414,0.9885171 c -0.001096,-3.5105e-4 -0.003607,-6.7973e-4 -0.005581,-7.3128e-4 -0.005287,-1.3717e-4 -0.0118879,-0.003712 -0.0141351,-0.007664 -0.003493,-0.006133 -0.003643,-0.007608 -0.004008,-0.0394445 -5.1932e-4,-0.045279 -5.203e-4,-0.045667 -2.3049e-4,-0.0582027 2.4702e-4,-0.0106726 1.0504e-4,-0.0120851 -0.001841,-0.0183791 -0.002427,-0.007848 -0.002641,-0.0124667 -8.2091e-4,-0.0178075 0.001429,-0.004193 0.005719,-0.008891 0.009649,-0.0105612 0.003098,-0.001315 0.0113465,-0.001419 0.0171284,-2.0619e-4 0.006284,0.001315 0.009311,0.003495 0.0115066,0.008292 0.00275,0.006004 0.004533,0.0189875 0.003895,0.0283446 -2.8592e-4,0.004193 -2.7814e-4,0.008587 1.945e-5,0.009767 0.001293,0.005155 0.006514,4.2505e-4 0.0107258,-0.009712 0.003687,-0.008874 0.007076,-0.0148228 0.017162,-0.0301267 0.007747,-0.0117549 0.009558,-0.0139987 0.0128718,-0.015946 0.003478,-0.002044 0.00456,-0.002261 0.0110318,-0.002245 0.008267,2.918e-5 0.012187,0.001507 0.0183277,0.00691 0.006189,0.005451 0.0139667,0.0247323 0.0195527,0.0484777 0.005139,0.0218382 0.008087,0.0287029 0.0123345,0.0287029 0.001836,0 0.009295,-0.007255 0.012179,-0.0118479 7.2751e-4,-0.001154 0.002165,-0.003143 0.003191,-0.004409 0.001026,-0.001267 0.002766,-0.004064 0.003856,-0.006221 0.00109,-0.002148 0.004866,-0.007023 0.008398,-0.0108201 0.003527,-0.0038 0.007143,-0.008357 0.008027,-0.0101267 8.8985e-4,-0.001772 0.002429,-0.004113 0.003439,-0.005211 0.001002,-0.001098 0.002782,-0.003431 0.003944,-0.005179 0.002421,-0.003648 0.008735,-0.0110109 0.0139979,-0.0163324 0.004858,-0.004906 0.008653,-0.00659 0.0150898,-0.006678 0.004361,-5.836e-5 0.006117,3.5594e-4 0.010554,0.002509 0.008915,0.004329 0.0121469,0.009552 0.0138352,0.0223545 6.1752e-4,0.004682 0.001812,0.0119192 0.002662,0.0160847 0.001724,0.008481 0.002181,0.0123513 0.003319,0.0280448 9.7001e-4,0.0134512 0.002493,0.0216867 0.006037,0.0326528 0.003223,0.009978 0.004818,0.012296 0.009338,0.0135281 0.008296,0.002261 0.008385,0.002317 0.0100738,0.005804 0.003471,0.007167 0.001211,0.0171493 -0.005147,0.0227305 -0.004345,0.003816 -0.007464,0.004874 -0.0142809,0.004874 -0.010651,0 -0.0197146,-0.004938 -0.024402,-0.0132957 -0.0113765,-0.0202846 -0.0126006,-0.0241038 -0.0186925,-0.0583262 -0.00214,-0.0120162 -0.003591,-0.0160807 -0.00574,-0.0160807 -0.004642,0 -0.0414952,0.051209 -0.0456157,0.0633855 -0.003102,0.009179 -0.005002,0.0118767 -0.009804,0.0139426 -0.003551,0.001531 -0.005131,0.00174 -0.0101972,0.001387 -0.003295,-2.3249e-4 -0.008087,-0.001211 -0.0106445,-0.002173 -0.009378,-0.003535 -0.0130031,-0.009089 -0.0156157,-0.0239146 -8.8985e-4,-0.005042 -0.002886,-0.0129293 -0.004441,-0.0175261 -0.001555,-0.004594 -0.003728,-0.0126696 -0.004834,-0.0179389 -0.003808,-0.018145 -0.00824,-0.0300666 -0.0115761,-0.0311256 -0.003359,-0.001066 -0.007543,0.004946 -0.0110939,0.0159628 -0.002282,0.007079 -0.008784,0.0196296 -0.009833,0.0189819 -4.3763e-4,-2.7041e-4 -5.7864e-4,-1.4198e-4 -3.1509e-4,2.8587e-4 2.6452e-4,4.2793e-4 -1.7117e-4,0.001852 -9.6762e-4,0.003159 -7.9649e-4,0.001307 -0.002635,0.006125 -0.004086,0.0107071 -0.001451,0.004578 -0.003963,0.0115553 -0.005581,0.0155027 -0.001619,0.003944 -0.003374,0.008611 -0.003901,0.0103648 -5.2711e-4,0.001756 -0.001282,0.003904 -0.001678,0.004786 -0.001381,0.003062 -0.003279,0.008814 -0.004862,0.0147499 -0.002329,0.00873 -0.004502,0.0115464 -0.0114484,0.0148381 -0.004063,0.001924 -0.007201,0.002245 -0.0107636,0.001106 z M 0.32003177,0.98806614 c -6.5781e-4,-2.2951e-4 -0.003162,-0.001026 -0.005564,-0.00178 -0.0166712,-0.005187 -0.0197098,-0.0305973 -0.008744,-0.073117 0.001809,-0.007015 0.003806,-0.0148349 0.004438,-0.0173754 0.00125,-0.005026 0.008423,-0.0231377 0.0127003,-0.0320643 0.006291,-0.0131281 0.0153234,-0.0258995 0.0218981,-0.030962 0.004395,-0.003383 0.0189668,-0.0101155 0.023097,-0.0106694 0.003815,-5.1155e-4 0.0145911,0.00295 0.0188952,0.006069 0.003075,0.002229 0.003855,0.003471 0.008054,0.0128483 0.002375,0.005299 0.005825,0.009238 0.0120791,0.0137791 0.004295,0.003118 0.007528,0.009181 0.00881,0.0165184 4.9783e-4,0.002854 0.001759,0.008591 0.002803,0.0127569 0.002131,0.008506 0.003544,0.016427 0.006047,0.0338857 0.001146,0.007993 0.003022,0.016326 0.005656,0.0251147 0.006308,0.0210574 0.006098,0.029422 -8.5699e-4,0.0340685 -0.006708,0.004481 -0.0169029,1.0702e-4 -0.0245058,-0.0105131 -0.001898,-0.002654 -0.004546,-0.006309 -0.005886,-0.008123 -0.001536,-0.002084 -0.002693,-0.004882 -0.003132,-0.007576 -0.001134,-0.00695 -0.004114,-0.0191046 -0.005794,-0.0236372 -0.001368,-0.003688 -0.00178,-0.004153 -0.003288,-0.003696 -0.002771,8.4175e-4 -0.004201,0.002501 -0.007379,0.008574 -0.006567,0.0125405 -0.0190034,0.0318367 -0.0270773,0.0420154 -0.008486,0.0106975 -0.0136497,0.0136885 -0.0242751,0.0140589 -0.003728,1.3035e-4 -0.007315,4.866e-5 -0.007973,-1.8182e-4 z m 0.0212117,-0.0511913 c 0.003079,-0.002525 0.019046,-0.0275493 0.0245421,-0.03846 0.007558,-0.015004 0.007863,-0.019976 0.001559,-0.0255099 -0.001934,-0.0017 -0.003542,-0.002389 -0.005563,-0.002389 -0.004583,0 -0.007249,0.003471 -0.0128623,0.0167437 -0.008778,0.0207576 -0.0129425,0.0357985 -0.0129425,0.0467469 0,0.003912 1.5415e-4,0.004281 0.001794,0.004265 9.8685e-4,-9.46e-6 0.002549,-6.3797e-4 0.003472,-0.001395 z m 0.32840487,0.0497588 c -0.0114465,-0.005363 -0.0182335,-0.0150537 -0.0215797,-0.0308057 -0.001085,-0.005107 -0.003746,-0.0231346 -0.004737,-0.0320916 -5.0502e-4,-0.004561 -0.001892,-0.006975 -0.00401,-0.006975 -0.002266,0 -0.006509,0.00485 -0.01126,0.0128732 -0.008497,0.0143499 -0.0118126,0.0216643 -0.015403,0.0339843 -0.001916,0.006574 -0.004925,0.0105628 -0.009876,0.0130888 -0.002653,0.001355 -0.004168,0.001571 -0.008448,0.001211 -0.0103544,-8.658e-4 -0.0182853,-0.005299 -0.0213648,-0.0119344 -0.002735,-0.005892 -0.003434,-0.0109604 -0.003652,-0.0265008 -1.8925e-4,-0.0134576 -0.002217,-0.0380568 -0.00448,-0.0543708 -8.137e-4,-0.005868 -0.004894,-0.0151668 -0.00701,-0.0159788 -0.001653,-6.3412e-4 -0.004108,0.002116 -0.005066,0.005676 -4.8003e-4,0.00178 -0.001887,0.00469 -0.003127,0.006453 -0.001356,0.001932 -0.003211,0.00671 -0.004655,0.0119873 -0.00132,0.004826 -0.004056,0.0134384 -0.006078,0.019135 -0.002023,0.0057 -0.004578,0.013553 -0.005677,0.0174579 -0.002447,0.008685 -0.003717,0.0112202 -0.0111826,0.0223177 -0.00323,0.004802 -0.005872,0.009161 -0.005872,0.009689 0,5.291e-4 -5.1932e-4,0.001395 -0.001154,0.001916 -6.3467e-4,5.271e-4 -0.001769,0.002637 -0.002521,0.004682 -0.001501,0.004089 -0.005094,0.008416 -0.008444,0.0101708 -0.004284,0.002245 -0.0182546,3.8993e-4 -0.0260848,-0.003463 -0.004374,-0.002148 -0.007732,-0.007319 -0.0103988,-0.0159941 -0.005988,-0.0194813 -0.007884,-0.0419321 -0.008233,-0.0974168 -1.0708e-4,-0.0170571 -2.432e-5,-0.0181345 0.001691,-0.021916 0.002423,-0.005339 0.004496,-0.007431 0.009666,-0.009748 0.003759,-0.001683 0.005063,-0.001876 0.009568,-0.001427 0.007383,7.4106e-4 0.0110192,0.002958 0.0137617,0.008376 0.003639,0.007191 0.004186,0.0143114 0.002588,0.0336043 -0.001133,0.0136668 -0.001212,0.018177 -4.6759e-4,0.0265392 4.9346e-4,0.00554 0.001461,0.0114069 0.002152,0.0130359 l 0.001254,0.002958 0.003482,-0.003984 c 0.002164,-0.002477 0.003996,-0.005644 0.004839,-0.008372 7.468e-4,-0.002413 0.002415,-0.006502 0.003707,-0.009092 0.001292,-0.002589 0.003725,-0.008686 0.005407,-0.0135538 0.004227,-0.0122351 0.0182414,-0.0447692 0.0211495,-0.049099 0.00444,-0.006614 0.01017,-0.009102 0.0205771,-0.008946 0.0109782,1.6434e-4 0.0190124,0.003527 0.0237505,0.00994 0.002581,0.003495 0.00866,0.015647 0.00866,0.0173136 0,5.2028e-4 0.001067,0.003608 0.002371,0.00687 0.001575,0.003936 0.002904,0.009596 0.003961,0.0168759 8.7462e-4,0.006029 0.00196,0.0128876 0.002413,0.0152501 4.5271e-4,0.002365 8.2331e-4,0.00659 8.2331e-4,0.009394 0,0.005556 0.001647,0.0106293 0.003451,0.0106293 0.003055,0 0.0135165,-0.0135883 0.0295723,-0.0384127 0.005115,-0.007912 0.008651,-0.0106854 0.0126725,-0.009951 0.0102472,0.001868 0.0176967,0.003832 0.0189928,0.00501 0.004633,0.004193 0.008633,0.0178716 0.0110454,0.0377746 3.9864e-4,0.003287 0.001278,0.009452 0.001954,0.0136965 6.7609e-4,0.004241 0.001419,0.0105227 0.00165,0.013953 8.2251e-4,0.0121966 0.002021,0.02112 0.003227,0.024022 6.7201e-4,0.001619 0.003128,0.004914 0.005457,0.007327 0.005961,0.006173 0.006857,0.00776 0.006857,0.0121637 0,0.004137 -0.002594,0.0102541 -0.005442,0.0128283 -0.004415,0.003992 -0.0140265,0.00485 -0.0204701,0.001828 z m 0.54322606,-0.001275 c -0.00587,-0.001066 -0.012625,-0.003199 -0.016672,-0.005243 -0.00937,-0.004746 -0.017266,-0.0165561 -0.020677,-0.0309204 -0.00338,-0.0142256 -0.00403,-0.0215144 -0.00386,-0.0429951 l 1.664e-4,-0.0205283 -0.00192,-0.002044 c -0.00106,-0.001122 -0.00426,-0.003143 -0.00712,-0.004481 -0.011638,-0.005467 -0.015731,-0.013084 -0.013145,-0.0244549 0.00112,-0.00493 0.00167,-0.005916 0.00463,-0.008339 0.00184,-0.001515 0.00742,-0.004834 0.012382,-0.007375 0.00637,-0.003271 0.00924,-0.005187 0.00975,-0.006526 3.968e-4,-0.001042 7.217e-4,-0.008424 7.217e-4,-0.0164013 0,-0.007977 3.501e-4,-0.0157253 7.78e-4,-0.0172177 0.00244,-0.008497 0.014473,-0.012683 0.02576,-0.008959 0.00623,0.002054 0.00846,0.003723 0.010176,0.007599 0.0023,0.0052 0.00261,0.00914 0.00156,0.0195739 -0.00158,0.0156566 -9.379e-4,0.0160606 0.025855,0.0163412 0.016746,1.7501e-4 0.018729,3.4232e-4 0.022177,0.001876 0.00328,0.001459 0.00378,0.001996 0.00378,0.00404 0,0.002742 -0.00426,0.006983 -0.00779,0.00776 -0.005,0.001106 -0.00713,0.002116 -0.010107,0.004802 -0.00422,0.003808 -0.00616,0.004706 -0.01329,0.006173 -0.00739,0.001523 -0.024218,0.009532 -0.026124,0.0124403 -8.418e-4,0.001283 -0.00147,0.004722 -0.00181,0.009973 -2.917e-4,0.004409 -9.459e-4,0.014115 -0.00144,0.0215705 -0.00103,0.0153175 -6.399e-4,0.0232917 0.00164,0.0330632 0.00286,0.0122695 0.0083,0.018363 0.016383,0.018363 0.00499,0 0.017695,-0.003856 0.021816,-0.006622 0.00641,-0.004297 0.013591,-0.005387 0.016041,-0.002437 5.048e-4,6.0782e-4 0.00109,0.003543 0.00131,0.006518 5.019e-4,0.007015 -0.00118,0.0104281 -0.00887,0.0180399 -0.013159,0.0130207 -0.019407,0.0163484 -0.031597,0.0168302 -0.00373,1.4687e-4 -0.00845,-3.888e-5 -0.010499,-4.1037e-4 z m -0.1751245,-0.003616 c -0.00937,-0.002637 -0.017421,-0.009946 -0.022398,-0.0203343 -0.00281,-0.005868 -0.00287,-0.006165 -0.00295,-0.0163444 -1.06e-4,-0.0128219 6.516e-4,-0.02059 0.00329,-0.0336741 0.00386,-0.0191511 0.014181,-0.0582645 0.016631,-0.0630007 0.00165,-0.003199 0.00717,-0.008546 0.010394,-0.0100754 0.00177,-8.4176e-4 0.00487,-0.001283 0.00896,-0.001283 0.00592,-3.2e-7 0.00654,-1.7501e-4 0.011441,-0.003207 0.012956,-0.008021 0.025356,-0.00764 0.037284,0.001138 0.00876,0.006453 0.021192,0.0262619 0.022636,0.0360775 4.415e-4,0.002998 0.00131,0.008329 0.00193,0.0118366 6.233e-4,0.003511 0.00113,0.007993 0.00113,0.009966 -8.7e-6,0.005195 -0.00298,0.0244357 -0.00451,0.0291014 -0.00338,0.0103912 -0.01106,0.0222695 -0.02134,0.0330039 -0.00672,0.007015 -0.019874,0.0170731 -0.024137,0.0184536 -0.00167,5.4072e-4 -0.00483,0.001884 -0.00702,0.002982 -0.011131,0.00558 -0.023217,0.007648 -0.031346,0.005363 z m 0.019104,-0.0346657 c 0.01263,-0.003928 0.027041,-0.0183165 0.035768,-0.0357207 0.00499,-0.009958 0.00666,-0.0178508 0.00624,-0.0295463 -2.732e-4,-0.007584 -5.592e-4,-0.008964 -0.00264,-0.0127441 -0.00379,-0.00691 -0.00996,-0.0112498 -0.012736,-0.00895 -6.234e-4,5.174e-4 -0.00167,0.003279 -0.00232,0.006133 -0.00164,0.007183 -0.00432,0.009812 -0.011307,0.0110815 -0.011206,0.002036 -0.01619,0.00965 -0.020708,0.0316298 -0.00519,0.0252878 -0.00544,0.033165 -0.00118,0.0374331 0.00269,0.002686 0.00248,0.00267 0.00887,6.8174e-4 z m 0.2510227,0.0297331 c -0.00766,-0.001964 -0.014604,-0.006461 -0.016921,-0.0109604 -0.00207,-0.004024 -0.00261,-0.0119264 -0.00163,-0.0239747 3.929e-4,-0.004826 4.872e-4,-0.015946 2.101e-4,-0.0247162 -2.772e-4,-0.00877 -2.169e-4,-0.0215072 1.351e-4,-0.0283045 3.511e-4,-0.006798 0.00101,-0.0254538 0.00147,-0.0414599 7.129e-4,-0.0251291 6.477e-4,-0.0310887 -4.775e-4,-0.0436581 -0.00181,-0.0202113 -2.509e-4,-0.0296806 0.00564,-0.0343195 0.00261,-0.002047 0.012735,-0.003034 0.018276,-0.00178 0.00788,0.001784 0.012405,0.007473 0.012426,0.0156228 8e-6,0.002605 3.89e-5,0.005812 5.83e-5,0.007128 2.92e-5,0.001316 1.177e-4,0.0264 2.004e-4,0.0557432 1.225e-4,0.043517 3.452e-4,0.0534168 0.00121,0.0537054 0.00144,4.8044e-4 0.012585,-0.0110975 0.020858,-0.0216571 0.010456,-0.0133486 0.019043,-0.0206935 0.027656,-0.0236564 0.011275,-0.00388 0.029808,-1.6146e-4 0.038551,0.007736 0.00443,0.004 0.013575,0.0227995 0.015554,0.0319713 0.00168,0.007792 0.00711,0.0271637 0.00917,0.0327153 0.00497,0.0134103 0.010319,0.0184552 0.01968,0.018565 0.00904,1.0694e-4 0.012122,0.003151 0.010301,0.0101732 -0.00292,0.0112378 -0.013993,0.0184712 -0.02676,0.0174716 -0.011873,-9.2993e-4 -0.027646,-0.0120635 -0.032743,-0.0231121 -0.00126,-0.002734 -0.00362,-0.009999 -0.00525,-0.0161384 -0.00594,-0.0224475 -0.00663,-0.0248638 -0.00937,-0.0329253 -0.00448,-0.0131666 -0.00544,-0.0138937 -0.013212,-0.01002 -0.00814,0.004056 -0.015486,0.0131433 -0.038907,0.0481274 -0.00695,0.0103856 -0.00829,0.0130199 -0.01089,0.0215272 -0.00246,0.008048 -0.00418,0.0110221 -0.00803,0.0139651 -0.00363,0.002774 -0.011244,0.00376 -0.017209,0.002237 z M 0.977008,0.74488486 C 0.97591,0.74469911 0.971789,0.7441545 0.967839,0.74367386 0.9563359,0.74227386 0.9388595,0.73852186 0.9068561,0.73058066 0.8904059,0.72649866 0.873,0.72239966 0.8681764,0.72147066 0.8633504,0.72054153 0.8299857,0.71528866 0.7940274,0.70979766 0.7267731,0.69952706 0.62425322,0.68366036 0.57078299,0.67524676 c -0.0166636,-0.002622 -0.0392671,-0.005694 -0.05023,-0.006828 -0.0786486,-0.008129 -0.11801606,-0.0178275 -0.15327859,-0.0377612 l -0.006575,-0.003717 -2.4e-6,-0.003389 c -1.58e-6,-0.00227 4.9803e-4,-0.003889 0.001514,-0.004905 0.00214,-0.00214 0.0106992,-0.006073 0.0168212,-0.00773 0.006856,-0.001856 0.0217088,-0.001849 0.0358786,1.945e-5 0.0155213,0.002043 0.0272913,0.001876 0.0430543,-6.1074e-4 0.0279826,-0.004415 0.0350717,-0.004877 0.0745476,-0.004857 0.0280008,9.72e-6 0.0403533,3.433e-4 0.0522233,0.00139 0.0474202,0.004183 0.0900797,0.0105311 0.16703461,0.0248565 0.10816583,0.0201353 0.13989618,0.0254814 0.18213769,0.0306871 0.0178836,0.002204 0.0164534,0.00242 0.0187807,-0.002842 0.005163,-0.011666 0.008717,-0.0273658 0.011908,-0.0525492 0.001291,-0.0101699 0.004497,-0.0276427 0.008848,-0.0482368 0.003752,-0.0177599 0.0116442,-0.0553487 0.0175309,-0.0835308 0.0117556,-0.0562731 0.0113644,-0.0548255 0.0423537,-0.15677031 0.00545,-0.0179322 0.0098,-0.0329321 0.00967,-0.033333 -1.332e-4,-4.0068e-4 -0.00346,0.001449 -0.0074,0.004111 -0.0476479,0.0322048 -0.0976929,0.0895813 -0.14467914,0.16587409 -0.0254562,0.0413336 -0.0401892,0.0583667 -0.0568648,0.0657415 -0.006397,0.002828 -0.0173088,0.004706 -0.0240765,0.004141 -0.0126677,-0.001056 -0.0250336,-0.007783 -0.0310967,-0.0169182 -0.016199,-0.0244048 -0.0145447,-0.0808846 0.004891,-0.16697915 0.00741,-0.0328225 0.0130159,-0.0536087 0.0330816,-0.12265144 0.008326,-0.0286497 0.0150289,-0.0523987 0.014895,-0.0527755 -1.3428e-4,-3.7734e-4 -0.0145423,0.0141824 -0.0320178,0.0323538 -0.017478,0.0181737 -0.0321516,0.0328056 -0.0326132,0.0325204 -4.8723e-4,-3.0148e-4 -6.0296e-4,-1.3712e-4 -2.7716e-4,3.9096e-4 3.3454e-4,5.4169e-4 -0.003562,0.005183 -0.009644,0.0114847 -0.0277937,0.0287989 -0.0631244,0.0669484 -0.0707107,0.0763524 -0.026775,0.0331904 -0.0388256,0.0498404 -0.0487608,0.067372 -0.005237,0.009242 -0.012842,0.0252599 -0.0158977,0.0334867 -0.00182,0.004898 -0.002575,0.005511 -0.009581,0.007769 -0.004767,0.001536 -0.007152,0.001782 -0.0163446,0.001685 C 0.573784,0.42886462 0.5606279,0.42256402 0.5520185,0.40808312 0.5407378,0.38910842 0.5335823,0.35237832 0.5304287,0.29725821 c -5.7058e-4,-0.009973 -9.628e-4,-0.0355788 -9.3795e-4,-0.0612289 2.335e-5,-0.0242477 -5.057e-5,-0.0439809 -1.6523e-4,-0.0438516 -1.1437e-4,1.2934e-4 -0.002725,0.005796 -0.005801,0.0125935 -0.009081,0.0200634 -0.0240323,0.0515931 -0.0480169,0.10125724 -0.0123888,0.0256531 -0.0240493,0.0498711 -0.0259122,0.0538178 -0.001863,0.003947 -0.005087,0.0107636 -0.007164,0.0151487 -0.0312878,0.0660536 -0.0550982,0.12238002 -0.0722039,0.17080739 -0.003062,0.008669 -0.006488,0.0183427 -0.007613,0.0214978 -0.003672,0.0102968 -0.008701,0.0133754 -0.0218482,0.0133736 -0.008069,-7.8e-7 -0.0114805,-6.5354e-4 -0.0172308,-0.003296 -0.003377,-0.001552 -0.004217,-0.003808 -0.005218,-0.0140177 -0.001389,-0.014166 0.001438,-0.0535242 0.005369,-0.0747297 0.001413,-0.007619 0.007621,-0.0293954 0.009843,-0.0345212 0.003389,-0.007822 0.0486735,-0.10493551 0.0772282,-0.16562074 0.0256991,-0.0546165 0.0400141,-0.0855065 0.0408279,-0.0881018 5.5006e-4,-0.001754 0.006664,-0.0184377 0.0135872,-0.0370745 0.017783,-0.0478728 0.024712,-0.07067901 0.0354288,-0.11661112 0.006383,-0.02735799 0.008796,-0.0326946 0.0172307,-0.03810697 0.004927,-0.00316147 0.0158272,-0.00669883 0.0245615,-0.007970492 0.008196,-0.001193283 0.0216789,-6.204684618e-4 0.0289092,0.001228292 l 0.005299,0.00135492 0.00244,0.00530569 c 0.0117091,0.02545671 0.0180914,0.06208389 0.0216249,0.12410361 4.4979e-4,0.007893 0.001367,0.0249357 0.002039,0.0378718 0.001694,0.0326453 0.002172,0.037244 0.00799,0.0769396 0.007836,0.0534682 0.007407,0.0508313 0.008231,0.0504716 3.042e-4,-1.3324e-4 0.0180864,-0.0188985 0.0395159,-0.0417012 0.0214296,-0.0228029 0.042241,-0.0448681 0.0462476,-0.0490341 0.0103337,-0.0107446 0.0275614,-0.0292294 0.0478971,-0.0513924 0.0205048,-0.0223471 0.0370524,-0.0395604 0.0526081,-0.0547244 0.0147675,-0.01439572 0.0448662,-0.04111499 0.054499,-0.0483806 0.009204,-0.0069423 0.0212739,-0.01311512 0.0300153,-0.01535086 0.0115673,-0.0029584 0.02787,-0.0019863 0.0406967,0.002427 0.005788,0.0019925 0.006742,0.002807 0.006742,0.0057745 0,0.0060398 -0.009692,0.04621732 -0.0327425,0.13573448 -0.0222856,0.086544 -0.0355235,0.14394781 -0.0402133,0.1743674 -0.001932,0.0125366 -0.001595,0.0131822 0.003191,0.00613 0.007311,-0.0107678 0.0165368,-0.0217154 0.0290565,-0.0344822 0.0191278,-0.0195056 0.0325397,-0.0311625 0.0844298,-0.0733798 0.010186,-0.008287 0.0187775,-0.0155096 0.0190917,-0.0160495 0.001194,-0.002057 0.0532092,-0.0586106 0.0660262,-0.0717917 0.011644,-0.0119749 0.029679,-0.0213591 0.045229,-0.0235343 0.00955,-0.001336 0.017264,-1.206e-4 0.025803,0.004071 0.011622,0.005704 0.015709,0.012779 0.015651,0.0270952 -4.87e-5,0.0131964 -0.00241,0.0219239 -0.014835,0.0550138 -0.011716,0.0311919 -0.035422,0.11287343 -0.049635,0.17102124 -0.00833,0.0340653 -0.013161,0.0590799 -0.019108,0.0988653 -0.00546,0.0365381 -0.021218,0.14042038 -0.023884,0.15746702 -0.00148,0.009428 -0.00292,0.0201917 -0.00321,0.0239191 -0.00285,0.0363037 -0.00925,0.0525952 -0.023478,0.0597747 -0.00778,0.003924 -0.012843,0.004911 -0.0267549,0.005211 -0.007015,1.5074e-4 -0.013654,1.2253e-4 -0.0147499,-5.836e-5 z"
       id="path302" /></g></svg>
