<?xml version="1.0" encoding="UTF-8" standalone="no"?>
<!-- Created with Inkscape (http://www.inkscape.org/) -->

<svg
   width="210mm"
   height="297mm"
   viewBox="0 0 210 297"
   version="1.1"
   id="svg5"
   xml:space="preserve"
   inkscape:version="1.2.2 (732a01da63, 2022-12-09)"
   sodipodi:docname="logo.svg"
   xmlns:inkscape="http://www.inkscape.org/namespaces/inkscape"
   xmlns:sodipodi="http://sodipodi.sourceforge.net/DTD/sodipodi-0.dtd"
   xmlns="http://www.w3.org/2000/svg"
   xmlns:svg="http://www.w3.org/2000/svg"><sodipodi:namedview
     id="namedview7"
     pagecolor="#ffffff"
     bordercolor="#000000"
     borderopacity="0.25"
     inkscape:showpageshadow="2"
     inkscape:pageopacity="0.0"
     inkscape:pagecheckerboard="0"
     inkscape:deskcolor="#d1d1d1"
     inkscape:document-units="mm"
     showgrid="false"
     inkscape:zoom="0.73851712"
     inkscape:cx="94.107501"
     inkscape:cy="662.13767"
     inkscape:window-width="1920"
     inkscape:window-height="1009"
     inkscape:window-x="-8"
     inkscape:window-y="-8"
     inkscape:window-maximized="1"
     inkscape:current-layer="layer1" /><defs
     id="defs2" /><g
     inkscape:label="Layer 1"
     inkscape:groupmode="layer"
     id="layer1"><path
       style="fill:#000000;stroke-width:0.0819829"
       d="m 37.53506,227.61 c -0.61934,-0.24294 -1.118942,-0.65153 -1.377177,-1.12629 -0.137267,-0.25236 -0.321695,-0.84248 -0.459154,-1.46918 -0.126355,-0.57608 -0.471915,-1.87748 -0.767909,-2.89202 -0.295995,-1.01454 -0.818448,-2.88737 -1.161006,-4.16186 -1.307245,-4.86358 -2.186035,-7.31575 -2.621761,-7.31575 -0.156602,0 -0.370253,0.21914 -0.472001,0.48412 -0.206185,0.53698 -0.561221,3.31758 -0.639531,5.00874 -0.100501,2.17038 -0.142724,2.68932 -0.303506,3.73022 -0.09466,0.61281 -0.123868,1.4128 -0.115677,3.16815 0.01175,2.51802 -0.03421,2.94479 -0.372511,3.45924 -0.384119,0.58412 -1.484423,0.91238 -2.531809,0.75531 -0.533837,-0.08 -0.977121,-0.55446 -1.272065,-1.3614 -0.12408,-0.33946 -0.137207,-0.51629 -0.08033,-1.08198 0.0374,-0.37192 0.108024,-0.80508 0.156954,-0.96261 0.04893,-0.15752 0.09043,-0.43421 0.09222,-0.61487 0.0018,-0.18066 0.0552,-0.60516 0.118695,-0.94334 0.06349,-0.33818 0.192052,-1.23469 0.285689,-1.99225 0.09364,-0.75756 0.221197,-1.62453 0.283468,-1.9266 0.06227,-0.30207 0.155993,-0.8997 0.208267,-1.32806 0.05228,-0.42836 0.146786,-1.12932 0.210022,-1.55768 0.109516,-0.74185 0.198112,-1.38591 0.366518,-2.66444 0.20778,-1.57745 0.437645,-2.92187 0.579684,-3.39043 0.08687,-0.28657 0.157942,-0.73551 0.157942,-0.99765 0,-0.26214 0.05241,-0.58106 0.116454,-0.70872 0.191261,-0.38119 0.377307,-1.4241 0.358141,-2.00762 -0.01531,-0.46617 0.01749,-0.61347 0.224833,-1.00979 0.221508,-0.42339 0.296279,-0.49044 0.854142,-0.76595 0.828784,-0.4093 1.291357,-0.40861 2.094671,0.003 0.571461,0.29291 0.852856,0.53872 1.15233,1.00665 0.273312,0.42705 0.349078,0.56155 0.600352,1.06578 0.134821,0.27054 0.35743,0.6948 0.494685,0.9428 0.372197,0.6725 1.122137,2.5078 1.272993,3.11535 0.07278,0.29309 0.167765,0.61665 0.211091,0.71904 0.155428,0.36728 1.167666,3.87461 1.768163,6.12654 0.95916,3.59697 1.41435,4.796 1.820714,4.796 0.38021,0 0.975695,-0.93966 2.727609,-4.3041 1.612381,-3.09648 2.007373,-4.01957 3.437912,-8.03433 0.832914,-2.33755 0.952905,-2.61468 1.253506,-2.89518 0.27472,-0.25634 1.05716,-0.45382 1.521939,-0.38412 0.502459,0.0754 1.171761,0.40703 1.5369,0.76166 0.730568,0.70951 1.614304,3.32711 2.206245,6.5348 0.116494,0.63127 0.394457,2.439 0.617698,4.01717 0.427834,3.02452 0.660904,4.12873 1.054865,4.99759 0.384252,0.84745 0.462523,1.32287 0.306276,1.86034 -0.155052,0.53336 -0.572798,1.00574 -0.957449,1.08267 -0.44917,0.0898 -1.22695,0.0626 -1.22695,-0.0429 0,-0.0526 -0.02262,-0.073 -0.05028,-0.0454 -0.07451,0.0745 -0.699337,-0.18579 -0.921383,-0.38385 -0.438521,-0.39114 -1.082025,-1.98292 -1.196389,-2.9594 -0.03169,-0.27054 -0.182131,-1.28508 -0.334323,-2.25453 -0.152192,-0.96945 -0.335196,-2.33447 -0.406675,-3.03337 -0.189538,-1.85328 -0.522814,-3.58483 -0.738169,-3.8352 l -0.173669,-0.2019 -0.217712,0.19444 c -0.119741,0.10693 -0.288841,0.37888 -0.375778,0.60433 -0.472398,1.22507 -1.789073,4.23055 -2.831942,6.46429 -0.150535,0.32243 -0.390811,0.85385 -0.533947,1.18091 -0.308547,0.70503 -2.221363,4.08016 -2.948714,5.20296 -0.2811,0.43392 -0.638088,0.88582 -0.793307,1.00421 -0.712026,0.54309 -1.448114,0.6651 -2.209858,0.3663 z m 64.06966,-1.14239 c -0.11272,-0.0361 -0.37097,-0.0699 -0.57388,-0.0752 -0.54367,-0.0141 -1.222379,-0.38199 -1.453449,-0.78791 -0.35917,-0.63095 -0.37456,-0.78244 -0.4121,-4.05588 -0.0534,-4.65583 -0.0535,-4.69575 -0.0237,-5.98475 0.0254,-1.09741 0.0108,-1.24263 -0.18938,-1.88984 -0.24962,-0.80703 -0.2715,-1.28187 -0.0844,-1.83108 0.14699,-0.43141 0.58807,-0.91418 0.99214,-1.08593 0.318609,-0.13542 1.166709,-0.14564 1.761239,-0.0212 0.64621,0.13525 0.95743,0.35952 1.18317,0.85262 0.28271,0.61753 0.46617,1.95239 0.40056,2.91458 -0.0294,0.43108 -0.0286,0.88301 0.002,1.00429 0.13298,0.5298 0.66979,0.0437 1.10288,-0.99869 0.37912,-0.91249 0.72757,-1.52418 1.76469,-3.09778 0.79663,-1.20871 0.98283,-1.43938 1.32355,-1.63966 0.35762,-0.2102 0.46887,-0.23282 1.13435,-0.23063 0.85001,0.003 1.25313,0.15482 1.88457,0.71063 0.63635,0.56015 1.43615,2.5431 2.01052,4.98475 0.52825,2.24555 0.83157,2.95139 1.2683,2.95139 0.18874,0 0.95581,-0.74623 1.25227,-1.21825 0.0748,-0.11905 0.22258,-0.32316 0.32846,-0.4536 0.10589,-0.13042 0.28425,-0.41814 0.39636,-0.63937 0.1121,-0.22124 0.50069,-0.7219 0.86353,-1.11258 0.36284,-0.39069 0.73428,-0.85925 0.82543,-1.04127 0.0912,-0.18201 0.25015,-0.42316 0.35332,-0.53589 0.10317,-0.11273 0.28565,-0.35253 0.40551,-0.53289 0.24933,-0.37519 0.89815,-1.13223 1.43931,-1.67937 0.49922,-0.50475 0.88978,-0.67764 1.55161,-0.68683 0.4488,-0.006 0.62885,0.0366 1.08518,0.25824 0.91674,0.44525 1.24902,0.98215 1.42258,2.29865 0.0635,0.4813 0.18666,1.22557 0.27381,1.65393 0.17741,0.87204 0.22448,1.27001 0.34105,2.8837 0.0999,1.38314 0.25637,2.22993 0.62031,3.35758 0.3311,1.02594 0.49568,1.26435 0.96018,1.391 0.85308,0.23259 0.86218,0.23783 1.03585,0.59659 0.35675,0.73696 0.12428,1.76335 -0.52939,2.33729 -0.44648,0.392 -0.76716,0.50153 -1.46845,0.50153 -1.09517,0 -2.0272,-0.50784 -2.50913,-1.36716 -1.16976,-2.08579 -1.29563,-2.47852 -1.92209,-5.99744 -0.21997,-1.23559 -0.36918,-1.65352 -0.59033,-1.65352 -0.47739,0 -4.2668,5.26562 -4.69044,6.51764 -0.31936,0.94385 -0.51441,1.22123 -1.00811,1.43362 -0.36529,0.15713 -0.52747,0.17916 -1.04858,0.1424 -0.33904,-0.0239 -0.8316,-0.12462 -1.09457,-0.22378 -0.96425,-0.3636 -1.33707,-0.93453 -1.60573,-2.45901 -0.0914,-0.51854 -0.29674,-1.3295 -0.45635,-1.80215 -0.15959,-0.47265 -0.38318,-1.30273 -0.49685,-1.84462 -0.39138,-1.86579 -0.8473,-3.0916 -1.19035,-3.20048 -0.34572,-0.10973 -0.77564,0.50887 -1.14074,1.64134 -0.23461,0.72772 -0.90324,2.01845 -1.01108,1.9518 -0.045,-0.0278 -0.0595,-0.0146 -0.0324,0.0294 0.0272,0.044 -0.0176,0.19011 -0.0995,0.32475 -0.0819,0.13463 -0.27094,0.63007 -0.42015,1.10097 -0.14919,0.4709 -0.40746,1.18821 -0.57392,1.59403 -0.16646,0.40581 -0.34697,0.88541 -0.40115,1.06578 -0.0542,0.18036 -0.13182,0.40171 -0.17255,0.49189 -0.14207,0.31456 -0.33711,0.90625 -0.49996,1.51669 -0.2395,0.89769 -0.4629,1.18725 -1.17719,1.52577 -0.41779,0.19799 -0.74047,0.2312 -1.10677,0.11389 z m -43.368968,-0.0464 c -0.06764,-0.0236 -0.325099,-0.10585 -0.57214,-0.18274 -1.714221,-0.53351 -2.026676,-3.14616 -0.89913,-7.51825 0.186059,-0.72145 0.391402,-1.52543 0.456317,-1.78661 0.128491,-0.51697 0.866062,-2.37913 1.305908,-3.29705 0.646837,-1.34987 1.57564,-2.66313 2.251687,-3.18371 0.451864,-0.34796 1.950272,-1.04014 2.374954,-1.0971 0.392259,-0.0526 1.500335,0.30321 1.942909,0.6239 0.316224,0.22913 0.396442,0.35709 0.828177,1.32111 0.244196,0.54527 0.59897,0.94996 1.242046,1.41683 0.441632,0.32062 0.774113,0.94401 0.9059,1.69852 0.05119,0.29309 0.180886,0.88337 0.288208,1.31173 0.219121,0.87459 0.364469,1.68909 0.621774,3.48428 0.117754,0.82156 0.310777,1.67874 0.581524,2.58246 0.648694,2.16526 0.627062,3.02537 -0.0881,3.50314 -0.689733,0.46077 -1.738053,0.011 -2.519822,-1.081 -0.195115,-0.27255 -0.467447,-0.64841 -0.605181,-0.83525 -0.15792,-0.21422 -0.276899,-0.50191 -0.322091,-0.77883 -0.116575,-0.71433 -0.423038,-1.96442 -0.595841,-2.4305 -0.14068,-0.37942 -0.182976,-0.42692 -0.338141,-0.37972 -0.284966,0.0867 -0.431913,0.25743 -0.758793,0.8816 -0.675303,1.28947 -1.954031,3.27365 -2.784239,4.32026 -0.872549,1.09999 -1.40354,1.40751 -2.496097,1.44559 -0.38327,0.0134 -0.752194,0.005 -0.819829,-0.0187 z m 2.181112,-5.26382 c 0.316615,-0.25994 1.958412,-2.83278 2.523555,-3.95463 0.777208,-1.54283 0.80846,-2.05402 0.160362,-2.62306 -0.198805,-0.17455 -0.364218,-0.24557 -0.571977,-0.24557 -0.471273,0 -0.745427,0.35687 -1.322575,1.72164 -0.902627,2.13442 -1.330819,3.68099 -1.330819,4.80674 0,0.40236 0.01585,0.44002 0.184462,0.43835 0.101454,-9.8e-4 0.2621,-0.0656 0.356992,-0.14347 z m 33.768405,5.11649 c -1.176988,-0.55165 -1.874876,-1.54789 -2.218942,-3.16757 -0.111505,-0.52493 -0.38518,-2.37885 -0.487118,-3.29987 -0.05193,-0.46921 -0.194529,-0.7173 -0.412292,-0.7173 -0.233045,0 -0.669268,0.49875 -1.157812,1.32373 -0.87375,1.4755 -1.214635,2.2276 -1.583821,3.49443 -0.197046,0.67616 -0.506359,1.08608 -1.015539,1.34584 -0.272781,0.13916 -0.428598,0.16152 -0.868683,0.12463 -1.064696,-0.0893 -1.880188,-0.54479 -2.196847,-1.22714 -0.281292,-0.60613 -0.353076,-1.12703 -0.375556,-2.72497 -0.01946,-1.38375 -0.227888,-3.91318 -0.46067,-5.59068 -0.0837,-0.60317 -0.503236,-1.55953 -0.720753,-1.64301 -0.169959,-0.0652 -0.422376,0.21751 -0.520928,0.58348 -0.04936,0.18332 -0.19407,0.48183 -0.321586,0.66334 -0.139428,0.19848 -0.330227,0.68981 -0.478674,1.23258 -0.135755,0.49639 -0.417014,1.3818 -0.625021,1.96759 -0.208007,0.58578 -0.470729,1.39359 -0.583824,1.79513 -0.251542,0.8931 -0.382132,1.15373 -1.14986,2.29486 -0.332085,0.49361 -0.603789,0.94194 -0.603789,0.99629 0,0.0544 -0.0534,0.14315 -0.11866,0.19731 -0.06526,0.0542 -0.181937,0.27082 -0.259276,0.48145 -0.154343,0.42034 -0.523802,0.86537 -0.868233,1.04581 -0.440493,0.23078 -1.87704,0.0401 -2.682189,-0.35598 -0.449752,-0.22125 -0.795046,-0.75234 -1.069259,-1.64457 -0.615652,-2.00322 -0.810745,-4.31166 -0.846563,-10.01694 -0.01101,-1.75389 -0.0025,-1.86473 0.173876,-2.25351 0.249181,-0.54939 0.462317,-0.76437 0.993874,-1.00241 0.386539,-0.17312 0.520563,-0.19308 0.983795,-0.14658 0.759135,0.0762 1.133056,0.30377 1.415048,0.86122 0.374133,0.73958 0.430495,1.47157 0.266057,3.45538 -0.116487,1.40529 -0.124657,1.86908 -0.04808,2.72891 0.05074,0.56972 0.15029,1.1729 0.221215,1.34038 l 0.128953,0.30451 0.357969,-0.40967 c 0.222486,-0.25462 0.410808,-0.58042 0.49758,-0.86082 0.07679,-0.24814 0.248302,-0.6688 0.381146,-0.93482 0.132846,-0.26602 0.38303,-0.89319 0.555966,-1.39371 0.434665,-1.25804 1.875679,-4.60338 2.174702,-5.04861 0.456505,-0.67973 1.045733,-0.9359 2.115856,-0.91989 1.12884,0.0169 1.954965,0.36264 2.442157,1.02209 0.265346,0.35917 0.890458,1.60893 0.890458,1.78026 0,0.0535 0.109709,0.37121 0.243792,0.70607 0.162007,0.4046 0.298631,0.98673 0.407259,1.7353 0.08991,0.61956 0.201563,1.32518 0.248105,1.56807 0.04655,0.24288 0.08464,0.67754 0.08464,0.96593 0,0.57152 0.169295,1.09294 0.354855,1.09294 0.314175,0 1.389848,-1.39723 3.040788,-3.9498 0.526011,-0.81327 0.889523,-1.09873 1.303061,-1.02323 1.053678,0.19236 1.819669,0.39434 1.952941,0.51494 0.476411,0.43115 0.887662,1.83762 1.13575,3.88421 0.04099,0.33818 0.131411,0.97194 0.200932,1.40836 0.06952,0.43641 0.145864,1.08202 0.169647,1.4347 0.08459,1.25412 0.207835,2.17169 0.331785,2.47011 0.0691,0.16647 0.32165,0.50557 0.56114,0.75357 0.613,0.63479 0.70507,0.79812 0.70507,1.25071 0,0.42571 -0.26671,1.0544 -0.55959,1.31905 -0.45397,0.41021 -1.442285,0.49844 -2.104855,0.1879 z m 55.857511,-0.13098 c -0.60321,-0.10987 -1.29816,-0.32855 -1.71433,-0.53943 -0.96341,-0.4882 -1.77536,-1.70238 -2.12616,-3.17943 -0.34739,-1.46272 -0.41467,-2.21224 -0.39682,-4.42095 l 0.0171,-2.11083 -0.19724,-0.20996 c -0.10849,-0.11547 -0.43781,-0.32299 -0.73185,-0.46115 -1.19664,-0.56226 -1.61754,-1.34534 -1.35161,-2.51457 0.11529,-0.50689 0.17158,-0.60839 0.47559,-0.85749 0.18964,-0.15541 0.76259,-0.49677 1.27323,-0.7586 0.6554,-0.33605 0.95024,-0.53341 1.00259,-0.67111 0.0408,-0.10729 0.0742,-0.8662 0.0742,-1.68646 0,-0.82027 0.036,-1.61696 0.08,-1.77042 0.25056,-0.87366 1.48825,-1.30413 2.64881,-0.92126 0.64026,0.21122 0.87007,0.38282 1.04636,0.78135 0.23654,0.53474 0.26886,0.93979 0.16059,2.0127 -0.16245,1.60991 -0.0967,1.65148 2.6585,1.68025 1.7219,0.018 1.92577,0.0352 2.28037,0.19291 0.33755,0.15011 0.38942,0.20543 0.38942,0.41525 0,0.28177 -0.43744,0.71772 -0.80084,0.79812 -0.51414,0.11372 -0.73277,0.21757 -1.03924,0.49364 -0.43451,0.39139 -0.63319,0.48362 -1.36659,0.63436 -0.76017,0.15625 -2.49019,0.98012 -2.68617,1.27921 -0.0864,0.13187 -0.15065,0.4853 -0.1864,1.02547 -0.03,0.45333 -0.097,1.45142 -0.14878,2.21796 -0.10647,1.57503 -0.0658,2.39497 0.16868,3.39973 0.29439,1.26158 0.85341,1.88817 1.68457,1.88817 0.51356,0 1.81948,-0.39616 2.24321,-0.68049 0.65836,-0.44178 1.39752,-0.55408 1.64938,-0.25061 0.0519,0.0625 0.11225,0.36414 0.13415,0.67028 0.0516,0.7213 -0.12093,1.07224 -0.91204,1.85499 -1.35313,1.33884 -1.99554,1.68101 -3.24899,1.73056 -0.38327,0.0151 -0.86911,-0.004 -1.07964,-0.0422 z m -18.00727,-0.37182 c -0.9637,-0.27133 -1.79135,-1.02275 -2.30303,-2.09089 -0.28919,-0.60369 -0.29471,-0.63426 -0.3034,-1.68065 -0.0109,-1.31842 0.067,-2.11715 0.33793,-3.46258 0.39653,-1.96924 1.45816,-5.99106 1.71001,-6.47808 0.17005,-0.32882 0.73732,-0.87872 1.06874,-1.03599 0.18235,-0.0865 0.50003,-0.13206 0.92172,-0.13209 0.60838,-4e-5 0.67254,-0.018 1.17637,-0.32993 1.33221,-0.82473 2.60721,-0.78575 3.83376,0.11719 0.90095,0.66323 2.17909,2.70038 2.32754,3.7097 0.0454,0.30869 0.13495,0.85638 0.19902,1.21711 0.0641,0.36072 0.11619,0.82188 0.11585,1.02478 -9e-4,0.5343 -0.30697,2.5126 -0.46302,2.99238 -0.34752,1.06849 -1.13723,2.28987 -2.19426,3.39366 -0.69063,0.72116 -2.04355,1.75554 -2.48183,1.89748 -0.17175,0.0556 -0.49674,0.19363 -0.72219,0.30671 -1.14454,0.574 -2.38735,0.78653 -3.22321,0.5512 z m 1.96434,-3.56454 c 1.29875,-0.40361 2.78051,-1.8834 3.6779,-3.67299 0.51347,-1.02399 0.68482,-1.83551 0.64148,-3.03811 -0.0281,-0.77941 -0.0575,-0.92172 -0.27088,-1.31043 -0.39029,-0.71096 -1.02465,-1.15675 -1.30957,-0.92028 -0.0641,0.0532 -0.17131,0.33703 -0.23832,0.63081 -0.1684,0.7383 -0.44456,1.00896 -1.16259,1.1395 -1.15222,0.20948 -1.66473,0.99231 -2.1293,3.25232 -0.53449,2.60023 -0.55997,3.41019 -0.12106,3.8491 0.27615,0.27616 0.25455,0.2745 0.91234,0.0701 z m 25.81154,3.05729 c -0.78767,-0.20158 -1.50168,-0.66408 -1.73988,-1.12702 -0.21306,-0.41408 -0.26816,-1.22632 -0.16724,-2.46521 0.0404,-0.49599 0.0501,-1.63965 0.0216,-2.54147 -0.0285,-0.90181 -0.0223,-2.21149 0.0139,-2.91039 0.0361,-0.69891 0.10386,-2.61731 0.15054,-4.26311 0.0733,-2.58388 0.0666,-3.19671 -0.0491,-4.48915 -0.18601,-2.07823 -0.0258,-3.05192 0.5806,-3.52892 0.26764,-0.21053 1.30951,-0.31199 1.87931,-0.18301 0.81025,0.18342 1.27558,0.76846 1.27768,1.60642 8.2e-4,0.26781 0.004,0.5976 0.006,0.73288 0.003,0.13527 0.0121,2.71459 0.0206,5.73183 0.0126,4.47463 0.0355,5.4926 0.12427,5.52228 0.14758,0.0494 1.2941,-1.14108 2.14468,-2.2269 1.07518,-1.37254 1.9581,-2.12778 2.84371,-2.43248 1.15935,-0.39887 3.06505,-0.0166 3.96398,0.79518 0.45534,0.4112 1.39584,2.34433 1.59939,3.28745 0.17289,0.80104 0.73121,2.79314 0.94282,3.36395 0.51114,1.37888 1.06106,1.89764 2.02367,1.90899 0.92927,0.011 1.24645,0.32421 1.0592,1.04605 -0.29974,1.15556 -1.43884,1.89928 -2.75156,1.79651 -1.2208,-0.0956 -2.84275,-1.24046 -3.36686,-2.37653 -0.12981,-0.28141 -0.37271,-1.02814 -0.53975,-1.6594 -0.61077,-2.30814 -0.68147,-2.55659 -0.96343,-3.38555 -0.46048,-1.35383 -0.55914,-1.42866 -1.35857,-1.03029 -0.83694,0.41707 -1.59233,1.35148 -4.00062,4.94872 -0.71491,1.06787 -0.85195,1.33874 -1.11979,2.21354 -0.25337,0.82758 -0.42927,1.13339 -0.82592,1.43593 -0.37378,0.2851 -1.1562,0.38666 -1.76953,0.2297 z m -34.0217,-23.84787 c -0.11273,-0.0191 -0.53699,-0.0751 -0.9428,-0.12447 -1.18278,-0.14392 -2.97981,-0.52974 -6.27063,-1.34631 -1.69149,-0.41971 -3.48124,-0.84126 -3.97724,-0.93678 -0.496,-0.0955 -3.92698,-0.63564 -7.62441,-1.20028 -6.91546,-1.05608 -17.457121,-2.68758 -22.955225,-3.55271 -1.713443,-0.26961 -4.03766,-0.58553 -5.164925,-0.70205 -8.087077,-0.83586 -12.135063,-1.83312 -15.760952,-3.88282 l -0.676091,-0.3822 -2.46e-4,-0.34842 c -1.64e-4,-0.23343 0.05121,-0.39991 0.155687,-0.50439 0.219991,-0.21999 1.100155,-0.62444 1.729653,-0.7948 0.704998,-0.1908 2.232216,-0.1901 3.689232,0.002 1.595979,0.21009 2.806237,0.19291 4.427079,-0.0628 2.877333,-0.45399 3.606266,-0.50148 7.665404,-0.4994 2.8792,10e-4 4.149353,0.0353 5.369882,0.14294 4.876009,0.43011 9.262498,1.08287 17.175422,2.55589 11.12221,2.07043 14.3849,2.62014 18.72841,3.15541 1.83891,0.22662 1.6918,0.24888 1.93112,-0.29226 0.53051,-1.19957 0.89633,-2.81391 1.22444,-5.4034 0.13251,-1.04572 0.46206,-2.84238 0.90977,-4.95997 0.38611,-1.82617 1.19731,-5.69126 1.80265,-8.5891 1.20875,-5.78631 1.16854,-5.63746 4.35509,-16.11999 0.56052,-1.84389 1.00788,-3.38626 0.99414,-3.42748 -0.0137,-0.0412 -0.3563,0.14899 -0.76126,0.4227 -4.89942,3.31147 -10.04533,9.21124 -14.87672,17.05609 -2.61753,4.25015 -4.13247,6.00158 -5.84719,6.7599 -0.65767,0.29086 -1.77981,0.48389 -2.47569,0.42588 -1.30256,-0.10859 -2.5741,-0.80037 -3.19754,-1.73962 -1.66567,-2.50944 -1.49557,-8.317 0.50288,-17.16972 0.76188,-3.37499 1.33837,-5.51234 3.40164,-12.6117 0.85616,-2.94592 1.54538,-5.38792 1.53161,-5.42667 -0.0138,-0.0388 -1.49529,1.45831 -3.29225,3.3268 -1.79718,1.86872 -3.30601,3.37326 -3.35347,3.34393 -0.0501,-0.031 -0.062,-0.0141 -0.0285,0.0402 0.0344,0.0557 -0.36625,0.53293 -0.99162,1.18092 -2.8579,2.96126 -6.490799,6.88401 -7.270859,7.85098 -2.753157,3.41282 -3.992263,5.12487 -5.013853,6.92756 -0.538562,0.95033 -1.320483,2.59736 -1.63469,3.44328 -0.187094,0.50369 -0.264772,0.56668 -0.985148,0.79885 -0.490111,0.15795 -0.735436,0.18324 -1.68065,0.17326 -2.274404,-0.024 -3.627188,-0.67182 -4.512456,-2.16086 -1.159952,-1.95108 -1.89571,-5.72788 -2.219982,-11.39563 -0.05867,-1.02551 -0.09901,-3.65841 -0.09646,-6.29589 0.0024,-2.49329 -0.0052,-4.52236 -0.01699,-4.50906 -0.01176,0.0133 -0.280185,0.59602 -0.59651,1.29493 -0.933729,2.06303 -2.471131,5.30508 -4.937364,10.41183 -1.273888,2.6378 -2.472883,5.12803 -2.664435,5.53385 -0.191552,0.40582 -0.523025,1.10677 -0.736607,1.55768 -3.217192,6.792 -5.665504,12.58379 -7.424405,17.56336 -0.314848,0.89135 -0.667097,1.88609 -0.782776,2.21052 -0.377518,1.05877 -0.894668,1.37533 -2.246549,1.37515 -0.829692,-8e-5 -1.180494,-0.0672 -1.771769,-0.339 -0.347253,-0.15961 -0.43359,-0.39154 -0.536547,-1.44137 -0.142852,-1.45663 0.147916,-5.50365 0.552084,-7.68412 0.145212,-0.78341 0.783641,-3.0226 1.012068,-3.54966 0.348538,-0.80425 5.004885,-10.79005 7.941029,-17.03004 2.642523,-5.61597 4.114467,-8.79225 4.198147,-9.05911 0.05656,-0.18036 0.685257,-1.89586 1.397111,-3.81221 1.828544,-4.92255 2.541021,-7.26761 3.64299,-11.9906 0.65635,-2.8131 0.904473,-3.36184 1.771751,-3.91837 0.506592,-0.32508 1.627437,-0.68881 2.525549,-0.81957 0.842744,-0.1227 2.229141,-0.0638 2.972603,0.1263 l 0.54485,0.13932 0.250934,0.54556 c 1.203993,2.6176 1.860258,6.38381 2.223598,12.76102 0.04625,0.81163 0.14056,2.56402 0.20959,3.89419 0.174205,3.35677 0.223313,3.82963 0.821559,7.91135 0.80581,5.4979 0.761597,5.22676 0.84631,5.18977 0.03128,-0.0137 1.859742,-1.94324 4.063246,-4.28795 2.203505,-2.34472 4.343452,-4.61359 4.755432,-5.04196 1.06257,-1.10482 2.834019,-3.00553 4.925049,-5.28445 2.10842,-2.29786 3.80993,-4.06782 5.40946,-5.62706 1.51849,-1.48025 4.61335,-4.22767 5.60387,-4.97476 0.94642,-0.71384 2.18751,-1.34857 3.08632,-1.57846 1.18939,-0.3042 2.86576,-0.20424 4.18471,0.24955 0.59549,0.20488 0.69327,0.28863 0.69327,0.59377 0,0.62104 -0.99657,4.75232 -3.36679,13.95697 -2.29149,8.89893 -3.65277,14.80151 -4.13497,17.92942 -0.19873,1.28909 -0.16417,1.35546 0.32826,0.63031 0.75185,-1.1072 1.70043,-2.2329 2.98777,-3.54565 1.96684,-2.00568 3.34595,-3.2043 8.68155,-7.54532 1.04739,-0.85214 1.93077,-1.59478 1.96309,-1.6503 0.12306,-0.21149 5.47125,-6.02667 6.78919,-7.38202 1.19733,-1.23132 3.05177,-2.19626 4.6507,-2.41993 0.9824,-0.13743 1.77516,-0.0124 2.65323,0.41857 1.19499,0.58647 1.61524,1.31401 1.60933,2.78608 -0.005,1.35693 -0.24745,2.25433 -1.52543,5.65682 -1.20468,3.20732 -3.64228,11.60627 -5.10374,17.58535 -0.85619,3.50278 -1.3533,6.07492 -1.96476,10.16588 -0.56154,3.75704 -2.18174,14.4388 -2.45592,16.19163 -0.15164,0.96945 -0.30039,2.07622 -0.33054,2.45949 -0.29366,3.73295 -0.95161,5.40813 -2.41406,6.14637 -0.79932,0.4035 -1.32053,0.50501 -2.75108,0.53581 -0.72145,0.0155 -1.40395,0.0126 -1.51668,-0.006 z"
       id="path302" /></g></svg>
