<svg width="3000" height="2119" xmlns="http://www.w3.org/2000/svg"><path d="M841 1624 798 1671 809 1711 821 1740 812 1782 809 1781 818 1739 806 1712 795 1672 838 1621 841 1624 " style="stroke:pink"/><path d="M932 1586 961 1705 961 1735 957 1735 957 1705 929 1587 932 1586 " style="stroke:pink"/><path d="M982 1514 1025 1528 1024 1531 981 1517 982 1514 " style="stroke:pink"/><path d="M855 1495 958 1505 957 1508 854 1498 855 1495 " style="stroke:pink"/><path d="M1384 1471 1327 1471 1287 1471 1287 1467 1327 1467 1384 1467 1384 1471 " style="stroke:pink"/><path d="M1263 1465 1180 1445 1137 1427 1084 1446 1055 1480 1026 1558 1011 1587 1017 1726 991 1745 854 1772 810 1796 754 1868 630 1909 588 1890 557 1859 506 1875 456 1905 402 1926 401 1923 455 1902 503 1872 556 1856 591 1887 631 1906 753 1865 807 1793 853 1769 990 1742 1014 1723 1008 1588 1023 1557 1052 1479 1081 1443 1136 1424 1181 1442 1264 1462 1263 1465 " style="stroke:pink"/><path d="M1284 1377 1367 1395 1457 1434 1456 1437 1366 1398 1283 1380 1284 1377 " style="stroke:pink"/><path d="M1190 1338 1167 1424 1164 1423 1187 1337 1190 1338 " style="stroke:pink"/><path d="M635 1326 709 1388 755 1411 767 1455 744 1481 737 1502 751 1527 748 1528 734 1503 741 1480 764 1452 752 1412 708 1391 632 1329 635 1326 " style="stroke:pink"/><path d="M533 1262 560 1322 557 1323 530 1263 533 1262 " style="stroke:pink"/><path d="M1122 1251 1145 1281 1224 1347 1253 1364 1250 1367 1221 1350 1142 1284 1119 1254 1122 1251 " style="stroke:pink"/><path d="M616 1316 545 1259 494 1243 462 1245 461 1242 493 1240 546 1256 619 1313 616 1316 " style="stroke:pink"/><path d="M1273 1171 1208 1257 1215 1321 1274 1376 1281 1444 1279 1475 1355 1508 1408 1544 1464 1575 1484 1601 1481 1604 1461 1578 1407 1547 1352 1511 1278 1478 1277 1444 1271 1377 1212 1324 1205 1258 1270 1168 1273 1171 " style="stroke:pink"/><path d="M636 1146 589 1185 535 1189 485 1200 450 1245 395 1260 245 1266 135 1311 105 1343 103 1390 173 1515 314 1716 375 1784 409 1811 405 1877 397 1914 394 1913 402 1876 406 1810 372 1787 311 1719 170 1518 100 1391 102 1342 132 1308 244 1263 394 1257 449 1242 482 1197 534 1186 588 1182 633 1143 636 1146 " style="stroke:pink"/><path d="M1791 1139 1836 1163 1835 1166 1790 1142 1791 1139 " style="stroke:pink"/><path d="M2267 1218 2222 1232 2132 1238 1953 1140 1898 1175 1858 1173 1859 1170 1899 1172 1950 1137 2133 1235 2221 1229 2266 1215 2267 1218 " style="stroke:pink"/><path d="M1722 1118 1769 1121 1768 1124 1721 1121 1722 1118 " style="stroke:pink"/><path d="M2366 1119 2275 1154 2216 1128 2217 1125 2276 1151 2365 1116 2366 1119 " style="stroke:pink"/><path d="M1159 1096 1116 1124 1107 1186 970 1284 900 1331 876 1387 869 1466 793 1530 616 1583 524 1626 464 1700 428 1781 413 1797 410 1794 425 1778 461 1699 521 1623 615 1580 792 1527 866 1463 873 1386 897 1330 967 1281 1104 1183 1113 1123 1156 1093 1159 1096 " style="stroke:pink"/><path d="M1414 1091 1415 1149 1474 1205 1455 1250 1406 1381 1403 1396 1400 1395 1403 1380 1452 1249 1471 1204 1412 1152 1411 1092 1414 1091 " style="stroke:pink"/><path d="M1163 1088 1053 1101 905 1163 855 1226 758 1292 671 1301 654 1300 655 1297 672 1298 757 1289 852 1223 902 1160 1052 1098 1162 1085 1163 1088 " style="stroke:pink"/><path d="M1638 1060 1601 1209 1596 1213 1601 1222 1596 1232 1586 1267 1583 1266 1593 1231 1598 1221 1593 1216 1598 1206 1635 1059 1638 1060 " style="stroke:pink"/><path d="M2213 1059 2168 1099 2156 1175 2175 1221 2172 1222 2153 1176 2165 1098 2210 1056 2213 1059 " style="stroke:pink"/><path d="M1542 972 1524 1086 1548 1163 1545 1164 1521 1087 1539 971 1542 972 " style="stroke:pink"/><path d="M1374 949 1303 1043 1197 1086 1189 1088 1188 1085 1196 1083 1302 1040 1371 946 1374 949 " style="stroke:pink"/><path d="M1384 940 1437 975 1503 978 1502 981 1436 978 1381 943 1384 940 " style="stroke:pink"/><path d="M1672 930 1686 1050 1716 1106 1695 1157 1677 1173 1674 1170 1692 1154 1713 1105 1683 1051 1669 931 1672 930 " style="stroke:pink"/><path d="M1584 925 1599 1055 1574 1124 1536 1203 1500 1241 1513 1268 1599 1282 1610 1324 1571 1452 1462 1451 1395 1482 1371 1506 1368 1503 1392 1479 1461 1448 1572 1449 1607 1323 1596 1283 1512 1271 1497 1242 1533 1200 1571 1123 1596 1054 1581 926 1584 925 " style="stroke:pink"/><path d="M1303 904 1361 930 1360 933 1302 907 1303 904 " style="stroke:pink"/><path d="M1245 918 1070 899 991 924 919 950 809 952 808 949 918 947 990 921 1069 896 1246 915 1245 918 " style="stroke:pink"/><path d="M1368 840 1268 918 1150 998 1077 1005 1023 1008 922 1040 704 1058 703 1055 921 1037 1022 1005 1076 1002 1149 995 1265 915 1365 837 1368 840 " style="stroke:pink"/><path d="M1695 828 1720 930 1732 1025 1783 1137 1758 1206 1715 1260 1698 1369 1674 1510 1612 1629 1609 1628 1671 1509 1695 1368 1712 1259 1755 1203 1780 1136 1729 1026 1717 931 1692 829 1695 828 " style="stroke:pink"/><path d="M2308 760 2337 833 2352 893 2331 971 2303 1050 2305 1099 2315 1123 2312 1124 2302 1100 2300 1051 2328 970 2349 892 2334 834 2305 761 2308 760 " style="stroke:pink"/><path d="M1548 763 1459 762 1392 828 1354 830 1225 800 1172 777 1064 788 921 858 739 1003 696 1050 644 1151 631 1233 648 1302 619 1326 558 1341 496 1440 452 1451 437 1481 404 1667 354 1717 340 1724 339 1721 353 1714 401 1664 434 1480 449 1450 495 1437 555 1338 618 1323 645 1299 628 1234 641 1150 693 1049 736 1000 918 855 1063 785 1171 774 1226 797 1355 827 1391 825 1456 759 1548 759 1548 763 " style="stroke:pink"/><path d="M1701 748 1719 779 1764 834 1776 863 1773 864 1761 835 1716 782 1698 751 1701 748 " style="stroke:pink"/><path d="M1680 714 1659 773 1631 823 1614 879 1530 968 1397 1092 1214 1187 1144 1222 1065 1292 1011 1413 999 1488 945 1539 921 1588 885 1610 777 1631 665 1697 591 1724 560 1787 543 1848 540 1847 557 1786 588 1723 664 1694 774 1628 884 1607 918 1585 942 1538 996 1485 1008 1412 1062 1291 1141 1219 1213 1184 1396 1089 1527 965 1611 876 1628 822 1656 772 1677 713 1680 714 " style="stroke:pink"/><path d="M1720 678 1692 748 1666 925 1641 1017 1652 1067 1671 1136 1646 1248 1653 1369 1580 1504 1582 1557 1550 1551 1526 1526 1410 1483 1411 1480 1527 1523 1553 1548 1583 1554 1577 1505 1650 1368 1643 1249 1668 1135 1649 1068 1638 1018 1663 924 1689 747 1717 677 1720 678 " style="stroke:pink"/><path d="M2361 656 2325 708 2297 728 2250 965 2220 1068 2202 1145 2232 1209 2237 1217 2234 1220 2229 1212 2199 1146 2217 1067 2247 964 2294 727 2322 705 2358 653 2361 656 " style="stroke:pink"/><path d="M1950 486 1901 525 1779 639 1717 671 1595 753 1491 809 1431 882 1406 918 1344 945 1253 977 1200 1025 1164 1109 1125 1170 1117 1229 1114 1228 1122 1169 1161 1106 1197 1024 1250 974 1343 942 1405 915 1428 879 1488 806 1594 750 1714 668 1778 636 1898 522 1947 483 1950 486 " style="stroke:pink"/><path d="M2083 365 2088 381 2180 366 2189 380 2101 429 1968 477 1830 653 1791 797 1786 940 1862 1090 1845 1187 1815 1275 1766 1337 1734 1482 1686 1601 1641 1636 1565 1635 1504 1614 1505 1611 1566 1632 1641 1632 1683 1598 1731 1481 1763 1336 1812 1272 1842 1186 1859 1089 1783 941 1788 796 1827 652 1965 474 2100 426 2188 377 2177 369 2089 384 2080 366 2083 365 " style="stroke:pink"/><path d="M2549 319 2534 368 2499 526 2463 574 2450 609 2291 680 2222 786 2205 842 2040 983 2004 1135 2002 1154 1999 1153 2001 1134 2037 982 2202 839 2219 785 2288 677 2449 606 2460 573 2496 523 2531 367 2546 318 2549 319 " style="stroke:pink"/><path d="M2242 224 2239 265 2284 323 2363 356 2469 378 2514 424 2511 427 2466 381 2362 359 2283 326 2236 268 2239 223 2242 224 " style="stroke:pink"/><path d="M2337 102 2283 186 2156 273 2061 369 1942 466 1869 543 1783 615 1704 620 1623 591 1596 629 1593 626 1620 588 1705 617 1782 612 1866 540 1939 463 2058 366 2153 270 2280 183 2334 99 2337 102 " style="stroke:pink"/><path d="M2418 96 2468 159 2549 204 2562 251 2561 324 2584 365 2592 445 2574 542 2550 586 2501 710 2463 814 2457 985 2436 1033 2424 1089 2292 1194 2283 1206 2280 1203 2289 1191 2421 1086 2433 1032 2454 984 2460 813 2498 709 2547 585 2571 541 2589 444 2581 366 2558 325 2558 251 2546 205 2467 162 2415 99 2418 96 " style="stroke:pink"/></svg>