<?xml version="1.0" encoding="UTF-8" standalone="no"?>
<!-- Created with Inkscape (http://www.inkscape.org/) -->

<svg
   width="10mm"
   height="20mm"
   viewBox="0 0 10 20"
   version="1.1"
   id="svg5"
   inkscape:version="1.2.2 (732a01da63, 2022-12-09)"
   sodipodi:docname="1mm lines.svg"
   xmlns:inkscape="http://www.inkscape.org/namespaces/inkscape"
   xmlns:sodipodi="http://sodipodi.sourceforge.net/DTD/sodipodi-0.dtd"
   xmlns="http://www.w3.org/2000/svg"
   xmlns:svg="http://www.w3.org/2000/svg">
  <sodipodi:namedview
     id="namedview7"
     pagecolor="#ffffff"
     bordercolor="#000000"
     borderopacity="0.25"
     inkscape:showpageshadow="2"
     inkscape:pageopacity="0.0"
     inkscape:pagecheckerboard="0"
     inkscape:deskcolor="#d1d1d1"
     inkscape:document-units="mm"
     showgrid="false"
     inkscape:zoom="16"
     inkscape:cx="-5.65625"
     inkscape:cy="54.25"
     inkscape:window-width="1920"
     inkscape:window-height="1009"
     inkscape:window-x="-8"
     inkscape:window-y="-8"
     inkscape:window-maximized="1"
     inkscape:current-layer="layer1" />
  <defs
     id="defs2" />
  <g
     inkscape:label="Layer 1"
     inkscape:groupmode="layer"
     id="layer1">
    <path
       style="fill:#000000;fill-opacity:0;stroke:#0000ff;stroke-width:0.696069;stroke-linecap:round;stroke-miterlimit:3.8;stroke-dashoffset:0"
       d="M 0 19.6493 L 0 18.9538 M 0 18.257 L 0 17.5612 M 0 16.8645 L 0 16.1677 M 0 15.4715 L 0 14.7763 M 0 14.0795 L 0 13.3832 M 0 12.6865 L 0 11.9905 M 0 11.2938 L 0 10.5977 M 0 9.90162 L 0 9.20597 M 0 8.51029 L 0 7.81394 M 0 7.11815 L 0 6.422 M 0 5.72668 L 0 5.03047 M 0 4.33536 L 0 3.63946 M 0 2.94303 L 0 2.24633 M 0 1.55141 L 0 0.854952 M 0 0.268807"
       id="path44980"
       sodipodi:nodetypes="cc" />
    <path
       style="fill:#000000;fill-opacity:0;stroke:#0000ff;stroke-width:0.682956;stroke-linecap:round;stroke-miterlimit:3.8;stroke-dashoffset:0"
       d="M 2.15398 19.3521 L 2.15398 17.3038 M 2.15398 16.6204 L 2.15398 14.5705 M 2.15398 13.8878 L 2.15398 11.8392 M 2.15398 11.1554 L 2.15398 9.10694 M 2.15398 8.42358 L 2.15398 6.37529 M 2.15398 5.69242 L 2.15398 3.64465 M 2.15398 2.96245 L 2.15398 0.912401 M 2.15398 0.229127 L 2.15398 0.126416"
       id="path44980-3"
       sodipodi:nodetypes="cc" />
    <path
       style="fill:#000000;fill-opacity:0;stroke:#0000ff;stroke-width:0.69843;stroke-linecap:round;stroke-miterlimit:3.8;stroke-dashoffset:0"
       d="M 1.03125 19.5471 L 1.03125 18.1497 M 1.03125 17.4517 L 1.03125 16.0543 M 1.03125 15.3558 L 1.03125 13.9592 M 1.03125 13.2601 L 1.03125 11.8642 M 1.03125 11.1659 L 1.03125 9.76848 M 1.03125 9.06988 L 1.03125 7.67312 M 1.03125 6.97389 L 1.03125 5.57801 M 1.03125 4.8805 L 1.03125 3.48316 M 1.03125 2.78525 L 1.03125 1.38884 M 1.03125 0.68988 L 1.03125 0.034937"
       id="path44980-35"
       sodipodi:nodetypes="cc" />
    <path
       style="fill:#000000;fill-opacity:0;stroke:#0000ff;stroke-width:0.682956;stroke-linecap:round;stroke-miterlimit:3.8;stroke-dashoffset:0"
       d="M 6.15701 19.3521 L 6.15701 16.6205 M 6.15701 15.5957 L 6.15701 12.8638 M 6.15701 11.8389 L 6.15701 9.10756 M 6.15701 8.08286 L 6.15701 5.35097 M 6.15701 4.32727 L 6.15701 1.59498 M 6.15701 0.570324 L 6.15701 0.126416"
       id="path44980-8"
       sodipodi:nodetypes="cc" />
    <path
       style="fill:#000000;fill-opacity:0;stroke:#0000ff;stroke-width:0.682956;stroke-linecap:round;stroke-miterlimit:3.8;stroke-dashoffset:0"
       d="M 5.15625 19.3521 L 5.15625 17.3038 M 5.15625 16.2796 L 5.15625 14.2304 M 5.15625 13.2057 L 5.15625 11.1568 M 5.15625 10.1326 L 5.15625 8.08411 M 5.15625 7.05916 L 5.15625 5.01016 M 5.15625 3.98564 L 5.15625 1.93648 M 5.15625 0.912438 L 5.15625 0.126416"
       id="path44980-9"
       sodipodi:nodetypes="cc" />
    <path
       style="fill:#000000;fill-opacity:0;stroke:#0000ff;stroke-width:0.682956;stroke-linecap:round;stroke-miterlimit:3.8;stroke-dashoffset:0"
       d="M 4.15549 19.3521 L 4.15549 15.9371 M 4.15549 15.2537 L 4.15549 11.8386 M 4.15549 11.1548 L 4.15549 7.74048 M 4.15549 7.05673 L 4.15549 3.64246 M 4.15549 2.96065 L 4.15549 0.126416"
       id="path44980-0"
       sodipodi:nodetypes="cc" />
    <path
       style="fill:#000000;fill-opacity:0;stroke:#0000ff;stroke-width:0.682956;stroke-linecap:round;stroke-miterlimit:3.8;stroke-dashoffset:0"
       d="M 3.15474 19.3521 L 3.15474 16.6205 M 3.15474 15.9369 L 3.15474 13.2051 M 3.15474 12.5213 L 3.15474 9.79018 M 3.15474 9.10699 L 3.15474 6.37582 M 3.15474 5.6929 L 3.15474 2.96137 M 3.15474 2.27901 L 3.15474 0.126416"
       id="path44980-34"
       sodipodi:nodetypes="cc" />
    <path
       style="fill:#000000;fill-opacity:0;stroke:#0000ff;stroke-width:0.682956;stroke-linecap:round;stroke-miterlimit:3.8"
       d="M 8.1585209,19.352139 V 0.12641604"
       id="path44980-4"
       sodipodi:nodetypes="cc" />
    <path
       style="fill:#000000;fill-opacity:0;stroke:#0000ff;stroke-width:0.683;stroke-linecap:round;stroke-miterlimit:3.8;stroke-dashoffset:0"
       d="M 7.15776 19.4435 L 7.15776 16.0284 M 7.15776 15.0047 L 7.15776 11.5889 M 7.15776 10.5637 L 7.15776 7.14848 M 7.15776 6.1238 L 7.15776 2.70971 M 7.15776 1.68505 L 7.15776 0.217737"
       id="path44980-4-2"
       sodipodi:nodetypes="cc" />
  </g>
</svg>
