<?xml version="1.0" encoding="UTF-8" standalone="no"?>
<!-- Created with Inkscape (http://www.inkscape.org/) -->

<svg
   width="227.74001mm"
   height="140.35001mm"
   viewBox="0 0 227.74001 140.35001"
   version="1.1"
   id="svg5"
   xml:space="preserve"
   inkscape:version="1.2.2 (732a01da63, 2022-12-09)"
   sodipodi:docname="black.svg"
   inkscape:export-filename="contours.png"
   inkscape:export-xdpi="800"
   inkscape:export-ydpi="800"
   xmlns:inkscape="http://www.inkscape.org/namespaces/inkscape"
   xmlns:sodipodi="http://sodipodi.sourceforge.net/DTD/sodipodi-0.dtd"
   xmlns="http://www.w3.org/2000/svg"
   xmlns:svg="http://www.w3.org/2000/svg"><sodipodi:namedview
     id="namedview7"
     pagecolor="#ffffff"
     bordercolor="#000000"
     borderopacity="0.25"
     inkscape:showpageshadow="2"
     inkscape:pageopacity="0.0"
     inkscape:pagecheckerboard="0"
     inkscape:deskcolor="#d1d1d1"
     inkscape:document-units="mm"
     showgrid="false"
     inkscape:zoom="1.5519182"
     inkscape:cx="290.93028"
     inkscape:cy="271.92155"
     inkscape:window-width="1920"
     inkscape:window-height="1009"
     inkscape:window-x="-8"
     inkscape:window-y="-8"
     inkscape:window-maximized="1"
     inkscape:current-layer="layer1" /><defs
     id="defs2"><inkscape:path-effect
       effect="bspline"
       id="path-effect54"
       is_visible="true"
       lpeversion="1.3"
       weight="33.333333"
       steps="2"
       helper_size="0"
       apply_no_weight="true"
       apply_with_weight="true"
       only_selected="false"
       uniform="false" /><inkscape:path-effect
       effect="bspline"
       id="path-effect53"
       is_visible="true"
       lpeversion="1.3"
       weight="33.333333"
       steps="2"
       helper_size="0"
       apply_no_weight="true"
       apply_with_weight="true"
       only_selected="false"
       uniform="false" /><inkscape:path-effect
       effect="bspline"
       id="path-effect52"
       is_visible="true"
       lpeversion="1.3"
       weight="33.333333"
       steps="2"
       helper_size="0"
       apply_no_weight="true"
       apply_with_weight="true"
       only_selected="false"
       uniform="false" /><inkscape:path-effect
       effect="bspline"
       id="path-effect51"
       is_visible="true"
       lpeversion="1.3"
       weight="33.333333"
       steps="2"
       helper_size="0"
       apply_no_weight="true"
       apply_with_weight="true"
       only_selected="false"
       uniform="false" /><inkscape:path-effect
       effect="bspline"
       id="path-effect50"
       is_visible="true"
       lpeversion="1.3"
       weight="33.333333"
       steps="2"
       helper_size="0"
       apply_no_weight="true"
       apply_with_weight="true"
       only_selected="false"
       uniform="false" /><inkscape:path-effect
       effect="bspline"
       id="path-effect49"
       is_visible="true"
       lpeversion="1.3"
       weight="33.333333"
       steps="2"
       helper_size="0"
       apply_no_weight="true"
       apply_with_weight="true"
       only_selected="false"
       uniform="false" /><inkscape:path-effect
       effect="bspline"
       id="path-effect48"
       is_visible="true"
       lpeversion="1.3"
       weight="33.333333"
       steps="2"
       helper_size="0"
       apply_no_weight="true"
       apply_with_weight="true"
       only_selected="false"
       uniform="false" /><inkscape:path-effect
       effect="bspline"
       id="path-effect47"
       is_visible="true"
       lpeversion="1.3"
       weight="33.333333"
       steps="2"
       helper_size="0"
       apply_no_weight="true"
       apply_with_weight="true"
       only_selected="false"
       uniform="false" /><inkscape:path-effect
       effect="bspline"
       id="path-effect46"
       is_visible="true"
       lpeversion="1.3"
       weight="33.333333"
       steps="2"
       helper_size="0"
       apply_no_weight="true"
       apply_with_weight="true"
       only_selected="false"
       uniform="false" /><inkscape:path-effect
       effect="bspline"
       id="path-effect45"
       is_visible="true"
       lpeversion="1.3"
       weight="33.333333"
       steps="2"
       helper_size="0"
       apply_no_weight="true"
       apply_with_weight="true"
       only_selected="false"
       uniform="false" /><inkscape:path-effect
       effect="bspline"
       id="path-effect44"
       is_visible="true"
       lpeversion="1.3"
       weight="33.333333"
       steps="2"
       helper_size="0"
       apply_no_weight="true"
       apply_with_weight="true"
       only_selected="false"
       uniform="false" /><inkscape:path-effect
       effect="bspline"
       id="path-effect43"
       is_visible="true"
       lpeversion="1.3"
       weight="33.333333"
       steps="2"
       helper_size="0"
       apply_no_weight="true"
       apply_with_weight="true"
       only_selected="false"
       uniform="false" /><inkscape:path-effect
       effect="bspline"
       id="path-effect42"
       is_visible="true"
       lpeversion="1.3"
       weight="33.333333"
       steps="2"
       helper_size="0"
       apply_no_weight="true"
       apply_with_weight="true"
       only_selected="false"
       uniform="false" /><inkscape:path-effect
       effect="bspline"
       id="path-effect41"
       is_visible="true"
       lpeversion="1.3"
       weight="33.333333"
       steps="2"
       helper_size="0"
       apply_no_weight="true"
       apply_with_weight="true"
       only_selected="false"
       uniform="false" /><inkscape:path-effect
       effect="bspline"
       id="path-effect40"
       is_visible="true"
       lpeversion="1.3"
       weight="33.333333"
       steps="2"
       helper_size="0"
       apply_no_weight="true"
       apply_with_weight="true"
       only_selected="false"
       uniform="false" /><inkscape:path-effect
       effect="bspline"
       id="path-effect39"
       is_visible="true"
       lpeversion="1.3"
       weight="33.333333"
       steps="2"
       helper_size="0"
       apply_no_weight="true"
       apply_with_weight="true"
       only_selected="false"
       uniform="false" /><inkscape:path-effect
       effect="bspline"
       id="path-effect38"
       is_visible="true"
       lpeversion="1.3"
       weight="33.333333"
       steps="2"
       helper_size="0"
       apply_no_weight="true"
       apply_with_weight="true"
       only_selected="false"
       uniform="false" /><inkscape:path-effect
       effect="bspline"
       id="path-effect37"
       is_visible="true"
       lpeversion="1.3"
       weight="33.333333"
       steps="2"
       helper_size="0"
       apply_no_weight="true"
       apply_with_weight="true"
       only_selected="false"
       uniform="false" /><inkscape:path-effect
       effect="bspline"
       id="path-effect36"
       is_visible="true"
       lpeversion="1.3"
       weight="33.333333"
       steps="2"
       helper_size="0"
       apply_no_weight="true"
       apply_with_weight="true"
       only_selected="false"
       uniform="false" /><inkscape:path-effect
       effect="bspline"
       id="path-effect35"
       is_visible="true"
       lpeversion="1.3"
       weight="33.333333"
       steps="2"
       helper_size="0"
       apply_no_weight="true"
       apply_with_weight="true"
       only_selected="false"
       uniform="false" /><inkscape:path-effect
       effect="bspline"
       id="path-effect34"
       is_visible="true"
       lpeversion="1.3"
       weight="33.333333"
       steps="2"
       helper_size="0"
       apply_no_weight="true"
       apply_with_weight="true"
       only_selected="false"
       uniform="false" /><inkscape:path-effect
       effect="bspline"
       id="path-effect33"
       is_visible="true"
       lpeversion="1.3"
       weight="33.333333"
       steps="2"
       helper_size="0"
       apply_no_weight="true"
       apply_with_weight="true"
       only_selected="false"
       uniform="false" /><inkscape:path-effect
       effect="bspline"
       id="path-effect32"
       is_visible="true"
       lpeversion="1.3"
       weight="33.333333"
       steps="2"
       helper_size="0"
       apply_no_weight="true"
       apply_with_weight="true"
       only_selected="false"
       uniform="false" /><inkscape:path-effect
       effect="bspline"
       id="path-effect31"
       is_visible="true"
       lpeversion="1.3"
       weight="33.333333"
       steps="2"
       helper_size="0"
       apply_no_weight="true"
       apply_with_weight="true"
       only_selected="false"
       uniform="false" /><inkscape:path-effect
       effect="bspline"
       id="path-effect30"
       is_visible="true"
       lpeversion="1.3"
       weight="33.333333"
       steps="2"
       helper_size="0"
       apply_no_weight="true"
       apply_with_weight="true"
       only_selected="false"
       uniform="false" /><inkscape:path-effect
       effect="bspline"
       id="path-effect29"
       is_visible="true"
       lpeversion="1.3"
       weight="33.333333"
       steps="2"
       helper_size="0"
       apply_no_weight="true"
       apply_with_weight="true"
       only_selected="false"
       uniform="false" /><inkscape:path-effect
       effect="bspline"
       id="path-effect28"
       is_visible="true"
       lpeversion="1.3"
       weight="33.333333"
       steps="2"
       helper_size="0"
       apply_no_weight="true"
       apply_with_weight="true"
       only_selected="false"
       uniform="false" /><inkscape:path-effect
       effect="bspline"
       id="path-effect27"
       is_visible="true"
       lpeversion="1.3"
       weight="33.333333"
       steps="2"
       helper_size="0"
       apply_no_weight="true"
       apply_with_weight="true"
       only_selected="false"
       uniform="false" /><inkscape:path-effect
       effect="bspline"
       id="path-effect26"
       is_visible="true"
       lpeversion="1.3"
       weight="33.333333"
       steps="2"
       helper_size="0"
       apply_no_weight="true"
       apply_with_weight="true"
       only_selected="false"
       uniform="false" /><inkscape:path-effect
       effect="bspline"
       id="path-effect25"
       is_visible="true"
       lpeversion="1.3"
       weight="33.333333"
       steps="2"
       helper_size="0"
       apply_no_weight="true"
       apply_with_weight="true"
       only_selected="false"
       uniform="false" /><inkscape:path-effect
       effect="bspline"
       id="path-effect24"
       is_visible="true"
       lpeversion="1.3"
       weight="33.333333"
       steps="2"
       helper_size="0"
       apply_no_weight="true"
       apply_with_weight="true"
       only_selected="false"
       uniform="false" /><inkscape:path-effect
       effect="bspline"
       id="path-effect23"
       is_visible="true"
       lpeversion="1.3"
       weight="33.333333"
       steps="2"
       helper_size="0"
       apply_no_weight="true"
       apply_with_weight="true"
       only_selected="false"
       uniform="false" /><inkscape:path-effect
       effect="bspline"
       id="path-effect22"
       is_visible="true"
       lpeversion="1.3"
       weight="33.333333"
       steps="2"
       helper_size="0"
       apply_no_weight="true"
       apply_with_weight="true"
       only_selected="false"
       uniform="false" /><inkscape:path-effect
       effect="bspline"
       id="path-effect21"
       is_visible="true"
       lpeversion="1.3"
       weight="33.333333"
       steps="2"
       helper_size="0"
       apply_no_weight="true"
       apply_with_weight="true"
       only_selected="false"
       uniform="false" /><inkscape:path-effect
       effect="bspline"
       id="path-effect20"
       is_visible="true"
       lpeversion="1.3"
       weight="33.333333"
       steps="2"
       helper_size="0"
       apply_no_weight="true"
       apply_with_weight="true"
       only_selected="false"
       uniform="false" /><inkscape:path-effect
       effect="bspline"
       id="path-effect19"
       is_visible="true"
       lpeversion="1.3"
       weight="33.333333"
       steps="2"
       helper_size="0"
       apply_no_weight="true"
       apply_with_weight="true"
       only_selected="false"
       uniform="false" /><inkscape:path-effect
       effect="bspline"
       id="path-effect18"
       is_visible="true"
       lpeversion="1.3"
       weight="33.333333"
       steps="2"
       helper_size="0"
       apply_no_weight="true"
       apply_with_weight="true"
       only_selected="false"
       uniform="false" /><inkscape:path-effect
       effect="bspline"
       id="path-effect17"
       is_visible="true"
       lpeversion="1.3"
       weight="33.333333"
       steps="2"
       helper_size="0"
       apply_no_weight="true"
       apply_with_weight="true"
       only_selected="false"
       uniform="false" /><inkscape:path-effect
       effect="bspline"
       id="path-effect16"
       is_visible="true"
       lpeversion="1.3"
       weight="33.333333"
       steps="2"
       helper_size="0"
       apply_no_weight="true"
       apply_with_weight="true"
       only_selected="false"
       uniform="false" /><inkscape:path-effect
       effect="bspline"
       id="path-effect15"
       is_visible="true"
       lpeversion="1.3"
       weight="33.333333"
       steps="2"
       helper_size="0"
       apply_no_weight="true"
       apply_with_weight="true"
       only_selected="false"
       uniform="false" /><inkscape:path-effect
       effect="bspline"
       id="path-effect14"
       is_visible="true"
       lpeversion="1.3"
       weight="33.333333"
       steps="2"
       helper_size="0"
       apply_no_weight="true"
       apply_with_weight="true"
       only_selected="false"
       uniform="false" /><inkscape:path-effect
       effect="bspline"
       id="path-effect13"
       is_visible="true"
       lpeversion="1.3"
       weight="33.333333"
       steps="2"
       helper_size="0"
       apply_no_weight="true"
       apply_with_weight="true"
       only_selected="false"
       uniform="false" /><inkscape:path-effect
       effect="bspline"
       id="path-effect12"
       is_visible="true"
       lpeversion="1.3"
       weight="33.333333"
       steps="2"
       helper_size="0"
       apply_no_weight="true"
       apply_with_weight="true"
       only_selected="false"
       uniform="false" /><inkscape:path-effect
       effect="bspline"
       id="path-effect11"
       is_visible="true"
       lpeversion="1.3"
       weight="33.333333"
       steps="2"
       helper_size="0"
       apply_no_weight="true"
       apply_with_weight="true"
       only_selected="false"
       uniform="false" /><inkscape:path-effect
       effect="bspline"
       id="path-effect10"
       is_visible="true"
       lpeversion="1.3"
       weight="33.333333"
       steps="2"
       helper_size="0"
       apply_no_weight="true"
       apply_with_weight="true"
       only_selected="false"
       uniform="false" /><inkscape:path-effect
       effect="bspline"
       id="path-effect9"
       is_visible="true"
       lpeversion="1.3"
       weight="33.333333"
       steps="2"
       helper_size="0"
       apply_no_weight="true"
       apply_with_weight="true"
       only_selected="false"
       uniform="false" /><inkscape:path-effect
       effect="bspline"
       id="path-effect8"
       is_visible="true"
       lpeversion="1.3"
       weight="33.333333"
       steps="2"
       helper_size="0"
       apply_no_weight="true"
       apply_with_weight="true"
       only_selected="false"
       uniform="false" /><inkscape:path-effect
       effect="bspline"
       id="path-effect7"
       is_visible="true"
       lpeversion="1.3"
       weight="33.333333"
       steps="2"
       helper_size="0"
       apply_no_weight="true"
       apply_with_weight="true"
       only_selected="false"
       uniform="false" /><inkscape:path-effect
       effect="bspline"
       id="path-effect6"
       is_visible="true"
       lpeversion="1.3"
       weight="33.333333"
       steps="2"
       helper_size="0"
       apply_no_weight="true"
       apply_with_weight="true"
       only_selected="false"
       uniform="false" /><inkscape:path-effect
       effect="bspline"
       id="path-effect5"
       is_visible="true"
       lpeversion="1.3"
       weight="33.333333"
       steps="2"
       helper_size="0"
       apply_no_weight="true"
       apply_with_weight="true"
       only_selected="false"
       uniform="false" /></defs><g
     inkscape:label="Layer 1"
     inkscape:groupmode="layer"
     id="layer1"
     transform="translate(67.4194, -70.9677)"><path
       style="fill:#0000ff;fill-opacity:0;stroke:#000000;stroke-width:0.606232;stroke-dasharray:none;stroke-opacity:1"
       d="m 116.18104,85.685426 c -0.96611,0.285027 -1.93221,0.570052 -2.71769,0.546027 -0.78548,-0.02402 -1.39034,-0.357104 -1.84356,-0.67941 -0.45322,-0.322306 -0.75483,-0.633854 -1.52871,-0.918874 -0.77388,-0.285019 -2.02004,-0.543527 -2.99692,-0.523638 -0.97688,0.01989 -1.68447,0.318167 -2.35892,0.550163 -0.67445,0.231995 -1.31576,0.397703 -2.77404,0.660354 -1.45828,0.262651 -3.733516,0.622241 -5.225762,1.097827 -1.492245,0.475585 -2.201496,1.06717 -2.69118,1.5817 -0.489684,0.514529 -0.759802,0.952011 -1.077143,1.293372 -0.317341,0.341361 -0.681902,0.586607 -1.016645,0.860032 -0.334742,0.273424 -0.639654,0.575019 -1.51379,0.947038 -0.874136,0.372018 -2.317498,0.814462 -4.053343,1.155824 -1.735846,0.341363 -3.764174,0.581643 -5.120541,0.745697 -1.356368,0.164054 -2.040746,0.251878 -2.991115,0.744039 -0.95037,0.492161 -2.166698,1.388649 -2.716039,2.198141 -0.549341,0.809493 -0.431683,1.532007 -0.352968,2.670428 0.07872,1.138421 0.118493,2.692794 0.108559,3.575174 -0.0099,0.88237 -0.0696,1.09288 -0.315685,1.60493 -0.246082,0.51204 -0.678598,1.32569 -1.111107,2.13932"
       id="path9"
       inkscape:original-d="m 116.18104,85.685426 c -0.96611,0.285027 -1.93221,0.570054 -2.89832,0.855079 -0.60485,-0.333078 -1.20971,-0.666153 -1.81456,-0.999232 -0.3016,-0.311531 -0.6032,-0.623084 -0.90479,-0.934615 -1.24617,-0.258501 -2.49233,-0.517023 -3.73849,-0.775522 -0.7076,0.298288 -1.41519,0.596556 -2.12279,0.894846 -0.64131,0.165684 -1.28261,0.331403 -1.92393,0.497127 -2.27524,0.359583 -4.550479,0.719164 -6.825722,1.078771 -0.709248,0.591577 -1.418503,1.183156 -2.127755,1.774757 -0.270113,0.437465 -0.540224,0.874951 -0.810336,1.312417 -0.364569,0.24526 -0.729138,0.490495 -1.093705,0.735753 -0.304913,0.301597 -0.609827,0.60319 -0.914738,0.904785 -1.44336,0.442444 -2.886721,0.884889 -4.330087,1.327332 -2.028326,0.24028 -4.056654,0.480561 -6.084982,0.72084 -0.684396,0.08791 -1.368791,0.175605 -2.053185,0.263479 -1.216335,0.8965 -2.43267,1.792978 -3.649003,2.689476 0.117658,0.722491 0.235312,1.445006 0.352966,2.167497 0.03978,1.554351 0.07953,3.108724 0.11933,4.663064 -0.05966,0.21041 -0.11933,0.42092 -0.178967,0.63138 -0.432515,0.81363 -0.865024,1.62728 -1.297535,2.44091"
       inkscape:path-effect="#path-effect9" /><path
       style="fill:#0000ff;fill-opacity:0;stroke:#000000;stroke-width:0.606232;stroke-dasharray:none;stroke-opacity:1"
       d="m 92.969605,89.572997 c -0.207145,0.432506 -0.414289,0.865011 -0.616458,1.490566 -0.20217,0.625556 -0.399368,1.444168 -0.239453,2.461623 0.159915,1.017455 0.676939,2.23377 0.494657,3.389596 -0.182283,1.155827 -1.063884,2.25118 -1.945474,3.346518"
       id="path10"
       inkscape:original-d="m 92.969605,89.572997 c -0.207144,0.432507 -0.414282,0.865014 -0.621427,1.297502 -0.197208,0.818618 -0.394394,1.637233 -0.591594,2.455827 0.517025,1.216315 1.034051,2.432629 1.551074,3.648944 -0.881592,1.095337 -1.763186,2.190696 -2.644781,3.28603"
       inkscape:path-effect="#path-effect10" /><path
       style="fill:#0000ff;fill-opacity:0;stroke:#000000;stroke-width:0.606232;stroke-dasharray:none;stroke-opacity:1"
       d="m 80.665405,93.470503 c -0.08451,0.399351 -0.169029,0.798723 -0.19637,1.402738 -0.02734,0.604016 0.0025,1.412675 0.108548,1.976925 0.10606,0.56425 0.288341,0.884059 0.590769,1.952065 0.302428,1.068005 0.724993,2.884179 1.147562,4.700369"
       id="path11"
       inkscape:original-d="m 80.665405,93.470503 c -0.08451,0.399351 -0.169027,0.798723 -0.253541,1.198073 0.02984,0.808681 0.05966,1.61734 0.08949,2.426018 0.182299,0.319816 0.36457,0.639631 0.546855,0.959445 0.422568,1.816198 0.845135,3.632371 1.267705,5.448561"
       inkscape:path-effect="#path-effect11" /><path
       style="fill:#0000ff;fill-opacity:0;stroke:#000000;stroke-width:0.606232;stroke-dasharray:none;stroke-opacity:1"
       d="m 87.122218,106.84403 c -0.215427,2.91485 -0.430854,5.8297 -0.671964,7.40063 -0.24111,1.57094 -0.507916,1.79796 -0.796261,2.09127 -0.288344,0.2933 -0.598216,0.65288 -1.211356,1.05391 -0.613139,0.40102 -1.529526,0.84347 -2.23878,1.23289 -0.709253,0.38942 -1.211368,0.72581 -2.055678,1.05557 -0.844309,0.32976 -2.030811,0.65289 -2.939747,0.98514 -0.908936,0.33225 -1.540303,0.67362 -2.153444,0.9603 -0.61314,0.28668 -1.208047,0.51867 -1.918956,0.87163 -0.710909,0.35296 -1.537811,0.82689 -2.136043,1.14008 -0.598231,0.31319 -0.967776,0.46564 -1.342281,1.05639 -0.374504,0.59075 -0.753989,1.61982 -1.817868,2.51715 -1.063878,0.89733 -2.812148,1.66291 -4.560428,2.42849"
       id="path13"
       inkscape:original-d="m 87.122218,106.84403 c -0.215429,2.91485 -0.430857,5.8297 -0.646281,8.74456 -0.266801,0.227 -0.533597,0.45403 -0.800396,0.68104 -0.309885,0.35961 -0.619767,0.71918 -0.929651,1.07878 -0.916392,0.44245 -1.832787,0.88488 -2.749179,1.32735 -0.502112,0.33638 -1.004222,0.67278 -1.506334,1.00917 -1.186507,0.32313 -2.373012,0.64625 -3.559516,0.96939 -0.63137,0.34136 -1.262737,0.68273 -1.894102,1.02411 -0.594911,0.23199 -1.189818,0.46398 -1.78473,0.69597 -0.826911,0.47392 -1.653817,0.94784 -2.480725,1.42179 -0.369543,0.15246 -0.739084,0.30492 -1.108622,0.45735 -0.379483,1.02905 -0.758965,2.05812 -1.138452,3.0872 -1.748272,0.76557 -3.496545,1.53114 -5.244818,2.29674"
       inkscape:path-effect="#path-effect13" /><path
       style="fill:#0000ff;fill-opacity:0;stroke:#000000;stroke-width:0.606232;stroke-dasharray:none;stroke-opacity:1"
       d="m 54.617802,109.37176 c -0.117845,0.79124 -0.235685,1.58245 -0.194201,2.42118 0.04148,0.83872 0.242296,1.72493 0.503234,2.33819 0.260938,0.61326 0.582014,0.95355 0.801435,1.20121 0.219421,0.24766 0.337333,0.40287 0.59285,0.57723 0.255516,0.17435 0.648736,0.36797 1.374432,1.05577 0.725696,0.68781 1.783885,1.86983 2.225199,2.72779 0.441314,0.85796 0.265759,1.39183 0.07459,1.73632 -0.191168,0.34449 -0.398063,0.49966 -0.612701,0.7185 -0.214637,0.21884 -0.437104,0.50142 -0.687249,0.73833 -0.250145,0.2369 -0.527859,0.42805 -0.790002,0.65352 -0.262143,0.22546 -0.508637,0.48518 -0.780387,0.72446 -0.271749,0.23928 -0.568807,0.45815 -0.947584,0.78702 -0.378777,0.32887 -0.839334,0.76778 -1.29988,1.20667"
       id="path29"
       inkscape:original-d="m 54.617802,109.37176 c -0.117839,0.79124 -0.235688,1.58245 -0.35353,2.37369 0.200815,0.88621 0.401629,1.77242 0.602444,2.65866 0.321064,0.34027 0.642126,0.68058 0.963191,1.02085 0.11784,0.155 0.235687,0.31026 0.353529,0.46536 0.393212,0.19358 0.786424,0.38721 1.179638,0.58083 1.058185,1.18199 2.116371,2.36401 3.174557,3.54604 -0.175569,0.5339 -0.351126,1.06777 -0.526686,1.60167 -0.206829,0.155 -0.413658,0.31026 -0.620482,0.46536 -0.222462,0.28257 -0.44492,0.56516 -0.66738,0.84772 -0.277773,0.19133 -0.555546,0.3824 -0.833323,0.57359 -0.246507,0.25974 -0.493017,0.51944 -0.739526,0.77919 -0.297016,0.21877 -0.594027,0.43771 -0.891041,0.65653 -0.460551,0.4389 -0.921104,0.87781 -1.381654,1.3167"
       inkscape:path-effect="#path-effect29"
       inkscape:label="path29" /><path
       style="fill:#0000ff;fill-opacity:0;stroke:#000000;stroke-width:0.606232;stroke-dasharray:none;stroke-opacity:1"
       d="m 44.509723,112.42362 c -0.07816,0.43411 -0.156327,0.8682 -0.370967,1.5061 -0.21464,0.63789 -0.565769,1.47963 -0.839337,2.06463 -0.273568,0.58501 -0.469575,0.91328 -0.665551,1.16456 -0.195977,0.25128 -0.392043,0.42569 -0.561593,0.64154 -0.169549,0.21585 -0.312639,0.47318 -0.505638,0.73832 -0.192999,0.26514 -0.435898,0.5381 -0.78101,1.00946 -0.345112,0.47136 -0.792432,1.14112 -1.123117,1.93656 -0.330686,0.79543 -0.544725,1.7165 -0.212235,2.36763 0.33249,0.65114 1.211504,1.03232 1.901128,1.48325 0.689623,0.45093 1.189844,0.9716 1.49708,1.41651 0.307236,0.4449 0.42148,0.81407 0.471384,1.31308 0.0499,0.49902 0.03548,1.12792 0.02105,1.75682"
       id="path30"
       inkscape:original-d="m 44.509723,112.42362 c -0.07817,0.43411 -0.156326,0.8682 -0.234485,1.30227 -0.351126,0.84172 -0.702251,1.68346 -1.053377,2.52519 -0.196004,0.32828 -0.392009,0.65655 -0.588014,0.9848 -0.196004,0.17426 -0.392009,0.34874 -0.588014,0.52307 -0.143097,0.25736 -0.286191,0.51468 -0.429287,0.772 -0.242901,0.27297 -0.485803,0.54592 -0.728706,0.81887 -0.447324,0.66977 -0.894646,1.33953 -1.34197,2.0093 -0.214045,0.9211 -0.428086,1.84217 -0.642128,2.76326 0.879014,0.3812 1.758031,0.76237 2.637048,1.14353 0.500233,0.52069 1.000464,1.04135 1.500699,1.56205 0.114242,0.36912 0.228473,0.73829 0.342709,1.10743 -0.01435,0.62889 -0.02887,1.25779 -0.04328,1.88669"
       inkscape:path-effect="#path-effect30" /><path
       style="fill:#0000ff;fill-opacity:0;stroke:#000000;stroke-width:0.606232;stroke-dasharray:none;stroke-opacity:1"
       d="m -29.120009,153.19513 c -0.06561,0.3861 -0.131212,0.77222 0.985883,1.1855 1.117094,0.41328 3.416893,0.85374 5.371817,0.81157 1.954924,-0.0422 3.564965,-0.56697 4.597717,-0.86873 1.032752,-0.30177 1.488199,-0.38049 1.889306,-0.41332 0.401106,-0.0328 0.747874,-0.0198 1.110553,0.11141 0.36268,0.13118 0.741293,0.38046 1.300781,0.73283 0.559487,0.35237 1.299841,0.80781 1.931491,1.36447 0.63165,0.55667 1.154592,1.21456 1.480722,1.80121 0.32613,0.58666 0.4554558,1.10208 0.6616316,1.61939 0.2061759,0.5173 0.4891971,1.03647 0.7947159,1.56596 0.3055189,0.5295 0.6335204,1.06929 0.822827,1.53506 0.1893065,0.46576 0.2399135,0.85749 0.2877123,1.12739 0.047799,0.26991 0.092775,0.41795 0.1180782,0.51159 0.025303,0.0936 0.030963,0.13314 0.075894,0.14525 0.044931,0.0121 0.1293797,-0.003 0.2137273,-0.018"
       id="path44"
       inkscape:original-d="m -29.120009,153.19513 c -0.06562,0.3861 -0.131196,0.77222 -0.196817,1.15832 2.299796,0.44045 4.599593,0.88092 6.899391,1.32138 1.610047,-0.52481 3.220088,-1.04961 4.830134,-1.5744 0.455466,-0.0787 0.910924,-0.15736 1.366385,-0.23618 0.34675,0.0127 0.693501,0.0262 1.040249,0.0392 0.378618,0.24928 0.757229,0.49857 1.135843,0.74786 0.740357,0.45545 1.480719,0.91088 2.221077,1.36634 0.522935,0.65788 1.045873,1.31577 1.568809,1.97364 0.129324,0.51544 0.2586569,1.03086 0.3879845,1.5463 0.2830243,0.51917 0.566045,1.03834 0.8490694,1.55752 0.3280088,0.53981 0.6560139,1.0796 0.9840191,1.6194 0.050607,0.39173 0.1012132,0.78346 0.1518198,1.17518 0.044992,0.14809 0.089965,0.29613 0.1349569,0.44421 0.00563,0.0392 0.011266,0.0787 0.016899,0.11793 0.084332,-0.0145 0.1687008,-0.03 0.2530366,-0.0451"
       inkscape:path-effect="#path-effect44" /><path
       style="fill:#0000ff;fill-opacity:0;stroke:#000000;stroke-width:0.606232;stroke-dasharray:none;stroke-opacity:1"
       d="m -18.070862,154.45466 c 0.449838,0.90716 0.899679,1.81432 1.138651,2.38879 0.238972,0.57447 0.267082,0.81625 0.596022,1.25671 0.328941,0.44046 0.958711,1.07959 1.259544,2.0055 0.300833,0.92591 0.272723,2.13856 0.387058,3.16286 0.114336,1.0243 0.371114,1.86022 0.627906,2.69619"
       id="path45"
       inkscape:original-d="m -18.070862,154.45466 c 0.449835,0.90716 0.899678,1.81432 1.349513,2.72147 0.02811,0.24179 0.05622,0.48357 0.08433,0.72536 0.629773,0.63913 1.259544,1.27826 1.889317,1.9174 -0.02809,1.21268 -0.05622,2.42533 -0.08433,3.638 0.256784,0.83593 0.513565,1.67185 0.770351,2.50782"
       inkscape:path-effect="#path-effect45" /><path
       style="fill:#0000ff;fill-opacity:0;stroke:#000000;stroke-width:0.606232;stroke-dasharray:none;stroke-opacity:1"
       d="m -23.401443,155.4218 c 0.590415,0.79283 1.180827,1.58565 1.580997,2.25384 0.400169,0.66819 0.61009,1.21172 0.843446,1.625 0.233355,0.41329 0.490138,0.69631 0.735671,1.12739 0.245533,0.43108 0.479827,1.01025 0.625088,1.90147 0.14526,0.89122 0.201495,2.09453 0.179004,3.18818 -0.02249,1.09365 -0.123703,2.07765 -0.224916,3.06165"
       id="path46"
       inkscape:original-d="m -23.401443,155.4218 c 0.59041,0.79283 1.180827,1.58565 1.771237,2.37847 0.20992,0.54356 0.41985,1.08709 0.629773,1.63063 0.256784,0.28303 0.513567,0.56605 0.770349,0.84906 0.234291,0.57915 0.46858,1.15832 0.70287,1.73747 0.05622,1.20329 0.112443,2.4066 0.168701,3.60989 -0.101214,0.98401 -0.202438,1.96801 -0.30364,2.95201"
       inkscape:path-effect="#path-effect46" /><path
       style="fill:#0000ff;fill-opacity:0;stroke:#000000;stroke-width:0.606232;stroke-dasharray:none;stroke-opacity:1"
       d="m 76.399434,94.528497 c -1.473538,0.02313 -2.947069,0.04627 -4.565643,-0.227363 -1.618573,-0.273629 -3.382186,-0.84402 -4.702757,-1.362613 -1.320572,-0.518592 -2.198109,-0.985388 -2.904409,-1.379665 -0.7063,-0.394276 -1.241356,-0.716031 -1.849538,-1.018289 -0.608181,-0.302258 -1.289491,-0.585022 -1.771548,-0.795884 -0.482058,-0.210862 -0.76478,-0.349783 -1.519822,-0.516145 -0.755042,-0.166363 -1.982396,-0.360152 -3.157327,-0.487522 -1.174931,-0.127371 -2.297441,-0.188324 -3.038478,-0.22978 -0.741037,-0.04146 -1.100578,-0.06341 -2.064045,-0.177378 -0.963467,-0.113967 -2.530848,-0.319942 -3.483344,-0.289473 -0.952495,0.03047 -1.290103,0.297385 -1.505833,0.616099 -0.215729,0.318714 -0.309577,0.689225 -0.475945,1.110925 -0.166368,0.4217 -0.405248,0.894574 -0.631932,1.230946 -0.226685,0.336373 -0.441227,0.536284 -0.624045,0.76968 -0.182818,0.233395 -0.33395,0.500312 -0.605134,0.775149 -0.271184,0.274837 -0.662421,0.557595 -0.92324,0.805611 -0.260819,0.248017 -0.391241,0.461323 -0.938485,0.872053 -0.547244,0.41073 -1.511316,1.018897 -2.639937,1.429018 -1.12862,0.410121 -2.421755,0.62219 -3.321846,0.705678 -0.900092,0.08349 -1.407102,0.03839 -1.979336,0.01291 -0.572234,-0.02549 -1.20968,-0.03136 -1.99702,0.110735 -0.78734,0.142097 -1.7246,0.432169 -2.369349,0.644847 -0.644749,0.212678 -0.996985,0.347962 -1.270591,0.524671 -0.273607,0.17671 -0.468647,0.394912 -0.718497,0.655728 -0.249851,0.260817 -0.554561,0.5643 -0.75749,0.868994 -0.20293,0.304694 -0.304089,0.6106 -0.40525,0.916512"
       id="path48"
       inkscape:original-d="m 76.399434,94.528497 c -1.473538,0.02313 -2.947069,0.04628 -4.420603,0.0694 -1.763615,-0.570385 -3.527224,-1.140789 -5.290832,-1.711173 -0.87754,-0.466789 -1.75508,-0.93358 -2.63262,-1.400391 -0.535054,-0.321754 -1.07011,-0.643507 -1.605164,-0.965261 -0.681312,-0.282757 -1.362624,-0.565514 -2.043935,-0.848293 -0.282765,-0.139028 -0.565526,-0.277868 -0.848287,-0.416821 -1.227337,-0.193662 -2.454673,-0.387564 -3.682011,-0.581358 -1.122518,-0.06104 -2.245037,-0.121837 -3.367557,-0.182863 -0.359546,-0.02202 -0.719095,-0.04385 -1.078643,-0.06587 -1.567379,-0.205997 -3.134763,-0.411952 -4.702146,-0.617927 -0.337608,0.266915 -0.675215,0.533831 -1.012827,0.800747 -0.09385,0.370511 -0.187695,0.741022 -0.281544,1.111531 -0.238885,0.472893 -0.477771,0.945763 -0.716656,1.418656 -0.21451,0.199822 -0.42902,0.399768 -0.643529,0.599642 -0.151129,0.266915 -0.302262,0.533831 -0.453393,0.800747 -0.391237,0.282759 -0.782474,0.565516 -1.173709,0.848273 -0.130414,0.213269 -0.260825,0.426582 -0.391237,0.639873 -0.964077,0.608167 -1.928149,1.216335 -2.892222,1.824504 -1.293152,0.212166 -2.586303,0.424136 -3.879455,0.636215 -0.507025,-0.04515 -1.014047,-0.09011 -1.52107,-0.135284 -0.637432,-0.0065 -1.27487,-0.01327 -1.912306,-0.01763 -0.937257,0.290073 -1.874518,0.580144 -2.81178,0.870215 -0.352236,0.135284 -0.704469,0.270575 -1.056703,0.40585 -0.195004,0.218117 -0.390018,0.436342 -0.585027,0.654502 -0.304701,0.303465 -0.609401,0.606958 -0.914102,0.910423 -0.101177,0.305913 -0.202319,0.611825 -0.303483,0.917736"
       inkscape:path-effect="#path-effect48" /><path
       style="fill:#0000ff;fill-opacity:0;stroke:#000000;stroke-width:0.606232;stroke-dasharray:none;stroke-opacity:1"
       d="m 58.039005,89.340385 c -0.145034,0.318097 -0.290077,0.636213 -0.458896,0.885464 -0.168818,0.249251 -0.361357,0.429596 -0.649606,0.994505 -0.288249,0.56491 -0.672167,1.514331 -0.467409,2.464379 0.204758,0.950047 0.9982,1.900699 1.594192,2.757499 0.595992,0.856799 0.994543,1.619762 1.302289,2.155415 0.307746,0.535653 0.524697,0.844007 0.749568,1.535663 0.224871,0.69166 0.457663,1.76663 0.347366,2.63135 -0.110298,0.86473 -0.5637,1.51922 -0.953111,1.972 -0.38941,0.45278 -0.714834,0.70384 -0.998811,0.96283 -0.283977,0.25899 -0.526512,0.52591 -0.809278,0.71543 -0.282766,0.18953 -0.605755,0.30165 -0.888521,0.48325 -0.282766,0.1816 -0.525308,0.43267 -0.791589,0.64228 -0.266281,0.20962 -0.556403,0.37784 -0.783099,0.7063 -0.226696,0.32846 -0.390013,0.81719 -0.553337,1.30594"
       id="path49"
       inkscape:original-d="m 58.039005,89.340385 c -0.145042,0.318094 -0.290076,0.636214 -0.435111,0.954309 -0.192572,0.180439 -0.385142,0.360751 -0.577714,0.541127 -0.383925,0.949443 -0.767847,1.898863 -1.15177,2.848306 0.793442,0.950653 1.586883,1.901306 2.380327,2.85196 0.398545,0.762942 0.797096,1.525905 1.195643,2.288871 0.216951,0.308335 0.433896,0.616693 0.650843,0.925052 0.23279,1.07496 0.465584,2.14993 0.698376,3.2249 -0.453395,0.65447 -0.906792,1.30897 -1.360187,1.96346 -0.325421,0.25107 -0.650842,0.50214 -0.976263,0.75319 -0.24254,0.26692 -0.485082,0.53383 -0.727625,0.80077 -0.322984,0.11211 -0.645967,0.22425 -0.96895,0.33636 -0.242542,0.25109 -0.485083,0.50216 -0.727626,0.75321 -0.290075,0.16809 -0.580151,0.33639 -0.870226,0.50458 -0.163322,0.48873 -0.326641,0.97746 -0.489959,1.46621"
       inkscape:path-effect="#path-effect49" /><path
       style="fill:#0000ff;fill-opacity:0;stroke:#000000;stroke-width:0.606232;stroke-dasharray:none;stroke-opacity:1"
       d="m 112.41006,124.82259 c -0.55972,0.47461 -1.11944,0.94924 -1.48195,1.34938 -0.3625,0.40014 -0.5278,0.72584 -0.83466,1.29209 -0.30686,0.56625 -0.7553,1.37309 -1.04744,2.12264 -0.29214,0.74956 -0.42798,1.44184 -0.53682,2.07356 -0.10883,0.63172 -0.19066,1.20289 -0.3535,1.75851 -0.16285,0.55562 -0.40671,1.0957 -0.65956,1.55148 -0.25286,0.45579 -0.5147,0.82729 -0.7021,1.19471 -0.1874,0.36741 -0.30032,0.73073 -0.42471,1.07196 -0.12438,0.34124 -0.26023,0.66038 -0.34778,1.0368 -0.0876,0.37641 -0.12683,0.8101 -0.2463,1.30517 -0.11947,0.49507 -0.31914,1.05149 -0.5139,1.82724 -0.19476,0.77574 -0.3846,1.77079 -0.79539,2.30677 -0.41079,0.53599 -1.04253,0.6129 -1.6718,0.65136 -0.62928,0.0385 -1.2561,0.0385 -2.44265,-0.0949 -1.186545,-0.13339 -2.932815,-0.40016 -4.01052,-0.55075 -1.077705,-0.15058 -1.48688,-0.18499 -2.284728,-0.17848 -0.797848,0.007 -1.984392,0.0539 -3.231489,0.10958 -1.247097,0.0556 -2.554738,0.11947 -3.386146,0.13827 -0.831408,0.0188 -1.186556,-0.007 -1.563785,-0.0631 -0.377228,-0.0557 -0.776559,-0.14077 -1.31665,-0.20294 -0.54009,-0.0622 -1.220933,-0.10143 -1.901761,-0.14068"
       id="path50"
       inkscape:original-d="m 112.41006,124.82259 c -0.55972,0.47461 -1.11944,0.94924 -1.67916,1.42385 -0.1653,0.32567 -0.33059,0.65137 -0.49589,0.97705 -0.44844,0.80681 -0.89687,1.61365 -1.3453,2.4205 -0.13587,0.69226 -0.27168,1.38455 -0.40752,2.07681 -0.0818,0.57118 -0.16367,1.14235 -0.24549,1.71352 -0.24386,0.54007 -0.48771,1.08015 -0.73157,1.62021 -0.26186,0.37151 -0.52372,0.743 -0.78558,1.11455 -0.11293,0.36329 -0.22585,0.72661 -0.33878,1.08996 -0.13582,0.31912 -0.27167,0.63826 -0.40751,0.95738 -0.0393,0.43371 -0.0786,0.8674 -0.11782,1.30109 -0.19968,0.55645 -0.39934,1.11287 -0.59901,1.66932 -0.18985,0.99504 -0.37969,1.99009 -0.56954,2.98514 -0.63173,0.0769 -1.26346,0.15391 -1.8952,0.23075 -0.62682,0 -1.25364,0 -1.88047,0 -1.746265,-0.26677 -3.492535,-0.53354 -5.238802,-0.80031 -0.409152,-0.0343 -0.81831,-0.0689 -1.227462,-0.10321 -1.186545,0.0476 -2.37309,0.095 -3.559638,0.14228 -1.307654,0.0638 -2.615308,0.12738 -3.922964,0.19152 -0.355147,-0.0262 -0.710291,-0.0525 -1.065436,-0.0787 -0.399334,-0.085 -0.79867,-0.17008 -1.198003,-0.2553 -0.680832,-0.0391 -1.361666,-0.0785 -2.042494,-0.11775"
       inkscape:path-effect="#path-effect50" /><path
       style="fill:#0000ff;fill-opacity:0;stroke:#000000;stroke-width:0.606232;stroke-dasharray:none;stroke-opacity:1"
       d="m 105.9438,139.73354 c -1.39112,0.31586 -2.78224,0.63172 -3.75276,0.72501 -0.97053,0.0933 -1.52041,-0.036 -2.05312,-0.13096 -0.532718,-0.0949 -1.04824,-0.15556 -1.575224,-0.23087 -0.526984,-0.0753 -1.065477,-0.16533 -2.181643,-0.18498 -1.116165,-0.0197 -2.81006,0.031 -3.945871,0.0417 -1.135811,0.0106 -1.71354,-0.0188 -2.29126,-0.0482"
       id="path51"
       inkscape:original-d="m 105.9438,139.73354 c -1.39112,0.31587 -2.78224,0.63172 -4.17337,0.94759 -0.5499,-0.12938 -1.0998,-0.25857 -1.64971,-0.38788 -0.515531,-0.0605 -1.031064,-0.12102 -1.546597,-0.18184 -0.538445,-0.0898 -1.076895,-0.18007 -1.615339,-0.27002 -1.693896,0.0507 -3.387791,0.10139 -5.081687,0.15209 -0.577728,-0.0294 -1.155453,-0.0589 -1.733175,-0.0883"
       inkscape:path-effect="#path-effect51" /><path
       style="fill:#0000ff;fill-opacity:0;stroke:#000000;stroke-width:0.606232;stroke-dasharray:none;stroke-opacity:1"
       d="m 106.36605,138.39807 c -0.62683,-0.27167 -1.25364,-0.54333 -2.15297,-0.70042 -0.89933,-0.15709 -2.07114,-0.19961 -2.98764,-0.40499 -0.91651,-0.20538 -1.577693,-0.5736 -2.110433,-0.86575 -0.53274,-0.29214 -0.93695,-0.50815 -1.341188,-0.72418"
       id="path52"
       inkscape:original-d="m 106.36605,138.39807 c -0.62683,-0.27167 -1.25365,-0.54331 -1.88047,-0.81499 -1.17182,-0.0427 -2.34364,-0.085 -3.51545,-0.12756 -0.6612,-0.36824 -1.322386,-0.73646 -1.983581,-1.1047 -0.404245,-0.21612 -0.808488,-0.43207 -1.21273,-0.64809"
       inkscape:path-effect="#path-effect52" /><path
       style="fill:#0000ff;fill-opacity:0;stroke:#000000;stroke-width:0.606232;stroke-dasharray:none;stroke-opacity:1"
       d="m 95.979166,111.92911 c -0.520463,0.16039 -1.040885,0.32077 -1.517958,0.60553 -0.477073,0.28476 -0.910778,0.69391 -1.3952,0.99831 -0.484422,0.3044 -1.01963,0.50407 -1.688182,0.63421 -0.668551,0.13013 -1.470483,0.19075 -2.039214,0.25951 -0.56873,0.0688 -0.904257,0.14569 -1.35922,0.2496 -0.454963,0.10392 -1.029431,0.23485 -1.603881,0.36577"
       id="path53"
       inkscape:original-d="m 95.979166,111.92911 c -0.520444,0.16045 -1.040887,0.32076 -1.56133,0.48115 -0.433705,0.40914 -0.867408,0.81829 -1.301111,1.22744 -0.535172,0.19956 -1.070343,0.39933 -1.60552,0.59898 -0.801939,0.0605 -1.603878,0.12102 -2.405821,0.18184 -0.335506,0.0769 -0.671012,0.15391 -1.006519,0.23075 -0.574454,0.13084 -1.148903,0.26185 -1.723354,0.39277"
       inkscape:path-effect="#path-effect53" /><path
       style="fill:#0000ff;fill-opacity:0;stroke:#000000;stroke-width:0.606232;stroke-dasharray:none;stroke-opacity:1"
       d="m 99.465155,113.60332 c -0.57445,0.0769 -1.148913,0.15384 -1.851836,0.54499 -0.702923,0.39115 -1.534312,1.09651 -2.178337,1.54822 -0.644025,0.45171 -1.100607,0.64973 -1.560499,0.90667 -0.459891,0.25694 -0.923057,0.5728 -1.575248,0.86656 -0.652191,0.29377 -1.493412,0.56544 -2.101409,0.8142 -0.607996,0.24876 -0.982781,0.47461 -1.661162,0.70619 -0.67838,0.23158 -1.660346,0.46889 -2.401738,0.44679 -0.741392,-0.0221 -1.242186,-0.30359 -1.784735,-0.51144 -0.54255,-0.20785 -1.126801,-0.34204 -1.711073,-0.47623"
       id="path54"
       inkscape:original-d="m 99.465155,113.60332 c -0.574453,0.0769 -1.148904,0.15391 -1.723355,0.23076 -0.8314,0.70538 -1.662801,1.41073 -2.494203,2.11612 -0.456615,0.1981 -0.91323,0.39604 -1.369843,0.59409 -0.463164,0.31585 -0.926326,0.63171 -1.38949,0.94756 -0.841219,0.27168 -1.682439,0.54336 -2.523658,0.81503 -0.374785,0.22583 -0.74957,0.45168 -1.124355,0.67755 -0.981968,0.2373 -1.963937,0.47459 -2.945906,0.71191 -0.500806,-0.28151 -1.001611,-0.56298 -1.502413,-0.84449 -0.584272,-0.13428 -1.168543,-0.26838 -1.752814,-0.40258"
       inkscape:path-effect="#path-effect54" /><g
       inkscape:label="Hershey Text"
       style="fill:none;stroke:#000000;stroke-linecap:round;stroke-linejoin:round"
       id="g8672"><g
         transform="translate(41.5233, 86.2337)"
         id="g8670" /></g><g
       inkscape:label="Hershey Text"
       style="fill:none;stroke:#000000;stroke-linecap:round;stroke-linejoin:round"
       id="g8698"><g
         transform="translate(25.0393, 154.035)"
         id="g8696" /></g><g
       inkscape:label="Hershey Text"
       style="fill:none;stroke:#000000;stroke-linecap:round;stroke-linejoin:round"
       transform="rotate(-28.381)"
       id="g8724"><g
         transform="translate(-103.78, 149.322)"
         id="g8722" /></g><g
       inkscape:label="Hershey Text"
       style="fill:none;stroke:#000000;stroke-linecap:round;stroke-linejoin:round"
       id="g8752"><g
         transform="translate(-48.7443, 199.739)"
         id="g8750" /></g><g
       inkscape:label="Hershey Text"
       style="fill:none;stroke:#000000;stroke-linecap:round;stroke-linejoin:round"
       transform="rotate(-81.4809)"
       id="g8768"><g
         transform="translate(-188.699, -7.93831)"
         id="g8766" /></g><g
       inkscape:label="Hershey Text"
       style="fill:none;stroke:#000000;stroke-linecap:round;stroke-linejoin:round"
       transform="rotate(-64.5391)"
       id="g8784"><g
         transform="translate(-133.853, 78.1646)"
         id="g8782" /></g><g
       inkscape:label="Hershey Text"
       style="fill:none;stroke:#000000;stroke-linecap:round;stroke-linejoin:round"
       transform="rotate(-33.0744)"
       id="g8800"><g
         transform="translate(-56.9327, 138.846)"
         id="g8798" /></g><g
       inkscape:label="Hershey Text"
       style="fill:none;stroke:#000000;stroke-linecap:round;stroke-linejoin:round"
       transform="rotate(6.11656)"
       id="g8824"><g
         transform="translate(-6.21621, 153.011)"
         id="g8822" /></g><g
       inkscape:label="Hershey Text"
       style="fill:none;stroke:#000000;stroke-linecap:round;stroke-linejoin:round"
       id="g8852"><g
         transform="translate(114.802, 81.6861)"
         id="g8850" /></g><g
       inkscape:label="Hershey Text"
       style="fill:none;stroke:#000000;stroke-linecap:round;stroke-linejoin:round"
       id="g8880"><g
         transform="translate(92.0641, 147.524)"
         id="g8878" /></g></g></svg>
