<?xml version='1.0' encoding='UTF-8'?>
<!-- Created with Inkscape (http://www.inkscape.org/) --><svg xmlns:inkscape="http://www.inkscape.org/namespaces/inkscape" xmlns:sodipodi="http://sodipodi.sourceforge.net/DTD/sodipodi-0.dtd" xmlns="http://www.w3.org/2000/svg" xmlns:svg="http://www.w3.org/2000/svg" width="227.74001mm" height="140.35001mm" viewBox="0 0 227.74001 140.35001" version="1.1" id="svg5" xml:space="preserve" inkscape:version="1.2.2 (732a01da63, 2022-12-09)" sodipodi:docname="extensions_applied.svg" inkscape:export-filename="contours.png" inkscape:export-xdpi="800" inkscape:export-ydpi="800"><sodipodi:namedview id="namedview7" pagecolor="#ffffff" bordercolor="#000000" borderopacity="0.25" inkscape:showpageshadow="2" inkscape:pageopacity="0.0" inkscape:pagecheckerboard="0" inkscape:deskcolor="#d1d1d1" inkscape:document-units="mm" showgrid="false" inkscape:zoom="1.5519182" inkscape:cx="290.93028" inkscape:cy="271.27718" inkscape:window-width="1920" inkscape:window-height="1009" inkscape:window-x="-8" inkscape:window-y="-8" inkscape:window-maximized="1" inkscape:current-layer="layer1"/><defs id="defs2"><inkscape:path-effect effect="bspline" id="path-effect54" is_visible="true" lpeversion="1.3" weight="33.333333" steps="2" helper_size="0" apply_no_weight="true" apply_with_weight="true" only_selected="false" uniform="false"/><inkscape:path-effect effect="bspline" id="path-effect53" is_visible="true" lpeversion="1.3" weight="33.333333" steps="2" helper_size="0" apply_no_weight="true" apply_with_weight="true" only_selected="false" uniform="false"/><inkscape:path-effect effect="bspline" id="path-effect52" is_visible="true" lpeversion="1.3" weight="33.333333" steps="2" helper_size="0" apply_no_weight="true" apply_with_weight="true" only_selected="false" uniform="false"/><inkscape:path-effect effect="bspline" id="path-effect51" is_visible="true" lpeversion="1.3" weight="33.333333" steps="2" helper_size="0" apply_no_weight="true" apply_with_weight="true" only_selected="false" uniform="false"/><inkscape:path-effect effect="bspline" id="path-effect50" is_visible="true" lpeversion="1.3" weight="33.333333" steps="2" helper_size="0" apply_no_weight="true" apply_with_weight="true" only_selected="false" uniform="false"/><inkscape:path-effect effect="bspline" id="path-effect49" is_visible="true" lpeversion="1.3" weight="33.333333" steps="2" helper_size="0" apply_no_weight="true" apply_with_weight="true" only_selected="false" uniform="false"/><inkscape:path-effect effect="bspline" id="path-effect48" is_visible="true" lpeversion="1.3" weight="33.333333" steps="2" helper_size="0" apply_no_weight="true" apply_with_weight="true" only_selected="false" uniform="false"/><inkscape:path-effect effect="bspline" id="path-effect47" is_visible="true" lpeversion="1.3" weight="33.333333" steps="2" helper_size="0" apply_no_weight="true" apply_with_weight="true" only_selected="false" uniform="false"/><inkscape:path-effect effect="bspline" id="path-effect46" is_visible="true" lpeversion="1.3" weight="33.333333" steps="2" helper_size="0" apply_no_weight="true" apply_with_weight="true" only_selected="false" uniform="false"/><inkscape:path-effect effect="bspline" id="path-effect45" is_visible="true" lpeversion="1.3" weight="33.333333" steps="2" helper_size="0" apply_no_weight="true" apply_with_weight="true" only_selected="false" uniform="false"/><inkscape:path-effect effect="bspline" id="path-effect44" is_visible="true" lpeversion="1.3" weight="33.333333" steps="2" helper_size="0" apply_no_weight="true" apply_with_weight="true" only_selected="false" uniform="false"/><inkscape:path-effect effect="bspline" id="path-effect43" is_visible="true" lpeversion="1.3" weight="33.333333" steps="2" helper_size="0" apply_no_weight="true" apply_with_weight="true" only_selected="false" uniform="false"/><inkscape:path-effect effect="bspline" id="path-effect42" is_visible="true" lpeversion="1.3" weight="33.333333" steps="2" helper_size="0" apply_no_weight="true" apply_with_weight="true" only_selected="false" uniform="false"/><inkscape:path-effect effect="bspline" id="path-effect41" is_visible="true" lpeversion="1.3" weight="33.333333" steps="2" helper_size="0" apply_no_weight="true" apply_with_weight="true" only_selected="false" uniform="false"/><inkscape:path-effect effect="bspline" id="path-effect40" is_visible="true" lpeversion="1.3" weight="33.333333" steps="2" helper_size="0" apply_no_weight="true" apply_with_weight="true" only_selected="false" uniform="false"/><inkscape:path-effect effect="bspline" id="path-effect39" is_visible="true" lpeversion="1.3" weight="33.333333" steps="2" helper_size="0" apply_no_weight="true" apply_with_weight="true" only_selected="false" uniform="false"/><inkscape:path-effect effect="bspline" id="path-effect38" is_visible="true" lpeversion="1.3" weight="33.333333" steps="2" helper_size="0" apply_no_weight="true" apply_with_weight="true" only_selected="false" uniform="false"/><inkscape:path-effect effect="bspline" id="path-effect37" is_visible="true" lpeversion="1.3" weight="33.333333" steps="2" helper_size="0" apply_no_weight="true" apply_with_weight="true" only_selected="false" uniform="false"/><inkscape:path-effect effect="bspline" id="path-effect36" is_visible="true" lpeversion="1.3" weight="33.333333" steps="2" helper_size="0" apply_no_weight="true" apply_with_weight="true" only_selected="false" uniform="false"/><inkscape:path-effect effect="bspline" id="path-effect35" is_visible="true" lpeversion="1.3" weight="33.333333" steps="2" helper_size="0" apply_no_weight="true" apply_with_weight="true" only_selected="false" uniform="false"/><inkscape:path-effect effect="bspline" id="path-effect34" is_visible="true" lpeversion="1.3" weight="33.333333" steps="2" helper_size="0" apply_no_weight="true" apply_with_weight="true" only_selected="false" uniform="false"/><inkscape:path-effect effect="bspline" id="path-effect33" is_visible="true" lpeversion="1.3" weight="33.333333" steps="2" helper_size="0" apply_no_weight="true" apply_with_weight="true" only_selected="false" uniform="false"/><inkscape:path-effect effect="bspline" id="path-effect32" is_visible="true" lpeversion="1.3" weight="33.333333" steps="2" helper_size="0" apply_no_weight="true" apply_with_weight="true" only_selected="false" uniform="false"/><inkscape:path-effect effect="bspline" id="path-effect31" is_visible="true" lpeversion="1.3" weight="33.333333" steps="2" helper_size="0" apply_no_weight="true" apply_with_weight="true" only_selected="false" uniform="false"/><inkscape:path-effect effect="bspline" id="path-effect30" is_visible="true" lpeversion="1.3" weight="33.333333" steps="2" helper_size="0" apply_no_weight="true" apply_with_weight="true" only_selected="false" uniform="false"/><inkscape:path-effect effect="bspline" id="path-effect29" is_visible="true" lpeversion="1.3" weight="33.333333" steps="2" helper_size="0" apply_no_weight="true" apply_with_weight="true" only_selected="false" uniform="false"/><inkscape:path-effect effect="bspline" id="path-effect28" is_visible="true" lpeversion="1.3" weight="33.333333" steps="2" helper_size="0" apply_no_weight="true" apply_with_weight="true" only_selected="false" uniform="false"/><inkscape:path-effect effect="bspline" id="path-effect27" is_visible="true" lpeversion="1.3" weight="33.333333" steps="2" helper_size="0" apply_no_weight="true" apply_with_weight="true" only_selected="false" uniform="false"/><inkscape:path-effect effect="bspline" id="path-effect26" is_visible="true" lpeversion="1.3" weight="33.333333" steps="2" helper_size="0" apply_no_weight="true" apply_with_weight="true" only_selected="false" uniform="false"/><inkscape:path-effect effect="bspline" id="path-effect25" is_visible="true" lpeversion="1.3" weight="33.333333" steps="2" helper_size="0" apply_no_weight="true" apply_with_weight="true" only_selected="false" uniform="false"/><inkscape:path-effect effect="bspline" id="path-effect24" is_visible="true" lpeversion="1.3" weight="33.333333" steps="2" helper_size="0" apply_no_weight="true" apply_with_weight="true" only_selected="false" uniform="false"/><inkscape:path-effect effect="bspline" id="path-effect23" is_visible="true" lpeversion="1.3" weight="33.333333" steps="2" helper_size="0" apply_no_weight="true" apply_with_weight="true" only_selected="false" uniform="false"/><inkscape:path-effect effect="bspline" id="path-effect22" is_visible="true" lpeversion="1.3" weight="33.333333" steps="2" helper_size="0" apply_no_weight="true" apply_with_weight="true" only_selected="false" uniform="false"/><inkscape:path-effect effect="bspline" id="path-effect21" is_visible="true" lpeversion="1.3" weight="33.333333" steps="2" helper_size="0" apply_no_weight="true" apply_with_weight="true" only_selected="false" uniform="false"/><inkscape:path-effect effect="bspline" id="path-effect20" is_visible="true" lpeversion="1.3" weight="33.333333" steps="2" helper_size="0" apply_no_weight="true" apply_with_weight="true" only_selected="false" uniform="false"/><inkscape:path-effect effect="bspline" id="path-effect19" is_visible="true" lpeversion="1.3" weight="33.333333" steps="2" helper_size="0" apply_no_weight="true" apply_with_weight="true" only_selected="false" uniform="false"/><inkscape:path-effect effect="bspline" id="path-effect18" is_visible="true" lpeversion="1.3" weight="33.333333" steps="2" helper_size="0" apply_no_weight="true" apply_with_weight="true" only_selected="false" uniform="false"/><inkscape:path-effect effect="bspline" id="path-effect17" is_visible="true" lpeversion="1.3" weight="33.333333" steps="2" helper_size="0" apply_no_weight="true" apply_with_weight="true" only_selected="false" uniform="false"/><inkscape:path-effect effect="bspline" id="path-effect16" is_visible="true" lpeversion="1.3" weight="33.333333" steps="2" helper_size="0" apply_no_weight="true" apply_with_weight="true" only_selected="false" uniform="false"/><inkscape:path-effect effect="bspline" id="path-effect15" is_visible="true" lpeversion="1.3" weight="33.333333" steps="2" helper_size="0" apply_no_weight="true" apply_with_weight="true" only_selected="false" uniform="false"/><inkscape:path-effect effect="bspline" id="path-effect14" is_visible="true" lpeversion="1.3" weight="33.333333" steps="2" helper_size="0" apply_no_weight="true" apply_with_weight="true" only_selected="false" uniform="false"/><inkscape:path-effect effect="bspline" id="path-effect13" is_visible="true" lpeversion="1.3" weight="33.333333" steps="2" helper_size="0" apply_no_weight="true" apply_with_weight="true" only_selected="false" uniform="false"/><inkscape:path-effect effect="bspline" id="path-effect12" is_visible="true" lpeversion="1.3" weight="33.333333" steps="2" helper_size="0" apply_no_weight="true" apply_with_weight="true" only_selected="false" uniform="false"/><inkscape:path-effect effect="bspline" id="path-effect11" is_visible="true" lpeversion="1.3" weight="33.333333" steps="2" helper_size="0" apply_no_weight="true" apply_with_weight="true" only_selected="false" uniform="false"/><inkscape:path-effect effect="bspline" id="path-effect10" is_visible="true" lpeversion="1.3" weight="33.333333" steps="2" helper_size="0" apply_no_weight="true" apply_with_weight="true" only_selected="false" uniform="false"/><inkscape:path-effect effect="bspline" id="path-effect9" is_visible="true" lpeversion="1.3" weight="33.333333" steps="2" helper_size="0" apply_no_weight="true" apply_with_weight="true" only_selected="false" uniform="false"/><inkscape:path-effect effect="bspline" id="path-effect8" is_visible="true" lpeversion="1.3" weight="33.333333" steps="2" helper_size="0" apply_no_weight="true" apply_with_weight="true" only_selected="false" uniform="false"/><inkscape:path-effect effect="bspline" id="path-effect7" is_visible="true" lpeversion="1.3" weight="33.333333" steps="2" helper_size="0" apply_no_weight="true" apply_with_weight="true" only_selected="false" uniform="false"/><inkscape:path-effect effect="bspline" id="path-effect6" is_visible="true" lpeversion="1.3" weight="33.333333" steps="2" helper_size="0" apply_no_weight="true" apply_with_weight="true" only_selected="false" uniform="false"/><inkscape:path-effect effect="bspline" id="path-effect5" is_visible="true" lpeversion="1.3" weight="33.333333" steps="2" helper_size="0" apply_no_weight="true" apply_with_weight="true" only_selected="false" uniform="false"/></defs><g inkscape:label="Layer 1" inkscape:groupmode="layer" id="layer1" transform="translate(67.4194, -70.9677)"><g inkscape:label="Hershey Text" style="fill:none;stroke:#000000;stroke-linecap:round;stroke-linejoin:round" id="g8672"><g transform="translate(41.5233, 86.2337)" id="g8670"><path d="M 158 662 L 315 0 M 472 662 L 315 0 M 472 662 L 630 0 M 788 662 L 630 0" style="stroke-width:0.7310in" transform="scale(0.0025, -0.0025)" id="path8650"/><path d="M 189 662 L 220 630 L 252 662 L 220 693 L 189 662 M 220 441 L 220 0" style="stroke-width:0.7310in" transform="matrix(0.0025 0 0 -0.0025 1.89 0)" id="path8652"/><path d="M 220 441 L 220 0 M 220 315 L 315 410 L 378 441 L 472 441 L 536 410 L 567 315 L 567 0" style="stroke-width:0.7310in" transform="matrix(0.0025 0 0 -0.0025 2.52 0)" id="path8654"/><path d="M 567 662 L 567 0 M 567 346 L 504 410 L 441 441 L 346 441 L 284 410 L 220 346 L 189 252 L 189 189 L 220 94.5 L 284 31.5 L 346 0 L 441 0 L 504 31.5 L 567 94.5" style="stroke-width:0.7310in" transform="matrix(0.0025 0 0 -0.0025 4.015 0)" id="path8656"/><path d="M 158 441 L 346 0 M 536 441 L 346 0 L 284 -126 L 220 -189 L 158 -220 L 126 -220" style="stroke-width:0.7310in" transform="matrix(0.0025 0 0 -0.0025 5.51 0)" id="path8658"/><path d="M 220 662 L 220 0 M 220 662 L 504 662 L 598 630 L 630 598 L 662 536 L 662 472 L 630 410 L 598 378 L 504 346 L 220 346 M 441 346 L 662 0" style="stroke-width:0.7310in" transform="matrix(0.0025 0 0 -0.0025 7.715 0)" id="path8660"/><path d="M 189 662 L 220 630 L 252 662 L 220 693 L 189 662 M 220 441 L 220 0" style="stroke-width:0.7310in" transform="matrix(0.0025 0 0 -0.0025 9.37 0)" id="path8662"/><path d="M 567 662 L 567 0 M 567 346 L 504 410 L 441 441 L 346 441 L 284 410 L 220 346 L 189 252 L 189 189 L 220 94.5 L 284 31.5 L 346 0 L 441 0 L 504 31.5 L 567 94.5" style="stroke-width:0.7310in" transform="matrix(0.0025 0 0 -0.0025 10 0)" id="path8664"/><path d="M 567 441 L 567 -63 L 536 -158 L 504 -189 L 441 -220 L 346 -220 L 284 -189 M 567 346 L 504 410 L 441 441 L 346 441 L 284 410 L 220 346 L 189 252 L 189 189 L 220 94.5 L 284 31.5 L 346 0 L 441 0 L 504 31.5 L 567 94.5" style="stroke-width:0.7310in" transform="matrix(0.0025 0 0 -0.0025 11.495 0)" id="path8666"/><path d="M 189 252 L 567 252 L 567 315 L 536 378 L 504 410 L 441 441 L 346 441 L 284 410 L 220 346 L 189 252 L 189 189 L 220 94.5 L 284 31.5 L 346 0 L 441 0 L 504 31.5 L 567 94.5" style="stroke-width:0.7310in" transform="matrix(0.0025 0 0 -0.0025 12.99 0)" id="path8668"/></g></g><g inkscape:label="Hershey Text" style="fill:none;stroke:#000000;stroke-linecap:round;stroke-linejoin:round" id="g8698"><g transform="translate(25.0393, 154.035)" id="g8696"><path d="M 220 662 L 220 0 M 220 662 L 472 0 M 724 662 L 472 0 M 724 662 L 724 0" style="stroke-width:0.7310in" transform="scale(0.0025, -0.0025)" id="path8674"/><path d="M 189 662 L 220 630 L 252 662 L 220 693 L 189 662 M 220 441 L 220 0" style="stroke-width:0.7310in" transform="matrix(0.0025 0 0 -0.0025 1.89 0)" id="path8676"/><path d="M 567 662 L 567 0 M 567 346 L 504 410 L 441 441 L 346 441 L 284 410 L 220 346 L 189 252 L 189 189 L 220 94.5 L 284 31.5 L 346 0 L 441 0 L 504 31.5 L 567 94.5" style="stroke-width:0.7310in" transform="matrix(0.0025 0 0 -0.0025 2.52 0)" id="path8678"/><path d="M 189 441 L 315 0 M 441 441 L 315 0 M 441 441 L 567 0 M 693 441 L 567 0" style="stroke-width:0.7310in" transform="matrix(0.0025 0 0 -0.0025 4.015 0)" id="path8680"/><path d="M 567 441 L 567 0 M 567 346 L 504 410 L 441 441 L 346 441 L 284 410 L 220 346 L 189 252 L 189 189 L 220 94.5 L 284 31.5 L 346 0 L 441 0 L 504 31.5 L 567 94.5" style="stroke-width:0.7310in" transform="matrix(0.0025 0 0 -0.0025 5.7475 0)" id="path8682"/><path d="M 158 441 L 346 0 M 536 441 L 346 0 L 284 -126 L 220 -189 L 158 -220 L 126 -220" style="stroke-width:0.7310in" transform="matrix(0.0025 0 0 -0.0025 7.2425 0)" id="path8684"/><path d="M 220 662 L 220 0 M 220 0 L 598 0" style="stroke-width:0.7310in" transform="matrix(0.0025 0 0 -0.0025 9.4475 0)" id="path8686"/><path d="M 346 441 L 284 410 L 220 346 L 189 252 L 189 189 L 220 94.5 L 284 31.5 L 346 0 L 441 0 L 504 31.5 L 567 94.5 L 598 189 L 598 252 L 567 346 L 504 410 L 441 441 L 346 441" style="stroke-width:0.7310in" transform="matrix(0.0025 0 0 -0.0025 10.7875 0)" id="path8688"/><path d="M 567 662 L 567 0 M 567 346 L 504 410 L 441 441 L 346 441 L 284 410 L 220 346 L 189 252 L 189 189 L 220 94.5 L 284 31.5 L 346 0 L 441 0 L 504 31.5 L 567 94.5" style="stroke-width:0.7310in" transform="matrix(0.0025 0 0 -0.0025 12.2825 0)" id="path8690"/><path d="M 567 441 L 567 -63 L 536 -158 L 504 -189 L 441 -220 L 346 -220 L 284 -189 M 567 346 L 504 410 L 441 441 L 346 441 L 284 410 L 220 346 L 189 252 L 189 189 L 220 94.5 L 284 31.5 L 346 0 L 441 0 L 504 31.5 L 567 94.5" style="stroke-width:0.7310in" transform="matrix(0.0025 0 0 -0.0025 13.7775 0)" id="path8692"/><path d="M 189 252 L 567 252 L 567 315 L 536 378 L 504 410 L 441 441 L 346 441 L 284 410 L 220 346 L 189 252 L 189 189 L 220 94.5 L 284 31.5 L 346 0 L 441 0 L 504 31.5 L 567 94.5" style="stroke-width:0.7310in" transform="matrix(0.0025 0 0 -0.0025 15.2725 0)" id="path8694"/></g></g><g inkscape:label="Hershey Text" style="fill:none;stroke:#000000;stroke-linecap:round;stroke-linejoin:round" transform="rotate(-28.381)" id="g8724"><g transform="translate(-103.78, 149.322)" id="g8722"><path d="M 662 504 L 630 567 L 567 630 L 504 662 L 378 662 L 315 630 L 252 567 L 220 504 L 189 410 L 189 252 L 220 158 L 252 94.5 L 315 31.5 L 378 0 L 504 0 L 567 31.5 L 630 94.5 L 662 158" style="stroke-width:0.7310in" transform="scale(0.0025, -0.0025)" id="path8710"/><path d="M 220 662 L 220 0 M 220 315 L 315 410 L 378 441 L 472 441 L 536 410 L 567 315 L 567 0" style="stroke-width:0.7310in" transform="matrix(0.0025 0 0 -0.0025 1.655 0)" id="path8712"/><path d="M 567 441 L 567 0 M 567 346 L 504 410 L 441 441 L 346 441 L 284 410 L 220 346 L 189 252 L 189 189 L 220 94.5 L 284 31.5 L 346 0 L 441 0 L 504 31.5 L 567 94.5" style="stroke-width:0.7310in" transform="matrix(0.0025 0 0 -0.0025 3.15 0)" id="path8714"/><path d="M 189 662 L 220 630 L 252 662 L 220 693 L 189 662 M 220 441 L 220 0" style="stroke-width:0.7310in" transform="matrix(0.0025 0 0 -0.0025 4.645 0)" id="path8716"/><path d="M 220 441 L 220 0 M 220 252 L 252 346 L 315 410 L 378 441 L 472 441" style="stroke-width:0.7310in" transform="matrix(0.0025 0 0 -0.0025 5.275 0)" id="path8718"/><path d="M 284 536 L 346 567 L 441 662 L 441 0" style="stroke-width:0.7310in" transform="matrix(0.0025 0 0 -0.0025 7.245 0)" id="path8720"/></g></g><g inkscape:label="Hershey Text" style="fill:none;stroke:#000000;stroke-linecap:round;stroke-linejoin:round" id="g8752"><g transform="translate(-48.7443, 199.739)" id="g8750"><path d="M 220 662 L 220 0 M 662 662 L 662 0 M 220 346 L 662 346" style="stroke-width:0.7310in" transform="scale(0.0025, -0.0025)" id="path8726"/><path d="M 567 441 L 567 0 M 567 346 L 504 410 L 441 441 L 346 441 L 284 410 L 220 346 L 189 252 L 189 189 L 220 94.5 L 284 31.5 L 346 0 L 441 0 L 504 31.5 L 567 94.5" style="stroke-width:0.7310in" transform="matrix(0.0025 0 0 -0.0025 1.7325 0)" id="path8728"/><path d="M 220 441 L 220 0 M 220 315 L 315 410 L 378 441 L 472 441 L 536 410 L 567 315 L 567 0 M 567 315 L 662 410 L 724 441 L 819 441 L 882 410 L 914 315 L 914 0" style="stroke-width:0.7310in" transform="matrix(0.0025 0 0 -0.0025 3.2275 0)" id="path8730"/><path d="M 220 441 L 220 -220 M 220 346 L 284 410 L 346 441 L 441 441 L 504 410 L 567 346 L 598 252 L 598 189 L 567 94.5 L 504 31.5 L 441 0 L 346 0 L 284 31.5 L 220 94.5" style="stroke-width:0.7310in" transform="matrix(0.0025 0 0 -0.0025 5.59 0)" id="path8732"/><path d="M 252 662 L 252 126 L 284 31.5 L 346 0 L 410 0 M 158 441 L 378 441" style="stroke-width:0.7310in" transform="matrix(0.0025 0 0 -0.0025 7.085 0)" id="path8734"/><path d="M 346 441 L 284 410 L 220 346 L 189 252 L 189 189 L 220 94.5 L 284 31.5 L 346 0 L 441 0 L 504 31.5 L 567 94.5 L 598 189 L 598 252 L 567 346 L 504 410 L 441 441 L 346 441" style="stroke-width:0.7310in" transform="matrix(0.0025 0 0 -0.0025 8.03 0)" id="path8736"/><path d="M 220 441 L 220 0 M 220 315 L 315 410 L 378 441 L 472 441 L 536 410 L 567 315 L 567 0" style="stroke-width:0.7310in" transform="matrix(0.0025 0 0 -0.0025 9.525 0)" id="path8738"/><path d="M 220 662 L 220 0 M 220 0 L 598 0" style="stroke-width:0.7310in" transform="matrix(0.0025 0 0 -0.0025 11.965 0)" id="path8740"/><path d="M 346 441 L 284 410 L 220 346 L 189 252 L 189 189 L 220 94.5 L 284 31.5 L 346 0 L 441 0 L 504 31.5 L 567 94.5 L 598 189 L 598 252 L 567 346 L 504 410 L 441 441 L 346 441" style="stroke-width:0.7310in" transform="matrix(0.0025 0 0 -0.0025 13.305 0)" id="path8742"/><path d="M 567 662 L 567 0 M 567 346 L 504 410 L 441 441 L 346 441 L 284 410 L 220 346 L 189 252 L 189 189 L 220 94.5 L 284 31.5 L 346 0 L 441 0 L 504 31.5 L 567 94.5" style="stroke-width:0.7310in" transform="matrix(0.0025 0 0 -0.0025 14.8 0)" id="path8744"/><path d="M 567 441 L 567 -63 L 536 -158 L 504 -189 L 441 -220 L 346 -220 L 284 -189 M 567 346 L 504 410 L 441 441 L 346 441 L 284 410 L 220 346 L 189 252 L 189 189 L 220 94.5 L 284 31.5 L 346 0 L 441 0 L 504 31.5 L 567 94.5" style="stroke-width:0.7310in" transform="matrix(0.0025 0 0 -0.0025 16.295 0)" id="path8746"/><path d="M 189 252 L 567 252 L 567 315 L 536 378 L 504 410 L 441 441 L 346 441 L 284 410 L 220 346 L 189 252 L 189 189 L 220 94.5 L 284 31.5 L 346 0 L 441 0 L 504 31.5 L 567 94.5" style="stroke-width:0.7310in" transform="matrix(0.0025 0 0 -0.0025 17.79 0)" id="path8748"/></g></g><g inkscape:label="Hershey Text" style="fill:none;stroke:#000000;stroke-linecap:round;stroke-linejoin:round" transform="rotate(-81.4809)" id="g8768"><g transform="translate(-188.699, -7.93831)" id="g8766"><path d="M 662 504 L 630 567 L 567 630 L 504 662 L 378 662 L 315 630 L 252 567 L 220 504 L 189 410 L 189 252 L 220 158 L 252 94.5 L 315 31.5 L 378 0 L 504 0 L 567 31.5 L 630 94.5 L 662 158" style="stroke-width:0.7310in" transform="scale(0.0025, -0.0025)" id="path8754"/><path d="M 220 662 L 220 0 M 220 315 L 315 410 L 378 441 L 472 441 L 536 410 L 567 315 L 567 0" style="stroke-width:0.7310in" transform="matrix(0.0025 0 0 -0.0025 1.655 0)" id="path8756"/><path d="M 567 441 L 567 0 M 567 346 L 504 410 L 441 441 L 346 441 L 284 410 L 220 346 L 189 252 L 189 189 L 220 94.5 L 284 31.5 L 346 0 L 441 0 L 504 31.5 L 567 94.5" style="stroke-width:0.7310in" transform="matrix(0.0025 0 0 -0.0025 3.15 0)" id="path8758"/><path d="M 189 662 L 220 630 L 252 662 L 220 693 L 189 662 M 220 441 L 220 0" style="stroke-width:0.7310in" transform="matrix(0.0025 0 0 -0.0025 4.645 0)" id="path8760"/><path d="M 220 441 L 220 0 M 220 252 L 252 346 L 315 410 L 378 441 L 472 441" style="stroke-width:0.7310in" transform="matrix(0.0025 0 0 -0.0025 5.275 0)" id="path8762"/><path d="M 504 662 L 189 220 L 662 220 M 504 662 L 504 0" style="stroke-width:0.7310in" transform="matrix(0.0025 0 0 -0.0025 7.245 0)" id="path8764"/></g></g><g inkscape:label="Hershey Text" style="fill:none;stroke:#000000;stroke-linecap:round;stroke-linejoin:round" transform="rotate(-64.5391)" id="g8784"><g transform="translate(-133.853, 78.1646)" id="g8782"><path d="M 662 504 L 630 567 L 567 630 L 504 662 L 378 662 L 315 630 L 252 567 L 220 504 L 189 410 L 189 252 L 220 158 L 252 94.5 L 315 31.5 L 378 0 L 504 0 L 567 31.5 L 630 94.5 L 662 158" style="stroke-width:0.7310in" transform="scale(0.0025, -0.0025)" id="path8770"/><path d="M 220 662 L 220 0 M 220 315 L 315 410 L 378 441 L 472 441 L 536 410 L 567 315 L 567 0" style="stroke-width:0.7310in" transform="matrix(0.0025 0 0 -0.0025 1.655 0)" id="path8772"/><path d="M 567 441 L 567 0 M 567 346 L 504 410 L 441 441 L 346 441 L 284 410 L 220 346 L 189 252 L 189 189 L 220 94.5 L 284 31.5 L 346 0 L 441 0 L 504 31.5 L 567 94.5" style="stroke-width:0.7310in" transform="matrix(0.0025 0 0 -0.0025 3.15 0)" id="path8774"/><path d="M 189 662 L 220 630 L 252 662 L 220 693 L 189 662 M 220 441 L 220 0" style="stroke-width:0.7310in" transform="matrix(0.0025 0 0 -0.0025 4.645 0)" id="path8776"/><path d="M 220 441 L 220 0 M 220 252 L 252 346 L 315 410 L 378 441 L 472 441" style="stroke-width:0.7310in" transform="matrix(0.0025 0 0 -0.0025 5.275 0)" id="path8778"/><path d="M 252 662 L 598 662 L 410 410 L 504 410 L 567 378 L 598 346 L 630 252 L 630 189 L 598 94.5 L 536 31.5 L 441 0 L 346 0 L 252 31.5 L 220 63 L 189 126" style="stroke-width:0.7310in" transform="matrix(0.0025 0 0 -0.0025 7.245 0)" id="path8780"/></g></g><g inkscape:label="Hershey Text" style="fill:none;stroke:#000000;stroke-linecap:round;stroke-linejoin:round" transform="rotate(-33.0744)" id="g8800"><g transform="translate(-56.9327, 138.846)" id="g8798"><path d="M 662 504 L 630 567 L 567 630 L 504 662 L 378 662 L 315 630 L 252 567 L 220 504 L 189 410 L 189 252 L 220 158 L 252 94.5 L 315 31.5 L 378 0 L 504 0 L 567 31.5 L 630 94.5 L 662 158" style="stroke-width:0.7310in" transform="scale(0.0025, -0.0025)" id="path8786"/><path d="M 220 662 L 220 0 M 220 315 L 315 410 L 378 441 L 472 441 L 536 410 L 567 315 L 567 0" style="stroke-width:0.7310in" transform="matrix(0.0025 0 0 -0.0025 1.655 0)" id="path8788"/><path d="M 567 441 L 567 0 M 567 346 L 504 410 L 441 441 L 346 441 L 284 410 L 220 346 L 189 252 L 189 189 L 220 94.5 L 284 31.5 L 346 0 L 441 0 L 504 31.5 L 567 94.5" style="stroke-width:0.7310in" transform="matrix(0.0025 0 0 -0.0025 3.15 0)" id="path8790"/><path d="M 189 662 L 220 630 L 252 662 L 220 693 L 189 662 M 220 441 L 220 0" style="stroke-width:0.7310in" transform="matrix(0.0025 0 0 -0.0025 4.645 0)" id="path8792"/><path d="M 220 441 L 220 0 M 220 252 L 252 346 L 315 410 L 378 441 L 472 441" style="stroke-width:0.7310in" transform="matrix(0.0025 0 0 -0.0025 5.275 0)" id="path8794"/><path d="M 220 504 L 220 536 L 252 598 L 284 630 L 346 662 L 472 662 L 536 630 L 567 598 L 598 536 L 598 472 L 567 410 L 504 315 L 189 0 L 630 0" style="stroke-width:0.7310in" transform="matrix(0.0025 0 0 -0.0025 7.245 0)" id="path8796"/></g></g><g inkscape:label="Hershey Text" style="fill:none;stroke:#000000;stroke-linecap:round;stroke-linejoin:round" transform="rotate(6.11656)" id="g8824"><g transform="translate(-6.21621, 153.011)" id="g8822"><path d="M 662 504 L 630 567 L 567 630 L 504 662 L 378 662 L 315 630 L 252 567 L 220 504 L 189 410 L 189 252 L 220 158 L 252 94.5 L 315 31.5 L 378 0 L 504 0 L 567 31.5 L 630 94.5 L 662 158" style="stroke-width:0.7310in" transform="scale(0.0025, -0.0025)" id="path8802"/><path d="M 567 441 L 567 0 M 567 346 L 504 410 L 441 441 L 346 441 L 284 410 L 220 346 L 189 252 L 189 189 L 220 94.5 L 284 31.5 L 346 0 L 441 0 L 504 31.5 L 567 94.5" style="stroke-width:0.7310in" transform="matrix(0.0025 0 0 -0.0025 1.655 0)" id="path8804"/><path d="M 536 346 L 504 410 L 410 441 L 315 441 L 220 410 L 189 346 L 220 284 L 284 252 L 441 220 L 504 189 L 536 126 L 536 94.5 L 504 31.5 L 410 0 L 315 0 L 220 31.5 L 189 94.5" style="stroke-width:0.7310in" transform="matrix(0.0025 0 0 -0.0025 3.15 0)" id="path8806"/><path d="M 252 662 L 252 126 L 284 31.5 L 346 0 L 410 0 M 158 441 L 378 441" style="stroke-width:0.7310in" transform="matrix(0.0025 0 0 -0.0025 4.49 0)" id="path8808"/><path d="M 220 662 L 220 0" style="stroke-width:0.7310in" transform="matrix(0.0025 0 0 -0.0025 5.435 0)" id="path8810"/><path d="M 189 252 L 567 252 L 567 315 L 536 378 L 504 410 L 441 441 L 346 441 L 284 410 L 220 346 L 189 252 L 189 189 L 220 94.5 L 284 31.5 L 346 0 L 441 0 L 504 31.5 L 567 94.5" style="stroke-width:0.7310in" transform="matrix(0.0025 0 0 -0.0025 6.065 0)" id="path8812"/><path d="M 220 662 L 220 0 M 220 662 L 504 662 L 598 630 L 630 598 L 662 536 L 662 441 L 630 378 L 598 346 L 504 315 L 220 315" style="stroke-width:0.7310in" transform="matrix(0.0025 0 0 -0.0025 8.4275 0)" id="path8814"/><path d="M 189 252 L 567 252 L 567 315 L 536 378 L 504 410 L 441 441 L 346 441 L 284 410 L 220 346 L 189 252 L 189 189 L 220 94.5 L 284 31.5 L 346 0 L 441 0 L 504 31.5 L 567 94.5" style="stroke-width:0.7310in" transform="matrix(0.0025 0 0 -0.0025 10.0825 0)" id="path8816"/><path d="M 567 441 L 567 0 M 567 346 L 504 410 L 441 441 L 346 441 L 284 410 L 220 346 L 189 252 L 189 189 L 220 94.5 L 284 31.5 L 346 0 L 441 0 L 504 31.5 L 567 94.5" style="stroke-width:0.7310in" transform="matrix(0.0025 0 0 -0.0025 11.5 0)" id="path8818"/><path d="M 220 662 L 220 0 M 536 441 L 220 126 M 346 252 L 567 0" style="stroke-width:0.7310in" transform="matrix(0.0025 0 0 -0.0025 12.995 0)" id="path8820"/></g></g><g inkscape:label="Hershey Text" style="fill:none;stroke:#000000;stroke-linecap:round;stroke-linejoin:round" id="g8852"><g transform="translate(114.802, 81.6861)" id="g8850"><path d="M 630 567 L 567 630 L 472 662 L 346 662 L 252 630 L 189 567 L 189 504 L 220 441 L 252 410 L 315 378 L 504 315 L 567 284 L 598 252 L 630 189 L 630 94.5 L 567 31.5 L 472 0 L 346 0 L 252 31.5 L 189 94.5" style="stroke-width:0.7310in" transform="scale(0.0025, -0.0025)" id="path8826"/><path d="M 220 441 L 220 126 L 252 31.5 L 315 0 L 410 0 L 472 31.5 L 567 126 M 567 441 L 567 0" style="stroke-width:0.7310in" transform="matrix(0.0025 0 0 -0.0025 1.575 0)" id="path8828"/><path d="M 220 441 L 220 0 M 220 315 L 315 410 L 378 441 L 472 441 L 536 410 L 567 315 L 567 0 M 567 315 L 662 410 L 724 441 L 819 441 L 882 410 L 914 315 L 914 0" style="stroke-width:0.7310in" transform="matrix(0.0025 0 0 -0.0025 3.07 0)" id="path8830"/><path d="M 220 441 L 220 0 M 220 315 L 315 410 L 378 441 L 472 441 L 536 410 L 567 315 L 567 0 M 567 315 L 662 410 L 724 441 L 819 441 L 882 410 L 914 315 L 914 0" style="stroke-width:0.7310in" transform="matrix(0.0025 0 0 -0.0025 5.4325 0)" id="path8832"/><path d="M 189 662 L 220 630 L 252 662 L 220 693 L 189 662 M 220 441 L 220 0" style="stroke-width:0.7310in" transform="matrix(0.0025 0 0 -0.0025 7.795 0)" id="path8834"/><path d="M 252 662 L 252 126 L 284 31.5 L 346 0 L 410 0 M 158 441 L 378 441" style="stroke-width:0.7310in" transform="matrix(0.0025 0 0 -0.0025 8.425 0)" id="path8836"/><path d="M 598 567 L 567 630 L 472 662 L 410 662 L 315 630 L 252 536 L 220 378 L 220 220 L 252 94.5 L 315 31.5 L 410 0 L 441 0 L 536 31.5 L 598 94.5 L 630 189 L 630 220 L 598 315 L 536 378 L 441 410 L 410 410 L 315 378 L 252 315 L 220 220" style="stroke-width:0.7310in" transform="matrix(0.0025 0 0 -0.0025 10.315 0)" id="path8838"/><path d="M 252 126 L 220 94.5 L 189 126 L 220 158 L 252 126 L 252 63 L 189 0" style="stroke-width:0.7310in" transform="matrix(0.0025 0 0 -0.0025 11.89 0)" id="path8840"/><path d="M 346 662 L 252 630 L 220 567 L 220 504 L 252 441 L 315 410 L 441 378 L 536 346 L 598 284 L 630 220 L 630 126 L 598 63 L 567 31.5 L 472 0 L 346 0 L 252 31.5 L 220 63 L 189 126 L 189 220 L 220 284 L 284 346 L 378 378 L 504 410 L 567 441 L 598 504 L 598 567 L 567 630 L 472 662 L 346 662" style="stroke-width:0.7310in" transform="matrix(0.0025 0 0 -0.0025 12.52 0)" id="path8842"/><path d="M 220 504 L 220 536 L 252 598 L 284 630 L 346 662 L 472 662 L 536 630 L 567 598 L 598 536 L 598 472 L 567 410 L 504 315 L 189 0 L 630 0" style="stroke-width:0.7310in" transform="matrix(0.0025 0 0 -0.0025 14.095 0)" id="path8844"/><path d="M 378 662 L 284 630 L 220 536 L 189 378 L 189 284 L 220 126 L 284 31.5 L 378 0 L 441 0 L 536 31.5 L 598 126 L 630 284 L 630 378 L 598 536 L 536 630 L 441 662 L 378 662" style="stroke-width:0.7310in" transform="matrix(0.0025 0 0 -0.0025 15.67 0)" id="path8846"/><path d="M 252 598 L 220 630 L 252 662 L 284 630 L 284 567 L 252 504 L 220 472" style="stroke-width:0.7310in" transform="matrix(0.0025 0 0 -0.0025 17.245 0)" id="path8848"/></g></g><g inkscape:label="Hershey Text" style="fill:none;stroke:#000000;stroke-linecap:round;stroke-linejoin:round" id="g8880"><g transform="translate(92.0641, 147.524)" id="g8878"><path d="M 220 662 L 220 0 M 220 662 L 504 662 L 598 630 L 630 598 L 662 536 L 662 472 L 630 410 L 598 378 L 504 346 M 220 346 L 504 346 L 598 315 L 630 284 L 662 220 L 662 126 L 630 63 L 598 31.5 L 504 0 L 220 0" style="stroke-width:0.7310in" transform="scale(0.0025, -0.0025)" id="path8854"/><path d="M 346 441 L 284 410 L 220 346 L 189 252 L 189 189 L 220 94.5 L 284 31.5 L 346 0 L 441 0 L 504 31.5 L 567 94.5 L 598 189 L 598 252 L 567 346 L 504 410 L 441 441 L 346 441" style="stroke-width:0.7310in" transform="matrix(0.0025 0 0 -0.0025 1.655 0)" id="path8856"/><path d="M 220 441 L 220 0 M 220 315 L 315 410 L 378 441 L 472 441 L 536 410 L 567 315 L 567 0 M 567 315 L 662 410 L 724 441 L 819 441 L 882 410 L 914 315 L 914 0" style="stroke-width:0.7310in" transform="matrix(0.0025 0 0 -0.0025 3.15 0)" id="path8858"/><path d="M 220 662 L 220 0 M 220 346 L 284 410 L 346 441 L 441 441 L 504 410 L 567 346 L 598 252 L 598 189 L 567 94.5 L 504 31.5 L 441 0 L 346 0 L 284 31.5 L 220 94.5" style="stroke-width:0.7310in" transform="matrix(0.0025 0 0 -0.0025 5.5125 0)" id="path8860"/><path d="M 189 252 L 567 252 L 567 315 L 536 378 L 504 410 L 441 441 L 346 441 L 284 410 L 220 346 L 189 252 L 189 189 L 220 94.5 L 284 31.5 L 346 0 L 441 0 L 504 31.5 L 567 94.5" style="stroke-width:0.7310in" transform="matrix(0.0025 0 0 -0.0025 7.0075 0)" id="path8862"/><path d="M 220 441 L 220 0 M 220 252 L 252 346 L 315 410 L 378 441 L 472 441" style="stroke-width:0.7310in" transform="matrix(0.0025 0 0 -0.0025 8.425 0)" id="path8864"/><path d="M 662 504 L 630 567 L 567 630 L 504 662 L 378 662 L 315 630 L 252 567 L 220 504 L 189 410 L 189 252 L 220 158 L 252 94.5 L 315 31.5 L 378 0 L 504 0 L 567 31.5 L 630 94.5 L 662 158" style="stroke-width:0.7310in" transform="matrix(0.0025 0 0 -0.0025 10.395 0)" id="path8866"/><path d="M 220 662 L 220 0" style="stroke-width:0.7310in" transform="matrix(0.0025 0 0 -0.0025 12.05 0)" id="path8868"/><path d="M 189 662 L 220 630 L 252 662 L 220 693 L 189 662 M 220 441 L 220 0" style="stroke-width:0.7310in" transform="matrix(0.0025 0 0 -0.0025 12.68 0)" id="path8870"/><path d="M 410 662 L 346 662 L 284 630 L 252 536 L 252 0 M 158 441 L 378 441" style="stroke-width:0.7310in" transform="matrix(0.0025 0 0 -0.0025 13.31 0)" id="path8872"/><path d="M 410 662 L 346 662 L 284 630 L 252 536 L 252 0 M 158 441 L 378 441" style="stroke-width:0.7310in" transform="matrix(0.0025 0 0 -0.0025 14.255 0)" id="path8874"/><path d="M 536 346 L 504 410 L 410 441 L 315 441 L 220 410 L 189 346 L 220 284 L 284 252 L 441 220 L 504 189 L 536 126 L 536 94.5 L 504 31.5 L 410 0 L 315 0 L 220 31.5 L 189 94.5" style="stroke-width:0.7310in" transform="matrix(0.0025 0 0 -0.0025 15.2 0)" id="path8876"/></g></g></g></svg>