<?xml version="1.0" encoding="UTF-8" standalone="no"?>
<!-- Created with Inkscape (http://www.inkscape.org/) -->

<svg
   inkscape:export-ydpi="800"
   inkscape:export-xdpi="800"
   inkscape:export-filename="contours.png"
   sodipodi:docname="blue.svg"
   inkscape:version="1.2.2 (732a01da63, 2022-12-09)"
   xml:space="preserve"
   id="svg5"
   version="1.1"
   viewBox="0 0 216.683 130"
   height="130mm"
   width="216.683mm"
   xmlns:inkscape="http://www.inkscape.org/namespaces/inkscape"
   xmlns:sodipodi="http://sodipodi.sourceforge.net/DTD/sodipodi-0.dtd"
   xmlns="http://www.w3.org/2000/svg"
   xmlns:svg="http://www.w3.org/2000/svg"><sodipodi:namedview
     id="namedview7"
     pagecolor="#ffffff"
     bordercolor="#000000"
     borderopacity="0.25"
     inkscape:showpageshadow="2"
     inkscape:pageopacity="0.0"
     inkscape:pagecheckerboard="0"
     inkscape:deskcolor="#d1d1d1"
     inkscape:document-units="mm"
     showgrid="false"
     inkscape:zoom="1.5205622"
     inkscape:cx="284.43427"
     inkscape:cy="243.33105"
     inkscape:window-width="1920"
     inkscape:window-height="1009"
     inkscape:window-x="-8"
     inkscape:window-y="-8"
     inkscape:window-maximized="1"
     inkscape:current-layer="g1323" /><defs
     id="defs2"><rect
       x="172.52606"
       y="256.46393"
       width="37.086128"
       height="17.438618"
       id="rect7304" /><rect
       x="671.0144"
       y="592.40521"
       width="523.52087"
       height="143.44148"
       id="rect1220" /><rect
       x="652.37512"
       y="599.69885"
       width="497.58798"
       height="153.97673"
       id="rect1210" /><rect
       x="408.00595"
       y="373.62341"
       width="129.50751"
       height="58.450291"
       id="rect727" /><rect
       x="521.08966"
       y="372.78577"
       width="130.47502"
       height="71.315536"
       id="rect721" /><rect
       x="435.57776"
       y="323.85489"
       width="311.12698"
       height="139.30003"
       id="rect17003" /></defs><g
     inkscape:label="Layer 1"
     inkscape:groupmode="layer"
     id="layer1"
     transform="translate(67.4194,-70.9677)"><g
       id="g1323"
       style="stroke-width:0.550324;stroke-dasharray:none"
       transform="matrix(1.7849245,0,0,1.7849245,45.784553,-59.477181)"><path
         style="fill:none;stroke:#0000ff;stroke-width:0.275162;stroke-linecap:round;stroke-dashoffset:0"
         d="m 44.4233,84.345306 -0.4536,0.3117 m -0.4529,0.3111 -0.4531,0.3114 m -0.4537,0.3118 -0.4542,0.312 m -0.453,0.3113 -0.4542,0.3121 m -0.2611,0.1794 m -0.0598,0.2261 -0.1407,0.5324 m -0.1409,0.5329 -0.1406,0.5317 m -0.1406,0.5319 -0.1408,0.5325 m -0.1405,0.5318 -0.1407,0.5321 m -0.1406,0.5318 -0.1407,0.532 m -0.1406,0.532 -0.1404,0.531 m -0.059,0.2232 m -0.2867,0.1434 -0.4928,0.2464 m -0.4911,0.2455 -0.3229,0.1615 -0.189,0.0172 m -0.5475,0.0497 -0.548,0.0499 m -0.3089,0.0281 m -0.123,0.2074 -0.2805,0.4734 m -0.2804,0.4731 -0.2805,0.4734 m -0.1945,0.3283 m -0.1431,0.0885 -0.4678,0.2896 m -0.4681,0.2898 -0.4421,0.2737 -0.03,0.0058 m -0.5406,0.1046 -0.5401,0.1045 m -0.5404,0.1046 -0.5404,0.1046 m -0.0538,0.0104 m -0.2835,0.4052 -0.2673,0.3822 -0.025,0.0812 m -0.1619,0.526104 -0.1186,0.385604 c 0,0 0.0103,0.0587 0.0248,0.145004 m 0.0811,0.543408 c 0.0054,0.0482 0.0086,0.0879 0.0086,0.1136 v 0.436804 m 0,0.4797 m -0.0172,0.0679 -0.1354,0.53349 m -0.1356,0.5338 -0.1353,0.5329 m -0.0232,0.0915"
         id="path1225"
         sodipodi:nodetypes="ccccccccccscc" /><path
         style="fill:none;stroke:#0000ff;stroke-width:0.275162;stroke-linecap:round;stroke-dashoffset:0"
         d="m -47.2125,100.56773 -0.4675,0.2918 m -0.4675,0.2918 -0.4658,0.29089 m -0.4665,0.2911 -0.4671,0.2916 m -0.4668,0.2914 -0.4667,0.2913 m -0.4673,0.2917 -0.4674,0.2918 m -0.4655,0.2906 -0.2774,0.1731 -0.1585,0.1585 m -0.3892,0.3892 -0.3893,0.389 m -0.389,0.389 -0.195,0.195 -0.1198,0.247 m -0.24,0.494 -0.2408,0.496 m -0.24,0.494 -0.2408,0.496 m -0.1499,0.308 m -0.052,0.202 -0.1375,0.532 m -0.1374,0.533 -0.1377,0.534 m -0.1149,0.445 m -0.0052,0.089 -0.0323,0.548 m -0.0323,0.55 -0.0323,0.55 m -0.0324,0.549 -0.0103,0.176 -0.0776,0.366 m -0.1142,0.538 -0.114,0.538 m -0.1143,0.539 -0.087,0.41 -0.0742,0.109 m -0.3095,0.456 -0.3095,0.455 m -0.3088,0.455 -0.3091,0.456 m -0.3094,0.455 -0.3091,0.455 m -0.3091,0.456 -0.3091,0.455 m -0.3093,0.455 -0.3092,0.456 m -0.3088,0.455 -0.3092,0.455 m -0.1993,0.293 m -0.0874,0.175 -0.2463,0.493 m -0.2461,0.492 -0.1445,0.289 -0.128,0.187 m -0.3112,0.455 -0.3099,0.453 m -0.1925,0.281 m -0.0351,0.207 -0.0922,0.543 m -0.0922,0.543 -0.0921,0.542 m -0.0922,0.543 -0.0922,0.543 m -0.0919,0.541 -0.064,0.377 0.0808,0.147 m 0.2651,0.482 0.2651,0.482 m 0.1857,0.338 m 0.1006,0.131 c 0.0793,0.106 0.1977,0.265 0.3251,0.446 m 0.3076,0.455 c 0.109,0.171 0.2067,0.337 0.2722,0.477 m 0.081,0.229 m 0.0666,0.301 c 0.0384,0.154 0.0883,0.338 0.1418,0.53 m 0.1515,0.531 c 0.0601,0.206 0.1158,0.393 0.156,0.528 m 0.0635,0.21 m 0.2213,0.244 0.3704,0.407 m 0.1326,0.146 m 0.3328,0.119 0.5174,0.185 m 0.5191,0.185 0.5182,0.185 m 0.5181,0.185 0.5184,0.185 m 0.1181,0.043 m 0.3598,0.227 0.4654,0.294 m 0.465,0.293 0.086,0.055 0.3537,0.274 m 0.4349,0.338 0.4347,0.338 m 0.4338,0.337 0.4345,0.337 m 0.1961,0.152"
         id="path2071"
         sodipodi:nodetypes="ccccccccccccsccccc" /><path
         style="fill:none;stroke:#0000ff;stroke-width:0.275162;stroke-linecap:round;stroke-dashoffset:0"
         d="m -33.7756,102.49662 -0.1985,0.5132 m -0.1988,0.5137 -0.1985,0.5131 m -0.1985,0.5129 -0.1988,0.514 m -0.1981,0.512 -0.0976,0.252 -0.1183,0.255 m -0.2317,0.499 -0.2316,0.499 m -0.2317,0.499 -0.1283,0.276 c 0,0 -0.0701,0.062 -0.1841,0.162 m -0.4142,0.363 c -0.1309,0.115 -0.2729,0.239 -0.4147,0.363 m -0.4148,0.36 c -0.1662,0.144 -0.3134,0.27 -0.4179,0.358 m -0.0407,0.034 m -0.4072,0.287 c -0.1366,0.089 -0.2953,0.189 -0.4662,0.294 m -0.4716,0.283 c -0.158,0.093 -0.3186,0.186 -0.4757,0.275 m -0.4807,0.267 c -0.1848,0.1 -0.3525,0.187 -0.4896,0.252 m -0.3203,0.13 m -0.1908,0.071 c -0.1277,0.057 -0.2988,0.144 -0.4924,0.247 m -0.4829,0.265 c -0.159,0.089 -0.3212,0.181 -0.4786,0.271 m -0.4756,0.275 c -0.1929,0.112 -0.3586,0.21 -0.4742,0.279 m -0.174,0.103 m -0.1403,0.319 -0.2217,0.505 m -0.2212,0.503 -0.2215,0.504 m -0.2209,0.503 -0.0479,0.109 -0.3155,0.295 m -0.4026,0.376 -0.4018,0.375 m -0.402,0.375 -0.4021,0.375 m -0.1834,0.171 m -0.2653,0.14 -0.487,0.257 m -0.4868,0.257 -0.4871,0.256 m -0.4864,0.257 -0.4867,0.256 m -0.218,0.115 m -0.2935,0.078 -0.5315,0.142 m -0.5324,0.142 -0.5327,0.141 m -0.085,0.023"
         id="path2073"
         sodipodi:nodetypes="cccscccccc" /><path
         style="fill:none;stroke:#0000ff;stroke-width:0.275162;stroke-linecap:round;stroke-dashoffset:0"
         d="m -48.0034,116.38452 c 0,0 -0.1723,0.12 -0.4523,0.313 m -0.4536,0.313 c -0.1409,0.097 -0.2932,0.202 -0.4533,0.312 m -0.4534,0.311 c -0.1487,0.102 -0.3007,0.206 -0.4536,0.31 m -0.4557,0.31 c -0.154,0.105 -0.3066,0.208 -0.4553,0.309 m -0.4575,0.307 c -0.1636,0.11 -0.318,0.212 -0.4589,0.305 m -0.4623,0.299 c -0.1632,0.103 -0.2768,0.17 -0.323,0.188 -0.0385,0.016 -0.0927,0.04 -0.1587,0.072 m -0.4922,0.246 c -0.1565,0.081 -0.3245,0.169 -0.4887,0.255 m -0.4862,0.259 c -0.2765,0.148 -0.4747,0.255 -0.4747,0.255 l -0.0054,0.009 m -0.277,0.475 -0.2776,0.476 m -0.2768,0.474 -0.1772,0.304 -0.1599,0.12 m -0.4404,0.332 -0.4394,0.33 m -0.4395,0.331 -0.2532,0.19 -0.0963,0.213 m -0.227,0.501 -0.227,0.5 m -0.1214,0.268 m -0.0953,0.239 -0.2039,0.512 m -0.2034,0.511 -0.0903,0.227 -0.0122,0.304 m -0.0219,0.551 -0.022,0.551 m -10e-4,0.022 m -0.1145,0.514 c -0.0464,0.204 -0.0965,0.418 -0.1282,0.535 m -0.023,0.077 m -0.1843,0.432 c -0.0659,0.153 -0.1268,0.298 -0.142,0.351 -0.0071,0.025 -0.0364,0.081 -0.0779,0.154 m -0.2862,0.469 c -0.0916,0.144 -0.1643,0.257 -0.1643,0.257"
         id="path2075"
         sodipodi:nodetypes="csccccccssc" /><path
         style="fill:none;stroke:#0000ff;stroke-width:0.275162;stroke-linecap:round;stroke-dashoffset:0"
         d="m -10.6967,87.970706 -0.5476,-0.0475 m -0.5483,-0.0475 -0.5479,-0.0476 m -0.5482,-0.0475 -0.5489,-0.0476 m -0.5481,-0.0475 -0.436,-0.0378 -0.1137,0.0034 m -0.5506,0.0167 -0.5498,0.0167 m -0.5502,0.0166 -0.5492,0.0167 m -0.5405,0.1016 c -0.162,0.0375 -0.3494,0.084 -0.5333,0.1363 m -0.52,0.1748 c -0.1317,0.0548 -0.2366,0.1119 -0.2937,0.169 -0.0345,0.0345 -0.0876,0.0834 -0.1543,0.1434 m -0.4114,0.3642 c -0.13,0.1148 -0.2703,0.2396 -0.4102,0.3668 m -0.4015,0.3758 c -0.1473,0.1431 -0.2798,0.2796 -0.3809,0.3979 m -0.2445,0.4826 c -0.0392,0.1309 -0.0984,0.3132 -0.169,0.5245 m -0.1769,0.5213 c -0.0582,0.1699 -0.1189,0.3457 -0.1791,0.5198 m -0.1802,0.5204 c -0.066,0.1908 -0.1272,0.3684 -0.179,0.5203 m -0.1683,0.5232 c -0.0313,0.0988 -0.1022,0.2861 -0.1924,0.5156 m -0.2045,0.5109 c -0.0689,0.1698 -0.1401,0.3439 -0.2084,0.5101 m -0.2101,0.5086 c -0.1099,0.2646 -0.1854,0.4447 -0.1854,0.4447 l -0.0369,0.0568 m -0.2998,0.4612 -0.3001,0.4617 m -0.3001,0.4616 -0.0047,0.0073 -0.3956,0.3708 m -0.4006,0.3757 -0.3627,0.340004 c 0,0 -0.0097,0.0167 -0.0267,0.0462 m -0.2664,0.481908 c -0.0918,0.1734 -0.1837,0.357004 -0.2399,0.495904 m -0.1569,0.526208 c -0.0458,0.1567 -0.1005,0.341 -0.1561,0.5271 m -0.1583,0.52679 c -0.0882,0.2922 -0.1546,0.5104 -0.1546,0.5104 l -0.0061,0.0168 m -0.1879,0.5168 -0.1881,0.5172 m -0.1884,0.5181 -0.0089,0.0245 -0.1743,0.4937 m -0.183,0.5182 -0.0773,0.219 v 0.319 m 0,0.551 v 0.217 l 0.1979,0.268 m 0.3264,0.444 0.3258,0.442 m 0.3184,0.449 0.3105,0.455 m 0.3096,0.454 0.3103,0.455 m 0.3195,0.448 0.3203,0.448 m 0.3195,0.447 0.1287,0.181 v 0.329 m 0,0.55 v 0.135 l -0.0094,0.415"
         id="path2079"
         sodipodi:nodetypes="cccssscccsccccccccccccccccccccccccccccccccccccccccccccccccccccccccccccccccc" /><path
         style="fill:none;stroke:#0000ff;stroke-width:0.275162;stroke-linecap:round;stroke-dashoffset:0"
         d="m -5.54083,92.542606 -0.53258,-0.1418 m -0.53209,-0.1417 -0.53133,-0.1415 m -0.53135,-0.1415 -0.53231,-0.1418 m -0.53202,-0.1417 -0.53197,-0.1416 m -0.53157,-0.1416 -0.53225,-0.1417 m -0.5306,-0.1413 -0.5318,-0.1417 m -0.5308,-0.1413 -0.1273,-0.0339 -0.3067,-0.2852 m -0.4037,-0.3755 -0.2889,-0.2688 -0.1535,0.0168 m -0.5474,0.06 -0.4551,0.0499 0.0207,0.0897 m 0.1244,0.5367 0.0985,0.425 -0.046,0.1046 m -0.2217,0.5044 -0.2215,0.5039 m -0.1641,0.3736 m -0.1049,0.0963 c -0.0928,0.0857 -0.2386,0.2213 -0.4012,0.3766 m -0.3932,0.3836 c -0.1414,0.1418 -0.275,0.2809 -0.3789,0.3989 m -0.1062,0.1267 m -0.2617,0.2825 c -0.1287,0.1263 -0.2709,0.2573 -0.3955,0.3826 m -0.3014,0.3714 m -0.0306,0.0641 c -0.0527,0.1141 -0.132,0.3 -0.2177,0.5058 m -0.2096,0.5092 c -0.0874,0.2146 -0.1638,0.4044 -0.2057,0.5086 m -0.0339,0.0846 m 0.0742,0.4539 0.0889,0.5436 m 0.0887,0.5424 10e-5,7e-4 c 0.0204,0.1246 0.0501,0.3236 0.082,0.543104 m 0.0779,0.544508 c 0.0319,0.226604 0.0601,0.428404 0.0763,0.545208 m 0.0146,0.1055 m -0.2908,0.334204 -0.3615,0.4156 m -0.362,0.4159 -0.361,0.41499 m -0.2407,0.2766 m -0.1555,0.0957 -0.4682,0.2881 m -0.3179,0.1956 m -0.159,0.0791 c -0.1338,0.0732 -0.3207,0.1921 -0.4334,0.3356 m -0.0594,0.0923 m -0.1643,0.4084 c -0.0717,0.2021 -0.1378,0.4109 -0.1725,0.5228 m -0.0254,0.0828 m 0,0.4624 v 0.551 m 0,0.218 m 0,0.332 v 0.55 m 0,0.277 m -0.0039,0.273 -0.008,0.549 m -0.008,0.552 -0.0081,0.551 m -0.0023,0.161 m -0.0309,0.387 -0.0357,0.446 0.0114,0.103 m 0.0607,0.547 0.0606,0.546 m 0.0542,0.488 m 0.0259,0.054 0.2384,0.496 m 0.2382,0.496 0.1782,0.371 0.0628,0.123 m 0.25,0.49 0.2502,0.491 m 0.131,0.256"
         id="path2085"
         sodipodi:nodetypes="ccccccsscscccscccccccc" /><path
         style="fill:none;stroke:#0000ff;stroke-width:0.275162;stroke-linecap:round;stroke-dashoffset:0"
         d="m 27.4741,105.89652 -0.5477,0.049 m -0.5485,0.049 -0.5474,0.049 m -0.5476,0.049 -0.5473,0.048 m -0.5492,0.049 -0.5492,0.049 m -0.5481,0.049 -0.5474,0.049 m -0.5487,0.049 -0.5481,0.049 m -0.5488,0.049 -0.5489,0.049 m -0.2196,0.02 m -0.3282,0.013 c -0.1513,0.006 -0.3431,0.014 -0.5496,0.024 m -0.5492,0.029 c -0.1962,0.011 -0.386,0.023 -0.5489,0.036 m -0.4144,0.042 m -0.1334,0.022 c -0.1437,0.024 -0.3345,0.054 -0.5444,0.086 m -0.5449,0.078 c -0.1911,0.026 -0.3791,0.05 -0.5461,0.069 m -0.4765,0.035 m -0.0716,0.002 c -0.141,0.006 -0.3332,0.028 -0.5464,0.061 m -0.5402,0.101 c -0.1854,0.04 -0.3688,0.084 -0.5338,0.131 m -0.4085,0.14 m -0.1111,0.044 c -0.143,0.053 -0.3246,0.109 -0.5237,0.165 m -0.5335,0.137 c -0.1835,0.044 -0.3668,0.085 -0.5365,0.12 m -0.5402,0.102 c -0.0258,0.004 -0.0501,0.008 -0.0727,0.011 -0.1112,0.016 -0.2781,0.035 -0.4747,0.056 m -0.5477,0.053 c -0.18224,0.017 -0.36942,0.033 -0.54837,0.048 m -0.54825,0.041 c -0.18623,0.012 -0.33436,0.019 -0.41609,0.019 -0.029,0 -0.07426,0 -0.13298,-0.002 m -0.54953,-0.021 c -0.16813,-0.007 -0.3554,-0.015 -0.55012,-0.024 m -0.54991,-0.026 c -0.19005,-0.009 -0.37703,-0.018 -0.55068,-0.026 m -0.55044,-0.027 c -0.23006,-0.011 -0.37571,-0.018 -0.37571,-0.018 l -0.16327,0.06 m -0.51548,0.19 -0.51597,0.19 m -0.18145,0.067 m -0.29938,0.195 c -0.14584,0.093 -0.32107,0.203 -0.46829,0.289 m -0.17393,0.095 m -0.32243,0.143 c -0.15177,0.063 -0.33233,0.137 -0.50902,0.208 m -0.51061,0.202 c -0.15113,0.06 -0.25141,0.099 -0.25141,0.099 l -0.25003,0.13 m -0.488416,0.254 -0.488149,0.255 m -0.487929,0.254 -0.488363,0.254 m -0.487913,0.254 -0.4879,0.254 m -0.4879,0.254 -0.48808,0.254 m -0.48791,0.254 -0.48815,0.255 m -0.48726,0.253 -0.48852,0.255 m -0.22175,0.115"
         id="path2091"
         sodipodi:nodetypes="cccsscsccscc" /><path
         style="fill:none;stroke:#0000ff;stroke-width:0.275162;stroke-linecap:round;stroke-dashoffset:0"
         d="m 41.4668,78.131006 c 0,0 -0.2293,-0.0338 -0.5465,-0.0724 m -0.5458,-0.06 c -0.1852,-0.0178 -0.3739,-0.0331 -0.5486,-0.0421 m -0.5494,0.0017 c -0.091,0.0096 -0.1587,0.026 -0.1941,0.0513 -0.0624,0.0446 -0.1634,0.1167 -0.2841,0.2021 m -0.4512,0.3155 c -0.1646,0.1135 -0.3271,0.2232 -0.457,0.3063 m -0.2429,0.1404 m -0.2243,0.1477 c -0.124,0.0957 -0.2748,0.2238 -0.4235,0.3505 m -0.4231,0.3522 c -0.0126,0.0098 -0.0249,0.0192 -0.0366,0.028 -0.0916,0.0687 -0.2622,0.1237 -0.4705,0.1711 m -0.5402,0.1006 c -0.1842,0.0299 -0.3716,0.0583 -0.5441,0.0878 m -0.4692,0.0988 m -0.0677,0.0204 c -0.1728,0.0547 -0.3504,0.1302 -0.5103,0.2065 m -0.485,0.258 c -0.0526,0.0309 -0.0827,0.0497 -0.0827,0.0497 l -0.3954,0.2223 m -0.4807,0.2703 -0.2106,0.1184 -0.2502,0.1802 m -0.447,0.3219 -0.4462,0.3214 m -0.4465,0.3215 -0.4472,0.3221 m -0.4453,0.3206 -0.0193,0.0139 -0.4239,0.3146 m -0.4418,0.3278 -0.4421,0.328 m -0.4422,0.328 -0.1926,0.1429 -0.2671,0.1566 m -0.4752,0.2786 -0.4747,0.2783 m -0.4743,0.278 -0.1259,0.0738 c 0,0 -0.1208,0.1116 -0.2983,0.2746 m -0.4052,0.3707 c -0.1355,0.1235 -0.2763,0.2513 -0.4085,0.3702 m -0.4116,0.3647 c -0.0542,0.0468 -0.0996,0.085 -0.1331,0.1119 -0.0652,0.0521 -0.1725,0.1319 -0.3015,0.2256 m -0.4473,0.32 c -0.1567,0.1109 -0.3143,0.2215 -0.4504,0.3167 m -0.4001,0.2785 m -0.063,0.0033 -0.5498,0.0282 m -0.549,0.0281 -0.4452,0.0228 -0.1024,-0.0213 m -0.5381,-0.1121 -0.5384,-0.1121 m -0.5393,-0.1123 -0.1865,-0.0388 -0.3377,0.1222 m -0.5185,0.1878 -0.5167,0.187 m -0.1233,0.0447 m -0.3106,0.2836 -0.4063,0.3711 m -0.4052,0.37 -0.0659,0.0602 c 0,0 -0.1716,0.1179 -0.3702,0.2758 m -0.4099,0.3669 c -0.0801,0.0856 -0.1424,0.1676 -0.1702,0.2372 -0.0299,0.0747 -0.0704,0.1529 -0.1149,0.2287 m -0.3157,0.4508 c -0.0052,0.0064 -0.0081,0.0098 -0.0081,0.0098 l -0.4924,0.2145 m -0.5045,0.2199 -0.505,0.2199 m -0.5045,0.2199 -0.2062,0.0898 -0.0632,0.3201 m -0.1065,0.5394 -0.1064,0.539 m -0.1067,0.54 m -2e-4,4e-4 -0.2815,0.474 m -0.2806,0.4724 -0.2806,0.4724 m -0.2815,0.4739 -0.1478,0.249 -0.2201,0.1381 m -0.4671,0.2931 -0.3389,0.2127 c 0,0 -0.0406,0.0424 -0.1044,0.1083 m -0.38531,0.3932 c -0.15667,0.1572 -0.30537,0.3016 -0.36635,0.3474 -0.00985,0.0074 -0.02198,0.0158 -0.03606,0.0253 m -0.47401,0.2798 c -0.1848,0.1038 -0.34599,0.1913 -0.34599,0.1913 l -0.12655,0.0881 m -0.4525,0.314904 -0.04631,0.0322 -0.41001,0.275404 m -0.45695,0.306804 -0.06783,0.0456 -0.41594,0.217004 m -0.48798,0.254604 -0.39372,0.205404 -0.08933,0.0549 m -0.46935,0.2885 -0.46854,0.2879 m -0.04207,0.0259 m -0.41126,0.2867 -0.45128,0.31459 m -0.38817,0.2706 m -0.07438,0.018 -0.53557,0.1293 m -0.49753,0.1201 m -0.03565,0.0152 -0.50652,0.216 m -0.50558,0.2157 -0.506351,0.2159 m -0.506878,0.2162 -0.2085903,0.089 -0.2983277,0.1224 m -0.508552,0.2086 -0.510341,0.2094 m -0.50811,0.2085 -0.49294,0.2022 -0.01728,0.007 m -0.50976,0.2077 -0.5095,0.2076 m -0.50951,0.208 -0.50995,0.207 m -0.50986,0.208 -0.50906,0.207 m -0.13501,0.055 m -0.35168,0.2 -0.4786,0.271 m -0.47837,0.272 -0.47861,0.271 m -0.47886,0.272 -0.47883,0.271 m -0.47909,0.272 -0.47883,0.272 m -0.2798,0.158 m -0.17755,0.146 -0.42522,0.347 m -0.4266,0.349 -0.4261,0.349 m -0.4256,0.348 -0.0806,0.066 -0.3919,0.212 m -0.4841,0.262 -0.4834,0.261 m -0.4847,0.262 -0.3552,0.192 -0.1339,0.06 m -0.5013,0.225 -0.503,0.225 m -0.5023,0.225 -0.0834,0.038 -0.1282,0.44 m -0.1543,0.529 -0.1336,0.457 -0.0175,0.073 m -0.1297,0.535 -0.1294,0.533 m -0.1299,0.536 -0.069,0.285 -0.2044,0.153 m -0.4409,0.331 -0.4406,0.33 m -0.3408,0.256 m -0.1172,0.039 -0.5224,0.173 m -0.523,0.173 -0.5222,0.173 m -0.1012,0.034"
         id="path2298"
         sodipodi:nodetypes="ccccscccccscccccsscsccscccccccccccccccccc" /><path
         style="fill:none;stroke:#0000ff;stroke-width:0.275162;stroke-linecap:round;stroke-miterlimit:3.8;stroke-dashoffset:0"
         d="m 40.7954,81.945906 c 0,0 -0.2022,0.1271 -0.4603,0.3026 m -0.4494,0.3181 c -0.1596,0.1186 -0.3112,0.239 -0.4265,0.3459 m -0.2081,0.2621 m -0.0079,0.2115 c 0.0116,0.1031 0.0201,0.2197 -0.1204,0.5288 m -0.2536,0.4818 m -0.0025,0.0043 c -0.1021,0.1769 -0.1944,0.3343 -0.2784,0.4747 m -0.2886,0.468 c -0.1286,0.2003 -0.2303,0.3446 -0.3154,0.4522 m -0.1462,0.1665 m -0.2569,0.2032 c -0.1272,0.0924 -0.2854,0.2021 -0.4502,0.3152 m -0.4542,0.3113 c -0.1825,0.1258 -0.343,0.2385 -0.4426,0.316 -0.0021,0.0015 -0.0041,0.0031 -0.0062,0.0047 m -0.4906,0.2449 c -0.1543,0.0618 -0.3307,0.1251 -0.5172,0.1866 m -0.5257,0.1609 c -0.1821,0.0517 -0.3634,0.0989 -0.5338,0.139 m -0.5234,0.104 m -0.0158,0.0025 c -0.1446,0.0224 -0.3304,0.0617 -0.5393,0.1115 m -0.5337,0.1357 c -0.1744,0.0465 -0.3535,0.0961 -0.5299,0.1461 m -0.5284,0.1532 c -0.195,0.0576 -0.3749,0.1121 -0.5266,0.1587 m -0.4196,0.1325 m -0.1034,0.0386 c -0.1233,0.0493 -0.3023,0.1283 -0.5043,0.22 m -0.4991,0.2295 c -0.1732,0.0802 -0.3449,0.1601 -0.499,0.231 m -0.5042,0.2245 c -0.0104,0.0042 -0.02,0.0079 -0.0286,0.0111 -0.0913,0.0343 -0.2746,0.089 -0.495,0.1539 m -0.528,0.157 c -0.1846,0.0562 -0.367,0.1139 -0.5239,0.1688 m -0.4007,0.1695 m -0.0882,0.0724 c -0.0968,0.094 -0.2178,0.249 -0.3448,0.4287 m -0.3057,0.4579 c -0.1062,0.1664 -0.2063,0.3298 -0.2893,0.4679 m -0.194,0.3298 m -0.1153,0.1205 c -0.121,0.0931 -0.3058,0.1846 -0.4832,0.2608 m -0.509,0.1915 m -0.006,0.0011 c -0.039,0.0068 -0.2636,0.0464 -0.5399,0.1056 m -0.5358,0.1282 c -0.2036,0.0552 -0.3919,0.1161 -0.5183,0.1781 m -0.0803,0.0453 m -0.3986,0.2274 c -0.1485,0.0793 -0.3178,0.1674 -0.487,0.2557 m -0.4869,0.2578 c -0.2387,0.1299 -0.4218,0.2385 -0.4606,0.2902 -7e-4,9e-4 -0.0014,0.0018 -0.0021,0.0027 m -0.514,0.1846 c -0.1672,0.0469 -0.353,0.1013 -0.5238,0.1696 m -0.4649,0.2861 c -0.0236,0.0262 -0.0441,0.0537 -0.0609,0.0826 -0.0752,0.1289 -0.1383,0.2638 -0.1944,0.4031 m -0.1811,0.5185 c -0.0548,0.1727 -0.1084,0.3486 -0.169,0.5249 m -0.0284,0.0811 m -0.1838,0.4248 c -0.0824,0.1676 -0.1743,0.3353 -0.2612,0.4847 m -0.2922,0.4666 c -0.0102,0.0146 -0.0191,0.0269 -0.0266,0.0368 -0.0496,0.0663 -0.2285,0.1325 -0.4557,0.205 m -0.5256,0.1651 c -0.1529,0.0506 -0.3026,0.105 -0.4316,0.1646 -0.0267,0.0123 -0.0533,0.0244 -0.0798,0.0363 m -0.5081,0.211604 c -0.1619,0.0633 -0.3307,0.1265 -0.515,0.195804 m -0.5141,0.1957 c -0.0083,0.003 -0.0167,0.007 -0.0252,0.01 -0.1557,0.0606 -0.3232,0.117204 -0.494,0.170404 m -0.5293,0.1537 c -0.1877,0.0517 -0.3688,0.0997 -0.5316,0.144504 m -0.4691,0.1424 m -0.0549,0.0206 c -0.131,0.0504 -0.309,0.127004 -0.5074,0.215704 m -0.5,0.228204 c -0.1716,0.0795 -0.3427,0.1596 -0.4995,0.233 m -0.4383,0.2047 m -0.0591,0.0287 c -0.1328,0.0674 -0.2968,0.1681 -0.471,0.2824 m -0.45503,0.31019 c -0.16217,0.1135 -0.31771,0.2242 -0.45021,0.3169 m -0.35163,0.2306 m -0.12169,0.0444 c -0.14426,0.0416 -0.34695,0.0781 -0.53127,0.1397 m -0.42742,0.3036 m -0.0044,0.0102 c -0.05129,0.1238 -0.07176,0.3255 -0.07999,0.5419 m -0.00584,0.5509 c -8.8e-4,0.1928 -0.00542,0.3464 -0.03171,0.3989 -0.01506,0.0302 -0.05285,0.0654 -0.10645,0.1031 m -0.48871,0.2489 c -0.1744,0.0717 -0.35313,0.1307 -0.48515,0.1607 -0.01142,0.002 -0.02384,0.005 -0.0372,0.007 m -0.54843,0.029 c -0.1845,10e-4 -0.38059,-0.003 -0.55107,-0.008 m -0.46956,-0.018 m -0.0589,0.054 -0.40491,0.374 m -0.03264,0.03 m -0.20121,0.465 -0.219,0.505 m -0.07625,0.176 m -0.1693,0.315 c -0.07631,0.14 -0.17102,0.311 -0.26811,0.481 m -0.28331,0.472 c -0.08278,0.129 -0.15284,0.225 -0.19581,0.259 -0.03058,0.025 -0.09937,0.063 -0.19412,0.11 m -0.49971,0.231 c -0.16243,0.072 -0.33694,0.147 -0.50549,0.218 m -0.50804,0.213 c -0.17681,0.073 -0.30892,0.127 -0.354844,0.145 -0.023868,0.01 -0.081152,0.021 -0.163124,0.035 m -0.544324,0.074 c -0.17111,0.021 -0.3586925,0.043 -0.546283,0.064 m -0.547501,0.059 c -0.222074,0.023 -0.416364,0.043 -0.546834,0.056 m -0.1724,0.018 m -0.32913,0.187 -0.47775,0.273 m -0.47864,0.273 -0.47659,0.272 m -0.32955,0.188 m -0.13855,0.1 -0.44591,0.321 m -0.38258,0.276 m -0.0668,0.044 -0.45868,0.303 m -0.45948,0.304 -0.45893,0.303 m -0.23372,0.155 m -0.23189,0.138 c -0.12784,0.078 -0.29525,0.181 -0.46737,0.292 m -0.45614,0.306 c -0.13099,0.094 -0.2418,0.181 -0.31002,0.249 -0.03013,0.03 -0.07001,0.063 -0.11778,0.096 m -0.47719,0.276 c -0.15606,0.08 -0.32605,0.162 -0.49376,0.242 m -0.49411,0.24 c -0.17314,0.087 -0.31944,0.166 -0.41172,0.23 -0.02014,0.014 -0.04232,0.029 -0.06629,0.044 m -0.48255,0.263 c -0.1677,0.084 -0.3434,0.166 -0.4976,0.237 m -0.454,0.201 m -0.05,0.02 -0.5113,0.2 m -0.5134,0.2 -0.1606,0.063"
         id="path1187"
         sodipodi:nodetypes="csscsscssscssssscssscssccccscccccsscc" /><path
         style="fill:none;stroke:#0000ff;stroke-width:0.275162;stroke-linecap:round;stroke-miterlimit:3.8;stroke-dashoffset:0"
         d="m -15.9828,88.166306 -0.345,0.4279 m -0.3452,0.4284 -0.3453,0.4284 m -0.1738,0.2157 m -0.047,0.2701 c -0.0359,0.1623 -0.0954,0.3656 -0.1879,0.5147 m -0.1088,0.1318 m -0.3317,0.1795 c -0.1725,0.0699 -0.3589,0.1338 -0.4959,0.2352 m -0.1653,0.1963 m -0.0953,0.2737 c -0.0459,0.1546 -0.0935,0.3418 -0.1378,0.5322 m -0.1156,0.5385 c -0.0349,0.1775 -0.0607,0.3265 -0.0714,0.4123 -0.0041,0.0325 -0.0112,0.0771 -0.0207,0.1312 m -0.1055,0.54 c -0.036,0.1754 -0.0753,0.3627 -0.1122,0.5382 m -0.1125,0.5389 c -0.0147,0.0727 -0.0256,0.1285 -0.031,0.1611 -0.0095,0.0571 -0.0403,0.197 -0.0825,0.378 m -0.1282,0.5351 c -0.0448,0.1825 -0.0914,0.3682 -0.1341,0.5335 m -0.1479,0.5294 c -0.0013,0.0036 -0.0026,0.0069 -0.0038,0.0098 -0.0276,0.0692 -0.1155,0.2687 -0.2162,0.4951 m -0.2246,0.5018 c -0.0965,0.2149 -0.1702,0.3779 -0.1702,0.3779 v 0.135 m 0,0.550608 v 0.1546 c 0,0 -0.0754,0.165904 -0.1726,0.356908 m -0.2766,0.474904 c -0.0325,0.0426 -0.0617,0.0729 -0.0854,0.0847 -0.0591,0.0296 -0.2153,0.0934 -0.3934,0.169304 m -0.5005,0.2294 c -0.0979,0.0508 -0.1757,0.0981 -0.2136,0.136 -0.0395,0.0395 -0.1174,0.1148 -0.2125,0.2075 m -0.3914,0.3876 c -0.1713,0.17419 -0.3187,0.33339 -0.3508,0.39779 -0.0024,0.005 -0.0052,0.0105 -0.0083,0.017 m -0.218,0.5046 c -0.0747,0.1772 -0.1531,0.3649 -0.2121,0.5068 m -0.0963,0.2318 m -0.0331,0.2983 -0.0608,0.5471 m -0.0207,0.1857 m 0.1069,0.3473 0.162,0.5266 m 0.0367,0.119 m 0.3347,0.26 0.4351,0.339 m 0.2613,0.203 m 0.1371,0.172 0.3425,0.431 m 0.343,0.43 0.3423,0.431 m 0.213,0.267"
         id="path1193"
         sodipodi:nodetypes="ccssssscccssccccc" /><path
         style="fill:none;stroke:#0000ff;stroke-width:0.275162;stroke-linecap:round;stroke-miterlimit:3.8;stroke-dashoffset:0"
         d="m 22.6309,109.18352 -0.5498,0.023 m -0.5505,0.023 -0.5505,0.023 m -0.5487,0.023 -0.5494,0.023 m -0.5503,0.024 -0.2825,0.012 c 0,0 -0.1047,0.002 -0.2674,0.006 m -0.5509,0.013 c -0.1812,0.004 -0.3724,0.008 -0.5506,0.011 m -0.549,0.008 c -0.0247,0 -0.0474,0 -0.068,0 -0.1714,0 -0.3054,0 -0.4819,0.018 m -0.5441,0.086 c -0.1491,0.03 -0.3252,0.067 -0.5386,0.115 m -0.5346,0.124 -0.0012,0.001 c -0.1863,0.044 -0.3639,0.087 -0.5328,0.13 m -0.5329,0.138 c -0.1901,0.051 -0.3669,0.099 -0.5309,0.145 m -0.5291,0.15 c -0.205,0.058 -0.3816,0.109 -0.5314,0.148 m -0.207,0.052 m -0.329,0.07 c -0.1566,0.031 -0.3388,0.064 -0.5421,0.096 m -0.5448,0.08 c -0.1731,0.023 -0.3557,0.045 -0.546,0.065 m -0.54787,0.049 c -0.10388,0.008 -0.20937,0.016 -0.31624,0.022 -0.07322,0.005 -0.15096,0.009 -0.23253,0.013 m -0.55082,0.021 c -0.17617,0.006 -0.36073,0.011 -0.54928,0.015 m -0.55093,0.01 c -0.18465,0.003 -0.36906,0.006 -0.54931,0.008 m -0.5504,0.005 c -0.19725,0.001 -0.38298,0.002 -0.55075,0.003 m -0.55078,0.001 c -0.10056,10e-4 -0.17906,10e-4 -0.23055,10e-4 -0.05817,0 -0.16871,-0.012 -0.31737,-0.032 m -0.54443,-0.084 c -0.16804,-0.028 -0.35133,-0.059 -0.54264,-0.092 m -0.54096,-0.097 c -0.18087,-0.032 -0.36286,-0.066 -0.54062,-0.099 m -0.54205,-0.101 c -0.19821,-0.037 -0.38177,-0.072 -0.54104,-0.102 m -0.539589,-0.104 c -0.036725,-0.007 -0.056435,-0.01 -0.056435,-0.01"
         id="path1197"
         sodipodi:nodetypes="ccscccsc" /><path
         style="fill:none;stroke:#0000ff;stroke-width:0.275162;stroke-linecap:round;stroke-miterlimit:3.8;stroke-dashoffset:0"
         d="m -12.0154,93.358006 0.5462,0.0633 m 0.5462,0.0633 0.0262,0.003 0.5243,0.0395 m 0.282,0.0212 m 0.26586,-0.0169 0.54893,-0.035 m 0.5492,-0.035 0.04939,-0.0032 0.47755,-0.1542 m 0.52402,-0.1692 0.45073,-0.1456 0.07235,-0.0202 m 0.53028,-0.148 0.53131,-0.1484 m 0.28571,-0.0797 m 0.24594,-0.0571 c 0.15459,-0.0395 0.35593,-0.0977 0.52437,-0.1685 m 0.29966,-0.1905 m 0.10767,-0.1582 c 0.09179,-0.1435 0.19768,-0.3251 0.28108,-0.4717 m 0.14624,-0.2618 m -0.18928,-0.1656 c -0.12261,-0.1044 -0.28613,-0.2383 -0.43238,-0.3401 m -0.26998,-0.1481 m -0.23112,-0.0651 c -0.14371,-0.042 -0.33226,-0.0985 -0.52822,-0.1577 m -0.52584,-0.1597 c -0.28253,-0.0862 -0.49811,-0.1525 -0.49811,-0.1525 l -0.02769,-0.0119 m -0.50521,-0.2165 -0.29931,-0.1283 -0.16577,-0.153 m -0.40438,-0.3733 -0.2026,-0.187 -0.23928,-0.132 m -0.48202,-0.2658 -0.48263,-0.2662 m -0.05248,-0.0289"
         id="path1199"
         sodipodi:nodetypes="ccccccscscccc" /><path
         style="fill:none;stroke:#0000ff;stroke-width:0.275162;stroke-linecap:round;stroke-miterlimit:3.8;stroke-dashoffset:0"
         d="m -12.7349,93.257606 c 0,0 -0.2488,-0.0066 -0.5501,0.004 m -0.5478,0.0418 c -0.2503,0.0333 -0.4553,0.0892 -0.4952,0.1822 -0.0011,0.0026 -0.0022,0.0053 -0.0034,0.008 m -0.1948,0.5153 c -0.0589,0.1636 -0.1223,0.3438 -0.1828,0.5181 m -0.1776,0.5201 c -0.0049,0.0145 -0.0096,0.0287 -0.0142,0.0425 -0.0291,0.0873 -0.0402,0.2809 -0.0594,0.5028 m -0.0746,0.545 c -0.0348,0.1555 -0.0843,0.2939 -0.158,0.3869 -0.0279,0.0352 -0.0522,0.0704 -0.0733,0.1052 m -0.1455,0.5249 c -0.0049,0.1018 -0.0027,0.189 -0.0171,0.254 -0.0162,0.0728 -0.0059,0.1754 0.0204,0.2919 m 0.1738,0.5224 c 0.091,0.2243 0.1866,0.422104 0.2252,0.500204 m 0.0178,0.0355"
         id="path1201"
         sodipodi:nodetypes="cssssc" /><path
         style="fill:none;stroke:#0000ff;stroke-width:0.275162;stroke-linecap:round;stroke-miterlimit:3.8;stroke-dashoffset:0"
         d="m -14.4658,98.927914 c 0,0 0.2411,-0.004 0.5508,-0.0109 m 0.5498,-0.0151 c 0.2071,-0.007 0.4039,-0.0148 0.5488,-0.0241 m 0.1747,-0.0149 m 0.3741,-0.0278 c 0.0599,-0.002 0.1241,-0.003 0.1928,-0.003 0.1245,0 0.2444,0.007 0.3582,0.0174 m 0.5411,0.0894 c 0.3169,0.0744 0.5137,0.1605 0.5137,0.1605 0,0 0.0023,0.004 0.0065,0.0108 m 0.1957,0.510808 c 0.0193,0.133604 0.0038,0.265304 -0.0877,0.356804 -0.0336,0.0337 -0.0758,0.0722 -0.1238,0.113804 m -0.4295,0.3446 c -0.1782,0.1361 -0.3486,0.2607 -0.442,0.3284 m -0.0739,0.0533 m -0.4042,0.2163 c -0.1622,0.0918 -0.3399,0.19939 -0.4648,0.29449 m -0.1621,0.1766 m -0.1264,0.2788 c -0.0726,0.1382 -0.1685,0.3091 -0.2665,0.4813 m -0.2722,0.4773 c -0.0878,0.1552 -0.1547,0.2773 -0.1751,0.3284 -0.0119,0.0298 -0.0332,0.0895 -0.0606,0.1689 m -0.1748,0.5211 c -0.0593,0.1793 -0.1203,0.3652 -0.1716,0.5224 m -0.1276,0.392 m -0.0907,0.106 -0.357,0.418 m -0.3571,0.419 -0.3027,0.355 -0.0064,0.083 m -0.0422,0.549 -0.0278,0.361 0.0523,0.181 m 0.1525,0.53 0.1523,0.528 m 0.1524,0.529 0.1523,0.528 m 0.1521,0.528 0.146,0.506"
         id="path1203"
         sodipodi:nodetypes="csscscsscccc" /><path
         style="fill:none;stroke:#0000ff;stroke-width:0.275162;stroke-linecap:round;stroke-miterlimit:3.8;stroke-dashoffset:0"
         d="m -12.6723,102.05592 c 0,0.0484 0.0598,0.2595 0.1464,0.5292 m 0.1762,0.5216 c 0.0637,0.1804 0.1299,0.3595 0.1917,0.5153 m 0.2359,0.4801 m 0.0101,0.009 c 0.0627,0.0607 0.1526,0.2597 0.2382,0.4927 m 0.1693,0.525 c 0.0477,0.172 0.0789,0.318 0.0789,0.387 0,0.031 -0.0047,0.084 -0.0131,0.154 m -0.0843,0.544 c -0.0314,0.178 -0.0676,0.367 -0.1042,0.54 m -0.1358,0.532 c -0.0105,0.029 -0.0204,0.052 -0.0294,0.067 -0.0352,0.058 -0.0705,0.241 -0.1024,0.465 m -0.0652,0.545 c -0.0227,0.22 -0.0406,0.423 -0.0511,0.548 m -0.0104,0.129"
         id="path1205"
         sodipodi:nodetypes="csssc" /><path
         style="fill:none;stroke:#0000ff;stroke-width:0.275162;stroke-linecap:round;stroke-miterlimit:3.8;stroke-dashoffset:0"
         d="m -18.9268,101.88852 c 0,0 0.064,0.2233 0.1522,0.5294 m 0.1528,0.5286 c 0.0521,0.1801 0.1051,0.3626 0.1538,0.5291 m 0.1557,0.5266 c 0.0165,0.0543 0.0293,0.0953 0.0373,0.1192 0.022,0.0661 0.083,0.2131 0.1603,0.3931 m 0.2207,0.504 c 0.0849,0.191 0.1667,0.374 0.225,0.503 m 0.0858,0.19"
         id="path1207"
         sodipodi:nodetypes="csc" /><path
         style="fill:none;stroke:#0000ff;stroke-width:0.275162;stroke-linecap:round;stroke-miterlimit:3.8;stroke-dashoffset:0"
         d="m -17.417,105.85452 c 0,0 0.1169,0.199 0.2451,0.492 m 0.1932,0.516 c 0.015,0.049 0.0293,0.099 0.0425,0.149 0.0336,0.128 0.0612,0.259 0.0838,0.387 m 0.0726,0.546 c 0.0258,0.275 0.0296,0.475 0.0296,0.504 0,0.008 -0.0037,0.022 -0.0105,0.042 m -0.2296,0.501 c -0.0788,0.161 -0.1656,0.336 -0.2415,0.494 m -0.2011,0.461 m -0.0146,0.044 c -0.0386,0.102 -0.1339,0.286 -0.2448,0.493 m -0.262,0.484 c -0.1141,0.212 -0.2112,0.398 -0.2462,0.491 m -0.0054,0.016 m -0.1796,0.502 c -0.0591,0.162 -0.1255,0.344 -0.1891,0.517 m -0.1897,0.516 c -0.0502,0.136 -0.0824,0.224 -0.0824,0.224 0,0 -0.0571,0.117 -0.1299,0.284 m -0.2005,0.512 c -0.0602,0.18 -0.1045,0.352 -0.1045,0.473 0,0.021 -4e-4,0.043 -0.0011,0.066 m -0.0569,0.546 c -0.0269,0.179 -0.0613,0.367 -0.0993,0.542 m -0.1127,0.439 m -0.0324,0.091 c -0.0622,0.155 -0.1607,0.325 -0.2639,0.481 m -0.3225,0.445 c -0.0421,0.054 -0.074,0.094 -0.09,0.116 -0.0171,0.022 -0.0523,0.18 -0.1239,0.384 m -0.2274,0.501 c -0.0657,0.11 -0.1431,0.217 -0.2342,0.31 -0.0377,0.038 -0.0772,0.075 -0.118,0.11 m -0.4562,0.305 c -0.1938,0.103 -0.3771,0.174 -0.5033,0.218 m -0.1702,0.053"
         id="path1209"
         sodipodi:nodetypes="csssscsscsc" /><path
         style="fill:none;stroke:#0000ff;stroke-width:0.275162;stroke-linecap:round;stroke-miterlimit:3.8;stroke-dashoffset:0"
         d="m -42.4932,99.959226 0.2787,0.474804 m 0.2781,0.4738 0.2789,0.47519 m 0.139,0.2369 m 0.1,0.2569 0.1674,0.4304 c 0,0 0.0012,0.0328 0.0024,0.088 m -0.0071,0.5507 c -0.0106,0.2042 -0.0327,0.4115 -0.0768,0.5443 m -0.0331,0.0773 m -0.1845,0.4271 c -0.0679,0.1739 -0.1404,0.3609 -0.2123,0.5069 m -0.1761,0.25 m -0.2175,0.106 c -0.1401,0.064 -0.3241,0.143 -0.5056,0.219 m -0.5068,0.211 c -0.1113,0.046 -0.183,0.075 -0.183,0.075 0,0 -0.1374,0.075 -0.306,0.174 m -0.4629,0.297 c -0.0754,0.056 -0.1306,0.106 -0.1477,0.14 -0.0174,0.035 -0.0648,0.155 -0.1275,0.321 m -0.1924,0.516 c -0.0643,0.174 -0.1302,0.354 -0.1897,0.517 m -0.1884,0.517 c -0.0176,0.049 -0.0276,0.077 -0.0276,0.077 0,0 -0.1112,0.173 -0.2448,0.399 m -0.2682,0.482 c -0.0846,0.165 -0.1521,0.317 -0.1744,0.417 -0.0064,0.029 -0.0131,0.061 -0.0199,0.095 m -0.0982,0.541 c -0.0322,0.187 -0.0648,0.378 -0.095,0.542 m -0.0526,0.265 m -0.0532,0.274 c -0.0234,0.131 -0.052,0.296 -0.0992,0.542 m -0.1076,0.54 c -0.0324,0.157 -0.0699,0.336 -0.1135,0.538 m -0.1176,0.539 c -0.0062,0.028 -0.0125,0.056 -0.0189,0.085 l -0.02,0.461 m -0.0238,0.551 -8e-4,0.019 -0.129,0.515 m -0.1335,0.534 -0.0048,0.02 -0.1005,0.52 m -0.1046,0.54 -0.1046,0.541 m -0.0428,0.221"
         id="path1211"
         sodipodi:nodetypes="cccsscscsscccc" /><path
         style="fill:none;stroke:#0000ff;stroke-width:0.275162;stroke-linecap:round;stroke-miterlimit:3.8;stroke-dashoffset:0"
         d="m -50.1888,102.73622 c 0,0 0.1593,0.1822 0.3565,0.419 m 0.3466,0.4277 c 0.1311,0.1676 0.2495,0.328 0.322,0.4462 m 0.0694,0.1394 m 0.0969,0.382 c 0.0468,0.205 0.0869,0.417 0.0932,0.541 m 8e-4,0.031 m 0.0368,0.518 c 0.0124,0.187 0.0202,0.389 0.0081,0.55 m -0.0449,0.231 m -0.138,0.282 c -0.0825,0.156 -0.1827,0.332 -0.2747,0.477 m -0.1983,0.272 m -0.1556,0.147 c -0.1169,0.108 -0.269,0.248 -0.4008,0.376 m -0.2838,0.317 m -0.0465,0.115 c -0.0487,0.132 -0.1159,0.338 -0.1742,0.521 m -0.123,0.395 m -0.0238,0.135 c -0.023,0.132 -0.0592,0.341 -0.092,0.542 m -0.0751,0.545 v 0 0.551 m 0,0.55 v 0.083 c 0,0 0.0618,0.217 0.1373,0.446 m 0.2064,0.509 m 7e-4,10e-4 c 0.0512,0.068 0.2125,0.234 0.3771,0.4 m 0.3909,0.388 c 0.0222,0.021 0.0348,0.033 0.0348,0.033 l 0.3507,0.357 m 0.3865,0.392 0.0731,0.074 0.3704,0.249 m 0.4568,0.306 0.457,0.306 m 0.2706,0.181 m -0.0379,0.223 -0.0615,0.363 -0.1335,0.123 m -0.2608,0.241"
         id="path1213"
         sodipodi:nodetypes="cssssscscsccccc" /><path
         style="fill:none;stroke:#0000ff;stroke-width:0.275162;stroke-linecap:round;stroke-miterlimit:3.8;stroke-dashoffset:0"
         d="m -58.2317,125.66252 c 0,0 0.0026,0.249 0.1474,0.525 m 0.2914,0.367 m 0.0623,0.051 c 0.134,0.101 0.3004,0.19 0.4781,0.269 m 0.5131,0.198 c 0.1916,0.065 0.3739,0.122 0.5219,0.172 m 0.1109,0.038 m 0.4048,0.154 c 0.2107,0.084 0.369,0.153 0.5101,0.208 m 0.5259,0.158 c 0.0279,0.005 0.0568,0.01 0.0867,0.015 0.1164,0.018 0.2789,0.038 0.4595,0.058 m 0.5475,0.057 c 0.2047,0.02 0.399,0.038 0.5476,0.051 m 0.2785,0.025 m 0.27,0.018 0.5494,0.037 m 0.4178,0.029 m 0.1313,0.008 0.5483,0.038 m 0.5049,0.034"
         id="path1217"
         sodipodi:nodetypes="csssccc" /><path
         style="fill:none;stroke:#0000ff;stroke-width:0.275162;stroke-linecap:round;stroke-miterlimit:3.8;stroke-dashoffset:0"
         d="m -49.365,128.27252 c 0,0 0.2344,0.018 0.5364,0.118 m 0.4986,0.231 c 0.0587,0.037 0.1168,0.077 0.1733,0.121 0.0898,0.071 0.1807,0.139 0.2698,0.204 m 0.4526,0.315 c 0.2273,0.151 0.3851,0.245 0.3851,0.245 l 0.0839,0.04 m 0.4971,0.238 0.4955,0.237 m 0.2331,0.111 m 0.2318,0.177 0.4374,0.333 m 0.2783,0.212 m 0.1016,0.175 0.2762,0.476 m 0.1558,0.268"
         id="path1219"
         sodipodi:nodetypes="cscccc" /><path
         style="fill:none;stroke:#0000ff;stroke-width:0.275162;stroke-linecap:round;stroke-miterlimit:3.8;stroke-dashoffset:0"
         d="m -46.3875,100.24063 c 0,0 0.2239,-0.0409 0.5412,-0.0974 m 0.5421,-0.0955 c 0.1793,-0.0311 0.3646,-0.0629 0.542,-0.0926 m 0.5434,-0.0876 c 0.2194,-0.0334 0.3844,-0.055 0.4449,-0.055 0.0283,0 0.0627,-9e-4 0.102,-0.002 m 0.5485,-0.035 c 0.1936,-0.014 0.3922,-0.0284 0.5496,-0.0366 m 0.2041,-0.007 m 0.3411,-0.0542 c 0.1478,-0.0294 0.3302,-0.0643 0.544,-0.0877 m 0.5493,-0.0255 c 0.1708,0.003 0.354,0.0169 0.5488,0.0463 m 0.537,0.115904 c 0.0061,0.002 0.0121,0.003 0.0182,0.005 0.1873,0.0535 0.3536,0.1086 0.5039,0.1648 m 0.5055,0.2171 c 0.1769,0.0863 0.333,0.1731 0.4858,0.2583 m 0.4854,0.2589 c 0.1523,0.0739 0.3171,0.1447 0.5084,0.2107 m 0.1573,0.0513 m 0.3687,0.1098 c 0.1967,0.0565 0.3708,0.1033 0.5302,0.1448 m 0.5327,0.13689 c 0.179,0.0468 0.3495,0.0942 0.5297,0.1524 m 0.226,0.0772 m 0.287,0.1229 c 0.1574,0.0766 0.3178,0.1674 0.4838,0.2635 m 0.4767,0.2724 c 0.1574,0.0862 0.321,0.1699 0.4926,0.2449 m 0.5178,0.1862 c 0.0214,0.006 0.0428,0.0117 0.0644,0.0173 0.1653,0.0424 0.3214,0.0833 0.4671,0.1216 m 0.5323,0.1398 c 0.2303,0.0597 0.4122,0.1048 0.5352,0.1282 m 0.1667,0.0154 m 0.2745,-0.2643 c 0.1189,-0.1257 0.2618,-0.2697 0.4063,-0.3694 m 0.2913,-0.1224 m 0.2294,-0.0181 c 0.1635,-0.0136 0.3438,-0.029 0.549,-0.0412 m 0.5503,-0.0205 c 0.0594,-9e-4 0.1205,-10e-4 0.1835,-10e-4 0.1045,0 0.2296,0.002 0.3665,0.007 m 0.5499,0.0223 c 0.188,0.009 0.3769,0.0192 0.5502,0.0291 m 0.549,0.0333 c 0.122,0.008 0.1955,0.0128 0.1955,0.0128"
         id="path1277"
         sodipodi:nodetypes="csssssssssc" /><path
         style="fill:none;stroke:#0000ff;stroke-width:0.275162;stroke-linecap:round;stroke-miterlimit:3.8;stroke-dashoffset:0"
         d="m -10.6204,100.22513 0.3659,0.4114 m 0.36565,0.4111 0.36577,0.41119 m 0.07454,0.0838 m 0.41438,0.1429 0.51996,0.1793 m 0.28461,0.0981 m 0.22656,0.1059 c 0.14925,0.0694 0.34496,0.1598 0.49981,0.2289 m 0.19834,0.0855 m 0.29105,0.1642 c 0.1476,0.0926 0.3186,0.2066 0.45935,0.3021 m 0.28398,0.1955 m -0.0017,0.2062 -0.00453,0.5499 m -0.00454,0.5514 -0.00453,0.549 m -0.00366,0.444"
         id="path2785"
         sodipodi:nodetypes="cccccc" /><path
         style="fill:none;stroke:#0000ff;stroke-width:0.275162;stroke-linecap:round;stroke-miterlimit:3.8;stroke-dashoffset:0"
         d="m 14.7737,91.529106 -0.5306,-0.1476 m -0.5296,-0.1474 -0.5306,-0.1476 m -0.5302,-0.1475 -0.5302,-0.1474 m -0.0025,-8e-4 m -0.5448,0.0454 -0.5482,0.0456 m -0.016,0.0013 m -0.1039,0.5252 -0.1067,0.5398 m -0.0804,0.407 m -0.0613,0.1209 c -0.0647,0.1179 -0.1777,0.2996 -0.325,0.4408 m -0.2082,0.1516 m -0.26277,0.1288 c -0.14794,0.0716 -0.3238,0.156 -0.49539,0.2381 m -0.49784,0.2372 c -0.1388,0.066 -0.23003,0.1092 -0.23003,0.1092 l -0.29172,-0.0407 m -0.5451,-0.0762 -0.54588,-0.0763 m -0.54445,-0.076 -0.09391,-0.0132 c 0,0 -0.19929,-0.0637 -0.43382,-0.1396 m -0.52209,-0.1706 c -0.11784,-0.0393 -0.20281,-0.0685 -0.21809,-0.0761 -0.01689,-0.0085 -0.1382,-0.0445 -0.30695,-0.0925 m -0.52964,-0.147 c -0.19665,-0.0536 -0.38988,-0.1053 -0.5316,-0.1417 m -0.20705,-0.0498 m -0.3331,-0.0552 c -0.19043,-0.0314 -0.39774,-0.0675 -0.48424,-0.0934 -0.01509,-0.0045 -0.0334,-0.0088 -0.05456,-0.0128 m -0.54658,-0.0625 c -0.1373,-0.0149 -0.28333,-0.0333 -0.42425,-0.0584 -0.04389,-0.0079 -0.08397,-0.0152 -0.12119,-0.0222 m -0.54069,-0.0961 c -0.09616,-0.0138 -0.21116,-0.0283 -0.36351,-0.0452 -0.060604,-0.0067 -0.121971,-0.0133 -0.18382,-0.0196 m -0.547142,-0.0508 c -0.1886041,-0.0159 -0.374107,-0.03 -0.548704,-0.0424 m -0.310434,-0.021 m -0.238644,-0.0096 c -0.193736,-0.0038 -0.377996,0.0011 -0.550306,0.0012 m -0.42963,-0.0212 m -0.1174,-0.0269 c -0.12612,-0.0358 -0.31119,-0.102 -0.51942,-0.182 m -0.51073,-0.2033 c -0.17818,-0.0729 -0.35339,-0.1463 -0.5073,-0.2114 m -0.50579,-0.217 c -0.01021,-0.0045 -0.01557,-0.0068 -0.01557,-0.0068"
         id="path2787"
         sodipodi:nodetypes="ccccsccccccccsc" /><path
         style="fill:none;stroke:#0000ff;stroke-width:0.275162;stroke-linecap:round;stroke-miterlimit:3.8;stroke-dashoffset:0"
         d="m -45.1241,100.47273 0.3379,0.4337 m 0.3381,0.43419 0.3381,0.4339 m 0.1931,0.2479 m 0.0764,0.2239 0.178,0.5212 m 0.1778,0.5206 0.0246,0.072 -0.1314,0.4559 m -0.146,0.5065 m -0.007,0.021 -0.174,0.522 m -0.1743,0.523 -0.0525,0.158"
         id="path1954"
         sodipodi:nodetypes="ccccc" /><path
         style="fill:none;stroke:#0000ff;stroke-width:0.275162;stroke-linecap:round;stroke-miterlimit:3.8;stroke-dashoffset:0"
         d="m 30.4692,97.128606 -0.5096,-0.2052 m -0.5102,-0.2055 -0.5119,-0.2061 m -0.2552,-0.1028 m -0.2199,-0.1649 -0.4404,-0.3304 m -0.2625,-0.1968 m -0.2025,-0.0912 -0.5022,-0.2259 m -0.2181,-0.0982 m -0.3073,-0.0461 -0.5445,-0.0817 m -0.0711,-0.0106 m -0.471,-0.0785 -0.3595,-0.0599 -0.134,-0.1302 m -0.3945,-0.3832 -0.2209,-0.2147 -0.0855,-0.2265 m -0.1941,-0.5152 -0.1943,-0.5153 m -0.0399,-0.1059"
         id="path2010"
         sodipodi:nodetypes="cccccccc" /><path
         style="opacity:1;fill:none;fill-opacity:1;stroke:#0000ff;stroke-width:0.275162;stroke-linecap:round;stroke-miterlimit:3.8;stroke-dashoffset:0;stroke-opacity:1"
         d="m 26.1907,90.364506 c 0,0 -0.2506,-0.0358 -0.5469,-0.0561 m -0.5509,-0.0081 c -0.18,0.0118 -0.3255,0.0438 -0.3787,0.1104 -0.0278,0.0347 -0.0618,0.0704 -0.1002,0.1064 m -0.4414,0.3278 c -0.1154,0.0726 -0.221,0.1316 -0.289,0.1656 -0.0369,0.0185 -0.1053,0.0536 -0.1933,0.0983 m -0.4931,0.2448 c -0.1764,0.0847 -0.3564,0.1672 -0.5024,0.2252 m -0.2415,0.0777 m -0.2919,0.0518 c -0.1549,0.0279 -0.3463,0.0622 -0.542,0.0956 m -0.5437,0.0866 c -0.1813,0.0258 -0.3341,0.0428 -0.4219,0.0428 h -0.1251 m -0.5498,0 h -0.5515 m -0.5495,0 h -0.0236 c 0,0 -0.2283,-0.013 -0.5255,-0.0293 m -0.5494,-0.0294 c -0.206,-0.0106 -0.4029,-0.0203 -0.5496,-0.0265 m -0.2212,-0.0071 m -0.3279,-0.0348 c -0.1531,-0.0203 -0.3437,-0.0478 -0.5451,-0.0779 m -0.5434,-0.083 c -0.2045,-0.0318 -0.3954,-0.0621 -0.544,-0.0858 m -0.3025,-0.0486"
         id="path7090"
         sodipodi:nodetypes="csssscsc" /><path
         style="opacity:1;fill:none;fill-opacity:1;stroke:#0000ff;stroke-width:0.275162;stroke-linecap:round;stroke-miterlimit:3.8;stroke-dashoffset:0;stroke-opacity:1"
         d="m 37.7721,100.14643 -0.5502,0.0275 m -0.3727,0.0186 m -0.177,0 h -0.5493 m -0.4733,0 m -0.0705,-0.0305 c -0.0948,-0.0412 -0.2777,-0.1208 -0.5035,-0.220504 m -0.504,-0.2242 c -0.1657,-0.0745 -0.3363,-0.151804 -0.5004,-0.227404 m -0.4981,-0.234904 c -0.1794,-0.0872 -0.3263,-0.162704 -0.4151,-0.216004 -0.0226,-0.0135 -0.0462,-0.0275 -0.0708,-0.0418 M 32.6056,98.72871 c -0.1614,-0.0879 -0.3286,-0.178 -0.4828,-0.263004 m -0.4751,-0.276 c -0.0428,-0.0276 -0.0783,-0.0524 -0.1047,-0.0735 -0.0696,-0.0557 -0.1896,-0.1576 -0.3233,-0.2728 m -0.4148,-0.3607 c -0.1585,-0.1386 -0.277,-0.2432 -0.277,-0.2432"
         id="path7092"
         sodipodi:nodetypes="cccssc" /><path
         style="opacity:1;fill:none;fill-opacity:1;stroke:#0000ff;stroke-width:0.275162;stroke-linecap:round;stroke-miterlimit:3.8;stroke-dashoffset:0;stroke-opacity:1"
         d="m 41.4633,78.460206 c 0,0 0.0181,0.2884 -0.0022,0.5497 m -0.09,0.3731 m -0.0723,0.1458 c -0.0526,0.1341 -0.1095,0.3294 -0.1593,0.5266 m -0.1162,0.5364 c -0.0136,0.0796 -0.0214,0.1415 -0.0214,0.1754 0,0.0638 -0.0275,0.2048 -0.0484,0.3716 m -0.0043,0.547 c 0.026,0.1398 0.0827,0.2594 0.1911,0.3272 0.0415,0.0259 0.0888,0.0518 0.1407,0.0778 m 0.5072,0.2129 c 0.1693,0.0641 0.3473,0.1281 0.5163,0.1921 m 0.4969,0.2093 m 0.0083,0.0043 c 0.0927,0.0495 0.2401,0.1776 0.4194,0.3533 m 0.3836,0.394 c 0.1203,0.1277 0.2462,0.2643 0.3733,0.404 m 0.3695,0.4093 c 0.1268,0.1413 0.2508,0.2801 0.3677,0.4104 m 0.3698,0.4086 c 0.1853,0.2015 0.3243,0.3444 0.3846,0.3846 l 0.0042,0.0028 m 0.4416,0.3275 c 0.1279,0.0968 0.2763,0.2097 0.4379,0.333 m 0.437,0.3338 c 0.1424,0.1088 0.2892,0.2211 0.4368,0.334 m 0.4369,0.3338 c 0.1503,0.1147 0.2976,0.227 0.4379,0.3337 m 0.4394,0.3328 c 0.1768,0.1332 0.3286,0.2465 0.4425,0.3296 m 0.0848,0.0613 m 0.319,0.3082 c 0.1076,0.1239 0.2224,0.271 0.3405,0.4318 m 0.3168,0.4495 c 0.1027,0.1507 0.2055,0.3052 0.306,0.4579 m 0.3015,0.4601 c 0.1091,0.1665 0.2121,0.3225 0.3052,0.4587 m 0.3314,0.4398 c 0.0145,0.0152 0.028,0.0284 0.0405,0.0393 0.0822,0.0719 0.2193,0.1804 0.3853,0.3072 m 0.4414,0.3305 c 0.147,0.1084 0.2986,0.2188 0.4437,0.3234 m 0.4486,0.3194 c 0.1705,0.1196 0.301,0.2084 0.3573,0.2422 0.0257,0.0154 0.0577,0.0394 0.0946,0.0703 m 0.3933,0.3853 c 0.1217,0.1292 0.2496,0.2714 0.3687,0.4086 m 0.3515,0.4244 c 0.0134,0.0173 0.026,0.0338 0.0377,0.0494 0.0728,0.097 0.1614,0.2449 0.2526,0.4162 m 0.241,0.4953 c 0.0797,0.1791 0.1512,0.357 0.2033,0.511 m 0.0875,0.377 m -0.001,0.1628 c -0.0029,0.1634 -0.0137,0.3619 -0.054,0.5463 m -0.2514,0.4782 c -0.0054,0.0043 -0.0109,0.0084 -0.0166,0.0124 -0.0955,0.0683 -0.2638,0.1527 -0.469,0.2437 m -0.5073,0.2114 c -0.1703,0.0677 -0.3457,0.1352 -0.5133,0.1989 m -0.5153,0.1953 c -0.0245,0.0094 -0.0484,0.0185 -0.0714,0.0274 -0.1289,0.0496 -0.2812,0.1012 -0.4468,0.1537 m -0.5266,0.1581 c -0.1768,0.051 -0.3567,0.1015 -0.5306,0.1501 m -0.5301,0.149404 c -0.0988,0.0284 -0.1906,0.0555 -0.2729,0.0808 -0.0656,0.0202 -0.1533,0.0409 -0.2585,0.062 m -0.5431,0.0913 c -0.1697,0.025 -0.3542,0.05 -0.5459,0.0746 m -0.5457,0.0668 c -0.1836,0.0216 -0.3677,0.0425 -0.5464,0.0625 m -0.5472,0.0604 c -0.205,0.0225 -0.3909,0.0428 -0.5458,0.0603 m -0.251,0.0296 m -0.2961,0.0303 c -0.1617,0.0139 -0.3475,0.0265 -0.5489,0.0383 m -0.5497,0.0284 c -0.1792,0.008 -0.3638,0.0162 -0.5492,0.0236 m -0.5501,0.0213 c -0.1886,0.007 -0.3733,0.0138 -0.5491,0.0205 m -0.5499,0.022 -0.006,2e-4 c -0.1798,0.008 -0.3623,0.0143 -0.5444,0.0202 m -0.5509,0.0164 c -0.1878,0.005 -0.3721,0.011 -0.5494,0.0174 m -0.5507,0.0246 c -0.2024,0.0116 -0.3873,0.0259 -0.5476,0.0446 m -0.1177,0.0152 m -0.4279,0.0622 c -0.1719,0.0256 -0.358,0.0545 -0.5434,0.0857 m -0.5412,0.100196 c -0.2103,0.0437 -0.3971,0.0897 -0.5323,0.1366 m -0.17,0.0767 m -0.244,0.268504 c -0.0971,0.1287 -0.206,0.2882 -0.3128,0.4518 m -0.2934,0.4653 c -0.1501,0.24499 -0.2572,0.42939 -0.2572,0.42939 l -0.0482,0.009 m -0.5407,0.0984 -0.5411,0.0983 m -0.5428,0.0987 -0.3574,0.065 c 0,0 -0.0721,0.005 -0.1878,0.013 m -0.5496,0.0356 c -0.1832,0.0111 -0.3763,0.0221 -0.5486,0.0303 m -0.4212,0.0134 m -0.1288,0.002 c -0.1447,0.004 -0.3401,0.0134 -0.5503,0.0267 m -0.5488,0.0419 c -0.2102,0.0191 -0.4044,0.0408 -0.5459,0.0636 m -0.2102,0.0504 m -0.3122,0.1172 c -0.1562,0.0534 -0.346,0.1152 -0.5222,0.1715 m -0.5243,0.1648 c -0.0166,0.005 -0.0256,0.008 -0.0256,0.008 l -0.3567,0.3841 m -0.3742,0.4031 -0.3748,0.4036 m -0.0939,0.1011 m -0.232,0.3414 c -0.0879,0.129 -0.195,0.285 -0.3108,0.453 m -0.3146,0.452 c -0.109,0.155 -0.2178,0.308 -0.3191,0.448 m -0.3303,0.44 c -0.0693,0.087 -0.1229,0.148 -0.1543,0.173 -0.0604,0.048 -0.1397,0.125 -0.2331,0.217 m -0.3962,0.381 c -0.135,0.123 -0.28,0.245 -0.428,0.346 m -0.1885,0.117 m -0.2917,0.151 c -0.1421,0.071 -0.3108,0.154 -0.4931,0.243 m -0.4936,0.243 c -0.1647,0.081 -0.3312,0.164 -0.492,0.245 m -0.4887,0.253 c -0.1919,0.103 -0.3578,0.197 -0.4782,0.275 m -0.0312,0.02 m -0.4167,0.3 c -0.1362,0.101 -0.2852,0.214 -0.4405,0.329 m -0.445,0.325 c -0.1535,0.108 -0.3075,0.213 -0.4563,0.307 m -0.4783,0.269 c -0.0734,0.035 -0.1433,0.063 -0.2086,0.085 -0.0791,0.027 -0.1829,0.064 -0.3055,0.111 m -0.5127,0.202 c -0.1602,0.064 -0.3323,0.134 -0.5104,0.207 m -0.5079,0.21 c -0.1701,0.071 -0.3406,0.142 -0.5068,0.212 m -0.5082,0.214 c -0.1859,0.079 -0.358,0.151 -0.5078,0.215 m -0.4704,0.198 m -0.0353,0.015 c -0.1328,0.054 -0.3104,0.122 -0.5129,0.197 m -0.5169,0.187 c -0.1708,0.062 -0.3467,0.124 -0.5195,0.185 m -0.5195,0.183 c -0.1964,0.069 -0.3746,0.132 -0.5186,0.183 m -0.0535,0.019 m -0.4691,0.158 c -0.1539,0.051 -0.331,0.109 -0.5232,0.171 m -0.5247,0.168 c -0.1707,0.055 -0.3465,0.111 -0.5233,0.167 m -0.5239,0.167 c -0.1798,0.057 -0.3562,0.113 -0.5244,0.167 m -0.5242,0.167 c -0.2068,0.066 -0.3861,0.124 -0.5242,0.169 m -0.15412,0.05 m -0.3727,0.105 c -0.15405,0.039 -0.3358,0.082 -0.53501,0.127 m -0.53737,0.116 c -0.17602,0.038 -0.35759,0.075 -0.53954,0.112 m -0.54093,0.106 c -0.18771,0.036 -0.3701,0.07 -0.54109,0.101 m -0.54259,0.094 c -0.26925,0.043 -0.46611,0.07 -0.54345,0.07 H 5.79422 m -0.54883,-0.04 c -0.16869,-0.017 -0.35742,-0.036 -0.54623,-0.057 m -0.54745,-0.061 c -0.24275,-0.028 -0.4444,-0.052 -0.54574,-0.064 m -0.07047,-0.009 m -0.39504,-0.272 c -0.13668,-0.091 -0.2977,-0.195 -0.46456,-0.296 m -0.48152,-0.268 c -0.19762,-0.098 -0.3772,-0.167 -0.50452,-0.179 -0.00397,0 -0.00798,-0.001 -0.01203,-0.001 m -0.54736,-0.062 c -0.170966,-0.021 -0.35736,-0.044 -0.545548,-0.066 m -0.545824,-0.06 c -0.204928,-0.02 -0.394611,-0.035 -0.548445,-0.04 m -0.107839,-0.002 m -0.442374,-0.027 c -0.169,-0.017 -0.35603,-0.041 -0.54619,-0.066 m -0.54497,-0.078 c -0.2022,-0.029 -0.3906,-0.057 -0.5449,-0.078 m -0.22861,-0.028 m -0.31683,-0.048 c -0.16227,-0.029 -0.34805,-0.067 -0.54043,-0.106 m -0.54048,-0.101 c -0.19787,-0.034 -0.38583,-0.058 -0.54481,-0.066 m -0.08765,-0.002 m -0.44592,0.114 c -0.15382,0.061 -0.32386,0.143 -0.49702,0.236 m -0.47708,0.274 c -0.16721,0.103 -0.32555,0.206 -0.4621,0.299 m -0.42493,0.323 m -0.01081,0.011 c -0.11314,0.116 -0.22714,0.274 -0.36919,0.409 m -0.47507,0.263 c -0.02202,0.004 -0.04459,0.007 -0.06775,0.009 -0.0989,0.01 -0.26989,0.024 -0.47979,0.04 m -0.54933,0.041 c -0.18044,0.013 -0.36759,0.026 -0.54903,0.038 m -0.54865,0.035 c -0.2497,0.016 -0.4501,0.027 -0.5492,0.03 m -0.0463,0.001 m -0.5038,-0.012 c -0.1761,-0.005 -0.3722,-0.011 -0.5501,-0.016 m -0.5496,-0.018 h -0.0114 l -0.5338,0.079 m -0.5446,0.081 -0.1675,0.024 -0.3764,0.058 m -0.2234,0.035"
         id="path7094" /><path
         style="opacity:1;fill:none;fill-opacity:1;stroke:#0000ff;stroke-width:0.275162;stroke-linecap:round;stroke-miterlimit:3.8;stroke-dashoffset:0;stroke-opacity:1"
         d="m -8.73799,93.663606 0.53007,0.146 m 0.53133,0.1463 0.53046,0.146 m 0,0 m 0.52744,0.1577 c 0.18819,0.0564 0.38789,0.1165 0.52736,0.1591 m 0.16794,0.0524 m 0.35553,0.1159 c 0.15139,0.0492 0.33541,0.1091 0.52347,0.1705 m 0.52203,0.1712 c 0.22834,0.0753 0.41501,0.1377 0.49074,0.1653 0.00892,0.0032 0.0195,0.0069 0.03161,0.0109 m 0.52831,0.1506 c 0.16497,0.044 0.34932,0.0915 0.53264,0.1368 m 0.53527,0.1254 c 0.23061,0.0502 0.41588,0.0838 0.49466,0.0838 0.01405,0 0.03043,-1e-4 0.04887,-3e-4 m 0.55109,-0.0121 c 0.18657,-0.0042 0.384026,-0.0079 0.550416,-0.0081 m 0.395341,0.0205 m 0.144128,0.0498 c 0.116861,0.0387 0.2981186,0.0978 0.522326,0.1725 m 0.520774,0.1761 c 0.164372,0.0565 0.338895,0.1173 0.518915,0.1815 m 0.51823,0.1889 c 0.17164,0.064 0.34423,0.13 0.51412,0.1971 m 0.10253,0.0408 m 0.40447,0.1729 c 0.17317,0.0781 0.34205,0.159 0.49645,0.2355 m 0.48968,0.2517 c 0.15172,0.0808 0.24405,0.1327 0.24405,0.1327"
         id="path7096"
         sodipodi:nodetypes="ccsssssc" /><path
         style="opacity:1;fill:none;fill-opacity:1;stroke:#0000ff;stroke-width:0.275162;stroke-linecap:round;stroke-miterlimit:3.8;stroke-dashoffset:0;stroke-opacity:1"
         d="m 4.27375,97.585606 c 0,0 0.20469,0.1602 0.44272,0.3258 m 0.43396,0.274 m 0.03224,0.0174 c 0.17076,0.0928 0.32514,0.1903 0.47753,0.2753 m 0.43612,0.191804 m 0.06971,0.0208 c 0.14773,0.0455 0.34163,0.1139 0.51914,0.183704 m 0.47239,0.2338 m 0.01105,0.0174 c 0.04235,0.0745 0.1281,0.295598 0.20525,0.509898 m 0.15282,0.464808 m 0.01264,0.0581 c 0.02607,0.1166 0.07875,0.347 0.1047,0.541 m -0.00198,0.3006 m -0.08185,0.23179 c -0.05333,0.1715 -0.11574,0.3896 -0.16493,0.526 m -0.05314,0.1189 m -0.22897,0.3523 c -0.07589,0.1207 -0.14016,0.2245 -0.14016,0.2245 0,0 -0.06387,0.1277 -0.13423,0.2512 m -0.11954,0.1871 m -0.24039,0.2226 c -0.14382,0.1226 -0.31647,0.2624 -0.42558,0.3489 m -0.09536,0.0745 m -0.35189,0.246 c -0.15526,0.1074 -0.32913,0.2271 -0.45238,0.3119 m -0.16317,0.1118"
         id="path7098"
         sodipodi:nodetypes="ccccssscscc" /><path
         style="opacity:1;fill:none;fill-opacity:1;stroke:#0000ff;stroke-width:0.275162;stroke-linecap:round;stroke-miterlimit:3.8;stroke-dashoffset:0;stroke-opacity:1"
         d="m -0.870963,110.68952 -0.531117,-0.14 m -0.53229,-0.141 -0.50538,-0.134 c 0,0 -0.00776,-0.007 -0.02154,-0.018 m -0.45613,-0.304 c -0.0285,-0.013 -0.05434,-0.021 -0.07603,-0.024 -0.11039,-0.016 -0.30703,-0.075 -0.45727,-0.111 m -0.16563,-0.028 m -0.38131,-0.038 c -0.15558,-0.02 -0.31215,-0.043 -0.38001,-0.054 -0.03488,-0.006 -0.09319,-0.02 -0.16091,-0.039 m -0.48507,-0.146 m -0.03821,-0.022 c -0.08237,-0.048 -0.28512,-0.164 -0.48098,-0.269 m -0.4267,-0.193 m -0.07616,-0.02 c -0.11852,-0.041 -0.31494,-0.13 -0.50695,-0.217 m -0.47813,-0.201 m -0.02987,-0.009 c -0.16313,-0.049 -0.33808,-0.097 -0.5328,-0.136 m -0.22172,-0.04 m -0.32269,-0.03 c -0.17811,-0.009 -0.37739,-0.013 -0.5509,-0.015 m -0.30301,-10e-4 m -0.24798,0 h -0.55018 m -0.14772,0 m -0.40145,0 h -0.0138"
         id="path7100" /><path
         style="opacity:1;fill:none;fill-opacity:1;stroke:#0000ff;stroke-width:0.275162;stroke-linecap:round;stroke-miterlimit:3.8;stroke-dashoffset:0;stroke-opacity:1"
         d="m -23.6887,111.54852 c 0,0 0.1496,0.211 0.3187,0.449 m 0.3194,0.448 c 0.0746,0.105 0.1304,0.182 0.1473,0.205 0.0205,0.027 0.0774,0.127 0.1514,0.257 m 0.2807,0.472 c 0.114,0.18 0.2218,0.329 0.2831,0.355 0.0227,0.01 0.0514,0.023 0.0841,0.038 m 0.4874,0.255 c 0.0662,0.039 0.1186,0.075 0.1437,0.1 0.0348,0.034 0.1581,0.118 0.3056,0.217 m 0.4566,0.308 c 0.0835,0.06 0.1504,0.11 0.1837,0.144 0.053,0.053 0.1466,0.126 0.2432,0.203 m 0.3336,0.327 m 0.0221,0.075 c 0.0479,0.139 0.1552,0.393 0.2052,0.51 m 0.0264,0.061"
         id="path7102"
         sodipodi:nodetypes="ccssssc" /><text
         xml:space="preserve"
         transform="matrix(0.14560647,0,0,0.14560647,-67.419355,70.967743)"
         id="text17001"
         style="font-size:11.3386px;font-family:Arial;-inkscape-font-specification:Arial;text-align:center;direction:rtl;text-orientation:sideways;white-space:pre;shape-inside:url(#rect17003);display:inline;fill:none;stroke:#ff00f4;stroke-width:0.755906;stroke-linecap:round;stroke-miterlimit:3.8;stroke-dasharray:none;stroke-opacity:1" /></g><text
       xml:space="preserve"
       transform="matrix(0.25989689,0,0,0.25989689,-74.554114,70.369983)"
       id="text719"
       style="font-size:11.3386px;font-family:Arial;-inkscape-font-specification:Arial;text-align:center;direction:rtl;text-orientation:sideways;white-space:pre;shape-inside:url(#rect721);display:inline;fill:none;stroke:#ff00f4;stroke-width:0.755906;stroke-linecap:round;stroke-miterlimit:3.8;stroke-dasharray:3.77952, 3.77952" /><text
       xml:space="preserve"
       transform="matrix(0.25989689,0,0,0.25989689,-74.554114,70.369983)"
       id="text725"
       style="font-size:11.3386px;font-family:Arial;-inkscape-font-specification:Arial;text-align:center;direction:rtl;text-orientation:sideways;white-space:pre;shape-inside:url(#rect727);display:inline;fill:none;stroke:#ff00f4;stroke-width:0.755906;stroke-linecap:round;stroke-miterlimit:3.8;stroke-dasharray:3.77952, 3.77952" /></g></svg>
