<?xml version="1.0" encoding="UTF-8" standalone="no"?>
<!-- Created with Inkscape (http://www.inkscape.org/) -->

<svg
   inkscape:export-ydpi="800"
   inkscape:export-xdpi="800"
   inkscape:export-filename="contours.png"
   sodipodi:docname="text.svg"
   inkscape:version="1.2.2 (732a01da63, 2022-12-09)"
   xml:space="preserve"
   id="svg5"
   version="1.1"
   viewBox="0 0 216.683 130"
   height="130mm"
   width="216.683mm"
   xmlns:inkscape="http://www.inkscape.org/namespaces/inkscape"
   xmlns:sodipodi="http://sodipodi.sourceforge.net/DTD/sodipodi-0.dtd"
   xmlns="http://www.w3.org/2000/svg"
   xmlns:svg="http://www.w3.org/2000/svg"><sodipodi:namedview
     id="namedview7"
     pagecolor="#ffffff"
     bordercolor="#000000"
     borderopacity="0.25"
     inkscape:showpageshadow="2"
     inkscape:pageopacity="0.0"
     inkscape:pagecheckerboard="0"
     inkscape:deskcolor="#d1d1d1"
     inkscape:document-units="mm"
     showgrid="false"
     inkscape:zoom="1.5205622"
     inkscape:cx="271.93889"
     inkscape:cy="243.33105"
     inkscape:window-width="1920"
     inkscape:window-height="1009"
     inkscape:window-x="-8"
     inkscape:window-y="-8"
     inkscape:window-maximized="1"
     inkscape:current-layer="g17572" /><defs
     id="defs2"><rect
       x="172.52606"
       y="256.46393"
       width="37.086128"
       height="17.438618"
       id="rect7304" /><rect
       x="671.0144"
       y="592.40521"
       width="523.52087"
       height="143.44148"
       id="rect1220" /><rect
       x="652.37512"
       y="599.69885"
       width="497.58798"
       height="153.97673"
       id="rect1210" /><rect
       x="408.00595"
       y="373.62341"
       width="129.50751"
       height="58.450291"
       id="rect727" /><rect
       x="521.08966"
       y="372.78577"
       width="130.47502"
       height="71.315536"
       id="rect721" /><rect
       x="435.57776"
       y="323.85489"
       width="311.12698"
       height="139.30003"
       id="rect17003" /></defs><g
     inkscape:label="Layer 1"
     inkscape:groupmode="layer"
     id="layer1"
     transform="translate(67.4194,-70.9677)"><g
       id="g1323"
       style="stroke-width:0.550324;stroke-dasharray:none"
       transform="matrix(1.7849245,0,0,1.7849245,45.784553,-59.477181)"><text
         xml:space="preserve"
         transform="matrix(0.14560647,0,0,0.14560647,-67.419355,70.967743)"
         id="text17001"
         style="font-size:11.3386px;font-family:Arial;-inkscape-font-specification:Arial;text-align:center;direction:rtl;text-orientation:sideways;white-space:pre;shape-inside:url(#rect17003);display:inline;fill:none;stroke:#ff00f4;stroke-width:0.755906;stroke-linecap:round;stroke-miterlimit:3.8;stroke-dasharray:none;stroke-opacity:1" /></g><g
       inkscape:label="Hershey Text"
       style="fill:none;stroke:#000000;stroke-width:0.550324;stroke-linecap:round;stroke-linejoin:round;stroke-dasharray:none"
       id="g17572"
       transform="matrix(1.78492,0,0,1.78492,31.7789,-51.557968)"><text
         xml:space="preserve"
         transform="matrix(0.14823223,0,0,0.14823223,-55.575608,72.795241)"
         id="text1208"
         style="font-size:9.44882px;font-family:Arial;-inkscape-font-specification:Arial;text-align:center;direction:rtl;text-orientation:sideways;white-space:pre;shape-inside:url(#rect1210);display:inline;fill:none;stroke:#000000;stroke-width:0.275906;stroke-linecap:round;stroke-miterlimit:3.8" /><text
         xml:space="preserve"
         transform="matrix(0.14823223,0,0,0.14823223,-55.575608,72.795241)"
         id="text1218"
         style="font-size:9.44882px;font-family:Arial;-inkscape-font-specification:Arial;text-align:center;direction:rtl;text-orientation:sideways;white-space:pre;shape-inside:url(#rect1220);display:inline;fill:none;stroke:#000000;stroke-width:0.275906;stroke-linecap:round;stroke-miterlimit:3.8" /><text
         xml:space="preserve"
         style="font-style:normal;font-variant:normal;font-weight:normal;font-stretch:normal;font-size:1.40062px;font-family:Arial;-inkscape-font-specification:'Arial, Normal';font-variant-ligatures:normal;font-variant-caps:normal;font-variant-numeric:normal;font-variant-east-asian:normal;text-align:center;direction:rtl;text-orientation:sideways;text-anchor:middle;fill:none;stroke:#ff00ff;stroke-width:0.280123;stroke-linecap:round;stroke-miterlimit:3.8;stroke-dasharray:none;stroke-opacity:1"
         x="-44.339626"
         y="139.38394"
         id="text7310"><tspan
           sodipodi:role="line"
           id="tspan7308"
           style="stroke-width:0.280124;stroke:#ff00ff;stroke-opacity:1"
           x="-44.339626"
           y="139.38394" /></text><g
         inkscape:label="Hershey Text"
         style="fill:none;stroke:#000000;stroke-linecap:round;stroke-linejoin:round"
         id="g13766"
         transform="translate(-4.0943864)"><g
           transform="translate(-49.2088,136.366)"
           id="g13764"><path
             d="M 220,662 V 0 M 662,662 V 0 M 220,346 h 442"
             style="stroke-width:1.116in"
             transform="scale(0.00140062,-0.00140062)"
             id="path13740" /><path
             d="M 567,441 V 0 m 0,346 -63,64 -63,31 H 346 L 284,410 220,346 189,252 V 189 L 220,94.5 284,31.5 346,0 h 95 l 63,31.5 63,63"
             style="stroke-width:1.116in"
             transform="matrix(0.00140062,0,0,-0.00140062,0.97063,0)"
             id="path13742" /><path
             d="M 220,441 V 0 m 0,315 95,95 63,31 h 94 l 64,-31 31,-95 V 0 m 0,315 95,95 62,31 h 95 l 63,-31 32,-95 V 0"
             style="stroke-width:1.116in"
             transform="matrix(0.00140062,0,0,-0.00140062,1.8082,0)"
             id="path13744" /><path
             d="m 220,441 v -661 m 0,566 64,64 62,31 h 95 l 63,-31 63,-64 31,-94 V 189 L 567,94.5 504,31.5 441,0 h -95 l -62,31.5 -64,63"
             style="stroke-width:1.116in"
             transform="matrix(0.00140062,0,0,-0.00140062,3.13179,0)"
             id="path13746" /><path
             d="M 252,662 V 126 L 284,31.5 346,0 h 64 M 158,441 h 220"
             style="stroke-width:1.116in"
             transform="matrix(0.00140062,0,0,-0.00140062,3.96936,0)"
             id="path13748" /><path
             d="M 346,441 284,410 220,346 189,252 V 189 L 220,94.5 284,31.5 346,0 h 95 l 63,31.5 63,63 31,94.5 v 63 l -31,94 -63,64 -63,31 h -95"
             style="stroke-width:1.116in"
             transform="matrix(0.00140062,0,0,-0.00140062,4.49879,0)"
             id="path13750" /><path
             d="M 220,441 V 0 m 0,315 95,95 63,31 h 94 l 64,-31 31,-95 V 0"
             style="stroke-width:1.116in"
             transform="matrix(0.00140062,0,0,-0.00140062,5.33636,0)"
             id="path13752" /><path
             d="M 220,662 V 0 m 0,0 h 378"
             style="stroke-width:1.116in"
             transform="matrix(0.00140062,0,0,-0.00140062,6.70337,0)"
             id="path13754" /><path
             d="M 346,441 284,410 220,346 189,252 V 189 L 220,94.5 284,31.5 346,0 h 95 l 63,31.5 63,63 31,94.5 v 63 l -31,94 -63,64 -63,31 h -95"
             style="stroke-width:1.116in"
             transform="matrix(0.00140062,0,0,-0.00140062,7.4541,0)"
             id="path13756" /><path
             d="M 567,662 V 0 m 0,346 -63,64 -63,31 H 346 L 284,410 220,346 189,252 V 189 L 220,94.5 284,31.5 346,0 h 95 l 63,31.5 63,63"
             style="stroke-width:1.116in"
             transform="matrix(0.00140062,0,0,-0.00140062,8.29167,0)"
             id="path13758" /><path
             d="M 567,441 V -63 l -31,-95 -32,-31 -63,-31 h -95 l -62,31 m 283,535 -63,64 -63,31 H 346 L 284,410 220,346 189,252 V 189 L 220,94.5 284,31.5 346,0 h 95 l 63,31.5 63,63"
             style="stroke-width:1.116in"
             transform="matrix(0.00140062,0,0,-0.00140062,9.12924,0)"
             id="path13760" /><path
             d="m 189,252 h 378 v 63 l -31,63 -32,32 -63,31 H 346 L 284,410 220,346 189,252 V 189 L 220,94.5 284,31.5 346,0 h 95 l 63,31.5 63,63"
             style="stroke-width:1.116in"
             transform="matrix(0.00140062,0,0,-0.00140062,9.96681,0)"
             id="path13762" /></g></g><g
         inkscape:label="Hershey Text"
         style="fill:none;stroke:#000000;stroke-linecap:round;stroke-linejoin:round"
         id="g13790"
         transform="translate(-2.8270763,0.68239774)"><g
           transform="translate(-31.5452,112.372)"
           id="g13788"><path
             d="m 662,504 -32,63 -63,63 -63,32 H 378 L 315,630 252,567 220,504 189,410 V 252 l 31,-94 32,-63.5 63,-63 L 378,0 h 126 l 63,31.5 63,63 32,63.5"
             style="stroke-width:1.116in"
             transform="scale(0.00140062,-0.00140062)"
             id="path13768" /><path
             d="M 567,441 V 0 m 0,346 -63,64 -63,31 H 346 L 284,410 220,346 189,252 V 189 L 220,94.5 284,31.5 346,0 h 95 l 63,31.5 63,63"
             style="stroke-width:1.116in"
             transform="matrix(0.00140062,0,0,-0.00140062,0.92721,0)"
             id="path13770" /><path
             d="m 536,346 -32,64 -94,31 h -95 l -95,-31 -31,-64 31,-62 64,-32 157,-32 63,-31 32,-63 V 94.5 L 504,31.5 410,0 h -95 l -95,31.5 -31,63"
             style="stroke-width:1.116in"
             transform="matrix(0.00140062,0,0,-0.00140062,1.76478,0)"
             id="path13772" /><path
             d="M 252,662 V 126 L 284,31.5 346,0 h 64 M 158,441 h 220"
             style="stroke-width:1.116in"
             transform="matrix(0.00140062,0,0,-0.00140062,2.51551,0)"
             id="path13774" /><path
             d="M 220,662 V 0"
             style="stroke-width:1.116in"
             transform="matrix(0.00140062,0,0,-0.00140062,3.04495,0)"
             id="path13776" /><path
             d="m 189,252 h 378 v 63 l -31,63 -32,32 -63,31 H 346 L 284,410 220,346 189,252 V 189 L 220,94.5 284,31.5 346,0 h 95 l 63,31.5 63,63"
             style="stroke-width:1.116in"
             transform="matrix(0.00140062,0,0,-0.00140062,3.3979,0)"
             id="path13778" /><path
             d="M 220,662 V 0 m 0,662 h 284 l 94,-32 32,-32 32,-62 V 441 L 630,378 598,346 504,315 H 220"
             style="stroke-width:1.116in"
             transform="matrix(0.00140062,0,0,-0.00140062,4.72149,0)"
             id="path13780" /><path
             d="m 189,252 h 378 v 63 l -31,63 -32,32 -63,31 H 346 L 284,410 220,346 189,252 V 189 L 220,94.5 284,31.5 346,0 h 95 l 63,31.5 63,63"
             style="stroke-width:1.116in"
             transform="matrix(0.00140062,0,0,-0.00140062,5.6487,0)"
             id="path13782" /><path
             d="M 567,441 V 0 m 0,346 -63,64 -63,31 H 346 L 284,410 220,346 189,252 V 189 L 220,94.5 284,31.5 346,0 h 95 l 63,31.5 63,63"
             style="stroke-width:1.116in"
             transform="matrix(0.00140062,0,0,-0.00140062,6.44285,0)"
             id="path13784" /><path
             d="M 220,662 V 0 M 536,441 220,126 M 346,252 567,0"
             style="stroke-width:1.116in"
             transform="matrix(0.00140062,0,0,-0.00140062,7.28042,0)"
             id="path13786" /></g></g><g
         inkscape:label="Hershey Text"
         style="fill:none;stroke:#000000;stroke-linecap:round;stroke-linejoin:round"
         id="g13806"><g
           transform="translate(-40.7999,94.178)"
           id="g13804"><path
             d="m 662,504 -32,63 -63,63 -63,32 H 378 L 315,630 252,567 220,504 189,410 V 252 l 31,-94 32,-63.5 63,-63 L 378,0 h 126 l 63,31.5 63,63 32,63.5"
             style="stroke-width:1.116in"
             transform="scale(0.00140062,-0.00140062)"
             id="path13792" /><path
             d="M 220,662 V 0 m 0,315 95,95 63,31 h 94 l 64,-31 31,-95 V 0"
             style="stroke-width:1.116in"
             transform="matrix(0.00140062,0,0,-0.00140062,0.92721,0)"
             id="path13794" /><path
             d="M 567,441 V 0 m 0,346 -63,64 -63,31 H 346 L 284,410 220,346 189,252 V 189 L 220,94.5 284,31.5 346,0 h 95 l 63,31.5 63,63"
             style="stroke-width:1.116in"
             transform="matrix(0.00140062,0,0,-0.00140062,1.76478,0)"
             id="path13796" /><path
             d="m 189,662 31,-32 32,32 -32,31 -31,-31 M 220,441 V 0"
             style="stroke-width:1.116in"
             transform="matrix(0.00140062,0,0,-0.00140062,2.60235,0)"
             id="path13798" /><path
             d="M 220,441 V 0 m 0,252 32,94 63,64 63,31 h 94"
             style="stroke-width:1.116in"
             transform="matrix(0.00140062,0,0,-0.00140062,2.95531,0)"
             id="path13800" /><path
             d="M 504,662 189,220 H 662 M 504,662 V 0"
             style="stroke-width:1.116in"
             transform="matrix(0.00140062,0,0,-0.00140062,4.059,0)"
             id="path13802" /></g></g><g
         inkscape:label="Hershey Text"
         style="fill:none;stroke:#000000;stroke-linecap:round;stroke-linejoin:round"
         id="g13832"
         transform="translate(-4.5818134)"><g
           transform="translate(-2.11866,113.639)"
           id="g13830"><path
             d="M 220,662 V 0 M 220,662 472,0 M 724,662 472,0 M 724,662 V 0"
             style="stroke-width:1.116in"
             transform="scale(0.00140062,-0.00140062)"
             id="path13808" /><path
             d="m 189,662 31,-32 32,32 -32,31 -31,-31 M 220,441 V 0"
             style="stroke-width:1.116in"
             transform="matrix(0.00140062,0,0,-0.00140062,1.05887,0)"
             id="path13810" /><path
             d="M 567,662 V 0 m 0,346 -63,64 -63,31 H 346 L 284,410 220,346 189,252 V 189 L 220,94.5 284,31.5 346,0 h 95 l 63,31.5 63,63"
             style="stroke-width:1.116in"
             transform="matrix(0.00140062,0,0,-0.00140062,1.41182,0)"
             id="path13812" /><path
             d="M 189,441 315,0 M 441,441 315,0 M 441,441 567,0 M 693,441 567,0"
             style="stroke-width:1.116in"
             transform="matrix(0.00140062,0,0,-0.00140062,2.2494,0)"
             id="path13814" /><path
             d="M 567,441 V 0 m 0,346 -63,64 -63,31 H 346 L 284,410 220,346 189,252 V 189 L 220,94.5 284,31.5 346,0 h 95 l 63,31.5 63,63"
             style="stroke-width:1.116in"
             transform="matrix(0.00140062,0,0,-0.00140062,3.22003,0)"
             id="path13816" /><path
             d="M 158,441 346,0 M 536,441 346,0 l -62,-126 -64,-63 -62,-31 h -32"
             style="stroke-width:1.116in"
             transform="matrix(0.00140062,0,0,-0.00140062,4.0576,0)"
             id="path13818" /><path
             d="M 220,662 V 0 m 0,0 h 378"
             style="stroke-width:1.116in"
             transform="matrix(0.00140062,0,0,-0.00140062,5.29294,0)"
             id="path13820" /><path
             d="M 346,441 284,410 220,346 189,252 V 189 L 220,94.5 284,31.5 346,0 h 95 l 63,31.5 63,63 31,94.5 v 63 l -31,94 -63,64 -63,31 h -95"
             style="stroke-width:1.116in"
             transform="matrix(0.00140062,0,0,-0.00140062,6.04368,0)"
             id="path13822" /><path
             d="M 567,662 V 0 m 0,346 -63,64 -63,31 H 346 L 284,410 220,346 189,252 V 189 L 220,94.5 284,31.5 346,0 h 95 l 63,31.5 63,63"
             style="stroke-width:1.116in"
             transform="matrix(0.00140062,0,0,-0.00140062,6.88125,0)"
             id="path13824" /><path
             d="M 567,441 V -63 l -31,-95 -32,-31 -63,-31 h -95 l -62,31 m 283,535 -63,64 -63,31 H 346 L 284,410 220,346 189,252 V 189 L 220,94.5 284,31.5 346,0 h 95 l 63,31.5 63,63"
             style="stroke-width:1.116in"
             transform="matrix(0.00140062,0,0,-0.00140062,7.71882,0)"
             id="path13826" /><path
             d="m 189,252 h 378 v 63 l -31,63 -32,32 -63,31 H 346 L 284,410 220,346 189,252 V 189 L 220,94.5 284,31.5 346,0 h 95 l 63,31.5 63,63"
             style="stroke-width:1.116in"
             transform="matrix(0.00140062,0,0,-0.00140062,8.55639,0)"
             id="path13828" /></g></g><g
         inkscape:label="Hershey Text"
         style="fill:none;stroke:#000000;stroke-linecap:round;stroke-linejoin:round"
         id="g13848"
         transform="translate(-2.4371348,-1.5597663)"><g
           transform="translate(-2.59917,118.924)"
           id="g13846"><path
             d="m 662,504 -32,63 -63,63 -63,32 H 378 L 315,630 252,567 220,504 189,410 V 252 l 31,-94 32,-63.5 63,-63 L 378,0 h 126 l 63,31.5 63,63 32,63.5"
             style="stroke-width:1.116in"
             transform="scale(0.00140062,-0.00140062)"
             id="path13834" /><path
             d="M 220,662 V 0 m 0,315 95,95 63,31 h 94 l 64,-31 31,-95 V 0"
             style="stroke-width:1.116in"
             transform="matrix(0.00140062,0,0,-0.00140062,0.92721,0)"
             id="path13836" /><path
             d="M 567,441 V 0 m 0,346 -63,64 -63,31 H 346 L 284,410 220,346 189,252 V 189 L 220,94.5 284,31.5 346,0 h 95 l 63,31.5 63,63"
             style="stroke-width:1.116in"
             transform="matrix(0.00140062,0,0,-0.00140062,1.76478,0)"
             id="path13838" /><path
             d="m 189,662 31,-32 32,32 -32,31 -31,-31 M 220,441 V 0"
             style="stroke-width:1.116in"
             transform="matrix(0.00140062,0,0,-0.00140062,2.60235,0)"
             id="path13840" /><path
             d="M 220,441 V 0 m 0,252 32,94 63,64 63,31 h 94"
             style="stroke-width:1.116in"
             transform="matrix(0.00140062,0,0,-0.00140062,2.95531,0)"
             id="path13842" /><path
             d="m 284,536 62,31 95,95 V 0"
             style="stroke-width:1.116in"
             transform="matrix(0.00140062,0,0,-0.00140062,4.059,0)"
             id="path13844" /></g></g><g
         inkscape:label="Hershey Text"
         style="fill:none;stroke:#000000;stroke-linecap:round;stroke-linejoin:round"
         id="g13872"
         transform="translate(0.19497078,2.0471932)"><g
           transform="translate(5.56953,74.8374)"
           id="g13870"><path
             d="M 158,662 315,0 M 472,662 315,0 M 472,662 630,0 M 788,662 630,0"
             style="stroke-width:1.116in"
             transform="scale(0.00140062,-0.00140062)"
             id="path13850" /><path
             d="m 189,662 31,-32 32,32 -32,31 -31,-31 M 220,441 V 0"
             style="stroke-width:1.116in"
             transform="matrix(0.00140062,0,0,-0.00140062,1.05887,0)"
             id="path13852" /><path
             d="M 220,441 V 0 m 0,315 95,95 63,31 h 94 l 64,-31 31,-95 V 0"
             style="stroke-width:1.116in"
             transform="matrix(0.00140062,0,0,-0.00140062,1.41182,0)"
             id="path13854" /><path
             d="M 567,662 V 0 m 0,346 -63,64 -63,31 H 346 L 284,410 220,346 189,252 V 189 L 220,94.5 284,31.5 346,0 h 95 l 63,31.5 63,63"
             style="stroke-width:1.116in"
             transform="matrix(0.00140062,0,0,-0.00140062,2.2494,0)"
             id="path13856" /><path
             d="M 158,441 346,0 M 536,441 346,0 l -62,-126 -64,-63 -62,-31 h -32"
             style="stroke-width:1.116in"
             transform="matrix(0.00140062,0,0,-0.00140062,3.08697,0)"
             id="path13858" /><path
             d="M 220,662 V 0 m 0,662 h 284 l 94,-32 32,-32 32,-62 V 472 L 630,410 598,378 504,346 H 220 M 441,346 662,0"
             style="stroke-width:1.116in"
             transform="matrix(0.00140062,0,0,-0.00140062,4.32231,0)"
             id="path13860" /><path
             d="m 189,662 31,-32 32,32 -32,31 -31,-31 M 220,441 V 0"
             style="stroke-width:1.116in"
             transform="matrix(0.00140062,0,0,-0.00140062,5.24952,0)"
             id="path13862" /><path
             d="M 567,662 V 0 m 0,346 -63,64 -63,31 H 346 L 284,410 220,346 189,252 V 189 L 220,94.5 284,31.5 346,0 h 95 l 63,31.5 63,63"
             style="stroke-width:1.116in"
             transform="matrix(0.00140062,0,0,-0.00140062,5.60248,0)"
             id="path13864" /><path
             d="M 567,441 V -63 l -31,-95 -32,-31 -63,-31 h -95 l -62,31 m 283,535 -63,64 -63,31 H 346 L 284,410 220,346 189,252 V 189 L 220,94.5 284,31.5 346,0 h 95 l 63,31.5 63,63"
             style="stroke-width:1.116in"
             transform="matrix(0.00140062,0,0,-0.00140062,6.44005,0)"
             id="path13866" /><path
             d="m 189,252 h 378 v 63 l -31,63 -32,32 -63,31 H 346 L 284,410 220,346 189,252 V 189 L 220,94.5 284,31.5 346,0 h 95 l 63,31.5 63,63"
             style="stroke-width:1.116in"
             transform="matrix(0.00140062,0,0,-0.00140062,7.27762,0)"
             id="path13868" /></g></g><g
         inkscape:label="Hershey Text"
         style="fill:none;stroke:#000000;stroke-linecap:round;stroke-linejoin:round"
         id="g13888"
         transform="translate(-1.9497078,-0.29245617)"><g
           transform="translate(1.48518,83.9671)"
           id="g13886"><path
             d="m 662,504 -32,63 -63,63 -63,32 H 378 L 315,630 252,567 220,504 189,410 V 252 l 31,-94 32,-63.5 63,-63 L 378,0 h 126 l 63,31.5 63,63 32,63.5"
             style="stroke-width:1.116in"
             transform="scale(0.00140062,-0.00140062)"
             id="path13874" /><path
             d="M 220,662 V 0 m 0,315 95,95 63,31 h 94 l 64,-31 31,-95 V 0"
             style="stroke-width:1.116in"
             transform="matrix(0.00140062,0,0,-0.00140062,0.92721,0)"
             id="path13876" /><path
             d="M 567,441 V 0 m 0,346 -63,64 -63,31 H 346 L 284,410 220,346 189,252 V 189 L 220,94.5 284,31.5 346,0 h 95 l 63,31.5 63,63"
             style="stroke-width:1.116in"
             transform="matrix(0.00140062,0,0,-0.00140062,1.76478,0)"
             id="path13878" /><path
             d="m 189,662 31,-32 32,32 -32,31 -31,-31 M 220,441 V 0"
             style="stroke-width:1.116in"
             transform="matrix(0.00140062,0,0,-0.00140062,2.60235,0)"
             id="path13880" /><path
             d="M 220,441 V 0 m 0,252 32,94 63,64 63,31 h 94"
             style="stroke-width:1.116in"
             transform="matrix(0.00140062,0,0,-0.00140062,2.95531,0)"
             id="path13882" /><path
             d="M 252,662 H 598 L 410,410 h 94 l 63,-32 31,-32 32,-94 V 189 L 598,94.5 536,31.5 441,0 H 346 L 252,31.5 220,63 189,126"
             style="stroke-width:1.116in"
             transform="matrix(0.00140062,0,0,-0.00140062,4.059,0)"
             id="path13884" /></g></g><g
         inkscape:label="Hershey Text"
         style="fill:none;stroke:#000000;stroke-linecap:round;stroke-linejoin:round"
         id="g13904"
         transform="translate(-2.3396494,-0.19497078)"><g
           transform="translate(42.4488,73.194)"
           id="g13902"><path
             d="m 630,567 -63,63 -95,32 H 346 l -94,-32 -63,-63 v -63 l 31,-63 32,-31 63,-32 189,-63 63,-31 31,-32 32,-63 V 94.5 L 567,31.5 472,0 H 346 l -94,31.5 -63,63"
             style="stroke-width:1.116in"
             transform="scale(0.00140062,-0.00140062)"
             id="path13890" /><path
             d="M 220,441 V 126 L 252,31.5 315,0 h 95 l 62,31.5 95,94.5 m 0,315 V 0"
             style="stroke-width:1.116in"
             transform="matrix(0.00140062,0,0,-0.00140062,0.882391,0)"
             id="path13892" /><path
             d="M 220,441 V 0 m 0,315 95,95 63,31 h 94 l 64,-31 31,-95 V 0 m 0,315 95,95 62,31 h 95 l 63,-31 32,-95 V 0"
             style="stroke-width:1.116in"
             transform="matrix(0.00140062,0,0,-0.00140062,1.71996,0)"
             id="path13894" /><path
             d="M 220,441 V 0 m 0,315 95,95 63,31 h 94 l 64,-31 31,-95 V 0 m 0,315 95,95 62,31 h 95 l 63,-31 32,-95 V 0"
             style="stroke-width:1.116in"
             transform="matrix(0.00140062,0,0,-0.00140062,3.04355,0)"
             id="path13896" /><path
             d="m 189,662 31,-32 32,32 -32,31 -31,-31 M 220,441 V 0"
             style="stroke-width:1.116in"
             transform="matrix(0.00140062,0,0,-0.00140062,4.36713,0)"
             id="path13898" /><path
             d="M 252,662 V 126 L 284,31.5 346,0 h 64 M 158,441 h 220"
             style="stroke-width:1.116in"
             transform="matrix(0.00140062,0,0,-0.00140062,4.72009,0)"
             id="path13900" /></g></g><g
         inkscape:label="Hershey Text"
         style="fill:none;stroke:#000000;stroke-linecap:round;stroke-linejoin:round"
         id="g13932"
         transform="translate(-2.7295909,-0.68239774)"><g
           transform="translate(44.8514,104.869)"
           id="g13930"><path
             d="M 220,662 V 0 m 0,662 h 284 l 94,-32 32,-32 32,-62 v -64 l -32,-62 -32,-32 -94,-32 m -284,0 h 284 l 94,-31 32,-31 32,-64 V 126 L 630,63 598,31.5 504,0 H 220"
             style="stroke-width:1.116in"
             transform="scale(0.00140062,-0.00140062)"
             id="path13906" /><path
             d="M 346,441 284,410 220,346 189,252 V 189 L 220,94.5 284,31.5 346,0 h 95 l 63,31.5 63,63 31,94.5 v 63 l -31,94 -63,64 -63,31 h -95"
             style="stroke-width:1.116in"
             transform="matrix(0.00140062,0,0,-0.00140062,0.92721,0)"
             id="path13908" /><path
             d="M 220,441 V 0 m 0,315 95,95 63,31 h 94 l 64,-31 31,-95 V 0 m 0,315 95,95 62,31 h 95 l 63,-31 32,-95 V 0"
             style="stroke-width:1.116in"
             transform="matrix(0.00140062,0,0,-0.00140062,1.76478,0)"
             id="path13910" /><path
             d="M 220,662 V 0 m 0,346 64,64 62,31 h 95 l 63,-31 63,-64 31,-94 V 189 L 567,94.5 504,31.5 441,0 h -95 l -62,31.5 -64,63"
             style="stroke-width:1.116in"
             transform="matrix(0.00140062,0,0,-0.00140062,3.08837,0)"
             id="path13912" /><path
             d="m 189,252 h 378 v 63 l -31,63 -32,32 -63,31 H 346 L 284,410 220,346 189,252 V 189 L 220,94.5 284,31.5 346,0 h 95 l 63,31.5 63,63"
             style="stroke-width:1.116in"
             transform="matrix(0.00140062,0,0,-0.00140062,3.92594,0)"
             id="path13914" /><path
             d="M 220,441 V 0 m 0,252 32,94 63,64 63,31 h 94"
             style="stroke-width:1.116in"
             transform="matrix(0.00140062,0,0,-0.00140062,4.72009,0)"
             id="path13916" /><path
             d="m 662,504 -32,63 -63,63 -63,32 H 378 L 315,630 252,567 220,504 189,410 V 252 l 31,-94 32,-63.5 63,-63 L 378,0 h 126 l 63,31.5 63,63 32,63.5"
             style="stroke-width:1.116in"
             transform="matrix(0.00140062,0,0,-0.00140062,5.82378,0)"
             id="path13918" /><path
             d="M 220,662 V 0"
             style="stroke-width:1.116in"
             transform="matrix(0.00140062,0,0,-0.00140062,6.75099,0)"
             id="path13920" /><path
             d="m 189,662 31,-32 32,32 -32,31 -31,-31 M 220,441 V 0"
             style="stroke-width:1.116in"
             transform="matrix(0.00140062,0,0,-0.00140062,7.10394,0)"
             id="path13922" /><path
             d="M 410,662 H 346 L 284,630 252,536 V 0 m -94,441 h 220"
             style="stroke-width:1.116in"
             transform="matrix(0.00140062,0,0,-0.00140062,7.4569,0)"
             id="path13924" /><path
             d="M 410,662 H 346 L 284,630 252,536 V 0 m -94,441 h 220"
             style="stroke-width:1.116in"
             transform="matrix(0.00140062,0,0,-0.00140062,7.98634,0)"
             id="path13926" /><path
             d="m 536,346 -32,64 -94,31 h -95 l -95,-31 -31,-64 31,-62 64,-32 157,-32 63,-31 32,-63 V 94.5 L 504,31.5 410,0 h -95 l -95,31.5 -31,63"
             style="stroke-width:1.116in"
             transform="matrix(0.00140062,0,0,-0.00140062,8.51577,0)"
             id="path13928" /></g></g><g
         inkscape:label="Hershey Text"
         style="fill:none;stroke:#000000;stroke-linecap:round;stroke-linejoin:round"
         id="g13948"
         transform="translate(-1.754737,-0.38994156)"><g
           transform="translate(51.9389,76.5192)"
           id="g13946"><path
             d="m 662,504 -32,63 -63,63 -63,32 H 378 L 315,630 252,567 220,504 189,410 V 252 l 31,-94 32,-63.5 63,-63 L 378,0 h 126 l 63,31.5 63,63 32,63.5"
             style="stroke-width:1.116in"
             transform="scale(0.00140062,-0.00140062)"
             id="path13934" /><path
             d="M 220,662 V 0 m 0,315 95,95 63,31 h 94 l 64,-31 31,-95 V 0"
             style="stroke-width:1.116in"
             transform="matrix(0.00140062,0,0,-0.00140062,0.92721,0)"
             id="path13936" /><path
             d="M 567,441 V 0 m 0,346 -63,64 -63,31 H 346 L 284,410 220,346 189,252 V 189 L 220,94.5 284,31.5 346,0 h 95 l 63,31.5 63,63"
             style="stroke-width:1.116in"
             transform="matrix(0.00140062,0,0,-0.00140062,1.76478,0)"
             id="path13938" /><path
             d="m 189,662 31,-32 32,32 -32,31 -31,-31 M 220,441 V 0"
             style="stroke-width:1.116in"
             transform="matrix(0.00140062,0,0,-0.00140062,2.60235,0)"
             id="path13940" /><path
             d="M 220,441 V 0 m 0,252 32,94 63,64 63,31 h 94"
             style="stroke-width:1.116in"
             transform="matrix(0.00140062,0,0,-0.00140062,2.95531,0)"
             id="path13942" /><path
             d="m 220,504 v 32 l 32,62 32,32 62,32 h 126 l 64,-32 31,-32 31,-62 V 472 L 567,410 504,315 189,0 h 441"
             style="stroke-width:1.116in"
             transform="matrix(0.00140062,0,0,-0.00140062,4.059,0)"
             id="path13944" /></g></g></g><text
       xml:space="preserve"
       transform="matrix(0.25989689,0,0,0.25989689,-74.554114,70.369983)"
       id="text719"
       style="font-size:11.3386px;font-family:Arial;-inkscape-font-specification:Arial;text-align:center;direction:rtl;text-orientation:sideways;white-space:pre;shape-inside:url(#rect721);display:inline;fill:none;stroke:#ff00f4;stroke-width:0.755906;stroke-linecap:round;stroke-miterlimit:3.8;stroke-dasharray:3.77952, 3.77952" /><text
       xml:space="preserve"
       transform="matrix(0.25989689,0,0,0.25989689,-74.554114,70.369983)"
       id="text725"
       style="font-size:11.3386px;font-family:Arial;-inkscape-font-specification:Arial;text-align:center;direction:rtl;text-orientation:sideways;white-space:pre;shape-inside:url(#rect727);display:inline;fill:none;stroke:#ff00f4;stroke-width:0.755906;stroke-linecap:round;stroke-miterlimit:3.8;stroke-dasharray:3.77952, 3.77952" /></g></svg>
