<svg width="1232" height="772" xmlns="http://www.w3.org/2000/svg"><path d="M1126 653 1130 653 1132 655 1132 659 1131 660 1131 663 1130 664 1130 667 1129 668 1129 671 1128 672 1128 674 1139 674 1140 675 1140 677 1138 679 1127 679 1126 680 1126 683 1125 684 1125 687 1124 688 1124 691 1123 692 1123 695 1122 696 1122 699 1121 700 1121 703 1120 704 1120 707 1119 708 1119 711 1118 712 1118 718 1119 719 1119 720 1123 720 1124 719 1125 719 1130 714 1130 713 1132 711 1132 710 1133 709 1133 708 1134 707 1134 706 1136 704 1138 706 1138 708 1137 709 1137 710 1136 711 1136 712 1134 714 1134 715 1130 719 1130 720 1129 721 1128 721 1127 722 1126 722 1125 723 1124 723 1123 724 1118 724 1117 723 1115 723 1111 719 1111 718 1110 717 1110 709 1111 708 1111 705 1112 704 1112 701 1113 700 1113 697 1114 696 1114 693 1115 692 1115 689 1116 688 1116 685 1117 684 1117 681 1118 680 1118 679 1107 679 1106 678 1106 675 1107 674 1119 674 1119 673 1120 672 1120 669 1121 668 1121 665 1122 664 1122 661 1123 660 1123 657 1124 656 1124 655 1126 653 " style="stroke:pink"/><path d="M1075 644 1076 643 1083 643 1084 644 1087 644 1088 645 1089 645 1090 646 1091 646 1098 653 1098 654 1100 656 1100 657 1101 658 1101 661 1102 662 1102 665 1103 666 1103 678 1102 679 1102 684 1101 685 1101 687 1100 688 1100 691 1099 692 1099 694 1098 695 1098 697 1097 698 1097 699 1096 700 1096 701 1095 702 1095 703 1094 704 1094 705 1093 706 1093 707 1091 709 1091 710 1087 714 1087 715 1086 716 1085 716 1080 721 1079 721 1078 722 1077 722 1076 723 1075 723 1074 724 1071 724 1070 725 1061 725 1060 724 1057 724 1056 723 1055 723 1048 716 1048 715 1047 714 1047 712 1046 711 1046 708 1045 707 1045 701 1046 700 1046 697 1047 696 1047 694 1048 693 1048 692 1049 691 1049 690 1050 689 1050 688 1052 686 1052 685 1060 677 1061 677 1063 675 1064 675 1065 674 1066 674 1067 673 1069 673 1070 672 1073 672 1074 671 1080 671 1081 672 1083 672 1084 673 1085 673 1090 678 1090 679 1091 680 1091 681 1092 682 1092 678 1093 677 1093 672 1094 671 1094 663 1093 662 1093 658 1092 657 1092 656 1091 655 1091 654 1087 650 1086 650 1084 648 1074 648 1073 649 1071 649 1070 650 1069 650 1065 654 1065 655 1067 655 1069 657 1069 660 1068 661 1068 662 1065 665 1061 665 1058 662 1058 659 1059 658 1059 656 1060 655 1060 654 1062 652 1062 651 1065 648 1066 648 1068 646 1069 646 1070 645 1071 645 1072 644 1075 644 " style="stroke:pink"/><path d="M1075 675 1074 676 1072 676 1071 677 1070 677 1069 678 1068 678 1062 684 1062 685 1060 687 1060 688 1059 689 1059 691 1058 692 1058 694 1057 695 1057 698 1056 699 1056 702 1055 703 1055 713 1056 714 1056 715 1057 716 1057 717 1059 719 1060 719 1061 720 1070 720 1071 719 1073 719 1075 717 1076 717 1081 712 1081 711 1082 710 1082 709 1083 708 1083 707 1085 705 1085 703 1086 702 1086 700 1087 699 1087 697 1088 696 1088 692 1089 691 1089 686 1088 685 1088 682 1087 681 1087 680 1083 676 1080 676 1079 675 1075 675 " style="stroke:pink"/><path d="M412 627 478 627 480 629 480 631 479 632 475 632 474 633 473 633 472 632 471 633 415 633 414 632 412 632 410 630 410 629 412 627 " style="stroke:pink"/><path d="M1018 618 1019 617 1166 617 1167 618 1167 622 1166 623 1019 623 1018 622 1018 618 " style="stroke:pink"/><path d="M987 608 988 607 992 607 993 608 996 608 998 610 999 610 1004 615 1004 616 1005 617 1005 618 1006 619 1006 621 1007 622 1007 625 1008 626 1008 652 1007 653 1007 656 1006 657 1006 659 1005 660 1005 661 1003 663 1003 664 999 668 998 668 997 669 996 669 995 670 992 670 991 671 989 671 988 670 985 670 984 669 983 669 980 666 979 666 978 665 978 664 976 662 976 661 975 660 975 659 974 658 974 655 973 654 973 649 972 648 972 630 973 629 973 624 974 623 974 621 975 620 975 618 976 617 976 616 979 613 979 612 981 610 982 610 983 609 984 609 985 608 987 608 " style="stroke:pink"/><path d="M987 611 986 612 985 612 983 614 983 615 982 616 982 617 981 618 981 621 980 622 980 655 981 656 981 659 982 660 982 661 983 662 983 663 984 664 984 665 985 665 987 667 993 667 994 666 995 666 997 664 997 663 998 662 998 661 999 660 999 658 1000 657 1000 653 1001 652 1001 627 1000 626 1000 619 999 618 999 617 998 616 998 615 994 611 987 611 " style="stroke:pink"/><path d="M901 608 902 607 905 607 906 608 909 608 911 610 912 610 917 615 917 616 918 617 918 618 919 619 919 621 920 622 920 624 921 625 921 633 922 634 922 644 921 645 921 653 920 654 920 656 919 657 919 659 918 660 918 661 917 662 917 663 912 668 911 668 909 670 905 670 904 671 902 671 901 670 898 670 897 669 896 669 889 662 889 661 888 660 888 658 887 657 887 654 886 653 886 647 885 646 885 630 886 629 886 624 887 623 887 621 888 620 888 618 889 617 889 616 896 609 897 609 898 608 901 608 " style="stroke:pink"/><path d="M900 611 897 614 896 614 896 615 895 616 895 617 894 618 894 622 893 623 893 654 894 655 894 659 895 660 895 661 896 662 896 663 900 667 906 667 907 666 908 666 911 663 911 662 912 661 912 659 913 658 913 654 914 653 914 624 913 623 913 619 912 618 912 616 907 611 900 611 " style="stroke:pink"/><path d="M597 608 598 607 601 607 602 608 605 608 606 609 607 609 613 615 613 616 615 618 615 620 616 621 616 624 617 625 617 631 618 632 618 646 617 647 617 653 616 654 616 657 615 658 615 659 614 660 614 661 613 662 613 663 607 669 606 669 605 670 602 670 601 671 598 671 597 670 595 670 594 669 592 669 586 663 586 662 585 661 585 660 584 659 584 658 583 657 583 654 582 653 582 646 581 645 581 634 582 633 582 625 583 624 583 622 584 621 584 619 585 618 585 617 586 616 586 615 591 610 592 610 594 608 597 608 " style="stroke:pink"/><path d="M596 611 591 616 591 618 590 619 590 623 589 624 589 653 590 654 590 658 591 659 591 661 592 662 592 663 596 667 603 667 607 663 607 662 608 661 608 659 609 658 609 654 610 653 610 623 609 622 609 619 608 618 608 616 603 611 596 611 " style="stroke:pink"/><path d="M414 608 415 607 416 608 471 608 472 607 473 608 474 608 475 607 476 608 479 608 480 609 480 611 478 613 412 613 410 611 410 610 412 608 414 608 " style="stroke:pink"/><path d="M956 600 957 599 965 599 967 601 967 603 966 604 957 604 956 605 954 605 953 606 951 606 949 608 948 608 946 610 946 611 944 613 944 614 943 615 943 617 942 618 960 618 963 621 961 623 941 623 941 624 940 625 940 637 941 638 941 639 942 640 942 641 945 644 946 644 947 645 955 645 956 644 957 644 958 643 959 643 960 642 961 642 962 641 964 641 965 642 965 643 962 646 961 646 960 647 959 647 958 648 956 648 955 649 946 649 945 648 943 648 942 647 941 647 940 646 939 646 934 641 934 640 933 639 933 638 932 637 932 636 931 635 931 621 932 620 932 618 933 617 933 616 934 615 934 614 936 612 936 611 942 605 943 605 944 604 945 604 947 602 948 602 949 601 951 601 952 600 956 600 " style="stroke:pink"/><path d="M840 599 841 598 843 598 846 601 845 602 845 606 844 607 844 610 843 611 843 614 842 615 842 618 841 619 841 622 840 623 840 626 839 627 839 631 838 632 838 640 839 641 839 642 840 643 840 644 841 644 842 645 848 645 849 644 850 644 851 643 852 643 857 638 857 637 858 636 858 634 859 633 859 630 860 629 860 626 861 625 861 622 862 621 862 619 863 618 863 615 864 614 864 611 865 610 865 607 866 606 866 603 869 600 870 600 871 599 872 599 875 602 875 605 874 606 874 609 873 610 873 613 872 614 872 617 871 618 871 621 870 622 870 625 869 626 869 629 868 630 868 633 867 634 867 637 866 638 866 643 867 644 867 645 870 645 873 642 873 641 874 640 874 638 875 637 875 635 876 634 876 631 878 629 880 631 880 635 879 636 879 638 878 639 878 641 877 642 877 643 875 645 875 646 873 648 872 648 871 649 865 649 864 648 863 648 860 645 860 644 858 642 857 643 857 644 856 645 855 645 853 647 852 647 851 648 850 648 849 649 840 649 839 648 837 648 836 647 834 647 834 651 833 652 833 654 832 655 832 658 831 659 831 662 830 663 830 666 829 667 829 668 828 669 828 670 827 671 825 671 824 672 823 671 822 671 821 670 821 664 822 663 822 660 823 659 823 656 824 655 824 652 825 651 825 648 826 647 826 644 827 643 827 640 828 639 828 636 829 635 829 632 830 631 830 628 831 627 831 624 832 623 832 620 833 619 833 616 834 615 834 612 835 611 835 608 836 607 836 604 837 603 837 601 839 599 840 599 " style="stroke:pink"/><path d="M536 599 537 598 539 598 542 601 542 603 541 604 541 607 540 608 540 611 539 612 539 615 538 616 538 619 537 620 537 623 536 624 536 627 535 628 535 632 534 633 534 640 535 641 535 642 538 645 544 645 545 644 547 644 552 639 552 638 553 637 554 637 554 635 555 634 555 631 556 630 556 627 557 626 557 624 558 623 558 619 559 618 559 615 560 614 560 612 561 611 561 608 562 607 562 604 563 603 563 602 566 599 568 599 569 600 570 600 571 601 571 605 570 606 570 609 569 610 569 613 568 614 568 618 567 619 567 622 566 623 566 625 565 626 565 630 564 631 564 634 563 635 563 639 562 640 562 643 564 645 566 645 569 642 569 641 570 640 570 638 571 637 571 636 572 635 572 632 573 631 573 630 574 629 576 631 576 635 575 636 575 639 574 640 574 642 572 644 572 645 569 648 568 648 567 649 562 649 561 648 559 648 556 645 556 644 555 643 555 642 552 645 551 645 549 647 548 647 547 648 546 648 545 649 536 649 535 648 533 648 532 647 531 647 530 648 530 651 529 652 529 655 528 656 528 659 527 660 527 663 526 664 526 667 525 668 525 669 523 671 519 671 517 669 517 665 518 664 518 661 519 660 519 657 520 656 520 653 521 652 521 649 522 648 522 645 523 644 523 641 524 640 524 637 525 636 525 633 526 632 526 629 527 628 527 625 528 624 528 621 529 620 529 617 530 616 530 613 531 612 531 609 532 608 532 605 533 604 533 602 534 601 534 600 535 599 536 599 " style="stroke:pink"/><path d="M196 594 197 593 200 593 222 615 223 615 244 594 245 594 246 593 248 593 250 595 250 597 227 620 250 643 250 645 248 647 245 647 233 635 233 634 232 634 225 627 225 626 224 626 223 625 222 625 219 628 218 628 218 629 200 647 197 647 196 646 196 645 195 644 196 643 196 642 218 620 215 617 215 616 214 615 213 615 209 611 209 610 208 610 207 609 207 608 205 606 204 606 203 605 203 604 202 604 201 603 201 602 200 602 199 601 199 600 198 600 197 599 197 598 195 596 196 595 196 594 " style="stroke:pink"/><path d="M754 585 756 585 757 586 757 587 758 588 758 617 787 617 788 618 789 618 790 619 790 621 789 622 788 622 787 623 758 623 758 652 757 653 757 654 756 655 754 655 752 653 752 623 722 623 720 621 720 619 721 618 722 618 723 617 752 617 752 587 754 585 " style="stroke:pink"/><path d="M660 573 661 572 690 572 691 573 691 575 689 577 683 577 683 578 682 579 682 580 681 581 681 585 680 586 680 589 679 590 679 593 678 594 678 596 677 597 677 601 676 602 676 604 675 605 675 609 674 610 674 612 673 613 673 617 672 618 672 620 671 621 671 625 670 626 670 628 669 629 669 632 668 633 668 635 667 636 667 637 665 639 665 640 660 645 659 645 657 647 656 647 655 648 654 648 653 649 651 649 650 650 640 650 639 649 637 649 632 644 632 643 631 642 631 640 630 639 630 636 631 635 631 633 635 629 640 629 643 632 643 636 639 640 638 640 637 641 636 641 636 642 637 642 638 643 637 644 638 644 640 646 648 646 649 645 650 645 656 639 656 638 657 637 657 636 658 635 658 633 659 632 659 629 660 628 660 625 661 624 661 621 662 620 662 617 663 616 663 613 664 612 664 609 665 608 665 605 666 604 666 601 667 600 667 597 668 596 668 593 669 592 669 590 670 589 670 585 671 584 671 581 672 580 672 578 671 577 661 577 660 576 660 573 " style="stroke:pink"/><path d="M313 572 356 572 357 573 360 573 361 574 362 574 364 576 365 576 369 580 369 581 370 582 370 584 371 585 371 591 370 592 370 594 369 595 369 596 366 599 366 600 365 601 364 601 361 604 360 604 358 606 356 606 355 607 354 607 353 608 351 608 352 608 353 609 355 609 357 611 358 611 360 613 361 613 362 614 362 615 363 616 363 617 364 618 364 619 365 620 365 627 364 628 364 630 363 631 363 632 362 633 362 634 354 642 353 642 351 644 350 644 349 645 348 645 347 646 345 646 344 647 341 647 340 648 295 648 294 647 294 644 295 643 303 643 305 641 305 640 306 639 306 636 307 635 307 632 308 631 308 628 309 627 309 624 310 623 310 620 311 619 311 616 312 615 312 612 313 611 313 608 314 607 314 604 315 603 315 600 316 599 316 596 317 595 317 592 318 591 318 588 319 587 319 584 320 583 320 580 321 579 321 578 320 577 313 577 311 575 311 574 313 572 " style="stroke:pink"/><path d="M324 610 323 611 322 611 322 614 321 615 321 617 320 618 320 622 319 623 319 626 318 627 318 630 317 631 317 634 316 635 316 638 315 639 315 643 336 643 337 642 340 642 341 641 342 641 343 640 344 640 346 638 347 638 349 636 349 635 351 633 351 632 352 631 352 630 353 629 353 627 354 626 354 619 353 618 353 617 352 616 352 615 349 612 348 612 347 611 325 611 324 610 " style="stroke:pink"/><path d="M331 577 331 578 330 579 330 582 329 583 329 586 328 587 328 590 327 591 327 594 326 595 326 598 325 599 325 602 324 603 324 607 338 607 339 606 345 606 346 605 347 605 348 604 349 604 350 603 351 603 352 602 353 602 355 600 355 599 358 596 358 595 359 594 359 593 360 592 360 584 359 583 359 581 357 579 356 579 355 578 354 578 353 577 331 577 " style="stroke:pink"/><path d="M70 573 71 572 151 572 152 573 152 574 151 575 151 576 150 577 150 578 149 579 149 580 148 581 148 582 147 583 147 584 146 585 146 586 145 587 145 588 144 589 144 590 143 591 143 592 142 593 142 594 141 595 141 596 140 597 140 598 139 599 139 600 138 601 138 602 137 603 137 604 136 605 136 606 135 607 135 608 134 609 134 610 133 611 133 612 132 613 132 614 131 615 131 616 130 617 130 618 129 619 129 620 128 621 128 622 127 623 127 624 126 625 126 626 125 627 125 628 124 629 124 630 123 631 123 632 122 633 122 634 121 635 121 636 120 637 120 638 119 639 119 641 117 643 117 644 116 645 116 646 115 647 115 648 114 649 114 650 112 652 110 652 109 651 108 651 107 650 107 649 106 648 106 647 105 646 105 645 104 644 104 643 103 642 103 641 102 640 102 639 101 638 101 637 100 636 100 635 99 634 99 633 98 632 98 631 97 630 97 629 96 628 96 627 95 626 95 625 94 624 94 623 93 622 93 621 92 620 92 619 91 618 91 617 90 616 90 615 89 614 89 613 88 612 88 611 87 610 87 609 86 608 86 607 85 606 85 605 84 604 84 603 83 602 83 601 82 600 82 599 81 598 81 597 80 596 80 595 79 594 79 592 77 590 77 588 75 586 75 584 73 582 73 581 72 580 72 579 71 578 71 576 70 575 70 573 " style="stroke:pink"/><path d="M85 581 86 582 86 583 87 584 87 585 88 586 88 587 89 588 89 589 90 590 90 591 91 592 91 593 92 594 92 595 93 596 93 597 94 598 94 599 95 600 95 601 96 602 96 603 97 604 97 605 98 606 98 607 99 608 99 609 100 610 100 611 101 612 101 613 102 614 102 615 103 616 103 617 104 618 104 619 105 620 105 621 106 622 106 623 107 624 107 625 108 626 108 627 109 628 109 629 110 630 110 631 111 632 111 633 112 634 112 635 113 636 113 637 114 638 114 639 114 638 115 637 115 636 116 635 116 634 117 633 117 632 118 631 118 630 119 629 119 628 120 627 120 626 121 625 121 624 122 623 122 622 123 621 123 620 124 619 124 618 125 617 125 616 126 615 126 614 127 613 127 612 128 611 128 610 129 609 129 608 130 607 130 606 131 605 131 604 132 603 132 602 133 601 133 600 134 599 134 598 135 597 135 596 136 595 136 594 137 593 137 592 138 591 138 590 139 589 139 588 140 587 140 586 141 585 141 584 142 583 142 581 141 582 139 582 138 581 137 581 136 582 86 582 85 581 " style="stroke:pink"/><path d="M1105 498 1161 498 1162 499 1163 499 1164 500 1163 501 1163 509 1162 510 1162 517 1161 518 1161 523 1160 524 1158 524 1157 523 1157 509 1156 508 1156 507 1154 505 1152 505 1151 504 1146 504 1145 503 1124 503 1122 505 1122 507 1121 508 1121 511 1120 512 1120 515 1119 516 1119 519 1118 520 1118 523 1117 524 1117 527 1116 528 1116 531 1115 532 1116 532 1117 533 1118 532 1132 532 1136 528 1136 527 1137 526 1137 523 1138 522 1138 521 1139 520 1141 520 1142 521 1142 523 1141 524 1141 527 1140 528 1140 531 1139 532 1139 535 1138 536 1138 539 1137 540 1137 543 1136 544 1136 548 1134 550 1132 550 1131 549 1131 548 1132 547 1132 539 1131 538 1128 538 1127 537 1114 537 1114 539 1113 540 1113 543 1112 544 1112 547 1111 548 1111 551 1110 552 1110 555 1109 556 1109 559 1108 560 1108 563 1107 564 1107 567 1106 568 1106 569 1134 569 1135 568 1137 568 1138 567 1139 567 1140 566 1141 566 1147 560 1147 559 1148 558 1148 557 1150 555 1150 554 1151 553 1151 551 1152 550 1152 549 1153 548 1153 547 1155 545 1156 545 1158 547 1157 548 1157 549 1156 550 1156 552 1155 553 1155 554 1154 555 1154 557 1153 558 1153 559 1152 560 1152 561 1151 562 1151 564 1150 565 1150 566 1149 567 1149 568 1148 569 1148 571 1147 572 1147 573 1146 574 1086 574 1085 573 1085 571 1086 570 1087 570 1088 569 1095 569 1096 568 1096 566 1097 565 1097 563 1098 562 1098 559 1099 558 1099 555 1100 554 1100 551 1101 550 1101 547 1102 546 1102 543 1103 542 1103 539 1104 538 1104 535 1105 534 1105 531 1106 530 1106 527 1107 526 1107 523 1108 522 1108 519 1109 518 1109 515 1110 514 1110 511 1111 510 1111 507 1112 506 1112 504 1110 504 1109 503 1104 503 1103 502 1103 500 1105 498 " style="stroke:pink"/><path d="M1050 496 1051 495 1061 495 1062 496 1064 496 1065 497 1066 497 1067 498 1068 498 1075 505 1075 506 1076 507 1076 508 1077 509 1077 510 1078 511 1078 513 1079 514 1079 519 1080 520 1080 527 1079 528 1079 533 1078 534 1078 537 1077 538 1077 541 1076 542 1076 544 1075 545 1075 547 1074 548 1074 549 1073 550 1073 552 1072 553 1072 554 1070 556 1070 557 1069 558 1069 559 1068 560 1068 561 1065 564 1065 565 1061 569 1060 569 1056 573 1055 573 1054 574 1053 574 1052 575 1050 575 1049 576 1046 576 1045 577 1040 577 1039 576 1035 576 1034 575 1033 575 1032 574 1031 574 1025 568 1025 567 1024 566 1024 565 1023 564 1023 562 1022 561 1022 551 1023 550 1023 547 1024 546 1024 545 1025 544 1025 542 1027 540 1027 539 1029 537 1029 536 1035 530 1036 530 1039 527 1040 527 1041 526 1042 526 1043 525 1044 525 1045 524 1048 524 1049 523 1058 523 1059 524 1060 524 1061 525 1062 525 1067 530 1067 531 1068 532 1068 534 1068 532 1069 531 1069 528 1070 527 1070 511 1069 510 1069 508 1068 507 1068 506 1063 501 1062 501 1061 500 1059 500 1058 499 1053 499 1052 500 1049 500 1048 501 1047 501 1046 502 1045 502 1041 506 1042 506 1043 507 1044 507 1045 508 1045 509 1046 510 1046 511 1045 512 1045 513 1042 516 1041 516 1040 517 1039 517 1038 516 1037 516 1035 514 1035 509 1036 508 1036 507 1037 506 1037 505 1044 498 1045 498 1047 496 1050 496 " style="stroke:pink"/><path d="M1050 527 1049 528 1047 528 1046 529 1045 529 1038 536 1038 537 1037 538 1037 539 1036 540 1036 541 1035 542 1035 544 1034 545 1034 548 1033 549 1033 552 1032 553 1032 557 1031 558 1031 562 1032 563 1032 565 1033 566 1033 567 1034 568 1034 569 1035 570 1036 570 1037 571 1038 571 1039 572 1045 572 1046 571 1049 571 1051 569 1052 569 1058 563 1058 562 1059 561 1059 560 1060 559 1060 558 1061 557 1061 556 1062 555 1062 554 1063 553 1063 551 1064 550 1064 547 1065 546 1065 535 1064 534 1064 533 1063 532 1063 531 1060 528 1059 528 1058 527 1050 527 " style="stroke:pink"/><path d="M713 412 714 411 716 411 718 413 718 414 719 415 719 416 718 417 718 420 717 421 717 424 716 425 716 428 715 429 715 432 716 432 717 433 718 433 719 432 720 432 721 433 722 432 724 432 725 433 726 433 727 434 727 435 725 437 713 437 713 440 712 441 712 444 711 445 711 448 710 449 710 452 709 453 709 456 708 457 708 460 707 461 707 464 706 465 706 468 705 469 705 478 710 478 711 477 712 477 717 472 717 471 718 470 718 469 720 467 720 465 722 463 723 463 725 465 724 466 724 467 723 468 723 469 722 470 722 471 721 472 721 473 718 476 718 477 716 479 715 479 713 481 711 481 710 482 703 482 702 481 701 481 699 479 699 478 697 476 697 474 696 473 696 470 697 469 697 466 698 465 698 462 699 461 699 457 700 456 700 454 701 453 701 450 702 449 702 446 703 445 703 442 704 441 704 438 705 437 693 437 692 436 692 434 693 433 695 433 696 432 706 432 706 430 707 429 707 426 708 425 708 422 709 421 709 418 710 417 710 414 712 412 713 412 " style="stroke:pink"/><path d="M659 403 660 402 672 402 673 403 675 403 676 404 677 404 681 408 682 408 683 409 683 410 685 412 685 413 686 414 686 415 687 416 687 417 688 418 688 420 689 421 689 426 690 427 690 434 689 435 689 440 688 441 688 444 687 445 687 448 686 449 686 451 685 452 685 454 684 455 684 456 683 457 683 459 682 460 682 461 680 463 680 464 679 465 679 466 677 468 677 469 673 473 673 474 672 475 671 475 667 479 666 479 665 480 664 480 662 482 660 482 659 483 646 483 645 482 643 482 642 481 641 481 636 476 636 475 634 473 634 472 633 471 633 469 632 468 632 458 633 457 633 454 634 453 634 452 635 451 635 449 637 447 637 446 639 444 639 443 646 436 647 436 649 434 650 434 651 433 652 433 653 432 654 432 655 431 657 431 658 430 669 430 670 431 671 431 672 432 673 432 674 433 674 434 677 437 677 438 678 439 678 441 678 439 679 438 679 434 680 433 680 418 679 417 679 415 678 414 678 413 676 411 676 410 675 409 674 409 672 407 670 407 669 406 662 406 661 407 659 407 658 408 657 408 656 409 655 409 651 413 653 413 655 415 655 416 656 417 656 418 655 419 655 420 652 423 647 423 645 421 645 416 646 415 646 414 647 413 647 412 650 409 650 408 652 406 653 406 655 404 656 404 657 403 659 403 " style="stroke:pink"/><path d="M660 434 659 435 657 435 656 436 655 436 648 443 648 444 647 445 647 446 646 447 646 448 645 449 645 451 644 452 644 455 643 456 643 459 642 460 642 464 641 465 641 469 642 470 642 473 644 475 644 476 645 477 646 477 647 478 649 478 650 479 655 479 656 478 658 478 659 477 660 477 661 476 662 476 667 471 667 470 669 468 669 467 670 466 670 465 671 464 671 463 672 462 672 461 673 460 673 458 674 457 674 454 675 453 675 442 674 441 674 439 670 435 669 435 668 434 660 434 " style="stroke:pink"/><path d="M412 386 413 385 477 385 478 386 479 386 480 387 480 389 478 391 412 391 410 389 410 387 411 386 412 386 " style="stroke:pink"/><path d="M604 376 605 375 753 375 754 376 754 380 753 381 605 381 604 380 604 376 " style="stroke:pink"/><path d="M525 376 526 375 588 375 589 376 590 376 591 377 591 379 589 381 524 381 523 380 523 377 524 376 525 376 " style="stroke:pink"/><path d="M412 366 478 366 480 368 480 370 479 371 476 371 475 372 473 372 472 371 471 372 416 372 415 371 414 372 413 371 411 371 410 370 410 368 412 366 " style="stroke:pink"/><path d="M199 351 200 351 203 354 204 354 205 355 205 356 210 361 211 361 212 362 212 363 213 363 214 364 214 365 215 365 216 366 216 367 218 369 219 369 222 372 222 373 223 373 224 374 247 351 248 351 249 352 250 352 251 353 251 355 228 378 230 380 230 381 231 381 232 382 232 383 233 383 238 388 238 389 239 389 240 390 240 391 241 392 242 392 246 396 246 397 247 397 248 398 248 399 249 399 250 400 250 401 251 402 251 403 249 405 246 405 224 383 223 383 201 405 200 405 199 406 197 404 197 401 219 379 219 378 197 356 197 353 199 351 " style="stroke:pink"/><path d="M315 331 316 330 317 331 318 331 319 330 323 330 324 331 325 331 326 330 329 330 330 331 335 331 336 330 353 330 354 331 358 331 359 330 365 330 366 331 372 331 373 332 373 338 372 339 372 347 371 348 371 355 369 357 367 355 367 342 366 341 366 340 363 337 362 337 361 336 355 336 354 335 335 335 334 336 332 336 332 338 331 339 331 342 330 343 330 346 329 347 329 350 328 351 328 354 327 355 327 358 326 359 326 362 325 363 325 365 337 365 338 364 341 364 342 363 343 363 345 361 345 360 346 359 346 358 347 357 347 354 349 352 351 352 352 353 352 354 351 355 351 358 350 359 350 363 349 364 349 366 348 367 348 371 347 372 347 375 346 376 346 379 345 380 345 381 344 382 342 382 341 381 341 379 342 378 342 371 341 371 340 370 339 371 338 370 324 370 323 371 323 374 322 375 322 378 321 379 321 382 320 383 320 386 319 387 319 390 318 391 318 394 317 395 317 398 316 399 316 401 317 401 318 402 337 402 338 401 344 401 345 400 347 400 348 399 349 399 350 398 351 398 357 392 357 390 359 388 359 387 360 386 360 385 361 384 361 383 362 382 362 381 363 380 363 379 365 377 366 377 367 378 367 381 366 382 366 383 365 384 365 386 364 387 364 388 363 389 363 390 362 391 362 393 361 394 361 395 360 396 360 398 359 399 359 400 358 401 358 402 357 403 357 405 356 406 355 406 354 407 353 406 352 407 351 407 350 406 345 406 344 407 343 406 316 406 315 407 314 406 310 406 309 407 308 406 304 406 303 407 302 406 301 406 300 407 299 407 298 406 296 406 295 405 295 403 296 402 299 402 300 401 304 401 305 400 306 400 306 398 307 397 307 394 308 393 308 390 309 389 309 386 310 385 310 382 311 381 311 378 312 377 312 374 313 373 313 370 314 369 314 366 315 365 315 362 316 361 316 358 317 357 317 354 318 353 318 350 319 349 319 346 320 345 320 342 321 341 321 338 322 337 322 336 319 336 318 335 313 335 312 334 312 333 314 331 315 331 " style="stroke:pink"/><path d="M71 331 72 330 151 330 153 332 153 333 152 334 152 335 151 336 151 337 150 338 150 339 149 340 149 341 148 342 148 343 147 344 147 345 146 346 146 347 145 348 145 349 144 350 144 351 143 352 143 353 142 354 142 355 141 356 141 357 140 358 140 359 139 360 139 361 138 362 138 363 137 364 137 365 136 366 136 367 135 368 135 369 134 370 134 371 133 372 133 373 132 374 132 375 131 376 131 377 130 378 130 379 129 380 129 381 128 382 128 383 127 384 127 385 126 386 126 387 125 388 125 389 124 390 124 391 123 392 123 393 122 394 122 395 121 396 121 397 120 398 120 399 119 400 119 401 118 402 118 403 117 404 117 405 116 406 116 407 113 410 110 410 108 408 108 407 107 406 107 405 106 404 106 403 105 402 105 401 104 400 104 399 103 398 103 397 102 396 102 395 101 394 101 393 100 392 100 391 99 390 99 389 98 388 98 387 97 386 97 385 96 384 96 383 95 382 95 381 94 380 94 379 93 378 93 377 92 376 92 375 91 374 91 373 90 372 90 371 89 370 89 369 88 368 88 367 87 366 87 365 86 364 86 363 85 362 85 361 84 360 84 359 83 358 83 357 82 356 82 355 81 354 81 353 80 352 80 351 79 350 79 349 78 348 78 347 77 346 77 345 76 344 76 343 75 342 75 341 74 340 74 339 73 338 73 337 72 336 72 335 71 334 71 331 " style="stroke:pink"/><path d="M87 340 87 341 88 342 88 343 89 344 89 345 90 346 90 347 91 348 91 349 92 350 92 351 93 352 93 353 94 354 94 355 95 356 95 357 96 358 96 359 97 360 97 361 98 362 98 363 99 364 99 365 100 366 100 367 101 368 101 369 102 370 102 371 103 372 103 373 104 374 104 375 105 376 105 377 106 378 106 379 107 380 107 381 108 382 108 383 109 384 109 385 110 386 110 387 111 388 111 389 112 390 112 391 113 392 113 393 114 394 114 395 115 396 115 397 116 396 116 395 117 394 117 393 118 392 118 390 120 388 120 387 121 386 121 385 122 384 122 383 123 382 123 381 124 380 124 379 125 378 125 377 126 376 126 374 128 372 128 371 129 370 129 369 130 368 130 367 131 366 131 365 132 364 132 363 133 362 133 360 134 359 134 358 136 356 136 355 137 354 137 352 139 350 139 349 140 348 140 347 141 346 141 344 142 343 142 342 144 340 87 340 " style="stroke:pink"/><path d="M689 258 690 257 735 257 736 258 738 258 739 259 740 259 742 261 743 261 746 264 746 265 747 266 747 267 748 268 748 278 746 280 746 281 744 283 744 284 742 286 741 286 738 289 737 289 736 290 735 290 733 292 731 292 730 293 728 293 731 293 732 294 733 294 734 295 735 295 741 301 741 302 742 303 742 313 741 314 741 316 739 318 739 319 738 320 738 321 735 324 734 324 731 327 730 327 728 329 727 329 726 330 724 330 723 331 722 331 721 332 717 332 716 333 673 333 671 331 671 329 672 328 679 328 680 327 682 327 682 326 683 325 683 322 684 321 684 318 685 317 685 314 686 313 686 310 687 309 687 306 688 305 688 302 689 301 689 298 690 297 690 294 691 293 691 290 692 289 692 286 693 285 693 282 694 281 694 278 695 277 695 274 696 273 696 270 697 269 697 266 698 265 698 262 692 262 691 261 690 261 689 260 689 258 " style="stroke:pink"/><path d="M700 295 700 296 699 297 699 300 698 301 698 304 697 305 697 308 696 309 696 312 695 313 695 316 694 317 694 321 693 322 693 324 692 325 692 328 712 328 713 327 717 327 718 326 719 326 720 325 721 325 723 323 724 323 727 320 727 319 729 317 729 316 730 315 730 314 731 313 731 309 732 308 732 307 731 306 731 302 730 301 730 300 727 297 726 297 725 296 723 296 722 295 700 295 " style="stroke:pink"/><path d="M708 262 708 264 707 265 707 268 706 269 706 272 705 273 705 276 704 277 704 280 703 281 703 284 702 285 702 288 701 289 701 291 721 291 722 290 724 290 725 289 726 289 727 288 728 288 730 286 731 286 734 283 734 282 735 281 735 280 736 279 736 278 737 277 737 275 738 274 738 271 737 270 737 267 735 265 735 264 734 264 732 262 708 262 " style="stroke:pink"/><path d="M637 254 638 253 646 253 647 254 649 254 650 255 651 255 652 256 653 256 655 258 656 258 660 262 660 263 662 265 662 266 663 267 663 269 664 270 664 272 665 273 665 277 666 278 666 285 665 286 665 292 664 293 664 296 663 297 663 300 662 301 662 303 661 304 661 305 660 306 660 308 659 309 659 310 658 311 658 313 656 315 656 316 654 318 654 319 652 321 652 322 644 330 643 330 641 332 640 332 639 333 637 333 636 334 634 334 633 335 624 335 623 334 621 334 620 333 619 333 618 332 617 332 616 331 615 331 614 330 614 329 611 326 611 325 610 324 610 323 609 322 609 320 608 319 608 310 609 309 609 305 610 304 610 303 611 302 611 301 612 300 612 299 614 297 614 296 624 286 625 286 626 285 627 285 628 284 629 284 630 283 631 283 632 282 636 282 637 281 642 281 643 282 646 282 647 283 648 283 652 287 652 288 653 289 653 290 654 291 654 292 654 291 655 290 655 286 656 285 656 270 655 269 655 267 654 266 654 265 653 264 653 263 649 259 648 259 647 258 636 258 635 259 634 259 633 260 632 260 630 262 629 262 629 263 627 265 629 265 632 268 632 269 631 270 631 272 629 274 628 274 627 275 624 275 623 274 622 274 621 273 621 268 622 267 622 265 624 263 624 262 629 257 630 257 632 255 633 255 634 254 637 254 " style="stroke:pink"/><path d="M638 285 637 286 634 286 633 287 632 287 630 289 629 289 625 293 625 294 623 296 623 297 622 298 622 299 621 300 621 303 620 304 620 307 619 308 619 310 618 311 618 316 617 317 617 320 618 321 618 324 619 325 619 326 622 329 623 329 624 330 633 330 634 329 635 329 636 328 637 328 639 326 640 326 641 325 641 324 645 320 645 319 646 318 646 317 647 316 647 315 648 314 648 312 649 311 649 310 650 309 650 306 651 305 651 294 650 293 650 291 649 290 649 289 647 287 646 287 645 286 643 286 642 285 638 285 " style="stroke:pink"/><path d="M579 179 580 178 587 178 588 179 590 179 591 180 592 180 597 185 597 186 598 187 598 188 599 189 599 190 600 191 600 194 601 195 601 200 602 201 602 218 601 219 601 224 600 225 600 228 599 229 599 230 598 231 598 232 597 233 597 234 592 239 591 239 590 240 588 240 587 241 580 241 579 240 578 240 577 239 576 239 574 237 573 237 572 236 572 235 570 233 570 232 568 230 568 228 567 227 567 223 566 222 566 214 565 213 565 211 566 210 565 209 565 207 566 206 566 196 567 195 567 193 568 192 568 190 569 189 569 188 570 187 570 186 572 184 572 183 573 182 574 182 576 180 577 180 578 179 579 179 " style="stroke:pink"/><path d="M582 181 581 182 579 182 577 184 577 185 575 187 575 189 574 190 574 194 573 195 573 222 574 223 574 228 575 229 575 231 576 232 576 233 578 235 578 236 579 237 581 237 582 238 585 238 586 237 588 237 591 234 591 233 592 232 592 230 593 229 593 226 594 225 594 193 593 192 593 188 591 186 591 185 588 182 587 182 586 181 582 181 " style="stroke:pink"/><path d="M547 171 548 170 559 170 561 172 561 173 560 174 559 174 558 175 548 175 547 176 546 176 545 177 544 177 542 179 541 179 539 181 539 182 538 183 538 184 537 185 537 186 536 187 536 189 555 189 556 190 556 192 554 194 534 194 534 198 533 199 533 205 534 206 534 209 535 210 535 211 539 215 541 215 542 216 546 216 547 215 549 215 550 214 552 214 553 213 554 213 556 211 557 211 558 212 558 214 555 217 554 217 553 218 551 218 550 219 547 219 546 220 542 220 541 219 537 219 536 218 535 218 534 217 533 217 528 212 528 211 526 209 526 207 525 206 525 204 524 203 524 194 525 193 525 190 526 189 526 187 527 186 527 185 530 182 530 181 536 175 537 175 538 174 539 174 540 173 541 173 542 172 543 172 544 171 547 171 " style="stroke:pink"/><path d="M626 132 627 131 628 132 630 132 632 134 632 135 633 136 633 138 634 139 634 149 633 150 633 153 632 154 632 155 631 156 631 157 629 159 629 160 624 165 623 165 622 164 622 162 626 158 626 157 627 156 627 155 628 154 628 153 629 152 629 150 630 149 630 143 629 143 628 144 625 144 624 143 623 143 622 142 622 141 621 140 621 135 624 132 626 132 " style="stroke:pink"/><path d="M1016 124 1017 123 1084 123 1086 125 1086 126 1084 128 1017 128 1016 127 1016 124 " style="stroke:pink"/><path d="M410 124 411 123 479 123 480 124 480 127 479 128 412 128 410 126 410 124 " style="stroke:pink"/><path d="M519 114 520 113 607 113 608 114 608 118 607 119 520 119 519 118 519 114 " style="stroke:pink"/><path d="M853 110 854 109 857 109 858 110 859 110 862 113 862 118 858 122 853 122 849 118 849 114 850 113 850 112 852 110 853 110 " style="stroke:pink"/><path d="M249 109 253 109 257 113 257 114 258 115 258 117 257 118 257 119 254 122 249 122 248 121 247 121 245 119 245 117 244 116 244 115 245 114 245 113 249 109 " style="stroke:pink"/><path d="M1018 104 1019 103 1083 103 1084 104 1085 104 1086 105 1086 107 1084 109 1018 109 1016 107 1016 105 1017 104 1018 104 " style="stroke:pink"/><path d="M412 104 413 103 477 103 478 104 479 104 480 105 480 107 478 109 411 109 410 108 410 105 411 104 412 104 " style="stroke:pink"/><path d="M1141 71 1142 70 1148 70 1149 71 1152 71 1154 73 1155 73 1156 74 1157 74 1160 77 1160 78 1162 80 1162 81 1163 82 1163 83 1164 84 1164 86 1165 87 1165 90 1166 91 1166 97 1167 98 1167 118 1166 119 1166 125 1165 126 1165 128 1164 129 1164 131 1163 132 1163 133 1162 134 1162 135 1161 136 1161 137 1155 143 1154 143 1153 144 1152 144 1151 145 1148 145 1147 146 1144 146 1143 145 1139 145 1138 144 1137 144 1136 143 1135 143 1130 138 1130 137 1128 135 1128 134 1127 133 1127 131 1126 130 1126 128 1125 127 1125 123 1124 122 1124 94 1125 93 1125 89 1126 88 1126 86 1127 85 1127 83 1128 82 1128 81 1130 79 1130 78 1135 73 1136 73 1137 72 1138 72 1139 71 1141 71 " style="stroke:pink"/><path d="M1142 74 1141 75 1140 75 1135 80 1135 82 1134 83 1134 85 1133 86 1133 95 1132 96 1132 117 1133 118 1133 128 1134 129 1134 132 1135 133 1135 135 1136 136 1136 137 1140 141 1141 141 1142 142 1148 142 1149 141 1150 141 1155 136 1155 134 1156 133 1156 131 1157 130 1157 125 1158 124 1158 91 1157 90 1157 84 1156 83 1156 82 1155 81 1155 80 1154 79 1154 78 1151 75 1150 75 1149 74 1142 74 " style="stroke:pink"/><path d="M917 69 918 68 963 68 964 69 966 69 967 70 968 70 969 71 970 71 974 75 974 76 975 77 975 78 976 79 976 81 977 82 977 86 976 87 976 89 975 90 975 91 974 92 974 93 968 99 967 99 965 101 964 101 963 102 962 102 961 103 959 103 958 104 956 104 958 104 959 105 961 105 962 106 963 106 965 108 966 108 967 109 967 110 969 112 969 113 970 114 970 116 971 117 971 121 970 122 970 126 968 128 968 129 966 131 966 132 961 137 960 137 958 139 957 139 956 140 955 140 954 141 953 141 952 142 950 142 949 143 946 143 945 144 901 144 899 142 899 141 901 139 908 139 910 137 911 137 911 134 912 133 912 130 913 129 913 126 914 125 914 122 915 121 915 118 916 117 916 114 917 113 917 110 918 109 918 107 919 106 919 102 920 101 920 98 921 97 921 94 922 93 922 91 923 90 923 86 924 85 924 82 925 81 925 78 926 77 926 73 920 73 919 72 918 72 917 71 917 69 " style="stroke:pink"/><path d="M928 106 928 108 927 109 927 112 926 113 926 116 925 117 925 120 924 121 924 124 923 125 923 128 922 129 922 132 921 133 921 136 920 137 920 139 941 139 942 138 945 138 946 137 948 137 950 135 951 135 956 130 956 129 958 127 958 125 959 124 959 122 960 121 960 116 959 115 959 113 958 112 958 111 954 107 951 107 950 106 928 106 " style="stroke:pink"/><path d="M937 73 936 74 936 76 935 77 935 81 934 82 934 84 933 85 933 89 932 90 932 92 931 93 931 97 930 98 930 100 929 101 929 102 949 102 950 101 952 101 953 100 955 100 957 98 958 98 963 93 963 92 964 91 964 90 965 89 965 87 966 86 966 80 965 79 965 78 964 77 964 76 963 75 962 75 961 74 960 74 959 73 937 73 " style="stroke:pink"/><path d="M730 69 731 68 811 68 812 69 812 71 810 73 810 74 809 75 809 76 808 77 808 78 807 79 807 80 806 81 806 82 805 83 805 85 803 87 803 88 802 89 802 90 801 91 801 92 800 93 800 94 799 95 799 97 797 99 797 100 796 101 796 102 795 103 795 104 794 105 794 106 793 107 793 108 792 109 792 110 791 111 791 113 789 115 789 116 788 117 788 118 787 119 787 120 786 121 786 122 785 123 785 124 784 125 784 126 783 127 783 129 781 131 781 133 779 135 779 136 778 137 778 139 777 140 777 141 775 143 775 144 774 145 774 146 773 147 769 147 767 145 767 144 766 143 766 142 765 141 765 140 764 139 764 138 763 137 763 136 762 135 762 134 761 133 761 132 760 131 760 130 759 129 759 128 758 127 758 126 757 125 757 124 756 123 756 122 755 121 755 120 754 119 754 118 753 117 753 116 752 115 752 114 751 113 751 112 750 111 750 110 749 109 749 108 748 107 748 106 747 105 747 104 746 103 746 102 745 101 745 100 744 99 744 98 743 97 743 96 742 95 742 94 741 93 741 92 740 91 740 90 739 89 739 88 738 87 738 86 737 85 737 84 736 83 736 82 735 81 735 80 734 79 734 78 733 77 733 76 732 75 732 74 731 73 731 72 730 71 730 69 " style="stroke:pink"/><path d="M746 77 746 79 747 80 747 81 748 82 748 83 749 84 749 85 750 86 750 87 751 88 751 89 752 90 752 91 753 92 753 93 754 94 754 95 755 96 755 97 756 98 756 99 757 100 757 101 758 102 758 103 759 104 759 105 760 106 760 107 761 108 761 109 762 110 762 111 763 112 763 113 764 114 764 115 765 116 765 117 766 118 766 119 767 120 767 121 768 122 768 123 769 124 769 125 770 126 770 127 771 128 771 129 772 130 772 131 773 132 773 133 774 134 774 135 774 134 775 133 775 132 776 131 776 130 777 129 777 128 778 127 778 126 779 125 779 124 780 123 780 122 781 121 781 120 782 119 782 118 783 117 783 116 784 115 784 114 785 113 785 112 786 111 786 110 787 109 787 108 788 107 788 106 789 105 789 104 790 103 790 102 791 101 791 100 792 99 792 98 793 97 793 96 794 95 794 94 795 93 795 92 796 91 796 90 797 89 797 88 798 87 798 86 799 85 799 84 800 83 800 82 801 81 801 80 802 79 802 78 803 77 746 77 " style="stroke:pink"/><path d="M314 68 372 68 373 69 373 76 372 77 372 85 371 86 371 92 369 94 368 94 366 92 366 91 367 90 367 79 366 78 366 77 364 75 363 75 362 74 360 74 359 73 333 73 332 74 332 75 331 76 331 79 330 80 330 83 329 84 329 87 328 88 328 91 327 92 327 95 326 96 326 99 325 100 325 102 339 102 340 101 342 101 343 100 344 100 345 99 345 98 346 97 346 96 347 95 347 92 348 91 348 90 349 89 350 89 352 91 351 92 351 96 350 97 350 100 349 101 349 104 348 105 348 108 347 109 347 112 346 113 346 116 345 117 345 118 343 120 341 118 341 116 342 115 342 109 341 108 340 108 339 107 324 107 323 108 323 111 322 112 322 115 321 116 321 119 320 120 320 123 319 124 319 127 318 128 318 131 317 132 317 135 316 136 316 139 340 139 341 138 345 138 346 137 348 137 349 136 350 136 352 134 353 134 355 132 355 131 357 129 357 128 358 127 358 126 360 124 360 123 361 122 361 121 362 120 362 118 363 117 363 116 365 114 366 114 367 115 367 118 366 119 366 121 365 122 365 123 364 124 364 126 363 127 363 128 362 129 362 130 361 131 361 133 360 134 360 135 359 136 359 137 358 138 358 140 357 141 357 142 355 144 296 144 295 143 295 140 296 139 303 139 304 138 305 138 306 137 306 135 307 134 307 131 308 130 308 127 309 126 309 123 310 122 310 119 311 118 311 115 312 114 312 112 313 111 313 107 314 106 314 103 315 102 315 99 316 98 316 95 317 94 317 91 318 90 318 87 319 86 319 83 320 82 320 79 321 78 321 75 322 74 321 73 314 73 312 71 312 70 314 68 " style="stroke:pink"/><path d="M125 69 126 68 206 68 207 69 207 71 206 72 206 73 205 74 205 75 204 76 204 77 203 78 203 79 202 80 202 81 201 82 201 83 200 84 200 85 199 86 199 87 198 88 198 89 197 90 197 91 196 92 196 93 195 94 195 95 194 96 194 97 193 98 193 99 192 100 192 101 191 102 191 103 190 104 190 105 189 106 189 107 188 108 188 109 187 110 187 111 186 112 186 113 185 114 185 115 184 116 184 117 183 118 183 119 182 120 182 121 181 122 181 123 180 124 180 125 179 126 179 127 178 128 178 129 177 130 177 131 176 132 176 133 175 134 175 135 174 136 174 137 173 138 173 139 172 140 172 141 171 142 171 143 170 144 170 145 168 147 164 147 163 146 163 145 162 144 162 143 161 142 161 141 160 140 160 139 159 138 159 137 158 136 158 135 157 134 157 133 156 132 156 131 155 130 155 129 154 128 154 127 153 126 153 125 152 124 152 123 151 122 151 121 150 120 150 119 149 118 149 117 148 116 148 115 147 114 147 113 146 112 146 111 145 110 145 109 144 108 144 107 143 106 143 105 142 104 142 103 141 102 141 101 140 100 140 99 139 98 139 97 138 96 138 95 137 94 137 93 136 92 136 91 135 90 135 89 134 88 134 87 133 86 133 85 132 84 132 83 131 82 131 81 130 80 130 79 129 78 129 77 128 76 128 75 127 74 127 73 126 72 126 71 125 70 125 69 " style="stroke:pink"/><path d="M141 77 141 78 142 79 142 80 143 81 143 82 144 83 144 84 146 86 146 88 147 89 147 90 148 91 148 92 149 93 149 94 150 95 150 96 151 97 151 98 152 99 152 100 154 102 154 104 155 105 155 106 156 107 156 108 157 109 157 110 158 111 158 112 159 113 159 114 160 115 160 116 162 118 162 120 163 121 163 122 164 123 164 124 165 125 165 126 166 127 166 128 167 129 167 130 168 131 168 132 169 133 169 134 170 134 170 133 171 132 171 131 172 130 172 129 173 128 173 126 175 124 175 123 176 122 176 121 177 120 177 119 178 118 178 117 179 116 179 115 180 114 180 113 181 112 181 110 183 108 183 107 184 106 184 105 185 104 185 103 186 102 186 101 187 100 187 99 188 98 188 97 189 96 189 94 191 92 191 91 192 90 192 89 193 88 193 87 194 86 194 85 195 84 195 83 196 82 196 81 197 80 197 79 198 78 198 77 141 77 " style="stroke:pink"/><path d="M572 21 573 20 577 20 578 21 580 21 581 22 582 22 584 24 585 24 586 25 586 26 588 28 588 29 589 30 589 32 590 33 590 44 589 45 589 48 588 49 588 51 587 52 587 53 586 54 586 55 585 56 585 57 581 61 581 62 578 65 577 65 574 68 573 68 572 69 571 69 570 70 568 70 567 71 560 71 559 70 558 70 557 69 556 69 554 67 554 66 553 65 553 66 552 67 552 70 551 71 551 74 550 75 550 78 549 79 549 82 548 83 548 86 547 87 547 90 544 93 543 93 542 94 541 94 538 91 538 88 539 87 539 84 540 83 540 80 541 79 541 76 542 75 542 72 543 71 543 68 544 67 544 64 545 63 545 60 546 59 546 56 547 55 547 52 548 51 548 48 549 47 549 44 550 43 550 41 551 40 551 39 552 38 552 37 553 36 553 35 555 33 555 32 562 25 563 25 565 23 566 23 567 22 568 22 569 21 572 21 " style="stroke:pink"/><path d="M574 24 573 25 571 25 570 26 569 26 567 28 566 28 565 29 565 30 563 32 563 33 562 34 562 35 561 36 561 37 560 38 560 39 559 40 559 42 558 43 558 46 557 47 557 50 556 51 556 54 555 55 555 61 556 62 556 63 557 64 557 65 558 65 560 67 565 67 566 66 568 66 574 60 574 59 576 57 576 56 577 55 577 53 578 52 578 50 579 49 579 46 580 45 580 42 581 41 581 30 580 29 580 27 578 25 576 25 575 24 574 24 " style="stroke:pink"/></svg>