<svg width="2240" height="1395" xmlns="http://www.w3.org/2000/svg"><path d="M868 964 859 972 851 978 844 985 851 999 860 1009 859 1022 854 1031 853 1030 858 1021 858 1009 850 1000 843 986 850 977 858 971 867 963 868 964 " style="stroke:pink"/><path d="M934 945 935 955 940 964 946 974 951 985 954 997 954 1011 952 1011 952 997 950 986 945 975 939 965 934 956 933 946 934 945 " style="stroke:pink"/><path d="M969 912 982 915 999 917 998 918 981 916 968 913 969 912 " style="stroke:pink"/><path d="M883 902 899 904 909 906 923 907 949 907 949 909 923 909 908 907 898 905 882 903 883 902 " style="stroke:pink"/><path d="M1169 890 1181 891 1195 891 1210 889 1223 888 1234 890 1233 891 1222 889 1211 890 1196 892 1181 893 1168 891 1169 890 " style="stroke:pink"/><path d="M1155 889 1143 888 1129 886 1114 884 1090 876 1077 872 1064 873 1053 875 1043 878 1033 882 1025 888 1018 897 1014 907 990 939 988 964 991 974 993 985 994 996 992 1007 981 1014 967 1018 955 1017 940 1019 926 1020 911 1022 897 1025 873 1031 861 1035 851 1040 839 1053 833 1061 824 1069 812 1073 792 1077 781 1079 771 1082 760 1086 744 1091 731 1090 721 1089 709 1084 698 1073 685 1068 675 1067 665 1069 655 1073 646 1079 636 1083 625 1086 605 1092 594 1096 583 1098 582 1097 593 1095 604 1091 624 1085 635 1082 645 1078 654 1072 664 1068 674 1066 686 1067 699 1072 710 1083 722 1088 732 1089 744 1089 759 1085 770 1081 780 1078 791 1076 811 1072 823 1068 832 1060 838 1052 850 1039 860 1034 872 1030 896 1024 910 1021 925 1019 939 1018 954 1016 967 1016 980 1013 991 1006 993 995 992 986 990 975 987 965 989 938 1013 906 1017 896 1024 887 1032 881 1042 877 1052 874 1063 872 1076 871 1091 875 1115 883 1130 885 1144 887 1156 888 1155 889 " style="stroke:pink"/><path d="M1168 850 1181 851 1201 852 1212 854 1222 857 1233 860 1257 868 1273 871 1285 875 1284 876 1272 872 1256 869 1232 861 1221 858 1211 855 1200 853 1180 852 1167 851 1168 850 " style="stroke:pink"/><path d="M1106 832 1102 846 1090 870 1089 869 1101 845 1105 831 1106 832 " style="stroke:pink"/><path d="M737 827 755 837 763 843 771 850 781 853 796 856 807 859 817 864 823 872 824 886 818 894 808 898 804 907 810 915 809 916 803 908 807 897 817 893 823 885 822 873 816 865 806 860 795 857 780 854 770 851 762 844 754 838 736 828 737 827 " style="stroke:pink"/><path d="M668 798 682 816 687 826 686 827 681 817 667 799 668 798 " style="stroke:pink"/><path d="M1061 791 1068 803 1082 807 1091 812 1099 818 1111 829 1120 834 1133 837 1153 845 1152 846 1132 838 1119 835 1110 830 1098 819 1090 813 1081 808 1067 804 1060 792 1061 791 " style="stroke:pink"/><path d="M717 819 706 811 696 804 687 799 677 795 664 792 653 790 624 789 610 791 598 794 588 796 578 798 499 797 483 799 469 801 458 803 434 809 422 813 411 817 401 821 391 826 385 834 381 849 385 860 393 871 399 879 406 888 414 898 424 909 442 921 451 932 458 942 480 966 489 972 497 980 506 987 516 997 526 1006 535 1012 544 1021 553 1029 575 1037 589 1049 588 1063 585 1074 580 1084 579 1083 584 1073 587 1062 587 1049 574 1038 552 1030 543 1022 534 1013 525 1007 515 998 505 988 496 981 488 973 479 967 457 943 450 933 441 922 423 910 413 899 405 889 398 880 392 872 384 861 380 850 384 833 390 825 400 820 410 816 421 812 433 808 457 802 468 800 482 798 498 796 578 796 587 795 597 793 609 790 623 788 653 788 665 791 678 794 688 798 697 803 707 810 718 818 717 819 " style="stroke:pink"/><path d="M1161 755 1151 765 1143 771 1135 778 1126 784 1120 793 1117 809 1119 820 1128 829 1139 833 1149 838 1158 843 1163 852 1166 862 1167 877 1164 886 1167 896 1182 898 1193 900 1203 902 1213 907 1222 913 1230 919 1242 922 1255 926 1266 930 1276 933 1286 938 1294 947 1304 952 1303 953 1293 948 1285 939 1275 934 1265 931 1254 927 1241 923 1229 920 1221 914 1212 908 1202 903 1192 901 1181 899 1166 897 1163 887 1166 876 1165 863 1162 853 1157 844 1148 839 1138 834 1127 830 1118 821 1116 810 1119 792 1125 783 1134 777 1142 770 1150 764 1160 754 1161 755 " style="stroke:pink"/><path d="M1507 742 1517 744 1528 748 1538 753 1537 754 1527 749 1516 745 1506 743 1507 742 " style="stroke:pink"/><path d="M738 743 730 750 721 757 711 761 699 765 680 766 668 765 656 764 643 767 632 773 626 782 615 785 614 784 625 781 631 772 642 766 655 763 668 763 681 765 698 764 710 760 720 756 729 749 737 742 738 743 " style="stroke:pink"/><path d="M1557 757 1590 756 1600 749 1610 742 1620 742 1631 748 1642 752 1653 755 1664 759 1673 764 1683 769 1693 772 1729 784 1739 786 1749 787 1761 786 1773 784 1796 783 1806 782 1816 779 1817 780 1807 783 1797 784 1774 785 1762 787 1750 788 1738 787 1728 785 1692 773 1682 770 1672 765 1663 760 1652 756 1641 753 1630 749 1619 743 1610 744 1601 750 1591 757 1558 758 1557 757 " style="stroke:pink"/><path d="M1451 739 1443 750 1432 757 1431 756 1442 749 1450 738 1451 739 " style="stroke:pink"/><path d="M1884 733 1874 735 1854 743 1840 747 1828 748 1814 745 1802 743 1792 739 1793 738 1803 742 1815 744 1829 747 1839 746 1853 742 1873 734 1883 732 1884 733 " style="stroke:pink"/><path d="M1432 729 1442 731 1457 733 1490 733 1490 735 1457 735 1441 732 1431 730 1432 729 " style="stroke:pink"/><path d="M1081 723 1070 727 1060 733 1054 744 1055 757 1048 765 1040 771 1020 781 1008 786 999 791 988 795 979 800 968 804 958 808 948 813 938 816 927 820 917 826 905 836 897 856 896 873 895 883 890 892 881 900 872 905 862 908 844 918 833 921 820 920 808 925 796 928 783 930 764 932 753 935 741 938 731 941 718 944 698 950 685 953 674 957 664 962 656 968 647 974 634 984 627 992 620 1001 616 1011 611 1021 604 1029 595 1035 594 1034 603 1028 610 1020 615 1010 619 1000 626 991 633 983 646 973 655 967 663 961 673 956 684 952 697 949 717 943 730 940 740 937 752 934 763 931 782 929 795 927 807 924 819 919 833 919 843 917 861 907 871 904 880 899 889 891 894 882 895 872 896 855 904 835 916 825 926 819 937 815 947 812 957 807 967 803 978 799 987 794 998 790 1007 785 1019 780 1039 770 1047 764 1054 756 1053 745 1059 732 1069 726 1080 722 1081 723 " style="stroke:pink"/><path d="M1255 720 1254 730 1253 742 1261 750 1270 755 1279 761 1290 765 1295 777 1289 786 1282 794 1273 802 1269 812 1259 830 1255 840 1250 851 1249 850 1254 839 1258 829 1268 811 1272 801 1281 793 1288 785 1294 776 1289 766 1278 762 1269 756 1260 751 1252 743 1252 730 1254 719 1255 720 " style="stroke:pink"/><path d="M749 813 761 814 802 814 815 811 825 809 834 804 845 799 855 794 869 791 878 785 889 772 902 760 911 754 921 749 931 745 942 742 952 739 964 736 984 730 1014 724 1026 722 1039 720 1054 718 1069 717 1083 717 1083 719 1069 719 1055 719 1040 721 1027 723 1015 725 985 731 965 737 953 740 943 743 932 746 922 750 912 755 903 761 890 773 879 786 870 792 856 795 846 800 835 805 826 810 816 812 803 815 761 816 748 814 749 813 " style="stroke:pink"/><path d="M1403 707 1402 718 1397 727 1394 737 1386 757 1381 766 1378 777 1374 787 1369 796 1368 795 1373 786 1377 776 1380 765 1385 756 1393 736 1396 726 1401 717 1402 706 1403 707 " style="stroke:pink"/><path d="M1787 703 1778 710 1768 716 1758 720 1754 731 1751 741 1748 756 1753 767 1761 778 1760 779 1752 768 1747 757 1750 740 1753 730 1757 719 1767 715 1777 709 1786 702 1787 703 " style="stroke:pink"/><path d="M1341 662 1339 672 1331 692 1331 703 1330 721 1334 731 1341 740 1345 750 1344 751 1340 741 1333 732 1329 722 1329 703 1330 691 1338 671 1340 661 1341 662 " style="stroke:pink"/><path d="M1237 654 1247 660 1257 664 1272 668 1311 670 1310 671 1271 669 1256 665 1246 661 1236 655 1237 654 " style="stroke:pink"/><path d="M1057 781 1058 771 1063 757 1068 748 1075 739 1087 728 1094 720 1100 712 1104 702 1109 693 1127 679 1145 669 1155 665 1168 661 1179 658 1192 656 1206 654 1217 653 1218 654 1207 655 1193 657 1180 659 1169 662 1156 666 1146 670 1128 680 1110 694 1105 703 1101 713 1095 721 1088 729 1076 740 1069 749 1064 758 1059 772 1058 782 1057 781 " style="stroke:pink"/><path d="M1425 649 1427 660 1429 670 1431 683 1433 693 1438 703 1446 710 1456 720 1455 721 1445 711 1437 704 1432 694 1430 684 1428 671 1426 661 1424 650 1425 649 " style="stroke:pink"/><path d="M1367 645 1368 656 1370 667 1373 678 1377 689 1379 703 1370 713 1365 722 1362 734 1358 745 1352 753 1344 762 1334 773 1325 778 1316 784 1313 793 1321 801 1332 803 1369 803 1380 807 1386 817 1385 829 1381 841 1377 851 1373 863 1370 874 1363 882 1351 885 1341 884 1330 882 1305 881 1291 882 1271 886 1259 889 1249 893 1238 898 1229 906 1228 905 1237 897 1248 892 1258 888 1270 885 1290 881 1304 880 1331 881 1342 883 1352 884 1362 881 1369 873 1372 862 1376 850 1380 840 1384 828 1384 817 1379 808 1368 804 1332 805 1320 802 1312 794 1315 783 1324 777 1333 772 1343 761 1351 752 1357 744 1361 733 1364 721 1369 712 1378 702 1376 690 1372 679 1369 668 1367 657 1366 646 1367 645 " style="stroke:pink"/><path d="M1181 636 1191 639 1201 644 1214 647 1225 648 1224 649 1213 648 1200 645 1190 640 1180 637 1181 636 " style="stroke:pink"/><path d="M1142 641 1131 642 1116 640 1100 637 1083 635 1066 634 1057 633 1028 634 1008 636 998 638 986 642 976 645 965 649 955 652 938 655 922 657 907 658 887 657 854 658 853 657 886 656 908 657 921 656 937 654 954 651 964 648 975 644 985 641 997 637 1007 635 1027 633 1056 632 1067 633 1084 634 1101 636 1117 639 1132 641 1141 640 1142 641 " style="stroke:pink"/><path d="M1222 609 1214 615 1204 621 1192 626 1183 631 1172 635 1163 640 1153 643 1143 648 1131 653 1122 658 1113 664 1105 670 1094 674 1082 678 1072 681 1056 683 1036 682 1007 681 995 684 984 688 972 691 961 694 949 696 938 697 918 698 891 699 865 700 855 701 836 702 826 703 807 704 797 706 783 706 783 704 797 704 806 703 825 702 835 701 854 700 864 699 890 698 917 697 937 696 948 695 960 693 971 690 983 687 994 683 1006 680 1037 681 1057 682 1071 680 1081 677 1093 673 1104 669 1112 663 1121 657 1130 652 1142 647 1152 642 1162 639 1171 634 1182 630 1191 625 1203 620 1213 614 1221 608 1222 609 " style="stroke:pink"/><path d="M1440 599 1446 609 1448 619 1455 628 1458 638 1460 650 1459 670 1462 680 1467 691 1474 702 1482 712 1490 721 1499 731 1500 746 1497 756 1492 766 1483 773 1474 779 1458 793 1454 804 1453 815 1452 829 1449 839 1444 848 1440 861 1437 876 1435 888 1432 900 1428 910 1419 920 1412 929 1408 939 1403 948 1395 954 1385 964 1384 963 1394 953 1402 947 1407 938 1411 928 1418 919 1427 909 1431 899 1434 887 1436 875 1439 860 1443 847 1448 838 1451 828 1452 814 1453 803 1457 792 1473 778 1482 772 1491 765 1496 755 1499 745 1498 732 1489 722 1481 713 1473 703 1466 692 1461 681 1458 671 1458 650 1457 639 1454 629 1447 620 1445 610 1439 600 1440 599 " style="stroke:pink"/><path d="M1347 577 1334 581 1323 585 1313 589 1304 594 1295 600 1286 607 1277 613 1270 622 1265 631 1257 638 1249 644 1239 647 1230 652 1222 665 1214 672 1203 683 1195 689 1186 696 1176 701 1165 705 1150 708 1137 712 1123 716 1106 719 1105 718 1122 715 1136 711 1149 707 1164 704 1175 700 1185 695 1194 688 1202 682 1213 671 1221 664 1229 651 1238 646 1248 643 1256 637 1264 630 1269 621 1276 612 1285 606 1294 599 1303 593 1312 588 1322 584 1333 580 1346 576 1347 577 " style="stroke:pink"/><path d="M1839 574 1838 584 1835 595 1827 615 1825 625 1822 637 1819 648 1815 658 1810 667 1804 675 1796 695 1792 708 1789 719 1784 728 1781 740 1780 749 1787 761 1799 774 1798 775 1786 762 1779 750 1779 740 1783 727 1788 718 1791 707 1795 694 1803 674 1809 666 1814 657 1818 647 1821 636 1824 624 1826 614 1834 594 1837 583 1838 573 1839 574 " style="stroke:pink"/><path d="M1445 564 1450 573 1458 579 1468 584 1479 594 1489 604 1496 615 1495 616 1488 605 1478 595 1467 585 1457 580 1449 574 1444 565 1445 564 " style="stroke:pink"/><path d="M1432 549 1429 561 1419 577 1411 583 1404 592 1399 604 1396 615 1391 624 1373 636 1365 643 1356 649 1347 654 1338 662 1329 668 1320 673 1310 681 1301 687 1291 692 1283 698 1274 704 1264 708 1256 714 1247 719 1236 723 1227 728 1216 731 1204 735 1171 747 1151 755 1139 759 1125 763 1114 766 1099 769 1088 773 1077 778 1067 784 1049 794 1041 800 1031 805 1019 815 1015 825 1010 834 1001 844 995 853 989 861 987 871 986 886 984 896 977 904 967 908 956 912 947 918 942 927 931 942 922 949 912 954 899 956 878 957 867 958 853 960 842 962 829 965 809 973 798 978 788 983 779 988 759 994 741 997 731 998 719 1001 710 1006 696 1017 691 1027 686 1036 684 1047 679 1057 678 1056 683 1046 685 1035 690 1026 695 1016 709 1005 718 1000 730 997 740 996 758 993 778 987 787 982 797 977 808 972 828 964 841 961 852 959 866 957 877 956 898 955 911 953 921 948 930 941 941 926 946 917 955 911 966 907 976 903 983 895 985 885 986 870 988 860 994 852 1000 843 1009 833 1014 824 1018 814 1030 804 1040 799 1048 793 1066 783 1076 777 1087 772 1098 768 1113 765 1124 762 1138 758 1150 754 1170 746 1203 734 1215 730 1226 727 1235 722 1246 718 1255 713 1263 707 1273 703 1282 697 1290 691 1300 686 1309 680 1319 672 1328 667 1337 661 1346 653 1355 648 1364 642 1372 635 1390 623 1395 614 1398 603 1403 591 1410 582 1418 576 1428 560 1431 548 1432 549 " style="stroke:pink"/><path d="M1458 535 1451 544 1445 553 1440 570 1438 585 1436 601 1434 611 1428 631 1424 642 1419 652 1416 662 1408 682 1406 691 1408 701 1416 712 1423 722 1427 733 1426 745 1424 756 1421 766 1416 775 1413 785 1410 802 1413 812 1415 822 1416 837 1413 848 1405 857 1397 868 1379 888 1372 897 1367 907 1366 917 1368 929 1354 931 1343 926 1335 918 1305 912 1294 909 1284 907 1273 905 1263 901 1251 897 1252 896 1264 900 1274 904 1285 906 1295 908 1306 911 1336 917 1344 925 1355 930 1367 928 1365 918 1366 906 1371 896 1378 887 1396 867 1404 856 1412 847 1415 836 1414 823 1412 813 1409 803 1412 784 1415 774 1420 765 1423 755 1425 744 1426 732 1422 723 1415 713 1407 702 1405 692 1407 681 1415 661 1418 651 1423 641 1427 630 1433 610 1435 600 1437 584 1439 569 1444 552 1450 543 1457 534 1458 535 " style="stroke:pink"/><path d="M1881 526 1875 534 1865 545 1851 547 1844 555 1842 564 1849 575 1855 584 1861 592 1868 601 1875 612 1878 623 1879 637 1877 647 1872 657 1866 665 1861 674 1854 682 1850 692 1847 704 1846 717 1850 727 1849 728 1845 718 1845 704 1849 691 1853 681 1860 673 1865 664 1871 656 1876 646 1878 636 1877 624 1874 613 1867 602 1860 593 1854 585 1848 576 1841 565 1843 554 1850 546 1864 544 1874 533 1880 525 1881 526 " style="stroke:pink"/><path d="M1611 445 1593 455 1577 467 1568 472 1558 478 1550 484 1541 491 1532 499 1524 505 1514 510 1504 514 1492 518 1482 521 1471 524 1462 529 1452 533 1443 538 1433 543 1415 553 1403 557 1392 562 1381 566 1369 569 1359 571 1336 573 1313 572 1303 570 1291 571 1281 574 1271 578 1265 586 1257 594 1247 600 1237 604 1221 603 1204 601 1188 599 1171 597 1156 595 1144 593 1134 591 1114 583 1104 580 1058 579 1038 581 1027 583 1014 586 1004 589 992 592 972 598 961 602 941 610 929 615 920 620 910 624 900 629 889 634 879 639 870 644 860 649 851 654 840 659 831 665 821 670 813 676 804 681 796 687 787 695 769 709 763 718 751 734 746 743 742 753 737 765 734 774 735 788 738 798 743 810 738 823 728 825 717 827 707 828 694 830 683 835 671 851 664 859 656 868 649 877 633 880 621 881 612 887 606 895 604 910 602 922 594 942 590 953 586 973 580 983 571 993 562 998 542 1006 541 1005 561 997 570 992 579 982 585 972 589 952 593 941 601 921 603 909 605 894 611 886 620 880 632 879 648 876 655 867 663 858 670 850 682 834 693 829 706 827 716 826 727 824 737 822 742 809 737 799 734 789 733 775 736 764 741 752 745 742 750 733 762 717 768 708 786 694 795 686 803 680 812 675 820 669 830 664 839 658 850 653 859 648 869 643 878 638 888 633 899 628 909 623 919 619 928 614 940 609 960 601 971 597 991 591 1003 588 1013 585 1026 582 1037 580 1057 578 1105 579 1115 582 1135 590 1145 592 1157 594 1172 596 1189 598 1205 600 1222 602 1237 602 1246 599 1256 593 1264 585 1270 577 1280 573 1290 570 1302 569 1314 571 1337 572 1358 570 1368 568 1380 565 1391 561 1402 556 1414 552 1432 542 1442 537 1451 532 1461 528 1470 523 1481 520 1491 517 1503 513 1513 509 1523 504 1531 498 1540 490 1549 483 1557 477 1567 471 1576 466 1592 454 1610 444 1611 445 " style="stroke:pink"/><path d="M1700 391 1710 400 1723 400 1735 398 1756 394 1768 395 1762 404 1752 409 1742 413 1729 417 1714 421 1704 424 1691 427 1669 433 1658 435 1645 437 1631 439 1615 451 1598 467 1589 476 1579 484 1571 491 1563 497 1553 506 1543 510 1531 526 1526 536 1521 545 1517 555 1513 566 1509 576 1506 590 1504 602 1502 622 1500 638 1501 649 1508 660 1522 676 1535 691 1543 700 1549 708 1555 720 1554 730 1552 742 1547 753 1543 765 1535 785 1530 794 1524 802 1515 809 1507 815 1499 822 1492 830 1487 840 1483 853 1481 865 1479 876 1474 885 1471 895 1456 925 1450 933 1443 943 1437 951 1428 957 1419 962 1409 966 1397 970 1375 969 1360 967 1349 965 1339 964 1328 961 1316 957 1317 956 1329 960 1340 963 1350 964 1361 966 1376 968 1397 968 1408 965 1418 961 1427 956 1436 950 1442 942 1449 932 1455 924 1470 894 1473 884 1478 875 1480 864 1482 852 1486 839 1491 829 1498 821 1506 814 1514 808 1523 801 1529 793 1534 784 1542 764 1546 752 1551 741 1553 729 1553 720 1548 709 1542 701 1534 692 1521 677 1507 661 1500 650 1499 639 1501 621 1503 601 1505 589 1508 575 1512 565 1516 554 1520 544 1525 535 1530 525 1542 509 1552 505 1562 496 1570 490 1578 483 1588 475 1597 466 1614 450 1630 438 1644 436 1657 434 1668 432 1690 426 1703 423 1713 420 1728 416 1741 412 1751 408 1761 403 1767 394 1756 396 1736 399 1724 401 1710 402 1699 392 1700 391 " style="stroke:pink"/><path d="M2017 373 2032 385 2035 396 2039 407 2040 426 2038 440 2036 452 2034 463 2025 475 2014 485 2010 497 2008 507 2002 515 1996 524 1989 534 1983 542 1978 551 1972 559 1965 568 1960 577 1957 587 1953 599 1951 616 1953 646 1952 661 1950 671 1942 681 1937 690 1935 701 1934 711 1928 719 1920 725 1911 730 1901 735 1881 743 1870 748 1861 754 1852 759 1842 763 1833 773 1832 772 1841 762 1851 758 1860 753 1869 747 1880 742 1900 734 1910 729 1919 724 1927 718 1933 710 1933 701 1936 689 1941 680 1949 670 1951 660 1951 646 1950 617 1952 598 1956 586 1959 576 1964 567 1971 558 1977 550 1982 541 1988 533 1995 523 2001 514 2007 506 2009 496 2013 484 2024 474 2033 462 2035 451 2037 439 2039 425 2038 408 2034 397 2031 386 2016 374 2017 373 " style="stroke:pink"/><path d="M1803 331 1802 343 1810 356 1834 374 1844 378 1855 382 1869 385 1883 387 1894 389 1908 390 1927 392 1943 394 1953 397 1964 401 1974 406 1988 420 1987 421 1973 407 1963 402 1952 398 1942 395 1926 393 1907 391 1893 390 1882 388 1868 386 1854 383 1843 379 1833 375 1809 357 1801 344 1802 330 1803 331 " style="stroke:pink"/><path d="M1869 274 1864 283 1852 295 1844 305 1836 311 1827 316 1794 328 1784 332 1774 337 1765 343 1745 353 1737 360 1728 366 1717 375 1709 381 1700 387 1690 391 1672 401 1662 406 1651 412 1642 417 1631 421 1620 427 1611 434 1603 440 1595 448 1587 455 1579 461 1570 467 1560 472 1551 478 1541 482 1533 489 1524 495 1516 501 1503 505 1479 508 1468 510 1451 509 1440 504 1426 502 1416 500 1404 497 1393 495 1384 500 1377 508 1376 507 1383 499 1392 494 1405 496 1417 499 1427 501 1441 503 1452 508 1468 508 1478 507 1502 504 1515 500 1523 494 1532 488 1540 481 1550 477 1559 471 1569 466 1578 460 1586 454 1594 447 1602 439 1610 433 1619 426 1630 420 1641 416 1650 411 1661 405 1671 400 1689 390 1699 386 1708 380 1716 374 1727 365 1736 359 1744 352 1764 342 1773 336 1783 331 1793 327 1826 315 1835 310 1843 304 1851 294 1863 282 1868 273 1869 274 " style="stroke:pink"/><path d="M1923 271 1931 280 1939 288 1947 295 1957 301 1968 304 1981 307 1991 310 2001 314 2009 320 2017 328 2018 344 2016 361 2013 371 2006 380 2001 389 2000 403 1997 414 1993 428 1990 439 1986 449 1981 459 1972 470 1963 476 1956 484 1952 494 1946 503 1936 507 1925 510 1915 513 1900 516 1888 519 1874 522 1863 525 1853 528 1842 533 1834 539 1827 547 1821 555 1813 562 1804 567 1798 576 1793 587 1790 597 1785 606 1777 613 1767 616 1756 621 1747 626 1739 632 1729 638 1719 643 1711 649 1691 661 1681 666 1670 675 1666 686 1661 696 1657 707 1653 719 1650 730 1647 745 1646 744 1649 729 1652 718 1656 706 1660 695 1665 685 1669 674 1680 665 1690 660 1710 648 1718 642 1728 637 1738 631 1746 625 1755 620 1766 615 1776 612 1784 605 1789 596 1792 586 1797 575 1803 566 1812 561 1820 554 1826 546 1833 538 1841 532 1852 527 1862 524 1873 521 1887 518 1899 515 1914 512 1924 509 1935 506 1945 502 1951 493 1955 483 1962 475 1971 469 1980 458 1985 448 1989 438 1992 427 1996 413 1999 402 2000 388 2005 379 2012 370 2015 360 2017 343 2016 329 2008 321 2000 315 1990 311 1980 308 1967 305 1956 302 1946 296 1938 289 1930 281 1922 272 1923 271 " style="stroke:pink"/><path d="M0 0 0 20 20 20 20 0 0 0 " style="stroke:pink"/><path d="M2220 1375 2220 1395 2240 1395 2240 1375 2220 1375 " style="stroke:pink"/></svg>