<?xml version="1.0" encoding="UTF-8" standalone="no"?>
<!-- Created with Inkscape (http://www.inkscape.org/) -->

<svg
   width="300mm"
   height="100mm"
   viewBox="0 0 300 100"
   version="1.1"
   id="svg1667"
   inkscape:version="1.2.2 (732a01da63, 2022-12-09)"
   sodipodi:docname="signature.svg"
   xml:space="preserve"
   xmlns:inkscape="http://www.inkscape.org/namespaces/inkscape"
   xmlns:sodipodi="http://sodipodi.sourceforge.net/DTD/sodipodi-0.dtd"
   xmlns="http://www.w3.org/2000/svg"
   xmlns:svg="http://www.w3.org/2000/svg"><sodipodi:namedview
     id="namedview1669"
     pagecolor="#ffffff"
     bordercolor="#000000"
     borderopacity="0.25"
     inkscape:showpageshadow="2"
     inkscape:pageopacity="0.0"
     inkscape:pagecheckerboard="0"
     inkscape:deskcolor="#d1d1d1"
     inkscape:document-units="mm"
     showgrid="false"
     inkscape:zoom="0.74564394"
     inkscape:cx="531.08458"
     inkscape:cy="156.24079"
     inkscape:window-width="1920"
     inkscape:window-height="1058"
     inkscape:window-x="1912"
     inkscape:window-y="-8"
     inkscape:window-maximized="1"
     inkscape:current-layer="layer1" /><defs
     id="defs1664" /><g
     inkscape:label="Layer 1"
     inkscape:groupmode="layer"
     id="layer1"><path
       style="fill:#000000;stroke-width:0.83108"
       d="M 109.27139,77.169017 C 94.929424,74.238783 84.838564,61.481636 91.325834,54.48175 c 2.93302,-3.164783 3.77955,-2.751714 3.77955,1.844265 0,7.023104 5.721606,11.597347 15.486786,12.381203 6.55154,0.525894 9.27073,-0.171967 10.40962,-2.671564 1.90063,-4.171409 -3.78839,-11.498737 -18.56088,-23.906015 -4.679276,-3.930084 -8.166606,-9.483655 -8.166606,-13.005317 0,-10.61027 17.030136,-12.87276 26.396116,-3.50678 1.48043,1.480425 2.69168,3.550959 2.69168,4.601186 v 1.909503 l -3.19758,-1.582038 c -6.17866,-3.056958 -15.91726,-2.741566 -15.91726,0.515491 0,0.692614 1.77643,2.850403 3.94763,4.795087 9.73952,8.72343 15.87246,15.602645 18.37528,20.611225 4.56983,9.145036 3.19172,16.712027 -3.55537,19.522103 -3.72353,1.550796 -9.49859,2.046185 -13.74341,1.178918 z m 33.64793,-1.042942 c -2.40351,-3.668234 -3.7485,-10.080712 -3.78082,-18.02582 -0.0304,-7.485571 -0.16303,-8.067765 -2.55491,-11.219584 l -2.52278,-3.324321 2.42572,-0.251462 2.42572,-0.251462 0.4885,-7.539958 c 0.40114,-6.191717 0.81295,-7.885329 2.30301,-9.471428 1.88088,-2.002108 8.80521,-4.828825 9.38327,-3.830532 0.18083,0.31231 -0.15136,3.372732 -0.73822,6.800938 -0.58685,3.428206 -1.19565,8.290025 -1.35289,10.804043 l -0.28587,4.570941 7.96068,0.236149 7.96069,0.236148 0.81415,-10.945115 c 0.74357,-9.996425 0.98437,-11.082957 2.77807,-12.535406 2.4489,-1.983 8.92359,-1.865396 8.45186,0.153517 -0.97684,4.180701 -2.61086,15.891711 -2.60909,18.699306 0.002,2.821761 0.37822,3.538348 2.49008,4.740058 3.22307,1.834018 3.1361,2.619087 -0.54197,4.892259 l -3.02996,1.872618 0.54348,11.385072 c 0.46962,9.837737 0.36367,11.534306 -0.77956,12.483105 -3.30135,2.739873 -6.90167,-4.64835 -7.619,-15.634956 l -0.44766,-6.856412 h -8.73562 -8.73563 l 0.56794,11.316744 c 0.51566,10.274952 0.43166,11.420127 -0.91242,12.439772 -2.03989,1.547502 -2.50231,1.460307 -3.94677,-0.744214 z m 129.46972,-0.633842 c -2.48613,-1.230039 -5.12495,-4.037059 -10.04615,-10.686493 l -6.67436,-9.01826 -3.93263,-0.312774 -3.93262,-0.312775 0.55711,9.318516 c 0.52192,8.729994 0.45362,9.373902 -1.08155,10.195504 -2.67539,1.431821 -3.18257,1.092196 -5.52804,-3.701782 -2.23838,-4.575066 -2.23986,-4.591037 -1.84203,-19.738156 0.21899,-8.337661 0.6857,-15.832402 1.03716,-16.654978 0.35146,-0.822577 1.90999,-2.359245 3.46341,-3.414819 l 2.82439,-1.919226 -5.13405,-0.465541 c -4.92115,-0.446233 -8.92007,-2.333023 -9.66198,-4.558762 -0.64422,-1.932639 8.8988,-3.857332 19.32629,-3.897841 8.6887,-0.03375 10.40105,0.19268 13.29729,1.758361 9.07566,4.906238 13.7367,15.441496 10.01541,22.637666 -1.42219,2.750209 -6.27973,7.187362 -8.71418,7.960029 -0.94423,0.299684 -1.71677,0.820445 -1.71677,1.157246 0,1.048469 5.00744,8.596472 9.24624,13.937371 4.21931,5.316339 4.79254,6.958504 2.95995,8.479423 -0.80658,0.669403 -1.97031,0.470521 -4.46289,-0.762709 z M 259.19171,45.592599 c 6.23182,-2.344841 8.77835,-4.808199 8.77835,-8.491626 0,-2.023172 -0.69362,-3.455602 -2.5211,-5.206436 -2.1882,-2.09643 -3.28559,-2.458564 -8.3108,-2.742513 -3.66556,-0.207122 -5.78971,-0.0099 -5.78971,0.537581 0,1.084119 -1.53352,13.045449 -2.08478,16.261119 -0.39396,2.298067 -0.30178,2.376358 2.29155,1.946472 1.48611,-0.246346 4.92253,-1.283415 7.63649,-2.304597 z M 33.815516,75.34517 c -2.150224,-2.709123 -3.014212,-8.053626 -2.819047,-17.4382 0.19197,-9.230892 0.08549,-9.950853 -1.997413,-13.505054 -2.147849,-3.665027 -2.15877,-3.754347 -0.459063,-3.754347 1.48069,0 1.741132,-0.503194 1.741132,-3.364004 0,-2.570244 0.518883,-3.844889 2.199057,-5.402022 l 2.199056,-2.038017 h -3.704925 c -3.930622,0 -5.342799,-1.191959 -8.369313,-7.064182 l -1.285004,-2.493241 h 18.996972 c 18.520775,0 19.043377,0.04629 20.848227,1.846845 1.01819,1.015764 1.616524,2.081577 1.32963,2.36847 -1.848403,1.848403 -12.075641,4.511028 -17.327021,4.511028 h -5.814715 l 0.242729,6.440872 0.242729,6.440872 8.415042,0.235701 c 7.069903,0.198024 8.646974,0.491983 9.865986,1.838977 3.333097,3.68303 -2.007214,6.651664 -11.965757,6.651664 H 39.423007 V 62.99782 c 0,10.519804 -0.197284,12.452992 -1.314592,12.881744 -2.020988,0.775526 -3.388314,0.605316 -4.292899,-0.534394 z m 42.248795,-0.949956 c -2.609336,-3.144057 -3.378321,-9.965661 -3.388233,-30.056709 -0.0075,-15.191599 0.251834,-20.352746 1.079526,-21.484682 0.674799,-0.922843 2.602457,-1.660375 5.065154,-1.937956 l 3.975766,-0.448127 -0.61734,5.726744 c -0.33953,3.149708 -0.65543,15.450382 -0.70198,27.334829 l -0.0847,21.608087 -2.14884,0.249788 c -1.18186,0.137383 -2.612593,-0.309005 -3.179407,-0.991974 z m 115.722299,-0.01397 c -1.96035,-1.436518 -5.26241,-6.358864 -5.26241,-7.844616 0,-0.6184 1.24273,-0.75452 3.75045,-0.410799 l 3.75045,0.514057 -1.65449,-3.646506 c -1.19016,-2.6231 -1.66789,-5.512477 -1.70221,-10.295149 -0.0298,-4.158781 -0.49249,-7.426723 -1.23542,-8.726343 -1.51435,-2.64907 -1.52934,-3.324321 -0.0738,-3.324321 1.88505,0 2.22797,-9.90459 0.41722,-12.050663 -0.77134,-0.914189 -2.15244,-3.158105 -3.0691,-4.986482 l -1.66666,-3.324321 18.62434,0.121574 c 16.00417,0.10447 18.92812,0.320626 20.78373,1.536462 1.8164,1.190153 1.97913,1.590132 1.02452,2.518188 -2.29078,2.227042 -11.32379,4.550119 -17.69261,4.550119 h -6.22166 l -0.41664,2.701011 c -0.22916,1.485556 -0.643,4.477444 -0.91967,6.648642 l -0.50302,3.947631 h 9.14568 c 8.45764,0 9.24123,0.136416 10.41576,1.813292 2.7027,3.858649 -2.51298,6.49751 -12.84225,6.49751 h -7.59357 l 0.28034,8.422929 0.28035,8.422928 9.14188,-0.513487 c 5.02804,-0.282418 10.66213,-0.746822 12.52021,-1.032009 2.99298,-0.459379 3.53698,-0.276378 4.76934,1.604436 0.76505,1.167627 1.16292,2.717365 0.88413,3.443862 -1.0847,2.826689 -4.74556,3.630642 -19.06252,4.186283 -12.1266,0.470633 -14.31953,0.363665 -15.87237,-0.774228 z"
       id="path1978" /></g></svg>
